<?xml version="1.0" encoding="UTF-8" standalone="no"?>
<!-- Created with Inkscape (http://www.inkscape.org/) -->

<svg
   xmlns:dc="http://purl.org/dc/elements/1.1/"
   xmlns:cc="http://creativecommons.org/ns#"
   xmlns:rdf="http://www.w3.org/1999/02/22-rdf-syntax-ns#"
   xmlns:svg="http://www.w3.org/2000/svg"
   xmlns="http://www.w3.org/2000/svg"
   xmlns:sodipodi="http://sodipodi.sourceforge.net/DTD/sodipodi-0.dtd"
   xmlns:inkscape="http://www.inkscape.org/namespaces/inkscape"
   width="143.53017mm"
   height="87.892059mm"
   viewBox="0 0 508.57146 311.42856"
   id="svg2"
   version="1.1"
   inkscape:version="0.91 r13725"
   sodipodi:docname="project-placeholder.svg">
  <defs
     id="defs4">
    <symbol
       id="symbol9598">
      <title
         id="title9600">Octoface</title>
      <path
         d="m 940.812,277.688 c 8.25,-20.219 35.375,-101.75 -8.562,-211.906 0,0 -67.375,-21.312 -219.875,82.906 C 648.5,131.125 579.875,128.5 512,128.5 c -67.906,0 -136.438,2.625 -200.5,20.25 C 159.031,44.469 91.719,65.781 91.719,65.781 47.812,176 74.938,257.469 83.188,277.688 31.5,333.562 0,404.875 0,492.344 0,821.562 213.25,896 510.844,896 808.562,896 1024,821.562 1024,492.344 1024,404.875 992.5,333.562 940.812,277.688 Z M 512,833 c -211.406,0 -382.781,-9.875 -382.781,-214.688 0,-48.938 24.062,-94.595 65.344,-132.312 68.75,-62.969 185.281,-29.688 317.438,-29.688 132.25,0 248.625,-33.281 317.438,29.625 41.312,37.78 65.438,83.312 65.438,132.312 C 894.875,823.125 723.375,833 512,833 Z M 351.156,512.438 c -42.469,0 -76.906,51.062 -76.906,114.188 0,63.126 34.438,114.312 76.906,114.312 42.375,0 76.812,-51.188 76.812,-114.312 0,-63.124 -34.437,-114.188 -76.812,-114.188 z m 321.719,0 C 630.5,512.438 596,563.5 596,626.625 c 0,63.125 34.5,114.312 76.875,114.312 42.375,0 76.812,-51.188 76.812,-114.312 C 749.75,563.5 715.312,512.438 672.875,512.438 Z"
         style="stroke:none"
         id="path9602"
         inkscape:connector-curvature="0" />
    </symbol>
    <symbol
       id="symbol9514">
      <title
         id="title9516">Mark Github</title>
      <path
         d="m 395.5,-205.9 c -281.3,0 -511.7,228.9 -511.7,511.7 0,225.9 147,417.7 349.8,485.8 25.9,5 34.9,-11 34.9,-24.9 0,-12 -1,-53 -1,-95 -104,22.9 -155.8,-20.1 -172.9,-60 -11,-26.9 -24.9,-55 -57,-74.9 -33.9,-21.9 -19.1,-33.9 4,-30.9 28.9,3 58,17.1 78.9,53 43,74.9 116.9,57 149,43 5,-32.9 18.1,-56 32.9,-67.9 C 188.5,521 69.5,477 69.5,281.2 c 0,-56 20.1,-102 53,-137 -5,-13 -22.9,-64.9 5,-135.9 0,0 43,-14 141,53 41,-11 84.9,-17.1 127.9,-17.1 44,0 87,6 127.9,17.1 98,-65.9 141,-53 141,-53 27.9,70.9 10,122.9 5,135.9 32.9,36 53,81.9 53,137 0,196.8 -119.9,239.8 -233.9,252.8 18.1,16.1 34.9,47 34.9,95 0,67.9 -1,123.9 -1,141 0,14 9,29.9 34.9,24.9 C 761,727 908,535 908,309.1 c 0.2,-284.9 -231.2,-515 -512.5,-515 z"
         style="stroke:none"
         id="path9518"
         inkscape:connector-curvature="0" />
    </symbol>
    <symbol
       id="twitter"
       class="Brand-Icons">
      <title
         id="title19045">Twitter</title>
      <path
         transform="matrix(0.05,0,0,-0.05,0,76.8)"
         d="m 1620,1128 q -67,-98 -162,-167 1,-14 1,-42 0,-130 -38,-259.5 Q 1383,530 1305.5,411 1228,292 1121,200.5 1014,109 863,54.5 712,0 540,0 269,0 44,145 q 35,-4 78,-4 225,0 401,138 -105,2 -188,64.5 -83,62.5 -114,159.5 33,-5 61,-5 43,0 85,11 Q 255,532 181.5,620.5 108,709 108,826 l 0,4 q 68,-38 146,-41 -66,44 -105,115 -39,71 -39,154 0,88 44,163 Q 275,1072 448.5,982.5 622,893 820,883 q -8,38 -8,74 0,134 94.5,228.5 94.5,94.5 228.5,94.5 140,0 236,-102 109,21 205,78 -37,-115 -142,-178 93,10 186,50 z"
         id="path19047"
         inkscape:connector-curvature="0" />
    </symbol>
    <clipPath
       clipPathUnits="userSpaceOnUse"
       id="clipPath7814">
      <rect
         style="opacity:1;fill:#43cff4;fill-opacity:1;stroke:none;stroke-width:10;stroke-miterlimit:4;stroke-dasharray:none;stroke-dashoffset:0;stroke-opacity:1"
         id="rect7816"
         width="1680"
         height="1050"
         x="0"
         y="-3947.6377"
         rx="0"
         ry="0" />
    </clipPath>
    <clipPath
       clipPathUnits="userSpaceOnUse"
       id="clipPath8362">
      <path
         sodipodi:nodetypes="sssccss"
         inkscape:connector-curvature="0"
         id="path8364"
         d="m 315.0846,-737.37634 1054,0 c 18.836,0 34,15.164 34,34 l 0,404.87499 -1122.00001,0 0,-404.87499 c 0,-18.836 15.16401,-34 34.00001,-34 z"
         style="opacity:1;fill:#ffffff;fill-opacity:1;stroke:#cccccc;stroke-width:1;stroke-linecap:round;stroke-linejoin:round;stroke-miterlimit:4;stroke-dasharray:none;stroke-dashoffset:0;stroke-opacity:1" />
    </clipPath>
  </defs>
  <sodipodi:namedview
     id="base"
     pagecolor="#ffffff"
     bordercolor="#666666"
     borderopacity="1.0"
     inkscape:pageopacity="0.0"
     inkscape:pageshadow="2"
     inkscape:zoom="1.979899"
     inkscape:cx="153.02384"
     inkscape:cy="176.84552"
     inkscape:document-units="px"
     inkscape:current-layer="layer1"
     showgrid="false"
     fit-margin-top="0"
     fit-margin-left="0"
     fit-margin-right="0"
     fit-margin-bottom="0"
     inkscape:window-width="1920"
     inkscape:window-height="1056"
     inkscape:window-x="1920"
     inkscape:window-y="24"
     inkscape:window-maximized="1" />
  <metadata
     id="metadata7">
    <rdf:RDF>
      <cc:Work
         rdf:about="">
        <dc:format>image/svg+xml</dc:format>
        <dc:type
           rdf:resource="http://purl.org/dc/dcmitype/StillImage" />
        <dc:title></dc:title>
      </cc:Work>
    </rdf:RDF>
  </metadata>
  <g
     inkscape:label="Capa 1"
     inkscape:groupmode="layer"
     id="layer1"
     transform="translate(-104.28571,-475.21936)">
    <path
       style="color:#000000;font-style:normal;font-variant:normal;font-weight:normal;font-stretch:normal;font-size:medium;line-height:normal;font-family:sans-serif;text-indent:0;text-align:start;text-decoration:none;text-decoration-line:none;text-decoration-style:solid;text-decoration-color:#000000;letter-spacing:normal;word-spacing:normal;text-transform:none;direction:ltr;block-progression:tb;writing-mode:lr-tb;baseline-shift:baseline;text-anchor:start;white-space:normal;clip-rule:nonzero;display:inline;overflow:visible;visibility:visible;opacity:1;isolation:auto;mix-blend-mode:normal;color-interpolation:sRGB;color-interpolation-filters:linearRGB;solid-color:#000000;solid-opacity:1;fill:#dddddd;fill-opacity:1;fill-rule:evenodd;stroke:#dddddd;stroke-width:0.99999994px;stroke-linecap:butt;stroke-linejoin:miter;stroke-miterlimit:4;stroke-dasharray:none;stroke-dashoffset:0;stroke-opacity:1;color-rendering:auto;image-rendering:auto;shape-rendering:auto;text-rendering:auto;enable-background:accumulate"
       d="m 235.77399,486.4434 c -12.15255,-0.047 -23.52983,6.97156 -28.78906,18.25976 l -11.04102,-3.48047 c -0.87513,-0.276 -1.78157,-0.17339 -2.53906,0.22071 -0.7575,0.3941 -1.36634,1.07802 -1.64258,1.95312 l -0.48633,1.54297 c -0.55248,1.7502 0.42552,3.62759 2.17579,4.17969 l 11.03906,3.48437 c -2.73069,15.4011 6.31488,30.82095 21.63281,35.65235 16.6578,5.25399 34.44157,-3.99625 39.69922,-20.65235 5.25769,-16.6561 -3.99259,-34.43354 -20.65039,-39.6875 -3.12334,-0.98513 -6.28595,-1.46062 -9.39844,-1.47265 z m -0.0117,1.26953 c 2.98794,0.0126 6.0251,0.47166 9.02539,1.41797 16.00152,5.04697 24.87081,22.09004 19.82032,38.08984 -5.0505,15.9998 -22.09809,24.86926 -38.09961,19.82226 -16.00151,-5.04699 -24.87279,-22.09199 -19.82227,-38.09179 4.10352,-12.9999 16.12843,-21.29274 29.07617,-21.23828 z m -0.0117,4.66211 c -10.95887,-0.042 -21.15035,6.98341 -24.62109,17.97851 -4.27167,13.5325 3.24543,27.9813 16.7793,32.25 13.53387,4.2687 27.9842,-3.25266 32.25586,-16.78515 4.27166,-13.5325 -3.24348,-27.97935 -16.77735,-32.24805 -2.5376,-0.8003 -5.10775,-1.18571 -7.63672,-1.19531 z m 161.125,1.04882 -7.11914,25.61719 -0.15625,0.0195 0.0781,0.63086 9.13281,71.49024 20.78711,-2.65821 -9.21289,-72.12109 -0.26758,0.0352 -13.24219,-23.01368 z m -161.13476,0.22071 c 2.40442,0.01 4.84717,0.37902 7.26172,1.14062 12.87758,4.0617 20.01372,17.77419 15.94922,30.65039 -4.0645,12.8762 -17.78065,20.01483 -30.65821,15.95313 -12.87758,-4.0617 -20.01373,-17.77615 -15.94922,-30.65235 3.30241,-10.46199 12.97734,-17.13559 23.39649,-17.09179 z m 161.54492,3.04883 2.88477,5.01562 -4.43555,0.56641 1.55078,-5.58203 z m -161.37305,3.5371 c -0.20725,0.5823 -0.60766,1.00137 -1.1875,1.38477 -0.57986,0.3833 -1.32665,0.70221 -2.11133,1.03711 -1.56933,0.6698 -3.3814,1.43233 -4.05078,3.30273 -0.66472,1.8572 0.0247,3.83563 0.50782,5.76563 0.48321,1.93 0.80666,3.76973 -0.0781,5.45703 -0.93662,1.7864 -2.17854,2.73651 -3.38672,3.69141 -1.20819,0.9549 -2.42618,1.95778 -2.89062,3.73828 -0.87266,3.3459 -0.0742,6.52539 -0.0742,6.52539 l 1.23633,-0.30664 c 0,0 -0.706,-2.92964 0.0684,-5.89844 0.35912,-1.3768 1.25246,-2.11269 2.44922,-3.05859 1.19675,-0.9459 2.65526,-2.06381 3.72265,-4.09961 1.11928,-2.1348 0.68371,-4.37543 0.1875,-6.35742 -0.49621,-1.9819 -1.00479,-3.7445 -0.54492,-5.0293 0.45518,-1.2719 1.79001,-1.8922 3.35156,-2.5586 0.781,-0.3328 1.59454,-0.66743 2.31641,-1.14453 0.72184,-0.4772 1.36324,-1.12333 1.68359,-2.02343 l -1.19922,-0.42579 z m -41.16992,2.11329 0,0.002 c 0.26684,-0.024 0.54373,-1.6e-4 0.81836,0.0898 l 10.70313,3.37696 -1.72461,5.46875 -10.70508,-3.37696 c -1.09848,-0.3464 -1.69243,-1.48373 -1.34571,-2.58203 l 0.48633,-1.54297 c 0.17336,-0.5492 0.54443,-0.97079 1.00977,-1.21289 0.23266,-0.121 0.49097,-0.19845 0.75781,-0.22265 z m 206.11719,0.56054 7.88867,13.70899 -17.62109,2.25195 4.23828,-15.25977 5.49414,-0.70117 z m -152.98047,1.79102 c -0.20727,0.5823 -0.60572,1.00146 -1.18555,1.38476 -0.57984,0.3834 -1.33056,0.70417 -2.11523,1.03907 -1.56939,0.6697 -3.37942,1.42852 -4.04883,3.29882 -0.66476,1.8573 0.0265,3.83748 0.50977,5.76758 0.48319,1.93 0.80269,3.77169 -0.082,5.45899 -0.93665,1.7864 -2.17464,2.7365 -3.38282,3.6914 -1.20818,0.9549 -2.42815,1.95388 -2.89258,3.73438 -0.87266,3.346 -0.0742,6.52539 -0.0742,6.52539 l 1.23828,-0.30274 c 0,0 -0.70588,-2.92963 0.0684,-5.89843 0.35912,-1.3768 1.2505,-2.1127 2.44726,-3.0586 1.19675,-0.9459 2.6572,-2.06381 3.72461,-4.09961 1.1193,-2.1348 0.68373,-4.37737 0.1875,-6.35937 -0.49622,-1.982 -1.00479,-3.74255 -0.54492,-5.02734 0.45518,-1.2719 1.78999,-1.8923 3.35156,-2.5586 0.78098,-0.3328 1.59259,-0.66938 2.31446,-1.14648 0.72182,-0.4772 1.36519,-1.12344 1.68554,-2.02344 l -1.20117,-0.42578 z m 161.4043,13.13281 8.88867,69.59375 -8.49805,1.08594 -8.88867,-69.59375 8.49805,-1.08594 z m -9.76367,1.24609 8.89257,69.59571 -8.5,1.08789 -8.88867,-69.5957 8.4961,-1.0879 z m -48.38282,14.80469 -175.76758,77.07617 0.25586,0.58399 76.56446,174.60742 1.39258,0 -76.53516,-174.53516 173.43359,-76.05468 98.53907,224.71093 -59.01368,25.87891 3.17188,0 57.51953,-25.22266 -94.22656,-214.8789 7.91211,-3.47266 98.6914,225.06641 -42.20703,18.50781 3.17188,0 40.71484,-17.85352 -22.5918,-51.51757 0.0645,0.0254 39.61328,-101.45313 -28.35547,-11.06445 -28.56836,73.16406 -59.87891,-136.55078 -9.07812,3.98047 -4.82227,-10.99609 0,-0.002 z m -4.80664,13.88086 -157.49414,69.0625 0.25586,0.58399 31.10742,70.93554 157.49414,-69.06054 -31.36328,-71.52149 z m -0.6543,1.67969 9.5293,21.73242 -27.53515,-3.56641 -28.37305,57.46485 -33.11328,-5.16016 -45.65625,66.01172 -30.01367,-68.44336 155.1621,-68.03906 z m -17.26757,19.54492 27.01367,3.49609 0.0801,-0.63085 20.51172,46.77539 -154.14063,67.59375 44.90234,-64.92774 33.24805,5.17969 28.38477,-57.48633 z m -31.74219,11.40625 c -1.65837,0.021 -3.34017,0.36887 -4.95313,1.07617 -6.4518,2.8291 -9.39696,10.36982 -6.56835,16.82032 2.82859,6.45059 10.3724,9.3955 16.82421,6.5664 6.45182,-2.8292 9.39501,-10.37176 6.56641,-16.82226 -2.12146,-4.8379 -6.89404,-7.70423 -11.86914,-7.64063 z m 0.0234,1.27149 c 4.47947,-0.061 8.76556,2.51576 10.67968,6.88085 2.55217,5.8201 -0.0904,12.59174 -5.9121,15.14454 -5.8217,2.5529 -12.5943,-0.0897 -15.14649,-5.91016 -2.55216,-5.8202 0.0943,-12.59173 5.91602,-15.14453 1.4554,-0.6383 2.96974,-0.9503 4.46289,-0.9707 z m 157.51758,24.26562 25.98632,10.13867 -1.83008,4.68555 -6.23632,-2.23047 -0.43164,1.19922 6.20507,2.2168 -1.75585,4.49609 -6.24024,-2.22852 -0.42773,1.19727 6.20312,2.2207 -1.75195,4.49219 -6.23828,-2.23047 -0.43164,1.19922 6.20507,2.2207 -1.75585,4.49414 -6.24024,-2.23046 -0.42578,1.19726 6.20312,2.2207 -1.75586,4.49414 -6.23632,-2.23242 -0.42969,1.20313 6.20312,2.21679 -1.75,4.48438 -8.28906,-3.23438 -0.46289,1.1875 8.28711,3.23243 -1.76172,4.50781 -6.23828,-2.23242 -0.42773,1.20117 6.20507,2.2168 -1.75585,4.49609 -6.23829,-2.23047 -0.42968,1.19922 6.20507,2.21875 -1.75586,4.49414 -6.24023,-2.22852 -0.42773,1.19727 6.20312,2.2207 -1.7539,4.49219 -6.23829,-2.22851 -0.42968,1.19726 6.20507,2.2207 -1.75195,4.48438 -8.28711,-3.23438 -0.46289,1.1836 8.28711,3.23437 -1.75781,4.50782 -6.24024,-2.22852 -0.42773,1.19922 6.20312,2.2168 -1.75586,4.49609 -6.24023,-2.23047 -0.42578,1.19922 6.20312,2.2168 -1.75585,4.49609 -6.23829,-2.23047 -0.42773,1.20117 6.20312,2.21485 -1.75586,4.49804 -6.23828,-2.23046 -0.42773,1.19921 6.20312,2.21485 -1.75,4.48437 -8.28711,-3.23242 -0.37304,0.95508 -10.82813,-24.69531 0.0664,0.0254 28.54102,-73.09766 z m -72.36915,22.80078 -79.96093,35.0625 0.2539,0.58399 25.69336,58.59375 79.96289,-35.06446 -25.94922,-59.17578 z m -0.65429,1.67578 24.92578,56.84375 -77.62891,34.04102 -24.92578,-56.84375 77.62891,-34.04102 z m -93.15235,40.67969 -60.0039,26.3125 0.51172,1.16602 60.0039,-26.3125 -0.51172,-1.16602 z m 3.46485,7.90039 -60.00586,26.3125 0.51172,1.16602 60.0039,-26.3125 -0.50976,-1.16602 z m -70.75977,7.40625 0.28321,0.19727 -0.16602,0.0742 -0.11719,-0.27149 z m 74.22266,0.49414 -60.00391,26.31055 0.51172,1.16601 60.00391,-26.31054 -0.51172,-1.16602 z m 3.46484,7.90039 -60.0039,26.3125 0.51171,1.16602 60.00196,-26.3125 -0.50977,-1.16602 z m 112.85938,1.0918 -79.96094,35.06445 0.25391,0.58399 23.95312,54.62109 1.39258,0 -23.92188,-54.55078 77.62891,-34.04102 24.92578,56.84375 -72.4043,31.74805 3.16993,0 70.91211,-31.09375 -25.94922,-59.17578 z m 25.28711,8.14062 8.05273,3.14454 -1.75586,4.50195 -3.51562,-1.29883 -2.78125,-6.34766 z m -149.16797,4.57618 -45.68164,20.0332 0.51172,1.16601 45.68164,-20.0332 -0.51172,-1.16601 z m 152.66211,3.39453 2.33789,0.86523 -0.92188,2.36133 -1.41601,-3.22656 z m 74.09961,1.66797 -0.0879,0.2539 -26.50977,1.60547 19.76758,17.77734 -0.0547,0.15235 0.60156,0.20898 68.08203,23.66797 6.88282,-19.78906 -68.68164,-23.87695 z m -0.54102,1.55664 -5.83594,16.77539 -11.77343,-10.58985 1.81836,-5.23242 15.79101,-0.95312 z m 1.32617,0.0625 66.27735,23.04101 -2.81641,8.0918 -66.27539,-23.04102 2.81445,-8.09179 z m -18.49218,0.97461 -1.47071,4.22265 -4.30469,-3.87304 5.7754,-0.34961 z m 15.25781,8.32226 66.27734,23.03711 -2.81445,8.09375 -66.27735,-23.04101 2.81446,-8.08985 z m -194.24024,13.66211 -60.00195,26.3125 0.50977,1.16602 60.0039,-26.3125 -0.51172,-1.16602 z m 3.4668,7.90039 -60.00586,26.3125 0.51172,1.16602 60.00391,-26.31055 -0.50977,-1.16797 z m 3.46289,7.90039 -60.00391,26.31055 0.50977,1.16602 60.00586,-26.31055 -0.51172,-1.16602 z m 3.46484,7.89844 -55.21679,24.21289 3.16992,0 52.55664,-23.04687 -0.50977,-1.16602 z m -11.02148,13.81055 -23.7207,10.40234 3.16992,0 21.0625,-9.23633 -0.51172,-1.16601 z"
       id="path26539"
       inkscape:connector-curvature="0" />
  </g>
</svg>
