<svg viewBox="0 0 500.00001 500.00001" xmlns="http://www.w3.org/2000/svg"><path d="m207.305 0c-6.64 0-11.987 5.345-11.987 11.984v85.393c0 6.64 5.347 11.984 11.987 11.984h85.39c6.64 0 11.987-5.343 11.987-11.983v-85.394c0-6.64-5.347-11.984-11.987-11.984zm0 195.318c-6.64 0-11.987 5.347-11.987 11.987v85.39c0 6.64 5.347 11.987 11.987 11.987h85.39c6.64 0 11.987-5.347 11.987-11.987v-85.39c0-6.64-5.347-11.987-11.987-11.987zm0 195.32c-6.64 0-11.987 5.345-11.987 11.985v85.393c0 6.64 5.347 11.984 11.987 11.984h85.39c6.64 0 11.987-5.345 11.987-11.984v-85.393c0-6.64-5.347-11.984-11.987-11.984h-85.39z"/></svg>