<svg xmlns="http://www.w3.org/2000/svg" viewBox="0 0 16 16" stroke-linecap="round" stroke-linejoin="round">
    <path d="M.667 14v-2.167m0 0V5.167m0 6.666a1.5 1.5 0 001.5 1.5h1a1.5 1.5 0 001.5-1.5v-1a1.5 1.5 0 00-1.5-1.5h-1a1.5 1.5 0 00-1.5 1.5m0-5.666V2m0 3.167a1.5 1.5 0 001.5 1.5h1a1.5 1.5 0 001.5-1.5v-1a1.5 1.5 0 00-1.5-1.5h-1a1.5 1.5 0 00-1.5 1.5m14.666 7.666a1.5 1.5 0 01-1.5 1.5h-1c-.827 0-1.5-.672-1.5-1.5v-1c0-.828.673-1.5 1.5-1.5h1a1.5 1.5 0 011.5 1.5m0 0V14m0-3.167V4.167m0 1a1.5 1.5 0 01-1.5 1.5h-1c-.827 0-1.5-.672-1.5-1.5v-1c0-.828.673-1.5 1.5-1.5h1a1.5 1.5 0 011.5 1.5m0 0V2"/>
</svg>