<svg xmlns="http://www.w3.org/2000/svg" viewBox="0 0 16 16" stroke-linecap="round" stroke-linejoin="round">
    <path d="M8 14V2m5.167 7.333c.827 0 1.5.672 1.5 1.5v1c0 .828-.673 1.5-1.5 1.5h-1a1.5 1.5 0 01-1.5-1.5v-1a1.5 1.5 0 011.5-1.5h1zm-9.334 0a1.5 1.5 0 011.5 1.5v1a1.5 1.5 0 01-1.5 1.5h-1a1.5 1.5 0 01-1.5-1.5v-1a1.5 1.5 0 011.5-1.5h1zm9.334-6.666c.827 0 1.5.672 1.5 1.5v1c0 .827-.673 1.5-1.5 1.5h-1c-.828 0-1.5-.673-1.5-1.5v-1a1.5 1.5 0 011.5-1.5h1zm-9.334 0a1.5 1.5 0 011.5 1.5v1c0 .827-.672 1.5-1.5 1.5h-1c-.828 0-1.5-.673-1.5-1.5v-1a1.5 1.5 0 011.5-1.5h1z"/>
</svg>