<svg xmlns="http://www.w3.org/2000/svg" width="500" height="500" viewBox="0 0 132.292 132.292">
  <path d="M0 0v11.207h132.292V0H0zm36.567 29.029c-5.96.092-12.09 4.407-12.289 10.974 0 6.487 5.258 11.745 11.745 11.745 6.486 0 11.744-5.26 11.744-11.745-.81-7.848-5.94-11.055-11.2-10.974zm60.536 0c-5.96.092-12.09 4.407-12.289 10.974 0 6.487 5.258 11.745 11.745 11.745 6.486 0 11.744-5.26 11.744-11.745-.81-7.848-5.94-11.055-11.2-10.974zm-30.495 0c-5.96.092-12.09 4.407-12.29 10.974 0 6.487 5.259 11.745 11.745 11.745 6.487 0 11.745-5.26 11.745-11.745-.811-7.848-5.94-11.055-11.2-10.974zM36.023 80.545c-6.487 0-11.745 5.26-11.745 11.745 0 6.486 5.258 11.745 11.745 11.745 6.486 0 11.744-5.259 11.744-11.745 0-6.486-5.258-11.744-11.744-11.744zm30.04 0c-6.486 0-11.744 5.26-11.744 11.745 0 6.486 5.258 11.745 11.744 11.745 6.487 0 11.745-5.259 11.745-11.745 0-6.486-5.26-11.744-11.745-11.744zM0 121.085v11.207h132.292v-11.207H0z"/>
</svg>
