<svg xmlns="http://www.w3.org/2000/svg" width="500" height="500" viewBox="0 0 132.292 132.292">
  <path d="M0 0v132.292h11.207V0H0zm121.085 0v132.292h11.207V0h-11.207zM30.731 28.258c-6.486 0-11.744 5.259-11.745 11.745 0 6.486 5.259 11.744 11.745 11.744 6.486 0 11.745-5.258 11.745-11.744S37.217 28.258 30.73 28.258zm35.332 0c-6.486 0-11.744 5.259-11.744 11.745 0 6.486 5.258 11.744 11.744 11.744 6.487 0 11.745-5.258 11.745-11.744s-5.259-11.745-11.745-11.745zm35.787 0c-6.486 0-11.744 5.259-11.744 11.745 0 6.486 5.258 11.744 11.744 11.744 6.487 0 11.745-5.258 11.745-11.744s-5.258-11.745-11.745-11.745zM30.731 80.546c-6.486 0-11.744 5.258-11.745 11.744 0 6.487 5.259 11.745 11.745 11.745 6.486 0 11.745-5.258 11.745-11.745 0-6.486-5.259-11.744-11.745-11.744zm35.332 0c-6.486 0-11.744 5.258-11.744 11.744 0 6.487 5.258 11.745 11.744 11.745 6.487 0 11.745-5.258 11.745-11.745 0-6.486-5.259-11.744-11.745-11.744z"/>
</svg>
