<svg xmlns="http://www.w3.org/2000/svg" width="500" height="500" viewBox="0 0 132.292 132.292">
  <path d="M0 0v11.207h132.292V0Zm25.961 33.039c-7.54 0-13.654 6.113-13.654 13.654 0 7.541 6.113 13.654 13.654 13.654 7.541 0 13.654-6.113 13.654-13.654 0-7.54-6.113-13.654-13.654-13.654zm40.217 0c-7.541 0-13.654 6.113-13.654 13.654 0 7.541 6.113 13.654 13.654 13.654 7.541 0 13.654-6.113 13.654-13.654 0-7.54-6.113-13.654-13.654-13.654zm40.217 0c-7.541 0-13.655 6.113-13.655 13.654 0 7.541 6.114 13.654 13.655 13.654 7.54 0 13.654-6.113 13.654-13.654 0-7.54-6.113-13.654-13.654-13.654zm-80.434 38.1c-7.54 0-13.654 6.113-13.654 13.654 0 7.541 6.113 13.655 13.654 13.654 7.541 0 13.654-6.113 13.654-13.654 0-7.54-6.113-13.654-13.654-13.654zm40.217 0c-7.541 0-13.654 6.113-13.654 13.654 0 7.541 6.113 13.655 13.654 13.654 7.541 0 13.654-6.113 13.654-13.654 0-7.54-6.113-13.654-13.654-13.654ZM0 121.085v11.207h132.292v-11.207z"/>
</svg>
