<svg xmlns="http://www.w3.org/2000/svg" width="500" height="500" viewBox="0 0 132.292 132.292">
  <path d="M0 0v11.207h132.292V0H0zm23.845 20.868A13.654 13.654 0 0 0 10.19 34.522a13.654 13.654 0 0 0 13.655 13.655 13.654 13.654 0 0 0 13.654-13.655 13.654 13.654 0 0 0-13.654-13.654zm42.333 0a13.654 13.654 0 0 0-13.654 13.654 13.654 13.654 0 0 0 13.654 13.655 13.654 13.654 0 0 0 13.654-13.655 13.654 13.654 0 0 0-13.654-13.654zm42.333 0a13.654 13.654 0 0 0-13.654 13.654 13.654 13.654 0 0 0 13.654 13.655 13.654 13.654 0 0 0 13.654-13.655 13.654 13.654 0 0 0-13.654-13.654zM23.845 83.31A13.654 13.654 0 0 0 10.19 96.964a13.654 13.654 0 0 0 13.655 13.654 13.654 13.654 0 0 0 13.654-13.654A13.654 13.654 0 0 0 23.845 83.31zm42.333 0a13.654 13.654 0 0 0-13.654 13.654 13.654 13.654 0 0 0 13.654 13.654 13.654 13.654 0 0 0 13.654-13.654A13.654 13.654 0 0 0 66.178 83.31zM0 121.085v11.207h132.292v-11.207H0z"/>
</svg>
