<svg xmlns="http://www.w3.org/2000/svg" viewBox="0 0 16 16" stroke-linecap="round" stroke-linejoin="round">
    <path d="m1.333.667h13.334m-13.334 14.666h13.334m-8-3c0 .828-.673 1.5-1.5 1.5h-1c-.828 0-1.5-.672-1.5-1.5v-1c0-.828.672-1.5 1.5-1.5h1c.827 0 1.5.672 1.5 1.5zm0-7.666c0 .828-.673 1.5-1.5 1.5h-1c-.828 0-1.5-.672-1.5-1.5v-1c0-.828.672-1.5 1.5-1.5h1c.827 0 1.5.672 1.5 1.5zm6.666 7.666c0 .828-.672 1.5-1.5 1.5h-1c-.827 0-1.5-.672-1.5-1.5v-1c0-.828.673-1.5 1.5-1.5h1c.828 0 1.5.672 1.5 1.5zm0-7.666c0 .828-.672 1.5-1.5 1.5h-1c-.827 0-1.5-.672-1.5-1.5v-1c0-.828.673-1.5 1.5-1.5h1c.828 0 1.5.672 1.5 1.5z"/>
</svg>