<svg height="500" viewBox="0 0 500 500.00001" width="500" xmlns="http://www.w3.org/2000/svg"><path d="m244.7221 599.77232c-8.74356-.23149-17.56204 7.91145-15.11407 17.0208.78484 20.54464-3.12134 41.8571 2.47357 61.93045 6.58216 9.0286 20.0097 8.78873 29.40609 5.05351 8.4512-4.98219 8.74157-15.833 8.10023-24.46791.44149-18.09809-.26501-36.2031.22297-54.30073-7.56395-4.41773-16.48936-5.35563-25.08879-5.23612zm-44.29751 66.01088c-19.36478 4.37394-33.4322 19.699-50.33205 29.08316-49.28719 33.24917-150.2865049 92.93351-150.44926766 106.05265-.16276277 13.11914 134.07758766 99.23285 196.51591766 138.30544 10.75131 2.62074 20.33275-9.75883 17.29227-19.82575.3925-81.45094 1.56159-163.00906-1.14948-244.3927-1.56231-5.08292-6.34018-9.47011-11.87739-9.2228zm97.47183.0462c-9.851.61613-13.99563 12.15908-12.40985 20.65039-.18479 81.17012-2.06204 162.46662.74775 243.56038 3.38472 10.15591 18.64881 12.28243 25.26179 4.15584 63.15948-41.28808 188.50983-118.0044 188.35959-132.26974s-134.52366-97.45625-194.33-134.48413c-2.40385-1.02296-5.00146-1.69268-7.62928-1.61274zm-48.33226 52.49193c-9.40973-.61765-19.96753 5.97188-19.84112 16.21391-1.38762 15.37964-.10975 30.85818-.54268 46.27522.37171 8.15226.657 19.35158 9.88273 22.54017 7.62883 2.70869 16.9064 2.28324 23.95469-1.64157 9.58491-7.77956 5.75638-21.43285 6.59078-32.0099.0331-14.30708 1.52697-29.3056-2.89052-43.06808-3.50186-5.82646-10.55612-8.62612-17.15388-8.30975zm84.65064 15.66992c34.07538 22.54881 68.00465 45.28463 101.73531 68.33677-36.14205 24.78238-72.68131 48.93619-109.24734 73.10002-.69437-48.81021-.27459-97.62629-.0692-146.4384zm-162.01797 2.46812c.48562 46.33584.2043 92.67506-.12111 139.01096-36.59663-24.08579-73.007699-48.45394-109.17044-73.18659 36.20548-24.70995 72.59761-49.14706 109.20505-73.25765.0288 2.47774.0577 4.95548.0865 7.43321zm77.36733 100.81072c-9.40971-.61885-19.96779 5.97227-19.84112 16.21391-1.38811 15.37836-.11059 30.85562-.54265 46.27137.37458 8.14841.64976 19.34369 9.86925 22.53826 7.62996 2.71951 16.91382 2.29083 23.96621-1.63581 9.58833-7.77688 5.75769-21.43325 6.59271-32.00989.0326-14.30772 1.52898-29.3075-2.89244-43.07001-3.49885-5.82693-10.55674-8.62323-17.15196-8.30783zm-2.01832 119.22556c-8.95083-.57867-17.23121 6.19054-18.32642 15.1144-.49261 7.32451-.94386 15.0555 1.18408 22.15548 2.64846 8.03057 11.30484 11.69837 19.24716 11.14117 9.28033.5584 19.83508-5.61106 19.82384-15.76794.29129-9.07167 2.13066-19.95882-4.71136-27.18208-4.2894-5.08293-10.96646-5.92267-17.2173-5.46103z" transform="translate(0 -552.3622)"/></svg>