<svg xmlns="http://www.w3.org/2000/svg" viewBox="0 0 16 16" stroke-linecap="round" stroke-linejoin="round">
    <path d="M.667 14.667V1.333m14.666 13.334V1.333m-4 8c.828 0 1.5.673 1.5 1.5v1a1.5 1.5 0 01-1.5 1.5h-1a1.5 1.5 0 01-1.5-1.5v-1c0-.827.672-1.5 1.5-1.5h1zm-5.666 0c.828 0 1.5.673 1.5 1.5v1a1.5 1.5 0 01-1.5 1.5h-1a1.5 1.5 0 01-1.5-1.5v-1c0-.827.672-1.5 1.5-1.5h1zm5.666-6.666a1.5 1.5 0 011.5 1.5v1c0 .827-.672 1.5-1.5 1.5h-1c-.828 0-1.5-.673-1.5-1.5v-1a1.5 1.5 0 011.5-1.5h1zm-5.666 0a1.5 1.5 0 011.5 1.5v1c0 .827-.672 1.5-1.5 1.5h-1c-.828 0-1.5-.673-1.5-1.5v-1a1.5 1.5 0 011.5-1.5h1z"/>
</svg>