<svg xmlns="http://www.w3.org/2000/svg" width="500" height="500" viewBox="0 0 132.292 132.292">
  <path d="M0 0v132.292h11.207V0Zm121.085 0v132.292h11.207V0ZM36.023 28.259c-6.487 0-11.745 5.258-11.745 11.744 0 6.487 5.258 11.745 11.745 11.745 6.486 0 11.744-5.26 11.744-11.745 0-6.486-5.258-11.744-11.744-11.744zm30.04 0c-6.486 0-11.744 5.258-11.744 11.744 0 6.487 5.258 11.745 11.744 11.745 6.487 0 11.745-5.26 11.745-11.745 0-6.486-5.259-11.744-11.745-11.744zm30.496 0c-6.487 0-11.745 5.258-11.745 11.744 0 6.487 5.258 11.745 11.745 11.745 6.486 0 11.744-5.26 11.744-11.745 0-6.486-5.258-11.744-11.744-11.744zM36.023 80.545c-6.487 0-11.745 5.26-11.745 11.745 0 6.486 5.258 11.745 11.745 11.745 6.486 0 11.744-5.259 11.744-11.745 0-6.486-5.258-11.744-11.744-11.744zm30.04 0c-6.486 0-11.744 5.26-11.744 11.745 0 6.486 5.258 11.745 11.744 11.745 6.487 0 11.745-5.259 11.745-11.745 0-6.486-5.259-11.744-11.745-11.744z"/>
</svg>
