<svg xmlns="http://www.w3.org/2000/svg" width="500" height="500" viewBox="0 0 132.292 132.292">
  <path d="M0 0v132.292h11.207V0H0zm121.085 0v132.292h11.207V0h-11.207zM36.023 38.842c-6.487 0-11.745 5.258-11.745 11.744 0 6.487 5.258 11.745 11.745 11.745 6.486 0 11.744-5.259 11.744-11.745 0-6.486-5.258-11.744-11.744-11.744zm30.04 0c-6.486 0-11.744 5.258-11.744 11.744 0 6.487 5.258 11.745 11.744 11.745 6.487 0 11.745-5.259 11.745-11.745 0-6.486-5.259-11.744-11.745-11.744zm30.496 0c-6.487 0-11.745 5.258-11.745 11.744 0 6.487 5.258 11.745 11.745 11.745 6.486 0 11.744-5.259 11.744-11.745 0-6.486-5.258-11.744-11.744-11.744zm-60.536 31.12c-6.487 0-11.745 5.259-11.745 11.745 0 6.486 5.258 11.745 11.745 11.745 6.486 0 11.744-5.259 11.744-11.745 0-6.486-5.258-11.744-11.744-11.744zm30.04 0c-6.486 0-11.744 5.259-11.744 11.745 0 6.486 5.258 11.745 11.744 11.745 6.487 0 11.745-5.259 11.745-11.745 0-6.486-5.259-11.744-11.745-11.744z"/>
</svg>
