<svg xmlns="http://www.w3.org/2000/svg" viewBox="0 0 16 16" stroke-linecap="round" stroke-linejoin="round">
    <path d="m2 .667h2.167 6.666 3.167m-9.833 14.666c-.828 0-1.5-.672-1.5-1.5v-1c0-.827.672-1.5 1.5-1.5h1c.828 0 1.5.673 1.5 1.5v1c0 .828-.672 1.5-1.5 1.5m0-14.666c.828 0 1.5.672 1.5 1.5v1c0 .828-.672 1.5-1.5 1.5h-1c-.828 0-1.5-.672-1.5-1.5v-1c0-.828.672-1.5 1.5-1.5m6.666 14.666c-.828 0-1.5-.672-1.5-1.5v-1c0-.827.672-1.5 1.5-1.5h1c.828 0 1.5.673 1.5 1.5v1c0 .828-.672 1.5-1.5 1.5m0-14.666c.828 0 1.5.672 1.5 1.5v1c0 .828-.672 1.5-1.5 1.5h-1c-.828 0-1.5-.672-1.5-1.5v-1c0-.828.672-1.5 1.5-1.5m-8.833 14.666h3.167 6.666 2.167"/>
</svg>