<svg xmlns="http://www.w3.org/2000/svg" viewBox="0 0 16 16" stroke-linecap="round" stroke-linejoin="round">
    <path d="M1.333 14V2m11.834 7.333c.827 0 1.5.672 1.5 1.5v1c0 .828-.673 1.5-1.5 1.5h-1a1.5 1.5 0 01-1.5-1.5v-1a1.5 1.5 0 011.5-1.5h1zm-6.667 0a1.5 1.5 0 011.5 1.5v1a1.5 1.5 0 01-1.5 1.5h-1a1.5 1.5 0 01-1.5-1.5v-1a1.5 1.5 0 011.5-1.5h1zm6.667-6.666c.827 0 1.5.672 1.5 1.5v1c0 .827-.673 1.5-1.5 1.5h-1c-.828 0-1.5-.673-1.5-1.5v-1a1.5 1.5 0 011.5-1.5h1zm-6.667 0a1.5 1.5 0 011.5 1.5v1c0 .827-.672 1.5-1.5 1.5h-1c-.828 0-1.5-.673-1.5-1.5v-1a1.5 1.5 0 011.5-1.5h1z"/>
</svg>