<svg width="500" height="500" viewBox="0 0 495 500">
  <path d="M175.754 251.669q0 39.766 19.744 62.569 19.744 22.525 54.227 22.525 34.204 0 53.67-22.803 19.745-22.803 19.745-62.291 0-38.933-20.023-61.736-20.022-23.081-53.948-23.081-33.649 0-53.671 22.803-19.744 22.803-19.744 62.014zm151.557 83.147q-16.685 21.413-38.376 31.702-21.413 10.011-50.056 10.011-47.83 0-77.864-34.482-29.755-34.761-29.755-90.378 0-55.618 30.033-90.379 30.033-34.76 77.586-34.76 28.643 0 50.334 10.567 21.69 10.289 38.098 31.424v-36.43h39.766v204.672q40.601-6.118 63.404-36.985 23.081-31.146 23.081-80.368 0-29.755-8.898-55.895-8.621-26.14-26.419-48.387-28.92-36.43-70.634-55.617-41.435-19.467-90.378-19.467-34.205 0-65.628 9.177-31.424 8.9-58.12 26.697-43.66 28.365-68.41 74.527Q40.603 196.329 40.603 250q0 44.216 15.851 82.87 16.13 38.654 46.44 68.131 29.2 28.921 67.576 43.938 38.376 15.295 82.036 15.295 35.873 0 70.356-12.236 34.76-11.958 63.681-34.483l25.028 30.868q-34.76 26.974-75.917 41.156Q294.774 500 252.506 500q-51.446 0-97.053-18.354-45.606-18.075-81.201-52.836-35.595-34.761-54.227-80.367Q1.393 302.558 1.393 250q0-50.612 18.91-96.496 18.91-45.884 53.949-80.645 35.873-35.317 82.87-53.95Q204.118 0 256.677 0q58.954 0 109.288 24.194 50.612 24.193 84.816 68.687 20.857 27.252 31.702 59.232 11.124 31.98 11.124 66.185 0 73.137-44.216 115.406-44.216 42.27-122.08 43.938z"/>
</svg>
