<svg xmlns="http://www.w3.org/2000/svg" width="14.499" height="14.507" viewBox="700.734 827.762 14.499 14.507"><path d="M707.948 827.762c-.193 0-.386.007-.578.022-2.311.181-4.574 1.452-5.839 3.982-1.686 3.372-.52 6.821 1.835 8.787 2.354 1.966 5.955 2.497 8.974.233a.566.566 0 1 0-.68-.906c-2.611 1.959-5.563 1.478-7.568-.196-2.004-1.675-3.005-4.495-1.546-7.412 1.458-2.917 4.314-3.808 6.856-3.208 2.543.599 4.698 2.672 4.698 5.936v.667c0 .525-.176.847-.435 1.076-.258.23-.624.357-.998.357s-.741-.127-.999-.357c-.258-.229-.435-.551-.435-1.076v-3.334a.567.567 0 0 0-1.133 0v.215a3.215 3.215 0 0 0-2.1-.781 3.241 3.241 0 0 0-3.233 3.233 3.241 3.241 0 0 0 3.233 3.233 3.23 3.23 0 0 0 2.482-1.168c.122.199.267.377.433.525a2.63 2.63 0 0 0 1.752.643c.626 0 1.259-.206 1.751-.643.492-.437.815-1.115.815-1.923V835c0-3.773-2.586-6.336-5.572-7.04a7.405 7.405 0 0 0-1.713-.198ZM708 832.9c1.167 0 2.1.933 2.1 2.1a2.09 2.09 0 0 1-2.1 2.1 2.09 2.09 0 0 1-2.1-2.1c0-1.167.933-2.1 2.1-2.1Z"/></svg>
