<svg xmlns="http://www.w3.org/2000/svg" width="500" height="500" viewBox="0 0 132.292 132.292">
  <path d="M0 0v22.517h11.232V11.232h11.657V0H0zm35.415 0v11.232h12.32V0h-12.32zm24.847 0v11.232h12.32V0h-12.32zM85.11 0v11.232h12.32V0H85.11zm24.847 0v11.232h11.104v11.285h11.232V0h-22.336zM22.399 22.608V60.45h-.016v11.181h.016v38.147h87.557v-87.17H22.399zM0 35.043v12.32h11.232v-12.32H0zm121.06 0v12.32h11.232v-12.32H121.06zM0 59.89v12.32h11.232V59.89H0zm121.06 0v12.32h11.232V59.89H121.06zM0 84.736v12.32h11.232v-12.32H0zm121.06 0v12.32h11.232v-12.32H121.06zM0 109.583v22.709h22.89v-11.233H11.231v-11.476H0zm121.06 0v11.476h-11.104v11.233h22.336v-22.709H121.06zM35.415 121.06v11.233h12.32v-11.233h-12.32zm24.847 0v11.233h12.32v-11.233h-12.32zm24.847 0v11.233h12.32v-11.233H85.11z"/>
</svg>
