<svg xmlns="http://www.w3.org/2000/svg" width="500" height="500" viewBox="0 0 132.292 132.292">
  <path d="M22.399 0v11.232h12.914V0H22.399zm25.44 0v11.232h12.32V0H47.84zm24.847 0v11.232h12.32V0h-12.32zm24.846 0v11.232h12.677V0H97.532zM0 22.608V34.94h11.232V22.608H0zm22.399 0V60.45h-.016v11.181h.016v38.147h87.557v-87.17H22.399zm98.661 0V34.94h11.232V22.608H121.06zM0 47.466v12.32h11.232v-12.32H0zm121.06 0v12.32h11.232v-12.32H121.06zM0 72.313v12.32h11.232v-12.32H0zm121.06 0v12.32h11.232v-12.32H121.06zM0 97.16v12.608h11.232V97.16H0zm121.06 0v12.608h11.232V97.16H121.06zM22.4 121.06v11.232h12.914v-11.233H22.399zm25.44 0v11.232h12.32v-11.233H47.84zm24.847 0v11.232h12.32v-11.233h-12.32zm24.846 0v11.232h12.677v-11.233H97.532z"/>
</svg>
