<svg xmlns="http://www.w3.org/2000/svg" width="500" height="500" viewBox="0 0 132.292 132.292">
  <path fill-rule="evenodd" d="M76.729 13.23H55.563c-14.613 0-26.459 11.845-26.459 26.458v52.916c0 14.613 11.846 26.459 26.459 26.459h21.166c14.613 0 26.459-11.846 26.459-26.459V39.688c0-14.613-11.846-26.459-26.46-26.459zM55.563 0c-21.92 0-39.688 17.769-39.688 39.688v52.916c0 21.92 17.769 39.688 39.688 39.688h21.166c21.919 0 39.688-17.768 39.688-39.688V39.688C116.417 17.768 98.647 0 76.729 0Z" clip-rule="evenodd"/>
</svg>
