<svg xmlns="http://www.w3.org/2000/svg" width="500" height="500" viewBox="0 0 132.292 132.292">
  <path d="m96.735 101.457-8.552-8.551c-5.24 5.134-10.41 10.34-15.736 15.387-.54-15.335.043-20.12-.51-35.444-1.4-1.532-3.683-.577-5.5-.915-1.992-.04-4.015-.094-5.972.343-1.09 2.361-.172 5.018-.565 7.508-.162 13.03.11 15.482-.319 28.509-5.323-5.048-10.495-10.254-15.735-15.388l-8.551 8.55 30.72 30.72zM71.827 60.015c1.09-2.361.172-5.018.565-7.508.162-13.03-.11-15.482.319-28.509 5.323 5.048 10.495 10.254 15.735 15.388l8.551-8.55L66.277.115l-30.72 30.719 8.552 8.551c5.24-5.134 10.41-10.34 15.736-15.387.54 15.335-.043 20.12.51 35.444 1.4 1.532 3.683.577 5.5.915 1.992.04 4.015.094 5.972-.343z"/>
</svg>
