<svg xmlns="http://www.w3.org/2000/svg" width="500" height="500" viewBox="0 0 500 500">
  <path d="M500 136.36406V0H363.6375v45.45469H136.36406V0H0v136.36406h45.454687V363.6375H0V500h136.36406v-45.45313H363.6375V500H500V363.6375h-45.45313V136.36406zM45.454687 45.45469h45.454688v45.45469H45.454687zm45.454688 409.09218H45.454687v-45.45625h45.454688zM363.6375 409.09062H136.36406V363.6375H90.909375V136.36406h45.454685V90.90938H363.6375v45.45468h45.45312V363.6375H363.6375zm90.90937 45.45625h-45.45624v-45.45625h45.45624zM409.09062 90.90938V45.45469h45.45625v45.45469zM289.4325 295.45531h-79.20469l-16.59094 45.45407H156.705l77.27281-204.54532h31.93188l77.38718 204.54532h-37.04624zm-69.31844-28.63656h59.31844l-29.65937-87.04562z"/>
</svg>
