<svg xmlns="http://www.w3.org/2000/svg" width="500" height="500" viewBox="0 0 132.292 132.292">
  <path d="M11.583 0v11.232h11.306V0H11.583zm23.832 0v11.232h12.32V0h-12.32zm24.847 0v11.232h12.32V0h-12.32zM85.11 0v11.232h12.32V0H85.11zm24.847 0v11.232h11V0h-11zM22.399 22.608V60.45h-.016v11.18l.016.001v38.147h87.557v-87.17H22.399zm-10.816 98.451v11.233H22.89v-11.233H11.583zm98.373 0v11.233h11v-11.233h-11zm-74.541.001v11.233h12.32V121.06h-12.32zm24.847 0v11.233h12.32V121.06h-12.32zm24.847 0v11.233h12.32V121.06h-12.32z"/>
</svg>
