<svg xmlns="http://www.w3.org/2000/svg" viewBox="0 0 16 16" stroke-linecap="round" stroke-linejoin="round">
    <path d="m2.5 8h.333m.667 1.333h.333m2.667 2.667h.333m1 1.333h.334m-5.667-8h.333m.667 1.334h.333m1.334 1.333h.333m1 1.333h.333m1 1.334h.334m1 1.333h.333m1 1.333h.333m-8.333-10.666h.333m.667 1.333h.333m1.334 1.333h.333m1 1.334h.333m1 1.333h.334m1 1.333h.333m1 1.334h.333m1 1.333h.334m1 1.333h.333m-8.333-10.666h.333m1 1.333h.333m1 1.333h.334m1 1.334h.333m1 1.333h.333m1 1.333h.334m1 1.334h.333m-5.667-8h.334m1 1.333h.333m2.333 2.667h.334m1 1.333h.333m-4.5-6.667c.552 0 1 .448 1 1v3.667h3.667c.552 0 1 .448 1 1v6.667c0 .552-.448 1-1 1h-6.667c-.552 0-1-.448-1-1v-3.667h-3.667c-.552 0-1-.448-1-1v-6.667c0-.552.448-1 1-1z"/>
</svg>