<svg xmlns="http://www.w3.org/2000/svg" viewBox="0 0 16 16" stroke-linecap="round" stroke-linejoin="round">
    <path d="m1.578 1.578s5.387 5.387 5.387 5.387c.891-.892 2.036-1.376 3.202-1.454 1.388-.092 2.808.393 3.869 1.454 1.953 1.953 1.953 5.118 0 7.071-.905.905-2.155 1.464-3.536 1.464-2.761 0-5-2.238-5-5 0-.18-.142-.333-.322-.333h-3.011c-.368 0-.667-.298-.667-.667v-7.733c0-.074.03-.14.078-.189zm0 0c.049-.048.115-.078.189-.078h7.733c.369 0 .667.299.667.667v3.344 4.656l-3.202-3.202m7.071 7.071-3.869-3.869m-7.5-1.333h.333m3.667 4h.333m1 1.333h.334m-5.667-8h.333m.667 1.333h.333m1.334 1.334h.333m1 1.333h.333m1 1.333h.334m1 1.334h.333m1 1.333h.333m-8.333-10.667h.333m.667 1.334h.333m1.334 1.333h.333m1 1.333h.333m1 1.334h.334m1 1.333h.333m1 1.333h.333m1 1.334h.334m1 1.333h.333"/>
</svg>