<svg xmlns="http://www.w3.org/2000/svg" viewBox="0 0 16 16" stroke-linecap="round" stroke-linejoin="round">
    <path d="m2.5 8h.333m.667 1.333h.333m2.667 2.667h.333m1 1.333h.334m-5.667-8h.333m.667 1.334h.333m5.334 5.333h.333m1 1.333h.333m-8.333-10.666h.333m.667 1.333h.333m8 8h.334m1 1.333h.333m-8.333-10.666h.333m1 1.333h.333m5 5.333h.334m1 1.334h.333m-5.667-8h.334m1 1.333h.333m2.333 2.667h.334m1 1.333h.333m-2.5-5.667c0-.552-.448-1-1-1h-7.667c-.552 0-1 .448-1 1v7.667c0 .552.448 1 1 1h7.334c.736 0 1.333-.597 1.333-1.333zm-6 11.334c0 .552.448 1 1 1h7.667c.552 0 1-.448 1-1v-7.667c0-.552-.448-1-1-1h-7.334c-.736 0-1.333.597-1.333 1.333z"/>
</svg>