<svg xmlns="http://www.w3.org/2000/svg" viewBox="0 0 16 16" stroke-linecap="round" stroke-linejoin="round">
    <path d="m10 8.5v-5.667c0-.828-.672-1.5-1.5-1.5h-5.667c-.828 0-1.5.672-1.5 1.5v5.667c0 .828.672 1.5 1.5 1.5h5.667m1.5-1.5c0 .828-.672 1.5-1.5 1.5m1.5-1.5v-2.5h3.167c.828 0 1.5.672 1.5 1.5v5.667c0 .828-.672 1.5-1.5 1.5h-5.667c-.828 0-1.5-.672-1.5-1.5v-3.167h2.5m-2 2h.333m1 1.333h.334m-.334-2.666h.334m1 1.333h.333m1 1.333h.333m-.333-2.666h.333m1 1.333h.334m1 1.333h.333m-3-5.333h.333m1 1.333h.334m1 1.334h.333m-1.667-4h.334m1 1.333h.333"/>
</svg>