<svg xmlns="http://www.w3.org/2000/svg" id="screenshot-43864c00-8517-80fc-8004-14a71e4f14d1" fill="none" version="1.1" viewBox="0 0 16 16"><g id="shape-43864c00-8517-80fc-8004-14a71e4f14d1" fill="#000"><defs id="shape-43864c00-8517-80fc-8004-14a71e4f65d8" fill="#000"><style id="shape-43864c00-8517-80fc-8004-14a71e4f65da">.cls-2{fill:#fc6d26}</style></defs><g id="shape-43864c00-8517-80fc-8004-14a71e4f65d9" fill="#000"><g id="shape-43864c00-8517-80fc-8004-14a71e4f65dc"><path id="fills-43864c00-8517-80fc-8004-14a71e4f65dc" fill="#e24329" d="M15.733 6.099Zl-2.2-5.741a.561.561 0 0 0-.224-.269.583.583 0 0 0-.666.035.587.587 0 0 0-.194.294l-1.47 4.498H5.025L3.555.418a.57.57 0 0 0-.194-.294.581.581 0 0 0-.666-.036.57.57 0 0 0-.224.27L.289 6.038l-.022.058a4.043 4.043 0 0 0 1.342 4.673l.007.006.02.014 3.317 2.485 1.642 1.242.999.754a.67.67 0 0 0 .813 0l1-.754 1.641-1.242 3.337-2.5.009-.006a4.045 4.045 0 0 0 1.339-4.669Z" class="fills"/></g><g id="shape-43864c00-8517-80fc-8004-14a71e4f65dd"><g id="fills-43864c00-8517-80fc-8004-14a71e4f65dd" class="fills"><path d="M15.733 6.099Zc-1.083.16-2.083.61-2.95 1.259L8 10.974l3.047 2.303 3.337-2.499.008-.007a4.045 4.045 0 0 0 1.341-4.672Z" class="cls-2"/></g></g><g id="shape-43864c00-8517-80fc-8004-14a71e4f65de"><path id="fills-43864c00-8517-80fc-8004-14a71e4f65de" fill="#fca326" d="m4.953 13.277 1.642 1.242.999.755a.674.674 0 0 0 .813 0l1-.755 1.641-1.242S9.629 12.203 8 10.974c-1.629 1.229-3.047 2.303-3.047 2.303Z" class="fills"/></g><g id="shape-43864c00-8517-80fc-8004-14a71e4f65df"><g id="fills-43864c00-8517-80fc-8004-14a71e4f65df" class="fills"><path d="M3.217 7.358a7.364 7.364 0 0 0-2.928-1.32l-.022.058a4.043 4.043 0 0 0 1.342 4.673l.007.006.02.014 3.317 2.485L8 10.971Z" class="cls-2"/></g></g></g></g></svg>