<svg xmlns="http://www.w3.org/2000/svg" width="128" height="128" viewBox="0 0 13.1072 13.10542" preserveAspectRatio="xMinYMin meet">
    <path d="M6.5534 13.1502l2.41333-7.42742H4.14l2.41334 7.42743z" fill="#e24329"/>
    <path d="M6.5534 13.15016L4.14 5.72273H.75783l5.79556 7.42743z" fill="#fc6d26"/>
    <path d="M.75783 5.72273L.02446 7.97991a.49964.49964 0 00.18147.5586l6.34746 4.6117L.75777 5.72278z" fill="#fca326"/>
    <path d="M.75783 5.72278H4.14L2.68654 1.24927c-.0748-.2302-.40045-.23015-.4752 0L.75783 5.72278z" fill="#e24329"/>
    <path d="M6.5534 13.15016l2.41333-7.42743h3.38223l-5.79562 7.42743z" fill="#fc6d26"/>
    <path d="M12.34896 5.72273l.73336 2.25718" fill="#fca326"/>
    <path d="M12.34896 5.72278H8.96673l1.45351-4.47351c.0748-.2302.40045-.23015.4752 0l1.45352 4.47351z" fill="#e24329"/>
    <path d="M12.34937 5.72273l.73337 2.25718a.49964.49964 0 01-.18147.5586l-6.34746 4.6117 5.79561-7.42742z" fill="#fca326"/>
</svg>
