<svg viewBox="3658.551 302.026 20 17.949" width="20" height="17.949" xmlns="http://www.w3.org/2000/svg" style="-webkit-print-color-adjust:exact"><path d="m3668.55 319.974 3.685-11.043h-7.364l3.68 11.043ZM3659.71 308.932l-1.122 3.355a.733.733 0 0 0 .277.83l9.685 6.857-8.84-11.042ZM3659.71 308.931h5.16l-2.22-6.65c-.114-.34-.61-.34-.727 0l-2.213 6.65Z" style="fill:#fff"/><path d="m3677.396 308.932 1.118 3.355a.733.733 0 0 1-.276.83l-9.688 6.857 8.846-11.042ZM3677.396 308.931h-5.16l2.216-6.65c.114-.34.61-.34.727 0l2.217 6.65ZM3668.55 319.974l3.685-11.042h5.16l-8.845 11.042ZM3668.55 319.974l-8.84-11.042h5.16l3.68 11.042Z" style="fill:#fff"/></svg>