<svg xmlns="http://www.w3.org/2000/svg" viewBox="5345 -1143 500 500"><path fill="#fff" fill-rule="evenodd" d="M5845-887c0-18-1-35-4-51h-240v96h137c-6 32-24 58-51 76v63h82c49-44 76-108 76-184z" clip-rule="evenodd"/><path fill="#fff" fill-rule="evenodd" d="M5601-643c68 0 126-22 168-60l-82-63a156 156 0 0 1-229-79h-85v64c42 82 128 138 228 138z" clip-rule="evenodd"/><path fill="#fff" fill-rule="evenodd" d="M5458-845a148 148 0 0 1 0-95v-65h-85a246 246 0 0 0 0 224z" clip-rule="evenodd"/><path fill="#fff" fill-rule="evenodd" d="M5601-1043c37 0 71 12 97 37l73-72a256 256 0 0 0-399 73l86 65c20-59 76-103 143-103z" clip-rule="evenodd"/></svg>
