<svg xmlns="http://www.w3.org/2000/svg" fill="none" viewBox="0 0 16 16"><g fill="#000"><path fill="#b2b2b2" d="M7.339 13.094v.207c-2.477-.311-4.354-1.669-4.354-3.305 0-1.229 1.058-2.3 2.64-2.891l-.062-1.48C2.778 6.328.813 8.019.813 9.996c0 2.384 2.839 4.348 6.529 4.678h.001l-.004-1.58Z" class="fills"/><path fill="#f7931e" d="M9.524 13.647ZL9.521 1.326 7.339 2.445v4.482h.004v7.747Z" class="fills"/><path fill="#b2b2b2" d="m15.187 9.123-.295-3.128-1.123.635c-.798-.485-1.816-1.083-3.144-1.091v1.372c.11.031.216.064.322.098.442.144.849.324 1.208.535l-1.181.664 4.213.915Z" class="fills"/></g></svg>