<svg xmlns="http://www.w3.org/2000/svg" xml:space="preserve" width="511.577" height="466.552" viewBox="0 0 135.355 123.442">
  <path d="M64.506 123.318a45.44 45.44 0 0 1-33.31-18.079l-1.957-2.606-8.759 8.745c-4.817 4.81-9.094 8.87-9.504 9.023-1.13.42-3.116.33-4.13-.187-.5-.254-1.266-.91-1.704-1.459-1.012-1.267-1.274-3.567-.568-4.98.249-.497 4.856-5.32 10.239-10.717l9.787-9.814-.565-1.828c-.972-3.14-1.607-6.416-1.926-9.94L21.8 78.08l-8.876-.006c-8.064-.005-8.974-.05-9.935-.495-4.076-1.88-3.959-7.41.194-9.144.818-.342 2.442-.41 9.852-.41h8.872V50.163l-8.353-8.333c-4.683-4.672-8.59-8.789-8.892-9.37-.8-1.539-.59-3.771.48-5.11.437-.548 1.203-1.205 1.702-1.46 1.015-.517 3.001-.606 4.131-.185.41.152 3.037 2.562 5.838 5.355 4.75 4.736 5.094 5.023 5.094 4.269 0-1.329.937-4.49 1.735-5.85.98-1.675 3.03-3.646 4.637-4.46 2.148-1.088 4.034-1.444 7.665-1.444h3.342l.706-2.695C43.323 8.176 54.164 0 67.681 0c13.483 0 24.37 8.22 27.696 20.915l.697 2.66h3.343c3.63 0 5.516.356 7.664 1.444 1.606.814 3.656 2.785 4.638 4.46.797 1.36 1.735 4.521 1.735 5.85 0 .754.343.467 5.093-4.27 2.801-2.792 5.428-5.202 5.838-5.354 1.13-.421 3.116-.332 4.131.186.499.254 1.265.91 1.703 1.459 1.07 1.339 1.28 3.571.479 5.11-.303.581-4.21 4.698-8.892 9.37l-8.352 8.333v17.862h8.872c7.409 0 9.033.068 9.852.41 4.236 1.77 4.236 7.465 0 9.235-.818.342-2.438.41-9.799.41h-8.819l-.307 3.396c-.32 3.524-.955 6.8-1.927 9.94l-.565 1.828 9.787 9.814c5.383 5.398 9.99 10.22 10.239 10.716.707 1.414.444 3.714-.568 4.981-.438.548-1.204 1.204-1.703 1.459-1.015.517-3 .607-4.131.186-.41-.152-4.687-4.212-9.504-9.022l-8.76-8.745-1.919 2.554c-3.453 4.595-7.831 8.607-12.582 11.531-5.776 3.555-13.346 6.039-19.733 6.473-1.222.083-2.758.188-3.413.234-.654.045-2.44-.003-3.968-.107zm-1.852-50V33.63H33.187l-.613.575-.612.575v22.947c0 21.587.03 23.124.518 25.949 2.161 12.52 10.506 22.695 22.5 27.434 1.67.66 6.194 1.862 7.078 1.882l.596.013zm13.658 39.026c13.855-3.5 24.14-14.6 26.57-28.668.487-2.825.517-4.362.517-25.912v-22.91l-.575-.612-.575-.612H72.708v39.687c0 38.605.013 39.688.495 39.688.272 0 1.671-.298 3.109-.66zm9.24-89.496c-.097-.4-.66-1.735-1.253-2.967-1.517-3.152-4.681-6.313-7.887-7.877-3.23-1.577-5.119-2.012-8.731-2.012-3.613 0-5.502.435-8.732 2.012-3.205 1.564-6.37 4.725-7.886 7.877-.593 1.232-1.157 2.567-1.254 2.967l-.177.727H85.73z"/>
</svg>
