<svg height="500" viewBox="0 0 500 500.00001" width="500" xmlns="http://www.w3.org/2000/svg"><path d="m374.18867.0267054c-35.64828-.2594519-69.82413 17.0404356-93.20368 43.4592726-15.96943 15.815633-34.18905 30.514355-45.18713 50.405678-5.1515 18.457664 15.53601 39.058944 33.81154 31.036824 12.22641-5.78727 20.9306-16.63075 30.89383-25.454779 16.22461-15.903949 31.60842-34.624491 53.26814-43.214287 30.62802-9.50856 68.02579 2.749108 83.55033 31.696765 16.13296 27.355411 11.40609 65.900651-12.9823 86.952601-33.6878 33.49189-65.99089 68.54217-101.81764 99.77497-25.67623 17.23892-62.49311 13.96445-85.18151-6.89399-9.89211-7.80227-24.66431-13.50914-36.06589-5.38341-13.15171 8.62196-16.04732 29.62343-4.15345 40.55617 15.93267 16.29843 36.91504 27.64936 59.09307 32.78437 40.13279 9.48411 85.67216-1.55446 114.36469-32.06287 33.07787-32.27923 66.63084-64.14607 97.86433-98.23413 23.04904-23.96391 33.83451-58.70201 31.15623-91.46246-2.70232-43.764061-31.22711-84.958851-71.53209-102.670553-16.87008-7.7105388-35.48438-11.6840846-53.87847-11.2901716zm-159.2861 160.6206946c-39.01926-.33444-76.68538 19.58857-100.83485 49.88477-31.172069 33.41854-67.205805 62.36033-94.800257 98.98025-26.9880443 41.08393-25.4588562 98.63597 3.545885 138.48623 27.24324 38.81883 78.068962 59.33957 124.213102 49.59632 24.72587-4.46394 47.81335-17.32539 65.23405-35.18393 17.52414-16.41671 34.99703-33.22162 49.95378-51.99502 8.83127-16.43283-6.03228-38.57632-24.49974-37.35978-12.4053.64489-20.59493 11.5371-29.6011 18.68791-19.15239 17.81799-35.79382 39.82048-60.06572 51.03535-30.55108 10.5216-68.21902-1.2911-84.667542-29.78775-16.559305-26.43812-13.141765-64.30146 9.984965-85.87978 34.067387-34.21788 67.149797-69.52054 103.267867-101.61931 26.30278-18.27341 64.67227-14.35 87.64732 7.61083 10.00553 7.94798 25.88113 12.00271 36.36258 2.66107 12.25723-9.77484 13.27481-30.9153.40352-40.68432-22.71929-22.32063-54.40976-34.65193-86.14386-34.43284z" fill="#060606"/></svg>