<svg height="500" viewBox="0 0 500.00001 500.00001" width="500" xmlns="http://www.w3.org/2000/svg"><path d="m245.37443 560.1539c-72.9426.89465-147.468897 28.61393-196.950478 83.47116-32.753582 35.68445-52.1283117 84.59022-47.83091055 133.30016 3.41927475 56.44523 36.46265855 107.81152 80.51186155 141.81176 8.098235 6.39662 16.538249 12.35111 25.158027 18.0212.95406 31.91859-.82752 64.10242 2.36912 95.85342 5.26909 12.8142 23.80421 15.9744 33.66354 6.5707 26.23006-21.6325 52.72651-42.96164 78.96925-64.59768 24.56188 2.49228 49.46518 1.12 73.87321-2.21543 68.69794-11.16255 134.94494-48.38561 173.49703-107.33344 26.15943-39.43305 37.9981-89.1593 27.62356-135.76607-10.08926-47.90912-41.19951-89.43958-80.5833-117.64333-48.94193-35.63044-110.07242-52.61515-170.30091-51.47245zm5.61963 42.2586c60.35202.21034 122.75637 21.19128 165.3291 65.52883 25.94218 26.56891 42.87607 63.05006 40.95847 100.32047-.7981 42.23442-23.44831 81.85956-54.77729 109.38195-44.67518 39.7667-105.84101 58.81146-164.93222 55.55457-10.1878.36226-20.63735-2.84553-30.55684-1.60842-19.30569 15.7333-38.62146 31.45426-57.90097 47.21962-.49451-22.26332-.39985-44.53369-.63345-66.80017-44.16587-22.27051-84.219196-58.27234-99.648172-106.34293-13.319659-40.47631-5.658481-87.36395 20.825931-121.22252 41.659691-56.09234 113.281011-82.38894 181.335441-82.0314z" transform="translate(0 -552.36216)"/></svg>