<svg width="40" height="40" xmlns="http://www.w3.org/2000/svg">
  <path fill-rule="evenodd" clip-rule="evenodd" d="M33.91 21.82c.95-1 .95-2.63 0-3.64l-6.35-6.73a2.11 2.11 0 010-2.86 1.82 1.82 0 012.68 0l9.05 9.6c.95 1 .95 2.62 0 3.63l-9.05 9.6c-.74.78-1.94.78-2.68 0a2.11 2.11 0 010-2.87l6.35-6.73zM6.09 21.82c-.95-1-.95-2.63 0-3.64l6.35-6.73c.75-.79.75-2.07 0-2.86a1.82 1.82 0 00-2.68 0L.7 18.19c-.95 1-.95 2.62 0 3.63l9.05 9.6c.74.78 1.94.78 2.68 0 .75-.8.75-2.08 0-2.87L6.1 21.82zM23.37 4.06c1.05.28 1.63 1.52 1.3 2.77l-5.26 27.6c-.33 1.25-1.45 2.03-2.5 1.75-1.06-.28-1.64-1.52-1.3-2.77l5.25-27.6c.33-1.25 1.46-2.03 2.5-1.75z"/>
</svg>
