<svg xmlns="http://www.w3.org/2000/svg" fill="none" viewBox="0 0 20 20">
  <path fill="#fff" d="M8.57 16.013l-3.273 2.611-.22-3.618C3.861 14.283 1.29 12.043.736 8.871c-.554-3.17 3.44-6.166 5.505-7.267 4.782-.64 14.025-.157 12.742 6.89-1.284 7.047-7.477 7.949-10.414 7.519z"/>
  <path fill="#000" d="M9.815.348C6.897.384 3.916 1.493 1.937 3.687.627 5.114-.148 7.07.024 9.019c.136 2.258 1.458 4.312 3.22 5.672.324.256.662.494 1.007.721.038 1.277-.034 2.564.094 3.834.211.513.952.64 1.347.263 1.049-.865 2.109-1.718 3.159-2.584.982.1 1.978.045 2.954-.088 2.748-.447 5.398-1.936 6.94-4.294 1.047-1.577 1.52-3.566 1.105-5.43-.403-1.917-1.648-3.578-3.223-4.706C14.669.982 12.224.302 9.815.348zm.225 1.69c2.414.009 4.91.848 6.613 2.622 1.038 1.062 1.715 2.522 1.638 4.012-.032 1.69-.938 3.275-2.19 4.376-1.788 1.59-4.234 2.352-6.598 2.222-.408.014-.826-.114-1.222-.064-.773.629-1.545 1.258-2.316 1.888-.02-.89-.016-1.781-.026-2.672-1.766-.89-3.369-2.33-3.986-4.253-.532-1.62-.226-3.495.833-4.85 1.667-2.243 4.532-3.295 7.254-3.28z" color="#000"/>
</svg>
