<svg xmlns="http://www.w3.org/2000/svg" viewBox="0 0 16 16" stroke-linecap="round" stroke-linejoin="round">
    <path d="M14.752 10.9998V4.99976C14.7518 4.73663 14.6824 4.47818 14.5508 4.25035C14.4191 4.02252 14.2299 3.83333 14.002 3.70176L8.752 0.701764C8.52376 0.570219 8.26494 0.500977 8.0015 0.500977C7.73806 0.500977 7.47925 0.570219 7.251 0.701764L2.001 3.70176C1.77294 3.8332 1.58348 4.02234 1.45166 4.25018C1.31983 4.47802 1.25029 4.73654 1.25 4.99976V10.9998C1.24943 11.2633 1.31848 11.5223 1.45019 11.7506C1.58189 11.9789 1.77156 12.1683 2 12.2998L7.25 15.2998C7.478 15.4326 7.73714 15.5026 8.001 15.5026C8.26487 15.5026 8.52401 15.4326 8.752 15.2998L14.002 12.2998C14.2304 12.1685 14.42 11.9792 14.5517 11.7511C14.6834 11.523 14.7525 11.2642 14.752 11.0008V10.9998ZM9.69 8.75076C9.69 8.81576 9.673 8.88076 9.64 8.93776C9.60724 8.99507 9.55955 9.04242 9.502 9.07476L8.19 9.82476C8.13271 9.85738 8.06793 9.87453 8.002 9.87453C7.93608 9.87453 7.87129 9.85738 7.814 9.82476L6.502 9.07476C6.44483 9.04227 6.39749 8.99494 6.365 8.93776C6.33176 8.88109 6.31449 8.81647 6.315 8.75076V7.25076C6.315 7.18476 6.331 7.11976 6.365 7.06276C6.39749 7.00559 6.44483 6.95825 6.502 6.92576L7.814 6.17576C7.87123 6.14296 7.93604 6.1257 8.002 6.1257C8.06797 6.1257 8.13278 6.14296 8.19 6.17576L9.502 6.92576C9.559 6.95876 9.607 7.00576 9.639 7.06276C9.67255 7.11936 9.69017 7.18397 9.69 7.24976V8.75076Z"/>
</svg>