<svg xmlns="http://www.w3.org/2000/svg" width="500" height="500" viewBox="0 0 500 500">
  <path fill="#000" d="M250 0c-10.803 0-21.59 2.77-31.248 8.361L54.698 102.107c-19.336 11.114-31.323 31.833-31.31 54.135v187.551c0 22.286 11.982 42.975 31.31 54.075l164.054 93.745a62.406 62.406 0 0 0 62.496 0l164.054-93.745c19.336-11.114 31.323-31.833 31.31-54.136V156.181c0-22.285-11.982-42.975-31.31-54.074L281.248 8.36C271.59 2.77 260.803 0 250 0Zm-15.624 35.399a31.152 31.152 0 0 1 31.248 0v.06l164.115 93.807c9.648 5.563 15.635 15.775 15.625 26.915v187.612c.006 11.143-5.977 21.347-15.625 26.915l-164.115 93.807v.062a31.152 31.152 0 0 1-31.248 0v-.062L70.26 370.709c-9.648-5.564-15.635-15.776-15.624-26.916V156.181c-.007-11.142 5.976-21.347 15.624-26.915L234.376 35.46Z"/>
</svg>
