<svg width="40" height="40" xmlns="http://www.w3.org/2000/svg">
  <path fill-rule="evenodd" clip-rule="evenodd" d="M10 39.46l1.5-2.6c.15.1.31.14.5.14h2v3h-2c-.73 0-1.41-.2-2-.54zM34 40v-3h2c.19 0 .35-.05.5-.13l1.5 2.6c-.59.34-1.27.53-2 .53h-2zm6-26h-3v-2a.98.98 0 00-.13-.5l2.6-1.5c.34.59.53 1.27.53 2v2zM8.54 38l2.6-1.5A.98.98 0 0111 36v-2H8v2c0 .73.2 1.41.54 2zM8 32h3v-2H8v2zM30 8v3h2V8h-2zm4 0v3h2c.19 0 .35.05.5.13l1.5-2.6A3.98 3.98 0 0036 8h-2zm6 8h-3v4h3v-4zm0 6h-3v4h3v-4zm0 6h-3v4h3v-4zm0 6h-3v2c0 .19-.05.35-.13.5l2.6 1.5c.34-.59.53-1.27.53-2v-2zm-8 6v-3h-4v3h4zm-6 0v-3h-4v3h4zm-6 0v-3h-4v3h4z"/>
  <path fill-rule="evenodd" clip-rule="evenodd" d="M28 3H4a1 1 0 00-1 1v24a1 1 0 001 1h24a1 1 0 001-1V4a1 1 0 00-1-1zM4 0a4 4 0 00-4 4v24a4 4 0 004 4h24a4 4 0 004-4V4a4 4 0 00-4-4H4z"/>
</svg>
