<svg xmlns="http://www.w3.org/2000/svg" width="500" height="500" viewBox="0 0 500 500.00001"><path d="M358.943 28.602c-.308 0-.604.037-.89.09-49.585.04-99.173.093-148.752-.014-27.727-.028-55.458.074-83.177.85-4.752-1.018-10.443 1.406-11.455 6.533-.466 103.07-.64 206.2.08 309.292-1.238 5.19 3.24 9.595 8.193 9.9 125.59 1.67 251.218.43 376.822.83-.053-62.194.004-124.387.004-186.58 0-.025.006-.048.006-.072v-33.244c.01-1.015-.075-1.874-.633-2.63 0 0-100.553-100.47-103.737-103.525-1.173-1.204-1.968-1.41-3.215-1.428zm-3.77 41.04V170.24c0 .766.378 1.454.98 1.98.526.603 1.214.98 1.98.98H459.01c.024 47.2-.018 94.397-.512 141.595-100.834.884-201.672.388-302.508.517l.46-245.412c66.24-.125 132.482-.207 198.724-.257zm-311.92 74.215c-14.417.007-28.835.03-43.253.063v327.385c122.697-.3 245.398.592 368.092-.62 5.462-.334 13.184 1.326 16.04-4.894 2.218-19.765 1.22-39.8 1.23-59.675-.866-8.903 1.344-18.108-1.346-26.87-2.656-6.83-11.41-6.93-17.608-6.776-6.942.5-16.216-1.82-20.775 5.065-3.71 17.107-1.46 34.96-2.182 52.37-9.804.426-20.454.09-30.583.226-90.7-.124-181.406.822-272.103-.165l.46-244.926 56.083-.954.754-40.133c-3.85-.03-7.7-.064-11.55-.074-14.418-.022-28.838-.03-43.256-.023z"/></svg>