<svg height="500" viewBox="0 0 500.00001 500.00001" width="500" xmlns="http://www.w3.org/2000/svg"><path d="m406.51244.97329001v15.51209599 19.307309c-45.59605 3.760819-81.68114 31.710286-109.29464 68.536005-29.70843 39.61953-51.83247 89.74546-73.47422 138.52624s-42.80959 96.23955-67.23741 129.74818c-18.98926 26.04832-38.52517 43.38413-63.018613 49.81444v-28.75192h-93.48755729v15.51209 89.84898h93.48755729v-30.41623c38.747483-7.41867 69.869573-33.72876 94.213383-67.12214 28.86179-39.59085 50.55584-89.59868 72.15518-138.28388 21.59934-48.68518 43.09512-96.02588 68.19983-129.50579 22.67977-30.24605 46.49872-48.970651 78.45649-52.306879v24.942559h93.48756v-105.36105999h-93.48756zm27.52797 31.02419299h38.43161v43.312684h-38.43161zm-406.512444 392.692347h38.431621v43.31268h-38.431621z"/></svg>