<svg xmlns="http://www.w3.org/2000/svg" viewBox="0 0 16 16" stroke-linecap="round" stroke-linejoin="round">
    <path d="m7.981 1.333c3.68 0 6.675 2.988 6.686 6.667.01 3.679-2.969 6.667-6.648 6.667-3.68 0-6.675-2.988-6.686-6.667-.01-3.679 2.969-6.667 6.648-6.667zm2.013 4.667-1.994 2-1.994 2m-.012-4 2.006 2 2.006 2" rx="0" ry="0"/><path d="m7.981 1.333c3.68 0 6.675 2.988 6.686 6.667.01 3.679-2.969 6.667-6.648 6.667-3.68 0-6.675-2.988-6.686-6.667-.01-3.679 2.969-6.667 6.648-6.667zm2.013 4.667-1.994 2-1.994 2m-.012-4 2.006 2 2.006 2"/>
</svg>