<svg xmlns="http://www.w3.org/2000/svg" viewBox="0 0.227 16.172 16.451">
  <path fill-rule="evenodd" d="M6.84 14.112C4.86 15.628 2.563 16.678 0 16.678v-1.297c2.194 0 4.22-.896 6.051-2.299C7.885 11.678 9.49 9.79 10.82 7.876c1.327-1.912 2.365-3.827 3.072-5.267A40.19 40.19 0 0 0 14.897.39c.022-.055.04-.097.05-.125l.013-.03.002-.008.001-.001.605.235.604.235v.001L16.17.7l-.003.01-.015.036-.054.135c-.049.118-.12.29-.214.506a41.486 41.486 0 0 1-.829 1.792 42.597 42.597 0 0 1-3.17 5.436c-1.374 1.977-3.067 3.981-5.045 5.496Z" clip-rule="evenodd"/>
</svg>
