<svg xmlns="http://www.w3.org/2000/svg" viewBox="-0.115 0.308 15.287 16.37">
  <path fill-rule="evenodd" d="M3.811 13.248c-.694 1.584-1.717 2.941-3.61 3.43l-.316-1.22c1.363-.352 2.153-1.306 2.772-2.717.311-.71.568-1.512.83-2.381.05-.162.099-.327.148-.494a47.12 47.12 0 0 1 .699-2.203C4.978 5.837 5.88 3.976 7.559 2.58 9.25 1.177 11.65.308 15.172.308v1.26c-3.308 0-5.398.813-6.807 1.983-1.42 1.18-2.226 2.786-2.842 4.531a45.01 45.01 0 0 0-.676 2.133l-.153.51c-.263.87-.538 1.736-.883 2.523Z" clip-rule="evenodd"/>
</svg>
