<svg height="500" viewBox="0 0 500.00001 500.00001" width="500" xmlns="http://www.w3.org/2000/svg"><path d="m42.200656 1051.3855c-15.473196-3.6795-29.879741-15.7165-37.363521-31.2179l-4.7248-9.7867v-61.98274-61.9825h27.402824 27.402825l.340383 55.1319.340395 55.1318h194.415398 194.41541v-194.42954-194.42956h-194.41541-194.415398l-.340395 55.13186-.340383 55.13188h-27.402825-27.402824v-61.98258-61.98258l4.7248-9.78672c6.11369-12.6636 14.58156-21.13147 27.245161-27.24517l9.786724-4.72479h208.13099 208.13096l9.78673 4.72479c12.6636 6.1137 21.13148 14.58157 27.24516 27.24517l4.7248 9.78672v208.19866 208.1986l-4.80498 9.7191c-6.28078 12.7042-14.76269 21.19-27.16498 27.1775l-9.78673 4.7248-205.52117.2052c-116.4972.1163-207.63847-.2983-210.409144-.9572zm174.181394-129.42784c-10.21785-10.236-18.57791-19.195-18.57791-19.909 0-.7138 15.26834-16.5579 33.92966-35.2088 18.66132-18.651 33.73292-34.50122 33.49244-35.22281-.2873-.86209-45.81479-1.53568-132.77556-1.9644l-132.338345-.65245v-26.75038-26.75037l132.338345-.65246c86.96077-.42871 132.48826-1.10231 132.77556-1.96439.24048-.72159-14.83112-16.57184-33.49244-35.2228s-33.92966-34.50987-33.92966-35.24202 8.43714-9.75327 18.7492-20.04695c16.19098-16.16209 19.08423-18.53049 21.20458-17.35803 4.35624 2.4088 136.20725 135.27184 136.20725 137.25272 0 2.1097-135.59691 138.30334-137.69737 138.30334-.71933 0-9.66792-8.375-19.88575-18.6112z" transform="translate(0 -552.36216)"/></svg>