<svg xmlns="http://www.w3.org/2000/svg" stroke-linecap="round" stroke-linejoin="round" viewBox="0 0 16 16">
  <path d="M3.6 3a.5.5 0 0 0-.3.1.5.5 0 0 0 0 .8l1 1c-1 .7-1.8 1.7-2.3 3a.5.5 0 0 0 0 .3c1 2.5 3.3 4.2 6.1 4.2 1 0 2-.3 3-.8l1.2 1.3a.5.5 0 0 0 .7 0 .5.5 0 0 0 0-.8L9.7 8.8 7.3 6.5 4 3a.5.5 0 0 0-.4-.1Zm4.5.6h-.7a.5.5 0 0 0-.5.6.5.5 0 0 0 .6.4H8c2.4 0 4.2 1.4 5 3.4a6 6 0 0 1-.6 1.3.5.5 0 0 0 0 .7.5.5 0 0 0 .8-.1l1-1.7a.5.5 0 0 0 0-.4A6.5 6.5 0 0 0 8 3.6Zm-3 2 1.2 1.3a2.1 2.1 0 0 0 1.3 3.2c.5.2 1.1 0 1.6-.3l1 1c-.6.3-1.3.6-2 .6A5.4 5.4 0 0 1 3 8c.4-1 1-1.8 2-2.4Zm2 2.1L8.4 9c-.2 0-.4.2-.6.1-.7-.1-.8-.8-.7-1.4Z"/>
</svg>