<svg height="500" viewBox="0 0 500.00001 500.00001" width="500" xmlns="http://www.w3.org/2000/svg"><path d="m327.05664 64.849609-198.87305 344.458981 44.75977 25.8418 23.69141-41.03516c2.35903.59703 4.72668 1.17184 7.10742 1.70508 50.37592 11.18535 103.88226 2.66396 150.00781-19.77734 55.1695-26.12751 102.73105-66.57335 141.82812-113.0957 5.99919-7.82735 6.08153-19.58432-.9121-26.86915-14.0138-18.42516-31.27731-34.09609-48.19727-49.78906-27.96601-24.90691-59.37685-47.08692-93.52734-62.90429l18.875-32.693364zm-74.5918 34.433594c-2.93701-.01769-5.87574.0014-8.8125.03516-58.6229 1.203561-114.03827 26.830651-160.890621 60.648441-28.49997 20.93851-55.3792 44.82017-76.4765628 73.3457-5.96967201 7.87671-9.1263945 19.37014-2.8652343 28.01758 7.6561091 11.91781 18.5366421 21.32939 28.0566401 31.70703 26.29913 26.37398 55.826562 50.43229 88.220708 69.19922l21.24609-36.798834c-29.9661-17.48556-57.083589-40.1678-81.53711-64.64453-3.942086-4.05051-7.774775-8.21073-11.392578-12.55469 42.030118-47.43564 96.127158-85.90748 158.062498-101.72656 13.52692-3.23909 27.33538-5.11068 41.22461-5.29102l23.75195-41.14062c-6.17986-.550446-12.38091-.759488-18.58789-.796877zm-11.87109 53.556637c-44.24005 3.79404-83.52927 41.51539-87.5625 86.11719-2.07939 17.47758 1.02205 35.29043 8.27148 51.21875zm90.9668 7.57813c26.2703 11.73991 50.82263 27.92436 72.96484 45.94922 16.31355 13.36149 32.05731 27.80976 46.0918 43.71289-41.51276 44.10281-91.00143 83.18612-149.74219 100.76953-26.42942 8.07583-54.75814 9.69952-82.03125 4.79883l6.56836-11.37891c30.46548 7.6852 64.77948.63723 88.2168-20.83984 23.46907-20.17237 36.70491-51.78847 33.28906-82.69922-1.86537-22.2384-12.15414-43.18803-27.65235-59.01758z"/></svg>
