<svg height="500" viewBox="0 0 500.00001 500.00001" width="500" xmlns="http://www.w3.org/2000/svg"><path d="m243.65331 99.318667c-58.6229 1.203563-114.03973 26.830353-160.892079 60.648143-28.49997 20.93851-55.37799 44.82049-76.4753523 73.34602-5.96967213 7.87671-9.1263425 19.36935-2.8651823 28.01679 7.6561096 11.91781 18.5354616 21.32952 28.0554606 31.70716 47.572626 47.70802 105.695173 87.87247 172.265653 102.78296 50.37592 11.18535 103.88207 2.66407 150.00762-19.77723 55.1695-26.12751 102.73219-66.57333 141.82927-113.09568 5.99918-7.82735 6.08168-19.58369-.91195-26.86851-14.0138-18.42516-31.27793-34.09624-48.19789-49.78921-47.2005-42.03741-104.21038-76.31271-167.65131-85.3265-11.6536-1.665903-23.41722-1.779073-35.16424-1.643943zm6.30081 41.864093c57.41171.9746 110.71358 29.48214 154.57108 65.18432 16.31355 13.36149 32.05797 27.80961 46.09246 43.71274-41.51276 44.10281-91.00271 83.18559-149.74347 100.769-32.93289 10.06304-68.81615 10.11956-101.92939.00077-53.94048-15.88983-100.182418-50.66295-139.53873-90.05663-3.942086-4.05051-7.775036-8.21169-11.392839-12.55565 42.030118-47.43564 96.127099-85.90651 158.062439-101.72559 14.3888-3.44547 29.09394-5.37119 43.87845-5.32896zm-1.411 11.33955c-47.38595-.36448-91.23918 39.17749-95.51261 86.43562-4.14621 34.84959 12.26204 71.0581 41.19098 90.94325 35.06461 25.31752 87.39078 22.8669 119.40775-6.47225 23.46907-20.17237 36.70443-51.78838 33.28858-82.69913-3.17419-37.84189-30.71923-71.96893-66.86684-83.44561-10.1361-3.3391-20.83286-5.00921-31.50786-4.76188zm2.29693 72.98817c14.47839-.10852 26.34418 14.89925 23.06478 28.99518-2.28232 17.56617-26.20992 26.32542-39.42588 14.55868-13.36004-10.06302-11.41937-33.26335 3.67166-40.69749 3.86449-2.27868 8.31026-2.70365 12.68944-2.85637z"/></svg>