<svg xmlns="http://www.w3.org/2000/svg" width="500" height="500" viewBox="0 0 132.292 132.292">
  <path d="M85.032-.03h-.216L16.46.33l.248 131.993 99.012-.177.11-101.378zM28.26 11.433l48.882.276.174 27.017 26.833.053-.246 81.543-75.822.264zm60.283 7.507l8.326 8.32h-8.326zm.795 50.554v.001c-1.627 0-3.167.283-4.621.85a11.027 11.027 0 00-3.772 2.477c-1.06 1.085-1.91 2.416-2.55 3.993-.617 1.553-.925 3.328-.925 5.324 0 2.02.295 3.807.887 5.36.616 1.529 1.454 2.81 2.514 3.846a10.802 10.802 0 003.698 2.366c1.43.518 2.957.776 4.584.776 1.701 0 3.254-.283 4.66-.85 1.404-.567 2.538-1.257 3.4-2.07V80.475h-8.8v4.437h3.993v4.141c-.295.246-.677.431-1.146.554a5.642 5.642 0 01-1.441.185c-2.268 0-3.969-.678-5.102-2.033-1.11-1.38-1.664-3.316-1.664-5.805 0-1.208.148-2.292.444-3.253.32-.962.763-1.775 1.33-2.44a5.669 5.669 0 011.997-1.517 6.018 6.018 0 012.588-.554c1.035 0 1.873.16 2.514.48.665.32 1.294.765 1.886 1.331l2.994-3.364c-.788-.813-1.811-1.54-3.068-2.181-1.233-.641-2.7-.961-4.4-.962zm-44.719.001c-1.256 0-2.415.184-3.474.554-1.036.37-1.935.888-2.7 1.553a6.685 6.685 0 00-1.774 2.292 6.264 6.264 0 00-.628 2.773c0 .888.134 1.688.406 2.403.27.69.628 1.307 1.072 1.85.468.517.986.973 1.553 1.367a9.898 9.898 0 001.811.962l3.143 1.33c.517.222.986.432 1.405.629.444.172.813.37 1.109.591.32.198.555.432.702.703.172.271.259.592.259.961 0 .715-.283 1.282-.85 1.701-.543.419-1.38.628-2.514.628-1.011 0-2.046-.234-3.106-.702a11.857 11.857 0 01-2.847-1.812l-3.106 3.735a12.603 12.603 0 004.178 2.625c1.578.567 3.155.85 4.732.85 1.43 0 2.712-.198 3.846-.592 1.133-.42 2.082-.961 2.846-1.627.789-.69 1.38-1.479 1.775-2.366a6.83 6.83 0 00.628-2.884c0-1.7-.43-3.068-1.293-4.103-.839-1.036-1.997-1.85-3.476-2.44l-3.105-1.257c-.518-.223-.998-.42-1.442-.592a13.296 13.296 0 01-1.183-.591 3.659 3.659 0 01-.776-.703 1.752 1.752 0 01-.26-.962c0-.69.272-1.22.814-1.59.567-.394 1.32-.59 2.256-.59.96 0 1.835.172 2.624.517.789.32 1.577.788 2.366 1.404l2.773-3.437a10.49 10.49 0 00-3.623-2.366 11.059 11.059 0 00-4.14-.814zm10.08.443l7.285 24.106h6.543l7.247-24.106h-5.546l-2.847 11.24c-.345 1.33-.665 2.625-.96 3.882a217.734 217.734 0 01-.962 3.845h-.148c-.37-1.331-.702-2.613-.998-3.845a68.36 68.36 0 00-.961-3.882l-2.884-11.24h-5.768z"/>
</svg>
