<svg height="500" viewBox="0 0 500.00001 500.00001" width="500" xmlns="http://www.w3.org/2000/svg"><path d="m320.39015 552.36384c-73.44108.67745-146.95887-.65415-220.35122 1.35334-20.735733 7.39435-39.285118 27.31347-37.496207 50.50588.159401 136.49023-.678826 273.03012.435229 409.48934 7.00946 21.481 27.826139 39.8571 51.330508 38.0905 93.42612 1.0407 186.87148.3971 280.29208-.074 11.93639-.885 21.88629-9.1406 29.96801-17.301 9.44013-10.0211 14.25282-24.0348 12.62864-37.73777-.068-109.31076.33172-218.62105.414-327.93168-38.8013-38.79882-77.60274-77.59751-116.40404-116.39634l-.817.002zm-164.17825 44.04103c44.39032.0793 88.78053.20461 133.17076.32295.89112 30.38082-1.63281 61.04374 3.10844 91.19049 4.50849 10.79379 17.66579 12.76549 27.98415 11.74708 24.31509.93899 48.65429.86757 72.98341.8347-.94636 100.89864 1.59171 201.89472-.93042 302.73151-4.32142 8.2814-15.4464 5.2405-22.98551 5.4881-85.85716-.442-171.75573.5107-257.58716-.49-8.5224-3.9279-4.48072-14.7643-5.47913-21.87524-1.05218-89.48558-.25588-178.98094-.67544-268.47056.0769-38.72441-.0552-77.52294.82966-116.19834 5.15916-8.09318 16.09959-4.2524 23.95239-5.21639 8.54273-.0805 17.08621.0375 25.62885-.0643zm183.87657 37.19746c7.31652 7.26768 14.61028 14.55841 21.85135 21.90133-9.15606.0559-18.31231.006-27.46846.0135.004-9.15358-.0407-18.30727.0135-27.46076 1.86788 1.84866 3.73577 3.69732 5.60365 5.54598zm-153.21894 126.01577c-13.51688.90037-27.78705-1.09729-40.95181 2.9066-14.55751 6.71156-15.52384 31.17282-.41523 37.83184 12.35107 5.4839 26.1995 1.54676 39.06972 2.81948 55.27419.20135 110.65713 1.39131 165.86234-1.0317 16.51104-4.35227 20.12709-31.04729 4.42141-38.71804-14.42469-5.96564-30.39136-2.38042-45.49997-3.70231-40.8284-.27337-81.65801.1215-122.48646-.10587zm7.57405 82.67833c-15.3862.36678-30.98165-.0866-46.20944 2.22608-14.26085 4.44473-18.88813 25.29444-7.7586 35.35778 10.4972 10.18266 26.50705 6.06793 39.5156 6.93108 56.02716.1996 112.13912 1.36881 168.1116-1.08522 12.16166-1.99844 20.42559-15.48166 16.32845-27.20317-2.76428-10.21399-13.43017-16.41979-23.71054-15.26258-43.82424-1.9684-87.71727-.3158-131.56913-.94096-4.90258-.0291-9.80528-.0358-14.70794-.023zm-9.68287 83.66835c-12.50914.35681-25.33564-.61576-37.64537 1.15148-12.614 6.28059-17.65249 25.62063-6.61289 35.68265 9.88024 9.66013 24.91707 6.06324 37.28579 6.72443 56.77355.32441 113.62307 1.22515 170.34719-1.04388 11.04294-1.63331 19.10832-12.97955 16.70329-23.9371-1.57109-10.58817-11.77955-19.6154-22.71618-17.97767-52.44584-1.16105-104.90969-.29309-157.36183-.59991z" transform="translate(0 -552.36216)"/></svg>