<svg height="500" viewBox="0 0 500.00001 500.00001" width="500" xmlns="http://www.w3.org/2000/svg"><path d="m317.12528 471.03325c9.52605-1.5268 21.63808-5.88007 30.23198-10.86589 7.31591-4.24439 14.9096-11.44578 70.53893-66.89466 34.28725-34.17602 64.32393-64.90521 66.74819-68.2871 5.94724-8.29647 10.30718-17.23746 13.09344-26.85093 1.96474-6.77896 2.30759-10.32705 2.25771-23.36488-.0536-14.00618-.31451-16.14627-2.93646-24.0831-5.57078-16.86318-10.7022-24.45786-29.49286-43.65053-7.77747-7.94386-14.14085-14.88617-14.14085-15.42736s1.65896-2.57324 3.68658-4.51566c8.89059-8.517 17.64557-23.75738 21.0775-36.691 3.01525-11.36331 2.99466-28.65339-.0471-39.54438-11.99408-42.944642-56.24053-70.208932-129.76026-79.957202-14.50618-1.92343-47.0403-3.21912-54.32822-2.16364l-5.11093.74018-51.24063 51.02016c-50.42777 50.210792-51.34631 51.057962-57.90192 53.402862-19.27474 6.89442-45.45272 20.36386-67.05878 34.50394-60.929065 39.87503-97.731945 88.64744-109.9890546 145.7612-2.65385001 12.36605-2.76161001 14.07376-2.75207001 43.61435.0149 46.10611 4.27655001 79.74678 12.52906961 98.90211 4.27578 9.92474 10.76576 14.07719 14.80374 9.47182 5.68352-6.48212 7.77887-16.85274 9.55563-47.29413 1.4464-24.78145 2.63665-33.64598 6.13228-45.67054 5.22282-17.96585 16.46721-34.51908 29.53158-43.47438 10.83708-7.42853 25.47563-12.41498 36.446235-12.41498h5.73172l66.09745 66.17816c36.35359 36.39798 68.74829 68.24472 71.98823 70.77053 7.8799 6.14303 20.32423 12.2491 30.14519 14.79134 9.12361 2.36172 25.79674 3.33473 34.16367 1.99371zm-30.74438-43.52678c-6.28378-2.77414-11.29296-7.56203-88.39009-84.48512-44.95084-44.84938-81.7288-82.01116-81.7288-82.58176 0-1.67826 171.50255-172.698112 173.18555-172.698112.84371 0 17.29351 15.754532 36.55512 35.010072l35.02111 35.01007 8.53892-1.83165c15.31507-3.28516 33.64683-9.87722 33.64683-12.09933 0-.70004-15.91022-17.17803-35.35603-36.61772-19.44582-19.439692-35.35604-35.747822-35.35604-36.240292 0-1.4549 16.8363.37399 31.8179 3.4563 37.79483 7.77592 62.4775 21.54504 72.54705 40.470082 2.42949 4.56606 2.72648 6.24243 2.72718 15.39375.00074 9.54258-.23802 10.75476-3.37225 17.12129-10.46671 21.26091-44.92878 37.51817-97.0586 45.78673-16.44414 2.6083-44.24727 5.21074-55.72808 5.2163-8.42733.004-8.66276-.0645-12.68471-3.69815-6.70444-6.05706-12.23703-8.06148-22.28312-8.07302-6.98312-.008-9.64099.44831-13.40001 2.30071-12.18026 6.00222-19.65545 17.26459-19.73227 29.72926-.0594 9.63909 2.49441 16.49348 8.65764 23.23705 8.25011 9.02693 18.94304 12.80118 30.31273 10.69938 7.26152-1.34237 11.76206-3.59165 17.75023-8.87126l4.62931-4.08151 17.40417-1.16711c48.27898-3.23755 83.65061-9.81121 113.64128-21.1197l9.31859-3.51374 17.55689 17.64525c19.5352 19.63349 22.99402 24.79624 25.08173 37.43785 1.49718 9.06571.11188 17.64064-4.33547 26.83636-2.90934 6.01558-9.04439 12.48728-63.29211 66.76516-40.76527 40.78793-61.55256 60.87669-64.68215 62.50858-9.92757 5.17662-13.29312 5.96969-24.08309 5.67497-8.67911-.23705-11.26799-.73014-16.90941-3.22069z"/></svg>
