<svg width="17" xmlns="http://www.w3.org/2000/svg" height="17" viewBox="512.5 295.5 17 17" stroke-linecap="round"><path d="M526.500,301.500L523.500,301.500M523.500,301.500L523.500,298.500M523.500,301.500L527.500,297.500M526.500,306.500L523.500,306.500M523.500,306.500L523.500,309.500M523.500,306.500L527.500,310.500M515.500,301.500L518.500,301.500M518.500,301.500L518.500,298.500M518.500,301.500L514.500,297.500M515.500,306.500L518.500,306.500M518.500,306.500L518.500,309.500M518.500,306.500L514.500,310.500" style="fill: none;" class="fills"/><g class="strokes"><path d="M526.500,301.500L523.500,301.500M523.500,301.500L523.500,298.500M523.500,301.500L527.500,297.500M526.500,306.500L523.500,306.500M523.500,306.500L523.500,309.500M523.500,306.500L527.500,310.500M515.500,301.500L518.500,301.500M518.500,301.500L518.500,298.500M518.500,301.500L514.500,297.500M515.500,306.500L518.500,306.500M518.500,306.500L518.500,309.500M518.500,306.500L514.500,310.500" /></g></svg>
