<svg height="500" viewBox="0 0 500.00001 500.00001" width="500" xmlns="http://www.w3.org/2000/svg"><path d="m83.616366 50.851253c-15.585382.632535-31.369248-1.246684-46.840493.95443-21.943838 4.547303-38.8123034 26.818692-36.5092167 49.416057-.012915 102.34304-.6029662 204.70587.014666 307.0368 2.5952914 24.24676 26.2107747 43.2084 50.4994727 40.84049 136.057725-.19771 272.135235.41209 408.180585-.31988 24.24431-2.59523 43.21098-26.20942 40.83783-50.49748-.26928-85.5517.57452-171.13344-.44023-256.6663-2.93639-23.7864-26.55752-42.382306-50.37645-39.967-66.92784 0-133.85569 0-200.78352 0-16.93238-16.932376-33.86474-33.864746-50.79712-50.797117-37.9285-.000747-75.85702-.0034-113.785524 0zm-38.955035 93.466687h412.472549v262.11309c-138.16815 0-276.33629 0-414.504434 0 0-87.37103 0-174.74206 0-262.11309h1.015942 1.015943z"/></svg>