<svg xmlns="http://www.w3.org/2000/svg" width="500" height="500" viewBox="0 0 132.292 132.292">
  <path d="M52.219 13.038l-52.13.034-.025 106.172 132.164.01-.116-94.897-66.453.026zM11.272 35.65H120.943v72.526H11.272zm29.475 26.701v4.585h9.65l-10.648 16.23v3.29h17.45v-4.583H46.44l10.648-16.232v-3.29h-16.34zm21.111 0v24.106h5.436V62.352h-5.435zm11.713 0v24.106h5.434v-8.17h3.365c1.281 0 2.49-.161 3.623-.482 1.134-.32 2.132-.813 2.995-1.478a6.924 6.924 0 002.033-2.551c.518-1.036.776-2.256.776-3.66 0-1.455-.246-2.675-.74-3.66-.492-1.011-1.17-1.812-2.032-2.404-.838-.616-1.837-1.047-2.995-1.293a15.69 15.69 0 00-3.66-.408zm5.434 4.327h3.032c1.454 0 2.551.258 3.29.775.765.518 1.147 1.406 1.147 2.662 0 2.564-1.48 3.846-4.437 3.846h-3.032z"/>
</svg>
