<svg height="500" viewBox="0 0 500.00001 500.00001" width="500" xmlns="http://www.w3.org/2000/svg"><path d="m175.22537.0214681c-76.622975-.4403898-150.048083 57.3197169-167.0985273 132.4167219-16.236521 64.68266 7.6690733 137.6301 61.0127383 178.29929 29.517076 23.30663 66.410239 37.17296 104.021159 37.97425-.0312 50.42943.0789 100.85884.0307 151.28827h323.69951c0-107.89983 0-215.79966 0-323.69951-48.37827 0-96.75653 0-145.13478 0 1.95681-74.75517-50.78936-147.82653-123.15314-168.59073-17.03428-5.2763636-35.34894-7.9808481-53.37766-7.6882919zm1.39564 45.1256169c59.60941-1.339223 116.86335 44.455175 127.24524 103.415595 1.85716 9.11869 2.67055 18.43563 2.57212 27.73781-44.41306 0-88.82612 0-133.23918 0-.12477 42.3413.20748 84.68363-.16917 127.02417-59.43333-.91651-114.754983-48.83777-122.983358-107.83127-8.367103-49.6383 14.498781-103.862023 58.038148-130.046121 20.38308-12.91528 44.37765-20.187654 68.5362-20.300184zm41.62691 174.243245h80.22032c-13.57553 36.75933-44.78553 66.40841-82.18883 78.09034 0-26.03011 0-52.06022 0-78.09034h.98426zm129.05802 0h106.49715v237.51984c-79.17455 0-158.34912 0-237.52368 0 0-37.5579 0-75.11581 0-112.67371 61.81439-13.63797 113.78218-63.87645 129.53094-124.84613h.98425z"/></svg>