<svg xmlns="http://www.w3.org/2000/svg" viewBox="0 0 500 500.00001" width="500" height="500">
  <path d="M449.67773 20c-9.59809 3.53351-14.43153 13.472828-22.44921 19.304688-36.68366 35.782049-72.17331 72.786642-109.5879 107.818362-.76612-28.84172-.67096-57.696805-.96874-86.544925h-47.55274V231.42383h170.84375v-47.55664c-28.84878-.29635-57.70268-.19723-86.54492-.97071 41.14084-44.14516 85.49381-85.257142 126.57031-129.404292.3673-8.154531-8.63701-11.847784-12.75195-17.839844-5.42547-5.6539-10.9029-11.427284-17.5586-15.652344zM60.037109 268.57617v47.55664c28.84878.29635 57.702691.19723 86.544921.97071-41.14082 44.14516-85.493811 85.25714-126.570311 129.40429-.3673 8.15453 8.637013 11.84779 12.751953 17.83985 5.42547 5.6539 10.902894 11.42728 17.558594 15.65234 9.59809-3.53351 14.431538-13.47283 22.449218-19.30469 36.683666-35.78205 72.173316-72.78663 109.587896-107.81836.76612 28.84173.67096 57.6968.96874 86.54493h47.55274V268.57617H60.037109z"/>
</svg>