<svg xmlns="http://www.w3.org/2000/svg" viewBox="0 0 500 500.00001" width="500" height="500">
  <path d="M302.03711 26.576172v47.55664c28.84878.296351 57.70269.197224 86.54492.970704-41.14082 44.145164-85.49381 85.257144-126.57031 129.404294-.3673 8.15453 8.63701 11.84779 12.75195 17.83985 5.42547 5.6539 10.9029 11.42728 17.5586 15.65234 9.59809-3.53351 14.43153-13.47283 22.44921-19.30469 36.68367-35.78205 72.17331-72.78663 109.5879-107.81836.76612 28.84173.67097 57.6968.96874 86.54493h47.55274V26.576172H302.03711zM204.55859 262.57617c-9.59809 3.53351-14.43154 13.47283-22.44921 19.30469-36.68368 35.78205-72.17332 72.78663-109.587896 107.81836-.76612-28.84173-.67097-57.69679-.96875-86.54492H24V474h170.84375v-47.55664c-28.84878-.29635-57.70269-.19722-86.54492-.9707 41.14082-44.14516 85.49381-85.25715 126.57031-129.4043.3673-8.15453-8.63701-11.84778-12.75195-17.83984-5.42547-5.6539-10.9029-11.42729-17.5586-15.65235z"/>
</svg>