<svg xmlns="http://www.w3.org/2000/svg" width="500" height="500" viewBox="0 0 132.292 132.292">
  <path d="M0 0v132.291h51.32V51.319h80.818V0zm10.572 10.584H40.87v30.207H10.572zm40.869 0h29.598v30.207H51.44zm40.169 0h29.956v30.207H91.61zm-81.038 40.79H40.87v29.634H10.572zm53.912 11.044V78.83h17.092V62.418zm50.716 0V78.83h17.092V62.418zM64.484 88.092v14.688c0 5.724 1.418 10.667 4.27 15.145 2.863 4.491 6.752 7.936 11.94 10.504 5.169 2.56 10.996 3.863 17.693 3.863 6.698 0 12.525-1.303 17.695-3.863 5.187-2.568 9.077-6.013 11.939-10.504 2.853-4.478 4.27-9.42 4.27-15.145V88.092H115.2v14.688c0 2.246-.562 4.474-1.781 6.367-1.028 1.596-2.324 2.985-3.955 3.977-1.405.854-2.971 1.472-4.656 1.906-1.48.382-2.684.64-3.884.74-.867.071-1.712.11-2.537.11a30.66 30.66 0 01-2.537-.11c-1.2-.1-2.402-.358-3.882-.74-1.685-.434-3.252-1.052-4.657-1.906-1.631-.992-2.926-2.381-3.953-3.977-1.22-1.893-1.782-4.12-1.782-6.367V88.092zm-53.912 3.5H40.87v30.118H10.572z"/>
</svg>
