<?xml version="1.0" encoding="UTF-8" standalone="no"?>
<svg
   width="500"
   height="500"
   viewBox="0 0 132.292 132.292"
   version="1.1"
   id="svg4"
   sodipodi:docname="grid-justify-content-column-around.svg"
   inkscape:version="1.2.1 (9c6d41e410, 2022-07-14)"
   xmlns:inkscape="http://www.inkscape.org/namespaces/inkscape"
   xmlns:sodipodi="http://sodipodi.sourceforge.net/DTD/sodipodi-0.dtd"
   xmlns="http://www.w3.org/2000/svg"
   xmlns:svg="http://www.w3.org/2000/svg">
  <defs
     id="defs8" />
  <sodipodi:namedview
     id="namedview6"
     pagecolor="#ffffff"
     bordercolor="#000000"
     borderopacity="0.25"
     inkscape:showpageshadow="2"
     inkscape:pageopacity="0.0"
     inkscape:pagecheckerboard="0"
     inkscape:deskcolor="#d1d1d1"
     showgrid="false"
     inkscape:zoom="2.054"
     inkscape:cx="250"
     inkscape:cy="249.75657"
     inkscape:window-width="3840"
     inkscape:window-height="2066"
     inkscape:window-x="2869"
     inkscape:window-y="-11"
     inkscape:window-maximized="1"
     inkscape:current-layer="svg4" />
  <path
     id="path2"
     d="M 0 0 L 0 11.207096 L 132.292 11.207096 L 132.292 0 L 0 0 z M 29.530055 30.909819 L 29.530055 60.636245 L 60.606789 60.636245 L 60.606789 30.909819 L 29.530055 30.909819 z M 71.685211 30.909819 L 71.685211 60.636245 L 102.76401 60.636245 L 102.76401 30.909819 L 71.685211 30.909819 z M 29.62824 71.655755 L 29.62824 101.38218 L 60.606789 101.38218 L 60.606789 71.655755 L 29.62824 71.655755 z M 71.685211 71.655755 L 71.685211 101.38218 L 102.76401 101.38218 L 102.76401 71.655755 L 71.685211 71.655755 z M 132.292 121.0849 L 0 121.08594 L 0 132.292 L 132.292 132.292 L 132.292 121.0849 z " />
</svg>
