<svg height="500" viewBox="0 0 500 500.00001" width="500" xmlns="http://www.w3.org/2000/svg"><path d="m456.73499 552.40637c-37.03948.55553-74.13146-.0579-111.19268.16864-103.75485 0-207.5097 0-311.264546 0-13.378707 4.87752-25.1288586 14.40338-30.965554 27.59878-5.4848905 9.55437-1.8671196 21.00046-2.90252482 31.44964v406.56177c6.28640122 17.3263 21.49629082 33.3779 40.99047482 33.5963 132.07284 1.2119 264.18356.1387 396.27102.2146 10.09638-.5821 20.80251 1.1486 30.50925-.907 14.91841-6.1906 28.43314-18.8709 31.57859-35.2667.11288-143.11195.0226-286.31.0516-429.4547-5.85142-16.19374-19.35885-30.4674-36.60791-33.81848-2.14743-.22947-4.31215-.20837-6.4677-.14285zm-359.462715 41.49043c17.193555.44644 34.497565-.6536 51.588765 1.75977 5.46534 5.38378 2.18232 13.95144 3.48522 20.6441.30391 28.0139 1.53524 56.27544-1.31081 84.13248-3.33 5.94455-11.54189 2.74028-16.92404 3.97018-29.26161.45356-58.770975 1.68478-87.878338-1.20257-5.932256-3.34253-2.73049-11.53903-3.960263-16.92204-.45574-29.25904-1.679227-58.76512 1.198599-87.87041 3.325068-5.95374 11.5233-2.69657 16.896671-4.01939 12.29604-.42155 24.602036-.45212 36.904196-.49212zm152.855735 0c17.19355.44644 34.49756-.6536 51.58875 1.75977 5.46434 5.38405 2.1828 13.95126 3.48522 20.6441.30391 28.0139 1.53525 56.27544-1.31081 84.13248-3.33006 5.94455-11.5419 2.7403-16.92403 3.97018-29.26162.45356-58.77098 1.68478-87.87834-1.20257-5.93082-3.34298-2.73116-11.53915-3.96028-16.92204-.45846-29.25631-1.67385-58.75535 1.19465-87.86049 3.31705-5.96652 11.52774-2.70656 16.90262-4.02931 12.29538-.42156 24.60072-.45212 36.90222-.49212zm152.85572 0c17.20128.45264 34.51487-.6624 51.61256 1.7677 5.41388 5.4045 2.20292 13.93815 3.46246 20.63421.29842 28.0184 1.5392 56.28568-1.31383 84.14634-3.34635 5.92716-11.53861 2.7296-16.92207 3.95757-29.25905.45511-58.76527 1.68367-87.87038-1.19987-5.94111-3.33402-2.73896-11.54122-3.96823-16.92403-.45719-29.25672-1.67637-58.75801 1.19664-87.86248 3.31678-5.9644 11.52676-2.70429 16.90064-4.02732 12.29538-.42156 24.60071-.45212 36.90221-.49212zm-305.711455 152.85572c17.193555.44645 34.497565-.6536 51.588765 1.75978 5.46534 5.38377 2.18232 13.95144 3.48522 20.6441.30391 28.01388 1.53524 56.27543-1.31081 84.13247-3.33075 5.94485-11.54343 2.73914-16.92603 3.96947-29.26096.45323-58.769584 1.68379-87.876348-1.20185-5.931836-3.34263-2.729601-11.53926-3.960263-16.92205-.45574-29.25904-1.679227-58.76511 1.198599-87.8704 3.325068-5.95374 11.5233-2.69658 16.896671-4.01939 12.29604-.42155 24.602036-.45213 36.904196-.49213zm152.855735 0c17.19355.44645 34.49756-.6536 51.58875 1.75978 5.46434 5.38405 2.1828 13.95126 3.48522 20.6441.30391 28.01388 1.53525 56.27543-1.31081 84.13247-3.33084 5.94504-11.54327 2.73954-16.92604 3.96947-29.25839.45423-58.76389 1.68166-87.86839-1.19986-5.94217-3.3335-2.73724-11.54157-3.96822-16.92404-.45846-29.25631-1.67385-58.75534 1.19465-87.86048 3.31705-5.96653 11.52774-2.70657 16.90262-4.02931 12.29538-.42156 24.60072-.45213 36.90222-.49213zm152.85572 0c17.20128.45264 34.51487-.66239 51.61256 1.76771 5.41388 5.4045 2.20292 13.93815 3.46246 20.6342.29842 28.0184 1.5392 56.28568-1.31383 84.14634-3.34875 5.93378-11.53227 2.71295-16.92206 3.9563-29.259.45697-58.76523 1.68226-87.87039-1.19859-5.94111-3.33402-2.73896-11.54122-3.96823-16.92404-.45719-29.25672-1.67637-58.758 1.19664-87.86247 3.31678-5.9644 11.52676-2.70429 16.90064-4.02732 12.29538-.42156 24.60071-.45213 36.90221-.49213zm-305.711455 152.85573c17.192315.44719 34.494715-.65282 51.584795 1.75977 5.47318 5.37848 2.18417 13.95237 3.48919 20.6441.30719 28.0113 1.52877 56.26515-1.30486 84.12258-3.32192 5.9583-11.54623 2.7497-16.92999 3.9801-29.25903.4558-58.765115 1.6792-87.870403-1.1986-5.941105-3.334-2.738955-11.54124-3.968198-16.92405-.453371-29.26202-1.684029-58.77352 1.202567-87.88032 3.333596-5.94075 11.52021-2.69037 16.892703-4.01146 12.296067-.42133 24.602002-.45375 36.904196-.49212zm152.855735 0c17.19355.44832 34.49779-.65503 51.58875 1.76175 5.46502 5.38318 2.1825 13.95011 3.48522 20.64212.30601 28.01241 1.53115 56.26886-1.30684 84.12658-3.32378 5.9546-11.54496 2.7453-16.928 3.9761-29.25904.4558-58.76512 1.6792-87.8704-1.1986-5.94088-3.3343-2.73915-11.54118-3.96822-16.92405-.45835-29.25622-1.67401-58.75578 1.19465-87.86048 3.31525-5.96723 11.52783-2.71042 16.90262-4.0313 12.29541-.42134 24.60068-.45375 36.90222-.49212zm152.85572 0c17.2013.45298 34.51506-.66367 51.61256 1.76969 5.41468 5.40339 2.20187 13.93687 3.46246 20.63221.30083 28.01544 1.53442 56.27728-1.30987 84.13645-3.33348 5.9431-11.54111 2.737-16.92403 3.9682-29.26202.4534-58.77352 1.6841-87.88033-1.2026-5.93062-3.3411-2.73141-11.53805-3.96028-16.92005-.45834-29.25622-1.674-58.75578 1.19466-87.86048 3.31539-5.96708 11.52777-2.71053 16.90262-4.0313 12.2954-.42134 24.60068-.45375 36.90221-.49212z" transform="translate(0 -552.3622)"/></svg>