<svg height="500" viewBox="0 0 500 500.00001" width="500" xmlns="http://www.w3.org/2000/svg"><path d="m459.97266.00585938c-1.07906-.01521876-2.16053.00630251-3.23828.0390625-37.03948.55552999-74.13019-.05857124-111.19141.16796874h-311.265626c-13.378707 4.87751998-25.1281486 14.40420938-30.964844 27.59960938-5.4848905 9.55437-1.8669385 21.000039-2.90234375 31.449219v406.560551c6.28640125 17.3263 21.49605075 33.37925 40.99023475 33.59765 44.353003.40699 88.709309.54543 133.068359.56641 6.78423-.51604 18.44991-3.51484 19.88867-17.91016v-257.54297c.00014.00002.02149.00196.02149.00196s.49456-26.48947 25.38671-30.11719h25.48829c1.62485-.006 3.25025-.02215 4.875-.02735.55698.0145 1.11467.01605 1.67187.02735h146.3086c1.62502-.006 3.25006-.02215 4.875-.02735.55754.01471 1.11605.01585 1.67382.02735h77.92383c-.005-.0126-.06055-.16406-.06055-.16406s16.41841.39718 17.2129-16.94922c.0153-.33458.05127-.62331.08007-.92578-.005-47.45961-.0134-94.920491-.0039-142.373051-5.85141-16.19378-19.35832-30.467279-36.60743-33.818359-1.07371-.114735-2.15141-.16642187-3.23046-.18164062zm-362.701176 41.52929662c17.193556.44644 34.498646-.653604 51.589846 1.759766 5.46534 5.38378 2.18147 13.949918 3.48437 20.642578.30391 28.0139 1.53551 56.27577-1.31054 84.13281-3.33 5.94455-11.54168 2.74081-16.92383 3.97071-29.26161.45356-58.771545 1.68422-87.878908-1.20313-5.932256-3.34253-2.729211-11.53886-3.958984-16.92187-.45574-29.25904-1.680561-58.763855 1.197265-87.869145 3.325068-5.95374 11.52311-2.696711 16.896485-4.019531 12.29604-.42155 24.602136-.452188 36.904296-.492188zm152.857426 0c17.19355.44644 34.4967-.653604 51.58789 1.759766 5.46434 5.38405 2.18195 13.949738 3.48437 20.642578.30391 28.0139 1.53553 56.27577-1.31055 84.13281-3.33006 5.94455-11.54169 2.74083-16.92382 3.97071-29.26162.45356-58.77155 1.68422-87.87891-1.20313-5.93082-3.34298-2.72986-11.53898-3.95898-16.92187-.45846-29.25631-1.67514-58.754239 1.19336-87.859379 3.31705-5.96652 11.52941-2.706547 16.90429-4.029297 12.29538-.42156 24.60085-.452188 36.90235-.492188zm152.85547 0c17.20127.45264 34.51363-.662522 51.61132 1.767578 5.41388 5.4045 2.20335 13.936753 3.46289 20.632813.29842 28.0184 1.53858 56.285823-1.31445 84.146483-3.34635 5.92716-11.53841 2.73102-16.92187 3.95899-29.25905.45511-58.76403 1.68236-87.86915-1.20118-5.9411-3.33402-2.73951-11.54101-3.96874-16.92382-.45721-29.25672-1.67575-58.756866 1.19726-87.861332 3.31678-5.9644 11.52651-2.704314 16.90039-4.027344 12.29538-.42156 24.6008-.452188 36.90235-.492188zm-305.712896 152.855464c17.193556.44647 34.498646-.65361 51.589846 1.75977 5.46534 5.38377 2.18147 13.95187 3.48437 20.64453.30391 28.01388 1.53551 56.27382-1.31054 84.13086-3.33075 5.94485-11.54322 2.74037-16.92578 3.9707-29.26096.45323-58.770194 1.68252-87.876958-1.20312-5.931836-3.34263-2.728322-11.53909-3.958984-16.92188-.45574-29.25904-1.680561-58.76385 1.197265-87.86914 3.325068-5.95374 11.52311-2.69672 16.896485-4.01953 12.29604-.42155 24.602136-.45218 36.904296-.49219zm146.652346 40.4043v62.0293h64.67383v-62.0293zm191.90429 0v62.0293h64.67383v-62.0293zm-191.90429 97.03711v55.51172c0 21.63587 5.36581 40.31779 16.16015 57.24023 10.82925 16.97707 25.54754 29.9951 45.17579 39.70313 19.56064 9.67458 41.61129 14.59766 66.95312 14.59766 25.34185 0 47.39053-4.92308 66.95117-14.59766 19.62825-9.70803 34.3485-22.72606 45.17774-39.70313 10.79435-16.92244 16.16015-35.60436 16.16015-57.24023v-55.51172h-64.67383v55.51172c0 8.49082-2.12578 16.90965-6.74023 24.06641-3.8886 6.03097-8.79259 11.28122-14.96289 15.02929-5.31624 3.22929-11.24218 5.56605-17.61914 7.20703-5.60023 1.44111-10.15363 2.41432-14.69336 2.79297-3.28284.27382-6.47939.41602-9.59961.41602-3.1202 0-6.31872-.1422-9.60156-.41602-4.53973-.37865-9.09118-1.35186-14.69141-2.79297-6.37696-1.64098-12.30485-3.97773-17.62109-7.20703-6.17031-3.74807-11.07039-8.99832-14.95899-15.02929-4.61444-7.15676-6.74218-15.57559-6.74218-24.06641v-55.51172zm-146.652346 15.41406c17.192316.44719 34.495856-.65282 51.585936 1.75977 5.47318 5.37848 2.18326 13.9528 3.48828 20.64453.30719 28.0113 1.52895 56.26562-1.30468 84.12305-3.32192 5.9583-11.54593 2.74811-16.92969 3.97851-29.25903.4558-58.765808 1.68054-87.871096-1.19726-5.941105-3.334-2.737556-11.54102-3.966796-16.92383-.453371-29.26202-1.685425-58.77406 1.201171-87.88086 3.333596-5.94075 11.520085-2.69063 16.892579-4.01172 12.296067-.42133 24.602102-.45382 36.904296-.49219z"/></svg>