<svg xmlns="http://www.w3.org/2000/svg" viewBox="0 0 16 16" stroke-linecap="round" stroke-linejoin="round">
  <path d="m12.667 6h-9.334c-.736 0-1.333.597-1.333 1.333v1.334c0 .736.597 1.333 1.333 1.333h9.334c.736 0 1.333-.597 1.333-1.333v-1.334c0-.736-.597-1.333-1.333-1.333zm-2-5.333h-5.334c-.368 0-.666.298-.666.666 0 .369.298.667.666.667h5.334c.368 0 .666-.298.666-.667 0-.368-.298-.666-.666-.666zm0 13.333h-5.334c-.368 0-.666.299-.666.667s.298.666.666.666h5.334c.368 0 .666-.298.666-.666s-.298-.667-.666-.667z"/>
</svg>
