<svg xmlns="http://www.w3.org/2000/svg" viewBox="0 0 16 16" stroke-linecap="round" stroke-linejoin="round">
    <path d="m12.667 2h-9.334c-.736 0-1.333.597-1.333 1.333v9.334c0 .736.597 1.333 1.333 1.333h9.334c.736 0 1.333-.597 1.333-1.333v-9.334c0-.736-.597-1.333-1.333-1.333zm-2.278 7.5c.061 0 .111.05.111.111v.778c0 .061-.05.111-.111.111h-.778c-.061 0-.111-.05-.111-.111v-.778c0-.061.05-.111.111-.111zm-4 0c.061 0 .111.05.111.111v.778c0 .061-.05.111-.111.111h-.778c-.061 0-.111-.05-.111-.111v-.778c0-.061.05-.111.111-.111zm4-4c.061 0 .111.05.111.111v.778c0 .061-.05.111-.111.111h-.778c-.061 0-.111-.05-.111-.111v-.778c0-.061.05-.111.111-.111zm-4 0c.061 0 .111.05.111.111v.778c0 .061-.05.111-.111.111h-.778c-.061 0-.111-.05-.111-.111v-.778c0-.061.05-.111.111-.111z"/>
</svg>