<svg xmlns="http://www.w3.org/2000/svg" viewBox="0 0 16 16" stroke-linecap="round" stroke-linejoin="round">
    <path d="M3.005,13L4.589,11.414M7.415,8.586L12.995,3M2.152,13.854C1.957,13.658 1.957,13.342 2.152,13.147C2.347,12.951 2.664,12.951 2.859,13.147C3.054,13.342 3.054,13.658 2.859,13.854C2.664,14.049 2.347,14.049 2.152,13.854M13.141,2.854C12.946,2.658 12.946,2.342 13.141,2.146C13.336,1.951 13.653,1.951 13.848,2.146C14.043,2.342 14.043,2.658 13.848,2.854C13.653,3.049 13.336,3.049 13.141,2.854M4.589,11.414C3.809,10.633 3.809,9.367 4.589,8.586C5.37,7.805 6.635,7.805 7.415,8.586C7.415,8.586 7.415,8.586 7.415,8.586C8.195,9.367 8.195,10.633 7.415,11.414C6.635,12.195 5.37,12.195 4.589,11.414C4.589,11.414 4.589,11.414 4.589,11.414"/>
</svg>
