<svg xmlns="http://www.w3.org/2000/svg" viewBox="0 0 16 16" stroke-linecap="round" stroke-linejoin="round">
    <path d="M4.573,14L4.629,13.503L4.853,10.488M6.488,7.086L12.073,2.5M4.22,14.354C4.415,14.549 4.732,14.549 4.927,14.354C5.122,14.158 5.122,13.842 4.927,13.647C4.843,13.563 4.738,13.515 4.629,13.503C4.483,13.487 4.332,13.535 4.22,13.647C4.025,13.842 4.025,14.158 4.22,14.354M12.219,2.353C12.415,2.549 12.731,2.549 12.927,2.353C13.122,2.158 13.122,1.842 12.927,1.646C12.731,1.451 12.415,1.451 12.219,1.646C12.024,1.842 12.024,2.158 12.219,2.353M3.659,9.914C3.993,10.248 4.417,10.44 4.853,10.488C5.435,10.552 6.041,10.361 6.488,9.914C7.268,9.133 7.268,7.867 6.488,7.086C6.488,7.086 6.488,7.086 6.488,7.086C5.707,6.305 4.44,6.305 3.659,7.086C2.878,7.867 2.878,9.133 3.659,9.914"/>
</svg>
