<svg xmlns="http://www.w3.org/2000/svg" viewBox="0 0 16 16" stroke-linecap="round" stroke-linejoin="round">
    <path d="M3.005,13L6.588,9.414M9.413,6.586L12.995,3M2.152,13.854C1.957,13.658 1.957,13.342 2.152,13.147C2.348,12.951 2.664,12.951 2.859,13.147C3.054,13.342 3.054,13.658 2.859,13.854C2.664,14.049 2.347,14.049 2.152,13.854M13.141,2.854C12.946,2.658 12.946,2.342 13.141,2.146C13.336,1.951 13.653,1.951 13.848,2.146C14.043,2.342 14.043,2.658 13.848,2.854C13.653,3.049 13.336,3.049 13.141,2.854M6.587,9.414C5.807,8.633 5.807,7.367 6.587,6.586C7.368,5.805 8.633,5.805 9.413,6.586C9.413,6.586 9.413,6.586 9.413,6.586C10.193,7.367 10.193,8.633 9.413,9.414C8.633,10.195 7.368,10.195 6.588,9.414C6.588,9.414 6.587,9.414 6.587,9.414"/>
</svg>
