<svg viewBox="761.822 754.121 16 16" width="16" height="16" xmlns="http://www.w3.org/2000/svg">
  <path fill-rule="evenodd" clip-rule="evenodd" d="M769.822 768.921a6.8 6.8 0 1 0 0-13.6 6.8 6.8 0 0 0 0 13.6Zm0 1.2a8 8 0 1 0 0-16 8 8 0 0 0 0 16Z" />
  <path d="M770.357 766.536h-1.179v-1.24h1.179v1.24Zm1.925-5.57c-.126.264-.394.592-.802.985-.41.394-.68.673-.813.838a1.712 1.712 0 0 0-.304.596c-.068.23-.1.54-.091.929h-1.07c0-.454.036-.817.11-1.088.073-.27.183-.507.328-.71.145-.202.408-.5.79-.893.38-.392.626-.677.735-.855.11-.178.163-.443.163-.795 0-.353-.126-.665-.377-.936s-.615-.406-1.092-.406c-1.078 0-1.615.64-1.615 1.918h-1.07c.017-.583.086-1.027.206-1.33.121-.304.316-.575.583-.814.268-.238.565-.414.893-.529.329-.112.675-.17 1.039-.17.736 0 1.35.218 1.84.65.49.433.734 1.01.734 1.73.002.326-.062.618-.187.88Z" />
</svg>
