<svg xmlns="http://www.w3.org/2000/svg" width="279.383" height="369.004" viewBox="0 0 261.922 345.941">
  <path d="M68.318 0L31.941 51.237v28.961L.286 95.255 0 95.121v188.952l123.419 58.309 7.542 3.56 7.542-3.56 123.418-58.309V95.121l-.232.11-31.666-15.062V51.237l-1.106-1.559L193.645 0l-36.38 51.237v.05l-26.47-37.281L104.528 51l-.939-1.322L68.318 0zm6.437 29.762l14.07 19.816H47.811L61.72 29.995l13.036-.233zm125.324 0l14.072 19.816h-41.012l13.903-19.583 13.037-.233zM137.23 43.77l14.07 19.813h-41.008L124.195 44l13.035-.23zM43.923 59.564h19.452v65.497l-19.452-9.19V59.564zm29.438 0h19.354l-.001 79.356-19.355-9.142.002-70.214zm95.887 0h19.453l-.002 70.146-19.45 9.188-.001-79.334zm29.438 0h19.352v56.285l-19.352 9.142V59.564zM106.4 73.57h19.451v81.004l-19.451-9.19V73.57zm29.438 0h19.352l-.002 71.971-19.352 9.145.002-81.116zm94.182 21.526l17.126 7.002-17.126 8.09V95.095zm-198.08.025v15.09l-17.122-8.09 17.122-7zM15.082 118.93l108.337 51.178v155.59L15.082 274.519v-155.59zm231.755 0v155.59l-108.334 51.178v-155.59l108.334-51.178zm-44.245 73.323c-1.94 0-2.775.238-5.523 1.574-2.748 1.336-3.583 1.911-5.522 3.796-2.977 2.893-5.578 6.852-6.922 10.536-.91 2.498-1.075 3.455-1.075 6.313 0 2.873.162 3.655 1.094 5.305 1.13 2 4.276 4.018 5.875 3.768.493-.076.837.194.837.658 0 .705-3.885 27.398-4.416 30.342l-.216 1.194 10.345-5.028 10.344-5.03-.218-.983c-.501-2.247-4.413-25.348-4.413-26.062 0-.451.35-1.062.837-1.46 1.599-1.305 4.746-6.383 5.876-9.482.931-2.556 1.093-3.494 1.093-6.367 0-2.858-.164-3.657-1.075-5.27-1.344-2.377-3.945-3.806-6.921-3.804z"/>
</svg>
