<svg xmlns="http://www.w3.org/2000/svg" width="279.383" height="369.004" viewBox="0 0 261.922 345.941">
  <path d="M68.319 0L31.94 51.236v28.962L.286 95.255 0 95.12v188.953l123.419 58.308 7.542 3.56 7.542-3.56 123.419-58.308V95.12l-.233.11-31.666-15.062V51.236l-1.106-1.558L193.645 0l-36.38 51.236v.052l-26.47-37.283L104.527 51l-.94-1.322L68.318 0zm6.436 29.762l14.07 19.815H47.81l13.908-19.583 13.036-.232zm125.325 0l14.071 19.815H173.14l13.904-19.583 13.037-.232zm-62.85 14.007l14.07 19.814h-41.008L124.195 44l13.035-.23zM43.923 59.564h19.452v65.497l-19.452-9.19V59.564zm29.438 0h19.355l-.002 79.356-19.355-9.142.002-70.214zm95.887 0h19.453l-.001 70.146-19.452 9.188V59.564zm29.438 0h19.353v56.285l-19.353 9.142V59.564zM106.4 73.57h19.451v81.004l-19.45-9.19V73.57zm29.44 0h19.35l-.001 71.971-19.353 9.145.004-81.116zm94.18 21.526l17.126 7.002-17.126 8.09V95.095zm-198.08.025v15.09l-17.12-8.09 17.12-7zm-16.857 23.81l108.337 51.178v155.588L15.082 274.52V118.93zm231.756 0v155.588l-108.335 51.178V170.11l108.335-51.179zm-19.521 44.302l-45.187 82.05-26.366-21.373-7.364 12.228 37.954 30.627 51.45-94.185-10.487-9.347z"/>
</svg>
