<svg height="500" viewBox="0 0 500.00001 500.00001" width="500" xmlns="http://www.w3.org/2000/svg"><path d="m77.203125 0c-42.401361 0-77.203125 34.801764-77.203125 77.203125 0 42.401365 34.801764 77.203125 77.203125 77.203125 42.401365 0 77.203125-34.80176 77.203125-77.203125 0-42.401361-34.80176-77.203125-77.203125-77.203125zm172.796875 0c-42.40136 0-77.20312 34.801764-77.20312 77.203125 0 42.401365 34.80176 77.203125 77.20312 77.203125s77.20313-34.80176 77.20312-77.203125c0-42.401361-34.80176-77.203125-77.20312-77.203125zm172.79688 0c-42.40137 0-77.20313 34.801764-77.20313 77.203125 0 42.401365 34.80175 77.203125 77.20313 77.203125 42.40136 0 77.20312-34.80176 77.20312-77.203125 0-42.401361-34.80177-77.203125-77.20312-77.203125zm-345.593755 40c20.783757 0 37.203125 16.419368 37.203125 37.203125s-16.419368 37.203125-37.203125 37.203125-37.203125-16.419368-37.203125-37.203125 16.419368-37.203125 37.203125-37.203125zm172.796875 0c20.78376 0 37.20312 16.419368 37.20312 37.203125s-16.41936 37.203125-37.20312 37.203125-37.20313-16.419368-37.20312-37.203125c0-20.783757 16.41936-37.203125 37.20312-37.203125zm172.79688 0c20.78374 0 37.20312 16.419368 37.20312 37.203125s-16.41938 37.203125-37.20312 37.203125c-20.78377 0-37.20313-16.419368-37.20313-37.203125s16.41936-37.203125 37.20313-37.203125zm-345.593755 132.79688c-42.401361 0-77.203125 34.80176-77.203125 77.20312s34.801764 77.20313 77.203125 77.20312c42.401365 0 77.203125-34.80176 77.203125-77.20312s-34.80176-77.20312-77.203125-77.20312zm172.796875 0c-42.40136 0-77.20313 34.80176-77.20312 77.20312 0 42.40136 34.80176 77.20312 77.20312 77.20312s77.20313-34.80176 77.20312-77.20312c0-42.40136-34.80176-77.20313-77.20312-77.20312zm172.79688 0c-42.40137 0-77.20313 34.80176-77.20313 77.20312s34.80175 77.20313 77.20313 77.20312c42.40136 0 77.20312-34.80176 77.20312-77.20312s-34.80177-77.20313-77.20312-77.20312zm-345.593755 40c20.783757 0 37.203125 16.41936 37.203125 37.20312s-16.419368 37.20312-37.203125 37.20312-37.203125-16.41936-37.203125-37.20312 16.419368-37.20313 37.203125-37.20312zm172.796875 0c20.78376 0 37.20312 16.41936 37.20312 37.20312s-16.41936 37.20312-37.20312 37.20312-37.20313-16.41936-37.20312-37.20312c0-20.78376 16.41936-37.20313 37.20312-37.20312zm172.79688 0c20.78374 0 37.20312 16.41936 37.20312 37.20312s-16.41938 37.20312-37.20312 37.20312c-20.78377 0-37.20313-16.41936-37.20313-37.20312s16.41936-37.20313 37.20313-37.20312zm-345.593755 132.79687c-42.401361 0-77.203125 34.80175-77.203125 77.20313 0 42.40136 34.801764 77.20312 77.203125 77.20312 42.401365 0 77.203125-34.80177 77.203125-77.20312 0-42.40137-34.80176-77.20313-77.203125-77.20313zm172.796875 0c-42.40136 0-77.20313 34.80175-77.20312 77.20313 0 42.40136 34.80176 77.20312 77.20312 77.20312s77.20313-34.80177 77.20312-77.20312c0-42.40137-34.80176-77.20313-77.20312-77.20313zm172.79688 0c-42.40137 0-77.20313 34.80175-77.20313 77.20313 0 42.40136 34.80175 77.20312 77.20313 77.20312 42.40136 0 77.20312-34.80177 77.20312-77.20312 0-42.40137-34.80177-77.20313-77.20312-77.20313zm-345.593755 40c20.783757 0 37.203125 16.41936 37.203125 37.20313 0 20.78374-16.419368 37.20312-37.203125 37.20312s-37.203125-16.41938-37.203125-37.20312c0-20.78376 16.419368-37.20313 37.203125-37.20313zm172.796875 0c20.78376 0 37.20312 16.41936 37.20312 37.20313 0 20.78374-16.41936 37.20312-37.20312 37.20312s-37.20313-16.41938-37.20312-37.20312c0-20.78377 16.41936-37.20313 37.20312-37.20313zm172.79688 0c20.78374 0 37.20312 16.41936 37.20312 37.20313 0 20.78374-16.41938 37.20312-37.20312 37.20312-20.78377 0-37.20313-16.41938-37.20313-37.20312 0-20.78377 16.41936-37.20313 37.20313-37.20313z"/></svg>