<svg height="500" viewBox="0 0 500.00001 500.00001" width="500" xmlns="http://www.w3.org/2000/svg"><path d="M77.203125 0C34.801764 0 0 34.801764 0 77.203125 0 119.60449 34.801764 154.40625 77.203125 154.40625 119.60449 154.40625 154.40625 119.60449 154.40625 77.203125 154.40625 34.801764 119.60449 0 77.203125 0zM250 0C207.59864 0 172.79688 34.801764 172.79688 77.203125 172.79688 119.60449 207.59864 154.40625 250 154.40625 292.40136 154.40625 327.20313 119.60449 327.20312 77.203125 327.20312 34.801764 292.40136 0 250 0zM422.79688 0C380.39551 0 345.59375 34.801764 345.59375 77.203125 345.59375 119.60449 380.3955 154.40625 422.79688 154.40625 465.19824 154.40625 500 119.60449 500 77.203125 500 34.801764 465.19823 0 422.79688 0zM77.203125 40C97.986882 40 114.40625 56.419368 114.40625 77.203125 114.40625 97.986882 97.986882 114.40625 77.203125 114.40625 56.419368 114.40625 40 97.986882 40 77.203125 40 56.419368 56.419368 40 77.203125 40zM250 40C270.78376 40 287.20312 56.419368 287.20312 77.203125 287.20312 97.986882 270.78376 114.40625 250 114.40625 229.21624 114.40625 212.79687 97.986882 212.79688 77.203125 212.79688 56.419368 229.21624 40 250 40zM422.79688 40C443.58062 40 460 56.419368 460 77.203125 460 97.986882 443.58062 114.40625 422.79688 114.40625 402.01311 114.40625 385.59375 97.986882 385.59375 77.203125 385.59375 56.419368 402.01311 40 422.79688 40zM77.203125 172.79688C34.801764 172.79688 0 207.59864 0 250 0 292.40136 34.801764 327.20313 77.203125 327.20312 119.60449 327.20312 154.40625 292.40136 154.40625 250 154.40625 207.59864 119.60449 172.79688 77.203125 172.79688zM250 172.79688C207.59864 172.79688 172.79687 207.59864 172.79688 250 172.79688 292.40136 207.59864 327.20312 250 327.20312 292.40136 327.20312 327.20313 292.40136 327.20312 250 327.20312 207.59864 292.40136 172.79687 250 172.79688zM422.79688 172.79688C380.39551 172.79688 345.59375 207.59864 345.59375 250 345.59375 292.40136 380.3955 327.20313 422.79688 327.20312 465.19824 327.20312 500 292.40136 500 250 500 207.59864 465.19823 172.79687 422.79688 172.79688zM77.203125 212.79688C97.986882 212.79688 114.40625 229.21624 114.40625 250 114.40625 270.78376 97.986882 287.20312 77.203125 287.20312 56.419368 287.20312 40 270.78376 40 250 40 229.21624 56.419368 212.79687 77.203125 212.79688zM250 212.79688C270.78376 212.79688 287.20312 229.21624 287.20312 250 287.20312 270.78376 270.78376 287.20312 250 287.20312 229.21624 287.20312 212.79687 270.78376 212.79688 250 212.79688 229.21624 229.21624 212.79687 250 212.79688zM422.79688 212.79688C443.58062 212.79688 460 229.21624 460 250 460 270.78376 443.58062 287.20312 422.79688 287.20312 402.01311 287.20312 385.59375 270.78376 385.59375 250 385.59375 229.21624 402.01311 212.79687 422.79688 212.79688zM77.203125 345.59375C34.801764 345.59375 0 380.3955 0 422.79688 0 465.19824 34.801764 500 77.203125 500 119.60449 500 154.40625 465.19823 154.40625 422.79688 154.40625 380.39551 119.60449 345.59375 77.203125 345.59375zM250 345.59375C207.59864 345.59375 172.79687 380.3955 172.79688 422.79688 172.79688 465.19824 207.59864 500 250 500 292.40136 500 327.20313 465.19823 327.20312 422.79688 327.20312 380.39551 292.40136 345.59375 250 345.59375zM422.79688 345.59375C380.39551 345.59375 345.59375 380.3955 345.59375 422.79688 345.59375 465.19824 380.3955 500 422.79688 500 465.19824 500 500 465.19823 500 422.79688 500 380.39551 465.19823 345.59375 422.79688 345.59375zM77.203125 385.59375C97.986882 385.59375 114.40625 402.01311 114.40625 422.79688 114.40625 443.58062 97.986882 460 77.203125 460 56.419368 460 40 443.58062 40 422.79688 40 402.01312 56.419368 385.59375 77.203125 385.59375zM250 385.59375C270.78376 385.59375 287.20312 402.01311 287.20312 422.79688 287.20312 443.58062 270.78376 460 250 460 229.21624 460 212.79687 443.58062 212.79688 422.79688 212.79688 402.01311 229.21624 385.59375 250 385.59375zM422.79688 385.59375C443.58062 385.59375 460 402.01311 460 422.79688 460 443.58062 443.58062 460 422.79688 460 402.01311 460 385.59375 443.58062 385.59375 422.79688 385.59375 402.01311 402.01311 385.59375 422.79688 385.59375z"></path></svg>
