<svg width="500" height="500" viewBox="0 0 500 500"><path d="M9.096 0A9.076 9.076 0 000 9.096v51.808A9.076 9.076 0 009.096 70h77.808A9.076 9.076 0 0096 60.904V9.096A9.076 9.076 0 0086.904 0zm140 0A9.076 9.076 0 00140 9.096v51.808A9.076 9.076 0 00149.096 70h341.808A9.076 9.076 0 00500 60.904V9.096A9.076 9.076 0 00490.904 0zm-140 146A9.076 9.076 0 000 155.096v51.808A9.076 9.076 0 009.096 216h77.808A9.076 9.076 0 0096 206.904v-51.808A9.076 9.076 0 0086.904 146zm140 0a9.076 9.076 0 00-9.096 9.096v51.808a9.076 9.076 0 009.096 9.096h341.808a9.076 9.076 0 009.096-9.096v-51.808a9.076 9.076 0 00-9.096-9.096zm-140 142A9.076 9.076 0 000 297.096v51.808A9.076 9.076 0 009.096 358h77.808A9.076 9.076 0 0096 348.904v-51.808A9.076 9.076 0 0086.904 288zm140 0a9.076 9.076 0 00-9.096 9.096v51.808a9.076 9.076 0 009.096 9.096h341.808a9.076 9.076 0 009.096-9.096v-51.808a9.076 9.076 0 00-9.096-9.096zm-140 142A9.076 9.076 0 000 439.096v51.808A9.076 9.076 0 009.096 500h77.808A9.076 9.076 0 0096 490.904v-51.808A9.076 9.076 0 0086.904 430zm140 0a9.076 9.076 0 00-9.096 9.096v51.808a9.076 9.076 0 009.096 9.096h341.808a9.076 9.076 0 009.096-9.096v-51.808a9.076 9.076 0 00-9.096-9.096z"/></svg>
