<svg height="500" viewBox="0 0 500 500.00001" width="500" xmlns="http://www.w3.org/2000/svg"><path d="m-1.9737577 2.0177715-.2764935.1896846c-.1552719.1062286-.2990121.2436518-.4041721.3988681l-.1754894.2605824-.015989 7.7835444c-.00545 2.749499-.00466 4.690029.0018 5.968437.00323.639204.00767 1.112242.014196 1.439404.00327.163581.00633.289823.010608.384595.00428.09477.00348.136808.021293.219868.051051.237994.1699906.438605.3633802.616866.1316229.121327.2572013.225946.4289745.28008.1717733.05414.3404572.05871.6133551.06732.086248.0027.3846291.0024.91816118.0036.5335321.0012 1.2794128.0029 2.18215342.0035 1.8054813.0013 4.2412502.0015 6.8706089 0 4.3422824-.0025 6.7351154-.006 8.0637044-.01771.664293-.0059 1.060525-.0151 1.308216-.0266.24769-.01149.332878.000072.480373-.0762.173211-.08957.308023-.224255.43069-.372272.122667-.148018.229966-.281541.26768-.492774.0083-.04658.0047-.04385.0054-.05678.000632-.01293.0013-.02726.0018-.0443.000907-.03408.0028-.07916.0036-.136492.0016-.114665.0023-.276719.0035-.482168.0025-.410896.0041-.99386.0054-1.707005.0024-1.42629.0021-3.372222-.0019-5.493368-.0069-3.7199872-.01072-5.6488149-.0248-6.6756977-.0071-.5134417-.01554-.8001705-.0301-.9837553-.01457-.1835848-.04926-.3037311-.08509-.3758596-.0982-.1977248-.24464-.3390977-.420091-.4609499l-.308471-.214487h-10.1269929-10.1251982-.0000778zm10.1305018 1.5723859h9.4091229l.0018.019498c.0096.5006664.0148 3.4209571.01599 6.2165402.000592 1.3977914.000182 2.7669614-.0019 3.7969694-.000998.515005-.0018.945884-.0035 1.251435-.000197.03537.000206.05141 0 .08338-.142721-.137951-.289092-.276952-.496391-.480452-.55153-.541423-1.304764-1.288767-2.127088-2.111177-1.735728-1.735904-2.548116-2.5621539-3.075513-2.9850379-.527396-.4228831-.868048-.425464-1.279825-.4254645-.469426 0-.6469453.038826-.9767355.1949887-.1777373.0841756-.3484275.1940586-.6523131.4714798-.3038856.27742-.7670524.7362819-1.6042083 1.5705909-.5013181.499613-.9628661.953183-1.3011179 1.28162-.1520991.147685-.2693281.260409-.3633802.349185-.0641079-.060237-.1277055-.120239-.2197909-.209184-.2503985-.241857-.5905383-.57787-.9590306-.946551-.6154954-.615813-.9594946-.954591-1.2018301-1.16993-.2423354-.215339-.4043893-.316322-.5795834-.397074-.3280001-.1511839-.5144171-.1882069-.9413257-.1861749-.3854653.0018-.7089986.04134-1.05293702.2588659-.3439385.217527-.7133439.577417-1.3773195 1.231937-.2427145.239257-.44509708.431541-.62926638.604463-.00304-.23194-.00625-.475251-.00889-.810059-.0068-.864485-.011118-2.0161165-.014118-3.1694963-.003-1.1533805-.00407-2.3082885-.0018-3.1818194.00114-.4367659.00258-.8024432.0053-1.0618288.0007087-.067507.00276-.1054602.00358-.1577066.052682-.00215.081825-.00514.1559906-.0071.30507518-.00806.79675338-.014808 1.52800658-.019499 1.46250612-.00938 3.88898552-.012401 7.74805652-.012401zm6.3336119 1.3737318c-.468889 0-.648492.037787-.964335.1931944-.691898.3404408-1.183545 1.0113534-1.286923 1.7655804-.09163.6685074.210215 1.431574.725045 1.8966907.30323.2739518.525204.4018675.88626.5051757.188989.054074.368491.098817.538949.1027977.617903.01414 1.321601-.2578559 1.7212-.7001641.143793-.1591618.29028-.3957297.391693-.6097674.146993-.3102471.18443-.4971169.182587-.9341503-.001597-.3878273-.03617-.6167151-.138208-.8739375-.191135-.4818281-.636837-.9313816-1.125628-1.1699302-.283097-.1381623-.472938-.1754894-.93064-.1754894zm-.0069 1.5394718c.147784-.00488.281227.051776.411114.1658184.195494.1716454.188136.1577629.230398.4147788.05156.3135991-.0621.5377904-.349185.6842532-.259123.1321959-.64844.043022-.831351-.1985762-.21166-.2795101-.115142-.7787781.163044-.9412476.137366-.080226.260994-.1212285.375938-.1250266zm-3.889748 4.020737c.111636-.0017.220117.01321.280471.04297v.000078c.01268.01087.02785.02455.04968.0443.05278.04771.127436.118137.221584.207389.188296.178505.451816.43281.769269.74275.634905.619879 1.488912 1.462472 2.405454 2.378857l3.251001 3.251002.0124.469766c.0043.14734.0034.262357 0 .359792-.111343.0039-.246294.0089-.432485.0124-.430373.0082-1.04345.01384-1.777981.01949-1.46906.01132-3.423171.01867-5.3763746.0195-1.9532032.000827-3.9059249-.0041-5.3727864-.01419-.7334308-.005-1.3456856-.01171-1.7743939-.0195-.017616-.000322-.023796-.0015-.040791-.0018.2001739-.209764.4405602-.456768.7551508-.77816.7251952-.740872 1.7007262-1.725141 2.6855354-2.710338.9848091-.985197 1.978359-1.972161 2.7422378-2.720945.3819394-.374394.7074275-.688697.9430418-.912936.1178074-.11212.2137774-.202478.2817974-.264092.03401-.0308.06053-.05453.07799-.06918.07275-.03699.187554-.05543.29919-.05717zm-8.7608256.948268c.084868.0025.1729907.02606.2658861.07058.00528.0034.017601.01105.029326.02044.024004.0192.058744.0498.101004.08681.08452.07402.1983281.177023.3297642.29958.2628724.245116.5962354.566284.9235429.886339.3273073.320053.6490007.638838.8862609.882751.090334.09287.153619.161305.2144872.226888-.1090139.114096-.2635777.273957-.4572867.47156-.3948098.402747-.9403724.95289-1.5404079 1.552809l-2.09526662 2.096983h-.9341501c-.3827308 0-.64810068-.0053-.81013748-.01419-.0009031-.000049-.0008218.000051-.00172 0-.00382-.103506-.00751-.228591-.010685-.393487-.00727-.377335-.011496-.891549-.012401-1.450011l-.00351-1.912679 1.26032658-1.265631c.3689613-.370546.730106-.723512 1.0121455-.992647.14101982-.134567.26096022-.248352.35277302-.33148.0918127-.08313.1772178-.146785.1559907-.132981.1084373-.07051.218301-.105156.334054-.101629z" transform="matrix(22.727273 0 0 22.727273 64.761445 3.9446)"/></svg>