<svg xmlns="http://www.w3.org/2000/svg" width="500" height="500" viewBox="0 0 132.292 132.292">
  <path d="M0 13.052V119.239h132.292V13.053zm10.572 10.573H121.72V88.04L81.419 49.609 52.048 78.582l-24.51-23.72-16.966 16.49zm92.081 2.41c-8.92 0-16.263 7.343-16.263 16.263 0 8.92 7.344 16.264 16.263 16.264 8.92 0 16.265-7.344 16.265-16.264 0-8.92-7.345-16.263-16.265-16.263zm0 10.581c3.2 0 5.682 2.482 5.682 5.682s-2.482 5.682-5.682 5.682-5.68-2.482-5.68-5.682 2.48-5.682 5.68-5.682zM81.544 64.351l40.176 38.314v6.004H36.617zm-53.99 5.254L44.51 86.016 21.547 108.67H10.572V86.11z"/>
</svg>
