<svg xmlns="http://www.w3.org/2000/svg" width="500" height="500" viewBox="0 0 132.292 132.292">
  <path d="M66.145 0C29.676 0 0 29.676 0 66.145c0 36.468 29.675 66.146 66.144 66.146 36.469 0 66.146-29.678 66.146-66.146 0-36.469-29.677-66.147-66.146-66.147zm0 10.583c30.749 0 55.562 24.814 55.562 55.563 0 30.749-24.813 55.562-55.562 55.562-30.75 0-55.563-24.813-55.563-55.562 0-30.75 24.814-55.563 55.563-55.563zm4.898 25.187l-7.84 8.368 16.01 16.374H29.737l-.066 11.407 49.545-.139-16.011 16.373 7.838 8.368 30.905-30.376z"/>
</svg>
