<svg width="40" height="40" xmlns="http://www.w3.org/2000/svg">
  <path fill-rule="evenodd" clip-rule="evenodd" d="M38.75 20a18.75 18.75 0 10-37.5 0 18.75 18.75 0 0037.5 0zM20 40a20 20 0 100-40 20 20 0 000 40z" />
  <path fill-rule="evenodd" clip-rule="evenodd" d="M27.46 20c0 .93-.73 1.68-1.64 1.68H11.64c-.9 0-1.64-.75-1.64-1.68 0-.93.73-1.68 1.64-1.68h14.18c.9 0 1.64.75 1.64 1.68z"/>
  <path fill-rule="evenodd" clip-rule="evenodd" d="M24.74 21.51c.81-.83.81-2.19 0-3.02l-5.5-5.62a1.71 1.71 0 010-2.38 1.61 1.61 0 012.32 0l7.83 8c.81.83.81 2.19 0 3.02l-7.83 8c-.64.65-1.67.65-2.32 0a1.71 1.71 0 010-2.38l5.5-5.62z"/>
</svg>
