<svg xmlns="http://www.w3.org/2000/svg" fill="none" viewBox="0 0 500 500"><defs/><rect width="484.4" height="484.4" x="-492" y="-492" stroke="#64666a" stroke-width="15.6" rx="242.2" transform="scale(-1)"/><path fill="#64666a" fill-rule="evenodd" d="M343 250c0 12-9 21-20 21H145c-11 0-20-9-20-21s9-21 20-21h178c11 0 20 9 20 21z" clip-rule="evenodd"/><path fill="#64666a" fill-rule="evenodd" d="M309 269c10-11 10-27 0-38l-68-70c-8-8-8-22 0-30s21-8 29 0l97 100c11 11 11 27 0 38l-97 100c-8 8-21 8-29 0s-8-22 0-30z" clip-rule="evenodd"/></svg>
