
<svg width="500" height="500" viewBox="0 0 132.292 132.292" xmlns="http://www.w3.org/2000/svg">
  <path d="m 124.4936,4.1479733 c 2.35562,2.3556156 2.35562,6.1748267 0,8.5304757 l -7.79862,7.798611 13.83031,13.83063 c 2.35561,2.355624 2.35561,6.17481 0,8.530434 l -21.11215,21.111814 c -2.35563,2.355624 -6.17473,2.355624 -8.53035,0 L 87.052489,50.119308 70.486062,66.685653 c 1.854567,2.508174 3.40751,5.234628 4.621289,8.123967 2.002817,4.767224 3.042881,9.883616 3.060161,15.054661 0.01736,5.170963 -0.988386,10.293969 -2.959206,15.074669 -1.97082,4.7807 -4.867849,9.12402 -8.524233,12.78024 -3.656384,3.65704 -7.999943,6.55341 -12.780562,8.52456 -4.780618,1.97115 -9.903873,2.97657 -15.074752,2.95921 -5.17088,-0.0174 -10.287272,-1.05751 -15.054578,-3.06008 -4.767307,-2.00258 -9.091352,-4.92871 -12.723181,-8.60973 l -0.04523,-0.0455 C 3.8638091,110.09256 -0.08784955,100.18884 0.00148225,89.908103 0.09081323,79.628273 4.2142341,69.794432 11.483678,62.525071 18.753039,55.255627 28.586797,51.132252 38.866875,51.042872 c 8.280816,-0.07193 16.317554,2.478324 22.995239,7.205861 L 115.96324,4.1479733 c 2.35563,-2.3556231 6.17473,-2.3556231 8.53036,0 z M 58.230947,70.879639 c -0.05614,-0.05036 -0.111622,-0.101947 -0.166275,-0.154781 -5.119368,-4.944413 -11.975896,-7.680376 -19.092955,-7.618529 -7.116977,0.06185 -13.92497,2.916541 -18.957605,7.949176 -5.032717,5.032634 -7.88733,11.840628 -7.949176,18.957604 -0.06177,7.10656 2.665849,13.952671 7.596205,19.069891 2.509661,2.53753 5.49516,4.55498 8.785675,5.93743 3.300437,1.38659 6.842553,2.10675 10.422375,2.11832 3.57982,0.0124 7.126733,-0.68378 10.436348,-2.04804 3.309696,-1.36509 6.316776,-3.37014 8.848099,-5.90188 2.531325,-2.53091 4.536954,-5.53807 5.90138,-8.84785 1.364427,-3.309781 2.060695,-6.85686 2.048706,-10.436185 -0.01199,-3.58015 -0.731987,-7.122185 -2.118572,-10.422622 -1.348965,-3.210892 -3.302835,-6.131319 -5.754205,-8.602534 z m 37.351893,-29.290765 9.56554,9.565371 12.58097,-12.58138 -9.56554,-9.565371 z"/>
</svg>