<svg viewBox="0 0 500 500">
  <defs/>
  <path d="M249.218 3.452c-15.697 1.648-26.696 15.61-40.377 22.663-67.877 45.828-136.948 89.59-203.678 137.349-9.798 11.404-4.569 32.408 8.8 37.46 12.603 8.819 25.429 17.246 38.198 25.77l-.031.022 36.37 24.099C60.492 269.537 32.624 288.5 5.163 308.154c-9.798 11.404-4.569 32.408 8.8 37.459 12.603 8.82 25.429 17.247 38.198 25.77l-.031.023 47.146 31.238.365.314c48.431 31.593 95.708 65.527 145.192 94.99 13.643 3.918 24.52-9.133 35.652-15.31 42.07-27.684 83.751-56.078 125.906-83.604l41.168-27.52.008-.006c16.79-13.165 37.653-20.939 50.573-39.176 5.29-12.309-1.99-27.638-13.31-31.974-24.523-16.384-48.998-32.863-73.483-49.324l36.213-24.21.008-.006c16.788-13.164 37.652-20.938 50.572-39.175 5.29-12.309-1.99-27.638-13.31-31.975-75.067-50.156-149.647-101.29-225.653-149.686-3.15-1.427-6.521-2.584-9.96-2.53zm.279 50.699l.867.56.16.103c62.715 40.234 124.38 82.39 186.576 123.549-21.236 14.41-42.535 28.708-63.853 42.971-4.227-3.669-9.538-5.678-15.02-5.68-13.038 0-23.608 11.109-23.609 24.813.006 2.075.26 4.141.756 6.15-28.355 18.866-56.743 37.674-85.131 56.483-28.986-18.692-57.777-37.74-86.516-56.885.069-.75.105-1.504.108-2.258 0-13.705-10.571-24.815-23.61-24.815a22.744 22.744 0 00-11.925 3.432c-22.04-14.723-44.08-29.444-66.184-44.054 62.627-41.155 124.626-83.43 187.38-124.37zm.504 99.136c-13.04-.001-23.612 9.11-23.612 22.816 0 13.707 10.572 22.818 23.612 22.817 13.04 0 23.61-9.11 23.61-22.817 0-13.705-10.57-22.816-23.61-22.816zm-79.135 56.49c.001 13.705 10.571 22.814 23.61 22.814s23.608-9.11 23.609-22.815c-.001-13.705-10.571-22.815-23.61-22.815s-23.609 9.11-23.609 22.816zm108.375 0c.001 13.705 10.571 22.814 23.61 22.814s23.608-9.11 23.609-22.815c-.001-13.705-10.571-22.815-23.61-22.815-13.04 0-23.609 9.11-23.609 22.816zm-149.445 68.5c38.072 25.547 75.865 51.66 115.037 74.983 13.643 3.917 24.52-9.133 35.652-15.31 29.942-19.703 59.69-39.758 89.549-59.611 22.336 14.943 44.668 29.891 67.066 44.714-62.008 42.078-124.443 83.384-186.857 124.74-63.15-40.725-125.384-83.113-188.127-124.58 22.622-14.868 45.156-29.892 67.68-44.937z"/>
</svg>
