<svg height="500" viewBox="0 0 500.00001 500.00001" width="500" xmlns="http://www.w3.org/2000/svg"><path d="m249.31931.2729147c-15.69615 1.5029742-26.69705 14.2405013-40.37835 20.6766853-67.87617 41.808035-136.946061 81.73313-203.6765704 125.30305-9.7979734 10.4033-4.5687011 29.56561 8.8007004 34.17351 12.602371 8.04566 25.427072 15.73406 38.196241 23.51001-16.393583 11.43727-35.696112 19.05582-49.56621 33.6899-6.4186198 11.00458-.4334501 26.5756 11.481305 30.82486 13.579059 8.62581 27.394945 16.86772 41.047931 25.3742-17.515721 12.14489-38.521119 19.88761-52.9052744 36.02095-6.298844 11.38127 1.0109666 26.14004 12.5755334 30.6441 62.424935 38.1462 125.003964 76.09764 187.530074 114.11259 14.53681 8.27858 28.63502 17.84148 43.71502 24.95088 13.17393 1.68464 23.14993-9.20439 34.04692-14.67699 71.58125-43.33778 143.60086-86.05625 214.19758-130.91883 9.49113-9.60539 6.1847-27.54433-6.03996-33.12787-14.11946-9.67282-29.30676-17.94933-43.88457-27.02845 17.36604-12.04925 38.15336-19.76376 52.72217-35.43031 6.27533-10.83718.37459-25.88574-10.94786-30.63812-12.64571-8.24391-25.75341-15.67813-38.57306-23.67878 16.79008-12.01353 37.65856-19.10426 50.58013-35.74531 5.2897-11.22863-1.9905-25.21401-13.31213-29.17048-75.06639-45.755824-149.64468-92.405653-225.6515-136.5562067-3.14878-1.3018693-6.51972-2.3591773-9.95812-2.3093886zm1.3053 46.8571573c62.71452 36.705137 124.38029 75.164988 186.57614 112.713118-62.00796 38.38703-124.44389 76.07247-186.85768 113.79989-63.14922-37.15304-125.38266-75.82255-188.125578-113.6542 62.626848-37.54678 124.625008-76.11443 187.379408-113.463226l.86889.511014.15882.0934zm-155.994958 182.571628c50.223898 29.67123 99.077888 61.87355 150.303188 89.69799 13.64279 3.57416 24.52116-8.33034 35.65343-13.9659 42.07059-25.25662 83.75029-51.16086 125.90533-76.27153 10.24124 6.00256 20.31329 12.28529 30.33114 18.65229-61.86919 38.57723-124.22364 76.37165-186.83405 113.73492-62.90406-37.02754-124.86064-75.62248-187.194342-113.5971 10.17143-6.44759 20.402352-12.80256 30.807596-18.8669l.864516.51838.163192.0979zm2.787804 89.69405c49.442164 29.10198 97.453674 60.74038 147.690604 88.3533 12.94756 2.70685 23.3524-7.87321 33.97413-13.36043 41.48097-25.20828 82.86065-50.57982 124.46803-75.58351 11.31406 6.87422 22.63641 13.72784 33.89073 20.69984-62.4284 37.67462-124.3127 76.28654-187.15694 113.28604-63.24792-36.623-125.22726-75.38783-187.72198-113.27422 11.224656-6.99285 22.435195-14.01125 33.823781-20.73528l.866115.5157.16553.0986z"/></svg>