<svg viewBox="0 0 500 500">
  <defs/>
  <path d="M72.9 499.141c-6.637-1.836-12.534-6.24-16.117-12.034l-3.018-4.882-.258-229.996c-.175-156.269.073-231.226.776-233.834 1.63-6.051 6.837-12.02 13.427-15.39L73.585 0h352.602l5.875 3.005c6.518 3.333 11.737 9.262 13.41 15.235 1.442 5.151 1.43 458.337-.014 463.554-2.793 10.1-13.97 18.126-25.208 18.102-4.116-.01-7.682-.705-10.672-2.08-2.47-1.138-39.3-30.408-81.842-65.047-42.543-34.639-77.575-62.978-77.85-62.976-.274.002-35.307 28.337-77.85 62.967-42.542 34.63-79.147 63.784-81.342 64.787-5.627 2.57-12.155 3.154-17.794 1.594zm104.967-139.754c30.929-25.118 57.877-46.64 59.885-47.827 5.269-3.114 19-3.114 24.269 0 2.965 1.753 93.861 75.07 123.852 99.901l7.735 6.404V53.397H106.164v364.468l7.735-6.404c4.254-3.522 33.04-26.955 63.968-52.073z"/>
</svg>
