<svg viewBox="0 0 500 500">
  <defs/>
  <path d="M250.133 7.895c-87.667 0-145.384.192-181.637.699-18.126.253-30.858.582-39.486 1.021-4.314.22-7.568.455-10.26.787-1.346.166-2.524.337-3.955.684-1.431.347-2.906-.51-7.393 3.976-4.46 4.46-3.843 6.227-4.322 8.077-.479 1.85-.764 3.57-1.03 5.504-.529 3.865-.903 8.475-1.204 13.81C.242 53.124-.027 78.561.002 92.008c.03 13.446.358 26.831 1.008 37.41.325 5.29.717 9.838 1.27 13.656.276 1.91.568 3.606 1.083 5.479.516 1.873-.426 3.908 5.194 8.572 3.737 3.101 5.429 3.11 7.465 3.715 2.035.604 4.1 1.05 6.357 1.45 4.515.799 9.733 1.371 15.127 1.624l4.894.23.645 147.352c.247 56.381.644 96.696 1.252 123.381.555 23.242-.218 32.079 5.55 48.76 5.066 6.102 7.727 5.057 10.169 5.56 2.441.503 4.943.783 8.21 1.047 6.536.529 15.969.883 30.094 1.154 28.252.543 75.089.707 151.604.707 76.515 0 123.352-.164 151.603-.707 14.126-.271 23.557-.625 30.092-1.154 3.268-.264 5.771-.544 8.213-1.047 2.442-.503 5.103.542 10.168-5.56 3.332-4.014 2.79-5.168 3.094-6.44.304-1.272.463-2.32.617-3.492.308-2.342.534-5.082.75-8.58.432-6.996.786-16.905 1.09-30.248.608-26.685 1.005-67 1.252-123.38l.646-147.317 5.403-.239c6.053-.266 11.447-.856 16.166-1.851 4.718-.995 8.542-.052 14.654-7.416 3.555-4.283 3.073-5.739 3.486-7.496.413-1.758.667-3.433.907-5.317.478-3.767.824-8.28 1.105-13.498.563-10.436.832-23.567.83-36.728-.002-13.161-.273-38.292-.838-48.729-.282-5.218-.63-9.73-1.11-13.498-.239-1.883-.496-3.557-.91-5.314-.413-1.758.07-3.216-3.484-7.498-4.667-5.624-7.693-5.108-10.306-5.655-2.614-.546-5.329-.844-8.965-1.127-7.273-.564-18.076-.936-34.918-1.216-33.684-.56-91.307-.703-189.336-.703zM54.086 61.746h391.676v47.797H54.086V91.645zm43.465 101.649h304.744v274.859H97.551v-137.43zm97.088 56.113c-13.421.37-22.541.845-31.184 4.57-15.16 5.576-16.09 28.069-15.377 32.318 1.082 6.372 4.638 12.794 8.197 16.354 1.846 1.845 5.779 4.86 10.006 6.264 4.228 1.403 8.442 1.89 14.434 2.277 11.984.773 31.614.8 69.209.8 47.83 0 68.792 2.427 85.928-4.728 8.568-3.577 15.003-13.1 16.353-21.074.12-5.212 1.89-25.054-15.812-32.21-8.643-3.726-17.763-4.201-31.184-4.571-13.42-.37-31.115-.164-55.285-.164-29.484.346-29.271-1.651-55.285.164z"/>
</svg>
