<svg xmlns="http://www.w3.org/2000/svg" width="500" height="500">
  <path d="M37.5 37.5v150h150v-150zM25 0A25 25 0 000 25v175a25 25 0 0025 25h175a25 25 0 0025-25V25a25 25 0 00-25-25zm287.5 37.5v150h150v-150zM300 0a25 25 0 00-25 25v175a25 25 0 0025 25h175a25 25 0 0025-25V25a25 25 0 00-25-25zm12.5 312.5v150h150v-150zM300 275a25 25 0 00-25 25v175a25 25 0 0025 25h175a25 25 0 0025-25V300a25 25 0 00-25-25zM37.5 312.5v150h150v-150zM25 275a25 25 0 00-25 25v175a25 25 0 0025 25h175a25 25 0 0025-25V300a25 25 0 00-25-25z" clip-rule="evenodd" fill-rule="evenodd"/>
</svg>
