<svg height="500" viewBox="0 0 500.00001 500.00001" width="500" xmlns="http://www.w3.org/2000/svg"><path d="m110.60416 499.33847c-22.177988-4.50776-39.962038-21.75589-46.405198-45.0068-1.977315-7.13539-2.016513-9.26603-2.016513-109.60819 0-98.645.06949-102.60306 1.929042-109.87383 4.423652-17.29632 16.524827-32.63809 31.819424-40.34039l7.825735-3.94103.60407-49.32264c.65846-53.763135.62011-53.373185 6.83197-69.481055 8.21794-21.30983 30.46536-44.049766 55.16981-56.391163 10.20624-5.09865 24.27131-9.8702562 37.2909-12.6510232 12.29719-2.62647101 13.38097-2.69147701 45.36838-2.72123901 36.82119-.03426 43.33148.691327 63.09496 7.03207001 22.66364 7.2712112 38.73778 16.8847932 54.33879 32.4988162 11.05888 11.068109 16.97809 19.704479 22.16356 32.337529 5.96869 14.54116 6.15544 16.63373 6.17191 69.157365.008 26.25671.33839 48.1887.73367 48.73773.39527.54903 4.20746 2.70218 8.47153 4.7848 15.26633 7.45624 27.42013 22.8142 31.8923 40.30023 1.85931 7.2698 1.92905 11.22683 1.92905 109.45314 0 98.71665-.0614 102.15316-1.95844 109.64831-2.76597 10.92815-7.22084 19.12549-14.77309 27.18364-7.14127 7.61966-13.97588 12.19324-24.11727 16.13877l-6.5947 2.56569-137.92851.14728c-75.86068.081-139.6893-.21059-141.84138-.64801zm275.44488-42.36785c3.21442-1.69982 4.97898-3.57704 7.00136-7.44832l2.70384-5.17574v-101.43074-101.43073l-2.51453-5.046c-1.49217-2.99441-3.82602-5.85656-5.74021-7.03959-3.20494-1.98076-4.09399-1.99357-138.31459-1.99357h-135.08891l-3.61136 3.17081c-7.68721 6.74946-7.17152-1.28062-7.19562 112.04559-.019 89.01071.15867 101.46341 1.49253 104.6558 1.77442 4.24679 4.66753 7.5951 8.75726 10.13513 2.8251 1.7546 7.88585 1.82277 135.57367 1.82629l132.63902.004 4.29754-2.2726zm-175.1777-42.25912c0-.81959 3.52158-15.55592 7.82573-32.74738 4.30416-17.19147 7.82573-31.96021 7.82573-32.81943 0-.85925-2.41047-3.76528-5.3566-6.45788-9.7665-8.92602-14.60162-22.54037-12.4537-35.0661 1.56659-9.13564 4.34066-14.72784 10.7286-21.62759 23.40741-25.28278 65.56256-12.69769 71.62135 21.382 2.17751 12.24808-2.24683 25.13545-11.97693 34.88693l-5.77232 5.785 8.32828 33.30344c4.58055 18.31689 8.11305 33.65168 7.84999 34.07733-.26305.42563-18.0602.77387-39.54921.77387-34.34393 0-39.07092-.18029-39.07092-1.49019zm143.79781-271.25464c0-49.238655-.0768-50.006535-6.08212-60.826955-10.93104-19.69552-35.55506-34.687-65.08507-39.62477-14.60005-2.441306-62.54427-1.62974-74.64943 1.26361-30.35851 7.25623-52.8469 24.27954-61.66065 46.676-2.28452 5.80515-2.31336 6.34422-2.63922 49.320085-.1812 23.89793-.0718 44.47715.24301 45.73161l.57244 2.28083h104.65052 104.65052z"/></svg>