<svg xmlns="http://www.w3.org/2000/svg" width="500" height="500" viewBox="0 0 132.292 132.292">
  <path d="M27.637 0v48.775H16.504v83.517h99.284V48.775h-11.664V0zm10.604 10.601h55.28v38.174h-55.28zM27.107 59.376h78.078v62.313H27.107zM66.38 72.03c-2.958-.08-5.984 1.021-8.31 3.534-1.694 1.829-2.43 3.311-2.844 5.733-.57 3.32.712 6.93 3.301 9.295.781.714 1.42 1.484 1.42 1.712 0 .228-.934 4.143-2.075 8.7-1.14 4.557-2.074 8.463-2.074 8.68 0 .347 1.253.395 10.357.395 5.696 0 10.413-.092 10.483-.205.07-.113-.866-4.178-2.08-9.033l-2.208-8.828 1.53-1.534c2.58-2.585 3.752-6 3.175-9.247-1.004-5.646-5.745-9.067-10.675-9.202z"/>
</svg>
