<svg width="689" xmlns="http://www.w3.org/2000/svg" height="580" viewBox="-7273 -2103 689 580">
  <path fill-rule="evenodd" clip-rule="evenodd" d="M-7023.696-1941.621a692.756 692.756 0 0 0-2.952-2.574 857.7 857.7 0 0 0-31.9-26.325 695.396 695.396 0 0 0-9.65-7.446 423.468 423.468 0 0 0-3.044-2.284l-.282-.209-.181-.133-.06-.044-.003-.003c-.001-.001-.002-.001-3.391 4.634l3.389-4.635-1.276-.936-111.104-12.548 45.27 102.748 1.34.951a536.433 536.433 0 0 1 46.391 36.92c-11.968.294-23.574.921-34.252 1.694a854.445 854.445 0 0 0-41.13 3.995 690.91 690.91 0 0 0-12.077 1.576c-1.416.198-2.512.358-3.258.468l-.852.127-.222.034-.078.012c-.002 0-.003 0 .907 5.885l-.91-5.885-1.56.243-87.419 69.822 104.021 40.398h1.112c.371 0 .676-.038.69-.039a11.167 11.167 0 0 0 .531-.075c.193-.031.449-.073.745-.124l.471-.079c.548-.092 1.235-.208 2.065-.346 2.168-.36 5.287-.863 9.188-1.436a550.968 550.968 0 0 1 31.437-3.694c25.487-2.248 57.729-3.224 86.02 1.614h.002c3.788.646 7.561 1.379 11.315 2.198-22.216 37.771-28.532 80.829-17.544 121.901l.006.019.005.019a127.287 127.287 0 0 0 39.623 62.69c21.188 18.306 47.385 28.488 73.813 28.488 26.429 0 52.624-10.182 73.813-28.488a127.287 127.287 0 0 0 39.623-62.69l.005-.019.005-.019c10.989-41.076 4.671-84.138-17.55-121.912a239.996 239.996 0 0 1 11.311-2.185l.012-.002c28.292-4.838 60.535-3.862 86.022-1.614a551.094 551.094 0 0 1 31.434 3.694c3.755.55 7.502 1.144 11.243 1.781l.485.08a57.321 57.321 0 0 0 1.05.171l.104.013.119.015h.005c.035.004.327.039.684.039h1.114l104.021-40.398-87.42-69.822-1.56-.243-.906 5.885.906-5.885-.079-.012-.223-.034c-.153-.024-.366-.055-.639-.096l-.213-.031c-.748-.11-1.842-.27-3.259-.468a690.287 690.287 0 0 0-12.074-1.576 854.776 854.776 0 0 0-41.132-3.995c-10.599-.767-22.109-1.39-33.98-1.687a536.806 536.806 0 0 1 46.401-36.927l1.337-.951 45.273-102.748-111.104 12.548-1.275.936 3.465 4.739a1395.585 1395.585 0 0 0-3.467-4.738l-.004.003-.06.044-.18.133-.693.514c-.88.656-1.758 1.316-2.634 1.979a701.412 701.412 0 0 0-9.65 7.446 858.52 858.52 0 0 0-31.9 26.325 959.94 959.94 0 0 0-3.235 2.821v-91.285h-.163l-23.016-10.971v-21.064l-26.432-37.306-26.433 37.306-19.24-27.153-19.122 27.048-.684-.952-25.63-36.175-26.432 37.306v21.094l-23.03 11.016-.209-.089v90.978Zm135.951-138.526 9.48-.163 10.222 14.425h-29.805l10.103-14.262Zm22.525 21.526v40.998l-14.071 6.654v-47.637l14.071-.015Zm-35.451 0h14.13v51.091l-14.13 6.684v-57.775Zm-78.139-21.526 9.465-.163 10.222 14.425h-29.805l10.118-14.262Zm22.526 21.526v57.79l-14.072-6.654v-51.076l14.072-.06Zm-35.467 0h14.13v47.637l-14.13-6.684v-40.953Zm-8.706 25.903v10.986l-12.437-5.954 12.437-5.032Zm68.242 43.29-14.129-6.699v-52.281h14.129v58.98Zm-11.307-66.26 10.104-14.261 9.479-.164 10.222 14.425h-29.805Zm18.573 66.349v-59.069h14.055v52.4l-14.055 6.669Zm-87.752 57.534v-83.585l78.748 37.216v140.204a345.971 345.971 0 0 0-17.751-27.712c-16.313-23.047-39.471-46.52-60.997-66.123Zm168.461.203v-83.669l-78.748 37.216v140.403a347.201 347.201 0 0 1 17.98-28.038c16.256-22.964 39.308-46.352 60.768-65.912Zm162.559 96.929a691.015 691.015 0 0 0-10.222-1.32 839.788 839.788 0 0 0-40.553-3.939c-32.603-2.361-73.053-3.263-105.555 2.292l-.018.003-.017.003a315.21 315.21 0 0 0-77.108 23.116c13.722 7.63 26.403 16.235 37.859 25.724a298.632 298.632 0 0 1 45.655-11.431c32.272-5.514 69.879-4.439 99.174-2.052a675.784 675.784 0 0 1 36.447 3.974c3.383.463 6.255.885 8.523 1.233l5.815-37.603Zm-7.632 49.371a544.212 544.212 0 0 0-8.316-1.202 664.58 664.58 0 0 0-35.803-3.903c-28.978-2.361-65.414-3.341-96.214 1.922l-.016.003a286.905 286.905 0 0 0-37.247 8.847c10.455 9.825 19.68 20.469 27.508 31.843a249.306 249.306 0 0 1 16.126-3.263c29.773-5.091 63.193-4.019 89.056-1.738a563.63 563.63 0 0 1 32.123 3.775c2.724.4 5.081.768 7.008 1.078l5.775-37.362Zm6.626 34.932 12.105-78.29 26.071 20.822-7.023 45.371-31.153 12.097Zm-173.826-271.377v-10.986l12.451 5.091-12.451 5.895Zm-353.694 257.438 35.892 13.939-12.102-78.29-30.037 23.991 6.247 40.36Zm84.537-211.226 39.473 4.458-46.656 63.89-16.079-36.494 23.262-31.854Zm334.831 14.39a711.212 711.212 0 0 1 8.072-6.247l22.398 30.673a590.351 590.351 0 0 0-5.929 4.433 677.173 677.173 0 0 0-26.519 21.187c-20.456 17.201-45.678 40.512-64.909 65.143a327.167 327.167 0 0 0-57.313 18.401 335.755 335.755 0 0 1 19.713-31.227l.004-.006.004-.005c19.067-26.938 48.307-54.959 73.027-76.397a844.498 844.498 0 0 1 31.452-25.955Zm31.713 38.358a494.56 494.56 0 0 1 5.78-4.32l22.307 30.546a548.535 548.535 0 0 0-51.999 42.881c-19.305.098-38.849 1.251-56.387 4.201 16.991-19.669 37.152-38.121 54.249-52.498a662.55 662.55 0 0 1 26.05-20.81Zm-11.589-48.268 46.773 64.045 14.372-32.622-25.858-35.409-35.287 3.986Zm-190.685 112.262Za333.938 333.938 0 0 1 19.704 31.292c-17.912-7.662-37.16-13.837-57.433-18.364-19.24-24.665-44.498-48.012-64.98-65.234a675.718 675.718 0 0 0-26.52-21.187 547.107 547.107 0 0 0-5.93-4.433l22.474-30.775a713.558 713.558 0 0 1 8.206 6.349 844.498 844.498 0 0 1 31.452 25.955c24.72 21.438 53.96 49.459 73.027 76.397Zm-112.279 5.114c19.244.108 38.716 1.268 56.191 4.214-16.994-19.674-37.16-38.131-54.262-52.512a665.034 665.034 0 0 0-26.048-20.81 538.912 538.912 0 0 0-5.779-4.32l-22.235 30.448a548.984 548.984 0 0 1 52.133 42.98Zm-91.416 17.686c-3.411.415-6.819.855-10.223 1.32l5.812 37.6c2.269-.346 5.135-.768 8.511-1.23a676.083 676.083 0 0 1 36.446-3.974c29.298-2.388 66.906-3.462 99.179 2.053 58.151 9.933 103.606 33.731 132.159 64.703 28.621 31.044 40.25 69.383 30.076 107.399-7.66 28.622-34.656 54.252-65.365 54.252-30.708 0-57.705-25.63-65.366-54.252v-.002c-8.571-32.054-1.65-64.395 17.945-92.37-10.902-5.404-23.121-10.021-36.387-13.653-22.18 35.895-28.573 76.897-18.163 115.828a115.378 115.378 0 0 0 35.91 56.8l.005.005c19.195 16.588 42.683 25.605 66.056 25.605 23.373 0 46.861-9.017 66.055-25.605l.006-.005a115.36 115.36 0 0 0 35.909-56.798c10.622-39.723 3.751-81.601-19.534-118.011-32.528-50.827-95.304-88.052-172.925-101.312-32.502-5.555-72.95-4.653-105.556-2.292a839.665 839.665 0 0 0-40.55 3.939Zm3.183 88.053-5.775-37.364c2.209-.337 5.005-.748 8.302-1.2a664.393 664.393 0 0 1 35.8-3.903c28.979-2.361 65.416-3.341 96.216 1.922 56.181 9.598 99.035 32.417 125.427 61.044 26.324 28.554 36.276 62.794 27.327 96.234-6.573 24.554-29.649 45.428-53.885 45.428-24.236 0-47.312-20.874-53.886-45.428-7.664-28.667-1.446-57.871 16.998-83.581 12.018 7.111 21.994 15.263 29.457 24.107a91.07 91.07 0 0 0-1.152 1.752l-.001.002c-1.947 3.043-4.134 8.334-5.962 14.189-1.869 5.984-3.533 13.102-4.22 20.016-.671 6.747-.495 14.07 2 19.968 1.292 3.051 3.284 5.905 6.255 7.973 2.999 2.088 6.579 3.086 10.533 3.086 3.955 0 7.534-.998 10.533-3.086 2.972-2.068 4.963-4.922 6.255-7.973 2.496-5.898 2.671-13.221 2-19.968-.687-6.914-2.351-14.032-4.219-20.016-1.828-5.854-4.015-11.146-5.962-14.188l-5.004 3.213 5.004-3.214a86.934 86.934 0 0 0-3.874-5.554c-18.034-23.842-50.589-42.343-89.793-52.305a258.122 258.122 0 0 0-20.182-4.268c-29.774-5.092-63.197-4.02-89.063-1.739a563.144 563.144 0 0 0-32.119 3.775c-2.728.4-5.083.768-7.01 1.078Zm128.192-3.114-1 5.87 1-5.87Zm102.018 79.872c1.113-3.566 2.26-6.527 3.224-8.636.964 2.109 2.111 5.07 3.224 8.636 1.691 5.416 3.148 11.722 3.736 17.64.605 6.086.211 11.004-1.116 14.139-.62 1.465-1.352 2.326-2.094 2.842-.714.498-1.837.957-3.75.957s-3.036-.459-3.75-.957c-.742-.516-1.474-1.377-2.094-2.842-1.327-3.135-1.721-8.053-1.116-14.139.588-5.918 2.045-12.224 3.736-17.64Z"/>
</svg>
