<svg width="24" xmlns="http://www.w3.org/2000/svg" height="24" id="screenshot-5de0120c-6b0f-8021-8008-386c29a8479c" viewBox="0 0 24 24" xmlns:xlink="http://www.w3.org/1999/xlink" fill="none" version="1.1"><g id="shape-5de0120c-6b0f-8021-8008-386c29a8479c" width="21" height="21" rx="0" ry="0" style="fill: rgb(0, 0, 0);"><g id="shape-5de0120c-6b0f-8021-8008-386c29a8479d" style="display: none;"><g class="fills" id="fills-5de0120c-6b0f-8021-8008-386c29a8479d"><rect width="24" height="24" x="0" transform="matrix(1.000000, 0.000000, 0.000000, 1.000000, 0.000000, 0.000000)" style="fill: rgb(143, 157, 163); fill-opacity: 1;" ry="0" fill="none" rx="0" y="0"/></g></g><g id="shape-5de0120c-6b0f-8021-8008-386c29a8479e" rx="0" ry="0"><g id="shape-5de0120c-6b0f-8021-8008-386c29a8479f"><g class="fills" id="fills-5de0120c-6b0f-8021-8008-386c29a8479f"><path d="M15.999859809875488,16.287622451782227L15.999859809875488,3.8000736236572266L14.559430122375488,3.8000736236572266L14.559430122375488,15.740259170532227L12.529156684875488,15.740259170532227L12.529156684875488,3.8000736236572266L11.484967231750488,3.8000736236572266L11.484967231750488,15.740259170532227L9.440289497375488,15.740259170532227L9.440289497375488,3.8000736236572266L7.99985933303833,3.8000736236572266L7.99985933303833,16.287622451782227L11.999859809875488,22.000024795532227L15.999859809875488,16.287622451782227L15.999859809875488,16.287622451782227M11.307476997375488,18.838403701782227L9.845562934875488,16.784692764282227L14.154889106750488,16.784692764282227L12.677838325500488,18.838403701782227L11.307476997375488,18.838403701782227L11.307476997375488,18.838403701782227" style="fill: rgb(143, 157, 163); fill-opacity: 1;"/></g></g><g id="shape-5de0120c-6b0f-8021-8008-386c29a847a0"><g class="fills" id="fills-5de0120c-6b0f-8021-8008-386c29a847a0"><rect rx="0.9999999999995453" ry="0.9999999999995453" x="7.998480615604876" y="2.800000000000182" transform="matrix(1.000000, 0.000000, 0.000000, 1.000000, 0.000000, 0.000000)" width="8" height="1.9999999999990905" style="fill: rgb(143, 157, 163); fill-opacity: 1;"/></g></g></g></g></svg>