<svg width="223" xmlns="http://www.w3.org/2000/svg" height="222.5" id="screenshot-4951468b-1dfd-80af-8006-5962ae6427c9" viewBox="0 0 223 222.5" xmlns:xlink="http://www.w3.org/1999/xlink" fill="none" version="1.1"><g id="shape-4951468b-1dfd-80af-8006-5962ae6427c9" rx="0" ry="0"><g id="shape-4951468b-1dfd-80af-8006-5962ae6427d0"><g class="fills" id="fills-4951468b-1dfd-80af-8006-5962ae6427d0"><rect rx="4.079802842416063" ry="4.079802842416063" x="0" y="87.09714427100607" transform="matrix(1.000000, 0.000000, 0.000000, 1.000000, 0.000000, 0.000000)" width="204.68795620437595" height="23.787155930501285"/></g><g id="strokes-2d5285c9-d0ae-801e-8006-5c00ff64f7a4-4951468b-1dfd-80af-8006-5962ae6427d0" class="strokes"><g class="inner-stroke-shape" transform="matrix(1.000000, 0.000000, 0.000000, 1.000000, 0.000000, 0.000000)"><defs><clipPath id="inner-stroke-render-2-4951468b-1dfd-80af-8006-5962ae6427d0-0"><use href="#stroke-shape-render-2-4951468b-1dfd-80af-8006-5962ae6427d0-0"/></clipPath><rect rx="4.079802842416063" ry="4.079802842416063" x="0" y="87.09714427100607" width="204.68795620437595" height="23.787155930501285" id="stroke-shape-render-2-4951468b-1dfd-80af-8006-5962ae6427d0-0" style="fill: none; stroke-width: 1.6; stroke: rgb(46, 52, 52); stroke-opacity: 1;"/></defs><use href="#stroke-shape-render-2-4951468b-1dfd-80af-8006-5962ae6427d0-0" clip-path="url('#inner-stroke-render-2-4951468b-1dfd-80af-8006-5962ae6427d0-0')"/></g></g></g><g id="shape-4951468b-1dfd-80af-8006-5962ae6427d1"><g class="frame-container-wrapper"><g class="frame-container-blur"><g class="frame-container-shadows"><g fill="none"><g class="fills" id="fills-4951468b-1dfd-80af-8006-5962ae6427d1"><rect rx="0" ry="0" x="6.91788321167769" y="94.75741482489684" width="8.75173002180236" height="8.639402880327907" transform="matrix(1.000000, 0.000000, 0.000000, 1.000000, 0.000000, 0.000000)" class="frame-background"/></g><g class="frame-children"><g id="shape-4951468b-1dfd-80af-8006-5962ae6427e5"><g class="fills" id="fills-4951468b-1dfd-80af-8006-5962ae6427e5"><path d="M8.01171875,95.83740234375L10.81640625,102.484375L11.8125,99.58984375L14.74609375,98.60693359375Z"/></g><g id="strokes-2d5285c9-d0ae-801e-8006-5c00ff6691d7-4951468b-1dfd-80af-8006-5962ae6427e5" class="strokes"><g class="stroke-shape"><path d="M8.01171875,95.83740234375L10.81640625,102.484375L11.8125,99.58984375L14.74609375,98.60693359375Z" style="fill: none; stroke-width: 0.8; stroke: rgb(46, 52, 52); stroke-opacity: 1; stroke-linecap: round;"/></g></g></g></g></g></g></g></g></g><g id="shape-4951468b-1dfd-80af-8006-5962ae6427d2"><g class="frame-container-wrapper"><g class="frame-container-blur"><g class="frame-container-shadows"><g fill="none"><g class="fills" id="fills-4951468b-1dfd-80af-8006-5962ae6427d2"><rect rx="0" ry="0" x="24.416058394162974" y="94.75741482489684" width="8.75173002180236" height="8.639402880326998" transform="matrix(1.000000, 0.000000, 0.000000, 1.000000, 0.000000, 0.000000)" class="frame-background"/></g><g class="frame-children"><g id="shape-4951468b-1dfd-80af-8006-5962ae6427e6"><g class="fills" id="fills-4951468b-1dfd-80af-8006-5962ae6427e6"><path d="M26.1328125,102.4521484375C25.71484375,102.45166015625,25.375,102.1162109375,25.373046875,101.7021484375L25.373046875,96.4521484375C25.375,96.0380859375,25.71484375,95.70263671875,26.1328125,95.7021484375L31.451171875,95.7021484375C31.87109375,95.70263671875,32.2109375,96.0380859375,32.2109375,96.4521484375L32.2109375,101.7021484375C32.2109375,102.1162109375,31.87109375,102.45166015625,31.451171875,102.4521484375L26.1328125,102.4521484375ZM26.1328125,102.4521484375L30.310546875,98.3271484375L32.2109375,100.2021484375M27.462890625,98.3271484375C27.1484375,98.3271484375,26.892578125,98.07568359375,26.892578125,97.76513671875C26.892578125,97.4541015625,27.1484375,97.20263671875,27.4609375,97.2021484375C27.77734375,97.2021484375,28.03125,97.4541015625,28.03125,97.7646484375C28.03125,98.0751953125,27.77734375,98.3271484375,27.462890625,98.3271484375Z"/></g><g id="strokes-2d5285c9-d0ae-801e-8006-5c00ff67862c-4951468b-1dfd-80af-8006-5962ae6427e6" class="strokes"><g class="stroke-shape"><path d="M26.1328125,102.4521484375C25.71484375,102.45166015625,25.375,102.1162109375,25.373046875,101.7021484375L25.373046875,96.4521484375C25.375,96.0380859375,25.71484375,95.70263671875,26.1328125,95.7021484375L31.451171875,95.7021484375C31.87109375,95.70263671875,32.2109375,96.0380859375,32.2109375,96.4521484375L32.2109375,101.7021484375C32.2109375,102.1162109375,31.87109375,102.45166015625,31.451171875,102.4521484375L26.1328125,102.4521484375ZM26.1328125,102.4521484375L30.310546875,98.3271484375L32.2109375,100.2021484375M27.462890625,98.3271484375C27.1484375,98.3271484375,26.892578125,98.07568359375,26.892578125,97.76513671875C26.892578125,97.4541015625,27.1484375,97.20263671875,27.4609375,97.2021484375C27.77734375,97.2021484375,28.03125,97.4541015625,28.03125,97.7646484375C28.03125,98.0751953125,27.77734375,98.3271484375,27.462890625,98.3271484375Z" style="fill: none; stroke-width: 0.8; stroke: rgb(46, 52, 52); stroke-opacity: 1; stroke-linecap: round;"/></g></g></g></g></g></g></g></g></g><g id="shape-4951468b-1dfd-80af-8006-5962ae6427d3"><g class="frame-container-wrapper"><g class="frame-container-blur"><g class="frame-container-shadows"><g fill="none"><g class="fills" id="fills-4951468b-1dfd-80af-8006-5962ae6427d3"><rect rx="0" ry="0" x="41.91423357664098" y="94.75741482489684" width="8.751730021798721" height="8.639402880326998" transform="matrix(1.000000, 0.000000, 0.000000, 1.000000, 0.000000, 0.000000)" class="frame-background"/></g><g class="frame-children"><g id="shape-4951468b-1dfd-80af-8006-5962ae6427e7"><g class="fills" id="fills-4951468b-1dfd-80af-8006-5962ae6427e7"><path d="M48.11328125,95.83740234375C48.208984375,95.7431640625,48.322265625,95.66796875,48.44921875,95.6162109375C48.57421875,95.5654296875,48.70703125,95.5390625,48.84375,95.5390625C48.9765625,95.5390625,49.11328125,95.5654296875,49.23828125,95.6162109375C49.36328125,95.66796875,49.4765625,95.7431640625,49.572265625,95.83740234375C49.66796875,95.931640625,49.744140625,96.0439453125,49.796875,96.16796875C49.84765625,96.291015625,49.875,96.423828125,49.875,96.55712890625C49.875,96.69091796875,49.84765625,96.8232421875,49.796875,96.947265625C49.744140625,97.0703125,49.66796875,97.1826171875,49.572265625,97.27734375L44.6484375,102.13720703125L42.64453125,102.6767578125L43.19140625,100.697265625Z"/></g><g id="strokes-2d5285c9-d0ae-801e-8006-5c00ff68bd70-4951468b-1dfd-80af-8006-5962ae6427e7" class="strokes"><g class="stroke-shape"><path d="M48.11328125,95.83740234375C48.208984375,95.7431640625,48.322265625,95.66796875,48.44921875,95.6162109375C48.57421875,95.5654296875,48.70703125,95.5390625,48.84375,95.5390625C48.9765625,95.5390625,49.11328125,95.5654296875,49.23828125,95.6162109375C49.36328125,95.66796875,49.4765625,95.7431640625,49.572265625,95.83740234375C49.66796875,95.931640625,49.744140625,96.0439453125,49.796875,96.16796875C49.84765625,96.291015625,49.875,96.423828125,49.875,96.55712890625C49.875,96.69091796875,49.84765625,96.8232421875,49.796875,96.947265625C49.744140625,97.0703125,49.66796875,97.1826171875,49.572265625,97.27734375L44.6484375,102.13720703125L42.64453125,102.6767578125L43.19140625,100.697265625Z" style="fill: none; stroke-width: 0.8; stroke: rgb(46, 52, 52); stroke-opacity: 1; stroke-linecap: round;"/></g></g></g></g></g></g></g></g></g><g id="shape-4951468b-1dfd-80af-8006-5962ae6427d4"><g class="frame-container-wrapper"><g class="frame-container-blur"><g class="frame-container-shadows"><g fill="none"><g class="fills" id="fills-4951468b-1dfd-80af-8006-5962ae6427d4"><rect rx="0" ry="0" x="79.99999999999636" y="0" width="69" height="143" transform="matrix(1.000000, 0.000000, 0.000000, 1.000000, 0.000000, 0.000000)" class="frame-background"/></g><g class="frame-children"><g id="shape-4951468b-1dfd-80af-8006-5962ae6427e8"><g class="fills" id="fills-4951468b-1dfd-80af-8006-5962ae6427e8"><path d="M84.00390625,130.44775390625C83.615234375,130.31396484375,83.40234375,129.884765625,83.5234375,129.4892578125L111.884765625,38.6611328125C112.009765625,38.265625,112.42578125,38.0546875,112.8125,38.1884765625L118.5234375,40.1650390625C118.91015625,40.298828125,119.126953125,40.7294921875,119.00390625,41.1240234375L90.642578125,131.9521484375C90.51953125,132.34912109375,90.103515625,132.5595703125,89.71484375,132.42626953125L84.00390625,130.44775390625M92.71484375,133.64501953125C92.328125,133.51123046875,92.11328125,133.08203125,92.234375,132.6865234375L120.595703125,41.8583984375C120.71875,41.46240234375,121.134765625,41.25048828125,121.5234375,41.3857421875L127.234375,43.3623046875C127.62109375,43.49609375,127.8359375,43.92529296875,127.71484375,44.3212890625L99.353515625,135.1494140625C99.228515625,135.544921875,98.814453125,135.7568359375,98.42578125,135.6220703125L92.71484375,133.64501953125M101.6640625,136.5595703125C101.2734375,136.42626953125,101.05859375,135.99560546875,101.18359375,135.6015625L129.54296875,44.77294921875C129.66796875,44.3759765625,130.08203125,44.16552734375,130.470703125,44.298828125L136.181640625,46.27734375C136.5703125,46.4111328125,136.78515625,46.84033203125,136.66015625,47.23583984375L108.30078125,138.064453125C108.17578125,138.4599609375,107.76171875,138.67041015625,107.37109375,138.537109375L101.6640625,136.5595703125M123.5234375,23.931640625C123.13671875,24.37451171875,123.34765625,25.095703125,123.916015625,25.27587890625L137.287109375,29.5078125C137.80859375,29.6728515625,138.318359375,29.27783203125,138.30078125,28.724609375L137.72265625,9.765625C137.69921875,9.017578125,136.79296875,8.654296875,136.314453125,9.20458984375L123.5234375,23.931640625L123.5234375,23.931640625" style="fill: rgb(20, 206, 202); fill-opacity: 1;"/></g><g id="strokes-2d5285c9-d0ae-801e-8006-5c00ff6aaab7-4951468b-1dfd-80af-8006-5962ae6427e8" class="strokes"><g class="stroke-shape"><path d="M84.00390625,130.44775390625C83.615234375,130.31396484375,83.40234375,129.884765625,83.5234375,129.4892578125L111.884765625,38.6611328125C112.009765625,38.265625,112.42578125,38.0546875,112.8125,38.1884765625L118.5234375,40.1650390625C118.91015625,40.298828125,119.126953125,40.7294921875,119.00390625,41.1240234375L90.642578125,131.9521484375C90.51953125,132.34912109375,90.103515625,132.5595703125,89.71484375,132.42626953125L84.00390625,130.44775390625M92.71484375,133.64501953125C92.328125,133.51123046875,92.11328125,133.08203125,92.234375,132.6865234375L120.595703125,41.8583984375C120.71875,41.46240234375,121.134765625,41.25048828125,121.5234375,41.3857421875L127.234375,43.3623046875C127.62109375,43.49609375,127.8359375,43.92529296875,127.71484375,44.3212890625L99.353515625,135.1494140625C99.228515625,135.544921875,98.814453125,135.7568359375,98.42578125,135.6220703125L92.71484375,133.64501953125M101.6640625,136.5595703125C101.2734375,136.42626953125,101.05859375,135.99560546875,101.18359375,135.6015625L129.54296875,44.77294921875C129.66796875,44.3759765625,130.08203125,44.16552734375,130.470703125,44.298828125L136.181640625,46.27734375C136.5703125,46.4111328125,136.78515625,46.84033203125,136.66015625,47.23583984375L108.30078125,138.064453125C108.17578125,138.4599609375,107.76171875,138.67041015625,107.37109375,138.537109375L101.6640625,136.5595703125M123.5234375,23.931640625C123.13671875,24.37451171875,123.34765625,25.095703125,123.916015625,25.27587890625L137.287109375,29.5078125C137.80859375,29.6728515625,138.318359375,29.27783203125,138.30078125,28.724609375L137.72265625,9.765625C137.69921875,9.017578125,136.79296875,8.654296875,136.314453125,9.20458984375L123.5234375,23.931640625L123.5234375,23.931640625" style="fill: none; stroke-width: 3.38381; stroke: rgb(255, 255, 255); stroke-opacity: 0.002;"/></g></g></g></g></g></g></g></g></g><g id="shape-4951468b-1dfd-80af-8006-5962ae6427d5"><g class="frame-container-wrapper"><g class="frame-container-blur"><g class="frame-container-shadows"><g fill="none"><g class="fills" id="fills-4951468b-1dfd-80af-8006-5962ae6427d5"><rect rx="0" ry="0" x="114.8690257155431" y="53.245840672005215" width="69.54060898744137" height="24.20604743809963" transform="matrix(1.000000, 0.000000, 0.000000, 1.000000, 0.000000, 0.000000)" class="frame-background"/></g><g class="frame-children"><g id="shape-4951468b-1dfd-80af-8006-5962ae6427ee" rx="0" ry="0"><g id="shape-4951468b-1dfd-80af-8006-5962ae6427ef"><g class="fills" id="fills-4951468b-1dfd-80af-8006-5962ae6427ef"><rect rx="0" ry="0" x="115.05546349070937" y="53.180123018519225" transform="matrix(-0.594460, 0.804126, -0.809358, -0.587316, 291.484487, -16.599529)" width="69.16773343711247" height="24.33748274507343"/></g></g><g id="shape-4951468b-1dfd-80af-8006-5962ae6427f0"><g class="fills" id="fills-4951468b-1dfd-80af-8006-5962ae6427f0"><path d="M142.265625,91.01806640625L168.109375,56.056640625L168.2265625,40.6064453125L153.392578125,45.376953125L124.078125,85.03076171875" fill="none" stroke-miterlimit="10" style="fill: none;"/></g><g fill="none" stroke-miterlimit="10" id="strokes-2d5285c9-d0ae-801e-8006-5c00ff6cbebb-4951468b-1dfd-80af-8006-5962ae6427f0" class="strokes"><g class="stroke-shape"><defs><linearGradient id="stroke-color-gradient-render-14-0" x1="0.5" y1="0" x2="0.5" y2="1" gradientTransform="matrix(0.809358, 0.587316, -0.594460, 0.804126, 0.392551, -0.195721)"><stop offset="0" stop-color="#151035" stop-opacity="1"/><stop offset="1" stop-color="#151035" stop-opacity="1"/></linearGradient></defs><path d="M142.265625,91.01806640625L168.109375,56.056640625L168.2265625,40.6064453125L153.392578125,45.376953125L124.078125,85.03076171875" style="fill: none; stroke-width: 2; stroke: url(&quot;#stroke-color-gradient-render-14-0&quot;);"/></g></g></g><g id="shape-4951468b-1dfd-80af-8006-5962ae6427f1"><g class="fills" id="fills-4951468b-1dfd-80af-8006-5962ae6427f1"><path d="M168.18359375,45.060546875L163.55078125,41.69921875" fill="none" stroke-miterlimit="10" style="fill: none;"/></g><g fill="none" stroke-miterlimit="10" id="strokes-2d5285c9-d0ae-801e-8006-5c00ff6d0e6f-4951468b-1dfd-80af-8006-5962ae6427f1" class="strokes"><g class="stroke-shape"><defs><linearGradient id="stroke-color-gradient-render-15-0" x1="0.5" y1="0" x2="0.5" y2="1" gradientTransform="matrix(0.809358, 0.587316, -0.069654, 0.094221, 0.130917, 0.158795)"><stop offset="0" stop-color="#151035" stop-opacity="1"/><stop offset="1" stop-color="#151035" stop-opacity="1"/></linearGradient></defs><path d="M168.18359375,45.060546875L163.55078125,41.69921875" style="fill: none; stroke-width: 2; stroke: url(&quot;#stroke-color-gradient-render-15-0&quot;);"/></g></g></g><g id="shape-4951468b-1dfd-80af-8006-5962ae6427f2"><g class="fills" id="fills-4951468b-1dfd-80af-8006-5962ae6427f2"><path d="M168.109375,56.056640625L153.0078125,45.09814453125" fill="none" stroke-miterlimit="10" style="fill: none;"/></g><g fill="none" stroke-miterlimit="10" id="strokes-2d5285c9-d0ae-801e-8006-5c00ff6db32f-4951468b-1dfd-80af-8006-5962ae6427f2" class="strokes"><g class="stroke-shape"><defs><linearGradient id="stroke-color-gradient-render-16-0" x1="0.5" y1="0" x2="0.5" y2="1" gradientTransform="matrix(0.809358, 0.587316, -0.069654, 0.094221, 0.130412, 0.158818)"><stop offset="0" stop-color="#151035" stop-opacity="1"/><stop offset="1" stop-color="#151035" stop-opacity="1"/></linearGradient></defs><path d="M168.109375,56.056640625L153.0078125,45.09814453125" style="fill: none; stroke-width: 2; stroke: url(&quot;#stroke-color-gradient-render-16-0&quot;);"/></g></g></g><g id="shape-4951468b-1dfd-80af-8006-5962ae6427f3"><g class="fills" id="fills-4951468b-1dfd-80af-8006-5962ae6427f3"><path d="M132.10546875,89.04541015625L160.548828125,50.56982421875" fill="none" stroke-miterlimit="10" style="fill: none;"/></g><g fill="none" stroke-miterlimit="10" id="strokes-2d5285c9-d0ae-801e-8006-5c00ff6e670d-4951468b-1dfd-80af-8006-5962ae6427f3" class="strokes"><g class="stroke-shape"><defs><linearGradient id="stroke-color-gradient-render-17-0" x1="0.5" y1="0" x2="0.5" y2="1" gradientTransform="matrix(0.097423, 0.070696, -0.594460, 0.804126, 0.748097, 0.062278)"><stop offset="0" stop-color="#151035" stop-opacity="1"/><stop offset="1" stop-color="#151035" stop-opacity="1"/></linearGradient></defs><path d="M132.10546875,89.04541015625L160.548828125,50.56982421875" style="fill: none; stroke-width: 2; stroke: url(&quot;#stroke-color-gradient-render-17-0&quot;);"/></g></g></g></g></g></g></g></g></g></g><g id="shape-4951468b-1dfd-80af-8006-5962ae6427d6" rx="0" ry="0"><g id="shape-4951468b-1dfd-80af-8006-5962ae6427f4"><g class="fills" id="fills-4951468b-1dfd-80af-8006-5962ae6427f4"><path d="M213.69140625,158.86181640625C213.69140625,158.86181640625,213.99609375,153.5947265625,211.66796875,151.12353515625C209.341796875,148.65185546875,204.3828125,148.9755859375,204.3828125,148.9755859375C204.3828125,148.9755859375,209.341796875,149.298828125,211.66796875,146.8271484375C213.99609375,144.35546875,213.69140625,139.0888671875,213.69140625,139.0888671875C213.69140625,139.0888671875,213.38671875,144.35546875,215.71484375,146.8271484375C218.041015625,149.298828125,223,148.9755859375,223,148.9755859375C223,148.9755859375,218.041015625,148.65185546875,215.71484375,151.12353515625C213.38671875,153.5947265625,213.69140625,158.86181640625,213.69140625,158.86181640625Z" stroke-miterlimit="10" style="fill-rule: nonzero; clip-rule: evenodd; stroke-linejoin: round; fill: rgb(46, 52, 52); fill-opacity: 1;"/></g><g stroke-miterlimit="10" id="strokes-2d5285c9-d0ae-801e-8006-5c00ff6f4aa2-4951468b-1dfd-80af-8006-5962ae6427f4" class="strokes" style="fill-rule: nonzero; clip-rule: evenodd; stroke-linejoin: round;"><g class="inner-stroke-shape"><defs><clipPath id="inner-stroke-render-19-4951468b-1dfd-80af-8006-5962ae6427f4-0"><use href="#stroke-shape-render-19-4951468b-1dfd-80af-8006-5962ae6427f4-0"/></clipPath><path d="M213.69140625,158.86181640625C213.69140625,158.86181640625,213.99609375,153.5947265625,211.66796875,151.12353515625C209.341796875,148.65185546875,204.3828125,148.9755859375,204.3828125,148.9755859375C204.3828125,148.9755859375,209.341796875,149.298828125,211.66796875,146.8271484375C213.99609375,144.35546875,213.69140625,139.0888671875,213.69140625,139.0888671875C213.69140625,139.0888671875,213.38671875,144.35546875,215.71484375,146.8271484375C218.041015625,149.298828125,223,148.9755859375,223,148.9755859375C223,148.9755859375,218.041015625,148.65185546875,215.71484375,151.12353515625C213.38671875,153.5947265625,213.69140625,158.86181640625,213.69140625,158.86181640625Z" id="stroke-shape-render-19-4951468b-1dfd-80af-8006-5962ae6427f4-0" style="fill: none; stroke-width: 1.10373; stroke: rgb(46, 52, 52); stroke-opacity: 1;"/></defs><use href="#stroke-shape-render-19-4951468b-1dfd-80af-8006-5962ae6427f4-0" clip-path="url('#inner-stroke-render-19-4951468b-1dfd-80af-8006-5962ae6427f4-0')"/></g></g></g><g id="shape-4951468b-1dfd-80af-8006-5962ae6427f5"><g class="fills" id="fills-4951468b-1dfd-80af-8006-5962ae6427f5"><path d="M217.62109375,135.38134765625C217.62109375,135.38134765625,217.796875,131.541015625,216.453125,129.73876953125C215.109375,127.9365234375,212.2421875,128.1728515625,212.2421875,128.1728515625C212.2421875,128.1728515625,215.109375,128.408203125,216.453125,126.6064453125C217.796875,124.8037109375,217.62109375,120.9638671875,217.62109375,120.9638671875C217.62109375,120.9638671875,217.4453125,124.8037109375,218.7890625,126.6064453125C220.134765625,128.408203125,223,128.1728515625,223,128.1728515625C223,128.1728515625,220.134765625,127.9365234375,218.7890625,129.73876953125C217.4453125,131.541015625,217.62109375,135.38134765625,217.62109375,135.38134765625Z" stroke-miterlimit="10" style="fill-rule: nonzero; clip-rule: evenodd; stroke-linejoin: round; fill: rgb(46, 52, 52); fill-opacity: 1;"/></g></g><g id="shape-4951468b-1dfd-80af-8006-5962ae6427f6"><g class="fills" id="fills-4951468b-1dfd-80af-8006-5962ae6427f6"><path d="M206.5546875,144.85595703125C206.5546875,144.85595703125,206.828125,138.9853515625,204.734375,136.23095703125C202.640625,133.4755859375,198.17578125,133.8369140625,198.17578125,133.8369140625C198.17578125,133.8369140625,202.640625,134.197265625,204.734375,131.4423828125C206.828125,128.6875,206.5546875,122.8173828125,206.5546875,122.8173828125C206.5546875,122.8173828125,206.28125,128.6875,208.375,131.4423828125C210.46875,134.197265625,214.93359375,133.8369140625,214.93359375,133.8369140625C214.93359375,133.8369140625,210.46875,133.4755859375,208.375,136.23095703125C206.28125,138.9853515625,206.5546875,144.85595703125,206.5546875,144.85595703125Z" stroke-miterlimit="10" style="fill-rule: nonzero; clip-rule: evenodd; stroke-linejoin: round; fill: rgb(46, 52, 52); fill-opacity: 1;"/></g></g></g><g id="shape-4951468b-1dfd-80af-8006-5962ae6427d7" rx="0" ry="0"><g id="shape-4951468b-1dfd-80af-8006-5962ae6427f7"><g class="fills" id="fills-4951468b-1dfd-80af-8006-5962ae6427f7"><path d="M38.302734375,68.9541015625C38.302734375,68.9541015625,38.607421875,63.6875,36.28125,61.21630859375C33.953125,58.744140625,28.994140625,59.068359375,28.994140625,59.068359375C28.994140625,59.068359375,33.953125,59.3916015625,36.28125,56.919921875C38.607421875,54.4482421875,38.302734375,49.181640625,38.302734375,49.181640625C38.302734375,49.181640625,37.998046875,54.4482421875,40.32421875,56.919921875C42.65234375,59.3916015625,47.611328125,59.068359375,47.611328125,59.068359375C47.611328125,59.068359375,42.65234375,58.744140625,40.32421875,61.21630859375C37.998046875,63.6875,38.302734375,68.9541015625,38.302734375,68.9541015625Z" stroke-miterlimit="10" style="fill-rule: nonzero; clip-rule: evenodd; stroke-linejoin: round; fill: rgb(46, 52, 52); fill-opacity: 1;"/></g><g stroke-miterlimit="10" id="strokes-2d5285c9-d0ae-801e-8006-5c00ff70d5c1-4951468b-1dfd-80af-8006-5962ae6427f7" class="strokes" style="fill-rule: nonzero; clip-rule: evenodd; stroke-linejoin: round;"><g class="inner-stroke-shape"><defs><clipPath id="inner-stroke-render-23-4951468b-1dfd-80af-8006-5962ae6427f7-0"><use href="#stroke-shape-render-23-4951468b-1dfd-80af-8006-5962ae6427f7-0"/></clipPath><path d="M38.302734375,68.9541015625C38.302734375,68.9541015625,38.607421875,63.6875,36.28125,61.21630859375C33.953125,58.744140625,28.994140625,59.068359375,28.994140625,59.068359375C28.994140625,59.068359375,33.953125,59.3916015625,36.28125,56.919921875C38.607421875,54.4482421875,38.302734375,49.181640625,38.302734375,49.181640625C38.302734375,49.181640625,37.998046875,54.4482421875,40.32421875,56.919921875C42.65234375,59.3916015625,47.611328125,59.068359375,47.611328125,59.068359375C47.611328125,59.068359375,42.65234375,58.744140625,40.32421875,61.21630859375C37.998046875,63.6875,38.302734375,68.9541015625,38.302734375,68.9541015625Z" id="stroke-shape-render-23-4951468b-1dfd-80af-8006-5962ae6427f7-0" style="fill: none; stroke-width: 1.10373; stroke: rgb(46, 52, 52); stroke-opacity: 1;"/></defs><use href="#stroke-shape-render-23-4951468b-1dfd-80af-8006-5962ae6427f7-0" clip-path="url('#inner-stroke-render-23-4951468b-1dfd-80af-8006-5962ae6427f7-0')"/></g></g></g><g id="shape-4951468b-1dfd-80af-8006-5962ae6427f8"><g class="fills" id="fills-4951468b-1dfd-80af-8006-5962ae6427f8"><path d="M42.234375,45.47412109375C42.234375,45.47412109375,42.41015625,41.6337890625,41.064453125,39.83154296875C39.71875,38.029296875,36.85546875,38.265625,36.85546875,38.265625C36.85546875,38.265625,39.71875,38.5009765625,41.064453125,36.69873046875C42.41015625,34.896484375,42.234375,31.05615234375,42.234375,31.05615234375C42.234375,31.05615234375,42.056640625,34.896484375,43.40234375,36.69873046875C44.74609375,38.5009765625,47.611328125,38.265625,47.611328125,38.265625C47.611328125,38.265625,44.74609375,38.029296875,43.40234375,39.83154296875C42.056640625,41.6337890625,42.234375,45.47412109375,42.234375,45.47412109375Z" stroke-miterlimit="10" style="fill-rule: nonzero; clip-rule: evenodd; stroke-linejoin: round; fill: rgb(46, 52, 52); fill-opacity: 1;"/></g></g><g id="shape-4951468b-1dfd-80af-8006-5962ae6427f9"><g class="fills" id="fills-4951468b-1dfd-80af-8006-5962ae6427f9"><path d="M31.166015625,54.9482421875C31.166015625,54.9482421875,31.44140625,49.078125,29.345703125,46.3232421875C27.25,43.568359375,22.7890625,43.92919921875,22.7890625,43.92919921875C22.7890625,43.92919921875,27.25,44.2900390625,29.345703125,41.53515625C31.44140625,38.7802734375,31.166015625,32.91015625,31.166015625,32.91015625C31.166015625,32.91015625,30.890625,38.7802734375,32.986328125,41.53515625C35.08203125,44.2900390625,39.54296875,43.92919921875,39.54296875,43.92919921875C39.54296875,43.92919921875,35.08203125,43.568359375,32.986328125,46.3232421875C30.890625,49.078125,31.166015625,54.9482421875,31.166015625,54.9482421875Z" stroke-miterlimit="10" style="fill-rule: nonzero; clip-rule: evenodd; stroke-linejoin: round; fill: rgb(46, 52, 52); fill-opacity: 1;"/></g></g></g><g id="shape-4951468b-1dfd-80af-8006-5962ae6427d8"><g class="fills" id="fills-4951468b-1dfd-80af-8006-5962ae6427d8"><path d="M43.94921875,178.234375L61.48046875,72.63134765625C61.68359375,71.42578125,62.7421875,70.55078125,63.974609375,70.5673828125L167.375,73.5341796875C168.072265625,73.54248046875,168.6171875,74.13916015625,168.55078125,74.82861328125L158.55078125,183.36669921875L43.94921875,178.234375L43.94921875,178.234375" style="fill: rgb(255, 154, 232); fill-opacity: 1;"/></g></g><g id="shape-4951468b-1dfd-80af-8006-5962ae6427d9"><g class="fills" id="fills-4951468b-1dfd-80af-8006-5962ae6427d9"><path d="M43.54296875,177.8310546875L47.611328125,155.63623046875C47.814453125,154.4306640625,51.26171875,154.81396484375,52.494140625,154.830078125L58.19140625,158.0556640625L67.14453125,166.92529296875L69.1796875,155.63623046875L74.0625,151.20166015625L80.166015625,150.39501953125L87.083984375,153.21728515625L96.03515625,160.474609375L105.802734375,170.95703125L117.197265625,181.8427734375L64.33984375,179.3388671875C65.03515625,179.3466796875,59.208984375,179.0205078125,57.78515625,179.0205078125L45.576171875,178.2138671875L43.54296875,177.8310546875L43.54296875,177.8310546875" style="fill: rgb(46, 52, 52); fill-opacity: 1;"/></g></g><g id="shape-4951468b-1dfd-80af-8006-5962ae6427da"><g class="fills" id="fills-4951468b-1dfd-80af-8006-5962ae6427da"><path d="M117.62109375,179.6337890625L132.32421875,74.107421875C132.4453125,73.220703125,133.22265625,72.5634765625,134.126953125,72.58349609375L166.93359375,73.07080078125C167.970703125,73.0908203125,168.767578125,73.97802734375,168.673828125,75.001953125L158.7578125,181.951171875C158.671875,182.87890625,157.87109375,183.58447265625,156.9296875,183.55615234375L119.33984375,181.6416015625C118.27734375,181.61328125,117.474609375,180.677734375,117.62109375,179.6337890625L117.62109375,179.6337890625M157.9140625,183.2861328125C158.1953125,183.1044921875,158.27734375,182.7294921875,158.09375,182.447265625L145.12890625,162.33349609375C144.947265625,162.0556640625,144.568359375,161.974609375,144.283203125,162.15625C144.00390625,162.33740234375,143.921875,162.71240234375,144.10546875,162.99462890625L157.068359375,183.1083984375C157.1875,183.2861328125,157.3828125,183.3828125,157.58203125,183.3828125C157.69921875,183.3828125,157.8125,183.3505859375,157.9140625,183.2861328125L157.9140625,183.2861328125M121.3125,179.3837890625L142.4453125,160.70458984375C142.55859375,160.60400390625,142.626953125,160.470703125,142.64453125,160.32177734375L152.22265625,78.08251953125C152.259765625,77.751953125,152.01953125,77.44970703125,151.685546875,77.4130859375C151.3515625,77.373046875,151.046875,77.615234375,151.01171875,77.9453125L141.4609375,159.955078125L120.501953125,178.48046875C120.25,178.7021484375,120.23046875,179.08544921875,120.453125,179.33544921875C120.57421875,179.46826171875,120.7421875,179.537109375,120.91015625,179.537109375C121.05078125,179.537109375,121.1953125,179.484375,121.3125,179.3837890625L121.3125,179.3837890625" style="fill: rgb(255, 30, 189); fill-opacity: 1;"/></g></g><g id="shape-4951468b-1dfd-80af-8006-5962ae6427db"><g class="fills" id="fills-4951468b-1dfd-80af-8006-5962ae6427db"><path d="M75.28515625,86.69384765625C75.28515625,86.69384765625,74.54296875,51.16552734375,94.8203125,49.60205078125C121.18359375,47.5693359375,113.130859375,88.306640625,113.130859375,88.306640625" class="st2"/></g><g class="strokes" id="strokes-2d5285c9-d0ae-801e-8006-5c00ff73eb94-4951468b-1dfd-80af-8006-5962ae6427db"><g class="stroke-shape"><path d="M75.28515625,86.69384765625C75.28515625,86.69384765625,74.54296875,51.16552734375,94.8203125,49.60205078125C121.18359375,47.5693359375,113.130859375,88.306640625,113.130859375,88.306640625" style="fill: none; stroke-width: 3; stroke: rgb(255, 30, 189); stroke-opacity: 1;"/></g></g></g><g id="shape-4951468b-1dfd-80af-8006-5962ae6427dc" rx="0" ry="0"><g id="shape-4951468b-1dfd-80af-8006-5962ae6427fa"><g class="fills" id="fills-4951468b-1dfd-80af-8006-5962ae6427fa"><path d="M101.05078125,222.29931640625C101.05078125,222.29931640625,53.1015625,226.2587890625,31.34765625,199C9.591796875,171.74169921875,20.90625,159.3681640625,24.14453125,158.90869140625C27.3828125,158.44482421875,31.375,156.65478515625,41.7265625,171.9228515625C52.080078125,187.19140625,68.27734375,193.89599609375,65.244140625,198.5810546875C62.212890625,203.265625,25.275390625,168.4921875,46.17578125,155.759765625C54.3671875,150.7685546875,63.43359375,161.59765625,76.3046875,177.11181640625C81.8671875,183.81640625,87.08203125,187.68310546875,89.875,191.662109375C94.962890625,198.8994140625,90.35546875,206.35791015625,81.10546875,193.1982421875C73.859375,182.8935546875,56.15625,153.4296875,78.66796875,150.36962890625C95.69921875,148.05517578125,121.13671875,201.814453125,146.1796875,192.287109375C171.22265625,182.75634765625,163.73828125,157.4169921875,163.33984375,154.29248046875C162.47265625,147.45849609375,163.203125,139.625,170.34765625,133.04931640625C176.97265625,126.953125,203.47265625,124.4052734375,193.84765625,195.43603515625"/></g><g id="strokes-2d5285c9-d0ae-801e-8006-5c00ff7474c8-4951468b-1dfd-80af-8006-5962ae6427fa" class="strokes"><g class="stroke-shape"><path d="M101.05078125,222.29931640625C101.05078125,222.29931640625,53.1015625,226.2587890625,31.34765625,199C9.591796875,171.74169921875,20.90625,159.3681640625,24.14453125,158.90869140625C27.3828125,158.44482421875,31.375,156.65478515625,41.7265625,171.9228515625C52.080078125,187.19140625,68.27734375,193.89599609375,65.244140625,198.5810546875C62.212890625,203.265625,25.275390625,168.4921875,46.17578125,155.759765625C54.3671875,150.7685546875,63.43359375,161.59765625,76.3046875,177.11181640625C81.8671875,183.81640625,87.08203125,187.68310546875,89.875,191.662109375C94.962890625,198.8994140625,90.35546875,206.35791015625,81.10546875,193.1982421875C73.859375,182.8935546875,56.15625,153.4296875,78.66796875,150.36962890625C95.69921875,148.05517578125,121.13671875,201.814453125,146.1796875,192.287109375C171.22265625,182.75634765625,163.73828125,157.4169921875,163.33984375,154.29248046875C162.47265625,147.45849609375,163.203125,139.625,170.34765625,133.04931640625C176.97265625,126.953125,203.47265625,124.4052734375,193.84765625,195.43603515625" style="fill: none; stroke-width: 1.5; stroke: rgb(46, 52, 52); stroke-opacity: 1;"/></g></g></g><g id="shape-4951468b-1dfd-80af-8006-5962ae6427fb"><g class="fills" id="fills-4951468b-1dfd-80af-8006-5962ae6427fb"><ellipse cx="180.7531586678797" cy="149.15777361786422" rx="6.9161352830615215" ry="14.72060011737085" transform="matrix(0.984549, -0.175111, 0.178291, 0.983978, -23.800554, 34.041620)" class="st4" style="fill: rgb(23, 177, 175); fill-opacity: 1;"/></g></g><g id="shape-4951468b-1dfd-80af-8006-5962ae6427fc"><g class="fills" id="fills-4951468b-1dfd-80af-8006-5962ae6427fc"><ellipse cx="75.37259119343071" cy="167.24535322022712" rx="6.598041220669984" ry="14.730223553258838" transform="matrix(0.946532, -0.322610, 0.328014, 0.944673, -50.828728, 33.569151)" class="st4" style="fill: rgb(20, 206, 202); fill-opacity: 1;"/></g></g><g id="shape-4951468b-1dfd-80af-8006-5962ae6427fd"><g class="fills" id="fills-4951468b-1dfd-80af-8006-5962ae6427fd"><ellipse cx="47.50252812043618" cy="171.55271004799988" rx="6.326508145000844" ry="14.727551171174582" transform="matrix(0.955313, -0.295596, 0.300641, 0.953737, -49.453087, 21.978032)" class="st4" style="fill: rgb(20, 206, 202); fill-opacity: 1;"/></g></g><g id="shape-4951468b-1dfd-80af-8006-5962ae6427fe"><g class="fills" id="fills-4951468b-1dfd-80af-8006-5962ae6427fe"><ellipse cx="26.748878485399473" cy="175.987603526567" rx="6.326508145000844" ry="14.727551171175037" transform="matrix(0.955313, -0.295596, 0.300641, 0.953737, -51.713815, 16.048514)" class="st4" style="fill: rgb(163, 120, 243); fill-opacity: 1;"/></g></g><g id="shape-4951468b-1dfd-80af-8006-5962ae6427ff" filter="url(#filter-render-36)" rx="0" ry="0"><defs><filter id="filter-render-36" x="-0.40626566231442374" y="-0.5081823132403414" width="1.9716497698019448" height="2.2153998564989403" filterUnits="objectBoundingBox" color-interpolation-filters="sRGB"><feFlood flood-opacity="0" result="BackgroundImageFix"/><feColorMatrix in="SourceAlpha" type="matrix" values="0 0 0 0 0 0 0 0 0 0 0 0 0 0 0 0 0 0 127 0"/><feOffset dx="3.2638422739328505" dy="3.2638422739328505"/><feGaussianBlur stdDeviation="1.6319211369664253"/><feColorMatrix type="matrix" values="0 0 0 0 1 0 0 0 0 0.11764705882352941 0 0 0 0 0.7411764705882353 0 0 0 0.11 0"/><feBlend mode="normal" in2="BackgroundImageFix" result="filter_4a9c2e08-bd3e-808d-8005-c29bd62b6771"/><feBlend mode="normal" in="SourceGraphic" in2="filter_4a9c2e08-bd3e-808d-8005-c29bd62b6771" result="shape"/></filter><filter id="filter-shadow-render-36" x="-0.40626566231442374" y="-0.5081823132403414" width="1.9716497698019448" height="2.2153998564989403" filterUnits="objectBoundingBox" color-interpolation-filters="sRGB"><feFlood flood-opacity="0" result="BackgroundImageFix"/><feColorMatrix in="SourceAlpha" type="matrix" values="0 0 0 0 0 0 0 0 0 0 0 0 0 0 0 0 0 0 127 0"/><feOffset dx="3.2638422739328505" dy="3.2638422739328505"/><feGaussianBlur stdDeviation="1.6319211369664253"/><feColorMatrix type="matrix" values="0 0 0 0 1 0 0 0 0 0.11764705882352941 0 0 0 0 0.7411764705882353 0 0 0 0.11 0"/><feBlend mode="normal" in2="BackgroundImageFix" result="filter_4a9c2e08-bd3e-808d-8005-c29bd62b6771"/><feBlend mode="normal" in="SourceGraphic" in2="filter_4a9c2e08-bd3e-808d-8005-c29bd62b6771" result="shape"/></filter></defs><g id="shape-4951468b-1dfd-80af-8006-5962ae642800" rx="0" ry="0"><g clip-path="url(#render-37-4951468b-1dfd-80af-8006-5962ae642801-clip)"><g mask="url(#render-37-4951468b-1dfd-80af-8006-5962ae642801-mask)"><defs><filter id="render-37-4951468b-1dfd-80af-8006-5962ae642801-filter"><feFlood flood-color="white" result="FloodResult"/><feComposite in="FloodResult" in2="SourceGraphic" operator="in" result="comp"/></filter><clipPath id="render-37-4951468b-1dfd-80af-8006-5962ae642801-clip" class="mask-clip-path"><polyline points="46.59397810218434,100.85377875183713 106.1577956609799,98.38596403463453 108.13006721584316,145.11309244835502 48.56624965705487,147.58090716555853"/></clipPath><mask width="61.53608911365882" maskUnits="userSpaceOnUse" height="49.194943130924" class="mask-shape" x="46.59397810218434" id="render-37-4951468b-1dfd-80af-8006-5962ae642801-mask" data-old-y="98.38596403463453" data-old-width="61.53608911365882" data-old-x="46.59397810218434" y="98.38596403463453" data-old-height="49.194943130924"><g filter="url(#render-37-4951468b-1dfd-80af-8006-5962ae642801-filter)"><g id="shape-4951468b-1dfd-80af-8006-5962ae642801"><g class="fills" id="fills-4951468b-1dfd-80af-8006-5962ae642801"><path d="M48.80859375,118.16064453125L81.55078125,99.70458984375C82.078125,99.40869140625,82.6875,99.294921875,83.2890625,99.37890625L104.1015625,102.3876953125C105.6015625,102.603515625,106.63671875,103.998046875,106.404296875,105.486328125L103.279296875,125.470703125C103.1484375,126.31396484375,102.625,127.044921875,101.8671875,127.4462890625L65.642578125,146.60693359375C64.357421875,147.2841796875,62.76171875,146.8427734375,62.015625,145.60107421875L47.810546875,121.89990234375C47.029296875,120.5986328125,47.4765625,118.90869140625,48.80859375,118.16064453125L48.80859375,118.16064453125" class="st6" style="fill: rgb(105, 17, 212); fill-opacity: 1;"/></g></g></g></mask></defs><g id="shape-4951468b-1dfd-80af-8006-5962ae642802"><defs><linearGradient id="fill-color-gradient-render-39-0" x1="0.5" y1="0" x2="0.5" y2="1" gradientTransform=""><stop offset="0" stop-color="#771de5" stop-opacity="1"/><stop offset="1" stop-color="#5f19b4" stop-opacity="1"/></linearGradient><pattern patternUnits="userSpaceOnUse" x="47.50056629518076" y="99.6142473226846" width="59.88739246463956" height="46.85096178155072" patternTransform="matrix(0.999143, -0.041396, 0.042171, 0.999110, -5.122291, 3.315331)" id="fill-0-render-39"><g><rect width="59.88739246463956" height="46.85096178155072" style="fill: url(&quot;#fill-color-gradient-render-39-0&quot;);"/></g></pattern></defs><g class="fills" id="fills-4951468b-1dfd-80af-8006-5962ae642802"><path d="M48.76171875,118.2119140625L81.654296875,99.71923828125C82.18359375,99.4228515625,82.796875,99.30859375,83.400390625,99.392578125L104.30859375,102.404296875C105.81640625,102.6201171875,106.85546875,104.017578125,106.62109375,105.50830078125L103.48046875,125.5283203125C103.34765625,126.373046875,102.8203125,127.10498046875,102.05859375,127.5078125L65.66796875,146.7060546875C64.376953125,147.38525390625,62.7734375,146.943359375,62.025390625,145.69921875L47.7578125,121.95751953125C46.97265625,120.654296875,47.423828125,118.9609375,48.76171875,118.2119140625L48.76171875,118.2119140625" fill="url(#fill-0-render-39)" class="st6"/></g></g><g id="shape-4951468b-1dfd-80af-8006-5962ae642803"><g class="fills" id="fills-4951468b-1dfd-80af-8006-5962ae642803"><path d="M83.34765625,135.85400390625C83.34765625,135.85400390625,82.390625,132.376953125,80.595703125,131.17919921875C78.80078125,129.9814453125,76.171875,131.0625,76.171875,131.0625C76.171875,131.0625,78.939453125,130.40185546875,79.6796875,128.38671875C80.41796875,126.37158203125,79.12890625,123.00146484375,79.12890625,123.00146484375C79.12890625,123.00146484375,80.0859375,126.478515625,81.880859375,127.67626953125C83.673828125,128.8740234375,86.3046875,127.79296875,86.3046875,127.79296875C86.3046875,127.79296875,83.53515625,128.45361328125,82.796875,130.46875C82.05859375,132.48388671875,83.34765625,135.85400390625,83.34765625,135.85400390625Z" stroke-miterlimit="10" style="fill-rule: nonzero; clip-rule: evenodd; stroke-linejoin: round; fill: rgb(96, 17, 191); fill-opacity: 1;"/></g></g><g id="shape-4951468b-1dfd-80af-8006-5962ae642804"><g class="fills" id="fills-4951468b-1dfd-80af-8006-5962ae642804"><path d="M85.63671875,110.93359375C85.63671875,110.93359375,85.02734375,108.6455078125,83.71484375,107.9033203125C82.400390625,107.1611328125,80.3828125,107.96435546875,80.3828125,107.96435546875C80.3828125,107.96435546875,82.4921875,107.4375,83.11328125,106.07080078125C83.734375,104.7041015625,82.869140625,102.49853515625,82.869140625,102.49853515625C82.869140625,102.49853515625,83.48046875,104.7861328125,84.79296875,105.5283203125C86.10546875,106.2705078125,88.123046875,105.4677734375,88.123046875,105.4677734375C88.123046875,105.4677734375,86.015625,105.99462890625,85.39453125,107.361328125C84.7734375,108.7275390625,85.63671875,110.93359375,85.63671875,110.93359375Z" stroke-miterlimit="10" style="fill-rule: nonzero; clip-rule: evenodd; stroke-linejoin: round; fill: rgb(96, 17, 191); fill-opacity: 1;"/></g></g></g></g></g></g></g><g id="shape-4951468b-1dfd-80af-8006-5962ae6427dd"><g class="fills" id="fills-4951468b-1dfd-80af-8006-5962ae6427dd"><path d="M106.41015625,71.5771484375C106.41015625,71.5771484375,116.033203125,58.2568359375,124.8203125,59.3408203125C142.3828125,61.51025390625,145.1171875,84.708984375,131.041015625,87.15625C108.712890625,91.0341796875,103.76953125,105.22216796875,103.76953125,105.22216796875"/></g><g id="strokes-2d5285c9-d0ae-801e-8006-5c00ff7a0577-4951468b-1dfd-80af-8006-5962ae6427dd" class="strokes"><g class="stroke-shape"><path d="M106.41015625,71.5771484375C106.41015625,71.5771484375,116.033203125,58.2568359375,124.8203125,59.3408203125C142.3828125,61.51025390625,145.1171875,84.708984375,131.041015625,87.15625C108.712890625,91.0341796875,103.76953125,105.22216796875,103.76953125,105.22216796875" style="fill: none; stroke-width: 2; stroke: rgb(46, 52, 52); stroke-opacity: 1; stroke-dasharray: 0, 7; stroke-linecap: round;"/></g></g></g><g id="shape-4951468b-1dfd-80af-8006-5962ae6427de"><g class="fills" id="fills-4951468b-1dfd-80af-8006-5962ae6427de"><path d="M55.34375,49.60205078125L141.20703125,45.5703125"/></g><g id="strokes-2d5285c9-d0ae-801e-8006-5c00ff7a9be4-4951468b-1dfd-80af-8006-5962ae6427de" class="strokes"><g class="stroke-shape"><path d="M55.34375,49.60205078125L141.20703125,45.5703125" style="fill: none; stroke-width: 1.5; stroke: rgb(46, 52, 52); stroke-opacity: 1;"/></g></g></g><g id="shape-4951468b-1dfd-80af-8006-5962ae6427df"><g class="fills" id="fills-4951468b-1dfd-80af-8006-5962ae6427df"><ellipse cx="96.03649635036345" cy="48.795791501555414" rx="5.6970802919749985" ry="5.6444098818142265" transform="matrix(1.000000, 0.000000, 0.000000, 1.000000, 0.000000, 0.000000)" style="fill: rgb(255, 30, 189); fill-opacity: 1;"/></g><g id="strokes-2d5285c9-d0ae-801e-8006-5c00ff7ad390-4951468b-1dfd-80af-8006-5962ae6427df" class="strokes"><g class="outer-stroke-shape"><defs><mask id="outer-stroke-render-44-4951468b-1dfd-80af-8006-5962ae6427df-0" x="87.51098893364227" y="40.322954494994995" width="17.051014833442377" height="16.945674013120833" maskUnits="userSpaceOnUse"><use href="#stroke-shape-render-44-4951468b-1dfd-80af-8006-5962ae6427df-0" style="fill: none; stroke: white; stroke-width: 4;"/><use href="#stroke-shape-render-44-4951468b-1dfd-80af-8006-5962ae6427df-0" style="fill: black; stroke: none;"/></mask><ellipse cx="96.03649635036345" cy="48.795791501555414" rx="5.6970802919749985" ry="5.6444098818142265" transform="matrix(1.000000, 0.000000, 0.000000, 1.000000, 0.000000, 0.000000)" id="stroke-shape-render-44-4951468b-1dfd-80af-8006-5962ae6427df-0"/></defs><use href="#stroke-shape-render-44-4951468b-1dfd-80af-8006-5962ae6427df-0" mask="url(#outer-stroke-render-44-4951468b-1dfd-80af-8006-5962ae6427df-0)" style="fill: none; stroke-width: 4; stroke: rgb(46, 52, 52); stroke-opacity: 1;"/><use href="#stroke-shape-render-44-4951468b-1dfd-80af-8006-5962ae6427df-0" style="fill: none; stroke-width: 2; stroke: none; stroke-opacity: 1;"/></g></g></g><g id="shape-4951468b-1dfd-80af-8006-5962ae6427e0"><g class="fills" id="fills-4951468b-1dfd-80af-8006-5962ae6427e0"><ellipse cx="53.91879562043505" cy="49.803721837593" rx="2.6450729927000793" ry="2.6206188736987315" transform="matrix(1.000000, 0.000000, 0.000000, 1.000000, 0.000000, 0.000000)" style="fill: rgb(46, 52, 52); fill-opacity: 1;"/></g></g><g id="shape-4951468b-1dfd-80af-8006-5962ae6427e1"><g class="fills" id="fills-4951468b-1dfd-80af-8006-5962ae6427e1"><ellipse cx="140.59580291970633" cy="45.77200049344037" rx="2.6450729927018983" ry="2.6206188736991862" transform="matrix(1.000000, 0.000000, 0.000000, 1.000000, 0.000000, 0.000000)" style="fill: rgb(46, 52, 52); fill-opacity: 1;"/></g></g><g id="shape-4951468b-1dfd-80af-8006-5962ae6427e2"><g class="frame-container-wrapper"><g class="frame-container-blur"><g class="frame-container-shadows"><g fill="none"><g class="fills" id="fills-4951468b-1dfd-80af-8006-5962ae6427e2"><rect rx="0" ry="0" x="58.73260998447586" y="116.27878706577758" width="35.39494203358481" height="11.291484612464956" transform="matrix(1.000000, 0.000000, 0.000000, 1.000000, 0.000000, 0.000000)" class="frame-background"/></g><g class="frame-children"><g id="shape-4951468b-1dfd-80af-8006-5962ae642805"><g class="frame-container-wrapper"><g class="frame-container-blur"><g class="frame-container-shadows"><g fill="none"><g class="fills" id="fills-4951468b-1dfd-80af-8006-5962ae642805"><rect rx="0" ry="0" x="58.73521416557924" y="116.28353909153702" width="71.01602959309093" height="22.854054054056178" transform="matrix(1.000000, 0.000000, 0.000000, 1.000000, 0.000000, 0.000000)" class="frame-background"/></g><g class="frame-children"><g id="shape-4951468b-1dfd-80af-8006-5962ae642806" style="opacity: 1;"><g class="fills" id="fills-4951468b-1dfd-80af-8006-5962ae642806"><path d="M58.1875,123.9150390625L58,126.052734375L58.48828125,126.93017578125L57.828125,127.8955078125L57.81640625,127.89599609375L58.017578125,128.2568359375L61.005859375,133.6220703125L65.5625,133.404296875L65.83984375,133.390625L65.998046875,133.16162109375L68.5859375,129.41015625L65.39453125,123.68408203125L65.390625,123.69091796875L64.21875,123.74365234375L63.73046875,122.8671875L63.671875,122.837890625L61.814453125,121.8994140625L61.625,124.037109375L61.626953125,124.03857421875L60.232421875,123.33447265625L60.09765625,124.8779296875L60.046875,124.85302734375L58.1875,123.9150390625L58.1875,123.9150390625M58.875,124.712890625L59.6171875,125.08740234375L58.431640625,125.7470703125L58.50390625,124.9296875L58.875,124.712890625L58.875,124.712890625M62.50390625,122.69775390625L63.244140625,123.072265625L62.05859375,123.7314453125L62.12890625,122.91455078125L62.50390625,122.69775390625L62.50390625,122.69775390625M60.921875,124.1328125L61.662109375,124.5068359375L60.4765625,125.16650390625L60.546875,124.349609375L60.921875,124.1328125L60.921875,124.1328125M58.48828125,126.1123046875L59.05078125,125.79931640625L60.15625,127.7841796875L59.4375,127.818359375L58.48828125,126.1123046875L58.48828125,126.1123046875M59.33984375,125.638671875L59.8984375,125.3271484375L61.23828125,127.732421875L60.5234375,127.7666015625L59.33984375,125.638671875L59.33984375,125.638671875M62.11328125,124.0966796875L62.67578125,123.7841796875L63.859375,125.90966796875L63.453125,126.5009765625L62.11328125,124.0966796875L62.11328125,124.0966796875M62.96484375,123.623046875L63.525390625,123.31201171875L64.4765625,125.017578125L64.0703125,125.60595703125L62.96484375,123.623046875L62.96484375,123.623046875M60.53125,125.53173828125L61.09375,125.21875L62.4609375,127.673828125L61.744140625,127.7080078125L60.53125,125.53173828125L60.53125,125.53173828125M61.3828125,125.05859375L61.943359375,124.7470703125L63.158203125,126.92822265625L62.75390625,127.5166015625L61.3828125,125.05859375L61.3828125,125.05859375M88.2578125,110.40576171875L88.87109375,111.5126953125L88.30078125,111.82275390625L88.552734375,112.27294921875L89.12109375,111.9580078125L90.44140625,114.33154296875C90.5390625,114.50439453125,90.640625,114.65771484375,90.75,114.791015625L90.75,114.7919921875L90.75,114.79296875C90.8671875,114.92626953125,90.99609375,115.02783203125,91.1328125,115.0947265625C91.2734375,115.162109375,91.42578125,115.189453125,91.58203125,115.1767578125C91.74609375,115.16943359375,91.91796875,115.1123046875,92.1015625,115.0107421875C92.1875,114.96435546875,92.2734375,114.89697265625,92.3671875,114.80859375C92.4609375,114.720703125,92.55078125,114.625,92.63671875,114.521484375L92.685546875,114.46044921875L92.30859375,114.10498046875L92.25390625,114.1796875C92.150390625,114.3212890625,92.0390625,114.4453125,91.892578125,114.52734375C91.7734375,114.59326171875,91.671875,114.626953125,91.5859375,114.63427734375C91.5,114.6337890625,91.42578125,114.615234375,91.35546875,114.5791015625C91.279296875,114.5361328125,91.20703125,114.4775390625,91.140625,114.40185546875C91.07421875,114.314453125,91.0078125,114.21240234375,90.94140625,114.09521484375L89.6015625,111.689453125L90.654296875,111.10498046875L90.404296875,110.6552734375L89.3515625,111.23974609375L88.73828125,110.13818359375L88.2578125,110.40576171875L88.2578125,110.40576171875M64.47265625,124.1962890625L65.0859375,124.1328125L64.7265625,124.6533203125L64.47265625,124.1962890625L64.47265625,124.1962890625M58.7421875,127.38232421875L58.99609375,127.83984375L58.36328125,127.8701171875L58.7421875,127.38232421875L58.7421875,127.38232421875M82.27734375,115.046875L82.27734375,115.046875L82.27734375,115.046875C82.0390625,115.17919921875,81.84375,115.36962890625,81.689453125,115.61376953125L81.6875,115.6142578125L81.6875,115.6142578125C81.56640625,115.81396484375,81.4765625,116.001953125,81.38671875,116.212890625L81.15234375,115.796875L80.6875,116.0556640625L83.845703125,121.72705078125L84.3203125,121.462890625L83.19140625,119.43603515625C83.41015625,119.4609375,83.6171875,119.4716796875,83.8046875,119.4580078125L83.806640625,119.4580078125L83.80859375,119.4580078125C84.04296875,119.435546875,84.251953125,119.3740234375,84.43359375,119.27294921875C84.65625,119.14990234375,84.841796875,118.984375,84.98828125,118.779296875L84.990234375,118.77880859375L84.990234375,118.7783203125C85.140625,118.564453125,85.2421875,118.3232421875,85.29296875,118.056640625L85.29296875,118.05712890625C85.345703125,117.7822265625,85.34375,117.48828125,85.28515625,117.177734375C85.23046875,116.865234375,85.107421875,116.544921875,84.92578125,116.2158203125C84.58984375,115.61328125,84.1953125,115.1953125,83.73828125,114.97119140625L83.73828125,114.970703125C83.275390625,114.73974609375,82.77734375,114.7685546875,82.27734375,115.046875L82.27734375,115.046875M70.77734375,121.43896484375L70.77734375,121.43896484375C70.5390625,121.57177734375,70.33984375,121.76171875,70.1875,122.005859375L70.1875,122.00634765625L70.1875,122.0068359375C70.064453125,122.2060546875,69.97265625,122.39404296875,69.88671875,122.60498046875L69.65234375,122.189453125L69.185546875,122.4482421875L72.34375,128.11962890625L72.8203125,127.85546875L71.689453125,125.828125C71.90625,125.85302734375,72.115234375,125.8642578125,72.3046875,125.8505859375L72.3046875,125.8505859375L72.306640625,125.8505859375C72.541015625,125.82763671875,72.75,125.7666015625,72.93359375,125.6650390625C73.154296875,125.5419921875,73.33984375,125.376953125,73.48828125,125.171875L73.48828125,125.1708984375L73.48828125,125.1708984375C73.638671875,124.95703125,73.740234375,124.7158203125,73.791015625,124.44921875L73.791015625,124.44921875C73.84375,124.17431640625,73.84375,123.880859375,73.78515625,123.5703125C73.7265625,123.2578125,73.60546875,122.93701171875,73.421875,122.60791015625C73.087890625,122.005859375,72.693359375,121.587890625,72.236328125,121.36328125L72.236328125,121.36328125C71.7734375,121.13232421875,71.27734375,121.1611328125,70.77734375,121.43896484375L70.77734375,121.43896484375M78.509765625,117.1416015625L78.509765625,117.1416015625C78.24609375,117.2880859375,78.046875,117.49072265625,77.9140625,117.74609375C77.806640625,117.9501953125,77.71875,118.18115234375,77.646484375,118.42919921875L77.359375,117.9052734375L76.90234375,118.1591796875L79.103515625,122.11083984375L79.578125,121.8466796875L77.98046875,118.9794921875C78.068359375,118.638671875,78.140625,118.32177734375,78.244140625,118.123046875L78.244140625,118.1220703125L78.244140625,118.12109375C78.34765625,117.91552734375,78.49609375,117.7587890625,78.701171875,117.64501953125C78.984375,117.48779296875,79.21484375,117.47412109375,79.421875,117.5849609375L79.423828125,117.58544921875L79.42578125,117.5859375C79.63671875,117.69091796875,79.859375,117.9375,80.08203125,118.3359375L81.45703125,120.80322265625L81.931640625,120.5390625L80.53125,118.0244140625C80.25,117.5185546875,79.947265625,117.1845703125,79.61328125,117.033203125C79.27734375,116.88134765625,78.90234375,116.92333984375,78.509765625,117.1416015625L78.509765625,117.1416015625M74.60546875,119.31201171875C74.390625,119.4296875,74.212890625,119.595703125,74.06640625,119.8056640625C74.06640625,119.8056640625,74.06640625,119.80615234375,74.06640625,119.80615234375C73.923828125,120.00927734375,73.82421875,120.24609375,73.76953125,120.51416015625L73.76953125,120.51416015625C73.71484375,120.77587890625,73.7109375,121.0615234375,73.76171875,121.36865234375L73.76171875,121.369140625L73.76171875,121.3701171875C73.81640625,121.67724609375,73.93359375,121.990234375,74.109375,122.30908203125C74.287109375,122.6279296875,74.4921875,122.892578125,74.724609375,123.1005859375L74.7265625,123.1015625L74.7265625,123.10205078125C74.958984375,123.30029296875,75.20703125,123.447265625,75.46484375,123.54150390625L75.46484375,123.54150390625L75.46484375,123.5419921875C75.72265625,123.63037109375,75.982421875,123.6630859375,76.24609375,123.64013671875L76.24609375,123.64013671875L76.24609375,123.6396484375C76.513671875,123.61376953125,76.76953125,123.533203125,77.009765625,123.3994140625C77.283203125,123.2470703125,77.48828125,123.080078125,77.625,122.89306640625L77.625,122.892578125C77.76171875,122.712890625,77.876953125,122.5361328125,77.974609375,122.36181640625L78.013671875,122.29296875L77.578125,121.9990234375L77.541015625,122.087890625C77.466796875,122.26171875,77.373046875,122.396484375,77.251953125,122.5439453125C77.134765625,122.68017578125,76.96875,122.8095703125,76.779296875,122.9150390625C76.58203125,123.0244140625,76.39453125,123.1025390625,76.197265625,123.115234375C75.99609375,123.12255859375,75.80078125,123.0908203125,75.611328125,123.01953125C75.421875,122.9404296875,75.244140625,122.8232421875,75.07421875,122.66552734375C75.07421875,122.66552734375,75.07421875,122.6650390625,75.07421875,122.6650390625C74.919921875,122.5205078125,74.78515625,122.3466796875,74.6640625,122.1513671875L77.28125,120.6962890625C77.23828125,120.61865234375,77.203125,120.5400390625,77.16796875,120.474609375L77.087890625,120.33203125C76.76953125,119.7607421875,76.390625,119.37890625,75.94921875,119.2001953125C75.509765625,119.0224609375,75.0546875,119.06201171875,74.60546875,119.31201171875L74.60546875,119.31201171875L74.60546875,119.31201171875M86.11328125,112.91455078125C85.888671875,113.04052734375,85.697265625,113.2080078125,85.54296875,113.416015625C85.390625,113.6240234375,85.28515625,113.861328125,85.224609375,114.125L85.224609375,114.12548828125L85.224609375,114.1259765625C85.169921875,114.388671875,85.16796875,114.6767578125,85.22265625,114.9892578125L85.22265625,114.98974609375L85.22265625,114.990234375C85.27734375,115.29736328125,85.39453125,115.61328125,85.57421875,115.93701171875C85.75390625,116.2607421875,85.9609375,116.5283203125,86.1953125,116.736328125L86.1953125,116.7373046875L86.1953125,116.73779296875C86.4296875,116.93603515625,86.671875,117.08203125,86.921875,117.173828125L86.921875,117.173828125L86.921875,117.173828125C87.1796875,117.2626953125,87.4375,117.296875,87.6953125,117.2763671875C87.953125,117.255859375,88.1953125,117.1826171875,88.421875,117.056640625C88.6484375,116.9306640625,88.83984375,116.76318359375,88.9921875,116.55517578125C89.1484375,116.3447265625,89.2578125,116.107421875,89.3125,115.845703125C89.37109375,115.5810546875,89.375,115.2978515625,89.32421875,114.998046875C89.2734375,114.6875,89.158203125,114.3701171875,88.9765625,114.0458984375C88.796875,113.7216796875,88.587890625,113.4560546875,88.3515625,113.25048828125C88.1171875,113.03857421875,87.87109375,112.88671875,87.61328125,112.7978515625C87.36328125,112.7060546875,87.10546875,112.671875,86.841796875,112.6953125C86.583984375,112.71533203125,86.33984375,112.7890625,86.11328125,112.91455078125L86.11328125,112.91455078125L86.11328125,112.91455078125M58.65625,128.375L62.65234375,128.18359375L65.279296875,132.8984375L61.28125,133.08984375L58.65625,128.375L58.65625,128.375M65.359375,124.64794921875L67.986328125,129.36328125L65.71484375,132.65625L63.08984375,127.94091796875L65.359375,124.64794921875L65.359375,124.64794921875M74.86328125,119.7578125L74.86328125,119.7578125C75.171875,119.5849609375,75.46875,119.56494140625,75.7734375,119.6923828125L75.775390625,119.69287109375L75.775390625,119.69287109375C76.056640625,119.806640625,76.328125,120.0810546875,76.58203125,120.515625L74.42578125,121.71435546875C74.34375,121.515625,74.287109375,121.3232421875,74.26171875,121.1416015625C74.23828125,120.9287109375,74.24609375,120.73388671875,74.28515625,120.55615234375C74.328125,120.375,74.3984375,120.2197265625,74.498046875,120.0869140625L74.5,120.0859375L74.5,120.0849609375C74.595703125,119.947265625,74.71484375,119.8388671875,74.86328125,119.7578125L74.86328125,119.7578125M70.978515625,121.92626953125L70.978515625,121.92626953125C71.17578125,121.81640625,71.36328125,121.765625,71.5390625,121.7685546875L71.541015625,121.7685546875L71.54296875,121.7685546875C71.71875,121.7666015625,71.884765625,121.810546875,72.046875,121.90087890625L72.046875,121.9013671875L72.046875,121.9013671875C72.20703125,121.98779296875,72.359375,122.115234375,72.505859375,122.287109375L72.505859375,122.2880859375L72.5078125,122.28857421875C72.66015625,122.458984375,72.798828125,122.6572265625,72.92578125,122.884765625C73.06640625,123.13671875,73.162109375,123.38427734375,73.21484375,123.6279296875L73.21484375,123.62841796875L73.21484375,123.62890625C73.26953125,123.86572265625,73.28515625,124.0849609375,73.26171875,124.2890625C73.236328125,124.4921875,73.171875,124.6728515625,73.0703125,124.833984375C72.96875,124.994140625,72.83203125,125.12060546875,72.662109375,125.2158203125C72.533203125,125.28759765625,72.359375,125.3388671875,72.14453125,125.36474609375C71.943359375,125.38916015625,71.66796875,125.326171875,71.37890625,125.271484375L70.20703125,123.1669921875C70.3125,122.86376953125,70.41015625,122.578125,70.53125,122.380859375L70.533203125,122.380859375L70.533203125,122.38037109375C70.662109375,122.1689453125,70.8125,122.01953125,70.978515625,121.92626953125L70.978515625,121.92626953125M82.48046875,115.5341796875L82.48046875,115.5341796875C82.677734375,115.42431640625,82.86328125,115.373046875,83.041015625,115.3759765625L83.04296875,115.3759765625L83.04296875,115.3759765625C83.21875,115.37451171875,83.38671875,115.41796875,83.546875,115.5087890625L83.546875,115.5087890625L83.546875,115.50927734375C83.70703125,115.595703125,83.859375,115.72314453125,84.0078125,115.89453125L84.0078125,115.8955078125L84.0078125,115.896484375C84.16015625,116.06640625,84.30078125,116.2646484375,84.42578125,116.4921875C84.56640625,116.744140625,84.6640625,116.9921875,84.716796875,117.2353515625L84.716796875,117.236328125L84.716796875,117.23681640625C84.771484375,117.4736328125,84.78515625,117.69287109375,84.76171875,117.896484375C84.73828125,118.099609375,84.67578125,118.2802734375,84.572265625,118.44140625C84.46875,118.60205078125,84.3359375,118.728515625,84.1640625,118.8232421875C84.03515625,118.8955078125,83.86328125,118.9462890625,83.646484375,118.97265625C83.4453125,118.9970703125,83.169921875,118.93359375,82.8828125,118.87939453125L81.708984375,116.7744140625C81.814453125,116.4716796875,81.91015625,116.185546875,82.03515625,115.98876953125L82.03515625,115.98828125L82.03515625,115.98828125C82.1640625,115.77685546875,82.3125,115.626953125,82.48046875,115.5341796875L82.48046875,115.5341796875M86.369140625,113.37255859375L86.369140625,113.37255859375C86.5390625,113.27734375,86.71875,113.2294921875,86.91015625,113.2275390625L86.91015625,113.2275390625L86.9140625,113.2275390625C87.10546875,113.2177734375,87.29296875,113.2548828125,87.4765625,113.3408203125L87.478515625,113.341796875L87.48046875,113.3427734375C87.66796875,113.42138671875,87.84765625,113.5419921875,88.021484375,113.705078125C88.1953125,113.86767578125,88.349609375,114.0712890625,88.48828125,114.318359375C88.62109375,114.5595703125,88.7109375,114.79638671875,88.7578125,115.02880859375C88.806640625,115.2626953125,88.8125,115.47900390625,88.78125,115.68017578125L88.78125,115.68115234375L88.78125,115.68212890625C88.75390625,115.8798828125,88.6875,116.05908203125,88.580078125,116.22314453125C88.474609375,116.37890625,88.337890625,116.50341796875,88.166015625,116.5986328125C87.99609375,116.6943359375,87.81640625,116.744140625,87.62890625,116.751953125C87.4375,116.75390625,87.25,116.7158203125,87.0625,116.63671875C86.87890625,116.55517578125,86.69921875,116.43359375,86.52734375,116.26953125C86.353515625,116.107421875,86.19921875,115.90625,86.06640625,115.66455078125C85.927734375,115.41796875,85.8359375,115.1787109375,85.7890625,114.9462890625C85.7421875,114.7119140625,85.73046875,114.49609375,85.7578125,114.29736328125L85.7578125,114.29736328125C85.7578125,114.29736328125,85.7578125,114.296875,85.7578125,114.296875C85.7890625,114.0908203125,85.85546875,113.91162109375,85.9609375,113.75634765625L85.9609375,113.75537109375L85.9609375,113.75439453125C86.0625,113.59375,86.19921875,113.4677734375,86.369140625,113.37255859375L86.369140625,113.37255859375" style="font-variant: normal; stroke-opacity: 1; stroke: none; word-spacing: normal; text-decoration: none solid; isolation: auto; baseline-shift: baseline; color: rgb(0, 0, 0); fill-rule: nonzero; text-transform: none; overflow: visible; image-rendering: auto; stroke-dashoffset: 0; font-stretch: normal; text-anchor: start; text-indent: 0px; font-family: sans-serif; writing-mode: lr-tb; letter-spacing: normal; color-rendering: auto; opacity: 1; mix-blend-mode: normal; stroke-linejoin: miter; font-style: normal; font-weight: normal; stroke-dasharray: none; white-space: normal; stroke-miterlimit: 4; text-align: start; display: inline; shape-rendering: auto; line-height: normal; font-size: medium; text-rendering: auto; stroke-linecap: butt; visibility: visible; direction: ltr; color-interpolation: srgb; clip-rule: nonzero; color-interpolation-filters: linearrgb; fill: rgb(255, 255, 255); fill-opacity: 0.905;"/></g></g></g></g></g></g></g></g></g></g></g></g></g></g><g id="shape-4951468b-1dfd-80af-8006-5962ae6427e3" width="24" class="feather feather-heart" height="24" rx="0" ry="0" style="fill: rgb(0, 0, 0);"><g id="shape-4951468b-1dfd-80af-8006-5962ae642807"><g class="fills" id="fills-4951468b-1dfd-80af-8006-5962ae642807"><path d="M196.38671875,93.49755859375C195.669921875,92.787109375,194.697265625,92.3876953125,193.68359375,92.3876953125C192.66796875,92.3876953125,191.6953125,92.787109375,190.978515625,93.49755859375L190.2421875,94.2275390625L189.50390625,93.49755859375C188.01171875,92.01806640625,185.58984375,92.01806640625,184.09765625,93.49755859375C182.6015625,94.9775390625,182.6015625,97.37646484375,184.09765625,98.8564453125L184.83203125,99.5859375L190.2421875,104.94482421875L195.650390625,99.5859375L196.38671875,98.8564453125C197.10546875,98.1455078125,197.5078125,97.181640625,197.5078125,96.1767578125C197.5078125,95.171875,197.10546875,94.2080078125,196.38671875,93.49755859375Z" fill="none" stroke-linejoin="round" style="fill: rgb(46, 52, 52); fill-opacity: 1;"/></g><g fill="none" stroke-linejoin="round" id="strokes-2d5285c9-d0ae-801e-8006-5c00ff7e6727-4951468b-1dfd-80af-8006-5962ae642807" class="strokes"><g class="stroke-shape"><path d="M196.38671875,93.49755859375C195.669921875,92.787109375,194.697265625,92.3876953125,193.68359375,92.3876953125C192.66796875,92.3876953125,191.6953125,92.787109375,190.978515625,93.49755859375L190.2421875,94.2275390625L189.50390625,93.49755859375C188.01171875,92.01806640625,185.58984375,92.01806640625,184.09765625,93.49755859375C182.6015625,94.9775390625,182.6015625,97.37646484375,184.09765625,98.8564453125L184.83203125,99.5859375L190.2421875,104.94482421875L195.650390625,99.5859375L196.38671875,98.8564453125C197.10546875,98.1455078125,197.5078125,97.181640625,197.5078125,96.1767578125C197.5078125,95.171875,197.10546875,94.2080078125,196.38671875,93.49755859375Z" style="fill: none; stroke-width: 0.8; stroke: rgb(46, 52, 52); stroke-opacity: 1;"/></g></g></g></g><g id="shape-4951468b-1dfd-80af-8006-5962ae6427e4" rx="0" ry="0"><g id="shape-4951468b-1dfd-80af-8006-5962ae642808"><g class="fills" id="fills-4951468b-1dfd-80af-8006-5962ae642808"><path d="M192.244140625,98.7890625L194.599609375,131.85107421875L202.923828125,119.6943359375L214.8125,119.7197265625L192.244140625,98.7890625Z" stroke-miterlimit="10" style="fill-rule: nonzero; clip-rule: evenodd; stroke-linejoin: round; fill: rgb(255, 30, 189); fill-opacity: 1;"/></g><g stroke-miterlimit="10" id="strokes-2d5285c9-d0ae-801e-8006-5c00ff7f74c7-4951468b-1dfd-80af-8006-5962ae642808" class="strokes" style="fill-rule: nonzero; clip-rule: evenodd; stroke-linejoin: round;"><g class="inner-stroke-shape"><defs><clipPath id="inner-stroke-render-53-4951468b-1dfd-80af-8006-5962ae642808-0"><use href="#stroke-shape-render-53-4951468b-1dfd-80af-8006-5962ae642808-0"/></clipPath><path d="M192.244140625,98.7890625L194.599609375,131.85107421875L202.923828125,119.6943359375L214.8125,119.7197265625L192.244140625,98.7890625Z" id="stroke-shape-render-53-4951468b-1dfd-80af-8006-5962ae642808-0" style="fill: none; stroke-width: 3; stroke: rgb(46, 52, 52); stroke-opacity: 1;"/></defs><use href="#stroke-shape-render-53-4951468b-1dfd-80af-8006-5962ae642808-0" clip-path="url('#inner-stroke-render-53-4951468b-1dfd-80af-8006-5962ae642808-0')"/></g></g></g></g></g></svg>