<svg width="223" xmlns="http://www.w3.org/2000/svg" height="222.5" id="screenshot-9a25a056-8559-8064-8005-f6862f34602d" viewBox="0 0 223 222.5" xmlns:xlink="http://www.w3.org/1999/xlink" fill="none" version="1.1"><g id="shape-9a25a056-8559-8064-8005-f6862f34602d" rx="0" ry="0"><g id="shape-9a25a056-8559-8064-8005-f6862f346034"><g class="fills" id="fills-9a25a056-8559-8064-8005-f6862f346034"><rect rx="4.079802842416063" ry="4.079802842416063" x="0" y="87.09714427100562" transform="matrix(1.000000, 0.000000, 0.000000, 1.000000, 0.000000, 0.000000)" width="204.68795620437595" height="23.78715593050174"/></g><g id="strokes-6c84a63e-5786-8088-8006-2ee30ff3e750-9a25a056-8559-8064-8005-f6862f346034" class="strokes"><g class="inner-stroke-shape" transform="matrix(1.000000, 0.000000, 0.000000, 1.000000, 0.000000, 0.000000)"><defs><clipPath id="inner-stroke-render-2-9a25a056-8559-8064-8005-f6862f346034-0"><use href="#stroke-shape-render-2-9a25a056-8559-8064-8005-f6862f346034-0"/></clipPath><rect rx="4.079802842416063" ry="4.079802842416063" x="0" y="87.09714427100562" width="204.68795620437595" height="23.78715593050174" id="stroke-shape-render-2-9a25a056-8559-8064-8005-f6862f346034-0" style="fill: none; stroke-width: 1.6; stroke: rgb(255, 255, 255); stroke-opacity: 1;"/></defs><use href="#stroke-shape-render-2-9a25a056-8559-8064-8005-f6862f346034-0" clip-path="url('#inner-stroke-render-2-9a25a056-8559-8064-8005-f6862f346034-0')"/></g></g></g><g id="shape-9a25a056-8559-8064-8005-f6862f346035"><g class="frame-container-wrapper"><g class="frame-container-blur"><g class="frame-container-shadows"><g fill="none"><g class="fills" id="fills-9a25a056-8559-8064-8005-f6862f346035"><rect rx="0" ry="0" x="6.91788321167769" y="94.75741482489639" width="8.75173002180236" height="8.639402880327452" transform="matrix(1.000000, 0.000000, 0.000000, 1.000000, 0.000000, 0.000000)" class="frame-background"/></g><g class="frame-children"><g id="shape-9a25a056-8559-8064-8005-f6862f346049"><g class="fills" id="fills-9a25a056-8559-8064-8005-f6862f346049"><path d="M8.012,95.837L10.817,102.484L11.813,99.590L14.745,98.607Z"/></g><g id="strokes-6c84a63e-5786-8088-8006-2ee30ff52a9f-9a25a056-8559-8064-8005-f6862f346049" class="strokes"><g class="stroke-shape"><path d="M8.012,95.837L10.817,102.484L11.813,99.590L14.745,98.607Z" style="fill: none; stroke-width: 0.8; stroke: rgb(255, 255, 255); stroke-opacity: 1; stroke-linecap: round;"/></g></g></g></g></g></g></g></g></g><g id="shape-9a25a056-8559-8064-8005-f6862f346036"><g class="frame-container-wrapper"><g class="frame-container-blur"><g class="frame-container-shadows"><g fill="none"><g class="fills" id="fills-9a25a056-8559-8064-8005-f6862f346036"><rect rx="0" ry="0" x="24.416058394162974" y="94.75741482489639" width="8.75173002180236" height="8.639402880326998" transform="matrix(1.000000, 0.000000, 0.000000, 1.000000, 0.000000, 0.000000)" class="frame-background"/></g><g class="frame-children"><g id="shape-9a25a056-8559-8064-8005-f6862f34604a"><g class="fills" id="fills-9a25a056-8559-8064-8005-f6862f34604a"><path d="M26.133,102.452C25.714,102.452,25.374,102.116,25.373,101.702L25.373,96.452C25.374,96.038,25.714,95.703,26.133,95.702L31.451,95.702C31.870,95.703,32.210,96.038,32.211,96.452L32.211,101.702C32.210,102.116,31.870,102.452,31.451,102.452L26.133,102.452ZZM26.133,102.452L30.311,98.327L32.211,100.202M27.463,98.327C27.148,98.327,26.893,98.076,26.893,97.765C26.893,97.454,27.148,97.203,27.462,97.202C27.777,97.202,28.032,97.454,28.032,97.764C28.032,98.075,27.777,98.327,27.463,98.327ZZ"/></g><g id="strokes-6c84a63e-5786-8088-8006-2ee30ff5d785-9a25a056-8559-8064-8005-f6862f34604a" class="strokes"><g class="stroke-shape"><path d="M26.133,102.452C25.714,102.452,25.374,102.116,25.373,101.702L25.373,96.452C25.374,96.038,25.714,95.703,26.133,95.702L31.451,95.702C31.870,95.703,32.210,96.038,32.211,96.452L32.211,101.702C32.210,102.116,31.870,102.452,31.451,102.452L26.133,102.452ZZM26.133,102.452L30.311,98.327L32.211,100.202M27.463,98.327C27.148,98.327,26.893,98.076,26.893,97.765C26.893,97.454,27.148,97.203,27.462,97.202C27.777,97.202,28.032,97.454,28.032,97.764C28.032,98.075,27.777,98.327,27.463,98.327ZZ" style="fill: none; stroke-width: 0.8; stroke: rgb(255, 255, 255); stroke-opacity: 1; stroke-linecap: round;"/></g></g></g></g></g></g></g></g></g><g id="shape-9a25a056-8559-8064-8005-f6862f346037"><g class="frame-container-wrapper"><g class="frame-container-blur"><g class="frame-container-shadows"><g fill="none"><g class="fills" id="fills-9a25a056-8559-8064-8005-f6862f346037"><rect rx="0" ry="0" x="41.91423357664098" y="94.75741482489639" width="8.751730021798721" height="8.639402880326998" transform="matrix(1.000000, 0.000000, 0.000000, 1.000000, 0.000000, 0.000000)" class="frame-background"/></g><g class="frame-children"><g id="shape-9a25a056-8559-8064-8005-f6862f34604b"><g class="fills" id="fills-9a25a056-8559-8064-8005-f6862f34604b"><path d="M48.113,95.837C48.209,95.743,48.323,95.668,48.448,95.616C48.573,95.565,48.707,95.539,48.843,95.539C48.978,95.539,49.112,95.565,49.237,95.616C49.363,95.668,49.476,95.743,49.572,95.837C49.668,95.932,49.744,96.044,49.796,96.168C49.848,96.291,49.874,96.424,49.874,96.557C49.874,96.691,49.848,96.823,49.796,96.947C49.744,97.071,49.668,97.182,49.572,97.277L44.649,102.137L42.643,102.677L43.190,100.697Z"/></g><g id="strokes-6c84a63e-5786-8088-8006-2ee30ff65de5-9a25a056-8559-8064-8005-f6862f34604b" class="strokes"><g class="stroke-shape"><path d="M48.113,95.837C48.209,95.743,48.323,95.668,48.448,95.616C48.573,95.565,48.707,95.539,48.843,95.539C48.978,95.539,49.112,95.565,49.237,95.616C49.363,95.668,49.476,95.743,49.572,95.837C49.668,95.932,49.744,96.044,49.796,96.168C49.848,96.291,49.874,96.424,49.874,96.557C49.874,96.691,49.848,96.823,49.796,96.947C49.744,97.071,49.668,97.182,49.572,97.277L44.649,102.137L42.643,102.677L43.190,100.697Z" style="fill: none; stroke-width: 0.8; stroke: rgb(255, 255, 255); stroke-opacity: 1; stroke-linecap: round;"/></g></g></g></g></g></g></g></g></g><g id="shape-9a25a056-8559-8064-8005-f6862f346038"><g class="frame-container-wrapper"><g class="frame-container-blur"><g class="frame-container-shadows"><g fill="none"><g class="fills" id="fills-9a25a056-8559-8064-8005-f6862f346038"><rect rx="0" ry="0" x="79.99999999999636" y="0" width="69" height="143" transform="matrix(1.000000, 0.000000, 0.000000, 1.000000, 0.000000, 0.000000)" class="frame-background"/></g><g class="frame-children"><g id="shape-9a25a056-8559-8064-8005-f6862f34604c"><g class="fills" id="fills-9a25a056-8559-8064-8005-f6862f34604c"><path d="M84.004,130.448C83.616,130.314,83.402,129.885,83.524,129.489L111.885,38.661C112.010,38.265,112.425,38.055,112.813,38.188L118.523,40.165C118.911,40.299,119.126,40.730,119.003,41.124L90.642,131.952C90.518,132.349,90.103,132.560,89.715,132.426L84.004,130.448ZM92.716,133.645C92.327,133.511,92.113,133.082,92.236,132.686L120.596,41.858C120.719,41.463,121.135,41.250,121.525,41.385L127.234,43.363C127.623,43.496,127.837,43.925,127.714,44.321L99.354,135.149C99.228,135.545,98.815,135.757,98.425,135.622L92.716,133.645ZM101.663,136.560C101.274,136.426,101.059,135.996,101.183,135.601L129.543,44.773C129.667,44.376,130.082,44.165,130.471,44.299L136.181,46.277C136.570,46.411,136.784,46.840,136.661,47.236L108.301,138.064C108.176,138.460,107.761,138.671,107.372,138.537L101.663,136.560ZM123.523,23.932C123.136,24.375,123.347,25.095,123.916,25.276L137.288,29.508C137.808,29.673,138.319,29.278,138.301,28.725L137.722,9.766C137.699,9.017,136.793,8.655,136.315,9.205L123.523,23.932ZL123.523,23.932Z" style="fill: rgb(20, 206, 202); fill-opacity: 1;"/></g><g id="strokes-6c84a63e-5786-8088-8006-2ee30ff76c4b-9a25a056-8559-8064-8005-f6862f34604c" class="strokes"><g class="stroke-shape"><path d="M84.004,130.448C83.616,130.314,83.402,129.885,83.524,129.489L111.885,38.661C112.010,38.265,112.425,38.055,112.813,38.188L118.523,40.165C118.911,40.299,119.126,40.730,119.003,41.124L90.642,131.952C90.518,132.349,90.103,132.560,89.715,132.426L84.004,130.448ZM92.716,133.645C92.327,133.511,92.113,133.082,92.236,132.686L120.596,41.858C120.719,41.463,121.135,41.250,121.525,41.385L127.234,43.363C127.623,43.496,127.837,43.925,127.714,44.321L99.354,135.149C99.228,135.545,98.815,135.757,98.425,135.622L92.716,133.645ZM101.663,136.560C101.274,136.426,101.059,135.996,101.183,135.601L129.543,44.773C129.667,44.376,130.082,44.165,130.471,44.299L136.181,46.277C136.570,46.411,136.784,46.840,136.661,47.236L108.301,138.064C108.176,138.460,107.761,138.671,107.372,138.537L101.663,136.560ZM123.523,23.932C123.136,24.375,123.347,25.095,123.916,25.276L137.288,29.508C137.808,29.673,138.319,29.278,138.301,28.725L137.722,9.766C137.699,9.017,136.793,8.655,136.315,9.205L123.523,23.932ZL123.523,23.932Z" style="fill: none; stroke-width: 3.38381; stroke: rgb(255, 255, 255); stroke-opacity: 0.002;"/></g></g></g></g></g></g></g></g></g><g id="shape-9a25a056-8559-8064-8005-f6862f346039"><g class="frame-container-wrapper"><g class="frame-container-blur"><g class="frame-container-shadows"><g fill="none"><g class="fills" id="fills-9a25a056-8559-8064-8005-f6862f346039"><rect rx="0" ry="0" x="114.8690257155431" y="53.245840672005215" width="69.54060898744137" height="24.20604743809963" transform="matrix(1.000000, 0.000000, 0.000000, 1.000000, 0.000000, 0.000000)" class="frame-background"/></g><g class="frame-children"><g id="shape-9a25a056-8559-8064-8005-f6862f346052" rx="0" ry="0"><g id="shape-9a25a056-8559-8064-8005-f6862f346053"><g class="fills" id="fills-9a25a056-8559-8064-8005-f6862f346053"><rect rx="0" ry="0" x="115.05546349071119" y="53.180123018518316" transform="matrix(-0.594460, 0.804126, -0.809358, -0.587316, 291.484487, -16.599529)" width="69.16773343711066" height="24.337482745073885"/></g></g><g id="shape-9a25a056-8559-8064-8005-f6862f346054"><g class="fills" id="fills-9a25a056-8559-8064-8005-f6862f346054"><path d="M142.265,91.018L168.110,56.057L168.227,40.607L153.393,45.377L124.078,85.031" fill="none" stroke-miterlimit="10" style="fill: none;"/></g><g fill="none" stroke-miterlimit="10" id="strokes-6c84a63e-5786-8088-8006-2ee30ff85bec-9a25a056-8559-8064-8005-f6862f346054" class="strokes"><g class="stroke-shape"><defs><linearGradient id="stroke-color-gradient-render-14-0" x1="0.5" y1="0" x2="0.5" y2="1" gradientTransform="matrix(0.809358, 0.587316, -0.594460, 0.804126, 0.392551, -0.195721)"><stop offset="0" stop-color="#151035" stop-opacity="1"/><stop offset="1" stop-color="#151035" stop-opacity="1"/></linearGradient></defs><path d="M142.265,91.018L168.110,56.057L168.227,40.607L153.393,45.377L124.078,85.031" style="fill: none; stroke-width: 2; stroke: url(&quot;#stroke-color-gradient-render-14-0&quot;);"/></g></g></g><g id="shape-9a25a056-8559-8064-8005-f6862f346055"><g class="fills" id="fills-9a25a056-8559-8064-8005-f6862f346055"><path d="M168.183,45.061L163.550,41.699" fill="none" stroke-miterlimit="10" style="fill: none;"/></g><g fill="none" stroke-miterlimit="10" id="strokes-6c84a63e-5786-8088-8006-2ee30ff88637-9a25a056-8559-8064-8005-f6862f346055" class="strokes"><g class="stroke-shape"><defs><linearGradient id="stroke-color-gradient-render-15-0" x1="0.5" y1="0" x2="0.5" y2="1" gradientTransform="matrix(0.809358, 0.587316, -0.069654, 0.094221, 0.130917, 0.158795)"><stop offset="0" stop-color="#151035" stop-opacity="1"/><stop offset="1" stop-color="#151035" stop-opacity="1"/></linearGradient></defs><path d="M168.183,45.061L163.550,41.699" style="fill: none; stroke-width: 2; stroke: url(&quot;#stroke-color-gradient-render-15-0&quot;);"/></g></g></g><g id="shape-9a25a056-8559-8064-8005-f6862f346056"><g class="fills" id="fills-9a25a056-8559-8064-8005-f6862f346056"><path d="M168.110,56.057L153.009,45.098" fill="none" stroke-miterlimit="10" style="fill: none;"/></g><g fill="none" stroke-miterlimit="10" id="strokes-6c84a63e-5786-8088-8006-2ee30ff93a6f-9a25a056-8559-8064-8005-f6862f346056" class="strokes"><g class="stroke-shape"><defs><linearGradient id="stroke-color-gradient-render-16-0" x1="0.5" y1="0" x2="0.5" y2="1" gradientTransform="matrix(0.809358, 0.587316, -0.069654, 0.094221, 0.130412, 0.158818)"><stop offset="0" stop-color="#151035" stop-opacity="1"/><stop offset="1" stop-color="#151035" stop-opacity="1"/></linearGradient></defs><path d="M168.110,56.057L153.009,45.098" style="fill: none; stroke-width: 2; stroke: url(&quot;#stroke-color-gradient-render-16-0&quot;);"/></g></g></g><g id="shape-9a25a056-8559-8064-8005-f6862f346057"><g class="fills" id="fills-9a25a056-8559-8064-8005-f6862f346057"><path d="M132.106,89.046L160.549,50.570" fill="none" stroke-miterlimit="10" style="fill: none;"/></g><g fill="none" stroke-miterlimit="10" id="strokes-6c84a63e-5786-8088-8006-2ee30ff958e5-9a25a056-8559-8064-8005-f6862f346057" class="strokes"><g class="stroke-shape"><defs><linearGradient id="stroke-color-gradient-render-17-0" x1="0.5" y1="0" x2="0.5" y2="1" gradientTransform="matrix(0.097423, 0.070696, -0.594460, 0.804126, 0.748097, 0.062278)"><stop offset="0" stop-color="#151035" stop-opacity="1"/><stop offset="1" stop-color="#151035" stop-opacity="1"/></linearGradient></defs><path d="M132.106,89.046L160.549,50.570" style="fill: none; stroke-width: 2; stroke: url(&quot;#stroke-color-gradient-render-17-0&quot;);"/></g></g></g></g></g></g></g></g></g></g><g id="shape-9a25a056-8559-8064-8005-f6862f34603a" rx="0" ry="0"><g id="shape-9a25a056-8559-8064-8005-f6862f346058"><g class="fills" id="fills-9a25a056-8559-8064-8005-f6862f346058"><path d="M213.691,158.862C213.691,158.862,213.996,153.595,211.669,151.124C209.342,148.652,204.383,148.976,204.383,148.976C204.383,148.976,209.342,149.299,211.669,146.827C213.996,144.356,213.691,139.089,213.691,139.089C213.691,139.089,213.387,144.356,215.714,146.827C218.041,149.299,223.000,148.976,223.000,148.976C223.000,148.976,218.041,148.652,215.714,151.124C213.387,153.595,213.691,158.862,213.691,158.862ZZ" stroke-miterlimit="10" style="fill-rule: nonzero; clip-rule: evenodd; stroke-linejoin: round; fill: rgb(255, 255, 255); fill-opacity: 1;"/></g><g stroke-miterlimit="10" id="strokes-6c84a63e-5786-8088-8006-2ee30ffa0c7b-9a25a056-8559-8064-8005-f6862f346058" class="strokes" style="fill-rule: nonzero; clip-rule: evenodd; stroke-linejoin: round;"><g class="inner-stroke-shape"><defs><clipPath id="inner-stroke-render-19-9a25a056-8559-8064-8005-f6862f346058-0"><use href="#stroke-shape-render-19-9a25a056-8559-8064-8005-f6862f346058-0"/></clipPath><path d="M213.691,158.862C213.691,158.862,213.996,153.595,211.669,151.124C209.342,148.652,204.383,148.976,204.383,148.976C204.383,148.976,209.342,149.299,211.669,146.827C213.996,144.356,213.691,139.089,213.691,139.089C213.691,139.089,213.387,144.356,215.714,146.827C218.041,149.299,223.000,148.976,223.000,148.976C223.000,148.976,218.041,148.652,215.714,151.124C213.387,153.595,213.691,158.862,213.691,158.862ZZ" id="stroke-shape-render-19-9a25a056-8559-8064-8005-f6862f346058-0" style="fill: none; stroke-width: 1.10373; stroke: rgb(255, 255, 255); stroke-opacity: 1;"/></defs><use href="#stroke-shape-render-19-9a25a056-8559-8064-8005-f6862f346058-0" clip-path="url('#inner-stroke-render-19-9a25a056-8559-8064-8005-f6862f346058-0')"/></g></g></g><g id="shape-9a25a056-8559-8064-8005-f6862f346059"><g class="fills" id="fills-9a25a056-8559-8064-8005-f6862f346059"><path d="M217.622,135.381C217.622,135.381,217.797,131.541,216.453,129.739C215.108,127.937,212.243,128.173,212.243,128.173C212.243,128.173,215.108,128.408,216.453,126.606C217.797,124.804,217.622,120.964,217.622,120.964C217.622,120.964,217.446,124.804,218.790,126.606C220.135,128.408,223.000,128.173,223.000,128.173C223.000,128.173,220.135,127.937,218.790,129.739C217.446,131.541,217.622,135.381,217.622,135.381ZZ" stroke-miterlimit="10" style="fill-rule: nonzero; clip-rule: evenodd; stroke-linejoin: round; fill: rgb(255, 255, 255); fill-opacity: 1;"/></g></g><g id="shape-9a25a056-8559-8064-8005-f6862f34605a"><g class="fills" id="fills-9a25a056-8559-8064-8005-f6862f34605a"><path d="M206.555,144.856C206.555,144.856,206.829,138.986,204.735,136.231C202.640,133.476,198.177,133.837,198.177,133.837C198.177,133.837,202.640,134.197,204.735,131.442C206.829,128.688,206.555,122.817,206.555,122.817C206.555,122.817,206.281,128.688,208.375,131.442C210.469,134.197,214.933,133.837,214.933,133.837C214.933,133.837,210.469,133.476,208.375,136.231C206.281,138.986,206.555,144.856,206.555,144.856ZZ" stroke-miterlimit="10" style="fill-rule: nonzero; clip-rule: evenodd; stroke-linejoin: round; fill: rgb(255, 255, 255); fill-opacity: 1;"/></g></g></g><g id="shape-9a25a056-8559-8064-8005-f6862f34603b" rx="0" ry="0"><g id="shape-9a25a056-8559-8064-8005-f6862f34605b"><g class="fills" id="fills-9a25a056-8559-8064-8005-f6862f34605b"><path d="M38.303,68.954C38.303,68.954,38.607,63.688,36.280,61.216C33.953,58.744,28.994,59.068,28.994,59.068C28.994,59.068,33.953,59.391,36.280,56.920C38.607,54.448,38.303,49.181,38.303,49.181C38.303,49.181,37.998,54.448,40.325,56.920C42.652,59.391,47.611,59.068,47.611,59.068C47.611,59.068,42.652,58.744,40.325,61.216C37.998,63.688,38.303,68.954,38.303,68.954ZZ" stroke-miterlimit="10" style="fill-rule: nonzero; clip-rule: evenodd; stroke-linejoin: round; fill: rgb(255, 255, 255); fill-opacity: 1;"/></g><g stroke-miterlimit="10" id="strokes-6c84a63e-5786-8088-8006-2ee30ffb7119-9a25a056-8559-8064-8005-f6862f34605b" class="strokes" style="fill-rule: nonzero; clip-rule: evenodd; stroke-linejoin: round;"><g class="inner-stroke-shape"><defs><clipPath id="inner-stroke-render-23-9a25a056-8559-8064-8005-f6862f34605b-0"><use href="#stroke-shape-render-23-9a25a056-8559-8064-8005-f6862f34605b-0"/></clipPath><path d="M38.303,68.954C38.303,68.954,38.607,63.688,36.280,61.216C33.953,58.744,28.994,59.068,28.994,59.068C28.994,59.068,33.953,59.391,36.280,56.920C38.607,54.448,38.303,49.181,38.303,49.181C38.303,49.181,37.998,54.448,40.325,56.920C42.652,59.391,47.611,59.068,47.611,59.068C47.611,59.068,42.652,58.744,40.325,61.216C37.998,63.688,38.303,68.954,38.303,68.954ZZ" id="stroke-shape-render-23-9a25a056-8559-8064-8005-f6862f34605b-0" style="fill: none; stroke-width: 1.10373; stroke: rgb(255, 255, 255); stroke-opacity: 1;"/></defs><use href="#stroke-shape-render-23-9a25a056-8559-8064-8005-f6862f34605b-0" clip-path="url('#inner-stroke-render-23-9a25a056-8559-8064-8005-f6862f34605b-0')"/></g></g></g><g id="shape-9a25a056-8559-8064-8005-f6862f34605c"><g class="fills" id="fills-9a25a056-8559-8064-8005-f6862f34605c"><path d="M42.233,45.474C42.233,45.474,42.409,41.634,41.064,39.831C39.720,38.029,36.855,38.265,36.855,38.265C36.855,38.265,39.720,38.501,41.064,36.699C42.409,34.897,42.233,31.056,42.233,31.056C42.233,31.056,42.057,34.897,43.402,36.699C44.746,38.501,47.611,38.265,47.611,38.265C47.611,38.265,44.746,38.029,43.402,39.831C42.057,41.634,42.233,45.474,42.233,45.474ZZ" stroke-miterlimit="10" style="fill-rule: nonzero; clip-rule: evenodd; stroke-linejoin: round; fill: rgb(255, 255, 255); fill-opacity: 1;"/></g></g><g id="shape-9a25a056-8559-8064-8005-f6862f34605d"><g class="fills" id="fills-9a25a056-8559-8064-8005-f6862f34605d"><path d="M31.166,54.949C31.166,54.949,31.440,49.078,29.346,46.323C27.251,43.568,22.788,43.929,22.788,43.929C22.788,43.929,27.251,44.290,29.346,41.535C31.440,38.780,31.166,32.910,31.166,32.910C31.166,32.910,30.892,38.780,32.987,41.535C35.081,44.290,39.544,43.929,39.544,43.929C39.544,43.929,35.081,43.568,32.987,46.323C30.892,49.078,31.166,54.949,31.166,54.949ZZ" stroke-miterlimit="10" style="fill-rule: nonzero; clip-rule: evenodd; stroke-linejoin: round; fill: rgb(255, 255, 255); fill-opacity: 1;"/></g></g></g><g id="shape-9a25a056-8559-8064-8005-f6862f34603c"><g class="fills" id="fills-9a25a056-8559-8064-8005-f6862f34603c"><path d="M43.949,178.234L61.480,72.631C61.683,71.426,62.741,70.551,63.974,70.567L167.376,73.534C168.072,73.542,168.617,74.139,168.552,74.829L158.550,183.367L43.949,178.234ZL43.949,178.234Z" style="fill: rgb(255, 154, 232); fill-opacity: 1;"/></g></g><g id="shape-9a25a056-8559-8064-8005-f6862f34603d"><g class="fills" id="fills-9a25a056-8559-8064-8005-f6862f34603d"><path d="M43.542,177.831L47.611,155.636C47.815,154.431,51.262,154.814,52.495,154.830L58.192,158.055L67.144,166.925L69.179,155.636L74.062,151.202L80.166,150.395L87.084,153.217L96.036,160.474L105.803,170.957L117.197,181.843L64.340,179.339C65.036,179.347,59.209,179.020,57.785,179.020L45.577,178.214L43.542,177.831ZL43.542,177.831Z" style="fill: rgb(255, 255, 255); fill-opacity: 1;"/></g></g><g id="shape-9a25a056-8559-8064-8005-f6862f34603e"><g class="fills" id="fills-9a25a056-8559-8064-8005-f6862f34603e"><path d="M117.621,179.634L132.324,74.107C132.446,73.220,133.223,72.563,134.127,72.583L166.933,73.071C167.970,73.091,168.768,73.978,168.674,75.002L158.757,181.951C158.672,182.879,157.870,183.584,156.930,183.556L119.339,181.641C118.276,181.613,117.475,180.678,117.621,179.634ZL117.621,179.634ZM157.915,183.286C158.196,183.105,158.277,182.730,158.094,182.447L145.130,162.334C144.947,162.055,144.569,161.975,144.284,162.156C144.003,162.338,143.921,162.713,144.105,162.995L157.069,183.109C157.187,183.286,157.382,183.383,157.581,183.383C157.699,183.383,157.813,183.350,157.915,183.286ZL157.915,183.286ZM121.312,179.384L142.444,160.705C142.558,160.604,142.627,160.471,142.644,160.322L152.223,78.083C152.260,77.752,152.019,77.450,151.686,77.413C151.352,77.373,151.047,77.615,151.010,77.946L141.460,159.955L120.502,178.481C120.250,178.702,120.230,179.085,120.454,179.335C120.576,179.468,120.743,179.537,120.909,179.537C121.052,179.537,121.194,179.484,121.312,179.384ZL121.312,179.384Z" style="fill: rgb(255, 30, 189); fill-opacity: 1;"/></g></g><g id="shape-9a25a056-8559-8064-8005-f6862f34603f"><g class="fills" id="fills-9a25a056-8559-8064-8005-f6862f34603f"><path d="M75.286,86.694C75.286,86.694,74.543,51.165,94.819,49.602C121.183,47.569,113.131,88.307,113.131,88.307" class="st2"/></g><g class="strokes" id="strokes-6c84a63e-5786-8088-8006-2ee30ffccd0e-9a25a056-8559-8064-8005-f6862f34603f"><g class="stroke-shape"><path d="M75.286,86.694C75.286,86.694,74.543,51.165,94.819,49.602C121.183,47.569,113.131,88.307,113.131,88.307" style="fill: none; stroke-width: 3; stroke: rgb(255, 30, 189); stroke-opacity: 1;"/></g></g></g><g id="shape-9a25a056-8559-8064-8005-f6862f346040" rx="0" ry="0"><g id="shape-9a25a056-8559-8064-8005-f6862f34605e"><g class="fills" id="fills-9a25a056-8559-8064-8005-f6862f34605e"><path d="M101.051,222.299C101.051,222.299,53.102,226.259,31.347,199.000C9.592,171.742,20.905,159.368,24.144,158.909C27.383,158.445,31.375,156.655,41.728,171.923C52.080,187.191,68.276,193.896,65.245,198.581C62.213,203.266,25.275,168.492,46.176,155.760C54.367,150.769,63.434,161.598,76.305,177.112C81.868,183.817,87.081,187.683,89.876,191.662C94.963,198.899,90.356,206.358,81.107,193.198C73.859,182.893,56.158,153.430,78.669,150.369C95.699,148.055,121.137,201.814,146.180,192.287C171.222,182.756,163.739,157.417,163.340,154.292C162.473,147.459,163.202,139.625,170.348,133.049C176.972,126.953,203.472,124.405,193.848,195.436"/></g><g id="strokes-6c84a63e-5786-8088-8006-2ee30ffd1d8a-9a25a056-8559-8064-8005-f6862f34605e" class="strokes"><g class="stroke-shape"><path d="M101.051,222.299C101.051,222.299,53.102,226.259,31.347,199.000C9.592,171.742,20.905,159.368,24.144,158.909C27.383,158.445,31.375,156.655,41.728,171.923C52.080,187.191,68.276,193.896,65.245,198.581C62.213,203.266,25.275,168.492,46.176,155.760C54.367,150.769,63.434,161.598,76.305,177.112C81.868,183.817,87.081,187.683,89.876,191.662C94.963,198.899,90.356,206.358,81.107,193.198C73.859,182.893,56.158,153.430,78.669,150.369C95.699,148.055,121.137,201.814,146.180,192.287C171.222,182.756,163.739,157.417,163.340,154.292C162.473,147.459,163.202,139.625,170.348,133.049C176.972,126.953,203.472,124.405,193.848,195.436" style="fill: none; stroke-width: 1.5; stroke: rgb(255, 255, 255); stroke-opacity: 1;"/></g></g></g><g id="shape-9a25a056-8559-8064-8005-f6862f34605f"><g class="fills" id="fills-9a25a056-8559-8064-8005-f6862f34605f"><ellipse cx="180.75315866787878" cy="149.15777361786377" rx="6.916135283062431" ry="14.72060011737085" transform="matrix(0.984549, -0.175111, 0.178291, 0.983978, -23.800554, 34.041620)" class="st4" style="fill: rgb(23, 177, 175); fill-opacity: 1;"/></g></g><g id="shape-9a25a056-8559-8064-8005-f6862f346060"><g class="fills" id="fills-9a25a056-8559-8064-8005-f6862f346060"><ellipse cx="75.3725911934298" cy="167.24535322022666" rx="6.598041220670893" ry="14.730223553258838" transform="matrix(0.946532, -0.322610, 0.328014, 0.944673, -50.828728, 33.569151)" class="st4" style="fill: rgb(20, 206, 202); fill-opacity: 1;"/></g></g><g id="shape-9a25a056-8559-8064-8005-f6862f346061"><g class="fills" id="fills-9a25a056-8559-8064-8005-f6862f346061"><ellipse cx="47.502528120438" cy="171.5527100479992" rx="6.326508145000844" ry="14.72755117117481" transform="matrix(0.955313, -0.295596, 0.300641, 0.953737, -49.453087, 21.978032)" class="st4" style="fill: rgb(20, 206, 202); fill-opacity: 1;"/></g></g><g id="shape-9a25a056-8559-8064-8005-f6862f346062"><g class="fills" id="fills-9a25a056-8559-8064-8005-f6862f346062"><ellipse cx="26.748878485400382" cy="175.987603526567" rx="6.326508145001753" ry="14.727551171175037" transform="matrix(0.955313, -0.295596, 0.300641, 0.953737, -51.713815, 16.048514)" class="st4" style="fill: rgb(163, 120, 243); fill-opacity: 1;"/></g></g><g id="shape-9a25a056-8559-8064-8005-f6862f346063" filter="url(#filter-render-36)" rx="0" ry="0"><defs><filter id="filter-render-36" x="-0.40626566231442374" y="-0.5081823132403414" width="1.9716497698019448" height="2.2153998564989403" filterUnits="objectBoundingBox" color-interpolation-filters="sRGB"><feFlood flood-opacity="0" result="BackgroundImageFix"/><feColorMatrix in="SourceAlpha" type="matrix" values="0 0 0 0 0 0 0 0 0 0 0 0 0 0 0 0 0 0 127 0"/><feOffset dx="3.2638422739328505" dy="3.2638422739328505"/><feGaussianBlur stdDeviation="1.6319211369664253"/><feColorMatrix type="matrix" values="0 0 0 0 1 0 0 0 0 0.11764705882352941 0 0 0 0 0.7411764705882353 0 0 0 0.11 0"/><feBlend mode="normal" in2="BackgroundImageFix" result="filter_4a9c2e08-bd3e-808d-8005-c29bd62b6771"/><feBlend mode="normal" in="SourceGraphic" in2="filter_4a9c2e08-bd3e-808d-8005-c29bd62b6771" result="shape"/></filter><filter id="filter-shadow-render-36" x="-0.40626566231442374" y="-0.5081823132403414" width="1.9716497698019448" height="2.2153998564989403" filterUnits="objectBoundingBox" color-interpolation-filters="sRGB"><feFlood flood-opacity="0" result="BackgroundImageFix"/><feColorMatrix in="SourceAlpha" type="matrix" values="0 0 0 0 0 0 0 0 0 0 0 0 0 0 0 0 0 0 127 0"/><feOffset dx="3.2638422739328505" dy="3.2638422739328505"/><feGaussianBlur stdDeviation="1.6319211369664253"/><feColorMatrix type="matrix" values="0 0 0 0 1 0 0 0 0 0.11764705882352941 0 0 0 0 0.7411764705882353 0 0 0 0.11 0"/><feBlend mode="normal" in2="BackgroundImageFix" result="filter_4a9c2e08-bd3e-808d-8005-c29bd62b6771"/><feBlend mode="normal" in="SourceGraphic" in2="filter_4a9c2e08-bd3e-808d-8005-c29bd62b6771" result="shape"/></filter></defs><g id="shape-9a25a056-8559-8064-8005-f6862f346064" rx="0" ry="0"><g clip-path="url(#render-37-9a25a056-8559-8064-8005-f6862f346065-clip)"><g mask="url(#render-37-9a25a056-8559-8064-8005-f6862f346065-mask)"><defs><filter id="render-37-9a25a056-8559-8064-8005-f6862f346065-filter"><feFlood flood-color="white" result="FloodResult"/><feComposite in="FloodResult" in2="SourceGraphic" operator="in" result="comp"/></filter><clipPath id="render-37-9a25a056-8559-8064-8005-f6862f346065-clip" class="mask-clip-path"><polyline points="46.59397810218434,100.85377875183667 106.1577956609799,98.38596403463362 108.13006721584316,145.11309244835456 48.56624965705487,147.58090716555762"/></clipPath><mask width="61.53608911365882" maskUnits="userSpaceOnUse" height="49.194943130924" class="mask-shape" x="46.59397810218434" id="render-37-9a25a056-8559-8064-8005-f6862f346065-mask" data-old-y="98.38596403463362" data-old-width="61.53608911365882" data-old-x="46.59397810218434" y="98.38596403463362" data-old-height="49.194943130924"><g filter="url(#render-37-9a25a056-8559-8064-8005-f6862f346065-filter)"><g id="shape-9a25a056-8559-8064-8005-f6862f346065"><g class="fills" id="fills-9a25a056-8559-8064-8005-f6862f346065"><path d="M48.808,118.161L81.551,99.704C82.077,99.409,82.689,99.295,83.288,99.379L104.101,102.387C105.602,102.603,106.638,103.998,106.405,105.486L103.279,125.471C103.148,126.314,102.624,127.045,101.866,127.447L65.642,146.607C64.357,147.284,62.762,146.843,62.016,145.601L47.810,121.900C47.030,120.599,47.477,118.909,48.808,118.161ZL48.808,118.161Z" class="st6" style="fill: rgb(105, 17, 212); fill-opacity: 1;"/></g></g></g></mask></defs><g id="shape-9a25a056-8559-8064-8005-f6862f346066"><defs><linearGradient id="fill-color-gradient-render-39-0" x1="0.5" y1="0" x2="0.5" y2="1" gradientTransform=""><stop offset="0" stop-color="#771de5" stop-opacity="1"/><stop offset="1" stop-color="#5f19b4" stop-opacity="1"/></linearGradient><pattern patternUnits="userSpaceOnUse" x="47.50056629517894" y="99.6142473226837" width="59.88739246463956" height="46.85096178155163" patternTransform="matrix(0.999143, -0.041396, 0.042171, 0.999110, -5.122291, 3.315331)" id="fill-0-render-39"><g><rect width="59.88739246463956" height="46.85096178155163" style="fill: url(&quot;#fill-color-gradient-render-39-0&quot;);"/></g></pattern></defs><g class="fills" id="fills-9a25a056-8559-8064-8005-f6862f346066"><path d="M48.760,118.212L81.655,99.719C82.184,99.423,82.798,99.309,83.400,99.393L104.307,102.404C105.815,102.620,106.856,104.018,106.622,105.508L103.479,125.528C103.348,126.373,102.821,127.105,102.060,127.508L65.668,146.706C64.377,147.385,62.774,146.943,62.025,145.699L47.758,121.958C46.974,120.654,47.424,118.961,48.760,118.212ZL48.760,118.212Z" fill="url(#fill-0-render-39)" class="st6"/></g></g><g id="shape-9a25a056-8559-8064-8005-f6862f346067"><g class="fills" id="fills-9a25a056-8559-8064-8005-f6862f346067"><path d="M46.974,121.305C45.816,120.112,44.868,119.105,44.868,119.068C44.869,119.030,44.972,118.901,45.097,118.781L45.326,118.563L47.222,120.514L49.118,122.466L50.871,120.740L52.624,119.014L54.217,120.653L55.809,122.291L57.691,120.437C58.726,119.417,59.603,118.583,59.638,118.583C59.725,118.585,63.531,122.506,63.530,122.593C63.530,122.631,63.427,122.761,63.301,122.881L63.072,123.099L61.353,121.330L59.635,119.560L57.735,121.430L55.836,123.300L54.243,121.661L52.651,120.022L50.899,121.749C49.935,122.699,49.132,123.476,49.113,123.475C49.095,123.475,48.133,122.498,46.974,121.305ZL46.974,121.305Z" style="stroke-width: 0.335232; fill: rgb(96, 17, 191); fill-opacity: 1;"/></g></g><g id="shape-9a25a056-8559-8064-8005-f6862f346068"><defs><filter id="filter-render-41" x="-0.034729929119909214" y="-0.030326362392758252" width="1.0694598582398185" height="1.0606527247855166" filterUnits="objectBoundingBox" color-interpolation-filters="sRGB"><feFlood flood-opacity="0" result="BackgroundImageFix"/><feBlend mode="normal" in="SourceGraphic" in2="BackgroundImageFix" result="shape"/><feGaussianBlur stdDeviation="0.5140593504856322" result="filter_8031f8d4-f9c6-800e-8005-3277f57d4b20"/></filter><filter id="filter-blur-render-41" x="-0.034729929119909214" y="-0.030326362392758252" width="1.0694598582398185" height="1.0606527247855166" filterUnits="objectBoundingBox" color-interpolation-filters="sRGB"><feFlood flood-opacity="0" result="BackgroundImageFix"/><feBlend mode="normal" in="SourceGraphic" in2="BackgroundImageFix" result="shape"/><feGaussianBlur stdDeviation="0.5140593504856322" result="filter_8031f8d4-f9c6-800e-8005-3277f57d4b20"/></filter></defs><g class="fills" id="fills-9a25a056-8559-8064-8005-f6862f346068"><path d="M54.676,143.255C54.154,142.741,54.156,142.761,54.604,142.000C54.910,141.481,54.775,140.517,54.228,139.312C53.056,136.730,52.827,135.502,53.266,134.158C53.453,133.587,53.663,133.293,54.575,132.323C55.601,131.229,55.703,131.154,56.464,130.922C57.540,130.595,58.229,130.676,60.203,131.359C62.305,132.087,62.829,132.152,63.788,131.804C64.447,131.565,64.682,131.394,65.388,130.638C66.862,129.058,66.974,128.010,65.931,125.553C65.144,123.697,64.981,122.651,65.303,121.520C65.540,120.687,65.626,120.555,66.601,119.516C67.473,118.588,67.755,118.362,68.306,118.147C69.318,117.754,70.541,117.848,72.424,118.465C74.447,119.127,75.132,119.204,76.010,118.870C76.865,118.544,78.080,117.304,78.428,116.401C78.758,115.544,78.592,114.079,77.945,112.141C77.638,111.221,77.349,110.175,77.305,109.819C77.209,109.040,77.562,107.741,78.000,107.275L78.317,106.938L78.813,107.485C79.291,108.011,79.300,108.046,79.061,108.434C78.678,109.059,78.781,109.993,79.451,111.980C80.175,114.126,80.299,115.483,79.887,116.762C79.636,117.542,79.515,117.719,78.480,118.821C77.431,119.939,77.287,120.049,76.528,120.323C75.410,120.726,74.211,120.637,72.322,120.008C69.864,119.189,68.866,119.266,67.786,120.354C66.412,121.738,66.355,122.401,67.375,125.124C68.536,128.225,68.404,129.465,66.704,131.427C65.637,132.658,64.764,133.236,63.635,133.460C62.689,133.647,61.809,133.503,60.022,132.870C58.340,132.273,57.270,132.166,56.586,132.527C55.978,132.847,55.045,133.842,54.755,134.479C54.426,135.201,54.596,136.452,55.208,137.789C56.320,140.238,56.496,141.096,56.122,142.248C55.990,142.655,55.723,143.157,55.529,143.365L55.177,143.743Z" filter="url(#filter-render-41)" style="stroke-width: 0.16519; fill: rgb(96, 17, 191); fill-opacity: 1;"/></g></g><g id="shape-9a25a056-8559-8064-8005-f6862f346069" style="opacity: 1;"><g class="fills" id="fills-9a25a056-8559-8064-8005-f6862f346069"><path d="M96.585,117.859L102.803,118.248L102.529,124.533L102.256,130.818L96.065,130.403L89.875,129.989L90.121,123.729L90.366,117.469ZM96.140,129.287L101.269,129.609L101.493,124.467L101.717,119.326L96.588,119.005L91.458,118.684L91.234,123.825L91.010,128.966Z" style="stroke-width: 0.38632; fill: rgb(96, 17, 191); fill-opacity: 1;"/></g></g><g id="shape-9a25a056-8559-8064-8005-f6862f34606a"><g class="fills" id="fills-9a25a056-8559-8064-8005-f6862f34606a"><path d="M83.347,135.854C83.347,135.854,82.389,132.377,80.595,131.179C78.801,129.981,76.171,131.063,76.171,131.063C76.171,131.063,78.939,130.402,79.679,128.387C80.418,126.372,79.129,123.002,79.129,123.002C79.129,123.002,80.086,126.479,81.880,127.676C83.674,128.874,86.304,127.793,86.304,127.793C86.304,127.793,83.536,128.453,82.797,130.469C82.057,132.484,83.347,135.854,83.347,135.854ZZ" stroke-miterlimit="10" style="fill-rule: nonzero; clip-rule: evenodd; stroke-linejoin: round; fill: rgb(96, 17, 191); fill-opacity: 1;"/></g></g><g id="shape-9a25a056-8559-8064-8005-f6862f34606b"><g class="fills" id="fills-9a25a056-8559-8064-8005-f6862f34606b"><path d="M90.873,111.295C90.873,111.295,90.262,109.007,88.949,108.265C87.636,107.523,85.620,108.326,85.620,108.326C85.620,108.326,87.726,107.799,88.348,106.432C88.969,105.066,88.105,102.860,88.105,102.860C88.105,102.860,88.716,105.147,90.029,105.890C91.342,106.632,93.358,105.829,93.358,105.829C93.358,105.829,91.252,106.356,90.630,107.722C90.009,109.089,90.873,111.295,90.873,111.295ZZ" stroke-miterlimit="10" style="fill-rule: nonzero; clip-rule: evenodd; stroke-linejoin: round; fill: rgb(96, 17, 191); fill-opacity: 1;"/></g></g><g id="shape-9a25a056-8559-8064-8005-f6862f34606c" style="opacity: 1;"><defs><mask y1="-311.9540277981802" width="0.23464100953924572" maskUnits="userSpaceOnUse" x1="1946.09145480817" height="0.2328856135501951" x="1946.09145480817" id="render-45-f" data-old-y="-311.9540277981802" data-old-width="0.23464100953924572" data-old-x="1946.09145480817" y="-311.9540277981802" x2="1946.3260958177093" y2="-311.72114218463" data-old-height="0.2328856135501951"><g class="svg-mask-wrapper" transform="matrix(0.195534, 0.000000, 0.000000, 0.194071, 1946.111008, -311.934621)"><path fill-rule="evenodd" clip-rule="evenodd" d="M 12.9366,387.297 12.9365,400 h 2.5 l 10e-5,-12.703 h 20.756 V 400 h 2.5 V 387.297 H 59.4483 V 400 h 2.5 V 387.297 H 82.7041 V 400 h 2.5 V 387.297 H 105.96 V 400 h 2.5 v -12.703 h 20.756 V 400 h 2.5 v -12.703 h 20.756 V 400 h 2.5 v -12.703 h 20.755 V 400 h 2.5 v -12.703 h 20.756 V 400 h 2.5 v -12.703 h 20.756 V 400 h 2.5 v -12.703 h 20.756 V 400 h 2.5 v -12.703 h 20.756 V 400 h 2.5 v -12.703 h 20.755 V 400 h 2.5 v -12.703 h 20.756 V 400 h 2.5 v -12.703 h 20.756 V 400 h 2.5 v -12.703 h 20.756 V 400 h 2.5 V 387.297 H 385.03 V 400 h 2.5 v -12.703 h 12.703 v -2.5 H 387.53 v -20.756 h 12.703 v -2.5 H 387.53 v -20.756 h 12.703 v -2.5 H 387.53 v -20.756 h 12.703 v -2.5 H 387.53 v -20.756 h 12.703 v -2.5 H 387.53 v -20.756 h 12.703 v -2.5 H 387.53 v -20.755 h 12.703 v -2.5 H 387.53 v -20.756 h 12.703 v -2.5 H 387.53 V 201.25 h 12.703 v -2.5 H 387.53 v -20.756 h 12.703 v -2.5 H 387.53 v -20.756 h 12.703 v -2.5 H 387.53 v -20.755 h 12.703 v -2.5 H 387.53 v -20.756 h 12.703 v -2.5 H 387.53 V 84.9709 h 12.703 v -2.5 H 387.53 V 61.7151 h 12.703 v -2.5 H 387.53 V 38.4593 h 12.703 v -2.5 H 387.53 V 15.2035 h 12.703 v -2.5 H 387.53 V 0 h -2.5 V 12.7035 H 364.274 V 0 h -2.5 V 12.7035 H 341.018 V 0 h -2.5 V 12.7035 H 317.762 V 0 h -2.5 V 12.7035 H 294.506 V 0 h -2.5 V 12.7035 H 271.251 V 0 h -2.5 V 12.7035 H 247.995 V 0 h -2.5 V 12.7035 H 224.739 V 0 h -2.5 V 12.7035 H 201.483 V 0 h -2.5 V 12.7035 H 178.227 V 0 h -2.5 V 12.7035 H 154.972 V 0 h -2.5 V 12.7035 H 131.716 V 0 h -2.5 V 12.7035 H 108.46 V 0 h -2.5 V 12.7035 H 85.2041 V 0 h -2.5 V 12.7035 H 61.9483 V 0 h -2.5 V 12.7035 H 38.6926 V 0 h -2.5 V 12.7035 H 15.4366 V 0 h -2.5 V 12.7035 H 0.233154 v 2.5 H 12.9366 V 35.9593 H 0.233154 v 2.5 H 12.9366 V 59.2151 H 0.233154 v 2.5 H 12.9366 V 82.4709 H 0.233154 v 2.5 H 12.9366 V 105.727 H 0.233154 v 2.5 H 12.9366 v 20.756 H 0.233154 v 2.5 H 12.9366 v 20.755 H 0.233154 v 2.5 H 12.9366 v 20.756 H 0.233154 v 2.5 H 12.9366 V 198.75 H 0.233154 v 2.5 H 12.9366 v 20.756 H 0.233154 v 2.5 H 12.9366 v 20.756 H 0.233154 v 2.5 H 12.9366 v 20.755 H 0.233154 v 2.5 H 12.9366 v 20.756 H 0.233154 v 2.5 H 12.9366 v 20.756 H 0.233154 v 2.5 H 12.9366 v 20.756 H 0.233154 v 2.5 H 12.9366 v 20.756 H 0.233154 v 2.5 H 12.9366 v 20.756 H 0.233154 v 2.5 z M 385.03,15.2035 h -20.756 v 20.7558 h 20.756 z m 0,23.2558 h -20.756 v 20.7558 h 20.756 z m 0,23.2558 h -20.756 v 20.7558 h 20.756 z m 0,23.2558 h -20.756 v 20.7561 h 20.756 z m 0,23.2561 h -20.756 v 20.756 h 20.756 z m 0,23.256 h -20.756 v 20.755 h 20.756 z m 0,23.255 h -20.756 v 20.756 h 20.756 z m 0,23.256 h -20.756 v 20.756 h 20.756 z m 0,23.256 h -20.756 v 20.756 h 20.756 z m 0,23.256 h -20.756 v 20.756 h 20.756 z m 0,23.256 h -20.756 v 20.755 h 20.756 z m 0,23.255 h -20.756 v 20.756 h 20.756 z m 0,23.256 h -20.756 v 20.756 h 20.756 z m 0,23.256 h -20.756 v 20.756 h 20.756 z m 0,23.256 h -20.756 v 20.756 h 20.756 z m 0,23.256 h -20.756 v 20.756 h 20.756 z m -23.256,0 v 20.756 h -20.756 v -20.756 z m 0,-23.256 v 20.756 h -20.756 v -20.756 z m 0,-23.256 v 20.756 h -20.756 v -20.756 z m 0,-23.256 v 20.756 h -20.756 v -20.756 z m 0,-23.256 v 20.756 h -20.756 v -20.756 z m 0,-23.255 v 20.755 h -20.756 v -20.755 z m 0,-23.256 v 20.756 h -20.756 v -20.756 z m 0,-23.256 v 20.756 H 341.018 V 201.25 Z m 0,-23.256 v 20.756 h -20.756 v -20.756 z m 0,-23.256 v 20.756 h -20.756 v -20.756 z m 0,-23.255 v 20.755 h -20.756 v -20.755 z m 0,-23.256 v 20.756 h -20.756 v -20.756 z m 0,-23.2561 V 105.727 H 341.018 V 84.9709 Z m 0,-23.2558 V 82.4709 H 341.018 V 61.7151 Z m 0,-23.2558 V 59.2151 H 341.018 V 38.4593 Z m 0,-23.2558 V 35.9593 H 341.018 V 15.2035 Z m -23.256,0 h -20.756 v 20.7558 h 20.756 z m 0,23.2558 h -20.756 v 20.7558 h 20.756 z m 0,23.2558 h -20.756 v 20.7558 h 20.756 z m 0,23.2558 h -20.756 v 20.7561 h 20.756 z m 0,23.2561 h -20.756 v 20.756 h 20.756 z m 0,23.256 h -20.756 v 20.755 h 20.756 z m 0,23.255 h -20.756 v 20.756 h 20.756 z m 0,23.256 h -20.756 v 20.756 h 20.756 z m 0,23.256 h -20.756 v 20.756 h 20.756 z m 0,23.256 h -20.756 v 20.756 h 20.756 z m 0,23.256 h -20.756 v 20.755 h 20.756 z m 0,23.255 h -20.756 v 20.756 h 20.756 z m 0,23.256 h -20.756 v 20.756 h 20.756 z m 0,23.256 h -20.756 v 20.756 h 20.756 z m 0,23.256 h -20.756 v 20.756 h 20.756 z m 0,23.256 h -20.756 v 20.756 h 20.756 z m -23.256,0 v 20.756 h -20.756 v -20.756 z m 0,-23.256 v 20.756 h -20.756 v -20.756 z m 0,-23.256 v 20.756 h -20.756 v -20.756 z m 0,-23.256 v 20.756 h -20.756 v -20.756 z m 0,-23.256 v 20.756 h -20.756 v -20.756 z m 0,-23.255 v 20.755 h -20.756 v -20.755 z m 0,-23.256 v 20.756 h -20.756 v -20.756 z m 0,-23.256 v 20.756 H 294.506 V 201.25 Z m 0,-23.256 v 20.756 h -20.756 v -20.756 z m 0,-23.256 v 20.756 h -20.756 v -20.756 z m 0,-23.255 v 20.755 h -20.756 v -20.755 z m 0,-23.256 v 20.756 h -20.756 v -20.756 z m 0,-23.2561 V 105.727 H 294.506 V 84.9709 Z m 0,-23.2558 V 82.4709 H 294.506 V 61.7151 Z m 0,-23.2558 V 59.2151 H 294.506 V 38.4593 Z m 0,-23.2558 V 35.9593 H 294.506 V 15.2035 Z m -23.256,0 h -20.755 v 20.7558 h 20.755 z m 0,23.2558 h -20.755 v 20.7558 h 20.755 z m 0,23.2558 h -20.755 v 20.7558 h 20.755 z m 0,23.2558 h -20.755 v 20.7561 h 20.755 z m 0,23.2561 h -20.755 v 20.756 h 20.755 z m 0,23.256 h -20.755 v 20.755 h 20.755 z m 0,23.255 h -20.755 v 20.756 h 20.755 z m 0,23.256 h -20.755 v 20.756 h 20.755 z m 0,23.256 h -20.755 v 20.756 h 20.755 z m 0,23.256 h -20.755 v 20.756 h 20.755 z m 0,23.256 h -20.755 v 20.755 h 20.755 z m 0,23.255 h -20.755 v 20.756 h 20.755 z m 0,23.256 h -20.755 v 20.756 h 20.755 z m 0,23.256 h -20.755 v 20.756 h 20.755 z m 0,23.256 h -20.755 v 20.756 h 20.755 z m 0,23.256 h -20.755 v 20.756 h 20.755 z m -23.255,0 v 20.756 h -20.756 v -20.756 z m 0,-23.256 v 20.756 h -20.756 v -20.756 z m 0,-23.256 v 20.756 h -20.756 v -20.756 z m 0,-23.256 v 20.756 h -20.756 v -20.756 z m 0,-23.256 v 20.756 h -20.756 v -20.756 z m 0,-23.255 v 20.755 h -20.756 v -20.755 z m 0,-23.256 v 20.756 h -20.756 v -20.756 z m 0,-23.256 v 20.756 H 247.995 V 201.25 Z m 0,-23.256 v 20.756 h -20.756 v -20.756 z m 0,-23.256 v 20.756 h -20.756 v -20.756 z m 0,-23.255 v 20.755 h -20.756 v -20.755 z m 0,-23.256 v 20.756 h -20.756 v -20.756 z m 0,-23.2561 V 105.727 H 247.995 V 84.9709 Z m 0,-23.2558 V 82.4709 H 247.995 V 61.7151 Z m 0,-23.2558 V 59.2151 H 247.995 V 38.4593 Z m 0,-23.2558 V 35.9593 H 247.995 V 15.2035 Z m -23.256,0 h -20.756 v 20.7558 h 20.756 z m 0,23.2558 h -20.756 v 20.7558 h 20.756 z m 0,23.2558 h -20.756 v 20.7558 h 20.756 z m 0,23.2558 h -20.756 v 20.7561 h 20.756 z m 0,23.2561 h -20.756 v 20.756 h 20.756 z m 0,23.256 h -20.756 v 20.755 h 20.756 z m 0,23.255 h -20.756 v 20.756 h 20.756 z m 0,23.256 h -20.756 v 20.756 h 20.756 z m 0,23.256 h -20.756 v 20.756 h 20.756 z m 0,23.256 h -20.756 v 20.756 h 20.756 z m 0,23.256 h -20.756 v 20.755 h 20.756 z m 0,23.255 h -20.756 v 20.756 h 20.756 z m 0,23.256 h -20.756 v 20.756 h 20.756 z m 0,23.256 h -20.756 v 20.756 h 20.756 z m 0,23.256 h -20.756 v 20.756 h 20.756 z m 0,23.256 h -20.756 v 20.756 h 20.756 z m -23.256,0 v 20.756 h -20.756 v -20.756 z m 0,-23.256 v 20.756 h -20.756 v -20.756 z m 0,-23.256 v 20.756 h -20.756 v -20.756 z m 0,-23.256 v 20.756 h -20.756 v -20.756 z m 0,-23.256 v 20.756 h -20.756 v -20.756 z m 0,-23.255 v 20.755 h -20.756 v -20.755 z m 0,-23.256 v 20.756 h -20.756 v -20.756 z m 0,-23.256 v 20.756 H 201.483 V 201.25 Z m 0,-23.256 v 20.756 h -20.756 v -20.756 z m 0,-23.256 v 20.756 h -20.756 v -20.756 z m 0,-23.255 v 20.755 h -20.756 v -20.755 z m 0,-23.256 v 20.756 h -20.756 v -20.756 z m 0,-23.2561 V 105.727 H 201.483 V 84.9709 Z m 0,-23.2558 V 82.4709 H 201.483 V 61.7151 Z m 0,-23.2558 V 59.2151 H 201.483 V 38.4593 Z m 0,-23.2558 V 35.9593 H 201.483 V 15.2035 Z m -23.256,0 h -20.756 v 20.7558 h 20.756 z m 0,23.2558 h -20.756 v 20.7558 h 20.756 z m 0,23.2558 h -20.756 v 20.7558 h 20.756 z m 0,23.2558 h -20.756 v 20.7561 h 20.756 z m 0,23.2561 h -20.756 v 20.756 h 20.756 z m 0,23.256 h -20.756 v 20.755 h 20.756 z m 0,23.255 h -20.756 v 20.756 h 20.756 z m 0,23.256 h -20.756 v 20.756 h 20.756 z m 0,23.256 h -20.756 v 20.756 h 20.756 z m 0,23.256 h -20.756 v 20.756 h 20.756 z m 0,23.256 h -20.756 v 20.755 h 20.756 z m 0,23.255 h -20.756 v 20.756 h 20.756 z m 0,23.256 h -20.756 v 20.756 h 20.756 z m 0,23.256 h -20.756 v 20.756 h 20.756 z m 0,23.256 h -20.756 v 20.756 h 20.756 z m 0,23.256 h -20.756 v 20.756 h 20.756 z m -23.256,0 v 20.756 h -20.755 v -20.756 z m 0,-23.256 v 20.756 h -20.755 v -20.756 z m 0,-23.256 v 20.756 h -20.755 v -20.756 z m 0,-23.256 v 20.756 h -20.755 v -20.756 z m 0,-23.256 v 20.756 h -20.755 v -20.756 z m 0,-23.255 v 20.755 h -20.755 v -20.755 z m 0,-23.256 v 20.756 h -20.755 v -20.756 z m 0,-23.256 v 20.756 H 154.972 V 201.25 Z m 0,-23.256 v 20.756 h -20.755 v -20.756 z m 0,-23.256 v 20.756 h -20.755 v -20.756 z m 0,-23.255 v 20.755 h -20.755 v -20.755 z m 0,-23.256 v 20.756 h -20.755 v -20.756 z m 0,-23.2561 V 105.727 H 154.972 V 84.9709 Z m 0,-23.2558 V 82.4709 H 154.972 V 61.7151 Z m 0,-23.2558 V 59.2151 H 154.972 V 38.4593 Z m 0,-23.2558 V 35.9593 H 154.972 V 15.2035 Z m -23.255,0 h -20.756 v 20.7558 h 20.756 z m 0,23.2558 h -20.756 v 20.7558 h 20.756 z m 0,23.2558 h -20.756 v 20.7558 h 20.756 z m 0,23.2558 h -20.756 v 20.7561 h 20.756 z m 0,23.2561 h -20.756 v 20.756 h 20.756 z m 0,23.256 h -20.756 v 20.755 h 20.756 z m 0,23.255 h -20.756 v 20.756 h 20.756 z m 0,23.256 h -20.756 v 20.756 h 20.756 z m 0,23.256 h -20.756 v 20.756 h 20.756 z m 0,23.256 h -20.756 v 20.756 h 20.756 z m 0,23.256 h -20.756 v 20.755 h 20.756 z m 0,23.255 h -20.756 v 20.756 h 20.756 z m 0,23.256 h -20.756 v 20.756 h 20.756 z m 0,23.256 h -20.756 v 20.756 h 20.756 z m 0,23.256 h -20.756 v 20.756 h 20.756 z m 0,23.256 h -20.756 v 20.756 h 20.756 z m -23.256,0 v 20.756 H 108.46 v -20.756 z m 0,-23.256 v 20.756 H 108.46 v -20.756 z m 0,-23.256 v 20.756 H 108.46 v -20.756 z m 0,-23.256 v 20.756 H 108.46 v -20.756 z m 0,-23.256 v 20.756 H 108.46 v -20.756 z m 0,-23.255 v 20.755 H 108.46 v -20.755 z m 0,-23.256 v 20.756 H 108.46 v -20.756 z m 0,-23.256 v 20.756 H 108.46 V 201.25 Z m 0,-23.256 V 198.75 H 108.46 v -20.756 z m 0,-23.256 v 20.756 H 108.46 v -20.756 z m 0,-23.255 v 20.755 H 108.46 v -20.755 z m 0,-23.256 v 20.756 H 108.46 v -20.756 z m 0,-23.2561 V 105.727 H 108.46 V 84.9709 Z m 0,-23.2558 V 82.4709 H 108.46 V 61.7151 Z m 0,-23.2558 V 59.2151 H 108.46 V 38.4593 Z m 0,-23.2558 V 35.9593 H 108.46 V 15.2035 Z m -23.256,0 H 85.2041 V 35.9593 H 105.96 Z m 0,23.2558 H 85.2041 V 59.2151 H 105.96 Z m 0,23.2558 H 85.2041 V 82.4709 H 105.96 Z m 0,23.2558 H 85.2041 V 105.727 H 105.96 Z m 0,23.2561 H 85.2041 v 20.756 H 105.96 Z m 0,23.256 H 85.2041 v 20.755 H 105.96 Z m 0,23.255 H 85.2041 v 20.756 H 105.96 Z m 0,23.256 H 85.2041 V 198.75 H 105.96 Z m 0,23.256 H 85.2041 v 20.756 H 105.96 Z m 0,23.256 H 85.2041 v 20.756 H 105.96 Z m 0,23.256 H 85.2041 v 20.755 H 105.96 Z m 0,23.255 H 85.2041 v 20.756 H 105.96 Z m 0,23.256 H 85.2041 v 20.756 H 105.96 Z m 0,23.256 H 85.2041 v 20.756 H 105.96 Z m 0,23.256 H 85.2041 v 20.756 H 105.96 Z m 0,23.256 H 85.2041 v 20.756 H 105.96 Z m -23.2559,0 v 20.756 H 61.9483 v -20.756 z m 0,-23.256 v 20.756 H 61.9483 v -20.756 z m 0,-23.256 v 20.756 H 61.9483 v -20.756 z m 0,-23.256 v 20.756 H 61.9483 v -20.756 z m 0,-23.256 v 20.756 H 61.9483 v -20.756 z m 0,-23.255 v 20.755 H 61.9483 v -20.755 z m 0,-23.256 v 20.756 H 61.9483 v -20.756 z m 0,-23.256 v 20.756 H 61.9483 V 201.25 Z m 0,-23.256 V 198.75 H 61.9483 v -20.756 z m 0,-23.256 v 20.756 H 61.9483 v -20.756 z m 0,-23.255 v 20.755 H 61.9483 v -20.755 z m 0,-23.256 v 20.756 H 61.9483 v -20.756 z m 0,-23.2561 V 105.727 H 61.9483 V 84.9709 Z m 0,-23.2558 V 82.4709 H 61.9483 V 61.7151 Z m 0,-23.2558 V 59.2151 H 61.9483 V 38.4593 Z m 0,-23.2558 V 35.9593 H 61.9483 V 15.2035 Z m -23.2558,0 H 38.6926 v 20.7558 h 20.7557 z m 0,23.2558 H 38.6926 v 20.7558 h 20.7557 z m 0,23.2558 H 38.6926 v 20.7558 h 20.7557 z m 0,23.2558 H 38.6926 v 20.7561 h 20.7557 z m 0,23.2561 H 38.6926 v 20.756 h 20.7557 z m 0,23.256 H 38.6926 v 20.755 h 20.7557 z m 0,23.255 H 38.6926 v 20.756 h 20.7557 z m 0,23.256 H 38.6926 v 20.756 h 20.7557 z m 0,23.256 H 38.6926 v 20.756 h 20.7557 z m 0,23.256 H 38.6926 v 20.756 h 20.7557 z m 0,23.256 H 38.6926 v 20.755 h 20.7557 z m 0,23.255 H 38.6926 v 20.756 h 20.7557 z m 0,23.256 H 38.6926 v 20.756 h 20.7557 z m 0,23.256 H 38.6926 v 20.756 h 20.7557 z m 0,23.256 H 38.6926 v 20.756 h 20.7557 z m 0,23.256 H 38.6926 v 20.756 h 20.7557 z m -23.2557,0 v 20.756 h -20.756 v -20.756 z m 0,-23.256 v 20.756 h -20.756 v -20.756 z m 0,-23.256 v 20.756 h -20.756 v -20.756 z m 0,-23.256 v 20.756 h -20.756 v -20.756 z m 0,-23.256 v 20.756 h -20.756 v -20.756 z m 0,-23.255 v 20.755 h -20.756 v -20.755 z m 0,-23.256 v 20.756 h -20.756 v -20.756 z m 0,-23.256 v 20.756 H 15.4366 V 201.25 Z m 0,-23.256 v 20.756 h -20.756 v -20.756 z m 0,-23.256 v 20.756 h -20.756 v -20.756 z m 0,-23.255 v 20.755 h -20.756 v -20.755 z m 0,-23.256 v 20.756 h -20.756 v -20.756 z m 0,-23.2561 V 105.727 H 15.4366 V 84.9709 Z m 0,-23.2558 V 82.4709 H 15.4366 V 61.7151 Z m 0,-23.2558 V 59.2151 H 15.4366 V 38.4593 Z m 0,-23.2558 V 35.9593 H 15.4366 V 15.2035 Z" fill="#bbced6" transform="matrix(0.24937278,0,0,0.24937278,-1402.7547,762.57102)" style="fill: none;"/></g></mask><filter id="filter-render-45" x="-0.1745141303341736" y="-0.17582954608592724" width="1.349028260668347" height="1.3516590921718543" filterUnits="objectBoundingBox" color-interpolation-filters="sRGB"><feFlood flood-opacity="0" result="BackgroundImageFix"/><feBlend mode="normal" in="SourceGraphic" in2="BackgroundImageFix" result="shape"/><feGaussianBlur stdDeviation="0.8159605684832126" result="filter_4a9c2e08-bd3e-808d-8005-c29a599c36b4"/></filter><filter id="filter-blur-render-45" x="-0.1745141303341736" y="-0.17582954608592724" width="1.349028260668347" height="1.3516590921718543" filterUnits="objectBoundingBox" color-interpolation-filters="sRGB"><feFlood flood-opacity="0" result="BackgroundImageFix"/><feBlend mode="normal" in="SourceGraphic" in2="BackgroundImageFix" result="shape"/><feGaussianBlur stdDeviation="0.8159605684832126" result="filter_4a9c2e08-bd3e-808d-8005-c29a599c36b4"/></filter></defs><g class="fills" id="fills-9a25a056-8559-8064-8005-f6862f34606c"><ellipse cx="91.35301915883883" cy="116.32610880478546" rx="4.675613183418136" ry="4.640633992676385" transform="matrix(0.951687, -0.307070, 0.311831, 0.950137, -31.860574, 33.852079)" filter="url(#filter-render-45)"/></g><g id="strokes-6c84a63e-5786-8088-8006-2ee31001f9aa-9a25a056-8559-8064-8005-f6862f34606c" class="strokes" filter="url(#filter-blur-render-45)"><g class="inner-stroke-shape" transform="matrix(0.951687, -0.307070, 0.311831, 0.950137, -31.860574, 33.852079)"><defs><clipPath id="inner-stroke-render-45-9a25a056-8559-8064-8005-f6862f34606c-0"><use href="#stroke-shape-render-45-9a25a056-8559-8064-8005-f6862f34606c-0"/></clipPath><ellipse cx="91.35301915883883" cy="116.32610880478546" rx="4.675613183418136" ry="4.640633992676385" id="stroke-shape-render-45-9a25a056-8559-8064-8005-f6862f34606c-0" style="fill: none; stroke-width: 3.26384; stroke: rgb(96, 17, 191); stroke-opacity: 1;"/></defs><use href="#stroke-shape-render-45-9a25a056-8559-8064-8005-f6862f34606c-0" clip-path="url('#inner-stroke-render-45-9a25a056-8559-8064-8005-f6862f34606c-0')"/></g></g></g></g></g></g></g></g><g id="shape-9a25a056-8559-8064-8005-f6862f346041"><g class="fills" id="fills-9a25a056-8559-8064-8005-f6862f346041"><path d="M106.409,71.577C106.409,71.577,116.033,58.257,124.819,59.341C142.382,61.510,145.117,84.709,131.041,87.156C108.712,91.034,103.768,105.222,103.768,105.222"/></g><g id="strokes-6c84a63e-5786-8088-8006-2ee310022859-9a25a056-8559-8064-8005-f6862f346041" class="strokes"><g class="stroke-shape"><path d="M106.409,71.577C106.409,71.577,116.033,58.257,124.819,59.341C142.382,61.510,145.117,84.709,131.041,87.156C108.712,91.034,103.768,105.222,103.768,105.222" style="fill: none; stroke-width: 2; stroke: rgb(255, 255, 255); stroke-opacity: 1; stroke-dasharray: 0, 7; stroke-linecap: round;"/></g></g></g><g id="shape-9a25a056-8559-8064-8005-f6862f346042"><g class="fills" id="fills-9a25a056-8559-8064-8005-f6862f346042"><path d="M55.343,49.602L141.206,45.570"/></g><g id="strokes-6c84a63e-5786-8088-8006-2ee3100254df-9a25a056-8559-8064-8005-f6862f346042" class="strokes"><g class="stroke-shape"><path d="M55.343,49.602L141.206,45.570" style="fill: none; stroke-width: 1.5; stroke: rgb(255, 255, 255); stroke-opacity: 1;"/></g></g></g><g id="shape-9a25a056-8559-8064-8005-f6862f346043"><g class="fills" id="fills-9a25a056-8559-8064-8005-f6862f346043"><ellipse cx="96.03649635036345" cy="48.79579150155473" rx="5.6970802919749985" ry="5.644409881813999" transform="matrix(1.000000, 0.000000, 0.000000, 1.000000, 0.000000, 0.000000)" style="fill: rgb(255, 30, 189); fill-opacity: 1;"/></g><g id="strokes-6c84a63e-5786-8088-8006-2ee310029aa1-9a25a056-8559-8064-8005-f6862f346043" class="strokes"><g class="outer-stroke-shape"><defs><mask id="outer-stroke-render-48-9a25a056-8559-8064-8005-f6862f346043-0" x="87.51098893364227" y="40.32295449499454" width="17.051014833442377" height="16.945674013120378" maskUnits="userSpaceOnUse"><use href="#stroke-shape-render-48-9a25a056-8559-8064-8005-f6862f346043-0" style="fill: none; stroke: white; stroke-width: 4;"/><use href="#stroke-shape-render-48-9a25a056-8559-8064-8005-f6862f346043-0" style="fill: black; stroke: none;"/></mask><ellipse cx="96.03649635036345" cy="48.79579150155473" rx="5.6970802919749985" ry="5.644409881813999" transform="matrix(1.000000, 0.000000, 0.000000, 1.000000, 0.000000, 0.000000)" id="stroke-shape-render-48-9a25a056-8559-8064-8005-f6862f346043-0"/></defs><use href="#stroke-shape-render-48-9a25a056-8559-8064-8005-f6862f346043-0" mask="url(#outer-stroke-render-48-9a25a056-8559-8064-8005-f6862f346043-0)" style="fill: none; stroke-width: 4; stroke: rgb(255, 255, 255); stroke-opacity: 1;"/><use href="#stroke-shape-render-48-9a25a056-8559-8064-8005-f6862f346043-0" style="fill: none; stroke-width: 2; stroke: none; stroke-opacity: 1;"/></g></g></g><g id="shape-9a25a056-8559-8064-8005-f6862f346044"><g class="fills" id="fills-9a25a056-8559-8064-8005-f6862f346044"><ellipse cx="53.91879562043505" cy="49.80372183759255" rx="2.6450729927000793" ry="2.6206188736991862" transform="matrix(1.000000, 0.000000, 0.000000, 1.000000, 0.000000, 0.000000)" style="fill: rgb(255, 255, 255); fill-opacity: 1;"/></g></g><g id="shape-9a25a056-8559-8064-8005-f6862f346045"><g class="fills" id="fills-9a25a056-8559-8064-8005-f6862f346045"><ellipse cx="140.59580291970633" cy="45.77200049343992" rx="2.6450729927018983" ry="2.6206188736991862" transform="matrix(1.000000, 0.000000, 0.000000, 1.000000, 0.000000, 0.000000)" style="fill: rgb(255, 255, 255); fill-opacity: 1;"/></g></g><g id="shape-9a25a056-8559-8064-8005-f6862f346046"><g class="frame-container-wrapper"><g class="frame-container-blur"><g class="frame-container-shadows"><g fill="none"><g class="fills" id="fills-9a25a056-8559-8064-8005-f6862f346046"><rect rx="0" ry="0" x="58.73260998447586" y="116.27878706577712" width="35.39494203358481" height="11.291484612464956" transform="matrix(1.000000, 0.000000, 0.000000, 1.000000, 0.000000, 0.000000)" class="frame-background"/></g><g class="frame-children"><g id="shape-9a25a056-8559-8064-8005-f6862f34606d"><g class="frame-container-wrapper"><g class="frame-container-blur"><g class="frame-container-shadows"><g fill="none"><g class="fills" id="fills-9a25a056-8559-8064-8005-f6862f34606d"><rect rx="0" ry="0" x="58.73521416557742" y="116.28353909153657" width="71.01602959309093" height="22.854054054056178" transform="matrix(1.000000, 0.000000, 0.000000, 1.000000, 0.000000, 0.000000)" class="frame-background"/></g><g class="frame-children"><g id="shape-9a25a056-8559-8064-8005-f6862f34606e"><g class="fills" id="fills-9a25a056-8559-8064-8005-f6862f34606e"><path d="M58.188,122.915L58.000,125.052L58.489,125.930L57.827,126.895L57.817,126.896L58.018,127.257L61.006,132.622L65.561,132.404L65.840,132.391L65.998,132.162L68.585,128.410L65.395,122.684L65.390,122.691L64.220,122.744L63.732,121.867L63.673,121.838L61.814,120.899L61.626,123.037L61.627,123.039L60.232,122.334L60.096,123.878L60.047,123.853L58.188,122.915ZL58.188,122.915ZM58.876,123.713L59.618,124.087L58.431,124.747L58.503,123.930L58.876,123.713ZL58.876,123.713ZM62.503,121.698L63.244,122.072L62.058,122.732L62.129,121.914L62.503,121.698ZL62.503,121.698ZM60.921,123.133L61.662,123.507L60.476,124.167L60.547,123.350L60.921,123.133ZL60.921,123.133ZM58.487,125.112L59.050,124.799L60.156,126.784L59.438,126.818L58.487,125.112ZL58.487,125.112ZM59.339,124.639L59.899,124.327L61.239,126.732L60.524,126.766L59.339,124.639ZL59.339,124.639ZM62.114,123.097L62.676,122.784L63.860,124.910L63.453,125.501L62.114,123.097ZL62.114,123.097ZM62.965,122.623L63.525,122.312L64.475,124.018L64.070,124.606L62.965,122.623ZL62.965,122.623ZM60.532,124.532L61.094,124.219L62.462,126.674L61.744,126.708L60.532,124.532ZL60.532,124.532ZM61.383,124.058L61.943,123.747L63.158,125.928L62.752,126.517L61.383,124.058ZL61.383,124.058ZM88.257,109.406L88.870,110.512L88.302,110.823L88.553,111.273L89.120,110.958L90.442,113.331C90.539,113.504,90.641,113.658,90.749,113.791L90.750,113.792L90.751,113.793C90.867,113.926,90.995,114.028,91.133,114.095C91.273,114.162,91.425,114.189,91.583,114.177C91.747,114.170,91.919,114.113,92.103,114.011C92.186,113.964,92.274,113.897,92.368,113.809C92.462,113.721,92.551,113.625,92.636,113.521L92.685,113.460L92.307,113.105L92.255,113.180C92.150,113.321,92.039,113.445,91.893,113.528C91.775,113.593,91.672,113.627,91.587,113.634C91.501,113.634,91.425,113.615,91.355,113.579C91.279,113.536,91.208,113.478,91.142,113.402C91.075,113.314,91.008,113.212,90.943,113.095L89.603,110.690L90.654,110.105L90.404,109.655L89.352,110.240L88.739,109.138L88.257,109.406ZL88.257,109.406ZM64.472,123.196L65.085,123.133L64.726,123.654L64.472,123.196ZL64.472,123.196ZM58.741,126.382L58.996,126.840L58.364,126.870L58.741,126.382ZL58.741,126.382ZM82.278,114.047L82.278,114.047ZL82.278,114.047ZC82.040,114.179,81.842,114.369,81.689,114.614L81.689,114.614L81.689,114.614C81.566,114.814,81.475,115.002,81.387,115.213L81.152,114.797L80.687,115.056L83.845,120.727L84.320,120.463L83.191,118.436C83.409,118.461,83.616,118.472,83.806,118.458L83.807,118.458L83.808,118.458C84.043,118.435,84.252,118.374,84.434,118.273C84.655,118.150,84.841,117.985,84.990,117.779L84.990,117.779L84.990,117.778C85.140,117.565,85.242,117.323,85.293,117.057L85.293,117.057C85.346,116.782,85.344,116.488,85.287,116.178C85.229,115.865,85.108,115.545,84.924,115.216C84.589,114.614,84.195,114.195,83.738,113.971L83.738,113.971C83.275,113.740,82.779,113.768,82.278,114.047ZL82.278,114.047ZM70.777,120.439L70.777,120.439ZC70.538,120.572,70.341,120.762,70.188,121.006L70.187,121.006L70.187,121.007C70.064,121.206,69.974,121.394,69.886,121.605L69.651,121.189L69.185,121.448L72.344,127.119L72.819,126.856L71.690,124.828C71.907,124.853,72.115,124.864,72.304,124.850L72.305,124.850L72.306,124.850C72.541,124.828,72.751,124.766,72.933,124.665C73.154,124.542,73.340,124.377,73.488,124.172L73.488,124.171L73.489,124.171C73.639,123.957,73.740,123.716,73.791,123.449L73.791,123.449C73.845,123.174,73.842,122.881,73.785,122.570C73.728,122.258,73.606,121.937,73.423,121.608C73.088,121.006,72.693,120.588,72.237,120.363L72.237,120.363C71.774,120.132,71.277,120.161,70.777,120.439ZL70.777,120.439ZM78.509,116.141L78.509,116.141ZC78.246,116.288,78.046,116.491,77.915,116.746C77.806,116.950,77.719,117.181,77.646,117.429L77.359,116.905L76.903,117.159L79.104,121.111L79.579,120.847L77.982,117.979C78.068,117.639,78.140,117.322,78.244,117.123L78.244,117.122L78.244,117.121C78.346,116.916,78.497,116.759,78.701,116.645C78.983,116.488,79.214,116.474,79.422,116.585L79.423,116.586L79.425,116.586C79.636,116.691,79.860,116.938,80.082,117.336L81.457,119.803L81.931,119.539L80.531,117.025C80.249,116.519,79.947,116.184,79.612,116.033C79.277,115.881,78.902,115.923,78.509,116.141ZL78.509,116.141ZM74.604,118.312C74.392,118.430,74.212,118.595,74.068,118.806C74.067,118.806,74.067,118.806,74.067,118.806C73.924,119.009,73.824,119.246,73.768,119.514L73.768,119.514C73.714,119.776,73.712,120.061,73.761,120.369L73.761,120.369L73.761,120.370C73.815,120.677,73.932,120.990,74.110,121.309C74.287,121.628,74.492,121.892,74.725,122.100L74.725,122.101L74.726,122.102C74.959,122.300,75.206,122.447,75.464,122.541L75.465,122.542L75.466,122.542C75.722,122.630,75.982,122.663,76.245,122.640L76.246,122.640L76.246,122.640C76.514,122.614,76.769,122.533,77.009,122.399C77.283,122.247,77.489,122.080,77.626,121.893L77.626,121.893C77.760,121.713,77.877,121.536,77.975,121.362L78.013,121.293L77.579,120.999L77.541,121.088C77.467,121.262,77.373,121.396,77.252,121.544C77.135,121.680,76.969,121.809,76.779,121.915C76.581,122.025,76.395,122.102,76.198,122.115C75.995,122.123,75.800,122.091,75.611,122.020C75.423,121.941,75.244,121.823,75.074,121.665C75.074,121.665,75.074,121.665,75.074,121.665C74.920,121.521,74.785,121.347,74.663,121.151L77.281,119.696C77.238,119.619,77.204,119.540,77.168,119.475L77.088,119.332C76.770,118.761,76.391,118.379,75.950,118.200C75.510,118.022,75.054,118.062,74.604,118.312ZL74.604,118.312ZL74.604,118.312ZM86.114,111.915C85.888,112.040,85.697,112.208,85.544,112.416C85.391,112.624,85.284,112.861,85.225,113.125L85.225,113.125L85.224,113.126C85.170,113.388,85.169,113.677,85.221,113.989L85.221,113.990L85.221,113.990C85.276,114.297,85.394,114.613,85.575,114.937C85.755,115.261,85.961,115.528,86.194,115.736L86.195,115.737L86.196,115.738C86.428,115.936,86.671,116.082,86.922,116.174L86.922,116.174L86.923,116.174C87.179,116.262,87.436,116.297,87.694,116.276C87.952,116.256,88.195,116.182,88.421,116.057C88.648,115.931,88.838,115.763,88.992,115.555C89.150,115.345,89.257,115.107,89.311,114.846C89.371,114.581,89.375,114.298,89.323,113.998C89.274,113.688,89.158,113.370,88.977,113.046C88.797,112.722,88.588,112.456,88.350,112.251C88.116,112.039,87.871,111.887,87.613,111.798C87.363,111.706,87.104,111.672,86.842,111.695C86.584,111.715,86.341,111.789,86.114,111.915ZL86.114,111.915ZL86.114,111.915ZM58.655,127.375L62.653,127.184L65.280,131.899L61.281,132.090L58.655,127.375ZL58.655,127.375ZM65.361,123.648L67.987,128.363L65.716,131.656L63.090,126.941L65.361,123.648ZL65.361,123.648ZM74.862,118.758L74.862,118.758ZC75.173,118.585,75.469,118.565,75.775,118.692L75.775,118.693L75.775,118.693C76.057,118.807,76.328,119.081,76.583,119.516L74.426,120.714C74.345,120.515,74.287,120.323,74.263,120.142C74.239,119.929,74.247,119.734,74.285,119.556C74.328,119.375,74.399,119.220,74.498,119.087L74.499,119.086L74.499,119.085C74.596,118.948,74.716,118.839,74.862,118.758ZL74.862,118.758ZM70.979,120.926L70.979,120.926ZC71.176,120.817,71.363,120.766,71.540,120.769L71.541,120.769L71.542,120.769C71.718,120.767,71.884,120.810,72.046,120.901L72.046,120.901L72.047,120.902C72.206,120.988,72.359,121.116,72.505,121.287L72.506,121.288L72.507,121.289C72.659,121.459,72.799,121.657,72.925,121.885C73.066,122.137,73.162,122.384,73.215,122.628L73.215,122.629L73.215,122.629C73.270,122.866,73.285,123.085,73.261,123.289C73.237,123.492,73.173,123.673,73.071,123.834C72.968,123.994,72.833,124.121,72.662,124.216C72.533,124.288,72.361,124.339,72.145,124.365C71.943,124.389,71.669,124.326,71.380,124.272L70.208,122.167C70.313,121.864,70.409,121.578,70.533,121.381L70.533,121.381L70.533,121.380C70.662,121.169,70.811,121.020,70.979,120.926ZL70.979,120.926ZM82.480,114.534L82.480,114.534ZC82.678,114.424,82.864,114.373,83.041,114.376L83.042,114.376L83.043,114.376C83.220,114.374,83.386,114.418,83.547,114.509L83.548,114.509L83.548,114.509C83.707,114.595,83.860,114.723,84.007,114.895L84.008,114.896L84.008,114.896C84.161,115.066,84.300,115.265,84.427,115.492C84.567,115.744,84.663,115.992,84.716,116.236L84.716,116.236L84.717,116.237C84.772,116.473,84.787,116.693,84.762,116.897C84.738,117.100,84.675,117.280,84.572,117.441C84.470,117.602,84.335,117.728,84.164,117.823C84.034,117.895,83.862,117.946,83.646,117.972C83.445,117.997,83.170,117.934,82.881,117.879L81.709,115.774C81.814,115.471,81.911,115.186,82.034,114.989L82.034,114.988L82.034,114.988C82.164,114.777,82.313,114.627,82.480,114.534ZL82.480,114.534ZM86.369,112.372L86.369,112.372ZC86.541,112.277,86.719,112.230,86.910,112.227L86.911,112.227L86.913,112.227C87.105,112.217,87.292,112.255,87.477,112.341L87.478,112.342L87.480,112.342C87.667,112.421,87.848,112.542,88.022,112.705C88.195,112.868,88.350,113.072,88.487,113.318C88.622,113.560,88.712,113.796,88.759,114.029C88.806,114.262,88.814,114.479,88.782,114.680L88.782,114.681L88.782,114.682C88.755,114.880,88.688,115.059,88.580,115.223C88.475,115.379,88.338,115.503,88.166,115.599C87.995,115.694,87.817,115.744,87.630,115.752C87.438,115.754,87.250,115.716,87.062,115.637C86.879,115.555,86.700,115.433,86.526,115.270C86.353,115.107,86.199,114.906,86.065,114.665C85.928,114.418,85.836,114.178,85.789,113.946C85.741,113.712,85.732,113.496,85.759,113.298L85.759,113.297C85.759,113.297,85.759,113.297,85.759,113.297C85.788,113.091,85.855,112.912,85.960,112.756L85.961,112.755L85.961,112.755C86.063,112.594,86.198,112.467,86.369,112.372ZL86.369,112.372Z" style="font-variant: normal; stroke-opacity: 1; stroke: none; word-spacing: normal; text-decoration: none solid; isolation: auto; baseline-shift: baseline; color: rgb(0, 0, 0); fill-rule: nonzero; text-transform: none; overflow: visible; image-rendering: auto; stroke-dashoffset: 0; font-stretch: normal; text-anchor: start; text-indent: 0px; font-family: sans-serif; writing-mode: lr-tb; letter-spacing: normal; color-rendering: auto; opacity: 1; mix-blend-mode: normal; stroke-linejoin: miter; font-style: normal; font-weight: normal; stroke-dasharray: none; white-space: normal; stroke-miterlimit: 4; text-align: start; display: inline; shape-rendering: auto; line-height: normal; font-size: medium; text-rendering: auto; stroke-linecap: butt; visibility: visible; direction: ltr; color-interpolation: srgb; clip-rule: nonzero; color-interpolation-filters: linearrgb; fill: rgb(255, 255, 255); fill-opacity: 0.905;"/></g><g id="strokes-6c84a63e-5786-8088-8006-2ee310053773-9a25a056-8559-8064-8005-f6862f34606e" class="strokes" style="font-variant: normal; stroke-opacity: 1; stroke: none; word-spacing: normal; text-decoration: none solid; isolation: auto; baseline-shift: baseline; color: rgb(0, 0, 0); fill-rule: nonzero; text-transform: none; overflow: visible; image-rendering: auto; stroke-dashoffset: 0; font-stretch: normal; text-anchor: start; text-indent: 0px; font-family: sans-serif; writing-mode: lr-tb; letter-spacing: normal; color-rendering: auto; opacity: 1; mix-blend-mode: normal; stroke-linejoin: miter; font-style: normal; font-weight: normal; stroke-dasharray: none; white-space: normal; stroke-miterlimit: 4; text-align: start; display: inline; shape-rendering: auto; line-height: normal; font-size: medium; text-rendering: auto; stroke-linecap: butt; visibility: visible; direction: ltr; color-interpolation: srgb; clip-rule: nonzero; color-interpolation-filters: linearrgb;"><g class="stroke-shape"><path d="M58.188,122.915L58.000,125.052L58.489,125.930L57.827,126.895L57.817,126.896L58.018,127.257L61.006,132.622L65.561,132.404L65.840,132.391L65.998,132.162L68.585,128.410L65.395,122.684L65.390,122.691L64.220,122.744L63.732,121.867L63.673,121.838L61.814,120.899L61.626,123.037L61.627,123.039L60.232,122.334L60.096,123.878L60.047,123.853L58.188,122.915ZL58.188,122.915ZM58.876,123.713L59.618,124.087L58.431,124.747L58.503,123.930L58.876,123.713ZL58.876,123.713ZM62.503,121.698L63.244,122.072L62.058,122.732L62.129,121.914L62.503,121.698ZL62.503,121.698ZM60.921,123.133L61.662,123.507L60.476,124.167L60.547,123.350L60.921,123.133ZL60.921,123.133ZM58.487,125.112L59.050,124.799L60.156,126.784L59.438,126.818L58.487,125.112ZL58.487,125.112ZM59.339,124.639L59.899,124.327L61.239,126.732L60.524,126.766L59.339,124.639ZL59.339,124.639ZM62.114,123.097L62.676,122.784L63.860,124.910L63.453,125.501L62.114,123.097ZL62.114,123.097ZM62.965,122.623L63.525,122.312L64.475,124.018L64.070,124.606L62.965,122.623ZL62.965,122.623ZM60.532,124.532L61.094,124.219L62.462,126.674L61.744,126.708L60.532,124.532ZL60.532,124.532ZM61.383,124.058L61.943,123.747L63.158,125.928L62.752,126.517L61.383,124.058ZL61.383,124.058ZM88.257,109.406L88.870,110.512L88.302,110.823L88.553,111.273L89.120,110.958L90.442,113.331C90.539,113.504,90.641,113.658,90.749,113.791L90.750,113.792L90.751,113.793C90.867,113.926,90.995,114.028,91.133,114.095C91.273,114.162,91.425,114.189,91.583,114.177C91.747,114.170,91.919,114.113,92.103,114.011C92.186,113.964,92.274,113.897,92.368,113.809C92.462,113.721,92.551,113.625,92.636,113.521L92.685,113.460L92.307,113.105L92.255,113.180C92.150,113.321,92.039,113.445,91.893,113.528C91.775,113.593,91.672,113.627,91.587,113.634C91.501,113.634,91.425,113.615,91.355,113.579C91.279,113.536,91.208,113.478,91.142,113.402C91.075,113.314,91.008,113.212,90.943,113.095L89.603,110.690L90.654,110.105L90.404,109.655L89.352,110.240L88.739,109.138L88.257,109.406ZL88.257,109.406ZM64.472,123.196L65.085,123.133L64.726,123.654L64.472,123.196ZL64.472,123.196ZM58.741,126.382L58.996,126.840L58.364,126.870L58.741,126.382ZL58.741,126.382ZM82.278,114.047L82.278,114.047ZL82.278,114.047ZC82.040,114.179,81.842,114.369,81.689,114.614L81.689,114.614L81.689,114.614C81.566,114.814,81.475,115.002,81.387,115.213L81.152,114.797L80.687,115.056L83.845,120.727L84.320,120.463L83.191,118.436C83.409,118.461,83.616,118.472,83.806,118.458L83.807,118.458L83.808,118.458C84.043,118.435,84.252,118.374,84.434,118.273C84.655,118.150,84.841,117.985,84.990,117.779L84.990,117.779L84.990,117.778C85.140,117.565,85.242,117.323,85.293,117.057L85.293,117.057C85.346,116.782,85.344,116.488,85.287,116.178C85.229,115.865,85.108,115.545,84.924,115.216C84.589,114.614,84.195,114.195,83.738,113.971L83.738,113.971C83.275,113.740,82.779,113.768,82.278,114.047ZL82.278,114.047ZM70.777,120.439L70.777,120.439ZC70.538,120.572,70.341,120.762,70.188,121.006L70.187,121.006L70.187,121.007C70.064,121.206,69.974,121.394,69.886,121.605L69.651,121.189L69.185,121.448L72.344,127.119L72.819,126.856L71.690,124.828C71.907,124.853,72.115,124.864,72.304,124.850L72.305,124.850L72.306,124.850C72.541,124.828,72.751,124.766,72.933,124.665C73.154,124.542,73.340,124.377,73.488,124.172L73.488,124.171L73.489,124.171C73.639,123.957,73.740,123.716,73.791,123.449L73.791,123.449C73.845,123.174,73.842,122.881,73.785,122.570C73.728,122.258,73.606,121.937,73.423,121.608C73.088,121.006,72.693,120.588,72.237,120.363L72.237,120.363C71.774,120.132,71.277,120.161,70.777,120.439ZL70.777,120.439ZM78.509,116.141L78.509,116.141ZC78.246,116.288,78.046,116.491,77.915,116.746C77.806,116.950,77.719,117.181,77.646,117.429L77.359,116.905L76.903,117.159L79.104,121.111L79.579,120.847L77.982,117.979C78.068,117.639,78.140,117.322,78.244,117.123L78.244,117.122L78.244,117.121C78.346,116.916,78.497,116.759,78.701,116.645C78.983,116.488,79.214,116.474,79.422,116.585L79.423,116.586L79.425,116.586C79.636,116.691,79.860,116.938,80.082,117.336L81.457,119.803L81.931,119.539L80.531,117.025C80.249,116.519,79.947,116.184,79.612,116.033C79.277,115.881,78.902,115.923,78.509,116.141ZL78.509,116.141ZM74.604,118.312C74.392,118.430,74.212,118.595,74.068,118.806C74.067,118.806,74.067,118.806,74.067,118.806C73.924,119.009,73.824,119.246,73.768,119.514L73.768,119.514C73.714,119.776,73.712,120.061,73.761,120.369L73.761,120.369L73.761,120.370C73.815,120.677,73.932,120.990,74.110,121.309C74.287,121.628,74.492,121.892,74.725,122.100L74.725,122.101L74.726,122.102C74.959,122.300,75.206,122.447,75.464,122.541L75.465,122.542L75.466,122.542C75.722,122.630,75.982,122.663,76.245,122.640L76.246,122.640L76.246,122.640C76.514,122.614,76.769,122.533,77.009,122.399C77.283,122.247,77.489,122.080,77.626,121.893L77.626,121.893C77.760,121.713,77.877,121.536,77.975,121.362L78.013,121.293L77.579,120.999L77.541,121.088C77.467,121.262,77.373,121.396,77.252,121.544C77.135,121.680,76.969,121.809,76.779,121.915C76.581,122.025,76.395,122.102,76.198,122.115C75.995,122.123,75.800,122.091,75.611,122.020C75.423,121.941,75.244,121.823,75.074,121.665C75.074,121.665,75.074,121.665,75.074,121.665C74.920,121.521,74.785,121.347,74.663,121.151L77.281,119.696C77.238,119.619,77.204,119.540,77.168,119.475L77.088,119.332C76.770,118.761,76.391,118.379,75.950,118.200C75.510,118.022,75.054,118.062,74.604,118.312ZL74.604,118.312ZL74.604,118.312ZM86.114,111.915C85.888,112.040,85.697,112.208,85.544,112.416C85.391,112.624,85.284,112.861,85.225,113.125L85.225,113.125L85.224,113.126C85.170,113.388,85.169,113.677,85.221,113.989L85.221,113.990L85.221,113.990C85.276,114.297,85.394,114.613,85.575,114.937C85.755,115.261,85.961,115.528,86.194,115.736L86.195,115.737L86.196,115.738C86.428,115.936,86.671,116.082,86.922,116.174L86.922,116.174L86.923,116.174C87.179,116.262,87.436,116.297,87.694,116.276C87.952,116.256,88.195,116.182,88.421,116.057C88.648,115.931,88.838,115.763,88.992,115.555C89.150,115.345,89.257,115.107,89.311,114.846C89.371,114.581,89.375,114.298,89.323,113.998C89.274,113.688,89.158,113.370,88.977,113.046C88.797,112.722,88.588,112.456,88.350,112.251C88.116,112.039,87.871,111.887,87.613,111.798C87.363,111.706,87.104,111.672,86.842,111.695C86.584,111.715,86.341,111.789,86.114,111.915ZL86.114,111.915ZL86.114,111.915ZM58.655,127.375L62.653,127.184L65.280,131.899L61.281,132.090L58.655,127.375ZL58.655,127.375ZM65.361,123.648L67.987,128.363L65.716,131.656L63.090,126.941L65.361,123.648ZL65.361,123.648ZM74.862,118.758L74.862,118.758ZC75.173,118.585,75.469,118.565,75.775,118.692L75.775,118.693L75.775,118.693C76.057,118.807,76.328,119.081,76.583,119.516L74.426,120.714C74.345,120.515,74.287,120.323,74.263,120.142C74.239,119.929,74.247,119.734,74.285,119.556C74.328,119.375,74.399,119.220,74.498,119.087L74.499,119.086L74.499,119.085C74.596,118.948,74.716,118.839,74.862,118.758ZL74.862,118.758ZM70.979,120.926L70.979,120.926ZC71.176,120.817,71.363,120.766,71.540,120.769L71.541,120.769L71.542,120.769C71.718,120.767,71.884,120.810,72.046,120.901L72.046,120.901L72.047,120.902C72.206,120.988,72.359,121.116,72.505,121.287L72.506,121.288L72.507,121.289C72.659,121.459,72.799,121.657,72.925,121.885C73.066,122.137,73.162,122.384,73.215,122.628L73.215,122.629L73.215,122.629C73.270,122.866,73.285,123.085,73.261,123.289C73.237,123.492,73.173,123.673,73.071,123.834C72.968,123.994,72.833,124.121,72.662,124.216C72.533,124.288,72.361,124.339,72.145,124.365C71.943,124.389,71.669,124.326,71.380,124.272L70.208,122.167C70.313,121.864,70.409,121.578,70.533,121.381L70.533,121.381L70.533,121.380C70.662,121.169,70.811,121.020,70.979,120.926ZL70.979,120.926ZM82.480,114.534L82.480,114.534ZC82.678,114.424,82.864,114.373,83.041,114.376L83.042,114.376L83.043,114.376C83.220,114.374,83.386,114.418,83.547,114.509L83.548,114.509L83.548,114.509C83.707,114.595,83.860,114.723,84.007,114.895L84.008,114.896L84.008,114.896C84.161,115.066,84.300,115.265,84.427,115.492C84.567,115.744,84.663,115.992,84.716,116.236L84.716,116.236L84.717,116.237C84.772,116.473,84.787,116.693,84.762,116.897C84.738,117.100,84.675,117.280,84.572,117.441C84.470,117.602,84.335,117.728,84.164,117.823C84.034,117.895,83.862,117.946,83.646,117.972C83.445,117.997,83.170,117.934,82.881,117.879L81.709,115.774C81.814,115.471,81.911,115.186,82.034,114.989L82.034,114.988L82.034,114.988C82.164,114.777,82.313,114.627,82.480,114.534ZL82.480,114.534ZM86.369,112.372L86.369,112.372ZC86.541,112.277,86.719,112.230,86.910,112.227L86.911,112.227L86.913,112.227C87.105,112.217,87.292,112.255,87.477,112.341L87.478,112.342L87.480,112.342C87.667,112.421,87.848,112.542,88.022,112.705C88.195,112.868,88.350,113.072,88.487,113.318C88.622,113.560,88.712,113.796,88.759,114.029C88.806,114.262,88.814,114.479,88.782,114.680L88.782,114.681L88.782,114.682C88.755,114.880,88.688,115.059,88.580,115.223C88.475,115.379,88.338,115.503,88.166,115.599C87.995,115.694,87.817,115.744,87.630,115.752C87.438,115.754,87.250,115.716,87.062,115.637C86.879,115.555,86.700,115.433,86.526,115.270C86.353,115.107,86.199,114.906,86.065,114.665C85.928,114.418,85.836,114.178,85.789,113.946C85.741,113.712,85.732,113.496,85.759,113.298L85.759,113.297C85.759,113.297,85.759,113.297,85.759,113.297C85.788,113.091,85.855,112.912,85.960,112.756L85.961,112.755L85.961,112.755C86.063,112.594,86.198,112.467,86.369,112.372ZL86.369,112.372Z" style="fill: none;"/></g></g></g></g></g></g></g></g></g></g></g></g></g></g></g><g id="shape-9a25a056-8559-8064-8005-f6862f346047" width="24" class="feather feather-heart" height="24" rx="0" ry="0" style="fill: rgb(0, 0, 0);"><g id="shape-9a25a056-8559-8064-8005-f6862f34606f" style="display: none;"><g class="fills" id="fills-9a25a056-8559-8064-8005-f6862f34606f"><rect width="16.684306569350156" height="16.53005751102637" x="181.8996350364905" stroke-linejoin="round" transform="matrix(1.000000, 0.000000, 0.000000, 1.000000, 0.000000, 0.000000)" style="fill: rgb(255, 255, 255); fill-opacity: 1;" ry="0" fill="none" rx="0" y="90.32252134632836"/></g><g fill="none" stroke-linejoin="round" id="strokes-6c84a63e-5786-8088-8006-2ee310066b27-9a25a056-8559-8064-8005-f6862f34606f" class="strokes"><g class="stroke-shape"><rect rx="0" ry="0" x="181.8996350364905" y="90.32252134632836" transform="matrix(1.000000, 0.000000, 0.000000, 1.000000, 0.000000, 0.000000)" width="16.684306569350156" height="16.53005751102637" style="fill: none; stroke-width: 2.79608; stroke: rgb(255, 255, 255); stroke-opacity: 1;"/></g></g></g><g id="shape-9a25a056-8559-8064-8005-f6862f346070"><g class="fills" id="fills-9a25a056-8559-8064-8005-f6862f346070"><path d="M196.387,93.498C195.670,92.787,194.697,92.388,193.683,92.388C192.669,92.388,191.696,92.787,190.979,93.498L190.242,94.228L189.505,93.498C188.011,92.018,185.590,92.018,184.096,93.498C182.603,94.977,182.603,97.376,184.096,98.856L184.833,99.586L190.242,104.945L195.650,99.586L196.387,98.856C197.105,98.146,197.508,97.182,197.508,96.177C197.508,95.172,197.105,94.208,196.387,93.498ZZ" fill="none" stroke-linejoin="round" style="fill: rgb(255, 255, 255); fill-opacity: 1;"/></g><g fill="none" stroke-linejoin="round" id="strokes-6c84a63e-5786-8088-8006-2ee3100690a5-9a25a056-8559-8064-8005-f6862f346070" class="strokes"><g class="stroke-shape"><path d="M196.387,93.498C195.670,92.787,194.697,92.388,193.683,92.388C192.669,92.388,191.696,92.787,190.979,93.498L190.242,94.228L189.505,93.498C188.011,92.018,185.590,92.018,184.096,93.498C182.603,94.977,182.603,97.376,184.096,98.856L184.833,99.586L190.242,104.945L195.650,99.586L196.387,98.856C197.105,98.146,197.508,97.182,197.508,96.177C197.508,95.172,197.105,94.208,196.387,93.498ZZ" style="fill: none; stroke-width: 0.8; stroke: rgb(255, 255, 255); stroke-opacity: 1;"/></g></g></g></g><g id="shape-9a25a056-8559-8064-8005-f6862f346048" rx="0" ry="0"><g id="shape-9a25a056-8559-8064-8005-f6862f346071"><g class="fills" id="fills-9a25a056-8559-8064-8005-f6862f346071"><path d="M192.244,98.789L194.600,131.851L202.924,119.695L214.813,119.720L192.244,98.789ZZ" stroke-miterlimit="10" style="fill-rule: nonzero; clip-rule: evenodd; stroke-linejoin: round; fill: rgb(255, 30, 189); fill-opacity: 1;"/></g><g stroke-miterlimit="10" id="strokes-6c84a63e-5786-8088-8006-2ee31006f670-9a25a056-8559-8064-8005-f6862f346071" class="strokes" style="fill-rule: nonzero; clip-rule: evenodd; stroke-linejoin: round;"><g class="inner-stroke-shape"><defs><clipPath id="inner-stroke-render-58-9a25a056-8559-8064-8005-f6862f346071-0"><use href="#stroke-shape-render-58-9a25a056-8559-8064-8005-f6862f346071-0"/></clipPath><path d="M192.244,98.789L194.600,131.851L202.924,119.695L214.813,119.720L192.244,98.789ZZ" id="stroke-shape-render-58-9a25a056-8559-8064-8005-f6862f346071-0" style="fill: none; stroke-width: 3; stroke: rgb(191, 191, 191); stroke-opacity: 1;"/></defs><use href="#stroke-shape-render-58-9a25a056-8559-8064-8005-f6862f346071-0" clip-path="url('#inner-stroke-render-58-9a25a056-8559-8064-8005-f6862f346071-0')"/></g></g></g></g></g></svg>