<svg xmlns="http://www.w3.org/2000/svg" width="500" height="500" viewBox="0 0 500 500">
  <path d="M117.44034 113.84439c-21.359973 0-40.545587 3.67111-57.698592 11.11474-17.152586 7.28181-30.49689 17.45647-39.882316 30.40209-9.385467 12.94562-14.0568817 26.95961-14.0568817 42.17065H76.005234c0-9.87094 3.254104-17.62838 9.888852-23.29193 6.796261-5.66355 16.137404-8.49951 27.950314-8.49951 13.431 0 23.19029 3.66966 29.33965 10.95129 6.31087 7.28165 9.48022 16.95854 9.48022 29.09448v15.0376h-32.28179c-38.997948.16193-68.859023 7.75095-89.571756 22.63811C10.25984 258.34908 4.2e-7 279.70236 4.2e-7 307.53514c0 22.6542 8.42430078 41.42209 25.25335158 56.30925 16.991068 14.88717 38.344351 22.31122 64.073226 22.31122 27.185462 0 49.288762-9.42633 66.279832-28.35895 1.45616 9.38555 3.79184 17.22624 7.02844 23.53711h70.8565v-4.16802c-6.79626-12.78368-10.29942-31.63439-10.46094-56.55443V206.76691c0-29.45088-9.50957-52.22311-28.60412-68.40471-18.93262-16.34362-44.62233-24.51781-76.98595-24.51781zm266.50868 0c-21.35998 0-40.5456 3.67111-57.6986 11.11474-17.15259 7.28181-30.41504 17.45647-39.80059 30.40209-9.38514 12.94562-14.13861 26.95961-14.13861 42.17065h70.20268c0-9.87094 3.25411-17.62838 9.88886-23.29193 6.79626-5.66355 16.13782-8.49951 27.95031-8.49951 13.431 0 23.1903 3.66966 29.33965 10.95129 6.31087 7.28165 9.48024 16.95854 9.48024 29.09448v15.0376h-32.28181c-38.99794.16193-68.8591 7.75095-89.57175 22.63811-20.55072 14.88717-30.81073 36.24045-30.81073 64.07323 0 22.6542 8.42422 41.42209 25.25335 56.30925 16.99107 14.88717 38.34435 22.31122 64.07323 22.31122 27.18546 0 49.28835-9.42633 66.27982-28.35895 1.45616 9.38555 3.79397 17.22624 7.02845 23.53711H500v-4.16802c-6.79542-12.78368-10.29775-31.63439-10.46094-56.55443V206.76691c0-29.45088-9.51079-52.22311-28.60408-68.40471-18.93011-16.34362-44.62234-24.51781-76.98596-24.51781zM126.43021 261.85027h26.23406v45.19451c-4.20738 7.76704-10.71257 13.94077-19.4508 18.63354-8.73822 4.53084-18.24779 6.86499-28.60412 6.86499-10.680194 0-19.104411-2.83596-25.253348-8.49951-6.149357-5.66355-9.235044-12.91917-9.235044-21.6574l.245205-4.08629c2.265395-24.27273 20.949617-36.44984 56.064047-36.44984zm266.50867 0h26.23408v45.19451c-4.20824 7.76704-10.63086 13.94077-19.36909 18.63354-8.73781 4.53084-18.32952 6.86499-28.68585 6.86499-10.67978 0-19.10441-2.83596-25.25335-8.49951-6.14935-5.66355-9.23504-12.91917-9.23504-21.6574l.2452-4.08629c2.2654-24.27273 20.94962-36.44984 56.06405-36.44984z"/>
</svg>
