<svg xmlns="http://www.w3.org/2000/svg" viewBox="0 0 16 16" stroke-linecap="round" stroke-linejoin="round">
    <path d="M4 11V5a1 1 0 011-1h6a1 1 0 011 1v6a1 1 0 01-1 1H5a1 1 0 01-1-1zM1.337 10.328a.335.335 0 10-.67 0 .335.335 0 00.67 0zM1.337 7.998a.335.335 0 10-.67 0 .335.335 0 00.67 0zM1.337 5.668a.335.335 0 10-.67 0 .335.335 0 00.67 0zM15.33 10.328a.335.335 0 10-.67 0 .335.335 0 00.67 0zM15.33 7.998a.335.335 0 10-.67 0 .335.335 0 00.67 0zM15.33 5.668a.335.335 0 10-.67 0 .335.335 0 00.67 0zM5.671 1.338a.335.335 0 10-.002-.67.335.335 0 00.002.67zM8.001 1.338a.335.335 0 10-.002-.67.335.335 0 00.002.67zM10.331 1.338a.336.336 0 10-.001-.671.336.336 0 00.001.671zM5.671 15.332a.336.336 0 000-.67.335.335 0 100 .67zM8.001 15.332a.336.336 0 000-.67.335.335 0 100 .67zM10.331 15.332a.335.335 0 100-.67.335.335 0 000 .67z"/>
</svg>
