<svg height="500" viewBox="0 0 500 500.00001" width="500" xmlns="http://www.w3.org/2000/svg"><path d="m22.5 0c-11.26 0-22.5 9.125-22.5 22.02v129.732c0 12.894 11.24 22.02 22.5 22.02h189.152c11.26 0 22.5-9.126 22.5-22.02v-129.732c0-12.895-11.24-22.02-22.5-22.02zm265.848 0c-11.26 0-22.5 9.125-22.5 22.02v219.773c0 12.894 11.24 22.02 22.5 22.02h189.152c11.26 0 22.5-9.126 22.5-22.02v-219.773c0-12.895-11.24-22.02-22.5-22.02zm-253.348 35h164.152v103.77h-164.152zm265.848 0h164.152v193.814h-164.152zm-278.348 171.525c-11.26 0-22.5 9.126-22.5 22.02v249.435c0 12.895 11.24 22.02 22.5 22.02h189.152c11.26 0 22.5-9.125 22.5-22.02v-249.435c0-12.894-11.24-22.02-22.5-22.02zm12.5 35h164.152v223.475h-164.152zm253.348 60.34c-11.26 0-22.5 9.125-22.5 22.02v154.095c0 12.895 11.24 22.02 22.5 22.02h189.152c11.26 0 22.5-9.125 22.5-22.02v-154.095c0-12.894-11.24-22.02-22.5-22.02zm12.5 35h164.152v128.135h-164.152z"/></svg>