<svg xmlns="http://www.w3.org/2000/svg" width="500" height="500"><path d="M436.58 250c0 23.2-18.35 42.009-40.991 42.009h-354.6C18.353 292.009 0 273.2 0 250c0-23.2 18.352-42.008 40.99-42.008h354.599c22.64 0 40.99 18.808 40.99 42.008z"/><path d="M368.395 287.862c20.447-20.893 20.447-54.83 0-75.724l-137.27-140.28c-16.087-16.438-16.087-43.14 0-59.579 16.02-16.372 41.946-16.372 57.967 0l195.575 199.86c20.444 20.892 20.444 54.83 0 75.723l-195.575 199.86c-16.02 16.371-41.947 16.371-57.968 0-16.086-16.438-16.086-43.141 0-59.579z"/></svg>
