<svg xmlns="http://www.w3.org/2000/svg" viewBox="0 0 500 500">
  <path d="M369.205 7.23c-17.208.104-47.593 2.472-64.201 5.287-20.773 3.52-52.639 11.881-69.555 18.25l-14.548 5.476-7.122-5.436c-30.798-23.51-75.188-27.152-111.754-9.173-39.687 19.513-61.526 54.611-61.526 98.88 0 18.37 2.388 29.96 9.19 44.577l4.4 9.453-7.692 12.354c-16.232 26.07-30.749 58.736-37.94 85.375-4.02 14.893-8.44 39.23-8.45 46.528L0 323.085h17.745c19.1 0 19.638-.241 19.638-8.762 0-11.84 10.285-47.998 19.87-69.847 5.487-12.511 20.226-39.771 21.502-39.771.372 0 4.006 2.368 8.077 5.266 33.324 23.72 76.736 26.357 114.547 6.957 18.167-9.32 36.82-28.2 45.929-46.491 9.176-18.427 11.88-29.97 11.852-50.623-.024-18.36-2.286-29.476-9.157-45.013l-3.925-8.875 5.188-2.169c8.812-3.682 39.855-11.478 59.482-14.94 11.955-2.11 28.655-3.6 46.34-4.135 15.206-.46 27.713-.914 27.793-1.013.08-.099.979-8.028 1.996-17.617l1.85-17.436L378.68 7.54c-2.236-.239-5.506-.334-9.477-.31zM153.993 47.255c5.439.115 10.535.69 14.48 1.752 24.16 6.506 43.998 25.871 51.372 50.149 2.71 8.92 3.163 13.509 2.531 25.582-.695 13.29-1.381 15.947-7.112 27.478-10.13 20.38-27.473 34.334-48.661 39.153-5.872 1.336-14.045 2.37-18.16 2.297-32.296-.571-61.53-23.72-69.734-55.217-9.66-37.085 12.4-76.769 48.947-88.057 7.251-2.24 17.272-3.328 26.337-3.137zm194.549 141.863c-4.948 0-7.23 1.055-11.473 5.297l-5.293 5.296v123.363l-58.022.016c-34.96.005-60.316.647-63.793 1.612-12.302 3.417-16.2 17.153-7.6 26.781l4.546 5.09 62.043.779 62.047.779.779 61.79.779 61.792 3.894 4.19c2.141 2.303 5.296 4.766 7.009 5.475 1.713.709 3.662 1.333 4.332 1.388 2.784.225 11.463-4.39 14.36-7.637 2.987-3.348 3.134-6.05 3.586-65.636l.472-62.141h123.199l5.296-5.297c4.242-4.242 5.297-6.525 5.297-11.472 0-7.85-4.523-13.764-12.145-15.88-3.477-.966-28.829-1.613-63.79-1.613l-58.021-.015-.01-58.022c-.004-34.961-.646-60.313-1.612-63.79-2.117-7.622-8.03-12.145-15.88-12.145z"/>
</svg>
