<svg xmlns="http://www.w3.org/2000/svg" viewBox="0 0 500 500">
  <path d="M240.326 76.886c-7.638-.006-15.27.99-21.109 2.996-22.013 7.56-39.34 26.373-44.518 48.333-4.5 19.09-.083 40.81 11.353 55.816l3.04 3.988-43.821 54.644c-34.23 42.682-44.261 54.454-45.828 53.78-24.235-10.42-43.288-10.479-63.935-.196-14.994 7.466-28.572 24.15-33.606 41.289-2.234 7.604-2.571 25.97-.633 34.384 5.389 23.385 27.168 44.357 51.567 49.65 22.91 4.972 45.72-2.198 62.206-19.553 13.156-13.85 18.529-27.186 18.555-46.053.017-12.292-2.3-22.187-7.466-31.88l-3.726-6.988 44.836-55.895 44.837-55.897 7.058 2.59c5.629 2.063 9.92 2.594 21.163 2.62 12.469.028 15.087-.353 22.59-3.289 4.669-1.826 9.252-3.954 10.187-4.73 1.33-1.104 2.311-.766 4.517 1.557 2.064 2.173 81.858 93.81 97.285 111.724 1.585 1.84 1.306 3.028-2.505 10.647-17.899 35.777.792 80.37 39.04 93.145 16.958 5.664 33.836 4.499 50.65-3.499 36.251-17.243 49.065-62.73 27.251-96.724-5.382-8.387-17.147-19.038-25.927-23.47-18.635-9.407-42.082-9.637-59.938-.589l-5.64 2.858-42.274-48.494c-23.25-26.672-46.063-52.846-50.7-58.166l-8.43-9.673 3.884-7.892c7-14.22 8.867-28.714 5.65-43.896-4.87-22.983-22.14-42.445-44.467-50.11-5.866-2.014-13.509-3.022-21.147-3.027zm.929 28.928c5.153.09 10.157 1.013 14.05 2.795 14.35 6.57 21.879 17.418 22.734 32.755.893 16.027-6.018 28.847-19.518 36.202-5.483 2.988-8.298 3.655-16.996 4.022-9.491.4-11.086.119-17.831-3.14-28.557-13.797-29.16-54.64-1.018-68.915 5.08-2.577 11.953-3.836 18.579-3.72zM431.067 317.35c3.412-.105 6.882.28 10.354 1.169 12.355 3.165 20.235 9.339 25.942 20.327 2.416 4.65 2.867 7.35 2.867 17.168 0 10.626-.32 12.227-3.643 18.227-4.347 7.847-11.71 14.195-20.215 17.427-3.837 1.458-9.14 2.336-13.865 2.297-21.382-.179-37.694-16.329-37.694-37.316 0-11.152 2.56-18.641 8.797-25.726 7.532-8.557 17.223-13.258 27.457-13.573zm-364.48.122c15.176.033 28.573 8.515 35.241 22.31 3.905 8.078 4.064 22.996.333 31.096-3.607 7.831-10.761 15.386-18.138 19.154-6.632 3.387-21.483 4.956-27.668 2.922-33.797-11.112-38.072-55.336-6.889-71.243 7.245-3.695 9.505-4.256 17.12-4.239z"/>
</svg>
