<svg xmlns="http://www.w3.org/2000/svg" viewBox="0 0 500 500">
  <path d="M152.054 49.928a62.098 62.098 0 00-11.937 1.287c-20.8 4.306-41.307 22.573-47.077 41.934l-1.986 6.667-45.527.002H0v27.838h45.817c44.105 0 45.817.082 45.817 2.186 0 1.202 2.162 6.507 4.805 11.787 8.528 17.04 25.217 30.27 43.07 34.15v.002c31.335 6.808 63.86-11.457 74.061-41.592l2.016-5.951h67.693l2.677 7.392c8.759 24.188 33.964 41.864 59.7 41.864 26.285 0 54.078-20.373 60.488-44.34l1.463-5.471 45.87-.304 45.868-.301.326-13.615.329-13.618-45.984-.302-45.983-.303-2.591-7.161c-11.009-30.405-43.206-47.787-74.745-40.353-20.388 4.806-38.75 21.616-45.547 41.698l-1.969 5.816-33.622.306-33.621.308-1.398-4.368c-8.83-27.617-34.783-45.852-62.486-45.559zm193.93 27.322c8.762.005 17.597 3.217 24.615 10.276 8.755 8.806 10.435 13.027 10.435 26.211 0 10.05-.303 11.568-3.446 17.243-3.541 6.392-9.705 12.199-16.853 15.876-6.239 3.21-21.047 3.48-28.506.523-15.69-6.22-25.068-22.733-22.422-39.475 3-18.972 19.452-30.662 36.177-30.654zm-192.682.1c21.682.255 41.471 20.325 35.316 44.35-3.002 11.72-8.978 19.23-19.714 24.77-3.396 1.754-7.455 2.58-14.055 2.855-11.988.502-19.297-2.217-27.199-10.12-15.693-15.693-13.671-41.92 4.232-54.919 6.757-4.906 14.193-7.022 21.42-6.937zm86.801 83.944v106.11l-22.34-22.317c-18.392-18.375-22.912-22.317-25.592-22.317-7.412 0-11.254 5.433-8.448 11.945.88 2.043 15.142 17.154 31.693 33.581 27.498 27.292 30.434 29.868 34.037 29.868 3.614 0 6.58-2.635 35.575-31.63 26.934-26.935 31.63-32.134 31.63-35.013 0-4.827-4.09-8.751-9.123-8.751-3.748 0-5.902 1.813-26.477 22.29l-22.396 22.29V161.293h-9.28zm-86.946 162.402c-17.286.024-30.241 5.04-42.398 16.411-8.6 8.044-13.832 15.762-17.435 25.713l-2.592 7.159-45.366.304L0 373.586v26.624l45.366.304 45.366.303 2.567 7.091c3.905 10.787 7.848 16.69 16.737 25.077 8.172 7.709 18.697 13.76 27.553 15.84 7.612 1.787 26.073 1.472 32.998-.562 10.323-3.032 19.754-8.704 27.78-16.708 24.805-24.738 24.797-64.496-.02-89.314-12.771-12.77-26.903-18.57-45.19-18.545zm189.792.01c-4.188.032-8.127.367-11.285 1.042-27.91 5.971-49.77 33.268-49.77 62.151 0 27.744 20.105 54.286 46.495 61.383 9.722 2.615 27.46 2.33 36.152-.582 20.148-6.75 36.39-23.049 42.038-42.181l1.389-4.7 45.98-.304 45.977-.302V373.587l-45.977-.303-45.98-.304-1.39-4.7c-5.19-17.586-19.866-33.307-38.104-40.822-5.902-2.432-16.312-3.823-25.525-3.752zm-189.815 27.26c7.545-.02 9.77.49 16.463 3.786 12.843 6.323 19.783 17.585 19.918 32.32.067 7.257-.425 9.275-3.955 16.195-4.678 9.171-12.244 15.706-21.352 18.448-14.165 4.263-28 .237-38.212-11.121-12.826-14.266-11.536-37.323 2.814-50.287 7.517-6.791 14.083-9.313 24.324-9.34zm192.522.02c11.51.038 18.931 3.3 26.603 11.695 7.279 7.964 9.754 15.076 9.162 26.336-.724 13.78-7.532 24.283-19.76 30.48-15.68 7.945-36.509 2.49-46.167-12.091-12.337-18.625-5.23-43.961 14.981-53.416 5.212-2.437 8.187-3.027 15.18-3.004z"/>
</svg>
