<svg xmlns="http://www.w3.org/2000/svg" viewBox="0 0 500 500">
  <path d="M153.658 49.909c-9.284-.067-18.58 2.134-28 6.604-14.775 7.01-27.865 21.741-32.482 36.555l-2.122 6.813-45.527.011L0 99.902v27.838h91.267l1.456 4.929c4.692 15.893 17.009 30.16 32.684 37.858 5.348 2.627 12.594 5.236 16.103 5.798v-.002c14.512 2.323 27.764.414 40.597-5.852 9.498-4.637 22.415-17.376 27.548-27.168 16.568-31.6 3.864-70.693-28.069-86.384-9.372-4.606-18.644-6.942-27.928-7.01zm191.998.15c-40.132 0-71.217 38.53-62.144 77.025 5.775 24.503 24.788 43.62 48.515 48.774 30.871 6.706 62.672-10.702 73.33-40.144l2.676-7.395 45.656-.58 45.656-.58.326-13.615.329-13.616-45.944-.303-45.943-.304-2.048-5.8c-3.738-10.572-7.3-16.152-15.628-24.485-12.693-12.7-27.501-18.977-44.781-18.977zm-192.248 27.19c18.884-.143 35.996 15.864 36.123 35.411.095 14.556-6.684 26.231-19.177 33.03-8.38 4.562-21.758 5.304-30.835 1.711-23.34-9.239-29.882-41.303-12.05-59.063 6.167-6.142 11.358-8.866 20.038-10.512a32.999 32.999 0 015.901-.577zm192.792.179c4.012.054 8.122.746 12.204 2.13 8.695 2.946 18.563 12.748 21.386 21.247 5.898 17.758-1.087 36.285-16.93 44.908-5.048 2.748-7.826 3.415-15.448 3.716-15.35.605-26.662-5.572-33.622-18.36-2.73-5.015-3.47-8-3.87-15.622-.441-8.41-.15-10.197 2.726-16.604 6.134-13.67 19.223-21.61 33.554-21.415zm-104.937 83.949v52.776c0 29.027-.396 52.776-.881 52.776s-10.789-9.917-22.897-22.038c-18.922-18.942-22.51-22.038-25.539-22.038-5.519 0-8.679 2.872-8.679 7.888 0 4.05 1.673 5.949 31.601 35.892 27.256 27.27 32.075 31.614 35.063 31.614 2.988 0 7.816-4.35 35.097-31.63 26.934-26.935 31.63-32.134 31.63-35.013 0-4.827-4.09-8.751-9.123-8.751-3.748 0-5.902 1.813-26.477 22.29l-22.396 22.29V161.376h-8.7zm8.167 162.402c-17.663.025-30.355 5.073-43.182 17.172-8.831 8.331-12.776 14.25-16.676 25.022l-2.567 7.09-93.502.296L0 373.656v26.651l93.552.296 93.555.297 1.976 5.813c6.953 20.456 23.444 36.374 43.193 41.692 8.445 2.274 26.75 2.245 34.585-.057 20.168-5.924 36.966-22.166 43.372-41.938l1.971-6.09h187.721v-26.678H312.328l-2.62-7.25c-3.843-10.623-7.807-16.832-15.752-24.675-12.44-12.279-26.547-17.963-44.526-17.938zm-.022 27.28c7.558-.03 9.757.474 16.463 3.775 12.855 6.329 19.843 17.664 19.852 32.202.008 14.208-7.952 26.899-20.6 32.844-10.227 4.808-23.042 4.302-33.857-1.336-5.449-2.84-13.91-12.902-15.994-19.017-2.432-7.134-2.353-18.112.179-25.228 2.752-7.739 11.453-17.055 19.12-20.475 4.62-2.061 8.243-2.737 14.837-2.764z"/>
</svg>
