<svg xmlns="http://www.w3.org/2000/svg" viewBox="0 0 500 500">
  <path d="M382.316 7.667c-15.872-.235-47.714 1.104-61.212 2.962-32.005 4.406-69.244 13.896-91.83 23.404-5.342 2.248-5.66 2.17-12.837-3.097-19.326-14.187-46.622-22.07-71.126-20.543-28.405 1.77-51.076 12.049-71.622 32.469C62.492 53.99 58.965 58.777 52.85 71.166c-4.049 8.201-8.392 19.858-9.654 25.903-4.806 23.036-2.052 48.437 7.618 70.27l4.002 9.037-8.038 12.944C22.47 228.47 5.202 276.39.954 316.487L0 325.514h37.706v-4.857c0-8.476 6.08-35.068 11.862-51.898 5.203-15.145 23.164-53.485 28.07-59.924 2.055-2.695 2.593-2.546 9.982 2.763 18.245 13.108 39.461 19.651 63.818 19.688 19.01.028 32.058-2.936 48.77-11.083 20.733-10.106 37.148-25.702 48.62-46.2 16.004-28.594 17.686-68.546 4.11-97.557-2.555-5.46-4.16-10.218-3.566-10.57 4.07-2.412 34.919-11.042 50.904-14.241 25.404-5.084 45.493-7.163 69.148-7.163h19.396l1.837-17.56c1.01-9.656 1.43-17.958.935-18.448-.472-.467-3.986-.719-9.276-.797zm-232 39.589c31.396-.398 60.367 18.651 70.892 49.243 14.655 42.593-12.027 88.727-56.154 97.096-40.307 7.644-79.611-20.22-86.55-61.359-5.849-34.673 16.49-71.17 49.886-81.5 7.307-2.26 14.68-3.388 21.926-3.48zm248.571 276.676c-14.803 0-31.883.013-51.597.013H205.39l-5.339 5.339c-4.147 4.147-5.339 6.633-5.339 11.146 0 4.514 1.192 7 5.34 11.147l5.338 5.34h142.037c140.026 0 142.093-.046 146.06-3.165 5.961-4.69 8.104-12.502 5.28-19.261-4.135-9.896 3.743-10.55-99.88-10.559z"/>
</svg>
