<svg xmlns="http://www.w3.org/2000/svg" viewBox="0 0 500 500">
  <path d="M155.038 59.376c-7.443-.052-15.18.864-20.535 2.69-20.133 6.863-36.071 23.005-41.768 42.3l-1.455 4.93H0V135.979h91.28l1.475 4.931c6 20.05 23.953 37.66 44.136 43.29 7.054 1.969 25.896 2 33.194.057 21.222-5.65 39.566-23.908 45.167-44.949 2.249-8.45 2.153-25.69-.186-33.57-6.428-21.65-22.802-38.026-44.453-44.453-4.174-1.24-9.786-1.867-15.575-1.908zm190.565.095c-6.156.014-12.202.613-16.216 1.793-24.192 7.11-41.7 26.563-45.921 51.019-2.774 16.072.83 32.936 9.836 46.025 8.177 11.885 24.185 23.284 36.883 26.265 7.662 1.8 26.08 1.473 33.003-.582 20.662-6.134 37.43-22.234 43.66-41.922l1.928-6.09H500v-26.683h-91.28l-1.455-4.93c-5.868-19.876-24.577-37.914-44.784-43.177-4.455-1.16-10.721-1.732-16.878-1.718zm.347 27.059c5.526-.055 11.025.973 15.419 3.092 11.058 5.335 17.918 14.416 20.621 27.303 1.127 5.372 1.028 7.631-.603 13.85-1.072 4.085-3.256 9.502-4.855 12.035-3.862 6.118-12.413 12.5-19.61 14.637-15.79 4.69-31.64-1.088-41.055-14.966-4.473-6.592-6.104-11.96-6.115-20.09-.015-13.175 8.437-26.475 20.625-32.46 4.496-2.208 10.048-3.346 15.573-3.401zm-192.238.201c7.87-.048 10.279.433 15.847 3.168 7.574 3.72 14.092 10.413 17.62 18.095 3.449 7.512 3.449 21.775 0 29.287-3.496 7.614-10.033 14.372-17.375 17.964-12.344 6.04-28.096 4.476-38.476-3.818-21.412-17.11-17.161-50.665 7.883-62.228 3.857-1.781 7.645-2.426 14.501-2.468zm.58 174.538V303.032h45.244V261.269h-22.622zm135.731 0V303.032h46.404V261.269h-23.202zm-135.73 66.125l.017 23.492c.013 16.594.519 25.622 1.727 30.747 4.72 20.018 20.215 38.639 40.16 48.261 11.226 5.417 20.761 8.334 32.89 10.063 10.704 1.526 33.464.318 44.695-2.372 5.423-1.3 14.82-4.809 20.882-7.8 20.746-10.235 35.624-28.679 40.018-49.607 1.154-5.497 1.71-15.336 1.724-30.452l.02-22.332H290.024v21.618c0 13.581-.525 23.392-1.411 26.392-2.034 6.884-11.44 15.955-19.783 19.076-19.65 7.352-46.297 4.152-58.41-7.013-9.153-8.437-10.211-12.165-10.702-37.741l-.428-22.332h-22.497z"/>
</svg>
