<svg xmlns="http://www.w3.org/2000/svg" viewBox="0 0 500 500">
  <path d="M244.577 79.225a61.421 61.421 0 00-15.436 1.605c-21.988 5.173-41.986 23.143-48.381 43.474l-2.134 6.78H74.925v-20.543H0V185.466H74.925v-25.378h31.66c17.415 0 31.146.455 30.514 1.012-.631.558-4.41 3.48-8.398 6.496-10.714 8.103-26.93 25.517-34.648 37.205-15.054 22.799-25.433 49.97-30.521 79.91-.689 4.05-1.132 4.442-5.856 5.197-13.48 2.154-31.265 14.57-40.243 28.097-7.4 11.147-10.57 21.889-10.638 36.041-.09 18.774 6.174 34.098 19.329 47.293 8.576 8.603 23.71 16.734 34.3 18.43 22.872 3.661 42.976-2.674 58.645-18.482 13.554-13.673 19.846-28.637 19.886-47.29.054-26.118-17.983-52.66-41.525-61.103-2.576-.924-4.944-2.356-5.261-3.182-.785-2.046 2.847-17.999 6.989-30.702 12.624-38.72 37.846-68.227 71.689-83.864 4.98-2.3 9.596-4.182 10.257-4.182.662 0 2.466 2.568 4.008 5.71 4.408 8.979 17.8 22.3 27.592 27.445 9.31 4.892 21.229 7.888 31.406 7.893 23.718.01 48.035-15.184 58.641-36.644 2.511-5.08 5.162-9.234 5.891-9.228.73.006 7.094 2.368 14.14 5.247 36.538 14.927 63.7 43.54 79.59 83.841 4.193 10.636 11.574 35.522 10.635 35.863-.174.063-4.469 2.174-9.543 4.692-15.007 7.447-27.018 20.919-32.555 36.511-3.566 10.043-4.46 27.758-1.905 37.734 8.049 31.416 38.098 53.27 69.477 50.531 32.832-2.865 57.406-27.371 61.24-61.074 1.837-16.142-5.55-36.943-17.82-50.187-9.88-10.664-21.227-16.86-37.328-20.386-2.781-.609-3.341-1.606-4.647-8.263-2.366-12.061-10.426-35.322-17.03-49.146-11.797-24.697-30.196-48.268-49.313-63.175-4.413-3.441-8.54-6.703-9.172-7.249-.631-.545 10.925-.991 25.68-.991h26.83v25.378h76.132V110.54H416.92v20.544H308.54l-1.536-5.136c-8.14-27.222-34.67-46.113-62.427-46.724zm.248 28.594c20.076.653 38.59 17.524 36.445 41.178-1.165 12.848-9.105 24.698-20.494 30.592-6.773 3.504-23.247 4.32-30.837 1.529-7.329-2.695-16.54-11.483-20.483-19.54-2.762-5.646-3.354-8.461-3.354-15.956 0-12.011 3.38-19.722 12.17-27.755 7.978-7.291 17.427-10.344 26.553-10.048zM73.66 316.54c22.939.427 41.895 22.783 35.85 46.377-3.136 12.24-9.355 20.058-20.549 25.836-6.296 3.25-22.152 4.16-28.694 1.647-35.199-13.525-32.897-63.035 3.378-72.64a36.407 36.407 0 0110.015-1.22zm359.468.18c7.514-.066 9.858.475 16.756 3.87 14.635 7.205 22.116 19.953 21.124 36-.883 14.288-8.57 25.912-21.226 32.104-6.893 3.372-21.443 4.308-28.172 1.81-11.325-4.203-20.124-12.775-23.648-23.034-8.6-25.039 9.058-50.521 35.166-50.75zM561.389 720.95c-6.416-.046-13.085.744-17.701 2.318-17.355 5.916-31.094 19.83-36.004 36.462l-1.254 4.25h-78.684v23h78.684l1.271 4.25c5.172 17.284 20.647 32.463 38.045 37.317 6.08 1.696 22.323 1.724 28.614.049 18.293-4.871 34.106-20.609 38.933-38.746 1.939-7.284 1.856-22.146-.16-28.938-5.54-18.663-19.656-32.778-38.318-38.318-3.599-1.069-8.436-1.61-13.426-1.645zm164.267.081c-5.306.012-10.518.528-13.978 1.545-20.853 6.13-35.946 22.898-39.584 43.979-2.39 13.854.716 28.39 8.478 39.673 7.049 10.245 20.848 20.071 31.793 22.641 6.605 1.55 22.482 1.27 28.45-.502 17.81-5.287 32.264-19.166 37.634-36.137l1.663-5.25h78.634v-23H780.063l-1.254-4.25c-5.059-17.133-21.186-32.682-38.604-37.218-3.84-1-9.242-1.493-14.549-1.48zm.3 23.324c4.762-.047 9.503.84 13.29 2.666 9.532 4.598 15.446 12.427 17.776 23.536.971 4.63.886 6.578-.52 11.937-.924 3.523-2.807 8.191-4.185 10.375-3.33 5.274-10.7 10.775-16.905 12.617-13.61 4.042-27.272-.938-35.388-12.9-3.856-5.683-5.262-10.31-5.272-17.318-.012-11.357 7.273-22.822 17.78-27.98 3.875-1.904 8.66-2.885 13.423-2.933zm-165.71.174c6.784-.041 8.86.373 13.66 2.73 6.529 3.207 12.148 8.977 15.188 15.598 2.973 6.476 2.973 18.77 0 25.246-3.013 6.563-8.648 12.388-14.977 15.485-10.64 5.206-24.218 3.858-33.166-3.291-18.457-14.748-14.793-43.673 6.795-53.64 3.325-1.536 6.59-2.092 12.5-2.128zm.5 150.451v36h39v-36h-19.5zm117 0v36h40v-36h-20zm-117 57l.016 20.25c.01 14.304.447 22.087 1.488 26.504 4.069 17.256 17.425 33.307 34.617 41.602 9.678 4.669 17.897 7.183 28.352 8.674 9.227 1.315 28.846.274 38.527-2.045 4.675-1.12 12.775-4.145 18-6.723 17.883-8.823 30.709-24.722 34.496-42.762.995-4.738 1.475-13.22 1.487-26.25l.017-19.25h-40v18.635c0 11.707-.452 20.164-1.216 22.75-1.754 5.934-9.862 13.753-17.053 16.444-16.938 6.337-39.908 3.58-50.35-6.045-7.89-7.273-8.802-10.487-9.224-32.534l-.37-19.25h-19.392z"/>
</svg>
