<svg xmlns="http://www.w3.org/2000/svg" viewBox="0 0 500 500">
  <path d="M346.165 49.901c-16.103 0-32.178 6.191-44.549 18.575-12.774 12.787-18.57 26.914-18.545 45.198.025 17.844 5.108 30.457 17.546 43.552 10.039 10.568 22.881 17.471 36.377 19.553 11.454 1.766 28.106-1.306 40.022-7.386 11.49-5.862 25.093-22.04 29.546-35.14l2.247-6.614h91.154V99.8h-91.267l-1.454-4.93c-2.681-9.08-8.7-18.786-16.362-26.388-12.483-12.386-28.613-18.58-44.715-18.582zm-192.833.023c-25.936 0-51.304 18.185-59.43 42.602L91.483 99.8H.037v27.839h91.455l1.389 4.35c6.9 21.58 25.856 39.02 47.507 43.71 15.063 3.261 26.846 1.762 41.53-5.286 39.44-18.931 47.91-71.2 16.531-102.023-12.554-12.332-27.54-18.466-45.116-18.466zm.293 27.39c7.232-.064 9.457.454 16.182 3.765 27.18 13.38 27.066 51.98-.195 65.318-5.817 2.846-20.076 4.093-25.745 2.251-10.381-3.371-19.176-11.16-23.56-20.867-3.633-8.042-3.4-20.744.534-29.14 6.2-13.232 18.452-21.202 32.784-21.328zm192.737.054c13.171.05 26.326 7.058 33.064 20.998 3.82 7.903 3.83 21.67.02 30.165-3.68 8.21-13.364 17.033-21.27 19.381-7.653 2.273-18.634 2.12-25.158-.35-7.3-2.765-16.618-11.672-19.909-19.03-3.906-8.736-3.864-22.34.093-30.422 6.801-13.887 19.988-20.793 33.16-20.742zM241.3 161.276v106.11l-22.34-22.317c-20.314-20.294-22.7-22.317-26.314-22.317-5.177 0-9.342 3.83-9.342 8.588 0 3.093 4.032 7.578 31.63 35.176 29.126 29.126 31.949 31.63 35.618 31.63 3.66 0 6.431-2.435 33.989-29.867 16.502-16.428 30.775-31.328 31.718-33.115 3.133-5.934-.815-12.412-7.564-12.412-3.854 0-5.796 1.637-26.497 22.317l-22.34 22.317v-106.11h-9.279zm104.972 162.391c-18.015 0-32.164 5.828-44.777 18.441-7.684 7.685-13.285 16.865-16.17 26.508l-1.475 4.93-33.745-.014-33.744-.011-2.186-7.012c-5.88-18.86-24-35.894-43.782-41.159-8.405-2.237-25.676-2.152-33.565.166-20.361 5.98-38.903 24.167-43.937 43.096l-1.31 4.93H.038V400.22H91.628l.734 3.19c1.88 8.15 8.983 20.39 15.915 27.423 8.186 8.305 15.494 12.922 26.311 16.624 9.042 3.094 26.063 3.546 35.806.953 19.77-5.262 38.566-22.993 44.009-41.517l1.96-6.67 33.743-.001h33.745l1.474 4.93c2.886 9.642 8.487 18.823 16.171 26.508 12.613 12.612 26.762 18.438 44.777 18.438 18.016 0 32.165-5.826 44.777-18.438 7.685-7.685 13.286-16.866 16.171-26.508l1.475-4.93h91.267V373.544h-91.267l-1.475-4.93c-2.885-9.643-8.486-18.823-16.17-26.508-12.613-12.612-26.762-18.439-44.778-18.439zm0 27.256c7.8 0 10.327.514 15.845 3.224 7.572 3.718 14.09 10.412 17.616 18.092 3.45 7.511 3.45 21.772 0 29.283-3.495 7.613-10.03 14.37-17.371 17.96-8.399 4.11-19.516 4.851-27.884 1.86-30.644-10.952-33.172-52.894-4.05-67.195 5.518-2.71 8.045-3.224 15.844-3.224zm-192.546.03c7.834-.025 10.3.472 15.844 3.194 7.217 3.544 13.363 9.644 17.444 17.313 2.198 4.128 2.653 6.769 2.651 15.42-.002 9.06-.412 11.217-3.092 16.314-3.725 7.082-10.937 13.843-18.187 17.05-15.315 6.775-34.753 1.303-44.211-12.444-4.534-6.59-7.441-17.776-6.459-24.848 1.07-7.698 6.966-19.164 11.993-23.318 7.897-6.526 13.774-8.65 24.017-8.681z"/>
</svg>
