<svg xmlns:xlink="http://www.w3.org/1999/xlink" width="12" xmlns="http://www.w3.org/2000/svg" height="12" id="screenshot-c8a53282-38ff-8005-8002-95490755d8cd" viewBox="0 0 12 12" style="-webkit-print-color-adjust: exact;" fill="none" version="1.1"><g id="shape-c8a53282-38ff-8005-8002-95490755d8cd"><defs><clipPath class="frame-clip-def frame-clip" id="frame-clip-c8a53282-38ff-8005-8002-95490755d8cd-rumext-id-1"><rect rx="0" ry="0" x="0" y="0" width="12" height="12" transform="matrix(1.000000, 0.000000, 0.000000, 1.000000, 0.000000, 0.000000)"/></clipPath></defs><g clip-path="url(#frame-clip-c8a53282-38ff-8005-8002-95490755d8cd-rumext-id-1)"><clipPath class="frame-clip-def frame-clip" id="frame-clip-c8a53282-38ff-8005-8002-95490755d8cd-rumext-id-1"><rect rx="0" ry="0" x="0" y="0" width="12" height="12" transform="matrix(1.000000, 0.000000, 0.000000, 1.000000, 0.000000, 0.000000)"/></clipPath><g class="fills" id="fills-c8a53282-38ff-8005-8002-95490755d8cd"><rect rx="0" ry="0" x="0" y="0" transform="matrix(1.000000, 0.000000, 0.000000, 1.000000, 0.000000, 0.000000)" width="12" height="12" class="frame-background"/></g><g class="frame-children"><g id="shape-c8a53282-38ff-8005-8002-95490755d8d0"><g class="fills" id="fills-c8a53282-38ff-8005-8002-95490755d8d0"><path rx="0" ry="0" d="M2.000,10.000L10.000,2.000M2.000,2.000L10.000,2.000L10.000,10.000" style="fill: rgb(0, 0, 0);"/></g><g id="strokes-c8a53282-38ff-8005-8002-95490755d8d0" class="strokes"><g class="stroke-shape"><path rx="0" ry="0" d="M2.000,10.000L10.000,2.000M2.000,2.000L10.000,2.000L10.000,10.000" style="fill: none; stroke-width: 1; stroke: rgb(143, 157, 163); stroke-opacity: 1;"/></g></g></g></g></g></g></svg>