<svg height="500" viewBox="0 0 500 500.00001" width="500" xmlns="http://www.w3.org/2000/svg"><path d="m290.69895 28.67742c-95.454.20566-190.943176-.20107-286.3753804.0818-5.685777 1.78291-4.23443805 8.84663-3.94664605 13.32162-.31523 104.66714-.04967 209.33476-.139265 314.00216 125.60393145-.3986 251.23284145.8392 376.82044145-.8303 4.95456-.3048 9.43107-4.7102 8.19321-9.9007.72014-103.0908.5475-206.2233.0813-309.2914-1.01217-5.12691-6.7032-7.55007-11.45515-6.53095-27.7186-.77736-55.45068-.87977-83.17849-.85226zm-210.739889 40.90673c87.864039.0277 175.728009.15123 263.591879.31693.15277 81.80404.30554 163.60808.4583 245.41205-100.83586-.1295-201.67409.3666-302.507743-.5178-.854067-81.59951-.375777-163.20436-.499951-244.80646 12.983141-.32226 25.970887-.39234 38.957515-.40472zm333.531499 74.29485c-3.85041.01-7.70068.0428-11.55096.0743.2503 13.37769.5019 26.75535.7544 40.133 18.69459.31811 37.38921.63475 56.08382.95229.15276 81.64189.30553 163.28369.45829 244.92559-90.69765.9874-181.40222.042-272.10288.1666-10.12841-.1346-20.77987.2001-30.5849-.2247-.72052-17.411 1.5273-35.264-2.18134-52.3713-4.55922-6.8855-13.83269-4.5659-20.77476-5.0665-6.19766-.1534-14.95106-.054-17.60692 6.7761-2.69044 8.7631-.48145 17.9676-1.34659 26.8709.01 19.8756-.98923 39.9102 1.22756 59.67572 2.85712 6.2195 10.5793 4.5611 16.04159 4.8954 122.69413 1.2114 245.39498.3204 368.09213.619 0-109.12882 0-218.25752 0-327.38632-28.83639-.0679-57.67301-.0828-86.50944-.0401z"/></svg>