<svg xmlns="http://www.w3.org/2000/svg" viewBox="0 0 16 16" stroke-linecap="round" stroke-linejoin="round">
    <path d="m4 5v6c0 .552.448 1 1 1h6c.552 0 1-.448 1-1v-6c0-.552-.448-1-1-1h-6c-.552 0-1 .448-1 1zm10.667.667v4.666c0 .184.149.334.333.334s.333-.15.333-.334v-4.666c0-.184-.149-.334-.333-.334s-.333.15-.333.334zm-14 0v4.666c0 .184.149.334.333.334s.333-.15.333-.334v-4.666c0-.184-.149-.334-.333-.334s-.333.15-.333.334zm9.666 9h-4.666c-.184 0-.334.149-.334.333s.15.333.334.333h4.666c.185 0 .334-.149.334-.333s-.149-.333-.334-.333zm0-14h-4.666c-.184 0-.334.149-.334.333s.15.333.334.333h4.666c.185 0 .334-.149.334-.333s-.149-.333-.334-.333z"/>
</svg>