<svg xmlns="http://www.w3.org/2000/svg" width="500" height="500" viewBox="0 0 132.292 132.292">
  <path d="M65.96 0v.001c-.195 0-3.595 3.324-7.689 7.425-4.827 4.746-10.344 10.35-12.241 12.521-1.097 1.157-2.031 2.158-2.536 2.74-5.863 6.748-10.816 13.01-14.922 18.883l-.2-.183c.052.103-.12.515-.451 1.124C20.285 53.6 15.708 63.29 13.816 72.215c-1.914 10.135.504 21.675 4.967 30.8 5.17 10.502 13.364 18.532 23.675 23.774 5.183 2.6 11.588 4.525 17.601 5.286 1.515.192 3.7.25 6.05.2 2.35.05 4.537-.01 6.051-.2 6.013-.761 12.418-2.686 17.601-5.286 11.31-6.232 18.288-12.994 23.675-23.774 4.287-9.698 7.112-20.487 4.966-30.8-5.977-20.937-16.184-33.944-29.68-49.53-.505-.582-1.44-1.582-2.536-2.74-1.9-2.173-7.427-7.786-12.256-12.535C69.842 3.316 66.45 0 66.257 0c-.026 0-.078.028-.148.073-.07-.045-.122-.073-.147-.073zm.211 15.335c.249 0 6.47 6.41 10.801 11.13 7.5 8.17 15.629 18.71 20.694 26.83 2.65 4.249 5.855 10.344 6.823 12.975 1.397 3.8 2.444 8.155 2.787 11.599.153 1.532.151 5.113 0 6.703-.447 4.608-1.806 9.16-4.108 13.756-4.378 8.74-11.786 15.698-20.832 19.566-2.819 1.205-6.634 2.312-9.581 2.78-2.41.383-6.296.55-9.189.396a39.645 39.645 0 01-12.346-2.686c-10.088-3.963-18.137-11.54-22.648-21.32-2.384-5.167-3.435-9.409-3.65-14.729-.191-4.765.872-10.564 2.97-16.194.598-1.608 2.842-6.117 4.435-8.915 4.7-8.257 11.891-18.071 20.28-27.68 3.953-4.527 13.198-14.211 13.568-14.211z"/>
</svg>
