<svg viewBox="0 0 500 500">
  <defs/>
  <path d="M249.305 0c-.734 0-13.585 12.562-29.057 28.062-18.243 17.939-39.097 39.116-46.267 47.324-4.144 4.372-7.677 8.154-9.586 10.353-22.157 25.507-40.877 49.176-56.397 71.37l-.755-.691-.01.005c.195.39-.453 1.947-1.704 4.25-28.86 41.905-46.161 78.529-53.309 112.267-7.234 38.304 1.904 81.92 18.77 116.409 19.538 39.693 50.51 70.042 89.482 89.852 19.588 9.83 43.797 17.103 66.522 19.98 5.726.725 13.987.943 22.869.755 8.882.188 17.143-.03 22.868-.755 22.725-2.877 46.934-10.15 66.523-19.98 42.745-23.552 69.12-49.108 89.482-89.852 16.2-36.655 26.877-77.43 18.767-116.41-22.589-79.13-61.168-128.292-112.174-187.2-1.91-2.198-5.443-5.98-9.587-10.353-7.177-8.216-28.069-29.43-46.324-47.38C263.971 12.534 251.152 0 250.418 0c-.097 0-.295.106-.557.278-.263-.172-.461-.278-.558-.278zm.558 68.475c1.515.997 10.578 10.153 21.1 21.343a966.983 966.983 0 009.572 10.031c6.962 7.473 13.557 14.667 17.661 19.363 21.89 25.047 40.87 49.46 56.18 72.15l-.308.282c.071-.052.251-.2.264-.2.035 0 .084.027.128.044 9.603 14.24 17.769 27.805 24.27 40.406 3.462 6.71 6.016 11.818 8.096 16.29 8.21 20.878 12.663 41.448 12.591 58.95-.09 21.806-4.823 40.866-15.45 62.198-21.312 42.779-61.92 72.804-109.49 80.956-6.604 1.131-15.613 1.703-24.614 1.731-9.001-.028-18.01-.6-24.614-1.731-47.57-8.152-88.179-38.177-109.49-80.956-10.628-21.332-15.362-40.392-15.45-62.199-.072-17.497 4.378-38.062 12.584-58.936 2.08-4.474 4.637-9.587 8.102-16.303 6.502-12.6 14.668-26.166 24.27-40.406.045-.017.094-.044.129-.044.012 0 .192.148.263.2l-.307-.282c15.31-22.69 34.288-47.103 56.18-72.15 4.104-4.696 10.698-11.89 17.66-19.363 2.934-3.033 6.101-6.339 9.573-10.031 10.521-11.19 19.584-20.346 21.1-21.343z"/>
</svg>
