<svg width="500" height="500" version="1.1" viewBox="0 0 500 500" xmlns="http://www.w3.org/2000/svg">
 <path d="m1.75e-5 -0.034425 1.8524 6.6668c19.855 70.353 37.923 148.23 48.145 211.81-5e-3 -0.0421-0.01033-0.0839-0.01528-0.12604l0.02101 0.1566c-0.0017-0.0103-0.0041-0.0203-0.0058-0.0305 6.5425 55.391 29.322 104.35 62.178 137.23 32.904 36.138 79.123 55.863 134.67 55.863 10.162 0 19.793-0.54966 28.999-1.545l90.041 90.041 134.11-137.47-88.933-88.935c0.46511-8.606 0.50799-17.513 0.50799-26.818 0-55.505-19.76-101.81-59.111-134.71-32.95-36.112-81.987-55.605-137.1-62.126-77.669-8.773-142.22-29.696-215.36-50.013zm99.234 67.97c37.995 8.7741 76.301 16.145 114.87 21.925l0.0325 0.0039 0.0305 0.0059c47.638 6.3518 87.018 22.988 114.41 49.203 27.369 26.196 42.991 61.95 43.014 107.64l-3.3401 43.402 75.699 75.699-78.093 78.093-73.976-73.976-1.6786 1.6786-0.0669-0.0573h-43.283c-45.738 0-81.521-15.631-107.74-43.02-26.214-27.389-42.852-66.766-49.203-114.4-5.5829-47.428-13.468-84.629-19.683-112.68l111.63 111.63c-12.123 33.534 12.706 69.76 48.904 69.805h6e-3c28.759 0 52.156-23.399 52.156-52.158 0-28.759-23.397-52.156-52.156-52.156h-2e-3c-6.0543 3e-3 -12.035 1.1211-17.714 3.1777z" clip-rule="evenodd" fill-rule="evenodd"/>
</svg>
