<svg xmlns="http://www.w3.org/2000/svg" width="500" height="500" viewBox="0 0 132.292 132.292">
  <path d="M87.26 0C64.613 0 46.142 18.471 46.142 41.117c0 22.644 18.471 41.114 41.116 41.114s41.115-18.47 41.115-41.114C128.374 18.47 109.904 0 87.26 0zm0 10.54a30.496 30.496 0 0130.574 30.577A30.494 30.494 0 0187.26 71.69a30.496 30.496 0 01-30.576-30.574A30.497 30.497 0 0187.259 10.54zM34.042 72.045c-16.575 0-30.126 13.549-30.126 30.123 0 16.575 13.551 30.124 30.126 30.124 16.574 0 30.123-13.549 30.123-30.124 0-16.574-13.549-30.123-30.123-30.123zm0 10.538a19.506 19.506 0 0119.585 19.585 19.506 19.506 0 01-19.585 19.585 19.506 19.506 0 01-19.585-19.585 19.506 19.506 0 0119.585-19.585z"/>
</svg>
