<svg xmlns="http://www.w3.org/2000/svg" viewBox="0 0 500 500" height="500" width="500"><path d="M164.617 17.078c-49.266 0-90.208 37.515-95.681 85.381h-49.47A19.467 19.467 0 000 121.928a19.467 19.467 0 0019.467 19.467h53.025c12.073 39.418 48.894 68.306 92.125 68.306 43.23 0 80.054-28.888 92.127-68.306h223.79A19.467 19.467 0 00500 121.928a19.467 19.467 0 00-19.467-19.469H260.301c-5.474-47.866-46.418-85.38-95.684-85.38zm-.787 37.004a60.924 60.924 0 0160.924 60.924 60.924 60.924 0 01-60.924 60.924 60.924 60.924 0 01-60.924-60.924 60.924 60.924 0 0160.924-60.924zm171.553 236.217c-49.267 0-90.21 37.518-95.684 85.385H19.467A19.467 19.467 0 000 395.148a19.467 19.467 0 0019.467 19.467h223.789c12.073 39.42 48.896 68.307 92.127 68.307 43.23 0 80.052-28.888 92.125-68.307h53.025A19.467 19.467 0 00500 395.148a19.467 19.467 0 00-19.467-19.464h-49.469c-5.472-47.867-46.414-85.385-95.681-85.385zm1.119 36.148a60.924 60.924 0 0160.924 60.924 60.924 60.924 0 01-60.924 60.924 60.924 60.924 0 01-60.924-60.924 60.924 60.924 0 0160.924-60.924z"/></svg>
