<svg height="500" viewBox="0 0 500.00001 500.00001" width="500" xmlns="http://www.w3.org/2000/svg"><path d="m11.402 498.536c-4.64-1.613-8.317-5.335-9.896-10.02-.732-2.168-.824-7.17-.824-44.7 0-45.853-.04-45.148 2.807-49.542.653-1.01 53.238-53.866 116.855-117.46 63.617-63.59 115.667-115.852 115.667-116.134s-11.486-11.997-25.524-26.033-25.524-25.75-25.524-26.034c0-.283 14.816-15.328 32.924-33.434l32.924-32.922 29.607 29.59 29.607 29.592 44.286-44.17c32.81-32.726 45.278-44.843 48.115-46.76 7.434-5.025 16.28-8.752 24.758-10.432 5.316-1.053 18.308-.91 23.737.26 25.043 5.4 44.058 24.808 49.064 50.08.927 4.68.927 17.78 0 22.46-1.68 8.48-5.407 17.326-10.432 24.76-1.917 2.836-14.034 15.303-46.76 48.114l-44.17 44.286 29.59 29.608 29.592 29.608-32.92 32.923c-18.107 18.108-33.152 32.924-33.435 32.924s-11.998-11.485-26.034-25.523-25.75-25.524-26.033-25.524c-.282 0-52.543 52.05-116.135 115.667-63.593 63.617-116.45 116.202-117.46 116.856-4.4 2.85-3.662 2.81-49.686 2.783-37.102-.023-42.692-.126-44.702-.824zm188.236-144.766c62.962-62.96 114.477-114.7 114.477-114.98 0-.67-52.165-52.838-52.834-52.838-.282 0-52.026 51.515-114.986 114.477l-114.475 114.475v26.057c0 19.588.153 26.21.614 26.67.46.462 7.084.614 26.67.614h26.056l114.48-114.475z"/></svg>