<svg xmlns="http://www.w3.org/2000/svg" viewBox="0 0 500 500" height="500" width="500"><path d="M330.902 0c-86.375 0-156.677 70.242-156.677 156.617 0 86.376 70.302 156.676 156.677 156.676 86.375 0 156.616-70.3 156.616-156.676C487.518 70.242 417.278 0 330.902 0zm-.562 36.625a120.87 120.87 0 01.342 0 120.87 120.87 0 01120.87 120.87 120.87 120.87 0 01-120.87 120.87 120.87 120.87 0 01-120.87-120.87A120.87 120.87 0 01330.34 36.624zM126.557 271.852c-62.798 0-114.075 51.275-114.075 114.074C12.482 448.724 63.76 500 126.557 500S240.63 448.724 240.63 385.926c0-62.799-51.276-114.074-114.074-114.074zm-.268 38.396a76.236 76.236 0 01.074 0 76.236 76.236 0 0176.237 76.236 76.236 76.236 0 01-76.237 76.237 76.236 76.236 0 01-76.236-76.237 76.236 76.236 0 0176.162-76.236z"/>
</svg>
