<svg height="500" viewBox="0 0 500 500.00001" width="500" xmlns="http://www.w3.org/2000/svg"><path d="m121.67073 70.753329v359.389241c0 12.19281 8.74009 22.00921 23.46146 21.00294 14.72137-1.00628 22.01162-5.33889 27.30623-10.32034 71.43412-52.70054 141.82816-106.26647 212.71245-159.42587 7.89079-6.55446 17.48742-12.31195 23.29965-20.13673 5.24872-9.68035-1.12541-20.67448-11.37732-26.63162-76.54116-60.68069-152.90924-121.51593-230.9091-181.047051-4.02348-2.658979-9.04841-4.760077-22.40044-4.800328-13.35284-.04025-22.09293 9.776148-22.09293 21.968958zm44.01841 39.302621c32.61935 25.56497 124.45828 97.72763 175.71703 139.98708 3.07839 5.93701-5.40168 9.45575-9.37686 13.25704-54.54483 42.67403-111.22136 83.65914-166.34097 125.8727z"/></svg>