<svg xmlns="http://www.w3.org/2000/svg" width="500" height="500" viewBox="-1.786 -18.5 500 500">
  <path d="M15.4-18.5-1.785-1.314l18.898 18.9L34.3.398Zm85.903 0L-1.785 84.59l18.898 18.898L120.203.398Zm85.904 0L-1.785 170.492l18.898 18.9L206.105.399Zm85.93 0L-1.785 256.422l18.898 18.9L292.035.398Zm85.902 0L-1.785 342.326l18.898 18.899L377.94.398Zm85.904 0L-1.785 428.229l18.898 18.9L463.842.399Zm34.371 51.559L49.771 462.599l18.9 18.901L498.216 51.957Zm0 85.902L135.676 462.6l18.898 18.9 343.64-343.639Zm0 85.904L221.578 462.6l18.9 18.9 257.737-257.736Zm0 85.903L307.482 462.6l18.899 18.9 171.834-171.834Zm0 85.93L393.412 462.6l18.899 18.9 85.904-85.902z"/>
</svg>
