<svg xmlns="http://www.w3.org/2000/svg" viewBox="0 0 16 16" stroke-linecap="round" stroke-linejoin="round">
    <path d="M13.152 5.819c.61.609 1.516 1.232 1.516 2.181 0 .96-.93 1.595-1.545 2.21-.438.438-1.023.05-1.203-.433a1.69 1.69 0 0 0-1.207-1.05 1.69 1.69 0 0 0-1.535.45 1.69 1.69 0 0 0-.45 1.536 1.69 1.69 0 0 0 1.05 1.207c.483.18.855.78.432 1.203l-1.073 1.074c-.298.299-.715.471-1.137.471s-.838-.172-1.136-.47l-1.045-1.046a.7.7 0 0 0-.585-.193c-.329.049-.56.336-.68.645a1.69 1.69 0 0 1-1.21 1.026 1.69 1.69 0 0 1-1.521-.453 1.69 1.69 0 0 1-.453-1.52 1.69 1.69 0 0 1 1.026-1.211c.503-.195.896-.82.452-1.265L1.803 9.136A1.62 1.62 0 0 1 1.332 8c0-.939.885-1.55 1.488-2.153.484-.484 1.115-.05 1.327.471A1.69 1.69 0 0 0 5.36 7.322a1.69 1.69 0 0 0 1.508-.455 1.69 1.69 0 0 0 .456-1.508 1.69 1.69 0 0 0-1.005-1.214c-.52-.211-.955-.843-.471-1.326C6.461 2.206 7.038 1.33 8 1.332c.95 0 1.572.907 2.181 1.516.461.46 1.07.051 1.265-.452a1.69 1.69 0 0 1 1.21-1.026 1.69 1.69 0 0 1 1.521.453c.392.391.567.978.453 1.52a1.69 1.69 0 0 1-1.026 1.211c-.503.195-.913.804-.452 1.265"/>
</svg>