<svg xmlns="http://www.w3.org/2000/svg" width="500" height="500" viewBox="0 0 132.292 132.292">
  <path d="M73.049 6.903c-29.984 0-54.852 22.419-58.72 51.365l-6.76-6.845L0 58.897l20.389 20.646 21.307-21.574-7.569-7.476-8.88 8.99c3.23-23.545 23.347-41.595 47.803-41.595 26.717 0 48.257 21.54 48.257 48.257s-21.54 48.258-48.257 48.258c-13.37 0-25.443-5.393-34.17-14.13l-7.74 7.696c10.732 10.754 25.56 17.42 41.91 17.42 32.653 0 59.242-26.59 59.242-59.244 0-32.653-26.589-59.242-59.242-59.242zm-5.248 26.082v39.622h38.548v-10.64h-27.91V32.986z"/>
</svg>
