<svg width="500" height="500" viewBox="0 0 16 16" xmlns="http://www.w3.org/2000/svg">
<path d="M8.5566 0.802143C5.73484 0.832201 3.03915 2.69963 2.02385 5.31247C1.85137 5.73396 1.71601 6.17029 1.61706 6.61447C1.14241 6.64869 0.619077 6.53608 0.164899 6.73219C-0.0777895 6.90104 -0.0358054 7.27633 0.181443 7.44833C0.780549 8.19904 1.36737 8.96764 2.04494 9.64955C2.36308 9.83712 2.77377 9.62369 2.92385 9.31767C3.48353 8.60401 4.10411 7.92266 4.56258 7.14015C4.6219 6.81493 4.25454 6.5743 3.95701 6.62813C3.72094 6.61113 3.48372 6.64427 3.24811 6.6178C3.79083 4.35481 5.91004 2.56008 8.25024 2.3836C10.2173 2.20058 12.271 3.13167 13.395 4.7633C14.5033 6.33202 14.7495 8.4588 13.9626 10.2177C13.2423 11.9016 11.6562 13.1891 9.84502 13.5267C8.12195 13.8686 6.25055 13.3618 4.94453 12.1845C4.72991 11.996 4.51061 11.7519 4.19717 11.7614C3.74737 11.7292 3.35166 12.1464 3.38782 12.5871C3.38929 12.8543 3.57566 13.0629 3.77045 13.2236C5.77493 15.1876 9.00192 15.7487 11.5753 14.6313C13.6464 13.7664 15.277 11.9044 15.7901 9.72495C16.3003 7.68095 15.8731 5.41472 14.5896 3.72888C13.2349 1.90511 10.9825 0.742088 8.68867 0.802015C8.6446 0.801698 8.60061 0.801698 8.5566 0.802111V0.802143ZM8.71661 3.18016C8.24963 3.18124 7.887 3.67092 7.98284 4.11561C7.9743 5.49196 7.92351 6.68183 8.00108 8.05586C8.00108 8.56496 8.40611 8.76793 9.00003 8.76793C10.1984 8.7713 11.4021 8.82853 12.5972 8.72777C13.1187 8.5769 13.2746 7.83426 12.8979 7.46167C12.6991 7.22791 12.3702 7.18867 12.0829 7.22552L9.54781 7.20217C9.52157 6.02587 9.5815 4.84522 9.47376 3.67232C9.36598 3.36623 9.03677 3.17047 8.71657 3.18013L8.71661 3.18016Z"/>
</svg>
