<svg height="500" viewBox="0 0 500 500.00001" width="500" xmlns="http://www.w3.org/2000/svg"><path d="m333.67425 553.74496c-111.22378 111.22255-222.44761 222.44503-333.671375 333.66756 54.980134 54.98312 109.959985 109.96648 164.940115 164.94968 111.6847-111.68347 223.36944-223.36687 335.05413-335.05033-54.98014-54.98312-109.95998-109.96654-164.94012-164.94967l-.69145.69146zm54.8788 110.04985c18.01156 18.00709 36.0231 36.01418 54.03466 54.02127-92.37185 92.25734-184.47681 184.78243-277.15961 276.72802-36.26058-35.62065-72.024792-71.73929-108.008164-107.63771 8.858076-8.85807 17.716151-17.71615 26.574226-26.57422 9.263873 8.87855 17.615348 18.79809 27.977998 26.46727 7.4703-1.13808 11.15104-8.91107 16.65806-13.21071 4.00843-3.78397 8.316-7.59774 10.50441-12.79246-5.49084-9.19908-14.29237-15.74039-21.26091-23.68074-1.34566-1.73238-5.6696-3.17213-5.14525-5.64946 7.07631-6.03669 13.6745-14.66405 20.60009-19.61076 9.09844 8.77993 17.34644 18.54622 27.59601 26.05665 7.44495-1.196 11.13335-8.89376 16.61606-13.23746 3.99359-3.78596 8.28746-7.59905 10.47577-12.7829-5.22372-8.96407-13.8455-15.20665-20.49125-22.97409-1.65554-1.96459-5.79266-3.37248-5.84998-6.16703 6.68817-6.73481 13.42464-13.42776 20.13026-20.14745 20.01434 19.61211 39.12764 40.16534 60.06989 58.8132 6.96182.111 10.29712-7.39925 15.21992-11.07929 4.13751-4.54479 10.51856-8.80317 11.96739-14.75773-2.69172-7.21207-10.18457-11.08275-14.65665-17.06694-14.58126-14.92054-29.43219-29.57566-44.15465-44.35706 6.95981-6.42426 13.88881-14.94733 20.86748-20.08634 9.1017 8.77482 17.33546 18.55791 27.59411 26.05666 7.45551-1.17718 11.112-8.93766 16.61414-13.24129 4.00232-3.78571 8.30816-7.60161 10.47194-12.80581-5.25029-8.93558-13.83181-15.20068-20.48741-22.94926-1.72275-1.96312-5.76294-3.36443-5.8538-6.1613 6.83462-6.34525 13.68876-14.75955 20.55806-19.79221 9.12743 8.77712 17.33975 18.62135 27.65904 26.07765 7.38351-1.32273 11.10244-8.88042 16.54921-13.26418 4.00144-3.78874 8.29899-7.61031 10.4853-12.80392-5.50086-9.17541-14.29922-15.69412-21.24945-23.633-1.47637-1.74001-5.28036-3.04165-5.23118-5.54632 8.95422-8.5157 17.4966-17.52502 26.29728-26.22471 18.00901 18.00453 36.01801 36.00909 54.027 54.01363z" transform="translate(0 -552.3622)"/></svg>