<svg height="500" viewBox="0 0 499.99999 500.00001" width="500" xmlns="http://www.w3.org/2000/svg"><path d="m398.32422.33398438-20.16211 20.16210962 79.45508 79.453125v.001953l-97.66602 97.666018h-.00195l-79.45313-79.45508-20.16211 20.16211 79.45508 79.45312-119.83789 119.83985h-.00195l-79.45313-79.45508-20.16211 20.16211 79.45508 79.45312-99.837888 99.83985h-.001953l-79.453125-79.45508-20.16210962 20.16211 79.45507762 79.45312 22.220708 22.22266 397.99023-397.99023-22.22266-22.220708zm-51.35352 73.89062462-9.70117 9.701172 54.69336 54.693359 9.70117-9.70117zm-130 130.000001-9.70117 9.70117 54.69336 54.69336 9.70117-9.70117zm-133.999997 130-9.701172 9.70117 54.693359 54.69336 9.70117-9.70117z"/></svg>