<svg height="500" viewBox="0 0 500.00001 500.00001" width="500" xmlns="http://www.w3.org/2000/svg"><path d="m200.29725 552.38324c-55.63195-.39273-110.41714 24.79844-147.420614 66.19618-36.562884 38.85189-55.581831 92.78021-52.69368268 145.68136 1.81563708 58.32381 31.70667868 114.57369 77.72291668 150.3388 39.98578 31.74014 92.60748 47.06342 143.31425 41.9013 38.84333-2.62505 75.51155-19.16456 106.85305-41.76435 7.17231-1.53934 9.72142 7.50384 14.78811 10.58845 42.04255 41.3293 82.67492 84.17352 126.05517 124.09232 12.00732 7.9439 30.51663-1.1479 31.07467-15.7527 1.43434-13.0422-11.15438-20.6025-18.48934-29.2229-39.70031-41.19026-80.70036-81.09772-120.92692-121.76625 26.62166-35.23184 44.29966-78.16846 44.25714-122.56405 1.14919-33.55943-5.92357-67.44724-21.63713-97.18325-30.42135-59.87878-92.12109-103.59639-159.38669-109.59423-7.81133-.75294-15.66453-1.05874-23.51093-.95068zm6.23995 42.08785c60.28585.0563 117.641 38.95656 142.07743 93.73252 18.00411 38.76462 19.29632 84.99092 3.70183 124.75478-20.95175 53.68824-72.14922 94.79843-129.72385 101.23843-24.87708 2.80107-50.52648.98127-74.01503-8.14937-61.154712-20.81195-105.797838-82.12165-106.448173-146.76567-2.204451-50.49425 22.175495-100.72642 62.105923-131.41264 28.30796-22.10779 64.22378-34.81492 100.28539-33.38614.67217.00003 1.34431-.012 2.01648-.0119z" transform="translate(0 -552.36216)"/></svg>