<svg xmlns="http://www.w3.org/2000/svg" viewBox="0 0 500 500">
  <path d="M0 0h500v500H0Zm50 50v400h400V50Zm241.416 73.877c-5.652 0-10.234 4.582-10.234 10.234v71.637c0 5.652 4.582 10.234 10.234 10.234h71.638c5.652 0 10.234-4.582 10.234-10.234v-71.637c0-5.652-4.582-10.234-10.234-10.234zm-157.894 0c-5.652 0-10.234 4.582-10.234 10.234v71.637c0 5.652 4.582 10.234 10.234 10.234h71.637c5.652 0 10.234-4.582 10.234-10.234v-71.637c0-5.652-4.582-10.234-10.234-10.234zM291.416 281.77c-5.652 0-10.234 4.582-10.234 10.234v71.638c0 5.652 4.582 10.234 10.234 10.234h71.638c5.652 0 10.234-4.582 10.234-10.234v-71.638c0-5.652-4.582-10.234-10.234-10.234zm-157.894 0c-5.652 0-10.234 4.582-10.234 10.234v71.638c0 5.652 4.582 10.234 10.234 10.234h71.637c5.652 0 10.234-4.582 10.234-10.234v-71.638c0-5.652-4.582-10.234-10.234-10.234z"/>
</svg>
