<svg xmlns="http://www.w3.org/2000/svg" stroke="currentColor" stroke-linecap="round" stroke-linejoin="round" fill="none" viewBox="0 0 16 16">
    <path d="M12.933 10a1.1 1.1 0 0 0 .22 1.213l.04.04c1.258 1.257-.628 3.144-1.886 1.887l-.04-.04a1.1 1.1 0 0 0-1.214-.22 1.1 1.1 0 0 0-.666 1.007V14c0 1.778-2.667 1.778-2.667 0v-.06A1.1 1.1 0 0 0 6 12.933a1.1 1.1 0 0 0-1.213.22l-.04.04c-1.257 1.258-3.144-.628-1.887-1.886l.04-.04a1.1 1.1 0 0 0 .22-1.214 1.1 1.1 0 0 0-1.007-.666H2C.222 9.387.222 6.72 2 6.72h.06A1.1 1.1 0 0 0 3.067 6a1.1 1.1 0 0 0-.22-1.213l-.04-.04C1.549 3.49 3.435 1.603 4.693 2.86l.04.04a1.1 1.1 0 0 0 1.214.22H6a1.1 1.1 0 0 0 .667-1.007V2c0-1.777 2.666-1.777 2.666 0v.06A1.1 1.1 0 0 0 10 3.067a1.1 1.1 0 0 0 1.213-.22l.04-.04c1.257-1.278 3.165.628 1.887 1.886l-.04.04a1.1 1.1 0 0 0-.22 1.214V6a1.1 1.1 0 0 0 1.007.667H14c1.777 0 1.777 2.666 0 2.666h-.06a1.1 1.1 0 0 0-1.007.667ZM8 10c2.667 0 2.667-4 0-4s-2.667 4 0 4z" />
</svg>