<svg xmlns="http://www.w3.org/2000/svg" viewBox="0 0 500.00001 500.00001" width="500" height="500"><path d="M500 143.75c0 4.488-2.066 8.975-6.2 12.712-2.431 2.194-6.131 4.467-8.228 5.045-2.094.578-107.944.993-107.944.993H122.373s-105.848-.415-107.942-.993c-2.095-.579-5.797-2.85-8.229-5.043-8.27-7.474-8.27-17.951 0-25.426 2.43-2.194 6.133-4.465 8.229-5.042 2.095-.581 107.943-.996 107.943-.996h255.257s105.847.416 107.94.997c2.095.578 5.798 2.847 8.229 5.042 4.134 3.736 6.2 8.223 6.2 12.711zm0 212.5c0 4.487-2.066 8.975-6.2 12.713-2.431 2.193-6.131 4.465-8.228 5.043-2.094.582-107.944.994-107.944.994H122.373s-105.848-.416-107.942-.994c-2.095-.578-5.797-2.85-8.229-5.043-8.27-7.475-8.27-17.95 0-25.425 2.43-2.197 6.133-4.466 8.229-5.044 2.095-.578 107.943-.994 107.943-.994h255.257s105.847.416 107.94.997c2.095.575 5.798 2.847 8.229 5.04 4.134 3.738 6.2 8.226 6.2 12.713zM392.425 212.5c4.197 0 7.575 4.347 7.575 9.746v55.509c0 5.4-3.378 9.745-7.575 9.745H107.576c-4.197 0-7.576-4.346-7.576-9.745v-55.51c0-5.398 3.38-9.745 7.576-9.745z" clip-rule="evenodd" fill-rule="evenodd"/></svg>
