<svg xmlns="http://www.w3.org/2000/svg" viewBox="0 0 500.00001 500.00001" width="500" height="500"><path d="M0 261.631c0-6.906 2.066-13.812 6.201-19.563 2.43-3.38 6.133-6.874 8.229-7.763 2.094-.89 107.943-1.531 107.943-1.531h255.254s105.846.642 107.94 1.531c2.097.89 5.797 4.384 8.231 7.76 8.27 11.502 8.27 27.626 0 39.129-2.43 3.38-6.134 6.871-8.23 7.76-2.095.889-107.941 1.527-107.941 1.527H122.37s-105.847-.642-107.941-1.532c-2.095-.889-5.799-4.382-8.229-7.76C2.066 275.443 0 268.537 0 261.631zM146 10.553c0-6.996 4.056-12.628 9.095-12.628h51.808c5.04 0 9.096 5.632 9.096 12.628v474.744c0 6.997-4.056 12.628-9.096 12.628h-51.808c-5.04 0-9.095-5.63-9.095-12.628zm123.999 106.2c0-6.996 4.056-12.627 9.096-12.627h51.807c5.04 0 9.097 5.631 9.097 12.627v301.214c0 6.998-4.056 12.629-9.097 12.629h-51.807c-5.04 0-9.096-5.631-9.096-12.629z"/></svg>
