<svg xmlns="http://www.w3.org/2000/svg" viewBox="0 0 500.00001 500.00001" width="500" height="500"><path d="M0 22.318c0 5.544 2.066 11.085 6.201 15.702 2.43 2.712 6.133 5.517 8.229 6.23 2.094.714 107.943 1.23 107.943 1.23h255.254s105.846-.516 107.94-1.23c2.097-.713 5.797-3.518 8.231-6.228 8.27-9.231 8.27-22.173 0-31.405-2.43-2.712-6.134-5.515-8.23-6.228-2.095-.717-107.941-1.23-107.941-1.23H122.37S16.524-.324 14.43.39C12.335 1.103 8.63 3.906 6.2 6.617 2.066 11.233 0 16.775 0 22.318zm146 466.71c0 5.612 4.056 10.132 9.095 10.132h51.808c5.04 0 9.096-4.52 9.096-10.133V107.986c0-5.615-4.056-10.135-9.096-10.135h-51.808c-5.04 0-9.095 4.52-9.095 10.135zm123.999-138.722c0 5.612 4.056 10.132 9.096 10.132h51.807c5.04 0 9.097-4.52 9.097-10.132V108.543c0-5.615-4.056-10.135-9.097-10.135h-51.807c-5.04 0-9.096 4.52-9.096 10.135z"/></svg>
