<svg xmlns="http://www.w3.org/2000/svg" viewBox="0 0 500.00001 500.00001" width="500" height="500"><path d="M477.641 0c-5.543 0-11.083 2.066-15.7 6.201-2.712 2.43-5.519 6.133-6.232 8.229-.714 2.094-1.226 107.943-1.226 107.943v255.254s.515 105.847 1.229 107.94c.714 2.097 3.52 5.797 6.23 8.232 9.23 8.268 22.172 8.268 31.403 0 2.713-2.432 5.516-6.135 6.23-8.232.713-2.093 1.225-107.94 1.225-107.94V122.371s-.512-105.847-1.23-107.941c-.713-2.095-3.516-5.799-6.225-8.229-4.617-4.135-10.16-6.2-15.704-6.2zM10.935 146C5.32 146 .8 150.056.8 155.095v51.808c0 5.04 4.52 9.096 10.135 9.096h381.04c5.616 0 10.136-4.056 10.136-9.096v-51.808c0-5.04-4.52-9.095-10.136-9.095zm138.721 124c-5.615 0-10.135 4.055-10.135 9.095v51.807c0 5.04 4.52 9.097 10.135 9.097h241.761c5.617 0 10.136-4.056 10.136-9.097v-51.807c0-5.04-4.52-9.096-10.136-9.096z"/></svg>
