<svg xmlns="http://www.w3.org/2000/svg" viewBox="0 0 500.00001 500.00001" width="500" height="500"><path d="M0 476.001c0-5.543 2.066-11.086 6.201-15.7 2.43-2.712 6.133-5.519 8.229-6.233 2.094-.714 107.943-1.225 107.943-1.225h255.254s105.846.511 107.94 1.229c2.097.714 5.797 3.517 8.231 6.229 8.27 9.23 8.27 22.173 0 31.404-2.43 2.712-6.134 5.515-8.23 6.23-2.095.713-107.941 1.225-107.941 1.225H122.37s-105.847-.512-107.941-1.23c-2.095-.713-5.799-3.516-8.229-6.229C2.066 487.088 0 481.544 0 476.001zM146 9.294C146 3.68 150.056-.84 155.095-.84h51.808c5.04 0 9.096 4.52 9.096 10.134v381.04c0 5.613-4.056 10.136-9.096 10.136h-51.808c-5.04 0-9.095-4.523-9.095-10.136zm123.999 138.722c0-5.615 4.056-10.135 9.096-10.135h51.807c5.04 0 9.097 4.52 9.097 10.135v241.761c0 5.613-4.056 10.136-9.097 10.136h-51.807c-5.04 0-9.096-4.523-9.096-10.136z"/></svg>
