<svg xmlns="http://www.w3.org/2000/svg" viewBox="0 0 500.00001 500.00001" width="500" height="500"><path d="M23.96 0c5.542 0 11.085 2.066 15.7 6.201 2.712 2.43 5.518 6.133 6.231 8.229.716 2.094 1.228 107.943 1.228 107.943v255.254s-.515 105.847-1.23 107.94c-.713 2.097-3.518 5.797-6.228 8.232-9.232 8.268-22.173 8.268-31.405 0-2.711-2.432-5.515-6.135-6.229-8.232C1.312 483.474.8 377.627.8 377.627V122.371S1.314 16.524 2.03 14.43C2.743 12.335 5.547 8.63 8.258 6.2 12.874 2.066 18.416 0 23.96 0zm466.707 146c5.613 0 10.133 4.056 10.133 9.095v51.808c0 5.04-4.52 9.096-10.133 9.096h-381.04c-5.615 0-10.135-4.056-10.135-9.096v-51.808c0-5.04 4.52-9.095 10.135-9.095zM351.946 270c5.613 0 10.132 4.055 10.132 9.095v51.807c0 5.04-4.52 9.097-10.132 9.097H110.184c-5.615 0-10.135-4.056-10.135-9.097v-51.807c0-5.04 4.52-9.096 10.135-9.096z"/></svg>
