<svg xmlns="http://www.w3.org/2000/svg" viewBox="0 0 500.00001 500.00001" width="500" height="500"><path d="M356.25 500c-4.487 0-8.975-2.066-12.712-6.2-2.194-2.431-4.466-6.131-5.044-8.228-.578-2.094-.994-107.944-.994-107.944V122.373s.416-105.848.997-107.942c.575-2.094 2.847-5.797 5.04-8.228 7.476-8.27 17.95-8.27 25.426 0 2.197 2.43 4.465 6.132 5.044 8.228.578 2.094.993 107.943.993 107.943v255.257s-.415 105.847-.997 107.94c-.575 2.095-2.846 5.798-5.04 8.229-3.738 4.134-8.225 6.2-12.713 6.2zm-212.5 0c-4.488 0-8.975-2.066-12.712-6.2-2.195-2.431-4.467-6.131-5.045-8.228-.579-2.094-.993-107.944-.993-107.944V122.373s.416-105.848.995-107.942c.577-2.094 2.849-5.797 5.043-8.228 7.474-8.27 17.95-8.27 25.426 0 2.194 2.43 4.465 6.132 5.042 8.228.58 2.094.994 107.943.994 107.943v255.257s-.417 105.847-.996 107.94c-.577 2.095-2.847 5.798-5.042 8.229-3.737 4.134-8.224 6.2-12.712 6.2zM287.5 392.425c0 4.197-4.346 7.575-9.745 7.575h-55.51c-5.4 0-9.745-3.378-9.745-7.575V107.577c0-4.198 4.346-7.577 9.745-7.577h55.51c5.399 0 9.745 3.38 9.745 7.577z" clip-rule="evenodd" fill-rule="evenodd"/></svg>
