<svg xmlns="http://www.w3.org/2000/svg" viewBox="0 0 500.00001 500.00001" width="500" height="500"><path d="M238.53-.837c6.907 0 13.812 2.066 19.564 6.2 3.378 2.43 6.874 6.133 7.763 8.23.89 2.093 1.529 107.942 1.529 107.942v255.256s-.64 105.846-1.532 107.94c-.889 2.093-4.384 5.797-7.76 8.228-11.502 8.272-27.626 8.272-39.129 0-3.377-2.428-6.871-6.131-7.76-8.228-.891-2.094-1.529-107.944-1.529-107.944V121.533s.641-105.847 1.532-107.94c.889-2.096 4.383-5.8 7.76-8.23 5.751-4.134 12.657-6.2 19.563-6.2zm251.079 146c6.997 0 12.628 4.055 12.628 9.095v51.808c0 5.04-5.63 9.096-12.628 9.096H14.864c-6.996 0-12.627-4.057-12.627-9.096v-51.808c0-5.04 5.631-9.096 12.627-9.096zm-106.2 123.998c6.997 0 12.628 4.057 12.628 9.096v51.809c0 5.037-5.631 9.097-12.629 9.097H82.194c-6.996 0-12.627-4.06-12.627-9.097v-51.809c0-5.04 5.631-9.096 12.627-9.096z"/></svg>
