<svg xmlns="http://www.w3.org/2000/svg" width="64" height="48.265" style="-webkit-print-color-adjust:exact" viewBox="-3.536 -3.536 64 48.265">
  <path d="M-3.536 20.597V-3.536h64V44.73h-64zm59.37 0V1.096l-27.356.014-27.354.014L1.11 20.54c-.01 10.68 0 19.45.012 19.488.02.055 5.546.07 27.369.07h27.342V20.596zM12.701 31.254V28.94h31.525v4.631H12.702zM7.159 22.43c-.02-.02-.037-1.062-.037-2.316v-2.278H14.543v4.631H10.87c-2.02 0-3.69-.016-3.71-.037zm12.071-2.278v-2.316h7.422l-.015 2.302-.014 2.301-3.696.015-3.697.014zm12.052 0v-2.316h7.423l-.014 2.302-.015 2.301-3.697.015-3.697.014zm12.053 0v-2.316h7.42v4.631h-7.42zM7.135 9.005l.015-2.302 3.697-.014 3.696-.014v4.632H7.121zm12.095-.014V6.675l3.697.014 3.696.014.014 2.302.015 2.302H19.23zm12.052 0V6.675H38.703v4.632h-7.42zm12.053 0V6.675h7.42v4.632h-7.42z"/>
</svg>