<svg xmlns="http://www.w3.org/2000/svg" viewBox="0 0 16 16" stroke-linecap="round" stroke-linejoin="round">
    <path d="M7.893,10.058L10.493,12.658L10.493,12.659M1.62,7.229L5.758,3.091C7.035,1.813 8.897,1.314 10.642,1.782C12.387,2.249 13.75,3.612 14.218,5.357C14.686,7.102 14.187,8.963 12.91,10.241L10.493,12.658L8.772,14.38C8.466,14.686 7.97,14.686 7.664,14.38L6.171,12.887C5.865,12.581 5.865,12.086 6.171,11.78L7.893,10.058L10.091,7.86C10.629,7.322 10.629,6.449 10.091,5.91C9.552,5.372 8.679,5.372 8.14,5.91L5.942,8.108L4.221,9.829C3.915,10.135 3.419,10.135 3.113,9.829L1.62,8.337C1.314,8.031 1.314,7.535 1.62,7.229M5.942,8.108L5.942,8.108L3.342,5.508"/>
</svg>
