<svg xmlns="http://www.w3.org/2000/svg" width="500" height="500">
  <path d="M353.133 2a25.007 23.436 0 0125.007 23.436v399.16l82.956-72.557a25.007 23.436 0 0134.143 34.248L370.204 495.654a25.007 23.436 0 01-34.143 0L211.026 386.287a25.007 23.436 0 0134.143-34.248l82.957 72.557V25.436A25.007 23.436 0 01353.133 2zm-250.07 249.983a25.007 23.436 0 0123.64 15.78l75.02 203.112a25.027 23.455 0 11-47.312 15.311l-11.437-31.092H63.152l-11.437 31.092A25.043 23.47 0 114.37 470.875l75.054-203.112a25.007 23.436 0 0123.64-15.78zm0 95.087L80.49 408.223h45.18zM169.748 2a25.007 23.436 0 0120.24 37.216L85.49 173.863h84.257a25.007 23.436 0 110 46.872H36.378a25.007 23.436 0 01-20.24-37.216L120.635 48.872H36.378a25.007 23.436 0 010-46.872z"/>
</svg>
