<svg xmlns="http://www.w3.org/2000/svg" width="500" height="500">
  <path d="M169.748 283.25a25.007 23.438 0 0120.24 37.219L85.49 455.125h84.257a25.007 23.438 0 010 46.875H36.378a25.007 23.438 0 01-20.24-37.219l104.496-134.656H36.378a25.007 23.438 0 010-46.875zM353.133 2a25.007 23.438 0 0125.007 23.438v399.187l82.956-72.562a25.007 23.438 0 0134.143 34.25L370.204 495.688a25.007 23.438 0 01-34.143 0L211.026 386.313a25.007 23.438 0 0134.143-34.25l82.957 72.562V25.438A25.007 23.438 0 01353.133 2zm-250.07 0a25.007 23.438 0 0123.64 15.781l75.02 203.125a25.027 23.457 0 01-47.312 15.313l-11.437-31.094H63.152l-11.437 31.094A25.043 23.471 0 014.37 220.906L79.423 17.781A25.007 23.438 0 01103.063 2zm0 95.094L80.49 158.25h45.18z"/>
</svg>
