<svg xmlns="http://www.w3.org/2000/svg" width="500" height="500" viewBox="0 0 500 500">
  <path d="M269.56304 19.250025c-44.76042 0-81.16303 11.62691-109.24002 34.86916-27.87346 23.03616-41.81796 52.202655-41.81796 87.579815 0 17.78474 3.70661 33.98915 11.08051 48.57894h74.80907c-1.3276-.96028-2.55704-1.90658-3.75611-2.87968-15.25904-12.75224-22.91223-28.33238-22.91223-46.63829 0-22.8307 8.0285-40.58442 24.10166-53.336665 16.27637-12.95802 38.84429-19.46914 67.73508-19.46914 31.12866 0 55.27741 7.84385 72.36758 23.47565 17.09017 15.426355 25.60414 36.703725 25.60414 63.853775h58.9082c0-24.8875-6.62004-47.81961-19.84473-68.799305-13.02279-20.97938-31.52072-37.46298-55.52773-49.39277-23.80509-11.92946-50.98907-17.84149-81.50746-17.84149zM-.0000044 221.89181v31.55129H500v-31.55129zM295.48015 285.05696c22.74898 8.27104 39.42728 16.6316 50.08139 25.10329 15.26 11.92882 22.91221 28.88505 22.91221 50.89522 0 22.00697-8.24649 39.39372-24.72767 52.14724-16.47797 12.75352-40.19043 19.15612-71.11556 19.15612-33.16333 0-59.69076-7.84385-79.6294-23.47565-19.73511-15.83694-29.61062-37.33164-29.61062-64.47979h-58.90823c.00001 26.12245 7.10549 49.48352 21.3472 70.05134 14.44555 20.56782 34.90063 36.83698 61.34969 48.76677 26.44938 11.72144 54.93297 17.52848 85.45136 17.52848 46.99669 0 84.54289-10.8763 112.62051-32.67809 28.07442-22.007 42.13096-51.2377 42.13096-87.64246 0-22.83067-5.10468-42.66712-15.27484-59.53423-3.26287-5.51712-7.08271-10.7833-11.51868-15.83823z"/>
</svg>
