<svg xmlns="http://www.w3.org/2000/svg" viewBox="0 0 16 16" stroke-linecap="round" stroke-linejoin="round">
    <path d="M9 7.333c0-1.031.689-2 2.167-2 1.478 0 2.166.969 2.166 2v.655m0 .178v2.167c0 1.334 1.334 1.334 1.334 1.334m-13-4.334c0-1.031.688-2 2.166-2S6 6.302 6 7.333v.655m0 .178v2.167c0 1.334 1.333 1.334 1.333 1.334m3.334.333c1.021 0 2.616-.352 2.665-3.832L13.333 8c0 .727-1.889.667-2.666.667-1.334 0-2 .666-2 1.666 0 1 .963 1.667 2 1.667zm-7.334 0c1.021 0 2.616-.352 2.666-3.832L6 8c0 .727-1.889.667-2.667.667-1.333 0-2 .666-2 1.666 0 1 .963 1.667 2 1.667z"/>
</svg>
