<svg height="500" viewBox="0 0 500.00001 500.00001" width="500" xmlns="http://www.w3.org/2000/svg"><path d="m9.0957031 0c-5.0392472 0-9.0957031 4.0564559-9.0957031 9.0957031v51.8085939c0 5.039247 4.0564559 9.095703 9.0957031 9.095703h481.8085969c5.03924 0 9.0957-4.056456 9.0957-9.095703v-51.8085939c0-5.0392472-4.05646-9.0957031-9.0957-9.0957031zm69.9160159 146c-5.039247 0-9.095703 4.05646-9.095703 9.0957v51.8086c0 5.03924 4.056456 9.0957 9.095703 9.0957h341.976561c5.03925 0 9.0957-4.05646 9.0957-9.0957v-51.8086c0-5.03924-4.05645-9.0957-9.0957-9.0957zm-32.839844 144c-5.039247 0-9.095703 4.05646-9.095703 9.0957v51.8086c0 5.03924 4.056456 9.0957 9.095703 9.0957h407.656245c5.03925 0 9.09571-4.05646 9.09571-9.0957v-51.8086c0-5.03924-4.05646-9.0957-9.09571-9.0957zm95.339845 140c-5.03925 0-9.0957 4.05646-9.0957 9.0957v51.8086c0 5.03924 4.05645 9.0957 9.0957 9.0957h216.97656c5.03925 0 9.0957-4.05646 9.0957-9.0957v-51.8086c0-5.03924-4.05645-9.0957-9.0957-9.0957z"/></svg>
