<svg xmlns="http://www.w3.org/2000/svg" viewBox="0 0 16 16" stroke-linecap="round" stroke-linejoin="round">
    <path d="M14.667 8.37V2.815a1.482 1.482 0 0 0-1.482-1.482H7.63M1.333 7.63v5.555a1.482 1.482 0 0 0 1.482 1.482H8.37M3.926 1.333H2.815a1.482 1.482 0 0 0-1.482 1.482v1.111l2.593-2.593Zm8.148 13.334h1.111a1.482 1.482 0 0 0 1.482-1.482v-1.111l-2.593 2.593ZM10.333 5H5.667C5.298 5 5 5.298 5 5.667v4.666c0 .369.298.667.667.667h4.666c.369 0 .667-.298.667-.667V5.667c0-.369-.298-.667-.667-.667Z"/>
</svg>