<svg width="500" height="500" viewBox="0 0 8 8" fill="none" xmlns="http://www.w3.org/2000/svg">
  <path d="M7.99941 1.62266C8.01413 1.36698 7.74905 1.14313 7.49807 1.21294C7.35967 1.27903 7.02149 1.60601 7.02149 1.60601C7.02149 1.60601 3.82775 4.79865 2.80464 5.76808C2.68664 5.81588 2.6167 5.68421 2.54114 5.62249C1.48872 4.57167 1.68802 4.66986 0.628214 3.62654C0.403393 3.46589 0.0441303 3.61642 0.00630665 3.8924C-0.0278168 4.07137 0.0811424 4.23539 0.212762 4.34466C1.2602 5.45375 1.12484 5.34669 2.1814 6.44725C2.31167 6.56977 2.42611 6.71875 2.58163 6.80902C2.77403 6.89051 2.99255 6.79154 3.11096 6.63235C4.317 5.44398 6.72612 3.05828 7.90933 1.84723C7.96218 1.78479 8.00392 1.70675 7.99941 1.62266Z" fill="black"/>
</svg>
