<svg xmlns="http://www.w3.org/2000/svg" width="500" height="500" viewBox="0 0 500 500">
  <path d="M112.8874 96.304865L.0000023 399.55826H66.400229l20.824568-62.4737H196.81672l21.03492 62.4737h66.40023L170.73343 96.304865zm287.54734 73.762445c-18.32674 0-34.85704 3.14965-49.57232 9.53582-14.7152 6.24726-26.09438 14.9767-34.14666 26.08331-8.05228 11.10662-12.06002 23.12984-12.06002 36.18005h60.15985c0-8.46871 2.86048-15.12416 8.55423-19.98316 5.83009-4.85902 13.84532-7.29211 23.97978-7.29211 11.52018 0 19.89455 3.14836 25.17179 9.3956 5.41366 6.24725 8.13352 14.54912 8.13352 24.96144v12.90141h-27.696c-33.45842.13893-59.07727 6.64988-76.84755 19.42224-17.63173 12.77235-26.43389 31.09228-26.43389 54.97125.00001 19.4364 7.22751 35.53784 21.66597 48.31019 14.57596 12.77272 32.8966 19.14178 54.97126 19.14178 23.32396 0 42.28556-8.0869 56.86438-24.33039 1.24931 8.05228 3.25502 14.77915 6.03002 20.19352H500v-3.57592c-5.83368-10.96769-8.83489-27.14054-8.9749-48.52055v-97.67215c0-25.26721-8.15613-44.80433-24.54071-58.68742-16.24098-14.02166-38.28491-21.03492-66.04965-21.03491zm-258.58927 2.87477l38.0732 113.51845h-75.79582zM408.14755 297.0481h22.50736v38.77437c-3.6115 6.66368-9.18829 11.9604-16.68771 15.98654-7.49584 3.8872-15.6556 5.88976-24.54075 5.88976-9.16158 0-16.39229-2.43308-21.66594-7.2921-5.27724-4.85901-7.92319-11.08393-7.92319-18.58084l.21181-3.50581c1.94576-20.82464 17.97292-31.27191 48.09986-31.27191z"/>
</svg>
