<svg height="500" viewBox="0 0 500.00001 500.00001" width="500" xmlns="http://www.w3.org/2000/svg"><path d="m242.73663 599.38868c-79.15857 1.68892-154.390529 54.61019-182.62563 128.56969-8.390852 20.57554-12.24129 42.66061-15.117359 64.45053-4.803234 8.88466-16.33794 5.54629-24.470319 6.43033-6.840938.0725-13.683286-.00018-20.523323.15449 25.633561 33.47743 51.42245 66.8485 78.249132 99.38322 26.307739-32.91176 52.665089-65.76455 78.102589-99.34039-16.06651-.36539-32.13758-.0441-48.20603-.18485.29693-58.54979 41.79772-113.77646 97.616-131.0965 41.18685-13.76752 88.1145-6.40366 123.9888 17.75689 4.01222-.61662 6.93149-7.42265 10.38107-10.53887 9.65474-12.2476 19.62255-24.45846 28.60936-37.07428-34.7249-25.56995-77.57435-39.35496-120.55113-38.53281-1.81793-.0145-3.6354-.006-5.45316.0225zm170.60569 117.51909c-24.0119 29.3282-47.72899 58.93963-70.99027 88.83533 15.77603.57194 31.70034.36368 47.53423.7304 1.59863 35.02643-14.72674 69.17811-38.46406 94.213-29.08175 30.109-71.7312 46.59472-113.53911 42.72692-25.16607-1.4966-49.21373-11.48724-70.15843-24.89653-12.52259 15.82689-25.56921 31.55174-37.1667 48.2173 36.91833 28.00994 83.87484 41.27591 130.05674 38.23121 69.0409-1.8477 134.5274-44.51738 167.50906-105.00819 14.61985-25.97408 22.86126-55.03915 24.94387-84.7032 1.04015-6.42585 7.52749-10.31884 13.78912-9.20721 11.04527-.30586 22.09669-.11472 33.14323-.33751-25.59796-33.40251-51.66435-66.44474-78.10936-99.18034-2.84944 3.45961-5.69888 6.91921-8.54832 10.37882z" transform="translate(0 -552.36216)"/></svg>