<svg xmlns="http://www.w3.org/2000/svg" width="500" height="500" viewBox="0 0 132.292 132.292">
  <path d="M65.82 13.755c-26.72 0-48.871 19.807-52.682 45.492l-5.813-5.885L0 60.597 18.775 79.61l19.595-19.84-7.326-7.238-7.23 7.32C27.247 39.68 44.642 24.363 65.82 24.363c9.461 0 18.184 3.052 25.25 8.226l.294.217.24-.28a586.592 586.592 0 016.448-7.353l.285-.32-.341-.26c-8.95-6.797-20.103-10.838-32.176-10.838zm47.415 38.229l-.276.29-19.02 19.84 7.432 7.128 7.12-7.429c-3.13 20.221-20.297 35.797-41.472 36.112-9.461.14-18.227-2.781-25.37-7.85l-.298-.213-.235.284a585.317 585.317 0 01-6.337 7.447l-.281.324.345.256c9.05 6.663 20.263 10.537 32.334 10.358 26.718-.399 48.57-20.532 51.998-46.27l5.9 5.797 7.217-7.344z"/>
</svg>
