<svg xmlns="http://www.w3.org/2000/svg" viewBox="0 0 16 16" stroke-linecap="round" stroke-linejoin="round">
  <path d="m12.822 10.87.243.437-.243-.437Zm-4.661 2.588-.243-.437h-.001l.244.437Zm-.322 0 .244-.436-.001-.001-.243.437ZM3.178 10.87l-.243.437.243-.437Zm0-5.74-.243-.437.243.437Zm4.661-2.588.243.437h.001l-.244-.437Zm.322 0-.244.436.001.001.243-.437Zm4.661 2.588.243-.437-.243.437ZM8.5 8H8v1a1 1 0 0 0 1-1h-.5Zm-.5.5V8H7a1 1 0 0 0 1 1v-.5ZM7.5 8H8V7a1 1 0 0 0-1 1h.5Zm.5-.5V8h1a1 1 0 0 0-1-1v.5Zm4.994-2.078h-.5v5.156h1V5.422h-.5Zm0 5.156h-.5c0-.061.034-.116.085-.145l.243.437.243.437a.834.834 0 0 0 .429-.729h-.5Zm-.172.292-.243-.437-4.66 2.588.242.437.243.437 4.66-2.588-.242-.437Zm-4.661 2.588-.244-.436a.17.17 0 0 1 .166 0l-.244.436-.244.436a.83.83 0 0 0 .81 0l-.244-.436Zm-.322 0 .243-.437-4.661-2.588-.243.437-.243.437 4.661 2.588.243-.437ZM3.178 10.87l.243-.437a.166.166 0 0 1 .085.145h-1c0 .305.166.582.429.729l.243-.437Zm-.172-.292h.5V5.422h-1v5.156h.5Zm0-5.156h.5a.166.166 0 0 1-.085.145l-.243-.437-.243-.437a.834.834 0 0 0-.429.729h.5Zm.172-.292.243.437L8.08 2.98l-.242-.437-.243-.437-4.66 2.588.242.437Zm4.661-2.588.244.436a.17.17 0 0 1-.166 0l.244-.436.244-.436a.83.83 0 0 0-.81 0l.244.436Zm.322 0-.243.437 4.661 2.588.243-.437.243-.437-4.661-2.588-.243.437Zm4.661 2.588-.243.437a.167.167 0 0 1-.085-.145h1a.834.834 0 0 0-.429-.729l-.243.437Z"/>
</svg>
