<svg height="500" viewBox="0 0 500.00001 500.00001" width="500" xmlns="http://www.w3.org/2000/svg"><path d="m207.72649 552.36246c-9.58156.56176-19.61044-.5738-28.89232 2.18539-9.92365 4.51416-11.3996 16.74888-10.78194 26.35987-.33982 10.57949-.40206 21.16511-.63311 31.74704-31.96322.55962-64.00768.0222-95.92 1.37682-15.647498 5.67343-28.108278 21.91494-25.377484 39.02559.472468 13.15448-1.671721 26.76164 1.361254 39.64406 5.091177 11.63453 15.950424 21.06625 28.48614 23.11997-1.357723 9.09644.351556 18.41407-.240017 27.63358.445166 94.30366.163149 188.69761 1.17824 282.94502 5.738559 14.4077 19.891923 27.4604 36.319907 25.4936 94.83106.649 189.74702.6236 284.52771-.074 14.70613-5.756 27.92148-20.249 25.93354-36.9377-.0773-99.63186.57613-199.26439.75433-298.8967 16.57234-3.27329 31.36194-18.83844 29.43476-36.41906-.28258-14.63241 2.02044-29.90795-2.19004-44.12704-6.07738-14.15728-21.45193-24.3356-37.10705-22.01057-27.34339-.263-54.68677-.52601-82.03016-.78902-1.09277-16.83065 1.86004-34.59678-3.49927-50.91959-4.99968-9.00077-16.41929-9.84837-25.55076-9.09111-31.92454-.5605-63.8489.18268-95.77373-.26634zm42.31159 42.33448h39.50454v17.89108c-26.42618-.0534-52.94801.88329-79.31039-.0725-.11034-5.94023.0955-11.87974.19642-17.81861h39.60943zm122.56783 60.73089c12.14925.19476 24.63079-.10751 36.48391 2.31314 6.00942 5.17744 1.59122 17.47034-6.88972 15.81431-96.25458.97257-192.53119.77479-288.7798.17031-7.60059-.59965-16.113082.71039-23.093782-2.53865-4.724987-5.15244-1.499311-16.41916 6.498843-14.90503 91.921699-1.12566 183.858239-.51093 275.780549-.85408zm-122.56783 61.51275h131.18727c-.0737 95.93725.15656 191.94996-.12395 287.84002-6.06281 8.2852-17.67534 4.0627-26.26609 5.1481-76.7573.6015-153.55808.4894-230.29033-.4188-8.16139-3.5951-5.19383-14.38261-5.79459-21.38067-.58279-90.39561.10852-180.79247.0947-271.18865h131.193zm-81.77418 51.35438c.0229 72.69372-.77901 145.38963.0286 218.08164 4.78253 7.62789 14.6676 4.18591 21.98694 4.89559 6.433-.10899 12.86583-.2277 19.29871-.34368 0-74.86082 0-149.72164 0-224.58246-13.77015 0-27.54029 0-41.31044 0l-.002.97636-.002.97255zm61.11991 0c.0199 72.68037-.77296 145.3629.0286 218.04159 4.7362 7.69974 14.66739 4.19686 21.98693 4.93564 6.43363-.10901 12.8671-.2277 19.30062-.34368 0-74.86082 0-149.72164 0-224.58246-13.77078 0-27.54156 0-41.31234 0l-.002.97636-.002.97255zm61.12183 0c.0223 72.68037-.77771 145.36292.0286 218.04159 4.73619 7.69974 14.66738 4.19686 21.98693 4.93564 6.43301-.10899 12.86583-.2277 19.29871-.34368 0-74.86082 0-149.72164 0-224.58246-13.77015 0-27.54028 0-41.31043 0l-.002.97636-.002.97255z" transform="translate(0 -552.36216)"/></svg>