<svg height="500" viewBox="0 0 500.00001 500.00001" width="500" xmlns="http://www.w3.org/2000/svg"><path d="m29.46926 452.35886c-6.11748-1.47812-14.97396-6.70158-19.28094-11.37414-2.19804-2.38439-5.38889-7.27547-7.09192-10.87019l-3.0964-6.53591v-32.77857-32.77858l3.03589-6.40647c6.94437-14.6546 17.86818-21.999 34.63504-23.28719l8.31705-.63822.49016-31.80005.49015-31.80031 3.0964-6.5359c4.30928-9.09569 9.8567-14.76234 18.76092-19.16377l7.39291-3.6542 78.81838-.49016 78.81838-.49015v-30.82179-30.82153l-8.58868-.65609c-15.76026-1.19986-27.03943-8.61549-33.74484-22.18256l-3.65421-7.39418v-32.88018-32.879921l3.65421-7.39419c4.40118-8.90524 10.06731-14.45241 19.16402-18.76194l6.53565-3.0964h32.77857 32.77883l6.53565 3.0964c9.0967 4.30953 14.76258 9.8567 19.16402 18.76194l3.6542 7.39419v32.879921 32.88018l-3.6542 7.39418c-6.70542 13.56707-17.98459 20.98168-33.74484 22.18256l-8.58894.65609v30.82153 30.82179l78.81864.49015 78.81863.49016 7.39266 3.6542c8.90421 4.40143 14.4519 10.06808 18.76092 19.16377l3.09639 6.5359.49016 31.80031.49015 31.80005 8.72118.66375c15.89173 1.21007 27.51069 9.07577 34.17015 23.13274l3.0964 6.53565v32.77883 32.77857l-3.0964 6.53565c-4.30953 9.09671-9.8567 14.76259-18.76194 19.16402l-7.39418 3.65421h-32.87993-32.88018l-7.39393-3.65421c-8.90549-4.40143-14.45266-10.06731-18.76219-19.16402l-3.0964-6.53565v-32.77857-32.77883l3.0964-6.53565c6.65946-14.05697 18.27842-21.92267 34.17015-23.13274l8.72143-.66375.2604-27.39709c.28081-29.47667-.0255-31.84421-4.50355-33.68459-1.83298-.75566-24.68388-.99818-76.97035-.81693l-74.36359.25529v30.82153 30.82179l8.5629.58716c15.73626 1.07732 27.66258 9.14011 34.32869 23.21112l3.09639 6.53565v32.28944c0 29.56653-.15317 32.7219-1.9019 37.41564-3.78772 10.20976-13.09478 19.51683-23.30455 23.30455-4.69399 1.74107-7.84911 1.9019-37.41564 1.9019h-32.28944l-6.53565-3.0964c-9.0967-4.30953-14.76258-9.8567-19.16402-18.7622l-3.6542-7.39393v-32.88017-32.87993l3.6542-7.39418c6.71001-13.57677 18.31059-21.19178 33.91053-22.26017l8.42325-.57695v-30.82179-30.82152l-74.36359-.25529c-52.28672-.17871-75.13737.0511-76.97034.81692-4.46807 1.84063-4.78463 4.20793-4.50355 33.68434l.26039 27.39708 8.58894.6561c15.75949 1.19985 27.03891 8.61523 33.74458 22.18204l3.65446 7.39291v32.8304 32.83014l-3.09639 6.53591c-4.30826 9.09364-9.85696 14.76233-18.75863 19.16402l-7.39035 3.6542-30.87616.1787c-16.98182.10212-32.58532-.22976-34.67461-.74544zm61.11411-33.10789 2.86025-2.86026v-24.98001c0-16.22361-.38038-25.81608-1.08753-27.36441-1.90701-4.18418-4.38101-4.55716-30.22466-4.55716-25.8434 0-28.31817.37272-30.22441 4.55716-1.49089 3.27153-1.48834 50.24314.004 53.51568.59993 1.31474 2.02955 2.84801 3.17988 3.40454 1.26113.61014 12.09788 1.03902 27.36083 1.07732l25.27079.0511 2.86-2.86025zm186.16886 1.77425c4.18392-1.907 4.5569-4.38101 4.5569-30.22466 0-15.77583-.38293-25.21028-1.08753-26.75376-1.90701-4.18393-4.38101-4.55716-30.22441-4.55716-25.84365 0-28.31842.37272-30.22466 4.55716-1.49089 3.27153-1.48834 50.24339.004 53.51594.59993 1.31474 2.02955 2.84775 3.17988 3.40453 2.94859 1.42707 50.67585 1.47812 53.79497.0511zm187.86551 0c4.18392-1.907 4.5569-4.38101 4.5569-30.22466 0-15.77583-.38293-25.21028-1.08753-26.75376-1.90701-4.18393-4.38076-4.55716-30.22441-4.55716-25.8434 0-28.31817.37272-30.22466 4.55716-1.49089 3.27153-1.48834 50.24339.004 53.51594.59993 1.31474 2.02955 2.84775 3.18013 3.40453 2.94859 1.42707 50.6756 1.47812 53.79472.0511zm-187.86551-281.79852c4.18392-1.907 4.5569-4.38101 4.5569-30.22466 0-25.843401-.37272-28.318171-4.5569-30.224411-3.26489-1.48833-50.24289-1.48833-53.50777 0-4.18393 1.90701-4.55717 4.38101-4.55717 30.224411 0 25.47578.39826 28.29213 4.27022 30.16671 2.94859 1.42707 50.6756 1.47812 53.79472.0511z"/></svg>