<svg width="40" height="41" viewBox="0 0 40 41" xmlns="http://www.w3.org/2000/svg">
<path d="M27.3455 0.855913C24.5854 1.57398 22.3027 3.61844 21.0431 6.14402C20.1365 7.69681 19.033 9.20989 18.595 10.9747C18.5791 12.5077 20.6042 13.6713 21.8504 12.6729C22.6753 11.9726 23.1234 10.9544 23.7106 10.0663C24.635 8.50138 25.4362 6.73624 26.9321 5.62399C29.1019 4.25506 32.2456 4.42792 34.0446 6.34338C35.8577 8.1232 36.2905 11.1996 34.8418 13.3314C32.9321 16.6169 31.1617 19.9943 29.0399 23.1496C27.4127 25.0133 24.4999 25.5226 22.3148 24.3806C21.3889 23.9825 20.1292 23.8473 19.4164 24.7113C18.5786 25.6499 18.7897 27.3327 19.9352 27.9313C21.5038 28.8608 23.3602 29.3035 25.1804 29.2411C28.4779 29.143 31.7684 27.3471 33.3539 24.3955C35.2416 21.2163 37.1745 18.059 38.8823 14.7782C40.1672 12.4492 40.2813 9.54151 39.3961 7.06543C38.2811 3.73956 35.2239 1.14689 31.7426 0.612769C30.2794 0.366248 28.7587 0.444615 27.3455 0.855913Z"/>
<path d="M21.5425 15.5518C18.5342 14.718 15.2111 15.4777 12.7177 17.3188C9.61691 19.2557 6.23319 20.7461 3.34262 23.0045C0.406478 25.6204 -0.667 30.0993 0.749192 33.7793C2.05062 37.3431 5.55324 39.9812 9.32072 40.1837C11.3238 40.3507 13.3742 39.8349 15.0901 38.8156C16.7842 37.9099 18.4823 36.9731 20.0268 35.832C21.0495 34.7451 20.3594 32.7262 18.9072 32.4378C17.9352 32.2308 17.0769 32.9029 16.2329 33.269C14.3839 34.2493 12.6424 35.605 10.5346 35.969C7.95596 36.1495 5.28979 34.4567 4.60879 31.9141C3.8766 29.5283 4.92467 26.6732 7.15855 25.4846C10.4996 23.5458 13.7869 21.5028 17.2426 19.7703C19.6534 18.9028 22.5372 20.0004 23.8578 22.1732C24.4664 22.9945 25.6092 23.6365 26.6126 23.1317C27.7622 22.6301 28.2785 21.0176 27.4862 19.9962C26.1927 17.801 23.9992 16.1919 21.5425 15.5518Z"/>
<path fill-rule="evenodd" clip-rule="evenodd" d="M5.06066 4.93934C5.64645 4.35355 6.59619 4.35355 7.18198 4.93934L11.0607 8.81802C11.6464 9.40381 11.6464 10.3536 11.0607 10.9393C10.4749 11.5251 9.52513 11.5251 8.93934 10.9393L5.06066 7.06066C4.47487 6.47487 4.47487 5.52513 5.06066 4.93934Z" fill="black"/>
<path fill-rule="evenodd" clip-rule="evenodd" d="M13.5 0C14.3284 3.62117e-08 15 0.671573 15 1.5V6.98528C15 7.81371 14.3284 8.48528 13.5 8.48528C12.6716 8.48528 12 7.81371 12 6.98528V1.5C12 0.671573 12.6716 -3.62117e-08 13.5 0Z"/>
<path fill-rule="evenodd" clip-rule="evenodd" d="M0 13.5C0 12.6716 0.671573 12 1.5 12H6.98528C7.81371 12 8.48528 12.6716 8.48528 13.5C8.48528 14.3284 7.81371 15 6.98528 15H1.5C0.671573 15 0 14.3284 0 13.5Z"/>
</svg>
