<svg xmlns="http://www.w3.org/2000/svg" width="500" height="500" viewBox="0 0 500 500">
  <path d="M102.41699 0v281.31103c.37563 42.72406 13.85985 76.25947 40.52735 100.64697 26.66781 24.3875 62.47646 36.62109 107.36083 36.62109l14.34327-.61034c41.31625-3.025 73.98402-16.92138 98.02246-41.687 24.22532-24.76563 36.4336-56.57597 36.6211-95.52003V0h-54.38233v279.90722c0 29.87001-8.13635 53.01112-24.4751 69.45803-16.15094 16.44684-39.51783 24.65819-70.1294 24.65819-30.23593 0-53.54681-8.21135-69.88525-24.65819-16.33875-16.63753-24.53613-39.8932-24.53613-69.7632V0zM62.5 470.94725V500h375v-29.05275z"/>
</svg>
