<svg viewBox="0 0 500 500">
  <defs/>
  <path d="M214.21 31.25v175.319H500V31.25H262.939zM131.446 42.5C93.461 60.088 60.253 87.886 37.8 123.426a246.777 246.777 0 00-2.293 3.431c-48.258 73.81-46.268 176.505 4.424 248.608 8.026 11.857 17.086 23.01 26.984 33.355-7.355 12.926-19.394 24.546-22.158 39.774.198 9.258 10.741 14.737 19.015 12.105 30.048-2.419 60.351-4.206 89.963-9.867 10.436-4.98 11.992-19.379 6.596-28.633-8.938-27.027-15.972-55.072-28.47-80.676-7.475-7.233-20.155-1.903-23.919 6.766-4.547 5.833-7.804 12.575-12.591 18.23-49.756-53.705-59.863-140.16-23.805-204.025 18.108-33.437 47.848-60.312 82.55-76.185zM262.94 79.979h188.332v77.86H262.94zm-48.728 203.39v48.729H500v-48.729zm0 122.352v48.728H500v-48.728z"/>
</svg>
