<svg height="500" viewBox="0 0 500.00001 500.00001" width="500" xmlns="http://www.w3.org/2000/svg"><path d="m267.393 23.48c-88.18.946-172.42 59.717-204.148 141.947-5.39 13.265-9.62 26.997-12.712 40.976-14.833 1.077-31.187-2.467-45.38 3.705-7.584 5.314-6.272 17.125.517 22.538 18.722 23.626 37.06 47.815 58.234 69.276 9.942 5.903 22.776-.814 27.466-10.445 17.49-22.46 36.883-43.903 51.21-68.53 1.854-10.235-9.626-17.808-18.924-16.114-7.377-.535-14.79.508-22.153-.325 16.96-71.22 83.185-127.703 156.316-133.257 61.472-5.76 125.65 23.543 160.772 74.893 34.636 49.37 42.33 116.303 17.738 171.66-22.51 52.993-72.073 93.513-128.673 104.138-53.846 10.76-112.327-5.19-153.14-42.24-6.707-5.932-13.56-13.615-23.355-13.318-14.056-1.012-26.422 12.118-25.292 25.986.046 8.412 5.87 14.975 11.957 20.033 62.64 61.81 163.483 79.47 243.9 44.304 64.723-27.22 115.68-85.82 131.714-154.412 15.942-64.328 2.593-135.65-37.515-188.706-42.335-57.397-112.723-93.999-184.405-92.113-1.377-.01-2.752-.01-4.127.003zm5 74.84c-14.593.034-25.925 15.445-22.93 29.44-.267 43.316-1.854 80.763.57 124.006 0 16.022 12.657 22.41 31.217 22.41 37.45.106 75.065 1.907 112.41-1.264 16.298-4.748 21.17-28.12 9.398-39.846-6.213-7.357-16.492-8.592-25.47-7.432l-79.22-.735c-.82-37.02 1.053-74.177-2.314-111.09-3.368-9.633-13.656-15.794-23.662-15.49z"/></svg>