<svg height="500" viewBox="0 0 500.00001 500.00001" width="500" xmlns="http://www.w3.org/2000/svg"><path d="m33.826.582c-1.034-.078-2.21.368-3.133 1.29l-29.095 29.098c-1.477 1.476-1.732 3.598-.573 4.757l21.746 21.73c-14.611 9.045-24.281 26.303-22.501 43.766-.015 102.343-.606 204.704.01 307.035 2.597 24.247 26.213 43.21 50.5 40.842 121.265-.177 242.544.277 363.802-.14l50.25 50.212c1.16 1.16 3.28.903 4.758-.574l29.096-29.096c1.477-1.477 1.733-3.6.574-4.758l-463.807-463.444c-.435-.437-1.006-.67-1.627-.72zm92.026 50.27 93.54 93.466h237.743v237.56l38.894 38.864c3.09-6.973 4.53-14.68 3.77-22.46-.27-85.552.574-171.134-.44-256.667-2.937-23.786-26.56-42.382-50.378-39.967h-200.781l-50.8-50.796h-71.55zm-83.222 93.466h67.07l262.32 262.114h-329.39z"/></svg>