<svg viewBox="0 0 500 500" xmlns="http://www.w3.org/2000/svg"><path d="m249 0c-32 0-33 0-45.3 2.7-13 2.8-27 7.6-37.3 12.7-24.7 12.3-47 35-55.2 56.4-6.2 16-6.2 15.7-6.8 69.4l-.6 49.4-8 4c-15.2 7.6-27.3 23-31.7 40.2-1 7.3-1 11.3-1 110 0 100.3 0 102.4 2 109.5 7 23.3 24 40.5 47 45 2 .5 66 .8 142 .7l138-.2 7-2.5c10-4 17-8.5 24-16.2 8-8 12-16 15-27 2-7 2-11 2-109s0-102-2-109c-5-17-20-33-32-40-5-3-12-5-17-6h-243.1l-.6-2c0-1-.2-21 0-45 .3-43 .3-44 2.6-50 8.8-22 31.3-39 61.7-46 12-3 60-4 74.5-1 26.8 4 49.6 17 61.8 34 4 6 15 12 25.8 8 12.2-10.1 14.2-22.1 8.2-33.1-3.5-5-7.7-10-13.2-15.4-15.8-15.6-32-25.3-54.8-32.6-19.5-6.3-26-7-63-7zm-135 227.4h135.2c134.2 0 135 0 138.3 2 2 1.2 4.2 4 5.7 7l2.6 5v202.8l-2.7 5.2c-2 4-3 5.8-7 7.5l-4 2h-133.1c-127.6 0-132.6 0-135.5-2-4-3-7-6-8.7-10-1.4-4-1.5-16-1.5-105 0-114-.5-106 7.2-112zm137 45.3c-11.2-.3-22.6 3.8-31.4 13.3-6.3 7-9 12.5-10.7 21.6-2 12.5 2 26.2 12 35 3 2.8 5 5.7 5 6.5 0 1-4 16-8 33s-8 32-8 33c0 2 4 2 39 2 21 0 39 0 39-1l-8-34-8-33 6-5c9-10 14-23 12-35-4-21-22-34-41-34z"/></svg>