<svg xmlns="http://www.w3.org/2000/svg" width="500" height="500" viewBox="0 0 132.292 132.292">
  <path d="M27.637 0v48.775H16.504v83.517h99.284V48.775h-11.664v-.017H93.521v.017h-55.28V10.6h55.28v10.946h10.603V0zm-.53 59.376h78.078v62.313H27.107zM65.825 72.03c-2.779.064-5.574 1.179-7.756 3.535-1.693 1.829-2.428 3.31-2.843 5.733-.57 3.32.712 6.929 3.301 9.295.781.714 1.42 1.484 1.42 1.712 0 .228-.934 4.143-2.075 8.7-1.14 4.557-2.074 8.463-2.074 8.68 0 .347 1.253.395 10.357.395 5.696 0 10.413-.092 10.483-.205.07-.113-.866-4.178-2.08-9.034l-2.208-8.828 1.53-1.533c2.579-2.585 3.752-6.001 3.174-9.247-1.003-5.647-5.744-9.067-10.674-9.202a5.15 5.15 0 00-.555 0z"/>
</svg>
