<svg xmlns="http://www.w3.org/2000/svg" width="500" height="500" viewBox="0 0 132.292 132.292">
  <path d="M65.187 0c-17.575.212-34.143 14.148-36.71 31.652-1.038 7.242-.414 14.59-.723 21.864.049 8.405 1.904 17.071 6.942 23.959 7.438 10.852 20.726 17.517 33.906 16.454 12.504-.744 24.385-8.049 30.619-18.927 4.013-6.788 5.656-14.791 5.26-22.626-.028-7.539.185-15.149-.98-22.615C99.923 13.445 84.587.486 67.833.027a75.237 75.237 0 00-2.646-.026zm.37 11.066c.357-.01.714 0 1.072.01 12.594.013 24.51 10.185 26.4 22.677.622 5.963.116 12.063.31 18.092.152 5.442-.122 11.144-2.818 16.026-4.684 9.434-15.255 15.752-25.724 15.007-10.896-.379-21.149-8.172-24.43-18.628-1.927-5.606-1.325-11.64-1.62-17.475.026-5.865.054-11.805 1.72-17.477 3.634-10.413 14.037-18.09 25.09-18.232zM27.462 82.181L2.124 91.257v41.035H130.168V91.257l-25.337-9.076-3.55 9.912 18.36 6.576v23.095H12.65V98.67l18.359-6.576z"/>
</svg>
