<svg height="369" viewBox="0 0 261 345" width="279" xmlns="http://www.w3.org/2000/svg"><path d="m230.023 80.02-.023.03v15.044l-11.96.006v20.75l-19.354 9.142v-29.885l-9.93-.04v34.6l-19.417 9.254-.003-43.777-14.146-.016v50.414l-19.354 9.146.002-59.55-9.93.027v59.434l-19.508-9.212v-50.237l-13.774-.13-.002 43.766-19.332-9.053v-34.613l-9.97.045v29.893l-19.398-9.187v-20.694l-11.983.006v15.03l-17.122-8.09 17.078-6.983v-14.92l-31.611 15.037-.286-.137v188.953l123.418 58.308 7.543 3.56 7.542-3.56 123.42-58.306v-188.955l-.233.11-31.667-15.06zm-.002 15.076 17.126 7.002-17.125 8.09zm-214.938 23.834 108.336 51.177v155.59l-108.337-51.177zm231.756 0v155.59l-108.336 51.177v-155.59z"/><path d="m68.26.058-36.326 51.162.002 58.06h11.964v-49.744h19.423v49.742h9.97v-49.742h19.327v49.742h11.967v-58.058l-1.105-1.554-35.22-49.608zm6.43 29.72 14.047 19.788h-40.953l13.886-19.556 13.02-.23z"/><path d="m130.808 13.936-36.328 51.162.002 58.058h11.964v-49.742h19.424v49.742h9.97v-49.742h19.327v49.742h11.967v-58.058l-1.105-1.555-35.222-49.607zm6.427 29.72 14.05 19.787h-40.955l13.886-19.556 13.02-.23z"/><path d="m193.684.083-36.328 51.162.002 58.058h11.965v-49.743h19.424v49.743h9.97v-49.743h19.326v49.743h11.967v-58.058l-1.105-1.555-35.22-49.607zm6.428 29.72 14.05 19.787h-40.955l13.885-19.556 13.02-.23z"/></svg>