<svg height="500" viewBox="0 0 1512.0058 499.99999" width="1512.0059" xmlns="http://www.w3.org/2000/svg"><path d="m-37.899907 126.28711-52.576754 74.05348v41.86097l-45.753769 21.76184-.41215-.19478v17.20283 255.89706l178.379874 84.27243 10.902091 5.14617 10.899259-5.14617 178.382706-84.27243v-273.09989l-.33594.15808-45.76788-21.76748v-41.81863l-1.60059-2.25269-50.97899-71.80079-52.579583 74.05348v.0734l-38.258936-53.88376-37.962526 53.46879-1.357831-1.91111-50.978981-71.80079zm9.301498 43.01555 20.3362663 28.64127h-59.2755273l20.09914-28.30534zm181.137859 0 20.33626 28.64127h-59.27552l20.09632-28.30534zm-90.838516 20.24593 20.336262 28.63845h-59.272696l20.096308-28.30535zm-134.859024 22.8289h28.113391v94.66357l-28.113391-13.28182zm42.546945 0h27.972245l-.00289 114.69495-27.972245-13.21406.0029-101.48089zm138.588095 0h28.11621l-.003 101.38492-28.11057 13.27898-.003-114.6639zm42.54694 0h27.97224v81.3507l-27.97224 13.21406zm-133.38264 20.24311h28.113388v117.07749l-28.113388-13.2818zm42.546945 0h27.972251l-.0029 104.02152-27.972237 13.21688.0029-117.2384zm136.126505 31.11132 24.7513 10.12015-24.7513 11.6925zm-286.291361.0367v21.80983l-24.748479-11.69252zm1175.906961 30.16847c-26.4791 0-47.8776 9.14921-63.6849 27.34839-15.7919 18.18144-23.66164 41.8944-23.66164 70.83253v36.20103c0 29.03883 7.87124 52.75579 23.66734 70.83818 15.9098 18.09349 37.3521 27.19311 63.8288 27.19313 26.8739 0 48.57-9.088 64.5855-27.17901 16.1059-18.08016 24.1359-41.80704 24.1359-70.8523v-36.20103c0-28.94462-8.0258-52.66743-24.1275-70.84665-16.1159-18.19544-37.8635-27.33427-64.7435-27.33427zm-270.76532 3.20401v.003 225.99958h1.81514 76.82275c21.881 0 39.56409-5.44164 52.77719-16.4491l.009-.009c13.35116-11.04245 20.04832-26.97133 20.04832-47.21604 0-13.82062-4.3954-26.15394-13.09267-36.73739-7.69758-9.36692-17.86714-15.07948-29.65752-18.14004 9.30101-3.53759 17.23505-8.69692 22.97287-16.25151 6.75761-8.76372 10.15406-19.14159 10.15401-30.89114 0-19.94328-6.7207-35.2523-20.11326-45.2767l-.0145-.009c-13.24636-10.08688-31.6375-15.02354-54.99882-15.02354h-66.72237zm-405.63848.003v152.55586c0 24.49603 7.46567 43.6489 22.44498 56.95228h.009c14.92387 13.14971 34.47132 19.69829 58.32137 19.69829 24.14893 0 43.9385-6.54043 59.06664-19.68419 15.29363-13.19856 22.9277-32.36243 22.9277-56.96638v-152.55586h-1.81514-19.99187v152.55586c0 18.67383-5.55958 32.71936-16.64953 42.63164-11.14796 9.9641-25.55052 14.95862-43.5378 14.95862-17.67605 0-31.75828-4.98933-42.60058-14.94451-10.79347-10.01074-16.21763-24.06821-16.21763-42.64575v-152.55586h-21.95662zm194.34062 0 75.29556 111.46554-77.5934 114.53404h26.54666l64.09142-96.58596 64.23256 96.58596h26.2418l-77.59341-114.53404 75.13748-111.46554h-26.53256l-61.79074 93.51182-61.49434-93.51182zm593.18158 0 75.304 111.46554-77.5963 114.53404h26.5411l64.0914-96.58596 64.2382 96.58596h26.2362l-77.5935-114.53404 75.146-111.46554h-26.5411l-61.785 93.50617-61.4916-93.50617zm-1311.39275 1.03601 156.581344 73.96879v224.8789l-156.581344-73.9688zm334.96404 0v224.87889l-156.581346 73.9688v-224.8789l156.581346-73.9689zm865.31031 15.42723c21.1739 0 37.371 7.07946 49.1498 21.33274 11.9056 14.28671 17.9142 33.15235 17.9142 56.87323v36.50591c0 24.03274-5.9628 43.05217-17.7646 57.33336-11.6729 14.14589-27.8693 21.18314-49.1498 21.18314-20.7586 0-36.6434-7.07159-48.2238-21.32427-11.5016-14.28036-17.3073-33.2575-17.3073-57.19223v-36.50591c0-23.73117 5.8007-42.60889 17.3073-56.89299 11.4781-14.24852 27.3155-21.31298 48.0742-21.31298zm-248.95831 2.74669h44.91536c17.67893 0 30.91128 3.5286 39.83413 10.31774v.009h.009c8.90205 6.67653 13.32697 16.51578 13.32697 30.16282 0 13.35501-4.19627 23.12222-12.60995 29.89182-8.33267 6.6855-20.30783 10.1399-36.13046 10.1399h-49.3417v-80.51794l-.003-.003zm0 99.5726h59.73284c15.86896 0 27.61591 4.15369 35.65903 12.29378l.0116.009h.009c8.2187 8.21873 12.29096 18.60196 12.29096 31.5517 0 14.17022-4.4659 24.89285-13.4286 32.68652-8.96884 7.69556-21.35194 11.61624-37.44028 11.61627h-56.8309v-88.15392l-.003-.003z" transform="translate(136.64258 -126.28711)"/></svg>