<svg xmlns="http://www.w3.org/2000/svg" viewBox="4563 696 212.14 362.63"><path d="M4669.07 696a41.22 41.22 0 0 0-29.24 12.07l-64.76 64.75a41.47 41.47 0 0 0 0 58.49l8.39 8.39-8.39 8.38a41.47 41.47 0 0 0 0 58.5l8.38 8.38-8.36 8.37a41.47 41.47 0 0 0 0 58.49l64.73 64.73a41.48 41.48 0 0 0 58.5.01l64.74-64.73a41.49 41.49 0 0 0 0-58.51l-8.37-8.38 8.37-8.37a41.47 41.47 0 0 0 0-58.5l-8.38-8.37 8.39-8.38a41.47 41.47 0 0 0 0-58.5l-64.75-64.75a41.25 41.25 0 0 0-29.25-12.07Zm0 18.28a22.85 22.85 0 0 1 16.2 6.83l64.76 64.75a22.68 22.68 0 0 1 0 32.42l-64.74 64.75a22.68 22.68 0 0 1-32.43.01l-64.76-64.75a22.68 22.68 0 0 1 0-32.43l64.75-64.75a22.86 22.86 0 0 1 16.22-6.83Zm0 52.73c-4.3 0-8.62 1.62-11.85 4.85l-18.35 18.36a16.89 16.89 0 0 0 0 23.7l18.35 18.35a16.89 16.89 0 0 0 23.7 0l18.36-18.35a16.89 16.89 0 0 0-.01-23.7l-18.35-18.35a16.7 16.7 0 0 0-11.85-4.86Zm0 15.19c.34 0 .68.16 1.01.5l18.36 18.35c.66.67.68 1.38.01 2.05l-18.35 18.35c-.67.67-1.4.67-2.06 0l-18.36-18.35c-.66-.66-.65-1.39.01-2.05l18.35-18.35c.34-.33.68-.5 1.03-.5Zm-72.58 70.53 43.33 43.33a41.47 41.47 0 0 0 58.5.01l43.33-43.33 8.37 8.37a22.68 22.68 0 0 1 0 32.42l-64.75 64.75a22.68 22.68 0 0 1-32.43 0l-64.73-64.73a22.68 22.68 0 0 1 0-32.44Zm145.17 75.24 8.37 8.37a22.7 22.7 0 0 1 0 32.45l-64.74 64.74a22.7 22.7 0 0 1-32.44-.01l-64.73-64.74a22.67 22.67 0 0 1 0-32.42l8.36-8.37 43.33 43.33a41.47 41.47 0 0 0 58.5 0Z" paint-order="fill markers"/></svg>
