<svg xmlns="http://www.w3.org/2000/svg" viewBox="4870 696 216.34 319.12"><path d="M5052.72 696a5.69 5.69 0 0 0-5.8 4.77c-1.72 10.62-4.08 20.19-7.8 27-3.71 6.79-8.19 10.82-15.77 12.25-6.11 1.16-6.17 9.92-.07 11.15 7.97 1.64 12.63 5.72 16.33 12.39 3.7 6.68 5.93 16.05 7.27 26.7.89 6.88 10.98 6.47 11.32-.46.83-18.37 4.47-27.31 8.37-31.76 3.9-4.45 8.67-5.56 15.17-6.85 5.8-1.12 6.24-9.26.6-11.01-7.53-2.35-12.77-6.54-16.73-12.94-3.95-6.4-6.46-15.15-7.41-26.06a5.69 5.69 0 0 0-5.48-5.18Zm-151.65 71.03c-17.13.1-31 13.97-31.07 31.1v185.9a31.21 31.21 0 0 0 31.07 31.09h136.32a31.24 31.24 0 0 0 31.1-31.08V871.7c0-6.01-1.92-12.93-6.51-17.91-21.13-22.9-59.2-64.23-73.79-78.82-4-4.01-10.62-7.95-17.97-7.95Zm0 18.43h65.88v71.29c0 6.42 4.03 12.41 8.53 15.12 4.51 2.71 9.05 3.33 13.15 3.33h61.43v108.83a12.44 12.44 0 0 1-12.67 12.66h-136.32a12.42 12.42 0 0 1-12.65-12.66v-185.9a12.44 12.44 0 0 1 12.65-12.67Zm84.31 13.15a5423.07 5423.07 0 0 1 54.24 58.17h-50.99a8.99 8.99 0 0 1-3.25-.62Z" paint-order="fill markers"/></svg>
