<svg xmlns="http://www.w3.org/2000/svg" viewBox="4494 307 310 290"><path d="m4643.25 309.15-18.86 15.75a9.32 9.32 0 0 0-1.2 13.1 9.26 9.26 0 0 0 13.07 1.2l3.67-3.05.2 82.04a103.8 103.8 0 0 0-14.46-19.07c-15.68-16.23-36.46-25.7-59.17-26.11a86.83 86.83 0 0 0-11.04.52l1.91-3.29a9.32 9.32 0 0 0-3.42-12.57 9.26 9.26 0 0 0-12.6 3.2l-12.59 21.63a9.32 9.32 0 0 0 2.1 11.86l18.93 15.67a9.26 9.26 0 0 0 9.16 1.54 9.32 9.32 0 0 0 2.66-15.9l-4.42-3.66c21.64-2.66 40.4 4.82 55.14 20.07 16.68 17.27 27.77 45.12 27.98 79.86-.05 9.54.04 19.06.07 28.6-10.61-16.53-24.8-30.38-40.13-40.85-15.92-10.87-33.13-18.28-49.55-21.38-8.2-1.55-16.3-2.04-23.93-1.2-2.3.26-4.6.66-6.85 1.2l1.09-2.8a9.27 9.27 0 0 0-17.27-6.77l-9.1 23.32a9.32 9.32 0 0 0 3.91 11.4l21.13 12.53a9.26 9.26 0 0 0 12.54-3.37 9.32 9.32 0 0 0-3.1-12.65l-5.56-3.3c6.54-1.62 14.64-1.77 23.72-.05 13.42 2.53 28.56 8.92 42.53 18.46 27.92 19.09 50.72 50.2 50.72 87.3v.03l.02 5.3a9.3 9.3 0 0 0 9.3 9.29 9.29 9.29 0 0 0 9.25-9.32v-2.77c.5-37.1 19.92-67.3 48.22-89.72 13.17-9.62 27.44-15.99 39.99-18.46 10.08-2 18.76-1.4 25.26 1.19l-4 2.43a9.32 9.32 0 0 0-3.14 12.79 9.26 9.26 0 0 0 12.74 3.14l21.37-13a9.32 9.32 0 0 0 3.78-11.43l-9.17-22.82a9.27 9.27 0 1 0-17.21 6.96l1.72 4.29a50.78 50.78 0 0 0-11.87-2.93c-7.38-.92-15.18-.45-23.06 1.11-15.78 3.1-32.2 10.63-47.34 21.68a142.37 142.37 0 0 0-37.45 40.54l-.07-24.5c.65-34.78 11.26-64.22 26.98-82.93 15.4-18.33 34.64-26.71 56.88-22.07l-4.52 2.74a9.32 9.32 0 0 0-3 12.7 9.26 9.26 0 0 0 12.6 3.22l21.37-12.99a9.32 9.32 0 0 0 3.79-11.43l-9.17-22.83a9.27 9.27 0 0 0-12.08-5.15 9.32 9.32 0 0 0-5.14 12.11l1.5 3.74a73.41 73.41 0 0 0-19.47-1.8c-22.03.99-42.11 12.09-56.95 29.76a115.7 115.7 0 0 0-12.97 19.25l-.2-83.78 3.47 3.03a9.26 9.26 0 0 0 12.97-1.03 9.32 9.32 0 0 0-.8-13.02l-18.87-16.42a9.26 9.26 0 0 0-12.01-.13Z" paint-order="fill markers"/></svg>
