<svg xmlns="http://www.w3.org/2000/svg" viewBox="4870 326 249.25 261.8"><path fill="#000" d="M5050.75 326.04a8.57 8.57 0 0 0-7.77 3.58l-19.12 27.03a8.57 8.57 0 0 0 0 9.9l19.12 27.04a8.57 8.57 0 0 0 15.44-3.5 8.57 8.57 0 0 0-1.45-6.4l-8.43-11.92c13.34-.5 22.4 1.84 28.61 5.26 6.78 3.74 10.6 8.83 13.14 14.83 2.54 6 3.51 12.91 3.77 19.07.24 6.16-.26 11.02-.19 15.04a8.57 8.57 0 0 0 8.7 8.43 8.57 8.57 0 0 0 8.44-8.69c-.02-1.7.47-8.1.17-15.49-.3-7.37-1.4-16.26-5.1-25.03a46.95 46.95 0 0 0-20.64-23.17c-9.83-5.43-22.72-8.14-39.22-7.3l10.75-15.21a8.57 8.57 0 0 0-2.05-11.93 8.56 8.56 0 0 0-4.17-1.54Zm-158.97 1.7A21.92 21.92 0 0 0 4870 349.5v61.37a21.92 21.92 0 0 0 21.77 21.78h61.38a21.92 21.92 0 0 0 21.78-21.77v-61.37a21.92 21.92 0 0 0-21.77-21.79h-61.38Zm0 17.13h61.37a4.46 4.46 0 0 1 4.64 4.64v61.37a4.46 4.46 0 0 1-4.63 4.65h-61.38a4.45 4.45 0 0 1-4.63-4.65v-61.37a4.45 4.45 0 0 1 4.63-4.63Zm-5.1 134.52a8.57 8.57 0 0 0-8.43 8.7c.02 1.7-.47 8.1-.17 15.47.3 7.37 1.4 16.26 5.1 25.04a47 47 0 0 0 20.65 23.18c9.83 5.41 22.7 8.14 39.2 7.3l-10.74 15.2a8.57 8.57 0 0 0 8.44 13.4 8.57 8.57 0 0 0 5.56-3.51l19.1-27.04a8.57 8.57 0 0 0 0-9.9l-19.1-27.03a8.57 8.57 0 0 0-5.56-3.5 8.57 8.57 0 0 0-8.44 13.4l8.42 11.92c-13.34.5-22.4-1.82-28.6-5.24-6.78-3.74-10.6-8.83-13.14-14.83-2.54-6.02-3.51-12.92-3.77-19.08-.24-6.16.26-11.02.2-15.03a8.57 8.57 0 0 0-8.71-8.45Zm152.1 1.74a24.6 24.6 0 0 0-24.46 24.46v56.02a24.6 24.6 0 0 0 24.47 24.45h56a24.6 24.6 0 0 0 24.46-24.45v-56.02a24.6 24.6 0 0 0-24.45-24.46h-56.02Zm0 17.14h56.02a7.12 7.12 0 0 1 7.31 7.32v56.02a7.11 7.11 0 0 1-7.31 7.3h-56.02a7.12 7.12 0 0 1-5.23-2.07 7.12 7.12 0 0 1-2.09-5.23v-56.02a7.11 7.11 0 0 1 7.33-7.32Z" class="fills" color="#000" paint-order="fill markers"/></svg>
