<svg xmlns="http://www.w3.org/2000/svg" viewBox="0 0 16 16" stroke-linecap="round" stroke-linejoin="round">
  <path d="M8.75 1.25a.75.75 0 1 1-1.5 0 .75.75 0 0 1 1.5 0Zm-1.5 13.5a.75.75 0 1 0 1.5 0 .75.75 0 0 0-1.5 0ZM8.75 8a.75.75 0 1 0-1.5 0 .75.75 0 0 0 1.5 0ZM5.375 4.625a.75.75 0 1 0-1.5 0 .75.75 0 0 0 1.5 0Zm0 6.75a.75.75 0 1 0-1.5 0 .75.75 0 0 0 1.5 0Zm5.25 0a.75.75 0 1 0 1.5 0 .75.75 0 0 0-1.5 0Zm0-6.75a.75.75 0 1 0 1.5 0 .75.75 0 0 0-1.5 0ZM1.25 8.75a.75.75 0 1 0 0-1.5.75.75 0 0 0 0 1.5Zm13.5-1.5a.75.75 0 1 0 0 1.5.75.75 0 0 0 0-1.5Z"/>
</svg>
