<svg xmlns="http://www.w3.org/2000/svg" viewBox="0 0 16 16" stroke-linecap="round" stroke-linejoin="round">
    <path d="m2 4.333c0-1.287 1.046-2.333 2.333-2.333 1.288 0 2.334 1.046 2.334 2.333 0 1.288-1.046 2.334-2.334 2.334-1.287 0-2.333-1.046-2.333-2.334zm7.333 0c0-1.287 1.046-2.333 2.334-2.333 1.287 0 2.333 1.046 2.333 2.333 0 1.288-1.046 2.334-2.333 2.334-1.288 0-2.334-1.046-2.334-2.334zm0 7.334c0-1.288 1.046-2.334 2.334-2.334 1.287 0 2.333 1.046 2.333 2.334 0 1.287-1.046 2.333-2.333 2.333-1.288 0-2.334-1.046-2.334-2.333zm-7.333 0c0-1.288 1.046-2.334 2.333-2.334 1.288 0 2.334 1.046 2.334 2.334 0 1.287-1.046 2.333-2.334 2.333-1.287 0-2.333-1.046-2.333-2.333z"/>
</svg>