<svg xmlns="http://www.w3.org/2000/svg" fill="none" viewBox="0 0 16 15.674"><path fill="#fff" fill-rule="evenodd" d="M7.976 0C3.566 0 0 3.592 0 8.035a8.03 8.03 0 0 0 5.454 7.623c.396.08.541-.173.541-.385 0-.187-.013-.825-.013-1.49-2.219.479-2.681-.958-2.681-.958-.356-.932-.885-1.171-.885-1.171-.726-.492.053-.492.053-.492.806.053 1.229.825 1.229.825.713 1.223 1.862.878 2.324.665.066-.519.277-.878.502-1.078-1.77-.186-3.632-.878-3.632-3.964 0-.878.317-1.597.819-2.155-.079-.2-.357-1.025.079-2.129 0 0 .674-.213 2.192.825a7.633 7.633 0 0 1 3.988 0c1.519-1.038 2.192-.825 2.192-.825.436 1.104.159 1.929.079 2.129.516.558.819 1.277.819 2.155 0 3.086-1.862 3.765-3.644 3.964.29.253.541.732.541 1.49 0 1.078-.013 1.943-.013 2.208 0 .213.145.466.541.386a8.028 8.028 0 0 0 5.454-7.623C15.952 3.592 12.374 0 7.976 0Z" class="fills" clip-rule="evenodd"/></svg>