<svg width="200" xmlns="http://www.w3.org/2000/svg" height="160" fill="currentColor">
    <path d="M9.08 0C2.012 12.672.983 25.825 5.093 38.045c4.265 12.678 13.931 24.333 27.724 33.889.128.089.269.153.417.189 10.995 2.859 22.067 5.392 33.045 8.314-5.086-10.922-10.136-21.867-15.212-32.796a1.403 1.403 0 0 0-.422-.53c-7.463-5.674-11.825-10.986-14.118-15.765-2.293-4.778-2.567-9.022-1.801-12.859 1.533-7.674 7.482-13.704 10.696-17.048.365-.38.991-.926 1.567-1.439h-4.004c-3.307 3.419-9.178 9.495-10.853 17.88-.884 4.422-.515 9.465 2.04 14.79 2.408 5.019 6.769 10.295 13.707 15.787l-6.341 8.705c-8.156-6.393-16.228-14.334-19.834-23.516-3.739-9.518-3.002-20.353 7.505-33.266l.318-.38h-3.48c-9.843 12.892-10.718 24.756-6.785 34.768 3.928 10.001 12.33 18.139 20.631 24.649L33.13 68.7C20.307 59.548 11.474 48.618 7.587 37.063 3.586 25.167 4.689 12.6 12.112.131L12.191 0H9.08Zm94.364 0c-4.278 16.424-3.662 33.117 2.326 46.638 6.185 13.966 18.129 24.458 35.756 27.479 15.277 2.618 26.956 4.677 36.058 8.155 8.428 3.221 14.622 7.623 19.733 14.88v-4.708c-5.057-6.067-11.176-10.097-18.806-13.013-9.478-3.622-21.268-5.672-36.55-8.292-16.843-2.887-27.858-12.661-33.678-25.804-5.732-12.943-6.324-29.24-1.964-45.335h-2.875Zm15.209 0c-2.745 11.298-4.41 24.868-.314 36.654 4.287 12.334 15.047 22.353 36.51 24.968 18.108 2.206 33.068 6.653 42.468 14.295v-3.71c-10.095-7.397-24.798-11.465-42.156-13.58-20.795-2.534-30.284-11.724-34.215-23.034-3.843-11.056-2.197-24.439.583-35.593h-2.876Zm14.514 0c-3.663 11.422-5.077 22.072-1.933 30.553 3.302 8.904 11.679 14.913 26.464 16.309 18.436 1.741 31.649 7.113 39.619 11.696v-3.372c-8.386-4.596-21.482-9.638-39.376-11.327-14.205-1.341-21.256-6.696-24.123-14.428-2.812-7.583-1.505-17.956 2.29-29.431h-2.941ZM49.56 50.787l7.322 15.784-5.26 7.219-15.913-3.994L49.56 50.787Zm49.609 70.716a1.277 1.277 0 0 0-.593.21l-26.172 17.388c-.469.334-.691.947-.557 1.532V160h2.669v-17.526l29.553 12.914V160h2.667v-4.782l23.434-15.569V160h2.668v-22.571c.188-.695-.14-1.431-.763-1.713l-32.292-14.112a1.248 1.248 0 0 0-.614-.101Zm1.448 3.551 28.029 12.247-23.372 15.527-4.657-2.035v-25.739Zm-2.667.436v24.138l-21.918-9.577L97.95 125.49Z"/>
</svg>