<svg width="200" xmlns="http://www.w3.org/2000/svg" height="160" fill="currentColor">
    <path d="M126.093 0c-10.089 5.695-21.391 13.947-30.08 21.449-11.486 9.914-20.725 19.51-23.851 23.889a1.385 1.385 0 0 0-.188.367c-3.947 11.582-7.764 23.208-11.84 34.745l13.335-5.442 20.971-8.016c.2-.076.38-.197.526-.353C120.526 39.6 163.623 10.96 189.505 0h-6.93C156.311 12.439 118.124 38.436 94 63.567l-8.043-7.62C98.262 41.808 130.799 12.528 160.197 0h-6.825c-28.401 13.838-57.638 40.392-69.486 53.986l-8.532-8.085c3.402-4.311 12.043-13.253 22.54-22.314C107.87 14.976 121.399 5.365 132.131 0ZM74.025 48.558l17.448 16.53-16.704 6.385-6.49-5.928Zm-27.381 57.948a1.446 1.446 0 0 0-.663.103l-34.643 14.136a1.437 1.437 0 0 0-.821 1.558V160h2.872v-35.3l25.13 15.59V160h2.872v-19.54l31.694-12.934V160h2.872v-34.207a1.438 1.438 0 0 0-.598-1.657L47.28 106.718a1.438 1.438 0 0 0-.636-.212Zm-1.561 3.569v25.776l-4.989 2.035-25.062-15.546Zm2.872.441 23.495 14.575-23.495 9.587Z" />
</svg>