<svg width="200" xmlns="http://www.w3.org/2000/svg" height="160" fill="currentColor">
    <path d="M20.429 0C8.728 18.551 5.333 41.776 13.482 62.939 21.937 84.9 42.8 104.491 79.116 114.242c16.034 4.305 34.081 6.105 48.632 11.788 14.358 5.609 25.245 14.695 28.17 33.97h2.886c-2.97-20.486-15.017-30.759-30.021-36.62-15.096-5.897-33.226-7.67-48.93-11.886-35.661-9.575-55.619-28.548-63.716-49.577C8.113 41.076 11.755 18.09 23.8 0Zm19.655 0C26.462 20.787 23.196 41.125 30.025 58.365c7.01 17.697 24.481 31.899 51.32 40.181 20.122 6.21 41.761 8.442 58.781 15.821 16.832 7.298 29.196 19.309 31.904 45.633h2.867c-2.735-27.335-16.141-40.657-33.638-48.244-17.627-7.642-39.324-9.835-59.074-15.929-26.297-8.115-42.909-21.835-49.514-38.51C26.07 40.655 29.32 20.81 43.478 0Zm19.51 0C47.031 13.736 40.256 31.375 44.382 47.702c4.301 17.018 20.451 32.157 53.042 39.511 26.565 5.995 48.332 11.2 63.806 21.463 15.276 10.133 24.625 25.1 26.897 51.324h2.859c-2.291-26.967-12.215-43.105-28.182-53.695-16.124-10.695-38.172-15.869-64.753-21.868-31.975-7.215-46.925-21.659-50.911-37.432C43.154 31.232 50.154 13.69 63.243.25c.063-.077.118-.161.163-.25Z" />
</svg>