<svg width="200" xmlns="http://www.w3.org/2000/svg" height="160" fill="currentColor">
<path d="M86.688 0v4.474c0 .014 0 .028.011.042.011.182.067.36.163.526.133.287.38.534.705.703l36.291 17.31a2.283 2.283 0 0 0 1.63.107l44.775-14.048c.708-.224 1.165-.77 1.145-1.369 0-.013 0-.027.011-.04V0h-3.66v6.808l-41.111 12.899V0h-3.659v19.279L90.352 3.712V0Zm-66.03 87.841c-7.576.065-14.52.466-20.658 1.132v2.894c24.59-2.746 64.081-.907 101.757 9.266 37.044 10.002 73.186 29.4 91.471 58.867h4.092c-18.575-31.072-56.205-51.277-94.373-61.583C74.112 90.631 44.4 87.636 20.658 87.841Zm-1.111 15.021c-7.353.127-13.95.625-19.547 1.418v2.89c.045 0 .086.008.131 0 19.39-2.848 53.254-1.852 86.537 6.167 32.319 7.786 64.558 23.007 82.716 46.662h4.278c-18.564-25.339-52.375-41.326-85.92-49.408-21.164-5.099-42.434-7.427-60.364-7.729a227.09 227.09 0 0 0-7.831 0Zm5.491 15.38c-9.232-.114-17.719.376-25.038 1.405v2.904c19.195-2.814 48.169-1.593 75.982 4.545 26.627 5.877 53.283 17.473 68.644 32.904h4.587c-15.783-17.069-44.145-29.468-72.241-35.668-17.77-3.922-35.926-5.892-51.934-6.09Z" /></svg>