<svg width="79" xmlns="http://www.w3.org/2000/svg" height="1537" viewBox="2462.648 7069.559 79 1537">
  <path d="m2483.255 7069.559-10.973 15.432v1441.521l-9.547 4.535-.087-.039v56.915l37.226 17.564 2.274 1.072 2.276-1.072 37.224-17.564v-56.915l-.07.032-9.55-4.536V7084.991l-.334-.468-10.639-14.964-10.973 15.432v.016l-7.983-11.231-7.923 11.144-.282-.397-10.639-14.964Zm1.941 8.964 4.244 5.968h-12.37l4.195-5.899 3.931-.069Zm37.8 0 4.244 5.968h-12.37l4.193-5.899 3.933-.069Zm-18.956 4.219 4.244 5.968h-12.37l4.194-5.898 3.932-.07Zm-28.143 4.758h5.866v1452.525l-5.866-2.768V7087.5Zm8.878 0h5.838v1456.7l-5.838-2.754V7087.5Zm28.923 0h5.866v1453.925l-5.866 2.768V7087.5Zm8.877 0h5.838v1449.75l-5.838 2.754V7087.5Zm-27.834 4.219h5.866v1457.196l-5.866-2.768V7091.719Zm8.879 0h5.837v1454.476l-5.837 2.754v-1457.23Zm28.407 1439.28 5.165 2.11-5.165 2.437v-4.547Zm-59.745.009v4.544l-5.164-2.436 5.164-2.108Zm-5.084 7.17 32.676 15.416v46.867l-32.676-15.415v-46.868Zm69.901 0v46.868l-32.675 15.415v-46.867l32.675-15.416Z"/>
</svg>
