<svg xmlns="http://www.w3.org/2000/svg" viewBox="-1466.16 8469.63 101.36 30.92" fill="currentColor">
  <path d="M-1448.93359375,8500.544921875L-1466.1591796875,8493.12890625L-1454.9228515625,8478.05078125L-1430.9052734375,8471.634765625L-1424.8349609375,8494.107421875L-1448.93359375,8500.544921875M-1457.3271484375,8492.91015625L-1450.6474609375,8495.79296875L-1454.0634765625,8483.091796875L-1458.3544921875,8488.85546875L-1457.3271484375,8492.91015625M-1451.5966796875,8481.1484375L-1449.9765625,8487.171875L-1428.296875,8481.37890625L-1429.890625,8475.349609375L-1451.5966796875,8481.1484375M-1449.1455078125,8490.2626953125L-1447.5341796875,8496.25390625L-1425.826171875,8490.455078125L-1427.44921875,8484.466796875L-1449.1455078125,8490.2626953125"/>
  <path d="M-1366.314453125,8469.626953125L-1412.9775390625,8469.626953125L-1413.001953125,8492.8994140625L-1366.2548828125,8492.8984375C-1366.2548828125,8492.8984375,-1364.8046875,8489.115234375,-1364.82421875,8481.5634765625C-1364.8447265625,8473.6005859375,-1366.314453125,8469.626953125,-1366.314453125,8469.626953125M-1370.208984375,8473.4765625L-1370.208984375,8479.7119140625L-1412.96484375,8479.7119140625L-1412.9921875,8473.4765625L-1370.208984375,8473.4765625M-1370.208984375,8482.912109375L-1370.208984375,8489.115234375L-1412.9931640625,8489.115234375L-1412.9814453125,8482.912109375L-1370.208984375,8482.912109375"/>
</svg>
