<svg xmlns="http://www.w3.org/2000/svg" viewBox="0 0 16 16" stroke-linecap="round" stroke-linejoin="round">
  <path d="M12.883 7.718a.399.399 0 0 1 0 .564l-4.601 4.601a.399.399 0 0 1-.564 0L3.117 8.282a.399.399 0 0 1 0-.564m9.766 2.5a.399.399 0 0 1 0 .564l-4.601 4.601a.399.399 0 0 1-.564 0l-4.601-4.601a.399.399 0 0 1 0-.564M8.282.617l4.601 4.601a.399.399 0 0 1 0 .564l-4.601 4.601a.399.399 0 0 1-.564 0L3.117 5.782a.399.399 0 0 1 0-.564L7.718.617a.399.399 0 0 1 .564 0Zm-.197 3.418 1.38 1.38a.12.12 0 0 1 0 .17l-1.38 1.38a.12.12 0 0 1-.17 0l-1.38-1.38a.12.12 0 0 1 0-.17l1.38-1.38a.12.12 0 0 1 .17 0Z"/>
</svg>
