<svg width="242" xmlns="http://www.w3.org/2000/svg" height="371" id="screenshot-5b8199c2-509f-80e2-8008-36d5ccee8335" viewBox="8 11 242 371" xmlns:xlink="http://www.w3.org/1999/xlink" fill="none" version="1.1"><g id="shape-5b8199c2-509f-80e2-8008-36d5ccee8335"><g class="frame-container-wrapper"><g class="frame-container-blur"><g class="frame-container-shadows"><g fill="none"><g class="fills" id="fills-5b8199c2-509f-80e2-8008-36d5ccee8335"></g><g class="frame-children"><g id="shape-5b8199c2-509f-80e2-8008-36d5ccee8336" rx="0" ry="0"><g id="shape-5b8199c2-509f-80e2-8008-36d5ccee8338"><g class="fills" id="fills-5b8199c2-509f-80e2-8008-36d5ccee8338"><path d="M28.221342086791992,357.556884765625L13.980985641479492,124.88574981689453C13.857328414916992,122.93103790283203,15.246732711791992,121.18415069580078,17.201810836791992,120.83600616455078L119.26345825195312,98.59668731689453C121.50857543945312,98.18750762939453,123.61172485351562,99.74469757080078,123.85501098632812,101.98011016845703L149.02529907226562,335.62384033203125L28.221342086791992,357.556884765625" style="fill: rgb(249, 249, 251); fill-opacity: 1;"/></g></g><g id="shape-5b8199c2-509f-80e2-8008-36d5ccee8339"><g class="fills" id="fills-5b8199c2-509f-80e2-8008-36d5ccee8339"><path d="M22.772977828979492,361.37445068359375C22.772977828979492,361.37445068359375,14.967313766479492,242.020263671875,10.569974899291992,127.74994659423828C10.424711227416992,123.97467803955078,12.580839157104492,120.66663360595703,20.569974899291992,121.74994659423828C79.56997680664062,129.74993896484375,86.04812622070312,130.9998779296875,104.56997680664062,133.74993896484375C106.87393188476562,134.092041015625,107.28494262695312,135.76007080078125,107.56997680664062,139.74993896484375C112.56997680664062,209.74993896484375,113.56997680664062,225.74993896484375,123.00064086914062,371.4102783203125C123.30618286132812,376.12872314453125,123.56997680664062,379.74993896484375,116.56997680664062,378.74993896484375C52.361358642578125,369.5760498046875,22.772977828979492,361.37445068359375,22.772977828979492,361.37445068359375L22.772977828979492,361.37445068359375L22.772977828979492,361.37445068359375" style="fill: rgb(18, 186, 182); fill-opacity: 1;"/></g></g><g id="shape-5b8199c2-509f-80e2-8008-36d5ccee833a"><g class="fills" id="fills-5b8199c2-509f-80e2-8008-36d5ccee833a"><path d="M19.435819625854492,364.592041015625L10.569974899291992,127.74994659423828C10.477811813354492,125.06580352783203,11.569974899291992,123.74994659423828,15.275297164916992,124.17627716064453C15.275297164916992,124.17627716064453,44.291778564453125,127.20825958251953,101.75466918945312,136.71759033203125C104.00003051757812,137.08917236328125,104.67654418945312,137.48529052734375,104.83767700195312,138.9976806640625C104.83767700195312,138.9976806640625,110.20156860351562,217.515869140625,119.66348266601562,374.62786865234375C119.80313110351562,376.94775390625,117.98977661132812,378.853515625,115.72427368164062,378.5458984375C51.453643798828125,369.81781005859375,19.435819625854492,364.592041015625,19.435819625854492,364.592041015625L19.435819625854492,364.592041015625L19.435819625854492,364.592041015625" style="fill: rgb(20, 206, 202); fill-opacity: 1;"/></g></g><g id="shape-5b8199c2-509f-80e2-8008-36d5ccee833b" style="opacity: 0.1;"><g class="fills" id="fills-5b8199c2-509f-80e2-8008-36d5ccee833b"><path d="M33.406280517578125,186.83709716796875C30.601835250854492,186.27618408203125,27.627103805541992,185.8248291015625,27.406278610229492,183.83709716796875C26.406278610229492,174.83709716796875,26.406278610229492,157.83709716796875,25.735624313354492,146.30279541015625C25.675809860229492,144.825927734375,27.004423141479492,143.53533935546875,28.866727828979492,143.25836181640625L89.60855102539062,152.04388427734375C90.66006469726562,151.88677978515625,91.66116333007812,152.46209716796875,91.77163696289062,153.29412841796875C91.77163696289062,153.29412841796875,94.40628051757812,176.83709716796875,94.94155883789062,194.0987548828125C94.98135375976562,195.3829345703125,93.75723266601562,196.42645263671875,92.16519165039062,196.26043701171875C75.40628051757812,193.83709716796875,38.406280517578125,187.83709716796875,33.406280517578125,186.83709716796875"/></g><g id="strokes-6b3b30b6-c1cd-80ca-8008-5b1cdf3c4367-5b8199c2-509f-80e2-8008-36d5ccee833b" class="strokes"><g class="stroke-shape"><path d="M33.406280517578125,186.83709716796875C30.601835250854492,186.27618408203125,27.627103805541992,185.8248291015625,27.406278610229492,183.83709716796875C26.406278610229492,174.83709716796875,26.406278610229492,157.83709716796875,25.735624313354492,146.30279541015625C25.675809860229492,144.825927734375,27.004423141479492,143.53533935546875,28.866727828979492,143.25836181640625L89.60855102539062,152.04388427734375C90.66006469726562,151.88677978515625,91.66116333007812,152.46209716796875,91.77163696289062,153.29412841796875C91.77163696289062,153.29412841796875,94.40628051757812,176.83709716796875,94.94155883789062,194.0987548828125C94.98135375976562,195.3829345703125,93.75723266601562,196.42645263671875,92.16519165039062,196.26043701171875C75.40628051757812,193.83709716796875,38.406280517578125,187.83709716796875,33.406280517578125,186.83709716796875" style="fill: none; stroke-width: 3; stroke: rgb(0, 0, 0); stroke-opacity: 1;"/></g></g></g><g id="shape-5b8199c2-509f-80e2-8008-36d5ccee833c" style="opacity: 0.1;"><g class="fills" id="fills-5b8199c2-509f-80e2-8008-36d5ccee833c"><path d="M93.40628051757812,211.83709716796875C94.40628051757812,211.83709716796875,95.02932739257812,211.88995361328125,95.40628051757812,214.83709716796875L97.52713012695312,292.4794921875C97.58694458007812,293.95635986328125,96.25833129882812,295.2469482421875,94.39602661132812,295.52392578125L33.654205322265625,286.73846435546875C32.602691650390625,286.89556884765625,31.601591110229492,286.3201904296875,31.491117477416992,285.48822021484375C31.491117477416992,285.48822021484375,28.856473922729492,221.94525146484375,28.321195602416992,204.68353271484375C28.281400680541992,203.3994140625,29.517362594604492,202.2666015625,31.097562789916992,202.5218505859375C48.406280517578125,204.83709716796875,75.40628051757812,208.83709716796875,93.40628051757812,211.83709716796875C93.40628051757812,211.83709716796875,93.40628051757812,211.83709716796875,93.40628051757812,211.83709716796875C93.40628051757812,211.83709716796875,93.40628051757812,211.83709716796875,93.40628051757812,211.83709716796875C93.40628051757812,211.83709716796875,93.40628051757812,211.83709716796875,93.40628051757812,211.83709716796875C93.40628051757812,211.83709716796875,93.40628051757812,211.83709716796875,93.40628051757812,211.83709716796875"/></g><g id="strokes-6b3b30b6-c1cd-80ca-8008-5b1cdf3dcb51-5b8199c2-509f-80e2-8008-36d5ccee833c" class="strokes"><g class="stroke-shape"><path d="M93.40628051757812,211.83709716796875C94.40628051757812,211.83709716796875,95.02932739257812,211.88995361328125,95.40628051757812,214.83709716796875L97.52713012695312,292.4794921875C97.58694458007812,293.95635986328125,96.25833129882812,295.2469482421875,94.39602661132812,295.52392578125L33.654205322265625,286.73846435546875C32.602691650390625,286.89556884765625,31.601591110229492,286.3201904296875,31.491117477416992,285.48822021484375C31.491117477416992,285.48822021484375,28.856473922729492,221.94525146484375,28.321195602416992,204.68353271484375C28.281400680541992,203.3994140625,29.517362594604492,202.2666015625,31.097562789916992,202.5218505859375C48.406280517578125,204.83709716796875,75.40628051757812,208.83709716796875,93.40628051757812,211.83709716796875C93.40628051757812,211.83709716796875,93.40628051757812,211.83709716796875,93.40628051757812,211.83709716796875C93.40628051757812,211.83709716796875,93.40628051757812,211.83709716796875,93.40628051757812,211.83709716796875C93.40628051757812,211.83709716796875,93.40628051757812,211.83709716796875,93.40628051757812,211.83709716796875C93.40628051757812,211.83709716796875,93.40628051757812,211.83709716796875,93.40628051757812,211.83709716796875" style="fill: none; stroke-width: 3; stroke: rgb(0, 0, 0); stroke-opacity: 1;"/></g></g></g><g id="shape-5b8199c2-509f-80e2-8008-36d5ccee833d" style="opacity: 0.1;"><g class="fills" id="fills-5b8199c2-509f-80e2-8008-36d5ccee833d"><path d="M35.539215087890625,344.70855712890625L32.735626220703125,304.302734375C32.675811767578125,302.82586669921875,33.004425048828125,302.5352783203125,34.866729736328125,302.25830078125L96.60855102539062,310.0438232421875C97.66006469726562,309.88671875,98.66116333007812,310.4620361328125,98.77163696289062,311.2940673828125C98.77163696289062,311.2940673828125,101.40628051757812,336.8370361328125,101.94155883789062,354.09869384765625C101.98135375976562,355.38287353515625,100.74722290039062,356.50372314453125,99.16519165039062,356.2603759765625C57.406280517578125,349.8370361328125,35.539215087890625,344.70855712890625,35.539215087890625,344.70855712890625L35.539215087890625,344.70855712890625L35.539215087890625,344.70855712890625"/></g><g id="strokes-6b3b30b6-c1cd-80ca-8008-5b1cdf3e4479-5b8199c2-509f-80e2-8008-36d5ccee833d" class="strokes"><g class="stroke-shape"><path d="M35.539215087890625,344.70855712890625L32.735626220703125,304.302734375C32.675811767578125,302.82586669921875,33.004425048828125,302.5352783203125,34.866729736328125,302.25830078125L96.60855102539062,310.0438232421875C97.66006469726562,309.88671875,98.66116333007812,310.4620361328125,98.77163696289062,311.2940673828125C98.77163696289062,311.2940673828125,101.40628051757812,336.8370361328125,101.94155883789062,354.09869384765625C101.98135375976562,355.38287353515625,100.74722290039062,356.50372314453125,99.16519165039062,356.2603759765625C57.406280517578125,349.8370361328125,35.539215087890625,344.70855712890625,35.539215087890625,344.70855712890625L35.539215087890625,344.70855712890625L35.539215087890625,344.70855712890625" style="fill: none; stroke-width: 3; stroke: rgb(0, 0, 0); stroke-opacity: 1;"/></g></g></g></g><g id="shape-5b8199c2-509f-80e2-8008-36d5ccee8337" rx="0" ry="0"><g id="shape-5b8199c2-509f-80e2-8008-36d5ccee833e" rx="0" ry="0"><g id="shape-5b8199c2-509f-80e2-8008-36d5ccee8342" rx="0" ry="0"><g id="shape-5b8199c2-509f-80e2-8008-36d5ccee8344"><g class="fills" id="fills-5b8199c2-509f-80e2-8008-36d5ccee8344"><path d="M85.50942993164062,261.81634521484375L85.88479614257812,276.485107421875C86.42654418945312,276.33636474609375,103.22024536132812,271.736328125,103.22024536132812,271.736328125L96.27297973632812,258.65789794921875C97.67898559570312,256.48687744140625,98.19778442382812,253.68243408203125,97.47109985351562,250.909912109375C96.15737915039062,245.89788818359375,91.26773071289062,242.87615966796875,86.55862426757812,244.1661376953125C81.84976196289062,245.4560546875,79.09304809570312,250.5723876953125,80.40676879882812,255.5843505859375C81.16250610351562,258.46771240234375,83.10183715820312,260.6923828125,85.50942993164062,261.81634521484375" style="fill: rgb(30, 30, 30); fill-opacity: 1;"/></g></g></g><g id="shape-5b8199c2-509f-80e2-8008-36d5ccee8343" rx="0" ry="0"><g id="shape-5b8199c2-509f-80e2-8008-36d5ccee8347"><g class="fills" id="fills-5b8199c2-509f-80e2-8008-36d5ccee8347"><path d="M58.741241455078125,239.13427734375L70.00430297851562,243.940673828125"/></g><g id="strokes-6b3b30b6-c1cd-80ca-8008-5b1cdf405f31-5b8199c2-509f-80e2-8008-36d5ccee8347" class="strokes"><g class="stroke-shape"><path d="M58.741241455078125,239.13427734375L70.00430297851562,243.940673828125" style="fill: none; stroke-width: 4.43525; stroke: rgb(242, 58, 229); stroke-opacity: 1; stroke-linecap: round;"/></g></g></g><g id="shape-5b8199c2-509f-80e2-8008-36d5ccee8348"><g class="fills" id="fills-5b8199c2-509f-80e2-8008-36d5ccee8348"><path d="M76.04678344726562,221.35076904296875L81.28994750976562,232.5438232421875"/></g><g id="strokes-6b3b30b6-c1cd-80ca-8008-5b1cdf41ee9c-5b8199c2-509f-80e2-8008-36d5ccee8348" class="strokes"><g class="stroke-shape"><path d="M76.04678344726562,221.35076904296875L81.28994750976562,232.5438232421875" style="fill: none; stroke-width: 4.43525; stroke: rgb(242, 58, 229); stroke-opacity: 1; stroke-linecap: round;"/></g></g></g><g id="shape-5b8199c2-509f-80e2-8008-36d5ccee8349"><g class="fills" id="fills-5b8199c2-509f-80e2-8008-36d5ccee8349"><path d="M56.820587158203125,264.14532470703125L68.81509399414062,262.08807373046875"/></g><g id="strokes-6b3b30b6-c1cd-80ca-8008-5b1cdf4204f2-5b8199c2-509f-80e2-8008-36d5ccee8349" class="strokes"><g class="stroke-shape"><path d="M56.820587158203125,264.14532470703125L68.81509399414062,262.08807373046875" style="fill: none; stroke-width: 4.43525; stroke: rgb(242, 58, 229); stroke-opacity: 1; stroke-linecap: round;"/></g></g></g></g></g><g id="shape-5b8199c2-509f-80e2-8008-36d5ccee833f" rx="0" ry="0" style="fill: rgb(242, 58, 229); fill-opacity: 1;"><g id="shape-5b8199c2-509f-80e2-8008-36d5ccee834a"><g class="fills" id="fills-5b8199c2-509f-80e2-8008-36d5ccee834a"><path d="M117.41555786132812,120.83710479736328C117.41555786132812,120.83710479736328,117.43728637695312,108.54859161376953,112.41091918945312,101.52857208251953C107.55960083007812,94.75196075439453,94.40628051757812,94.82941436767578,94.40628051757812,94.82941436767578C94.40628051757812,94.82941436767578,107.55960083007812,94.75196075439453,112.40676879882812,88.13916778564453C117.59036254882812,81.06909942626953,117.39639282226562,68.83710479736328,117.39639282226562,68.83710479736328C117.39639282226562,68.83710479736328,117.50686645507812,81.00708770751953,122.40103149414062,88.14221954345703C127.11013793945312,95.00788116455078,140.40603637695312,94.84436798095703,140.40603637695312,94.84436798095703C140.40603637695312,94.84436798095703,127.45437622070312,94.75196075439453,122.40530395507812,101.53186798095703C117.32180786132812,108.35926055908203,117.41555786132812,120.83710479736328,117.41555786132812,120.83710479736328L117.41555786132812,120.83710479736328" stroke-miterlimit="10" style="fill-rule: nonzero; clip-rule: evenodd; stroke-linejoin: round; fill: rgb(200, 162, 255); fill-opacity: 1;"/></g></g><g id="shape-5b8199c2-509f-80e2-8008-36d5ccee834b"><g class="fills" id="fills-5b8199c2-509f-80e2-8008-36d5ccee834b"><path d="M79.89883422851562,95.22174835205078C79.89883422851562,95.22174835205078,79.92300415039062,76.55664825439453,74.36489868164062,68.89563751220703C68.99990844726562,61.500186920166016,54.454498291015625,61.584781646728516,54.454498291015625,61.584781646728516C54.454498291015625,61.584781646728516,68.99990844726562,61.500186920166016,74.36001586914062,54.283573150634766C80.09219360351562,46.567813873291016,79.87759399414062,27.9644832611084,79.87759399414062,27.9644832611084C79.87759399414062,27.9644832611084,79.99990844726562,46.500186920166016,85.41201782226562,54.286930084228516C90.61953735351562,61.779483795166016,105.32241821289062,61.601078033447266,105.32241821289062,61.601078033447266C105.32241821289062,61.601078033447266,90.99990844726562,61.500186920166016,85.41665649414062,68.89917755126953C79.79531860351562,76.35004425048828,79.89883422851562,95.22174835205078,79.89883422851562,95.22174835205078L79.89883422851562,95.22174835205078" stroke-miterlimit="10" style="fill-rule: nonzero; clip-rule: evenodd; stroke-linejoin: round; fill: rgb(242, 58, 229); fill-opacity: 1;"/></g></g><g id="shape-5b8199c2-509f-80e2-8008-36d5ccee834c"><g class="fills" id="fills-5b8199c2-509f-80e2-8008-36d5ccee834c"><path d="M117.41238403320312,52.500858306884766C117.41238403320312,52.500858306884766,117.42654418945312,41.677433013916016,114.14846801757812,37.234989166259766C110.98416137695312,32.946537017822266,102.40554809570312,32.995609283447266,102.40554809570312,32.995609283447266C102.40554809570312,32.995609283447266,110.98416137695312,32.946537017822266,114.14553833007812,28.76178550720215C117.52615356445312,24.2876033782959,117.39968872070312,13.500005722045898,117.39968872070312,13.500005722045898C117.39968872070312,13.500005722045898,117.47195434570312,24.24835777282715,120.66384887695312,28.7636775970459C123.73513793945312,33.108524322509766,132.40652465820312,33.005069732666016,132.40652465820312,33.005069732666016C132.40652465820312,33.005069732666016,123.95950317382812,32.946537017822266,120.66653442382812,37.237064361572266C117.35110473632812,41.557621002197266,117.41238403320312,52.500858306884766,117.41238403320312,52.500858306884766L117.41238403320312,52.500858306884766" stroke-miterlimit="10" style="fill-rule: nonzero; clip-rule: evenodd; stroke-linejoin: round; fill: rgb(249, 249, 251); fill-opacity: 1;"/></g></g></g><g id="shape-5b8199c2-509f-80e2-8008-36d5ccee8340" rx="0" ry="0"><g id="shape-5b8199c2-509f-80e2-8008-36d5ccee834d"><g class="fills" id="fills-5b8199c2-509f-80e2-8008-36d5ccee834d"><path d="M194.98648071289062,56.186893463134766C194.98648071289062,56.186893463134766,171.71939086914062,33.890872955322266,150.82070922851562,37.737247467041016C143.64419555664062,39.057682037353516,141.09609985351562,42.933841705322266,140.05239868164062,46.540958404541016C138.78457641601562,50.924198150634766,141.59121704101562,56.083744049072266,141.59121704101562,56.083744049072266" stroke-miterlimit="10" fill="none" style="fill-rule: nonzero; clip-rule: evenodd; stroke-linejoin: round; fill: none;"/></g><g stroke-miterlimit="10" fill="none" id="strokes-6b3b30b6-c1cd-80ca-8008-5b1cdf44b652-5b8199c2-509f-80e2-8008-36d5ccee834d" class="strokes" style="fill-rule: nonzero; clip-rule: evenodd; stroke-linejoin: round;"><g class="stroke-shape"><path d="M194.98648071289062,56.186893463134766C194.98648071289062,56.186893463134766,171.71939086914062,33.890872955322266,150.82070922851562,37.737247467041016C143.64419555664062,39.057682037353516,141.09609985351562,42.933841705322266,140.05239868164062,46.540958404541016C138.78457641601562,50.924198150634766,141.59121704101562,56.083744049072266,141.59121704101562,56.083744049072266" style="fill: none; stroke-width: 3; stroke: rgb(20, 206, 202); stroke-opacity: 1; stroke-linecap: round;"/></g></g></g><g id="shape-5b8199c2-509f-80e2-8008-36d5ccee834e"><g class="fills" id="fills-5b8199c2-509f-80e2-8008-36d5ccee834e"><path d="M168.86978149414062,96.43701934814453C168.86978149414062,96.43701934814453,166.28872680664062,88.10431671142578,154.28848266601562,83.94879913330078C142.28799438476562,79.79376983642578,131.94790649414062,81.10944366455078,133.72695922851562,66.85218048095703C135.50552368164062,52.594181060791016,158.12368774414062,56.147403717041016,158.12368774414062,56.147403717041016C158.12368774414062,56.147403717041016,179.83755493164062,58.728763580322266,190.71865844726562,72.07062530517578" stroke-miterlimit="10" fill="none" style="fill-rule: nonzero; clip-rule: evenodd; stroke-linejoin: round; fill: none;"/></g><g stroke-miterlimit="10" fill="none" id="strokes-6b3b30b6-c1cd-80ca-8008-5b1cdf45071d-5b8199c2-509f-80e2-8008-36d5ccee834e" class="strokes" style="fill-rule: nonzero; clip-rule: evenodd; stroke-linejoin: round;"><g class="stroke-shape"><path d="M168.86978149414062,96.43701934814453C168.86978149414062,96.43701934814453,166.28872680664062,88.10431671142578,154.28848266601562,83.94879913330078C142.28799438476562,79.79376983642578,131.94790649414062,81.10944366455078,133.72695922851562,66.85218048095703C135.50552368164062,52.594181060791016,158.12368774414062,56.147403717041016,158.12368774414062,56.147403717041016C158.12368774414062,56.147403717041016,179.83755493164062,58.728763580322266,190.71865844726562,72.07062530517578" style="fill: none; stroke-width: 3; stroke: rgb(20, 206, 202); stroke-opacity: 1; stroke-linecap: round;"/></g></g></g><g id="shape-5b8199c2-509f-80e2-8008-36d5ccee834f"><g class="fills" id="fills-5b8199c2-509f-80e2-8008-36d5ccee834f"><path d="M151.03237915039062,37.107242584228516C151.03237915039062,37.107242584228516,148.39102172851562,30.5869197845459,153.56948852539062,27.15497398376465C156.96817016601562,24.90204429626465,163.35391235351562,22.2002010345459,175.99697875976562,24.69354820251465C195.24111938476562,28.48798179626465,204.64028930664062,32.892032623291016,217.49282836914062,41.439456939697266C217.49282836914062,41.439456939697266,229.21231079101562,49.026126861572266,238.01138305664062,61.197025299072266C245.58218383789062,71.66876983642578,247.87783813476562,78.75116729736328,247.87783813476562,78.75116729736328" stroke-miterlimit="10" fill="none" style="fill-rule: nonzero; clip-rule: evenodd; stroke-linejoin: round; fill: none;"/></g><g stroke-miterlimit="10" fill="none" id="strokes-6b3b30b6-c1cd-80ca-8008-5b1cdf454c99-5b8199c2-509f-80e2-8008-36d5ccee834f" class="strokes" style="fill-rule: nonzero; clip-rule: evenodd; stroke-linejoin: round;"><g class="stroke-shape"><path d="M151.03237915039062,37.107242584228516C151.03237915039062,37.107242584228516,148.39102172851562,30.5869197845459,153.56948852539062,27.15497398376465C156.96817016601562,24.90204429626465,163.35391235351562,22.2002010345459,175.99697875976562,24.69354820251465C195.24111938476562,28.48798179626465,204.64028930664062,32.892032623291016,217.49282836914062,41.439456939697266C217.49282836914062,41.439456939697266,229.21231079101562,49.026126861572266,238.01138305664062,61.197025299072266C245.58218383789062,71.66876983642578,247.87783813476562,78.75116729736328,247.87783813476562,78.75116729736328" style="fill: none; stroke-width: 3; stroke: rgb(20, 206, 202); stroke-opacity: 1; stroke-linecap: round;"/></g></g></g><g id="shape-5b8199c2-509f-80e2-8008-36d5ccee8350"><g class="fills" id="fills-5b8199c2-509f-80e2-8008-36d5ccee8350"><path d="M234.94839477539062,123.28711700439453C234.94839477539062,123.28711700439453,220.62734985351562,167.48272705078125,207.08120727539062,153.0997314453125C201.78506469726562,147.47705078125,207.13003540039062,141.18646240234375,206.90811157226562,133.22015380859375C206.67715454101562,124.93671417236328,201.08218383789062,119.59735870361328,187.40176391601562,116.52735137939453C168.59927368164062,112.30823516845703,159.26480102539062,129.9432373046875,162.85928344726562,140.75567626953125C166.11318969726562,150.54412841796875,164.26748657226562,158.31671142578125,158.87466430664062,163.0218505859375C157.15811157226562,164.52020263671875,150.65811157226562,167.912109375,145.73672485351562,158.92138671875C140.81484985351562,149.9312744140625,135.20376586914062,132.6365966796875,145.62759399414062,115.81848907470703C153.13491821289062,103.70648956298828,164.98428344726562,96.35840606689453,178.83901977539062,92.52997589111328" stroke-miterlimit="10" fill="none" style="fill-rule: nonzero; clip-rule: evenodd; stroke-linejoin: round; fill: none;"/></g><g stroke-miterlimit="10" fill="none" id="strokes-6b3b30b6-c1cd-80ca-8008-5b1cdf467c76-5b8199c2-509f-80e2-8008-36d5ccee8350" class="strokes" style="fill-rule: nonzero; clip-rule: evenodd; stroke-linejoin: round;"><g class="stroke-shape"><path d="M234.94839477539062,123.28711700439453C234.94839477539062,123.28711700439453,220.62734985351562,167.48272705078125,207.08120727539062,153.0997314453125C201.78506469726562,147.47705078125,207.13003540039062,141.18646240234375,206.90811157226562,133.22015380859375C206.67715454101562,124.93671417236328,201.08218383789062,119.59735870361328,187.40176391601562,116.52735137939453C168.59927368164062,112.30823516845703,159.26480102539062,129.9432373046875,162.85928344726562,140.75567626953125C166.11318969726562,150.54412841796875,164.26748657226562,158.31671142578125,158.87466430664062,163.0218505859375C157.15811157226562,164.52020263671875,150.65811157226562,167.912109375,145.73672485351562,158.92138671875C140.81484985351562,149.9312744140625,135.20376586914062,132.6365966796875,145.62759399414062,115.81848907470703C153.13491821289062,103.70648956298828,164.98428344726562,96.35840606689453,178.83901977539062,92.52997589111328" style="fill: none; stroke-width: 3; stroke: rgb(20, 206, 202); stroke-opacity: 1; stroke-linecap: round;"/></g></g></g><g id="shape-5b8199c2-509f-80e2-8008-36d5ccee8351"><g class="fills" id="fills-5b8199c2-509f-80e2-8008-36d5ccee8351"><path d="M145.72329711914062,155.92919921875C148.13980102539062,161.8565673828125,152.14321899414062,165.52490234375,154.66494750976562,164.12158203125C157.18692016601562,162.71826171875,157.27212524414062,156.77569580078125,154.85586547851562,150.8482666015625C152.43984985351562,144.92041015625,148.43545532226562,141.2525634765625,145.91421508789062,142.6556396484375C143.39224243164062,144.0592041015625,143.30703735351562,150.00201416015625,145.72329711914062,155.92919921875L145.72329711914062,155.92919921875" stroke-miterlimit="10" style="fill-rule: nonzero; clip-rule: evenodd; stroke-linejoin: round; fill: rgb(242, 58, 229); fill-opacity: 1;"/></g></g><g id="shape-5b8199c2-509f-80e2-8008-36d5ccee8352"><g class="fills" id="fills-5b8199c2-509f-80e2-8008-36d5ccee8352"><path d="M209.99990844726562,144.5001220703125C208.48306274414062,151.05560302734375,210.35928344726562,154.93487548828125,212.99990844726562,155.5001220703125C215.64102172851562,156.06488037109375,220.48330688476562,153.05517578125,221.99990844726562,146.5001220703125C223.51699829101562,139.945556640625,221.64102172851562,136.06536865234375,218.99990844726562,135.5001220703125C216.35806274414062,134.93536376953125,211.51651000976562,137.945556640625,209.99990844726562,144.5001220703125L209.99990844726562,144.5001220703125" stroke-miterlimit="10" style="fill-rule: nonzero; clip-rule: evenodd; stroke-linejoin: round; fill: rgb(242, 58, 229); fill-opacity: 1;"/></g></g><g id="shape-5b8199c2-509f-80e2-8008-36d5ccee8353"><g class="fills" id="fills-5b8199c2-509f-80e2-8008-36d5ccee8353"><path d="M146.57583618164062,56.821903228759766C140.68984985351562,57.666080474853516,135.99526977539062,60.835941314697266,136.09024047851562,63.902530670166016C136.18496704101562,66.96863555908203,141.03384399414062,68.77002716064453,146.91958618164062,67.92560577392578C152.80606079101562,67.08161163330078,157.50137329101562,63.911502838134766,157.40664672851562,60.845401763916016C157.31143188476562,57.779300689697266,152.46255493164062,55.977420806884766,146.57583618164062,56.821903228759766L146.57583618164062,56.821903228759766" stroke-miterlimit="10" style="fill-rule: nonzero; clip-rule: evenodd; stroke-linejoin: round; fill: rgb(242, 58, 229); fill-opacity: 1;"/></g></g><g id="shape-5b8199c2-509f-80e2-8008-36d5ccee8354"><g class="fills" id="fills-5b8199c2-509f-80e2-8008-36d5ccee8354"><path d="M153.79995727539062,38.550235748291016C147.76284790039062,38.552066802978516,142.72695922851562,41.126468658447266,142.55435180664062,44.300418853759766C142.38101196289062,47.473331451416016,147.13516235351562,50.045780181884766,153.17300415039062,50.043949127197266C159.21133422851562,50.042606353759766,164.24575805664062,47.468387603759766,164.41909790039062,44.294498443603516C164.59243774414062,41.120365142822266,159.83755493164062,38.548892974853516,153.79995727539062,38.550235748291016L153.79995727539062,38.550235748291016" stroke-miterlimit="10" style="fill-rule: nonzero; clip-rule: evenodd; stroke-linejoin: round; fill: rgb(20, 206, 202); fill-opacity: 1;"/></g></g><g id="shape-5b8199c2-509f-80e2-8008-36d5ccee8355"><g class="fills" id="fills-5b8199c2-509f-80e2-8008-36d5ccee8355"><path d="M164.13858032226562,24.99933433532715C158.10049438476562,25.00067710876465,153.06509399414062,27.57538414001465,152.89151000976562,30.7487850189209C152.71890258789062,33.922794342041016,157.47305297851562,36.494510650634766,163.51089477539062,36.492923736572266C169.54873657226562,36.491764068603516,174.58389282226562,33.917606353759766,174.75698852539062,30.7434139251709C174.93057250976562,27.5699520111084,170.17593383789062,24.99774742126465,164.13858032226562,24.99933433532715L164.13858032226562,24.99933433532715" stroke-miterlimit="10" style="fill-rule: nonzero; clip-rule: evenodd; stroke-linejoin: round; fill: rgb(242, 58, 229); fill-opacity: 1;"/></g></g></g><g id="shape-5b8199c2-509f-80e2-8008-36d5ccee8341" rx="0" ry="0"><g id="shape-5b8199c2-509f-80e2-8008-36d5ccee8356"><g class="fills" id="fills-5b8199c2-509f-80e2-8008-36d5ccee8356"><path d="M100.69619750976562,233.677978515625L183.92715454101562,150.261474609375L204.49526977539062,170.879638671875L121.26431274414062,254.2960205078125L91.96450805664062,263.09771728515625L100.69619750976562,233.677978515625" style="fill: rgb(255, 255, 255); fill-opacity: 1;"/></g></g><g id="shape-5b8199c2-509f-80e2-8008-36d5ccee8357"><g class="fills" id="fills-5b8199c2-509f-80e2-8008-36d5ccee8357"><rect rx="1.9202647889057114" ry="1.9202647889057114" x="84.90637585126069" y="190.4379852837294" transform="matrix(0.706328, -0.707884, 0.706159, 0.708054, -94.747697, 159.341948)" width="120.00028844031931" height="7.995995492221255" style="fill: rgb(242, 58, 229); fill-opacity: 1;"/></g></g><g id="shape-5b8199c2-509f-80e2-8008-36d5ccee8358"><g class="fills" id="fills-5b8199c2-509f-80e2-8008-36d5ccee8358"><rect rx="1.9202647889057114" ry="1.9202647889057114" x="92.68080526465019" y="198.21223368774076" transform="matrix(0.706328, -0.707884, 0.706159, 0.708054, -97.954455, 167.114921)" width="120.00004201562115" height="7.995991255809031" style="fill: rgb(242, 58, 229); fill-opacity: 1;"/></g></g><g id="shape-5b8199c2-509f-80e2-8008-36d5ccee8359"><g class="fills" id="fills-5b8199c2-509f-80e2-8008-36d5ccee8359"><rect rx="1.9202647889057114" ry="1.9202647889057114" x="100.45495491702968" y="205.98651118717294" transform="matrix(0.706328, -0.707884, 0.706159, 0.708053, -101.161377, 174.888020)" width="120.0003012917532" height="7.995991246062658" style="fill: rgb(242, 58, 229); fill-opacity: 1;"/></g></g><g id="shape-5b8199c2-509f-80e2-8008-36d5ccee835a"><g class="fills" id="fills-5b8199c2-509f-80e2-8008-36d5ccee835a"><path d="M106.61416625976562,258.69696044921875L91.96450805664062,263.09771728515625L96.33023071289062,248.38818359375L106.61416625976562,258.69696044921875" style="fill: rgb(242, 58, 229); fill-opacity: 1;"/></g></g><g id="shape-5b8199c2-509f-80e2-8008-36d5ccee835b"><g class="fills" id="fills-5b8199c2-509f-80e2-8008-36d5ccee835b"><path d="M182.35000610351562,154.132080078125C181.55728149414062,153.3372802734375,181.55288696289062,152.05126953125,182.34048461914062,151.2618408203125L183.73648071289062,149.862548828125C184.52359008789062,149.07330322265625,185.80679321289062,149.07757568359375,186.59951782226562,149.87237548828125L204.92886352539062,168.19512939453125C205.72158813476562,168.98992919921875,205.72598266601562,170.27593994140625,204.93862915039062,171.065185546875L203.54263305664062,172.4644775390625C202.75527954101562,173.25390625,201.47232055664062,173.2493896484375,200.67959594726562,172.45465087890625L182.35000610351562,154.132080078125" style="fill: rgb(249, 249, 251); fill-opacity: 1;"/></g></g></g></g></g></g></g></g></g></g></svg>