<svg width="298" height="465" viewBox="0 0 298 465" fill="none" xmlns="http://www.w3.org/2000/svg">
<g clip-path="url(#clip0_601_4229)">
<path fill-rule="evenodd" clip-rule="evenodd" d="M79.2219 102.163C157.357 22.2999 244.794 64.0886 265.258 122.593C280.958 167.477 268.628 223.726 234.634 265.968C231.904 264.191 229.34 261.998 226.624 259.676C220.696 254.606 214.046 248.919 203.367 245.6C173.77 236.402 136.99 244.712 151.184 271.904C142.962 303.525 147.228 325.432 160.734 339.191C165.023 343.561 170.429 345.89 175.722 347.526C175.47 348.217 175.219 348.906 174.97 349.592C164.506 378.364 155.961 401.86 113.639 397.47C21.708 387.935 1.08679 182.026 79.2219 102.163Z" fill="url(#paint0_linear_601_4229)"/>
<path d="M314.418 269.573C296.73 262.1 281.568 259.818 264 266.693C231.671 279.345 231.399 254.312 203.367 245.6C173.77 236.402 136.99 244.712 151.184 271.904C142.962 303.525 147.228 325.432 160.734 339.191C166.728 345.298 174.902 347.418 181.901 349.233C190.672 351.508 197.597 353.304 196.071 361.869C192.021 384.596 168.278 378.99 160.236 398.576C152.406 417.646 157.084 467.798 157.084 467.798L284.039 467.661C284.417 396.137 266.28 416.95 232.617 382.978C220.177 370.424 226.332 343.294 229.419 329.457C229.419 329.457 237.98 337.832 260.523 337.133C283.065 336.433 301.464 359.694 301.464 359.694L301.646 339.498C301.646 339.498 292.049 327.312 273.544 323.03C255.039 318.749 248.411 325.346 234.689 309.881C250.52 313.396 259.056 312.821 266.859 312.295C277.152 311.601 293.037 311.062 300.246 319.825L308.201 303.411C295.574 293.295 282.118 292.859 270.056 294.159C257.995 295.458 243.766 296.572 237.652 290.318C265.042 290.04 266.727 282.761 282.092 280.889C290.934 280.01 302.017 282.633 310.16 285.633L314.418 269.573Z" fill="url(#paint1_linear_601_4229)" fill-opacity="0.95"/>
<path d="M314.418 269.573C296.73 262.1 281.568 259.818 264 266.693C231.671 279.345 231.399 254.312 203.367 245.6C173.77 236.402 136.99 244.712 151.184 271.904C142.962 303.525 147.228 325.432 160.734 339.191C166.728 345.298 174.902 347.418 181.901 349.233C190.672 351.508 197.597 353.304 196.071 361.869C192.021 384.596 168.278 378.99 160.236 398.576C152.406 417.646 157.084 467.798 157.084 467.798L284.039 467.661C284.417 396.137 266.28 416.95 232.617 382.978C220.177 370.424 226.332 343.294 229.419 329.457C229.419 329.457 237.98 337.832 260.523 337.133C283.065 336.433 301.464 359.694 301.464 359.694L301.646 339.498C301.646 339.498 292.049 327.312 273.544 323.03C255.039 318.749 248.411 325.346 234.689 309.881C250.52 313.396 259.056 312.821 266.859 312.295C277.152 311.601 293.037 311.062 300.246 319.825L308.201 303.411C295.574 293.295 282.118 292.859 270.056 294.159C257.995 295.458 243.766 296.572 237.652 290.318C265.042 290.04 266.727 282.761 282.092 280.889C290.934 280.01 302.017 282.633 310.16 285.633L314.418 269.573Z" fill="url(#paint2_linear_601_4229)" fill-opacity="0.95"/>
<path d="M190.515 288.997C186.93 291.61 181.905 290.813 179.292 287.218C176.679 283.623 177.467 278.59 181.052 275.977C184.637 273.364 189.661 274.16 192.274 277.756C194.888 281.351 194.1 286.384 190.515 288.997Z" stroke="#151035" stroke-width="6"/>
<path d="M175.619 200.255C176.089 204.62 175.607 208.435 174.173 211.699C172.791 214.946 170.677 217.683 167.829 219.911C164.964 222.086 161.551 223.864 157.59 225.245C152.17 227.134 147.114 227.721 142.421 227.003C137.781 226.268 133.698 224.28 130.172 221.039C126.698 217.78 123.973 213.318 121.998 207.654C120.024 201.989 119.384 196.801 120.079 192.088C120.826 187.357 122.789 183.262 125.966 179.801C129.196 176.322 133.52 173.638 138.941 171.749C142.745 170.423 146.481 169.738 150.148 169.695C153.797 169.599 157.145 170.314 160.19 171.841C163.288 173.349 165.85 175.838 167.878 179.307L154.382 190.894C152.777 187.63 151.149 185.727 149.499 185.185C147.901 184.625 146.137 184.68 144.209 185.353C142.437 185.97 141.09 186.969 140.169 188.349C139.281 189.659 138.862 191.393 138.913 193.551C138.998 195.639 139.562 198.178 140.604 201.168C141.628 204.105 142.739 206.453 143.936 208.211C145.186 209.952 146.601 211.076 148.181 211.584C149.743 212.04 151.566 211.904 153.65 211.178C155.527 210.524 156.872 209.437 157.687 207.918C158.483 206.346 158.608 204.273 158.061 201.699L175.619 200.255Z" fill="url(#paint3_linear_601_4229)"/>
<path d="M78.8776 200.592L103.533 201.884L102.794 215.984L58.9258 213.685L61.778 159.263L80.9908 160.269L78.8776 200.592Z" fill="url(#paint4_linear_601_4229)"/>
<path d="M210.611 181.461C216.383 181.159 221.389 181.999 225.627 183.982C229.865 185.964 233.193 188.987 235.611 193.05C238.029 197.113 239.393 202.112 239.704 208.049C240.015 213.986 239.181 219.101 237.201 223.395C235.221 227.688 232.227 231.042 228.22 233.457C224.212 235.872 219.322 237.23 213.55 237.533C207.833 237.833 202.828 236.992 198.535 235.012C194.296 233.03 190.941 230.008 188.468 225.949C186.05 221.886 184.686 216.886 184.375 210.949C184.063 205.012 184.898 199.897 186.878 195.604C188.913 191.308 191.934 187.952 195.942 185.537C200.004 183.12 204.894 181.761 210.611 181.461ZM211.368 195.891C209.499 195.989 207.985 196.565 206.828 197.618C205.722 198.613 204.919 200.116 204.418 202.126C203.972 204.134 203.833 206.732 204 209.921C204.164 213.054 204.574 215.623 205.23 217.628C205.939 219.576 206.896 221.014 208.102 221.943C209.361 222.814 210.925 223.201 212.794 223.103C214.663 223.005 216.15 222.458 217.255 221.463C218.413 220.41 219.215 218.88 219.661 216.872C220.104 214.809 220.243 212.211 220.079 209.078C219.912 205.89 219.502 203.32 218.848 201.37C218.195 199.42 217.239 198.009 215.981 197.138C214.774 196.209 213.237 195.793 211.368 195.891Z" fill="#151035"/>
<path d="M137.464 247.376L130.317 301.403L113.7 299.205L116.18 280.459L118.829 262.319L118.584 262.286L103.222 297.819L87.9966 295.805L82.5658 257.522L82.2384 257.479L80.0801 275.684L77.6005 294.429L60.9014 292.221L68.0479 238.194L94.7338 241.724L97.7824 266.531L98.8245 276.914L98.9882 276.936L102.694 267.181L112.088 244.019L137.464 247.376Z" fill="#151035"/>
<path d="M100.875 374.634L87.6904 321.756L131.596 310.809L135.011 324.509L109.774 330.802L111.412 337.372L131.762 332.298L134.918 344.956L114.568 350.03L116.126 356.28L142.325 349.748L145.741 363.448L100.875 374.634Z" fill="url(#paint5_linear_601_4229)"/>
<path d="M178.019 156.267L197.219 105.263L239.567 121.205L234.592 134.419L210.25 125.256L207.865 131.593L227.493 138.982L222.897 151.191L203.268 143.803L200.999 149.83L226.269 159.343L221.295 172.557L178.019 156.267Z" fill="url(#paint6_linear_601_4229)"/>
<path d="M108.573 166.095L80.9019 116.672L101.061 111.86L116.39 148.694L114.715 108.601L130.778 104.767L147.735 140.958L144.672 101.451L164.109 96.8115L161.662 153.424L141.824 158.159L132.893 139.237L127.565 126.162L127.324 126.22L128.476 140.292L129.134 161.188L108.573 166.095Z" fill="#151035"/>
<path d="M166.568 317.872C171.516 323.806 185.002 330.423 198.931 320.282C212.861 310.141 208.949 296.553 205.306 289.669" stroke="#151035" stroke-width="6"/>
</g>
<defs>
<linearGradient id="paint0_linear_601_4229" x1="272" y1="398" x2="319.653" y2="104.935" gradientUnits="userSpaceOnUse">
<stop stop-color="white"/>
<stop offset="1" stop-color="white"/>
</linearGradient>
<linearGradient id="paint1_linear_601_4229" x1="147" y1="467.798" x2="363.058" y2="307.602" gradientUnits="userSpaceOnUse">
<stop stop-color="#FF8CF4" stop-opacity="0.9"/>
<stop offset="1" stop-color="#FFA9DE"/>
</linearGradient>
<linearGradient id="paint2_linear_601_4229" x1="147" y1="467.798" x2="363.058" y2="307.602" gradientUnits="userSpaceOnUse">
<stop stop-color="#FF8CF4" stop-opacity="0.9"/>
<stop offset="1" stop-color="#FFA9DE"/>
</linearGradient>
<linearGradient id="paint3_linear_601_4229" x1="131.323" y1="234.402" x2="167.273" y2="165.789" gradientUnits="userSpaceOnUse">
<stop stop-color="#FF8CF4" stop-opacity="0.9"/>
<stop offset="1" stop-color="#FFA9DE"/>
</linearGradient>
<linearGradient id="paint4_linear_601_4229" x1="102.794" y1="215.984" x2="112.013" y2="169.152" gradientUnits="userSpaceOnUse">
<stop stop-color="#00D1B8" stop-opacity="0.9"/>
<stop offset="1" stop-color="#25CBD9"/>
<stop offset="1" stop-color="#25CBD9"/>
</linearGradient>
<linearGradient id="paint5_linear_601_4229" x1="145.741" y1="363.448" x2="140.528" y2="315.956" gradientUnits="userSpaceOnUse">
<stop stop-color="#00D1B8" stop-opacity="0.9"/>
<stop offset="1" stop-color="#25CBD9"/>
<stop offset="1" stop-color="#25CBD9"/>
</linearGradient>
<linearGradient id="paint6_linear_601_4229" x1="221.295" y1="172.557" x2="243.992" y2="130.516" gradientUnits="userSpaceOnUse">
<stop stop-color="#00D1B8" stop-opacity="0.9"/>
<stop offset="1" stop-color="#25CBD9"/>
<stop offset="1" stop-color="#25CBD9"/>
</linearGradient>
<clipPath id="clip0_601_4229">
<rect width="298" height="465" fill="white"/>
</clipPath>
</defs>
</svg>
