<svg width="16" xmlns="http://www.w3.org/2000/svg" height="16" fill="none"><g class="fills"><rect rx="0" ry="0" width="16" height="16" class="frame-background"/></g><g class="frame-children"><path d="M7.981 1.333A6.694 6.694 0 0 1 14.667 8a6.648 6.648 0 0 1-6.648 6.667A6.694 6.694 0 0 1 1.333 8a6.648 6.648 0 0 1 6.648-6.667ZM9.994 6 8 8l-1.994 2m-.012-4L8 8l2.006 2" class="fills"/><g class="strokes"><path d="M7.981 1.333A6.694 6.694 0 0 1 14.667 8a6.648 6.648 0 0 1-6.648 6.667A6.694 6.694 0 0 1 1.333 8a6.648 6.648 0 0 1 6.648-6.667ZM9.994 6 8 8l-1.994 2m-.012-4L8 8l2.006 2" style="fill: none; stroke-width: 1; stroke: rgb(200, 8, 87); stroke-opacity: 1; stroke-linecap: round;" class="stroke-shape"/></g><path d="M7.981 1.333A6.694 6.694 0 0 1 14.667 8a6.648 6.648 0 0 1-6.648 6.667A6.694 6.694 0 0 1 1.333 8a6.648 6.648 0 0 1 6.648-6.667ZM9.994 6 8 8l-1.994 2m-.012-4L8 8l2.006 2" class="fills"/><g class="strokes"><path d="M7.981 1.333A6.694 6.694 0 0 1 14.667 8a6.648 6.648 0 0 1-6.648 6.667A6.694 6.694 0 0 1 1.333 8a6.648 6.648 0 0 1 6.648-6.667ZM9.994 6 8 8l-1.994 2m-.012-4L8 8l2.006 2" style="fill: none; stroke-width: 1; stroke: rgb(200, 8, 87); stroke-opacity: 1; stroke-linecap: round;" class="stroke-shape"/></g></g></svg>