<svg width="138" xmlns="http://www.w3.org/2000/svg" height="137" id="screenshot-bee8e5b0-23fe-80cd-8008-263a68fc01f0" viewBox="0 0 138 137" xmlns:xlink="http://www.w3.org/1999/xlink" fill="none" version="1.1"><g id="shape-bee8e5b0-23fe-80cd-8008-263a68fc01f0"><defs><clipPath id="frame-clip-bee8e5b0-23fe-80cd-8008-263a68fc01f0-render-21" class="frame-clip frame-clip-def"><rect rx="0" ry="0" x="0" y="0" width="138.00039291381836" height="137.00002562999725" transform="matrix(1.000000, 0.000000, 0.000000, 1.000000, 0.000000, 0.000000)"/></clipPath></defs><g class="frame-container-wrapper"><g class="frame-container-blur"><g class="frame-container-shadows"><g clip-path="url(#frame-clip-bee8e5b0-23fe-80cd-8008-263a68fc01f0-render-21)" fill="none"><g class="fills" id="fills-bee8e5b0-23fe-80cd-8008-263a68fc01f0"><rect rx="0" ry="0" x="0" y="0" width="138.00039291381836" height="137.00002562999725" transform="matrix(1.000000, 0.000000, 0.000000, 1.000000, 0.000000, 0.000000)" class="frame-background"/></g><g class="frame-children"><g id="shape-bee8e5b0-23fe-80cd-8008-263a68fc01f1" rx="0" ry="0" style="fill: rgb(0, 0, 0);"><g id="shape-bee8e5b0-23fe-80cd-8008-263a68fc01f2"><g class="fills" id="fills-bee8e5b0-23fe-80cd-8008-263a68fc01f2"><path d="M0.00011405778059270233,16.552888870239258C0.00011405778059270233,7.071932315826416,7.6973795890808105,-0.6255772709846497,17.17833709716797,-0.6255772709846497L120.82189178466797,-0.6255772709846497C130.30284118652344,-0.6255772709846497,138.00059509277344,7.071932315826416,138.00059509277344,16.552888870239258L138.00059509277344,119.82168579101562C138.00059509277344,129.30264282226562,130.30284118652344,136.99990844726562,120.82189178466797,136.99990844726562L17.17833709716797,136.99990844726562C7.6973795890808105,136.99990844726562,0.00011405778059270233,129.30264282226562,0.00011405778059270233,119.82168579101562L0.00011405778059270233,16.552888870239258M24.46398162841797,85.59878540039062C24.46398162841797,100.16299438476562,36.30968475341797,111.97720336914062,50.91417694091797,111.97720336914062L87.71398162841797,111.97720336914062C102.31798553466797,111.97720336914062,114.16417694091797,100.16299438476562,114.16417694091797,85.59878540039062L114.16417694091797,48.89883804321289C114.16417694091797,34.33462905883789,102.31798553466797,22.520418167114258,87.71398162841797,22.520418167114258L50.91417694091797,22.520418167114258C36.30968475341797,22.520418167114258,24.46398162841797,34.33462905883789,24.46398162841797,48.89883804321289L24.46398162841797,85.59878540039062M93.46398162841797,38.57681655883789C96.68468475341797,38.57681655883789,99.21398162841797,41.09903335571289,99.21398162841797,44.31119155883789C99.21398162841797,47.52334976196289,96.68468475341797,50.04556655883789,93.46398162841797,50.04556655883789C90.24327850341797,50.04556655883789,87.71398162841797,47.52334976196289,87.71398162841797,44.31119155883789C87.71398162841797,41.09903335571289,90.24327850341797,38.57681655883789,93.46398162841797,38.57681655883789M69.31407928466797,45.45816421508789C81.38878631591797,45.45816421508789,91.16368865966797,55.20669937133789,91.16368865966797,67.24893188476562C91.16368865966797,79.29116821289062,81.38878631591797,89.03945922851562,69.31407928466797,89.03945922851562C57.23888397216797,89.03945922851562,47.46398162841797,79.29116821289062,47.46398162841797,67.24893188476562C47.46398162841797,55.20669937133789,57.23888397216797,45.45816421508789,69.31407928466797,45.45816421508789M84.68224334716797,67.56167602539062C84.68224334716797,59.26968765258789,77.94200897216797,52.54800796508789,69.62755584716797,52.54800796508789C61.31310272216797,52.54800796508789,54.57286834716797,59.26968765258789,54.57286834716797,67.56167602539062C54.57286834716797,75.85342407226562,61.31310272216797,82.57534790039062,69.62755584716797,82.57534790039062C77.94200897216797,82.57534790039062,84.68224334716797,75.85342407226562,84.68224334716797,67.56167602539062" style="fill: rgb(100, 102, 106); fill-opacity: 1;"/></g></g></g></g></g></g></g></g></g></svg>