<svg width="140" xmlns="http://www.w3.org/2000/svg" height="139" id="screenshot-bee8e5b0-23fe-80cd-8008-263a68fc01e9" viewBox="0 0 140 139" xmlns:xlink="http://www.w3.org/1999/xlink" fill="none" version="1.1"><g id="shape-bee8e5b0-23fe-80cd-8008-263a68fc01e9"><defs><clipPath id="frame-clip-bee8e5b0-23fe-80cd-8008-263a68fc01e9-render-24" class="frame-clip frame-clip-def"><rect rx="0" ry="0" x="0" y="0" width="139.999906539917" height="139.00002300739288" transform="matrix(1.000000, 0.000000, 0.000000, 1.000000, 0.000000, 0.000000)"/></clipPath></defs><g class="frame-container-wrapper"><g class="frame-container-blur"><g class="frame-container-shadows"><g clip-path="url(#frame-clip-bee8e5b0-23fe-80cd-8008-263a68fc01e9-render-24)" fill="none"><g class="fills" id="fills-bee8e5b0-23fe-80cd-8008-263a68fc01e9"><rect rx="0" ry="0" x="0" y="0" width="139.999906539917" height="139.00002300739288" transform="matrix(1.000000, 0.000000, 0.000000, 1.000000, 0.000000, 0.000000)" class="frame-background"/></g><g class="frame-children"><g id="shape-bee8e5b0-23fe-80cd-8008-263a68fc01ea"><g class="fills" id="fills-bee8e5b0-23fe-80cd-8008-263a68fc01ea"><path d="M17.59947967529297,138.98941040039062C9.095817565917969,137.95498657226562,2.5001139640808105,130.68472290039062,2.5001139640808105,121.88272094726562L2.5001139640808105,18.485017776489258C2.5001139640808105,8.974520683288574,10.200309753417969,1.2523523569107056,19.68761444091797,1.2523523569107056L122.81212615966797,1.2523523569107056C132.29893493652344,1.2523523569107056,139.99961853027344,8.974520683288574,139.99961853027344,18.485017776489258L139.99961853027344,121.88272094726562C139.99961853027344,129.29434204101562,135.32286071777344,135.61978149414062,128.76866149902344,138.05093383789062C118.05577850341797,138.01773071289062,106.21251678466797,137.34487915039062,93.12071990966797,135.94766235351562C91.50450897216797,136.03799438476562,89.92198944091797,135.45962524414062,88.74376678466797,134.34878540039062C87.56847381591797,133.23599243164062,86.90587615966797,131.69180297851562,86.90587615966797,130.07632446289062L86.90587615966797,109.84976196289062C87.24962615966797,106.60635375976562,86.68468475341797,103.33071899414062,85.26915740966797,100.38809204101562C107.51378631591797,96.47305297851562,119.61388397216797,83.42422485351562,119.61388397216797,65.80825805664062C119.93810272216797,56.66617202758789,116.64757537841797,47.76138687133789,110.45861053466797,41.01285171508789C113.73253631591797,34.30875015258789,113.23644256591797,26.380037307739258,109.14904022216797,20.134675979614258C101.22228240966797,20.243806838989258,93.67443084716797,23.537996292114258,88.21398162841797,29.270662307739258C82.48693084716797,27.572664260864258,76.52452850341797,26.800691604614258,70.55284881591797,26.985750198364258C64.55236053466797,26.777498245239258,58.56945037841797,27.663484573364258,52.89171600341797,29.596345901489258C47.50841522216797,23.712556838989258,39.93761444091797,20.292146682739258,31.95665740966797,20.134675979614258C27.76866912841797,26.373689651489258,27.39122772216797,34.41177749633789,30.97570037841797,41.01285171508789C24.66320037841797,47.71084976196289,21.25646209716797,56.61978530883789,21.49181365966797,65.80825805664062C21.49181365966797,83.42422485351562,33.59386444091797,96.47305297851562,55.83361053466797,100.38809204101562C54.41905975341797,103.33071899414062,53.85753631591797,106.60635375976562,54.19689178466797,109.84976196289062C50.27208709716797,111.48037719726562,37.84337615966797,112.45840454101562,32.28527069091797,102.99868774414062C29.92296600341797,99.24575805664062,25.91857147216797,96.82632446289062,21.49181365966797,96.47305297851562C21.49181365966797,96.47305297851562,14.622673034667969,96.14688110351562,21.16466522216797,100.71377563476562C24.57286834716797,103.38150024414062,27.08019256591797,107.02456665039062,28.35704803466797,111.15420532226562C28.35704803466797,111.15420532226562,34.57140350341797,124.85537719726562,54.19689178466797,120.61416625976562L54.19689178466797,130.07632446289062C54.19689178466797,133.01309204101562,51.58214569091797,136.59951782226562,48.30919647216797,135.94766235351562C37.17931365966797,137.68618774414062,26.96300506591797,138.67324829101562,17.58824920654297,138.99624633789062" style="fill: rgb(100, 102, 106); fill-opacity: 1;"/></g></g></g></g></g></g></g></g></svg>