<svg width="138" xmlns="http://www.w3.org/2000/svg" height="138" id="screenshot-bee8e5b0-23fe-80cd-8008-263ad1104cf3" viewBox="0 0 138 138" xmlns:xlink="http://www.w3.org/1999/xlink" fill="none" version="1.1"><g id="shape-bee8e5b0-23fe-80cd-8008-263ad1104cf3"><defs><clipPath id="frame-clip-bee8e5b0-23fe-80cd-8008-263ad1104cf3-render-15" class="frame-clip frame-clip-def"><rect rx="0" ry="0" x="0" y="0" width="138" height="138" transform="matrix(1.000000, 0.000000, 0.000000, 1.000000, 0.000000, 0.000000)"/></clipPath></defs><g class="frame-container-wrapper"><g class="frame-container-blur"><g class="frame-container-shadows"><g clip-path="url(#frame-clip-bee8e5b0-23fe-80cd-8008-263ad1104cf3-render-15)" fill="none"><g class="fills" id="fills-bee8e5b0-23fe-80cd-8008-263ad1104cf3"><rect rx="0" ry="0" x="0" y="0" width="138" height="138" transform="matrix(1.000000, 0.000000, 0.000000, 1.000000, 0.000000, 0.000000)" class="frame-background"/></g><g class="frame-children"><g id="shape-bee8e5b0-23fe-80cd-8008-263ad1104cf4"><g class="fills" id="fills-bee8e5b0-23fe-80cd-8008-263ad1104cf4"><path d="M0,17.178466796875C0,7.697509765625,7.697265625,0,17.17822265625,0L120.8212890625,0C130.30224609375,0,138,7.697509765625,138,17.178466796875L138,120.821533203125C138,130.302734375,130.30224609375,138,120.8212890625,138L17.17822265625,138C7.697265625,138,0,130.302734375,0,120.821533203125L0,17.178466796875" style="fill: rgb(100, 102, 106); fill-opacity: 1;"/></g></g><g id="shape-bee8e5b0-23fe-80cd-8008-263acb5ee5fe" rx="0" ry="0" style="opacity: 1;"><g id="shape-bee8e5b0-23fe-80cd-8008-263acb5ee600" rx="0" ry="0" style="opacity: 1;"><g id="shape-bee8e5b0-23fe-80cd-8008-263acb5ee601" style="opacity: 1;"><g class="fills" id="fills-bee8e5b0-23fe-80cd-8008-263acb5ee601"><path d="M27.62060546875,42.41455078125C25.53515625,40.4755859375,24.5,38.07470703125,24.5,35.216796875C24.5,32.36181640625,25.54296875,29.855224609375,27.62060546875,27.910888671875C29.70556640625,25.969970703125,32.388671875,24.9990234375,35.6748046875,24.9990234375C38.962890625,24.9990234375,41.53955078125,25.969970703125,43.6171875,27.910888671875C45.703125,29.8525390625,46.7373046875,32.28955078125,46.7373046875,35.216796875C46.7373046875,38.14697265625,45.697265625,40.4755859375,43.6171875,42.41455078125C41.53466796875,44.353271484375,38.890625,45.32666015625,35.6748046875,45.32666015625C32.458984375,45.32666015625,29.70556640625,44.353271484375,27.62060546875,42.41455078125ZM44.98876953125,53.538330078125L44.98876953125,113L26.2470703125,113L26.2470703125,53.538330078125L44.98876953125,53.538330078125Z" fill-rule="nonzero" style="fill: rgb(245, 245, 245); fill-opacity: 1;"/></g></g><g id="shape-bee8e5b0-23fe-80cd-8008-263acb5ee602" style="opacity: 1;"><g class="fills" id="fills-bee8e5b0-23fe-80cd-8008-263acb5ee602"><path d="M107.37451171875,59.41162109375C111.458984375,63.859619140625,113.5009765625,69.960205078125,113.5009765625,77.727783203125L113.5009765625,111.949462890625L95.70068359375,111.949462890625L95.70068359375,80.1416015625C95.70068359375,76.225341796875,94.6865234375,73.178955078125,92.6630859375,71.010498046875C90.6396484375,68.842041015625,87.91357421875,67.75537109375,84.498046875,67.75537109375C81.08251953125,67.75537109375,78.3564453125,68.837158203125,76.3330078125,71.010498046875C74.3095703125,73.178955078125,73.29541015625,76.225341796875,73.29541015625,80.1416015625L73.29541015625,111.949462890625L55.39208984375,111.949462890625L55.39208984375,53.37353515625L73.29541015625,53.37353515625L73.29541015625,61.14111328125C75.10888671875,58.549560546875,77.55419921875,56.50732421875,80.625,54.999755859375C83.69580078125,53.494384765625,87.14697265625,52.745849609375,90.98974609375,52.745849609375C97.830078125,52.745849609375,103.2939453125,54.966064453125,107.37451171875,59.40625L107.37451171875,59.41162109375Z" fill-rule="nonzero" style="fill: rgb(245, 245, 245); fill-opacity: 1;"/></g></g></g></g></g></g></g></g></g></g></svg>