<svg width="139" xmlns="http://www.w3.org/2000/svg" height="139" id="screenshot-bee8e5b0-23fe-80cd-8008-263a68fc0205" viewBox="0 0 139 139" xmlns:xlink="http://www.w3.org/1999/xlink" fill="none" version="1.1"><g id="shape-bee8e5b0-23fe-80cd-8008-263a68fc0205"><defs><clipPath id="frame-clip-bee8e5b0-23fe-80cd-8008-263a68fc0205-render-5" class="frame-clip frame-clip-def"><rect rx="0" ry="0" x="0" y="0" width="138.99990391731262" height="139.00002300739288" transform="matrix(1.000000, 0.000000, 0.000000, 1.000000, 0.000000, 0.000000)"/></clipPath></defs><g class="frame-container-wrapper"><g class="frame-container-blur"><g class="frame-container-shadows"><g clip-path="url(#frame-clip-bee8e5b0-23fe-80cd-8008-263a68fc0205-render-5)" fill="none"><g class="fills" id="fills-bee8e5b0-23fe-80cd-8008-263a68fc0205"><rect rx="0" ry="0" x="0" y="0" width="138.99990391731262" height="139.00002300739288" transform="matrix(1.000000, 0.000000, 0.000000, 1.000000, 0.000000, 0.000000)" class="frame-background"/></g><g class="frame-children"><g id="shape-bee8e5b0-23fe-80cd-8008-263a68fc0206"><g class="fills" id="fills-bee8e5b0-23fe-80cd-8008-263a68fc0206"><path d="M0.6260643005371094,17.804468154907227C0.6260643005371094,8.32351016998291,8.32332992553711,0.6262447834014893,17.80477523803711,0.6262447834014893L121.19539642333984,0.6262447834014893C130.67636108398438,0.6262447834014893,138.37362670898438,8.32351016998291,138.37362670898438,17.804468154907227L138.37362670898438,121.1955795288086C138.37362670898438,130.67654418945312,130.67636108398438,138.37380981445312,121.19539642333984,138.37380981445312L17.80477523803711,138.37380981445312C8.32332992553711,138.37380981445312,0.6260643005371094,130.67654418945312,0.6260643005371094,121.1955795288086L0.6260643005371094,17.804468154907227M85.78279876708984,83.2248764038086C81.60506439208984,83.2248764038086,78.10604095458984,79.8125228881836,78.10604095458984,75.6069564819336C78.10604095458984,71.3938217163086,81.60506439208984,67.8723373413086,85.78279876708984,67.8723373413086C89.95125579833984,67.8723373413086,93.33211517333984,71.3938217163086,93.33211517333984,75.6069564819336C93.33211517333984,79.8125228881836,89.95613861083984,83.2248764038086,85.78279876708984,83.2248764038086M86.84285736083984,97.2990951538086C83.15633392333984,101.0149154663086,77.37801361083984,102.8220443725586,69.18172454833984,102.8220443725586C60.98006820678711,102.8220443725586,55.20760726928711,101.0149154663086,51.52596664428711,97.2990951538086C50.72372055053711,96.4926986694336,50.72372055053711,95.1884994506836,51.52596664428711,94.3740463256836C52.31844711303711,93.5674057006836,53.61825180053711,93.5674057006836,54.41512680053711,94.3740463256836C57.29354476928711,97.2780990600586,62.11922836303711,98.6911849975586,69.18172454833984,98.6911849975586C76.23885345458984,98.6911849975586,81.06990814208984,97.2780990600586,83.95369720458984,94.3740463256836C84.74617767333984,93.5674057006836,86.04549407958984,93.5674057006836,86.84285736083984,94.3740463256836C87.64559173583984,95.1884994506836,87.64559173583984,96.4926986694336,86.84285736083984,97.2990951538086M45.03670883178711,75.6069564819336C45.03670883178711,71.3989486694336,48.53524398803711,67.8723373413086,52.70272445678711,67.8723373413086C56.87118148803711,67.8723373413086,60.25252914428711,71.3989486694336,60.25252914428711,75.6069564819336C60.25252914428711,79.8125228881836,56.87118148803711,83.2248764038086,52.70272445678711,83.2248764038086C48.53524398803711,83.2248764038086,45.03670883178711,79.8125228881836,45.03670883178711,75.6069564819336M123.97322845458984,67.2309799194336C123.97322845458984,60.326683044433594,118.40877532958984,54.708030700683594,111.56600189208984,54.708030700683594C108.40926361083984,54.708030700683594,105.43367767333984,55.897972106933594,103.15535736083984,58.024681091308594C94.96443939208984,52.645286560058594,83.99715423583984,49.169456481933594,71.85164642333984,48.692893981933594L78.54940032958984,28.057397842407227L96.14656829833984,32.236106872558594C96.15193939208984,37.918724060058594,100.73201751708984,42.536643981933594,106.36580657958984,42.536643981933594C111.99910736083984,42.536643981933594,116.58406829833984,37.907981872558594,116.58406829833984,32.225608825683594C116.58406829833984,26.542993545532227,111.99910736083984,21.914575576782227,106.36580657958984,21.914575576782227C102.14412689208984,21.914575576782227,98.52742767333984,24.501489639282227,96.96443939208984,28.187768936157227C93.17195892333984,27.288110733032227,79.61971282958984,24.064966201782227,75.82674407958984,23.162622451782227L67.55428314208984,48.650413513183594C54.94979476928711,48.887229919433594,43.52743148803711,52.347190856933594,35.02547836303711,57.854270935058594C32.77352523803711,55.836692810058594,29.86336898803711,54.708030700683594,26.80331039428711,54.708030700683594C19.96541976928711,54.708030700683594,14.40096664428711,60.326683044433594,14.40096664428711,67.2309799194336C14.40096664428711,71.6147689819336,16.66952133178711,75.6338119506836,20.29647445678711,77.8879623413086C16.99032211303711,97.5813217163086,39.98543930053711,114.5810775756836,68.95711517333984,114.5810775756836C97.80525970458984,114.5810775756836,120.72518157958984,97.7304916381836,117.66512298583984,78.1384506225586C121.54451751708984,75.9426498413086,123.97322845458984,71.8303451538086,123.97322845458984,67.2309799194336" style="fill: rgb(100, 102, 106); fill-opacity: 1;"/></g></g></g></g></g></g></g></g></svg>