<svg width="138" xmlns="http://www.w3.org/2000/svg" height="138" id="screenshot-bee8e5b0-23fe-80cd-8008-263a92bec34d" viewBox="0 0 138 138" xmlns:xlink="http://www.w3.org/1999/xlink" fill="none" version="1.1"><g id="shape-bee8e5b0-23fe-80cd-8008-263a92bec34d"><defs><clipPath id="frame-clip-bee8e5b0-23fe-80cd-8008-263a92bec34d-render-9" class="frame-clip frame-clip-def"><rect rx="0" ry="0" x="0" y="0" width="138" height="138" transform="matrix(1.000000, 0.000000, 0.000000, 1.000000, 0.000000, 0.000000)"/></clipPath></defs><g class="frame-container-wrapper"><g class="frame-container-blur"><g class="frame-container-shadows"><g clip-path="url(#frame-clip-bee8e5b0-23fe-80cd-8008-263a92bec34d-render-9)" fill="none"><g class="fills" id="fills-bee8e5b0-23fe-80cd-8008-263a92bec34d"><rect rx="0" ry="0" x="0" y="0" width="138" height="138" transform="matrix(1.000000, 0.000000, 0.000000, 1.000000, 0.000000, 0.000000)" class="frame-background"/></g><g class="frame-children"><g id="shape-bee8e5b0-23fe-80cd-8008-263a68fc01f6"><g class="fills" id="fills-bee8e5b0-23fe-80cd-8008-263a68fc01f6"><path d="M0,17.178466796875C0,7.697509765625,7.697265625,0,17.17822265625,0L120.8212890625,0C130.30224609375,0,138,7.697509765625,138,17.178466796875L138,120.821533203125C138,130.302734375,130.30224609375,138,120.8212890625,138L17.17822265625,138C7.697265625,138,0,130.302734375,0,120.821533203125L0,17.178466796875M97.2001953125,35.810546875C78.5810546875,33.226806640625,59.42236328125,33.226806640625,40.79833984375,35.810546875C33.11376953125,36.877685546875,27.1298828125,42.729736328125,25.9208984375,50.376708984375C24.9560546875,56.51611328125,24.46337890625,62.78466796875,24.46337890625,68.9951171875C24.46337890625,75.205810546875,24.951171875,81.536376953125,25.94482421875,87.714111328125C27.1298828125,95.188232421875,33.23779296875,101.126220703125,40.79833984375,102.1796875C50.107421875,103.476318359375,59.603515625,104.127197265625,69.00048828125,104.127197265625C78.39599609375,104.127197265625,87.89111328125,103.476318359375,97.20166015625,102.1796875C104.87158203125,101.112548828125,110.83984375,95.308349609375,112.05419921875,87.714111328125C113.0439453125,81.541259765625,113.5361328125,75.24365234375,113.5361328125,68.9951171875C113.5361328125,62.74658203125,113.048828125,56.453857421875,112.05419921875,50.2763671875C110.869140625,42.802001953125,104.76171875,36.864013671875,97.20166015625,35.810546875M84.927734375,71.1142578125L59.431640625,85.85205078125C59.05419921875,86.072021484375,58.63818359375,86.18212890625,58.2080078125,86.18212890625C57.7783203125,86.18212890625,57.3623046875,86.072021484375,56.98486328125,85.85205078125C56.224609375,85.42138671875,55.76171875,84.612548828125,55.76171875,83.732177734375L55.76171875,54.260498046875C55.76171875,53.380126953125,56.224609375,52.571533203125,56.98486328125,52.140625C57.74462890625,51.700439453125,58.671875,51.700439453125,59.431640625,52.140625L84.927734375,66.87841796875C85.6875,67.30908203125,86.1513671875,68.127197265625,86.1513671875,68.998046875C86.1513671875,69.869140625,85.6875,70.687255859375,84.927734375,71.1181640625" style="fill: rgb(100, 102, 106); fill-opacity: 1;"/></g></g></g></g></g></g></g></g></svg>