<svg width="138" xmlns="http://www.w3.org/2000/svg" height="138" id="screenshot-bee8e5b0-23fe-80cd-8008-263a7341cc32" viewBox="0 0 138 138" xmlns:xlink="http://www.w3.org/1999/xlink" fill="none" version="1.1"><g id="shape-bee8e5b0-23fe-80cd-8008-263a7341cc32"><defs><clipPath id="frame-clip-bee8e5b0-23fe-80cd-8008-263a7341cc32-render-7" class="frame-clip frame-clip-def"><rect rx="0" ry="0" x="0" y="0" width="138" height="138" transform="matrix(1.000000, 0.000000, 0.000000, 1.000000, 0.000000, 0.000000)"/></clipPath></defs><g class="frame-container-wrapper"><g class="frame-container-blur"><g class="frame-container-shadows"><g clip-path="url(#frame-clip-bee8e5b0-23fe-80cd-8008-263a7341cc32-render-7)" fill="none"><g class="fills" id="fills-bee8e5b0-23fe-80cd-8008-263a7341cc32"><rect rx="0" ry="0" x="0" y="0" width="138" height="138" transform="matrix(1.000000, 0.000000, 0.000000, 1.000000, 0.000000, 0.000000)" class="frame-background"/></g><g class="frame-children"><g id="shape-bee8e5b0-23fe-80cd-8008-263a68fc01ed"><g class="fills" id="fills-bee8e5b0-23fe-80cd-8008-263a68fc01ed"><path d="M-0.5,16.678466796875C-0.5,7.197265625,7.197509765625,-0.5,16.678466796875,-0.5L121.32177734375,-0.5C130.802734375,-0.5,138.5,7.197265625,138.5,16.678466796875L138.5,121.321533203125C138.5,130.802734375,130.802734375,138.5,121.32177734375,138.5L16.678466796875,138.5C7.197509765625,138.5,-0.5,130.802734375,-0.5,121.321533203125L-0.5,16.678466796875M33.016845703125,20.808837890625C22.688720703125,13.05517578125,5.957275390625,7.05615234375,5.957275390625,26.1455078125C5.957275390625,29.9580078125,8.142333984375,58.173583984375,9.424560546875,62.755615234375C13.880126953125,78.679443359375,30.115966796875,82.7421875,44.559814453125,80.282958984375C19.312255859375,84.579345703125,12.888427734375,98.8154296875,26.760498046875,113.049072265625C53.105224609375,140.085205078125,64.623779296875,106.266357421875,67.575927734375,97.602294921875C68.116943359375,96.013427734375,68.369873046875,95.26953125,68.373779296875,95.902099609375C68.378173828125,95.26953125,68.630615234375,96.013427734375,69.172119140625,97.602294921875C72.123779296875,106.266357421875,83.642333984375,140.083251953125,109.987548828125,113.049072265625C123.85498046875,98.8154296875,117.431640625,84.581298828125,92.188232421875,80.282958984375C106.631591796875,82.7421875,122.86767578125,78.679443359375,127.32373046875,62.755615234375C128.60595703125,58.173583984375,130.791015625,29.9580078125,130.791015625,26.1455078125C130.791015625,7.05615234375,114.059326171875,13.05517578125,103.731201171875,20.808837890625C89.417724609375,31.553466796875,74.028076171875,53.34375,68.373779296875,65.0361328125C62.719970703125,53.34375,47.325439453125,31.5556640625,33.016845703125,20.808837890625" style="fill: rgb(100, 102, 106); fill-opacity: 1;"/></g></g></g></g></g></g></g></g></svg>