<svg width="138" xmlns="http://www.w3.org/2000/svg" height="138" id="screenshot-bee8e5b0-23fe-80cd-8008-263afbc3829c" viewBox="0 0 138 138" xmlns:xlink="http://www.w3.org/1999/xlink" fill="none" version="1.1"><g id="shape-bee8e5b0-23fe-80cd-8008-263afbc3829c"><defs><clipPath id="frame-clip-bee8e5b0-23fe-80cd-8008-263afbc3829c-render-11" class="frame-clip frame-clip-def"><rect rx="0" ry="0" x="0" y="0" width="138" height="138" transform="matrix(1.000000, 0.000000, 0.000000, 1.000000, 0.000000, 0.000000)"/></clipPath></defs><g class="frame-container-wrapper"><g class="frame-container-blur"><g class="frame-container-shadows"><g clip-path="url(#frame-clip-bee8e5b0-23fe-80cd-8008-263afbc3829c-render-11)" fill="none"><g class="fills" id="fills-bee8e5b0-23fe-80cd-8008-263afbc3829c"><rect rx="0" ry="0" x="0" y="0" width="138" height="138" transform="matrix(1.000000, 0.000000, 0.000000, 1.000000, 0.000000, 0.000000)" class="frame-background"/></g><g class="frame-children"><g id="shape-bee8e5b0-23fe-80cd-8008-263afbc3829d"><g class="fills" id="fills-bee8e5b0-23fe-80cd-8008-263afbc3829d"><path d="M0,17.178466796875C0,7.697509765625,7.697265625,0,17.17822265625,0L120.8212890625,0C130.30224609375,0,138,7.697509765625,138,17.178466796875L138,120.821533203125C138,130.302734375,130.30224609375,138,120.8212890625,138L17.17822265625,138C7.697265625,138,0,130.302734375,0,120.821533203125L0,17.178466796875" style="fill: rgb(100, 102, 106); fill-opacity: 1;"/></g></g><g id="shape-bee8e5b0-23fe-80cd-8008-263b02ae724c" rx="0" ry="0" style="opacity: 1;"><g id="shape-bee8e5b0-23fe-80cd-8008-263b02ae724d" style="opacity: 1;"><g class="fills" id="fills-bee8e5b0-23fe-80cd-8008-263b02ae724d"><path d="M22.2275390625,24.498779296875L58.5185546875,73.58837890625L22.0009765625,113.49951171875L30.22119140625,113.49951171875L62.19677734375,78.556396484375L88.02783203125,113.49951171875L116.0009765625,113.49951171875L77.66650390625,61.64990234375L111.66162109375,24.498779296875L103.43896484375,24.498779296875L73.99658203125,56.67919921875L50.203125,24.498779296875L22.23291015625,24.498779296875L22.2275390625,24.498779296875ZM34.31103515625,30.622314453125L47.16064453125,30.622314453125L103.90185546875,107.373046875L91.05517578125,107.373046875L34.31103515625,30.622314453125Z" fill-rule="nonzero" style="fill: rgb(245, 245, 245); fill-opacity: 1;"/></g></g></g></g></g></g></g></g></g></svg>