<svg width="138" xmlns="http://www.w3.org/2000/svg" height="137" id="screenshot-bee8e5b0-23fe-80cd-8008-263a68fc01fc" viewBox="0 0 138 137" xmlns:xlink="http://www.w3.org/1999/xlink" fill="none" version="1.1"><g id="shape-bee8e5b0-23fe-80cd-8008-263a68fc01fc"><defs><clipPath id="frame-clip-bee8e5b0-23fe-80cd-8008-263a68fc01fc-render-1" class="frame-clip frame-clip-def"><rect rx="0" ry="0" x="0" y="0" width="137.9999077320099" height="137.00002562999725" transform="matrix(1.000000, 0.000000, 0.000000, 1.000000, 0.000000, 0.000000)"/></clipPath></defs><g class="frame-container-wrapper"><g class="frame-container-blur"><g class="frame-container-shadows"><g clip-path="url(#frame-clip-bee8e5b0-23fe-80cd-8008-263a68fc01fc-render-1)" fill="none"><g class="fills" id="fills-bee8e5b0-23fe-80cd-8008-263a68fc01fc"><rect rx="0" ry="0" x="0" y="0" width="137.9999077320099" height="137.00002562999725" transform="matrix(1.000000, 0.000000, 0.000000, 1.000000, 0.000000, 0.000000)" class="frame-background"/></g><g class="frame-children"><g id="shape-bee8e5b0-23fe-80cd-8008-263a68fc01fd" rx="0" ry="0"><g id="shape-bee8e5b0-23fe-80cd-8008-263a68fc01fe"><g class="fills" id="fills-bee8e5b0-23fe-80cd-8008-263a68fc01fe"><path d="M0.00018483861640561372,16.552751541137695C0.00018483861640561372,7.071794033050537,7.697450637817383,-0.6254714727401733,17.178407669067383,-0.6254714727401733L120.82147216796875,-0.6254714727401733C130.30242919921875,-0.6254714727401733,137.99969482421875,7.071794033050537,137.99969482421875,16.552751541137695L137.99969482421875,119.82154846191406C137.99969482421875,129.30274963378906,130.30242919921875,137.00001525878906,120.82147216796875,137.00001525878906L17.178407669067383,137.00001525878906C7.697450637817383,137.00001525878906,0.00018483861640561372,129.30274963378906,0.00018483861640561372,119.82154846191406L0.00018483861640561372,16.552751541137695M113.97576904296875,82.34352111816406C116.32781982421875,71.20680236816406,116.03387451171875,55.08790588378906,116.03387451171875,55.08790588378906C116.03387451171875,33.40040588378906,101.62811279296875,26.952898025512695,101.62811279296875,26.952898025512695C89.27996826171875,20.505144119262695,51.06024169921875,19.919206619262695,36.36053466796875,26.952898025512695C36.36053466796875,26.952898025512695,21.954774856567383,33.40040588378906,21.954774856567383,55.08790588378906L21.954774856567383,72.37916564941406C22.542665481567383,93.48023986816406,26.070497512817383,114.87477111816406,45.76824951171875,119.85694885253906C55.47039794921875,122.49464416503906,71.93426513671875,125.13233947753906,86.92840576171875,118.09840393066406L86.34002685546875,110.18556213378906C86.34002685546875,110.18556213378906,78.40203857421875,112.23707580566406,69.28778076171875,112.23707580566406C47.53240966796875,112.82325744628906,49.59002685546875,100.80714416503906,48.70867919921875,96.99732971191406C48.70867919921875,96.99732971191406,63.70184326171875,101.97950744628906,88.98602294921875,98.75563049316406C101.33416748046875,96.99732971191406,112.50604248046875,89.37745666503906,113.97576904296875,82.34352111816406" style="fill: rgb(100, 102, 106); fill-opacity: 1;"/></g></g><g id="shape-bee8e5b0-23fe-80cd-8008-263a68fc01ff"><g class="fills" id="fills-bee8e5b0-23fe-80cd-8008-263a68fc01ff"><path d="M99.10906982421875,56.43385314941406L99.10906982421875,83.20094299316406L88.77752685546875,83.20094299316406L88.77752685546875,57.31642150878906C88.77752685546875,52.02174377441406,86.41619873046875,49.37452697753906,81.98846435546875,49.37452697753906C76.67498779296875,49.37452697753906,74.01824951171875,52.61012268066406,74.01824951171875,59.08131408691406L74.01824951171875,72.90602111816406L63.98211669921875,72.90602111816406L63.98211669921875,59.08131408691406C63.98211669921875,52.61012268066406,61.32537841796875,49.37452697753906,56.01190185546875,49.37452697753906C51.58416748046875,49.37452697753906,49.22283935546875,52.02174377441406,49.22283935546875,57.31642150878906L49.22283935546875,83.20094299316406L38.89080810546875,83.20094299316406L38.89080810546875,56.43385314941406C38.89080810546875,51.13941955566406,40.36688232421875,38.78541564941406,54.24090576171875,38.78541564941406C65.75311279296875,38.78541564941406,69.00018310546875,49.66871643066406,69.00018310546875,49.66871643066406C69.00018310546875,49.66871643066406,71.95184326171875,38.78541564941406,83.75946044921875,38.78541564941406C97.04315185546875,38.78541564941406,99.10906982421875,51.13941955566406,99.10906982421875,56.43385314941406" style="fill: rgb(100, 102, 106);"/></g></g></g></g></g></g></g></g></g></svg>