<?xml version="1.0" standalone="no"?>
<!DOCTYPE svg PUBLIC "-//W3C//DTD SVG 1.1//EN" "http://www.w3.org/Graphics/SVG/1.1/DTD/svg11.dtd" >
<svg xmlns="http://www.w3.org/2000/svg">
<metadata></metadata>
<defs>
<font id="bebasregular" horiz-adv-x="729" >
<font-face units-per-em="1408" ascent="1126" descent="-282" />
<missing-glyph horiz-adv-x="130" />
<glyph horiz-adv-x="1408" />
<glyph horiz-adv-x="1408" />
<glyph unicode="&#xd;" horiz-adv-x="130" />
<glyph unicode=" "  horiz-adv-x="130" />
<glyph unicode="&#x09;" horiz-adv-x="130" />
<glyph unicode="&#xa0;" horiz-adv-x="130" />
<glyph unicode="!" horiz-adv-x="319" d="M65 553v701h189v-701l-14 -242h-161zM65 0v189h189v-189h-189z" />
<glyph unicode="&#x22;" horiz-adv-x="529" d="M94 1166l-29 286h175l-29 -286h-117zM318 1166l-29 286h175l-29 -286h-117z" />
<glyph unicode="#" horiz-adv-x="1154" d="M863 725l-40 -238h195l-29 -190h-197l-49 -297h-189l49 297h-163l-49 -297h-189l49 297h-186l29 190h188l40 238h-186l29 190h188l56 340h189l-56 -340h163l56 340h189l-56 -340h195l-29 -190h-197zM673 725h-162l-39 -238h162z" />
<glyph unicode="$" horiz-adv-x="756" d="M690 321q4 -162 -91 -252q-57 -53 -141 -68v-88h-160v92q-113 29 -174 134q-52 90 -59 210l181 13q12 -111 57 -158q34 -37 78 -35q62 2 99 61q19 29 19 83q0 77 -70 155q-57 53 -169 159q-87 83 -126 152q-49 86 -49 187q0 97 46 177q56 99 167 126v81h160v-81 q76 -17 126 -64q88 -82 98 -215l-182 -33q-8 76 -44 121q-24 30 -74 30q-52 0 -79 -46q-22 -37 -22 -92q0 -86 74 -176q27 -32 83 -79q66 -54 88 -77q70 -72 107 -138q55 -98 57 -179z" />
<glyph unicode="%" horiz-adv-x="1000" d="M379 793q0 -64 -46.5 -110t-110.5 -46q-65 0 -111 46t-46 110v358q0 65 46 111t111 46t111 -46.5t46 -110.5v-358zM162 795q0 -24 16.5 -40.5t40.5 -16.5t40.5 16.5t16.5 40.5v358q0 24 -16.5 40.5t-40.5 16.5t-40.5 -16.5t-16.5 -40.5v-358zM779 664q65 0 110.5 -46.5 t45.5 -110.5v-358q0 -65 -46 -110t-110 -45q-65 0 -111 45.5t-46 109.5v358q0 65 46 111t111 46zM833 509q0 24 -16.5 40.5t-40.5 16.5t-40.5 -16.5t-16.5 -40.5v-358q0 -24 16.5 -40.5t40.5 -16.5t40.5 16.5t16.5 40.5v358zM236 -21h-111l640 1326h110z" />
<glyph unicode="&#x26;" horiz-adv-x="872" d="M802 590q-45 -200 -122 -338q73 -67 127 -67v-175q-110 0 -227 100q-112 -118 -240 -118q-148 0 -226 122q-49 77 -49 176q0 97 47 202q8 17 53 92q25 40 50 77l-39 89q-28 62 -38 88q-20 51 -28 92q-9 45 -9 88q0 84 37 154q38 74 110 111q57 31 126 31q77 0 141 -38.5 t98 -106.5q27 -55 27 -119q0 -113 -79 -215l-41 -53q-56 -73 -103 -137q63 -131 142 -245q47 107 72 228zM275 1019q0 -56 58 -194l24 30l25 33l40 53q44 58 44 108q0 37 -10 57q-25 63 -82 63q-49 0 -77 -53q-22 -42 -22 -97zM340 166q57 0 121 72q-77 99 -155 242 q-18 -30 -36 -62q-30 -69 -30 -128q0 -52 23 -85q27 -39 77 -39z" />
<glyph unicode="'" horiz-adv-x="305" d="M65 1452h175l-29 -286h-117z" />
<glyph unicode="(" horiz-adv-x="505" d="M437 1370q-54 -112 -96 -229q-66 -185 -87 -338q-8 -60 -8 -116q0 -183 97 -471q43 -126 97 -246l-122 -62q-71 116 -127 247q-126 293 -126 532q0 189 79 401q20 53 47 111q57 124 127 227z" />
<glyph unicode=")" horiz-adv-x="504" d="M187 1425q69 -103 126 -227q126 -274 126 -512q0 -239 -126 -532q-56 -131 -126 -246l-122 62q55 122 97 245q66 193 89 354q8 61 8 117q0 187 -96 454q-42 117 -95 229z" />
<glyph unicode="*" horiz-adv-x="626" d="M561 1016l-153 -27l104 -108l-130 -96l-72 137l-73 -137l-132 96l111 110l-151 25l52 151l137 -67l-22 155h159l-22 -157l143 69z" />
<glyph unicode="+" horiz-adv-x="774" d="M457 683h252v-140h-252v-252h-140v252h-252v140h252v252h140v-252z" />
<glyph unicode="," horiz-adv-x="320" d="M65 0v188h190v-188l-69 -144h-80l45 144h-86z" />
<glyph unicode="-" horiz-adv-x="690" d="M65 721h560v-190h-560v190z" />
<glyph unicode="." horiz-adv-x="319" d="M65 188h189v-189h-189v189z" />
<glyph unicode="/" horiz-adv-x="807" d="M588 1333h154l-523 -1371h-154z" />
<glyph unicode="0" d="M664 286q0 -125 -88 -212t-211 -87q-125 0 -212.5 87.5t-87.5 211.5v684q0 125 88 212.5t212 87.5q125 0 212 -88t87 -212v-684zM468 974q0 45 -32 77t-77 32t-76.5 -32t-31.5 -77v-685q0 -45 31.5 -77t76.5 -32t77 32t32 77v685z" />
<glyph unicode="1" horiz-adv-x="480" d="M225 0v965h-160v132q68 8 129.5 51.5t88.5 105.5h132v-1254h-190z" />
<glyph unicode="2" horiz-adv-x="746" d="M68 900q0 178 96 272q83 83 218 83q124 0 211.5 -93t87.5 -217q0 -128 -57 -247q-31 -66 -145 -227q-31 -44 -92 -137l-34 -51q-33 -50 -50 -79q-8 -14 -8 -17l371 -1v-185h-601v173q0 6 42 69q19 29 43 64l49 71q43 59 135 189q87 122 130 221q35 81 35 151q0 57 -32 97 q-35 42 -90 42q-79 0 -112 -91q-11 -30 -11 -72v-48h-186v33z" />
<glyph unicode="3" horiz-adv-x="743" d="M359 180q130 0 130 121v74q0 193 -202 193v162q109 0 161 61q48 55 48 154v29q0 123 -108 123q-60 0 -88 -46q-21 -35 -21 -91v-33h-185v29q0 134 68 218q77 96 217 96q133 0 213 -90q72 -81 72 -202v-53q0 -117 -70 -202q-30 -36 -70 -61q84 -47 130 -143 q24 -49 24 -119v-99q0 -139 -95 -228q-91 -86 -219 -86q-125 0 -212 88t-87 211v31l180 14l4 -44q4 -47 33.5 -77t76.5 -30z" />
<glyph unicode="4" horiz-adv-x="774" d="M65 461l334 794h189v-794h121v-190h-121v-270h-189v270h-334v190zM399 461v391l-156 -391h156z" />
<glyph unicode="5" horiz-adv-x="715" d="M274 1065v-269q28 40 79 62q27 11 63 11q124 0 183 -87q51 -75 51 -212v-270q0 -139 -88 -228q-84 -86 -212 -86q-124 0 -206 90q-79 86 -79 210v30l181 14l4 -43q7 -75 61 -100q16 -8 34 -8q116 0 116 121v307q0 55 -40 91q-19 17 -53 17q-50 0 -74 -39q-20 -34 -20 -72 v-34h-190v685h553v-190h-363z" />
<glyph unicode="6" horiz-adv-x="700" d="M438 943v31q0 46 -24.5 77.5t-69.5 31.5t-69.5 -31.5t-24.5 -77.5v-250q65 58 143 58q125 0 187 -87q55 -76 55 -211v-215h-1q-6 -120 -86.5 -201t-197.5 -81q-125 0 -206 89q-79 86 -79 210v684q0 92 44.5 166t126.5 110q52 24 114 24q124 0 206 -90q79 -86 79 -210v-27 h-197zM251 289q0 -46 23 -76q25 -33 70 -33t70 33q24 30 24 76v232q0 54 -40 90q-19 17 -53 17q-49 0 -74 -39q-20 -32 -20 -71v-229z" />
<glyph unicode="7" horiz-adv-x="698" d="M633 1255v-190l-265 -1064h-185l265 1064h-383v190h568z" />
<glyph unicode="8" horiz-adv-x="744" d="M679 286q0 -125 -88 -212t-212 -87h-15q-125 0 -212 88t-87 211v114q0 115 77 201q33 37 77 61q-76 39 -118 130q-21 47 -21 118v68q0 122 72 202q80 90 212 90h15q133 0 213 -90q72 -81 72 -202v-68q0 -117 -70 -194q-31 -34 -69 -54q84 -47 130 -143q24 -49 24 -119 v-114zM490 375q0 112 -51 150q-24 18 -67 18q-75 0 -102 -64q-16 -39 -16 -104v-60q0 -62 38 -100q32 -32 80 -34q77 4 107 76q11 24 11 58v60zM496 927q-2 129 -81 162q-18 8 -43 8q-49 0 -80 -27q-25 -22 -35.5 -56.5t-8.5 -86.5q3 -82 26 -118q30 -48 98 -48t99 51 q26 43 25 115z" />
<glyph unicode="9" horiz-adv-x="700" d="M350 1270q124 0 206 -90q79 -86 79 -210v-684q0 -125 -81.5 -212t-203.5 -87q-125 0 -206 89q-79 86 -79 210v27h196v-31q0 -46 24.5 -77t69.5 -31t69.5 31t24.5 77v251q-66 -59 -143 -59q-124 0 -186 87q-55 76 -55 212v215h1q4 87 49.5 156.5t123.5 103.5q51 22 111 22 zM449 968q0 46 -24.5 77.5t-69.5 31.5t-69.5 -31.5t-24.5 -77.5v-232q0 -55 40 -91q18 -17 53 -17q72 0 90 76q5 23 5 35v229z" />
<glyph unicode=":" horiz-adv-x="320" d="M65 188h190v-188h-190v188zM65 720h190v-189h-190v189z" />
<glyph unicode=";" horiz-adv-x="319" d="M65 188h189v-189l-68 -144h-80l44 144h-85v189zM65 720h189v-189h-189v189z" />
<glyph unicode="&#x3c;" horiz-adv-x="757" d="M692 954v-159l-431 -178l431 -181v-158l-627 271v137z" />
<glyph unicode="=" horiz-adv-x="774" d="M65 711v140h644v-140h-644zM65 437v140h644v-140h-644z" />
<glyph unicode="&#x3e;" horiz-adv-x="757" d="M65 954l627 -271v-137l-627 -268v158l431 179l-431 180v159z" />
<glyph unicode="?" horiz-adv-x="727" d="M370 1270q152 0 230 -109q62 -86 62 -202q0 -194 -175 -369q-61 -61 -65 -142q-2 -27 -2 -60v-75h-190v75q0 177 87 263q94 93 129 191q20 57 20 120q0 65 -29 102q-32 43 -93 35q-57 -7 -82 -79q-11 -30 -15 -70l-182 32q10 117 78 197q46 54 128 78q43 13 99 13z M230 181h190v-190h-190v190z" />
<glyph unicode="@" horiz-adv-x="1408" d="M1137 192h206l-19 -24q-105 -132 -265 -207q-156 -72 -328 -72q-284 0 -475 191t-191 505q0 312 178 526t495 214q191 0 310 -73q281 -172 281 -528q0 -201 -112 -366q-127 -186 -320 -186q-102 0 -134 83q-47 -43 -83 -61q-44 -22 -103 -22q-141 0 -217 114 q-66 98 -66 247q0 187 88 346q105 190 278 190q109 0 180 -93l10 67h189l-109 -689q0 -17 15 -17q58 0 118 63q45 48 76 114q41 88 41 210q0 201 -119.5 325.5t-319.5 124.5q-230 0 -378.5 -157.5t-148.5 -423.5q0 -243 135 -395q141 -159 381 -159q220 0 403 149zM752 520 q34 128 34 243q0 59 -21 99q-26 51 -80 51q-102 0 -155 -172q-38 -122 -38 -254q0 -62 22 -108q29 -60 84 -60q66 0 107 71q23 40 47 130z" />
<glyph unicode="A" horiz-adv-x="813" d="M308 288l-46 -288h-197l213 1253h260l210 -1253h-198l-45 288h-197zM407 966l-70 -494h140z" />
<glyph unicode="B" horiz-adv-x="767" d="M65 0v1254h283q112 0 202 -59q77 -50 110 -155q18 -56 18 -133q0 -126 -67 -202q-28 -32 -66 -49q63 -24 107 -95q29 -48 43 -124q7 -39 7 -87q0 -119 -45 -202q-35 -65 -99 -104q-72 -44 -143 -44h-350zM269 187h79q96 0 133 99q13 34 13 78q0 105 -40 153 q-36 44 -106 44h-79v-374zM269 742h79q88 0 118 86q11 32 11 79q0 78 -38 118q-35 37 -91 37h-79v-320z" />
<glyph unicode="C" d="M365 -16q-125 0 -212.5 87.5t-87.5 211.5v684q0 125 88 212.5t212 87.5q125 0 212 -88t87 -212v-143h-196v147q0 45 -32 77t-77 32t-76.5 -32t-31.5 -77v-686q0 -45 31.5 -76.5t76.5 -31.5t77 31.5t32 76.5v173h196v-175q0 -125 -88 -212t-211 -87z" />
<glyph unicode="D" horiz-adv-x="724" d="M659 300q0 -124 -87 -212t-210 -88h-297v1254h297q124 0 210.5 -88t86.5 -211v-655zM254 187h114q45 0 76 32.5t31 76.5v656q0 45 -31.5 77t-75.5 32h-114v-874z" />
<glyph unicode="E" horiz-adv-x="668" d="M65 0v1254h538v-189h-349v-343h255v-190h-255v-343h349v-189h-538z" />
<glyph unicode="F" horiz-adv-x="668" d="M254 0h-189v1254h538v-189h-349v-343h255v-190h-255v-532z" />
<glyph unicode="G" d="M365 -16q-125 0 -212.5 88t-87.5 211v684q0 125 88 212.5t212 87.5q125 0 212 -88t87 -212v-143h-196v147q0 45 -32 77t-77 32t-76.5 -32t-31.5 -77v-686q0 -45 31.5 -76.5t76.5 -31.5t77 31.5t32 76.5v247h-105v189h301v-438q0 -125 -88 -212t-211 -87z" />
<glyph unicode="H" horiz-adv-x="736" d="M255 531v-531h-190v1253h190v-532h226v532h190v-1253h-190v531h-226z" />
<glyph unicode="I" horiz-adv-x="319" d="M254 0h-189v1253h189v-1253z" />
<glyph unicode="J" horiz-adv-x="546" d="M481 284q0 -125 -87.5 -211.5t-211.5 -86.5q-72 0 -117 15l27 176q32 -6 55 -6q14 -1 40 1q46 3 77.5 33t31.5 75v971h185v-967z" />
<glyph unicode="K" horiz-adv-x="796" d="M255 396v-396h-190v1254h190v-447l230 447h202l-259 -513l303 -741h-222l-198 508z" />
<glyph unicode="L" horiz-adv-x="645" d="M580 0h-515v1253h189v-1065h326v-188z" />
<glyph unicode="M" horiz-adv-x="1007" d="M254 0h-189v1254h271l176 -899l169 899h261v-1254h-189v788l-164 -788h-152l-183 786v-786z" />
<glyph unicode="N" horiz-adv-x="782" d="M278 1254l250 -842v842h189v-1254h-203l-260 803v-803h-189v1254h213z" />
<glyph unicode="O" d="M364 1269q125 0 212.5 -88t87.5 -212v-684q0 -125 -88 -212.5t-212 -87.5q-125 0 -212 88t-87 212v684q0 125 88 212.5t211 87.5zM467 973q0 45 -31.5 76.5t-76.5 31.5t-77 -31.5t-32 -76.5v-686q0 -45 32 -76.5t77 -31.5t76.5 31.5t31.5 76.5v686z" />
<glyph unicode="P" horiz-adv-x="724" d="M363 1253q138 0 220 -87q76 -83 76 -212v-182q0 -124 -86.5 -212t-209.5 -88h-109v-472h-189v1253h298zM476 951q0 49 -29.5 79t-78.5 30h-114v-401h114q45 0 76.5 32t31.5 77v183z" />
<glyph unicode="Q" horiz-adv-x="761" d="M664 285q0 -81 -40 -150q25 -29 72 -29v-176q-142 0 -194 89q-63 -34 -137 -34q-125 0 -212.5 88t-87.5 212v684q0 125 88 212.5t212 87.5q125 0 212 -88.5t87 -211.5v-684zM468 973q0 45 -32 76.5t-77 31.5t-76.5 -31.5t-31.5 -76.5v-686q0 -45 31.5 -76.5t76.5 -31.5 t77 31.5t32 76.5v686z" />
<glyph unicode="R" horiz-adv-x="764" d="M363 1253q158 0 232 -87q65 -76 65 -212v-182q0 -133 -101 -225l140 -547h-204l-115 473q-8 -1 -17 -1h-109v-472h-189v1253h298zM476 951q0 109 -108 109h-114v-401h114q45 0 76.5 32t31.5 77v183z" />
<glyph unicode="S" horiz-adv-x="755" d="M690 312q2 -131 -68 -224q-46 -63 -130 -89q-45 -14 -105 -14q-111 0 -184 55q-61 45 -96.5 122.5t-41.5 177.5l180 13q12 -109 58 -158q34 -37 78 -35q62 2 99 61q19 29 19 83q0 78 -71 155l-168 159q-94 91 -133 163q-42 81 -42 176q0 171 115 259q71 53 176 53 q101 0 173 -45q56 -35 90.5 -98t41.5 -145l-181 -33q-8 77 -44 120q-26 31 -75 31q-52 0 -79 -46q-22 -37 -22 -92q0 -86 74 -175q28 -34 84 -80q66 -55 87 -77q70 -70 108 -138q18 -32 29 -59q27 -67 28 -120z" />
<glyph unicode="T" horiz-adv-x="720" d="M266 1064h-201v189h590v-189h-200v-1064h-189v1064z" />
<glyph unicode="U" d="M364 -14q-125 0 -212 87t-87 211v969h185v-967q0 -45 32 -76.5t77 -31.5t76.5 31.5t31.5 76.5v967h197v-969q0 -126 -88 -212t-212 -86z" />
<glyph unicode="V" horiz-adv-x="842" d="M289 0l-224 1253h198l157 -975l159 975h198l-228 -1253h-260z" />
<glyph unicode="W" horiz-adv-x="1105" d="M842 1253h198l-196 -1253h-181l-107 684l-100 -684h-181l-210 1253h198l99 -671l91 671h198l99 -671z" />
<glyph unicode="X" horiz-adv-x="827" d="M762 0h-203l-145 398l-146 -398h-203l246 630l-246 623h209l140 -387l139 387h209l-246 -623z" />
<glyph unicode="Y" horiz-adv-x="826" d="M318 525l-253 729h208l140 -450l139 450h209l-254 -729v-525h-189v525z" />
<glyph unicode="Z" horiz-adv-x="682" d="M617 1253v-189l-348 -876h348v-188h-552v188l349 876h-349v189h552z" />
<glyph unicode="[" horiz-adv-x="448" d="M65 1332h318v-190h-128v-955h128v-188h-318v1333z" />
<glyph unicode="\" horiz-adv-x="807" d="M65 1332h153l524 -1370h-154z" />
<glyph unicode="]" horiz-adv-x="447" d="M65 1333h317v-1334h-317v189h128v955h-128v190z" />
<glyph unicode="^" horiz-adv-x="534" d="M313 1452l156 -351h-130l-71 171l-71 -171h-132l156 351h92z" />
<glyph unicode="_" horiz-adv-x="1097" d="M65 -210v139h967v-139h-967z" />
<glyph unicode="`" horiz-adv-x="407" d="M65 1416h175l102 -287h-117z" />
<glyph unicode="a" horiz-adv-x="813" d="M308 288l-46 -288h-197l213 1253h260l210 -1253h-198l-45 288h-197zM407 966l-70 -494h140z" />
<glyph unicode="b" horiz-adv-x="767" d="M65 0v1254h283q112 0 202 -59q77 -50 110 -155q18 -56 18 -133q0 -126 -67 -202q-28 -32 -66 -49q63 -24 107 -95q29 -48 43 -124q7 -39 7 -87q0 -119 -45 -202q-35 -65 -99 -104q-72 -44 -143 -44h-350zM269 187h79q96 0 133 99q13 34 13 78q0 105 -40 153 q-36 44 -106 44h-79v-374zM269 742h79q88 0 118 86q11 32 11 79q0 78 -38 118q-35 37 -91 37h-79v-320z" />
<glyph unicode="c" d="M365 -16q-125 0 -212.5 87.5t-87.5 211.5v684q0 125 88 212.5t212 87.5q125 0 212 -88t87 -212v-143h-196v147q0 45 -32 77t-77 32t-76.5 -32t-31.5 -77v-686q0 -45 31.5 -76.5t76.5 -31.5t77 31.5t32 76.5v173h196v-175q0 -125 -88 -212t-211 -87z" />
<glyph unicode="d" horiz-adv-x="724" d="M659 300q0 -124 -87 -212t-210 -88h-297v1254h297q124 0 210.5 -88t86.5 -211v-655zM254 187h114q45 0 76 32.5t31 76.5v656q0 45 -31.5 77t-75.5 32h-114v-874z" />
<glyph unicode="e" horiz-adv-x="668" d="M65 0v1254h538v-189h-349v-343h255v-190h-255v-343h349v-189h-538z" />
<glyph unicode="f" horiz-adv-x="668" d="M254 0h-189v1254h538v-189h-349v-343h255v-190h-255v-532z" />
<glyph unicode="g" d="M365 -16q-125 0 -212.5 88t-87.5 211v684q0 125 88 212.5t212 87.5q125 0 212 -88t87 -212v-143h-196v147q0 45 -32 77t-77 32t-76.5 -32t-31.5 -77v-686q0 -45 31.5 -76.5t76.5 -31.5t77 31.5t32 76.5v247h-105v189h301v-438q0 -125 -88 -212t-211 -87z" />
<glyph unicode="h" horiz-adv-x="736" d="M255 531v-531h-190v1253h190v-532h226v532h190v-1253h-190v531h-226z" />
<glyph unicode="i" horiz-adv-x="319" d="M254 0h-189v1253h189v-1253z" />
<glyph unicode="j" horiz-adv-x="546" d="M481 284q0 -125 -87.5 -211.5t-211.5 -86.5q-72 0 -117 15l27 176q32 -6 55 -6q14 -1 40 1q46 3 77.5 33t31.5 75v971h185v-967z" />
<glyph unicode="k" horiz-adv-x="796" d="M255 396v-396h-190v1254h190v-447l230 447h202l-259 -513l303 -741h-222l-198 508z" />
<glyph unicode="l" horiz-adv-x="645" d="M580 0h-515v1253h189v-1065h326v-188z" />
<glyph unicode="m" horiz-adv-x="1007" d="M254 0h-189v1254h271l176 -899l169 899h261v-1254h-189v788l-164 -788h-152l-183 786v-786z" />
<glyph unicode="n" horiz-adv-x="782" d="M278 1254l250 -842v842h189v-1254h-203l-260 803v-803h-189v1254h213z" />
<glyph unicode="o" d="M364 1269q125 0 212.5 -88t87.5 -212v-684q0 -125 -88 -212.5t-212 -87.5q-125 0 -212 88t-87 212v684q0 125 88 212.5t211 87.5zM467 973q0 45 -31.5 76.5t-76.5 31.5t-77 -31.5t-32 -76.5v-686q0 -45 32 -76.5t77 -31.5t76.5 31.5t31.5 76.5v686z" />
<glyph unicode="p" horiz-adv-x="724" d="M363 1253q138 0 220 -87q76 -83 76 -212v-182q0 -124 -86.5 -212t-209.5 -88h-109v-472h-189v1253h298zM476 951q0 49 -29.5 79t-78.5 30h-114v-401h114q45 0 76.5 32t31.5 77v183z" />
<glyph unicode="q" horiz-adv-x="761" d="M664 285q0 -81 -40 -150q25 -29 72 -29v-176q-142 0 -194 89q-63 -34 -137 -34q-125 0 -212.5 88t-87.5 212v684q0 125 88 212.5t212 87.5q125 0 212 -88.5t87 -211.5v-684zM468 973q0 45 -32 76.5t-77 31.5t-76.5 -31.5t-31.5 -76.5v-686q0 -45 31.5 -76.5t76.5 -31.5 t77 31.5t32 76.5v686z" />
<glyph unicode="r" horiz-adv-x="764" d="M363 1253q158 0 232 -87q65 -76 65 -212v-182q0 -133 -101 -225l140 -547h-204l-115 473q-8 -1 -17 -1h-109v-472h-189v1253h298zM476 951q0 109 -108 109h-114v-401h114q45 0 76.5 32t31.5 77v183z" />
<glyph unicode="s" horiz-adv-x="755" d="M690 312q2 -131 -68 -224q-46 -63 -130 -89q-45 -14 -105 -14q-111 0 -184 55q-61 45 -96.5 122.5t-41.5 177.5l180 13q12 -109 58 -158q34 -37 78 -35q62 2 99 61q19 29 19 83q0 78 -71 155l-168 159q-94 91 -133 163q-42 81 -42 176q0 171 115 259q71 53 176 53 q101 0 173 -45q56 -35 90.5 -98t41.5 -145l-181 -33q-8 77 -44 120q-26 31 -75 31q-52 0 -79 -46q-22 -37 -22 -92q0 -86 74 -175q28 -34 84 -80q66 -55 87 -77q70 -70 108 -138q18 -32 29 -59q27 -67 28 -120z" />
<glyph unicode="t" horiz-adv-x="720" d="M266 1064h-201v189h590v-189h-200v-1064h-189v1064z" />
<glyph unicode="u" d="M364 -14q-125 0 -212 87t-87 211v969h185v-967q0 -45 32 -76.5t77 -31.5t76.5 31.5t31.5 76.5v967h197v-969q0 -126 -88 -212t-212 -86z" />
<glyph unicode="v" horiz-adv-x="842" d="M289 0l-224 1253h198l157 -975l159 975h198l-228 -1253h-260z" />
<glyph unicode="w" horiz-adv-x="1105" d="M842 1253h198l-196 -1253h-181l-107 684l-100 -684h-181l-210 1253h198l99 -671l91 671h198l99 -671z" />
<glyph unicode="x" horiz-adv-x="827" d="M762 0h-203l-145 398l-146 -398h-203l246 630l-246 623h209l140 -387l139 387h209l-246 -623z" />
<glyph unicode="y" horiz-adv-x="826" d="M318 525l-253 729h208l140 -450l139 450h209l-254 -729v-525h-189v525z" />
<glyph unicode="z" horiz-adv-x="682" d="M617 1253v-189l-348 -876h348v-188h-552v188l349 876h-349v189h552z" />
<glyph unicode="{" horiz-adv-x="536" d="M164 1102q0 139 73 194q69 53 234 53v-131q-87 0 -118 -24t-31 -98v-268q0 -48 -25 -93q-27 -49 -69 -66q39 -15 67 -63q27 -44 27 -96v-269q0 -75 31 -98t118 -23v-131q-165 0 -234 53q-73 55 -73 194v193q0 104 -9 129q-21 57 -90 62v97q69 6 90 63q9 24 9 128v194z " />
<glyph unicode="|" horiz-adv-x="310" d="M65 1651h180v-1754h-180v1754z" />
<glyph unicode="}" horiz-adv-x="536" d="M471 708v-97q-43 -4 -60 -17.5t-29 -44.5q-6 -16 -8 -48q-1 -15 -1 -81v-193q0 -139 -74 -194q-67 -52 -234 -52v130q88 0 118.5 23t30.5 98v269q0 46 26.5 94.5t67.5 64.5q-39 16 -66.5 63t-27.5 96v269q0 75 -30.5 98t-118.5 23v131q165 0 234 -53q74 -55 74 -194v-194 q0 -65 1 -80q3 -44 21 -75t76 -36z" />
<glyph unicode="~" horiz-adv-x="742" d="M451 1388q23 -10 42 -10q36 1 79 59l105 -78q-85 -114 -189 -110q-58 1 -152 53q-67 37 -91 37q-33 0 -75 -55l-105 78q82 111 184 107q47 -1 105 -29q49 -26 97 -52z" />
<glyph horiz-adv-x="512" />
<glyph unicode="&#xad;" horiz-adv-x="690" d="M65 721h560v-190h-560v190z" />
<glyph unicode="&#x2000;" horiz-adv-x="825" />
<glyph unicode="&#x2001;" horiz-adv-x="1651" />
<glyph unicode="&#x2002;" horiz-adv-x="825" />
<glyph unicode="&#x2003;" horiz-adv-x="1651" />
<glyph unicode="&#x2004;" horiz-adv-x="550" />
<glyph unicode="&#x2005;" horiz-adv-x="412" />
<glyph unicode="&#x2006;" horiz-adv-x="275" />
<glyph unicode="&#x2007;" horiz-adv-x="275" />
<glyph unicode="&#x2008;" horiz-adv-x="206" />
<glyph unicode="&#x2009;" horiz-adv-x="330" />
<glyph unicode="&#x200a;" horiz-adv-x="91" />
<glyph unicode="&#x2010;" horiz-adv-x="690" d="M65 721h560v-190h-560v190z" />
<glyph unicode="&#x2011;" horiz-adv-x="690" d="M65 721h560v-190h-560v190z" />
<glyph unicode="&#x2012;" horiz-adv-x="690" d="M65 721h560v-190h-560v190z" />
<glyph unicode="&#x2013;" horiz-adv-x="834" d="M65 721h704v-190h-704v190z" />
<glyph unicode="&#x2014;" horiz-adv-x="1538" d="M65 721h1408v-190h-1408v190z" />
<glyph unicode="&#x202f;" horiz-adv-x="330" />
<glyph unicode="&#x205f;" horiz-adv-x="412" />
<glyph unicode="&#xe000;" horiz-adv-x="1255" d="M0 1255h1255v-1255h-1255v1255z" />
</font>
</defs>
</svg>
