<svg xmlns="http://www.w3.org/2000/svg" xmlns:xlink="http://www.w3.org/1999/xlink" viewBox="0 0 500.00001 500.00001">
  <use xlink:href="#symbol16714" transform="matrix(.48876 0 0 .48876 266.597 18.21)" width="100%" height="100%"/>
  <path d="M207.305 0c-6.64 0-11.987 5.345-11.987 11.984v85.393c0 6.64 5.347 11.984 11.987 11.984h85.39c6.64 0 11.987-5.343 11.987-11.983V11.984c0-6.64-5.347-11.984-11.987-11.984h-85.39zm0 195.318c-6.64 0-11.987 5.347-11.987 11.987v85.39c0 6.64 5.347 11.987 11.987 11.987h85.39c6.64 0 11.987-5.347 11.987-11.987v-85.39c0-6.64-5.347-11.987-11.987-11.987h-85.39zm0 195.32c-6.64 0-11.987 5.345-11.987 11.985v85.393c0 6.64 5.347 11.984 11.987 11.984h85.39c6.64 0 11.987-5.345 11.987-11.984v-85.393c0-6.64-5.347-11.984-11.987-11.984h-85.39z"/>
</svg>
