<svg xmlns:dc="http://purl.org/dc/elements/1.1/" xmlns:cc="http://creativecommons.org/ns#" xmlns:rdf="http://www.w3.org/1999/02/22-rdf-syntax-ns#" xmlns:svg="http://www.w3.org/2000/svg" xmlns="http://www.w3.org/2000/svg" xmlns:sodipodi="http://sodipodi.sourceforge.net/DTD/sodipodi-0.dtd" width="500" height="500" viewBox="0 0 500.00001 500.00001" id="svg2" version="1.1" sodipodi:docname="action.svg">
  <defs id="defs4"/>
  <sodipodi:namedview id="base" pagecolor="#ffffff" bordercolor="#666666" borderopacity="1.0" showgrid="false" units="px"/>
  <metadata id="metadata7">
    <rdf:RDF>
      <cc:Work rdf:about="">
        <dc:format>

          image/svg+xml

        </dc:format>
        <dc:type rdf:resource="http://purl.org/dc/dcmitype/StillImage"/>
      </cc:Work>
    </rdf:RDF>
  </metadata>
  <path id="path20164" d="m191.64785 498.75262c-7.77969-2.11857-14.67898-5.99402-20.54139-11.53843-8.86314-8.38239-13.27097-17.70166-14.81986-31.33296-0.52235-4.59701-1.80728-9.96843-2.89433-12.09923-1.07523-2.10761-26.63047-40.84608-56.789439-86.0855-30.158969-45.23941-55.913166-84.69256-57.231546-87.67366-6.563748-14.84179-9.586791-33.37935-7.262342-44.53328 4.526246-21.71931 24.327108-37.85973 46.414415-37.83411 11.641878 0.0135 28.640132 5.54001 39.296402 12.77611 2.58564 1.75579 11.98611 10.37261 20.88992 19.14853 8.90381 8.7759 16.48667 15.65827 16.8508 15.29414 0.36413-0.36414 0.66206-44.01547 0.66206-97.00296 0-82.245655 0.21318-97.159375 1.45714-101.935253 4.41235-16.940112 17.39069-29.9600167 34.23876-34.3483807 8.05009-2.09678105 45.49218-2.12380205 53.49777-0.0386 15.5359 4.046588 26.73695 14.1690707 33.25353 30.0515047 2.01608 4.913664 2.12219 6.923979 2.59061 49.08212l0.48843 43.958619 12.69916 0.58638c13.37443 0.61757 18.47109 1.94455 27.10282 7.05653 5.81486 3.44375 12.72951 10.84436 16.58951 17.75539l3.27361 5.86115 14.12606 0.57445c14.94455 0.60774 19.54533 1.74762 28.52973 7.06847 5.81486 3.44374 12.72951 10.84435 16.58951 17.75539l3.27361 5.86115 14.12606 0.57445c14.92207 0.60682 19.46078 1.72797 28.54342 7.05074 9.68996 5.6787 18.81066 18.78004 21.24824 30.52183 0.7106 3.42294 0.95264 28.1032 0.74786 76.25841l-0.30276 71.19758-2.63402 8.43865c-1.4487 4.64126-3.6785 10.79546-4.9551 13.67601-2.79164 6.29914-50.84038 78.83494-56.42111 85.17498-5.31576 6.03902-16.27188 13.15029-25.79263 16.74118l-7.84989 2.96071-86.94036 0.19531c-72.67254 0.16326-87.77967-0.0332-92.05465-1.19741zM371.1514 465.8467c2.96605-1.45671 6.87807-4.09423 8.69336-5.86115 4.13916-4.02886 49.391-71.71439 52.53142-78.57398 4.99063-10.90096 5.14624-13.43644 5.16449-84.14958 0.0164-63.57187-0.0465-65.85708-1.91464-69.51886-1.06239-2.08243-3.37021-4.81234-5.12851-6.06645-2.86192-2.04126-4.27166-2.28019-13.45391-2.28019l-10.25701 0-0.48843 25.9654-0.48843 25.96541-2.63121 3.44708c-6.83226 8.9507-18.72512 8.69119-25.63731-0.55944-1.92902-2.58161-2.03471-4.25321-2.5025-39.58056l-0.48843-36.88512-2.63122-3.44757c-4.13845-5.42243-8.03678-6.77363-18.59664-6.44578l-9.05474 0.28112-0.48843 26.06201c-0.45694 24.3818-0.61827 26.23574-2.5025 28.75695-3.83003 5.12479-6.95081 6.72309-13.12722 6.72309-6.17669 0-9.29773-1.59856-13.12723-6.72359-1.92902-2.58161-2.0347-4.25321-2.5025-39.58057l-0.48843-36.88512-2.63122-3.44756c-4.13845-5.42243-8.03678-6.77363-18.59664-6.44578l-9.05474 0.28112-0.48843 25.9654-0.48843 25.96541-2.63121 3.44708c-3.56365 4.66861-8.71479 7.00414-14.10743 6.39631-4.51077-0.50843-10.18186-4.12146-12.30976-7.84251-0.95705-1.67358-1.34387-20.91329-1.72262-85.67957l-0.48843-83.521362-2.28019-3.196904c-1.25411-1.758296-4.03275-4.090984-6.17476-5.183755-3.60332-1.838271-5.37457-1.964462-23.68558-1.687386-19.78025 0.299309-19.79289 0.300902-23.23772 2.930691-7.16446 5.46935-6.65223-5.122027-6.65223 137.547896 0 142.67538 0.51262 132.08072-6.65522 137.5479-2.80603 2.14025-4.48058 2.63121-8.97451 2.63121-4.58326 0-6.15379-0.47975-9.21563-2.81513-5.11203-3.89914-6.41409-7.63565-6.41409-18.40647l0-9.07362-28.08467-27.98737c-16.84145-16.78309-29.648931-28.76278-31.992091-29.9243-5.491904-2.72239-13.890533-5.08594-18.004958-5.06697-7.975943 0.0367-15.64746 7.95753-15.680572 16.19004-0.02076 5.15985 3.17886 17.64199 5.878954 22.9346 1.159376 2.27258 26.640125 40.92627 56.623877 85.89711 29.98376 44.97083 55.39705 83.49229 56.47397 85.60323 2.81991 5.52749 5.01244 13.67096 5.96313 22.14824 0.95039 8.47465 3.16631 12.37269 8.70794 15.31822 3.48262 1.85112 5.94661 1.89927 86.61752 1.6925l83.03293-0.2128 5.39283-2.64857z"/>
</svg>
