<?xml version="1.0" encoding="UTF-8" standalone="no"?>
<svg
   xmlns:dc="http://purl.org/dc/elements/1.1/"
   xmlns:cc="http://creativecommons.org/ns#"
   xmlns:rdf="http://www.w3.org/1999/02/22-rdf-syntax-ns#"
   xmlns:svg="http://www.w3.org/2000/svg"
   xmlns="http://www.w3.org/2000/svg"
   xmlns:xlink="http://www.w3.org/1999/xlink"
   xmlns:sodipodi="http://sodipodi.sourceforge.net/DTD/sodipodi-0.dtd"
   xmlns:inkscape="http://www.inkscape.org/namespaces/inkscape"
   width="500"
   height="500"
   viewBox="0 0 500.00001 500.00001"
   id="svg2"
   version="1.1"
   sodipodi:docname="align-right.svg"
   inkscape:version="0.91 r13725">
  <defs
     id="defs4" />
  <sodipodi:namedview
     id="base"
     pagecolor="#ffffff"
     bordercolor="#666666"
     borderopacity="1.0"
     showgrid="false"
     units="px"
     inkscape:zoom="0.472"
     inkscape:cx="-315.67797"
     inkscape:cy="250"
     inkscape:window-width="1920"
     inkscape:window-height="1056"
     inkscape:window-x="0"
     inkscape:window-y="24"
     inkscape:window-maximized="1"
     inkscape:current-layer="svg2" />
  <metadata
     id="metadata7">
    <rdf:RDF>
      <cc:Work
         rdf:about="">
        <dc:format>


          image/svg+xml


        </dc:format>
        <dc:type
           rdf:resource="http://purl.org/dc/dcmitype/StillImage" />
        <dc:title></dc:title>
      </cc:Work>
    </rdf:RDF>
  </metadata>
  <use
     id="use32130"
     xlink:href="#symbol16714"
     transform="matrix(0.48875855,0,0,0.48875855,266.5973,18.208584)"
     x="0"
     y="0"
     width="100%"
     height="100%" />
  <path
     style="opacity:1;fill:#000000;fill-opacity:1;stroke:none;stroke-width:25;stroke-miterlimit:4;stroke-dasharray:none;stroke-dashoffset:0;stroke-opacity:1"
     d="M 490.9043,0 C 495.94354,0 500,4.0564559 500,9.0957031 l 0,51.8085939 C 500,65.943544 495.94354,70 490.9043,70 L 9.0957,70 C 4.05646,70 0,65.943544 0,60.904297 L 0,9.0957031 C 0,4.0564559 4.05646,0 9.0957,0 l 481.8086,0 z m 0,146 c 5.03924,0 9.0957,4.05646 9.0957,9.0957 l 0,51.8086 c 0,5.03924 -4.05646,9.0957 -9.0957,9.0957 l -341.97852,0 c -5.03925,0 -9.0957,-4.05646 -9.0957,-9.0957 l 0,-51.8086 c 0,-5.03924 4.05645,-9.0957 9.0957,-9.0957 l 341.97852,0 z m 0,144 c 5.03924,0 9.0957,4.05646 9.0957,9.0957 l 0,51.8086 c 0,5.03924 -4.05646,9.0957 -9.0957,9.0957 l -407.65625,0 c -5.03925,0 -9.09571,-4.05646 -9.09571,-9.0957 l 0,-51.8086 c 0,-5.03924 4.05646,-9.0957 9.09571,-9.0957 l 407.65625,0 z m 0,140 c 5.03924,0 9.0957,4.05646 9.0957,9.0957 l 0,51.8086 c 0,5.03924 -4.05646,9.0957 -9.0957,9.0957 l -216.97852,0 c -5.03925,0 -9.0957,-4.05646 -9.0957,-9.0957 l 0,-51.8086 c 0,-5.03924 4.05645,-9.0957 9.0957,-9.0957 l 216.97852,0 z"
     id="rect23283"
     inkscape:connector-curvature="0" />
</svg>
