<svg xmlns="http://www.w3.org/2000/svg" width="500" height="500" viewBox="0 0 500 500.00001"><path d="M138.95.037c-15.98-.92-29.97 15.647-25.606 31.334 4.13 8.65 24.567 29.787 24.567 29.787S262.45 185.765 323.04 249.71c2.987 7.374-5.242 11.746-9.1 16.468-65.676 65.776-134.54 128.32-199.746 194.558-10.04 14.05-.633 36.505 16.616 38.87 11.186 2.13 21.436-4.678 28.266-12.905 69.318-65.464 137.627-132.003 206.412-198.038 7.657-8.142 16.97-15.295 22.61-25.015 5.093-12.025-1.092-25.682-11.04-33.082-74.275-75.378-148.38-150.948-224.07-224.898-3.904-3.303-8.78-5.912-14.037-5.63z"/></svg>