<?xml version="1.0" encoding="UTF-8" standalone="no"?>
<svg
   xmlns:dc="http://purl.org/dc/elements/1.1/"
   xmlns:cc="http://creativecommons.org/ns#"
   xmlns:rdf="http://www.w3.org/1999/02/22-rdf-syntax-ns#"
   xmlns:svg="http://www.w3.org/2000/svg"
   xmlns="http://www.w3.org/2000/svg"
   xmlns:sodipodi="http://sodipodi.sourceforge.net/DTD/sodipodi-0.dtd"
   xmlns:inkscape="http://www.inkscape.org/namespaces/inkscape"
   width="500"
   height="500"
   viewBox="0 0 500 500.00001"
   id="svg2"
   version="1.1"
   inkscape:version="0.91 r13725"
   sodipodi:docname="chain.svg">
  <metadata
     id="metadata10">
    <rdf:RDF>
      <cc:Work
         rdf:about="">
        <dc:format>image/svg+xml</dc:format>
        <dc:type
           rdf:resource="http://purl.org/dc/dcmitype/StillImage" />
      </cc:Work>
    </rdf:RDF>
  </metadata>
  <defs
     id="defs8" />
  <sodipodi:namedview
     pagecolor="#ffffff"
     bordercolor="#666666"
     borderopacity="1"
     objecttolerance="10"
     gridtolerance="10"
     guidetolerance="10"
     inkscape:pageopacity="0"
     inkscape:pageshadow="2"
     inkscape:window-width="1920"
     inkscape:window-height="1056"
     id="namedview6"
     showgrid="false"
     inkscape:zoom="0.944"
     inkscape:cx="92.606372"
     inkscape:cy="134.37847"
     inkscape:window-x="0"
     inkscape:window-y="24"
     inkscape:window-maximized="1"
     inkscape:current-layer="svg2" />
  <path
     style="fill:#060606"
     d="m 374.18867,0.0267054 c -35.64828,-0.2594519 -69.82413,17.0404356 -93.20368,43.4592726 -15.96943,15.815633 -34.18905,30.514355 -45.18713,50.405678 -5.1515,18.457664 15.53601,39.058944 33.81154,31.036824 12.22641,-5.78727 20.9306,-16.63075 30.89383,-25.454779 16.22461,-15.903949 31.60842,-34.624491 53.26814,-43.214287 30.62802,-9.50856 68.02579,2.749108 83.55033,31.696765 16.13296,27.355411 11.40609,65.900651 -12.9823,86.952601 -33.6878,33.49189 -65.99089,68.54217 -101.81764,99.77497 -25.67623,17.23892 -62.49311,13.96445 -85.18151,-6.89399 -9.89211,-7.80227 -24.66431,-13.50914 -36.06589,-5.38341 -13.15171,8.62196 -16.04732,29.62343 -4.15345,40.55617 15.93267,16.29843 36.91504,27.64936 59.09307,32.78437 40.13279,9.48411 85.67216,-1.55446 114.36469,-32.06287 33.07787,-32.27923 66.63084,-64.14607 97.86433,-98.23413 23.04904,-23.96391 33.83451,-58.70201 31.15623,-91.46246 C 496.89691,70.223369 468.37212,29.028579 428.06714,11.316877 411.19706,3.6063382 392.58276,-0.3672076 374.18867,0.0267054 Z M 214.90257,160.6474 c -39.01926,-0.33444 -76.68538,19.58857 -100.83485,49.88477 -31.172069,33.41854 -67.205805,62.36033 -94.800257,98.98025 -26.9880443,41.08393 -25.4588562,98.63597 3.545885,138.48623 27.24324,38.81883 78.068962,59.33957 124.213102,49.59632 24.72587,-4.46394 47.81335,-17.32539 65.23405,-35.18393 17.52414,-16.41671 34.99703,-33.22162 49.95378,-51.99502 8.83127,-16.43283 -6.03228,-38.57632 -24.49974,-37.35978 -12.4053,0.64489 -20.59493,11.5371 -29.6011,18.68791 -19.15239,17.81799 -35.79382,39.82048 -60.06572,51.03535 -30.55108,10.5216 -68.21902,-1.2911 -84.667542,-29.78775 -16.559305,-26.43812 -13.141765,-64.30146 9.984965,-85.87978 34.067387,-34.21788 67.149797,-69.52054 103.267867,-101.61931 26.30278,-18.27341 64.67227,-14.35 87.64732,7.61083 10.00553,7.94798 25.88113,12.00271 36.36258,2.66107 12.25723,-9.77484 13.27481,-30.9153 0.40352,-40.68432 -22.71929,-22.32063 -54.40976,-34.65193 -86.14386,-34.43284 z"
     id="path7397"
     inkscape:connector-curvature="0" />
</svg>
