<svg xmlns:dc="http://purl.org/dc/elements/1.1/" xmlns:cc="http://creativecommons.org/ns#" xmlns:rdf="http://www.w3.org/1999/02/22-rdf-syntax-ns#" xmlns:svg="http://www.w3.org/2000/svg" xmlns="http://www.w3.org/2000/svg" xmlns:sodipodi="http://sodipodi.sourceforge.net/DTD/sodipodi-0.dtd" width="500" height="500" viewBox="0 0 500.00001 500.00001" id="svg2" version="1.1" sodipodi:docname="exit.svg">
  <defs id="defs4"/>
  <sodipodi:namedview id="base" pagecolor="#ffffff" bordercolor="#666666" borderopacity="1.0" showgrid="false" units="px"/>
  <metadata id="metadata7">
    <rdf:RDF>
      <cc:Work rdf:about="">
        <dc:format>
          image/svg+xml
        </dc:format>
        <dc:type rdf:resource="http://purl.org/dc/dcmitype/StillImage"/>
      </cc:Work>
    </rdf:RDF>
  </metadata>
  <g id="layer1" transform="translate(0,-552.36216)">
    <path id="path20152" d="M42.200656 1051.3855C26.72746 1047.706 12.320915 1035.669 4.837135 1020.1676l-4.7248-9.7867 0-61.98274 0-61.9825 27.402824 0 27.402825 0 0.340383 55.1319 0.340395 55.1318 194.415398 0 194.41541 0 0-194.42954 0-194.42956-194.41541 0-194.415398 0-0.340395 55.13186-0.340383 55.13188-27.402825 0-27.402824 0 0-61.98258 0-61.98258 4.7248-9.78672c6.11369-12.6636 14.58156-21.13147 27.245161-27.24517l9.786724-4.72479 208.13099 0 208.13096 0 9.78673 4.72479c12.6636 6.1137 21.13148 14.58157 27.24516 27.24517l4.7248 9.78672 0 208.19866 0 208.1986-4.80498 9.7191c-6.28078 12.7042-14.76269 21.19-27.16498 27.1775l-9.78673 4.7248-205.52117 0.2052c-116.4972 0.1163-207.63847-0.2983-210.409144-0.9572zM216.38205 921.95766c-10.21785-10.236-18.57791-19.195-18.57791-19.909 0-0.7138 15.26834-16.5579 33.92966-35.2088 18.66132-18.651 33.73292-34.50122 33.49244-35.22281-0.2873-0.86209-45.81479-1.53568-132.77556-1.9644L0.112335 829.0002l0-26.75038 0-26.75037 132.338345-0.65246c86.96077-0.42871 132.48826-1.10231 132.77556-1.96439 0.24048-0.72159-14.83112-16.57184-33.49244-35.2228-18.66132-18.65096-33.92966-34.50987-33.92966-35.24202 0-0.73215 8.43714-9.75327 18.7492-20.04695 16.19098-16.16209 19.08423-18.53049 21.20458-17.35803 4.35624 2.4088 136.20725 135.27184 136.20725 137.25272 0 2.1097-135.59691 138.30334-137.69737 138.30334-0.71933 0-9.66792-8.375-19.88575-18.6112z"/>
  </g>
</svg>
