<svg xmlns:dc="http://purl.org/dc/elements/1.1/" xmlns:cc="http://creativecommons.org/ns#" xmlns:rdf="http://www.w3.org/1999/02/22-rdf-syntax-ns#" xmlns:svg="http://www.w3.org/2000/svg" xmlns="http://www.w3.org/2000/svg" xmlns:sodipodi="http://sodipodi.sourceforge.net/DTD/sodipodi-0.dtd" width="500" height="500" viewBox="0 0 500 500.00001" id="svg4946" version="1.1" sodipodi:docname="export.svg">
  <defs id="defs4948"/>
  <sodipodi:namedview id="base" pagecolor="#ffffff" bordercolor="#666666" borderopacity="1.0" showgrid="false" units="px"/>
  <metadata id="metadata4951">
    <rdf:RDF>
      <cc:Work rdf:about="">
        <dc:format>
          image/svg+xml
        </dc:format>
        <dc:type rdf:resource="http://purl.org/dc/dcmitype/StillImage"/>
      </cc:Work>
    </rdf:RDF>
  </metadata>
  <g id="layer1" transform="translate(0,-552.3622)">
    <path d="m0.32786945 583.28935c-0.01731 154.86312-1.1434756 309.76991 0.1890122 464.60575 3.42297305 5.8801 11.42262935 2.9412 17.02479935 3.8041 159.804239 1.5123 319.635879-0.087 479.429489 0.2734 4.84753 2.1011 2.63124-5.0869 2.80172-7.4325 0.21954-81.86894 0.0323-163.76968 0.0945-245.65085-15.8534 0-31.7068 0-47.56019 0-0.42763 68.0503-0.8574 136.10057-1.28371 204.15085-133.94401 0-267.88802 0-401.832032 0 0-133.94398 0-267.88799 0-401.832 68.050962-0.42631 136.101892-0.85608 204.152852-1.28371 0-15.85405 0-31.70811 0-47.56216-84.33817 0-168.676315 0-253.01447205 0-0.0006564 10.30904-0.00131 20.61807-0.00197 30.92712zM329.02203 599.92045c28.84878 0.29635 57.7037 0.19717 86.54593 0.97065-41.14083 44.14516-85.49473 85.25729-126.57123 129.40444-0.3673 8.15453 8.63834 11.84867 12.75328 17.84073 5.42547 5.6539 10.90188 11.42678 17.55758 15.65184 9.59809-3.53351 14.43162-13.47296 22.4493-19.30482 36.68366-35.78205 72.17295-72.78596 109.58753-107.81769 0.76612 28.84173 0.67091 57.69584 0.96869 86.54396 15.85143 0 31.70286 0 47.55428 0 0-56.94845 0-113.89691 0-170.84536-56.94845 0-113.89691 0-170.84536 0 0 15.85208 0 31.70416 0 47.55625z" id="path5548"/>
  </g>
</svg>
