<svg xmlns="http://www.w3.org/2000/svg" xmlns:xlink="http://www.w3.org/1999/xlink" width="500" height="500" viewBox="0 0 500.00001 500.00001"><use xlink:href="#symbol16714" transform="matrix(.48876 0 0 .48876 266.597 18.21)" width="100%" height="100%"/><path d="M54.285 50.703c-5.863.026-11.708.278-17.51 1.104C14.832 56.354-2.035 78.625.268 101.223.255 203.566-.336 305.927.28 408.258c2.597 24.247 26.213 43.21 50.5 40.842 136.06-.198 272.136.41 408.18-.32 24.245-2.596 43.212-26.21 40.84-50.5-.27-85.55.574-171.132-.44-256.665-2.937-23.786-26.56-42.382-50.378-39.967H248.2L197.4 50.852c-37.928 0-75.856-.004-113.785 0-9.74.395-19.56-.19-29.332-.15zM42.63 144.318h414.505v262.114H42.63V144.318zm110.054 91.352v17.326h36.47L148.91 314.34v12.437h65.955V309.45H174.2l40.245-61.345V235.67h-61.76zm79.79 0v91.107h20.542V235.67h-20.54zm44.266 0v91.107h20.54v-30.88h12.716c4.844 0 9.41-.608 13.695-1.82 4.287-1.21 8.06-3.072 11.32-5.587 3.26-2.515 5.822-5.73 7.685-9.642 1.957-3.913 2.934-8.524 2.934-13.834 0-5.497-.933-10.108-2.796-13.834-1.863-3.82-4.425-6.847-7.686-9.082-3.167-2.33-6.94-3.96-11.318-4.89-4.285-1.026-8.897-1.538-13.834-1.538H276.74zm20.54 16.35h11.458c5.497 0 9.643.977 12.438 2.933 2.888 1.956 4.332 5.31 4.332 10.06 0 9.69-5.59 14.534-16.77 14.534H297.28V252.02z"/></svg>