<?xml version="1.0" encoding="UTF-8" standalone="no"?>
<svg
   xmlns:dc="http://purl.org/dc/elements/1.1/"
   xmlns:cc="http://creativecommons.org/ns#"
   xmlns:rdf="http://www.w3.org/1999/02/22-rdf-syntax-ns#"
   xmlns:svg="http://www.w3.org/2000/svg"
   xmlns="http://www.w3.org/2000/svg"
   xmlns:sodipodi="http://sodipodi.sourceforge.net/DTD/sodipodi-0.dtd"
   xmlns:inkscape="http://www.inkscape.org/namespaces/inkscape"
   width="500"
   height="500"
   viewBox="0 0 500 500.00001"
   id="svg4946"
   version="1.1"
   sodipodi:docname="grid-snap.svg"
   inkscape:version="0.92.1 unknown">
  <defs
     id="defs4948">
    <path
       id="path-1"
       d="M0.140487671 0C0.0628984728 0 0 0.065177679 0 0.14488998L0 17.85511C0 17.9351306 0.0631103513 18 0.140487671 18L21.8595124 18C21.9371015 18 22 17.9348223 22 17.85511L22 0.14488998C22 0.064869454 21.9368896 0 21.8595124 0L0.140487671 0ZM1 1L1 17 21 17 21 1 1 1ZM8.31146755 3.96557279L11.5680228 9.58960333C11.6080958 9.65880899 11.694647 9.6768875 11.7588871 9.63170823L14.5213939 7.68886831C14.6506985 7.59792981 14.8228868 7.62965466 14.9092326 7.7648075L19.9298551 15.6233415C20.0147479 15.75622 19.9533678 15.8639394 19.8034742 15.8639394L2.14722686 15.8639394C1.99212294 15.8639394 1.92473319 15.7514312 1.99797568 15.6102003L7.71352136 4.58911188 8.03502924 3.96915944C8.107704 3.82902321 8.23291348 3.82991093 8.31146755 3.96557279ZM17.5 6C18.3284271 6 19 5.32842715 19 4.5 19 3.67157284 18.3284271 3 17.5 3 16.6715729 3 16 3.67157284 16 4.5 16 5.32842715 16.6715729 6 17.5 6ZM0.140487671 0C0.0628984728 0 0 0.065177679 0 0.14488998L0 17.85511C0 17.9351306 0.0631103513 18 0.140487671 18L21.8595124 18C21.9371015 18 22 17.9348223 22 17.85511L22 0.14488998C22 0.064869454 21.9368896 0 21.8595124 0L0.140487671 0ZM8.31146755 3.96557279L11.5680228 9.58960333C11.6080958 9.65880899 11.694647 9.6768875 11.7588871 9.63170823L14.5213939 7.68886831C14.6506985 7.59792981 14.8228868 7.62965466 14.9092326 7.7648075L19.9298551 15.6233415C20.0147479 15.75622 19.9533678 15.8639394 19.8034742 15.8639394L2.14722686 15.8639394C1.99212294 15.8639394 1.92473319 15.7514312 1.99797568 15.6102003L7.71352136 4.58911188 8.03502924 3.96915944C8.107704 3.82902321 8.23291348 3.82991093 8.31146755 3.96557279ZM17.5 6C18.3284271 6 19 5.32842715 19 4.5 19 3.67157284 18.3284271 3 17.5 3 16.6715729 3 16 3.67157284 16 4.5 16 5.32842715 16.6715729 6 17.5 6Z" />
  </defs>
  <sodipodi:namedview
     id="base"
     pagecolor="#ffffff"
     bordercolor="#666666"
     borderopacity="1.0"
     showgrid="false"
     units="px"
     inkscape:zoom="0.118"
     inkscape:cx="-917.54481"
     inkscape:cy="-1218.773"
     inkscape:window-width="1920"
     inkscape:window-height="1056"
     inkscape:window-x="0"
     inkscape:window-y="24"
     inkscape:window-maximized="1"
     inkscape:current-layer="svg4946" />
  <metadata
     id="metadata4951">
    <rdf:RDF>
      <cc:Work
         rdf:about="">
        <dc:format>
          image/svg+xml
        </dc:format>
        <dc:type
           rdf:resource="http://purl.org/dc/dcmitype/StillImage" />
        <dc:title></dc:title>
      </cc:Work>
    </rdf:RDF>
  </metadata>
  <path
     d="M 459.97266 0.005859375 C 458.8936 -0.009359375 457.81213 0.012161885 456.73438 0.044921875 C 419.6949 0.60045187 382.60419 -0.013649355 345.54297 0.21289062 L 34.277344 0.21289062 C 20.898637 5.0904106 9.1491954 14.6171 3.3125 27.8125 C -2.1723905 37.36687 1.4455615 48.812539 0.41015625 59.261719 L 0.41015625 465.82227 C 6.6965575 483.14857 21.906207 499.20152 41.400391 499.41992 C 85.753394 499.82691 130.1097 499.96535 174.46875 499.98633 C 181.25298 499.47029 192.91866 496.47149 194.35742 482.07617 L 194.35742 224.5332 C 194.35756 224.53322 194.37891 224.53516 194.37891 224.53516 C 194.37891 224.53516 194.87347 198.04569 219.76562 194.41797 L 245.25391 194.41797 C 246.87876 194.41197 248.50416 194.39582 250.12891 194.39062 C 250.68589 194.40512 251.24358 194.40667 251.80078 194.41797 L 398.10938 194.41797 C 399.7344 194.41197 401.35944 194.39582 402.98438 194.39062 C 403.54192 194.40533 404.10043 194.40647 404.6582 194.41797 L 482.58203 194.41797 C 482.57703 194.40537 482.52148 194.25391 482.52148 194.25391 C 482.52148 194.25391 498.93989 194.65109 499.73438 177.30469 C 499.74968 176.97011 499.78565 176.68138 499.81445 176.37891 C 499.80945 128.9193 499.80105 81.458419 499.81055 34.005859 C 493.95914 17.812079 480.45223 3.53858 463.20312 0.1875 C 462.12941 0.072765 461.05171 0.021078125 459.97266 0.005859375 z M 97.271484 41.535156 C 114.46504 41.981596 131.77013 40.881552 148.86133 43.294922 C 154.32667 48.678702 151.0428 57.24484 152.3457 63.9375 C 152.64961 91.9514 153.88121 120.21327 151.03516 148.07031 C 147.70516 154.01486 139.49348 150.81112 134.11133 152.04102 C 104.84972 152.49458 75.339785 153.72524 46.232422 150.83789 C 40.300166 147.49536 43.503211 139.29903 42.273438 133.91602 C 41.817698 104.65698 40.592877 75.152165 43.470703 46.046875 C 46.795771 40.093135 54.993813 43.350164 60.367188 42.027344 C 72.663228 41.605794 84.969324 41.575156 97.271484 41.535156 z M 250.12891 41.535156 C 267.32246 41.981596 284.62561 40.881552 301.7168 43.294922 C 307.18114 48.678972 303.89875 57.24466 305.20117 63.9375 C 305.50508 91.9514 306.7367 120.21327 303.89062 148.07031 C 300.56056 154.01486 292.34893 150.81114 286.9668 152.04102 C 257.70518 152.49458 228.19525 153.72524 199.08789 150.83789 C 193.15707 147.49491 196.35803 139.29891 195.12891 133.91602 C 194.67045 104.65971 193.45377 75.161781 196.32227 46.056641 C 199.63932 40.090121 207.85168 43.350094 213.22656 42.027344 C 225.52194 41.605784 237.82741 41.575156 250.12891 41.535156 z M 402.98438 41.535156 C 420.18565 41.987796 437.49801 40.872634 454.5957 43.302734 C 460.00958 48.707234 456.79905 57.239487 458.05859 63.935547 C 458.35701 91.953947 459.59717 120.22137 456.74414 148.08203 C 453.39779 154.00919 445.20573 150.81305 439.82227 152.04102 C 410.56322 152.49613 381.05824 153.72338 351.95312 150.83984 C 346.01202 147.50582 349.21361 139.29883 347.98438 133.91602 C 347.52717 104.6593 346.30863 75.159154 349.18164 46.054688 C 352.49842 40.090288 360.70815 43.350374 366.08203 42.027344 C 378.37741 41.605784 390.68283 41.575156 402.98438 41.535156 z M 97.271484 194.39062 C 114.46504 194.83709 131.77013 193.73701 148.86133 196.15039 C 154.32667 201.53416 151.0428 210.10226 152.3457 216.79492 C 152.64961 244.8088 153.88121 273.06874 151.03516 300.92578 C 147.70441 306.87063 139.49194 303.66615 134.10938 304.89648 C 104.84842 305.34971 75.339186 306.579 46.232422 303.69336 C 40.300586 300.35073 43.5041 292.15427 42.273438 286.77148 C 41.817698 257.51244 40.592877 228.00763 43.470703 198.90234 C 46.795771 192.9486 54.993813 196.20562 60.367188 194.88281 C 72.663228 194.46126 84.969324 194.43063 97.271484 194.39062 z M 243.92383 234.79492 L 243.92383 296.82422 L 308.59766 296.82422 L 308.59766 234.79492 L 243.92383 234.79492 z M 435.82812 234.79492 L 435.82812 296.82422 L 500.50195 296.82422 L 500.50195 234.79492 L 435.82812 234.79492 z M 243.92383 331.83203 L 243.92383 387.34375 C 243.92383 408.97962 249.28964 427.66154 260.08398 444.58398 C 270.91323 461.56105 285.63152 474.57908 305.25977 484.28711 C 324.82041 493.96169 346.87106 498.88477 372.21289 498.88477 C 397.55474 498.88477 419.60342 493.96169 439.16406 484.28711 C 458.79231 474.57908 473.51256 461.56105 484.3418 444.58398 C 495.13615 427.66154 500.50195 408.97962 500.50195 387.34375 L 500.50195 331.83203 L 435.82812 331.83203 L 435.82812 387.34375 C 435.82812 395.83457 433.70234 404.2534 429.08789 411.41016 C 425.19929 417.44113 420.2953 422.69138 414.125 426.43945 C 408.80876 429.66874 402.88282 432.0055 396.50586 433.64648 C 390.90563 435.08759 386.35223 436.0608 381.8125 436.43945 C 378.52966 436.71327 375.33311 436.85547 372.21289 436.85547 C 369.09269 436.85547 365.89417 436.71327 362.61133 436.43945 C 358.0716 436.0608 353.52015 435.08759 347.91992 433.64648 C 341.54296 432.0055 335.61507 429.66875 330.29883 426.43945 C 324.12852 422.69138 319.22844 417.44113 315.33984 411.41016 C 310.7254 404.2534 308.59766 395.83457 308.59766 387.34375 L 308.59766 331.83203 L 243.92383 331.83203 z M 97.271484 347.24609 C 114.4638 347.69328 131.76734 346.59327 148.85742 349.00586 C 154.3306 354.38434 151.04068 362.95866 152.3457 369.65039 C 152.65289 397.66169 153.87465 425.91601 151.04102 453.77344 C 147.7191 459.73174 139.49509 456.52155 134.11133 457.75195 C 104.8523 458.20775 75.345522 459.43249 46.240234 456.55469 C 40.299129 453.22069 43.502678 445.01367 42.273438 439.63086 C 41.820067 410.36884 40.588013 380.8568 43.474609 351.75 C 46.808205 345.80925 54.994694 349.05937 60.367188 347.73828 C 72.663255 347.31695 84.96929 347.28446 97.271484 347.24609 z "
     id="path5737" />
</svg>
