<svg xmlns:dc="http://purl.org/dc/elements/1.1/" xmlns:cc="http://creativecommons.org/ns#" xmlns:rdf="http://www.w3.org/1999/02/22-rdf-syntax-ns#" xmlns:svg="http://www.w3.org/2000/svg" xmlns="http://www.w3.org/2000/svg" xmlns:sodipodi="http://sodipodi.sourceforge.net/DTD/sodipodi-0.dtd" width="500" height="500" viewBox="0 0 500 500.00001" id="svg4946" version="1.1" sodipodi:docname="image.svg">
  <defs id="defs4948">
    <path id="path-1" d="M0.140487671 0C0.0628984728 0 0 0.065177679 0 0.14488998L0 17.85511C0 17.9351306 0.0631103513 18 0.140487671 18L21.8595124 18C21.9371015 18 22 17.9348223 22 17.85511L22 0.14488998C22 0.064869454 21.9368896 0 21.8595124 0L0.140487671 0ZM1 1L1 17 21 17 21 1 1 1ZM8.31146755 3.96557279L11.5680228 9.58960333C11.6080958 9.65880899 11.694647 9.6768875 11.7588871 9.63170823L14.5213939 7.68886831C14.6506985 7.59792981 14.8228868 7.62965466 14.9092326 7.7648075L19.9298551 15.6233415C20.0147479 15.75622 19.9533678 15.8639394 19.8034742 15.8639394L2.14722686 15.8639394C1.99212294 15.8639394 1.92473319 15.7514312 1.99797568 15.6102003L7.71352136 4.58911188 8.03502924 3.96915944C8.107704 3.82902321 8.23291348 3.82991093 8.31146755 3.96557279ZM17.5 6C18.3284271 6 19 5.32842715 19 4.5 19 3.67157284 18.3284271 3 17.5 3 16.6715729 3 16 3.67157284 16 4.5 16 5.32842715 16.6715729 6 17.5 6ZM0.140487671 0C0.0628984728 0 0 0.065177679 0 0.14488998L0 17.85511C0 17.9351306 0.0631103513 18 0.140487671 18L21.8595124 18C21.9371015 18 22 17.9348223 22 17.85511L22 0.14488998C22 0.064869454 21.9368896 0 21.8595124 0L0.140487671 0ZM8.31146755 3.96557279L11.5680228 9.58960333C11.6080958 9.65880899 11.694647 9.6768875 11.7588871 9.63170823L14.5213939 7.68886831C14.6506985 7.59792981 14.8228868 7.62965466 14.9092326 7.7648075L19.9298551 15.6233415C20.0147479 15.75622 19.9533678 15.8639394 19.8034742 15.8639394L2.14722686 15.8639394C1.99212294 15.8639394 1.92473319 15.7514312 1.99797568 15.6102003L7.71352136 4.58911188 8.03502924 3.96915944C8.107704 3.82902321 8.23291348 3.82991093 8.31146755 3.96557279ZM17.5 6C18.3284271 6 19 5.32842715 19 4.5 19 3.67157284 18.3284271 3 17.5 3 16.6715729 3 16 3.67157284 16 4.5 16 5.32842715 16.6715729 6 17.5 6Z"/>
  </defs>
  <sodipodi:namedview id="base" pagecolor="#ffffff" bordercolor="#666666" borderopacity="1.0" showgrid="false" units="px"/>
  <metadata id="metadata4951">
    <rdf:RDF>
      <cc:Work rdf:about="">
        <dc:format>
          image/svg+xml
        </dc:format>
        <dc:type rdf:resource="http://purl.org/dc/dcmitype/StillImage"/>
      </cc:Work>
    </rdf:RDF>
  </metadata>
  <g id="layer1" transform="translate(0,-552.3622)">
    <g id="miu" transform="matrix(22.727273,0,0,22.727273,64.761445,556.3068)">
      <path d="m-1.9737577 2.0177715-0.2764935 0.1896846c-0.1552719 0.1062286-0.2990121 0.2436518-0.4041721 0.3988681l-0.1754894 0.2605824-0.015989 7.7835444c-0.00545 2.749499-0.00466 4.690029 0.0018 5.968437 0.00323 0.639204 0.00767 1.112242 0.014196 1.439404 0.00327 0.163581 0.00633 0.289823 0.010608 0.384595 0.00428 0.09477 0.00348 0.136808 0.021293 0.219868 0.051051 0.237994 0.1699906 0.438605 0.3633802 0.616866 0.1316229 0.121327 0.2572013 0.225946 0.4289745 0.28008 0.1717733 0.05414 0.3404572 0.05871 0.6133551 0.06732 0.086248 0.0027 0.3846291 0.0024 0.91816118 0.0036 0.5335321 0.0012 1.2794128 0.0029 2.18215342 0.0035 1.8054813 0.0013 4.2412502 0.0015 6.8706089 0 4.3422824-0.0025 6.7351154-0.006 8.0637044-0.01771 0.664293-0.0059 1.060525-0.0151 1.308216-0.0266 0.24769-0.01149 0.332878 0.000072 0.480373-0.0762 0.173211-0.08957 0.308023-0.224255 0.43069-0.372272 0.122667-0.148018 0.229966-0.281541 0.26768-0.492774 0.0083-0.04658 0.0047-0.04385 0.0054-0.05678 0.000632-0.01293 0.0013-0.02726 0.0018-0.0443 0.000907-0.03408 0.0028-0.07916 0.0036-0.136492 0.0016-0.114665 0.0023-0.276719 0.0035-0.482168 0.0025-0.410896 0.0041-0.99386 0.0054-1.707005 0.0024-1.42629 0.0021-3.372222-0.0019-5.493368-0.0069-3.7199872-0.01072-5.6488149-0.0248-6.6756977-0.0071-0.5134417-0.01554-0.8001705-0.0301-0.9837553-0.01457-0.1835848-0.04926-0.3037311-0.08509-0.3758596-0.0982-0.1977248-0.24464-0.3390977-0.420091-0.4609499l-0.308471-0.214487-10.1269929 0-10.1251982 0-0.0000778 0zm10.1305018 1.5723859 9.4091229 0 0.0018 0.019498c0.0096 0.5006664 0.0148 3.4209571 0.01599 6.2165402 0.000592 1.3977914 0.000182 2.7669614-0.0019 3.7969694-0.000998 0.515005-0.0018 0.945884-0.0035 1.251435-0.000197 0.03537 0.000206 0.05141 0 0.08338-0.142721-0.137951-0.289092-0.276952-0.496391-0.480452-0.55153-0.541423-1.304764-1.288767-2.127088-2.111177C13.21905 10.630447 12.406662 9.8041971 11.879265 9.3813131 11.351869 8.95843 11.011217 8.9558491 10.59944 8.9558486c-0.469426 0-0.6469453 0.038826-0.9767355 0.1949887C9.4449672 9.2350129 9.274277 9.3448959 8.9703914 9.6223171 8.6665058 9.8997371 8.203339 10.358599 7.3661831 11.192908 6.864865 11.692521 6.403317 12.146091 6.0650652 12.474528 5.9129661 12.622213 5.7957371 12.734937 5.701685 12.823713 5.6375771 12.763476 5.5739795 12.703474 5.4818941 12.614529 5.2314956 12.372672 4.8913558 12.036659 4.5228635 11.667978 3.9073681 11.052165 3.5633689 10.713387 3.3210334 10.498048 3.078698 10.282709 2.9166441 10.181726 2.74145 10.100974 2.4134499 9.9497901 2.2270329 9.9127671 1.8001243 9.9147991c-0.3854653 0.0018-0.7089986 0.04134-1.05293702 0.2588659-0.3439385 0.217527-0.7133439 0.577417-1.3773195 1.231937-0.2427145 0.239257-0.44509708 0.431541-0.62926638 0.604463-0.00304-0.23194-0.00625-0.475251-0.00889-0.810059-0.0068-0.864485-0.011118-2.0161165-0.014118-3.1694963-0.003-1.1533805-0.00407-2.3082885-0.0018-3.1818194 0.00114-0.4367659 0.00258-0.8024432 0.0053-1.0618288 0.0007087-0.067507 0.00276-0.1054602 0.00358-0.1577066 0.052682-0.00215 0.081825-0.00514 0.1559906-0.0071 0.30507518-0.00806 0.79675338-0.014808 1.52800658-0.019499 1.46250612-0.00938 3.88898552-0.012401 7.74805652-0.012401zm6.3336119 1.3737318c-0.468889 0-0.648492 0.037787-0.964335 0.1931944-0.691898 0.3404408-1.183545 1.0113534-1.286923 1.7655804-0.09163 0.6685074 0.210215 1.431574 0.725045 1.8966907 0.30323 0.2739518 0.525204 0.4018675 0.88626 0.5051757 0.188989 0.054074 0.368491 0.098817 0.538949 0.1027977 0.617903 0.01414 1.321601-0.2578559 1.7212-0.7001641 0.143793-0.1591618 0.29028-0.3957297 0.391693-0.6097674 0.146993-0.3102471 0.18443-0.4971169 0.182587-0.9341503C16.683235 6.795419 16.648662 6.5665312 16.546624 6.3093088 16.355489 5.8274807 15.909787 5.3779272 15.420996 5.1393786 15.137899 5.0012163 14.948058 4.9638892 14.490356 4.9638892Zm-0.0069 1.5394718c0.147784-0.00488 0.281227 0.051776 0.411114 0.1658184 0.195494 0.1716454 0.188136 0.1577629 0.230398 0.4147788 0.05156 0.3135991-0.0621 0.5377904-0.349185 0.6842532C14.51666 7.9004073 14.127343 7.8112334 13.944432 7.5696352 13.732772 7.2901251 13.82929 6.7908571 14.107476 6.6283876 14.244842 6.5481616 14.36847 6.5071591 14.483414 6.503361Zm-3.889748 4.020737c0.111636-0.0017 0.220117 0.01321 0.280471 0.04297l0 0.000078c0.01268 0.01087 0.02785 0.02455 0.04968 0.0443 0.05278 0.04771 0.127436 0.118137 0.221584 0.207389 0.188296 0.178505 0.451816 0.43281 0.769269 0.74275 0.634905 0.619879 1.488912 1.462472 2.405454 2.378857l3.251001 3.251002 0.0124 0.469766c0.0043 0.14734 0.0034 0.262357 0 0.359792-0.111343 0.0039-0.246294 0.0089-0.432485 0.0124-0.430373 0.0082-1.04345 0.01384-1.777981 0.01949-1.46906 0.01132-3.423171 0.01867-5.3763746 0.0195-1.9532032 0.000827-3.9059249-0.0041-5.3727864-0.01419-0.7334308-0.005-1.3456856-0.01171-1.7743939-0.0195-0.017616-0.000322-0.023796-0.0015-0.040791-0.0018 0.2001739-0.209764 0.4405602-0.456768 0.7551508-0.77816 0.7251952-0.740872 1.7007262-1.725141 2.6855354-2.710338 0.9848091-0.985197 1.978359-1.972161 2.7422378-2.720945 0.3819394-0.374394 0.7074275-0.688697 0.9430418-0.912936 0.1178074-0.11212 0.2137774-0.202478 0.2817974-0.264092 0.03401-0.0308 0.06053-0.05453 0.07799-0.06918 0.07275-0.03699 0.187554-0.05543 0.29919-0.05717zm-8.7608256 0.948268c0.084868 0.0025 0.1729907 0.02606 0.2658861 0.07058 0.00528 0.0034 0.017601 0.01105 0.029326 0.02044 0.024004 0.0192 0.058744 0.0498 0.101004 0.08681 0.08452 0.07402 0.1983281 0.177023 0.3297642 0.29958 0.2628724 0.245116 0.5962354 0.566284 0.9235429 0.886339 0.3273073 0.320053 0.6490007 0.638838 0.8862609 0.882751 0.090334 0.09287 0.153619 0.161305 0.2144872 0.226888-0.1090139 0.114096-0.2635777 0.273957-0.4572867 0.47156-0.3948098 0.402747-0.9403724 0.95289-1.5404079 1.552809l-2.09526662 2.096983-0.9341501 0c-0.3827308 0-0.64810068-0.0053-0.81013748-0.01419-0.0009031-0.000049-0.0008218 0.000051-0.00172 0-0.00382-0.103506-0.00751-0.228591-0.010685-0.393487-0.00727-0.377335-0.011496-0.891549-0.012401-1.450011l-0.00351-1.912679 1.26032658-1.265631c0.3689613-0.370546 0.730106-0.723512 1.0121455-0.992647C1.1310808 11.903894 1.2510212 11.790109 1.342834 11.706981 1.4346467 11.623851 1.5200518 11.560196 1.4988247 11.574 1.607262 11.50349 1.7171257 11.468844 1.8328787 11.472371Z" id="path5682"/>
    </g>
  </g>
</svg>
