<svg xmlns="http://www.w3.org/2000/svg" width="500" height="500" viewBox="0 0 500 500.00001"><path style="line-height:normal;text-indent:0;text-align:start;text-decoration-line:none;text-decoration-style:solid;text-decoration-color:#000000;text-transform:none;block-progression:tb;isolation:auto;mix-blend-mode:normal" d="M22.5 0C11.24 0 0 9.125 0 22.02v129.732c0 12.894 11.24 22.02 22.5 22.02h189.152c11.26 0 22.5-9.126 22.5-22.02V22.02c0-12.895-11.24-22.02-22.5-22.02H22.5zm265.848 0c-11.26 0-22.5 9.125-22.5 22.02v219.773c0 12.894 11.24 22.02 22.5 22.02H477.5c11.26 0 22.5-9.126 22.5-22.02V22.02C500 9.125 488.76 0 477.5 0H288.348zM35 35h164.152v103.77H35V35zm265.848 0H465v193.814H300.848V35zM22.5 206.525c-11.26 0-22.5 9.126-22.5 22.02V477.98C0 490.875 11.24 500 22.5 500h189.152c11.26 0 22.5-9.125 22.5-22.02V228.545c0-12.894-11.24-22.02-22.5-22.02H22.5zm12.5 35h164.152V465H35V241.525zm253.348 60.34c-11.26 0-22.5 9.125-22.5 22.02V477.98c0 12.895 11.24 22.02 22.5 22.02H477.5c11.26 0 22.5-9.125 22.5-22.02V323.885c0-12.894-11.24-22.02-22.5-22.02H288.348zm12.5 35H465V465H300.848V336.865z" color="#000" font-family="sans-serif" white-space="normal" overflow="visible" solid-color="#000000"/></svg>