<?xml version="1.0" encoding="UTF-8" standalone="no"?>
<svg
   xmlns:dc="http://purl.org/dc/elements/1.1/"
   xmlns:cc="http://creativecommons.org/ns#"
   xmlns:rdf="http://www.w3.org/1999/02/22-rdf-syntax-ns#"
   xmlns:svg="http://www.w3.org/2000/svg"
   xmlns="http://www.w3.org/2000/svg"
   xmlns:sodipodi="http://sodipodi.sourceforge.net/DTD/sodipodi-0.dtd"
   xmlns:inkscape="http://www.inkscape.org/namespaces/inkscape"
   width="500"
   height="500"
   viewBox="0 0 500 500.00001"
   id="svg4946"
   version="1.1"
   sodipodi:docname="organize.svg"
   inkscape:version="0.91 r13725">
  <defs
     id="defs4948">
    <path
       id="path-1"
       d="M0.140487671 0C0.0628984728 0 0 0.065177679 0 0.14488998L0 17.85511C0 17.9351306 0.0631103513 18 0.140487671 18L21.8595124 18C21.9371015 18 22 17.9348223 22 17.85511L22 0.14488998C22 0.064869454 21.9368896 0 21.8595124 0L0.140487671 0ZM1 1L1 17 21 17 21 1 1 1ZM8.31146755 3.96557279L11.5680228 9.58960333C11.6080958 9.65880899 11.694647 9.6768875 11.7588871 9.63170823L14.5213939 7.68886831C14.6506985 7.59792981 14.8228868 7.62965466 14.9092326 7.7648075L19.9298551 15.6233415C20.0147479 15.75622 19.9533678 15.8639394 19.8034742 15.8639394L2.14722686 15.8639394C1.99212294 15.8639394 1.92473319 15.7514312 1.99797568 15.6102003L7.71352136 4.58911188 8.03502924 3.96915944C8.107704 3.82902321 8.23291348 3.82991093 8.31146755 3.96557279ZM17.5 6C18.3284271 6 19 5.32842715 19 4.5 19 3.67157284 18.3284271 3 17.5 3 16.6715729 3 16 3.67157284 16 4.5 16 5.32842715 16.6715729 6 17.5 6ZM0.140487671 0C0.0628984728 0 0 0.065177679 0 0.14488998L0 17.85511C0 17.9351306 0.0631103513 18 0.140487671 18L21.8595124 18C21.9371015 18 22 17.9348223 22 17.85511L22 0.14488998C22 0.064869454 21.9368896 0 21.8595124 0L0.140487671 0ZM8.31146755 3.96557279L11.5680228 9.58960333C11.6080958 9.65880899 11.694647 9.6768875 11.7588871 9.63170823L14.5213939 7.68886831C14.6506985 7.59792981 14.8228868 7.62965466 14.9092326 7.7648075L19.9298551 15.6233415C20.0147479 15.75622 19.9533678 15.8639394 19.8034742 15.8639394L2.14722686 15.8639394C1.99212294 15.8639394 1.92473319 15.7514312 1.99797568 15.6102003L7.71352136 4.58911188 8.03502924 3.96915944C8.107704 3.82902321 8.23291348 3.82991093 8.31146755 3.96557279ZM17.5 6C18.3284271 6 19 5.32842715 19 4.5 19 3.67157284 18.3284271 3 17.5 3 16.6715729 3 16 3.67157284 16 4.5 16 5.32842715 16.6715729 6 17.5 6Z" />
  </defs>
  <sodipodi:namedview
     id="base"
     pagecolor="#ffffff"
     bordercolor="#666666"
     borderopacity="1.0"
     showgrid="false"
     units="px"
     showguides="true"
     inkscape:zoom="0.472"
     inkscape:cx="-313.55932"
     inkscape:cy="250"
     inkscape:window-width="1920"
     inkscape:window-height="1056"
     inkscape:window-x="1920"
     inkscape:window-y="24"
     inkscape:window-maximized="1"
     inkscape:current-layer="svg4946">
    <sodipodi:guide
       orientation="0,1"
       position="166.17009,250.51783"
       id="guide5801" />
  </sodipodi:namedview>
  <metadata
     id="metadata4951">
    <rdf:RDF>
      <cc:Work
         rdf:about="">
        <dc:format>
          image/svg+xml
        </dc:format>
        <dc:type
           rdf:resource="http://purl.org/dc/dcmitype/StillImage" />
      </cc:Work>
    </rdf:RDF>
  </metadata>
  <path
     inkscape:connector-curvature="0"
     id="path5835"
     d="m 290.69895,28.67742 c -95.454,0.20566 -190.943176,-0.20107 -286.3753804,0.0818 -5.685777,1.78291 -4.23443805,8.84663 -3.94664605,13.32162 -0.31523,104.66714 -0.04967,209.33476 -0.139265,314.00216 C 125.84159,355.6844 251.4705,356.9222 377.0581,355.2527 c 4.95456,-0.3048 9.43107,-4.7102 8.19321,-9.9007 0.72014,-103.0908 0.5475,-206.2233 0.0813,-309.2914 -1.01217,-5.12691 -6.7032,-7.55007 -11.45515,-6.53095 -27.7186,-0.77736 -55.45068,-0.87977 -83.17849,-0.85226 z M 79.959061,69.58415 c 87.864039,0.0277 175.728009,0.15123 263.591879,0.31693 0.15277,81.80404 0.30554,163.60808 0.4583,245.41205 -100.83586,-0.1295 -201.67409,0.3666 -302.507743,-0.5178 C 40.64743,233.19582 41.12572,151.59097 41.001546,69.98887 53.984687,69.66661 66.972433,69.59653 79.959061,69.58415 Z M 413.49056,143.879 c -3.85041,0.01 -7.70068,0.0428 -11.55096,0.0743 0.2503,13.37769 0.5019,26.75535 0.7544,40.133 18.69459,0.31811 37.38921,0.63475 56.08382,0.95229 0.15276,81.64189 0.30553,163.28369 0.45829,244.92559 -90.69765,0.9874 -181.40222,0.042 -272.10288,0.1666 -10.12841,-0.1346 -20.77987,0.2001 -30.5849,-0.2247 -0.72052,-17.411 1.5273,-35.264 -2.18134,-52.3713 -4.55922,-6.8855 -13.83269,-4.5659 -20.77476,-5.0665 -6.19766,-0.1534 -14.95106,-0.054 -17.60692,6.7761 -2.69044,8.7631 -0.48145,17.9676 -1.34659,26.8709 0.01,19.8756 -0.98923,39.9102 1.22756,59.67572 2.85712,6.2195 10.5793,4.5611 16.04159,4.8954 122.69413,1.2114 245.39498,0.3204 368.09213,0.619 0,-109.12882 0,-218.25752 0,-327.38632 -28.83639,-0.0679 -57.67301,-0.0828 -86.50944,-0.0401 z" />
</svg>
