<svg xmlns="http://www.w3.org/2000/svg" width="500" height="500" viewBox="0 0 500.00001 500.00001"><path d="M250 0C112.24 0 0 112.24 0 250s112.24 250 250 250c34.33 0 62.735-28.405 62.735-62.735 0-16.003-6.18-31.14-16.454-42.253l.35.388c-1.946-2.197-2.997-4.588-2.997-8.07 0-7.12 5.055-12.174 12.173-12.174h44.07c82.59 0 150.123-67.533 150.123-150.125C500 99.303 386.233 0 250 0zm0 50.562c111.955 0 199.44 79.474 199.44 174.47 0 55.234-44.33 99.562-99.565 99.562h-44.068c-34.33 0-62.735 28.405-62.735 62.735 0 15.742 5.944 30.58 15.73 41.616l.16.18.157.182c1.962 2.12 3.018 4.458 3.018 7.93 0 7.12-5.054 12.174-12.173 12.174-110.428 0-199.438-89.01-199.438-199.438 0-110.43 89.01-199.44 199.438-199.44zm-62.6 23.01a38.294 38.294 0 0 0-38.295 38.294A38.294 38.294 0 0 0 187.4 150.16a38.294 38.294 0 0 0 38.294-38.294A38.294 38.294 0 0 0 187.4 73.57zm125.404 1.682a38.294 38.294 0 0 0-38.295 38.294 38.294 38.294 0 0 0 38.294 38.295 38.294 38.294 0 0 0 38.294-38.295 38.294 38.294 0 0 0-38.294-38.294zm74.065 98.47a38.294 38.294 0 0 0-38.296 38.295 38.294 38.294 0 0 0 38.295 38.293 38.294 38.294 0 0 0 38.293-38.294 38.294 38.294 0 0 0-38.294-38.296zm-273.533.845a38.294 38.294 0 0 0-38.295 38.293 38.294 38.294 0 0 0 38.295 38.294 38.294 38.294 0 0 0 38.294-38.294 38.294 38.294 0 0 0-38.293-38.294z" style="line-height:normal;text-indent:0;text-align:start;text-decoration-line:none;text-decoration-style:solid;text-decoration-color:#000000;text-transform:none;block-progression:tb;isolation:auto;mix-blend-mode:normal" color="#000" font-family="sans-serif" white-space="normal" overflow="visible" solid-color="#000000"/></svg>