<svg xmlns="http://www.w3.org/2000/svg" height="499.172" version="1.2" viewBox="0 0 500 499.17151" width="500"><path d="M325.318.012c-21.828-.283-42.138 15.34-48.74 35.798-15.498 31.788-36.62 62.656-67.738 80.85-46.02 26.248-99.73 35.59-152.188 35.65-11.824-.026-24.336 1.564-34 9.065-18.02 12.488-27.52 36.96-20.133 58.034 4.15 13.85 14.838 24.125 25.197 33.582l86.5 86.5C84.488 381.137 30.993 456.543 1.26 498.187c41.623-29.727 117.01-83.215 158.632-112.942 37.542 36.62 68.373 70.025 106.956 105.56 23.195 15.987 59.377 8.335 73.035-16.723 7.6-12.733 8.225-27.804 7.5-42.23 1.366-50.12 11.25-101.404 37.675-144.67 20.658-31.714 53.59-52.978 87.635-68.023 20.972-10.427 31.76-36.413 25.57-58.77-2.664-11.118-9.64-20.31-17.897-27.873-37.25-36.595-73.2-74.495-110.7-110.84-7.227-6.593-13.718-14.767-23.268-17.904-6.682-2.644-13.898-3.908-21.08-3.758zm-.26 36.837c45.35 46.82 90.704 93.64 136.056 140.46-40.437 18.15-79.907 42.182-106.303 78.613-30.216 43.44-43.98 96.178-48.765 148.346-1.852 21.542-2.097 43.256-1.726 64.933-91.546-91.52-183.09-183.044-274.634-274.564 60.078 2.462 121.696-4.117 176.98-28.967 38.773-15.762 70.437-46.032 91.712-81.66 9.637-15.522 17.813-31.905 25.36-48.525z"/></svg>