<svg xmlns:dc="http://purl.org/dc/elements/1.1/" xmlns:cc="http://creativecommons.org/ns#" xmlns:rdf="http://www.w3.org/1999/02/22-rdf-syntax-ns#" xmlns:svg="http://www.w3.org/2000/svg" xmlns="http://www.w3.org/2000/svg" xmlns:sodipodi="http://sodipodi.sourceforge.net/DTD/sodipodi-0.dtd" width="500" height="500" viewBox="0 0 500.00001 500.00001" id="svg2" version="1.1" sodipodi:docname="puzzle.svg">
  <defs id="defs4"/>
  <sodipodi:namedview id="base" pagecolor="#ffffff" bordercolor="#666666" borderopacity="1.0" showgrid="false" units="px"/>
  <metadata id="metadata7">
    <rdf:RDF>
      <cc:Work rdf:about="">
        <dc:format>


          image/svg+xml


        </dc:format>
        <dc:type rdf:resource="http://purl.org/dc/dcmitype/StillImage"/>
      </cc:Work>
    </rdf:RDF>
  </metadata>
  <path d="m313.00071 0.07265291c-31.64578 0.07577-61.11326 27.27216509-62.24805 59.38916909-1.40205 21.038276 9.29575 39.583338 18.06427 57.826918 1.5338 3.68052 2.64692 7.52069 3.44916 11.42372-40.85552 1.90898-82.04912-1.02507-122.64856 2.96119-13.78819 3.95444-20.95425 19.4735-19.27252 32.95338-1.43264 36.08297-0.42543 72.33735-1.58176 108.47957-23.07771-4.45696-41.546405-24.05891-66.029728-22.42439-33.294379 0.4732-63.58533427 30.43048-62.57663497 64.16642-0.1243935 29.03621 21.56300697 56.89636 50.51087897 62.28153 18.188881 4.18293 37.144279-0.86917 52.793934-10.39752 7.96625-4.06242 16.13294-8.01268 24.97493-9.73863 2.30083 40.7608-0.95742 81.89239 3.48064 122.37111 1.53095 6.42038 4.43348 13.14066 11.20532 15.39036 15.83386 8.09965 34.12576 3.51812 51.11947 4.95704 93.46749-0.075 186.97097 1.08933 280.41429-0.79565 13.88212-1.76095 24.95653-14.77116 24.19917-28.79933 1.42029-26.92215 0.25463-54.22042 0.7352-81.2902-0.28047-17.96858 0.56078-36.30913-0.42235-54.04328-8.98801-12.08272-24.6565-18.47644-39.50883-15.62252-21.59465 2.13722-39.44841 16.03136-59.8122 21.91284-18.61488 2.03173-34.98701-19.97971-26.2356-37.01395 6.0401-14.13711 25.61256-20.47223 38.39944-11.46796 20.62083 10.50738 44.10447 23.18939 67.93204 16.51085 10.96453-3.67601 22.03885-13.9856 19.56946-26.57205-0.4685-42.70503 1.36983-85.49479-0.51332-128.14348-2.39716-12.94817-13.93246-24.44822-27.55418-23.51064-32.44787-2.49499-65.05612-0.6249-97.58354-1.66757-5.88376 0.0675-11.80353-0.003-17.60584-1.09525 4.98002-23.13427 24.24601-42.29824 22.09582-66.85218-1.2578-33.389265-31.50267-62.9226296-65.35091-61.18949709zm2.41027 37.71637309c18.46029 0.379024 32.46002 24.189608 21.37373 39.807899-10.92763 21.418647-23.48631 45.689915-16.71845 70.114395 4.69648 13.24789 19.57143 20.56879 33.10344 18.6907 35.98147 1.15377 71.99423 0.33469 107.97535 1.5143 0.9731 34.90772 0.9996 69.83504 0.56863 104.75152-22.43217-4.61548-40.57724-23.21255-64.35139-21.86365-30.16552-0.3939-58.57388 23.62573-62.84028 53.41955-4.67609 26.51674 9.43428 56.05986 34.41675 67.57623 19.33847 9.72931 42.84551 8.56866 61.33903-1.91247 10.22511-5.01235 20.34573-10.73215 31.64641-12.94269-0.14317 34.92023 0.38116 69.84568-0.3935 104.76136-97.27759 0.9614-194.64796 0.50525-291.87345 0.17512-4.28566-1.79016-0.88304-7.35703-2.09988-10.71403-1.16027-36.45374 0.81413-73.04358-1.41224-109.41012-3.47509-15.51121-20.10835-25.25368-35.34347-22.86515-22.60603 0.86609-42.002393 14.73539-62.964259 21.92661-16.407413 2.96109-33.287952-12.94749-29.826412-29.64933 2.364498-16.41168 22.813902-28.83658 37.702599-19.5675 21.25161 10.4263 44.559602 23.57963 69.120772 18.27087 12.70762-3.0958 22.60445-15.42922 21.33086-28.73927 1.52626-37.7206 0.29858-75.61641 1.85895-113.3902 41.22595-1.66661 82.81858 1.36047 123.74032-2.99385 11.91563-3.37878 18.83266-15.71425 18.52687-27.61762 1.49236-22.59942-10.92504-43.427704-20.39388-63.284966-5.38475-13.975044 2.87652-32.150883 18.16659-34.999155 2.39282-0.651169 4.86399-1.049555 7.34691-1.058553z" id="path20322"/>
</svg>
