<svg xmlns="http://www.w3.org/2000/svg" xmlns:xlink="http://www.w3.org/1999/xlink" width="500" height="500" viewBox="0 0 500.00001 500.00001"><use xlink:href="#symbol16714" transform="matrix(.48876 0 0 .48876 266.597 18.21)" width="100%" height="100%"/><path d="M33.826.582c-1.034-.078-2.21.368-3.133 1.29L1.598 30.97c-1.477 1.476-1.732 3.598-.573 4.757l21.746 21.73C8.16 66.502-1.51 83.76.27 101.223.255 203.566-.336 305.927.28 408.258c2.597 24.247 26.213 43.21 50.5 40.842 121.265-.177 242.544.277 363.802-.14l50.25 50.212c1.16 1.16 3.28.903 4.758-.574l29.096-29.096c1.477-1.477 1.733-3.6.574-4.758L35.453 1.3C35.018.863 34.447.63 33.826.58zm92.026 50.27l93.54 93.466h237.743v237.56l38.894 38.864c3.09-6.973 4.53-14.68 3.77-22.46-.27-85.552.574-171.134-.44-256.667-2.937-23.786-26.56-42.382-50.378-39.967H248.2L197.4 50.852h-71.55zM42.63 144.318H109.7L372.02 406.432H42.63V144.318z"/></svg>