<svg xmlns:dc="http://purl.org/dc/elements/1.1/" xmlns:cc="http://creativecommons.org/ns#" xmlns:rdf="http://www.w3.org/1999/02/22-rdf-syntax-ns#" xmlns:svg="http://www.w3.org/2000/svg" xmlns="http://www.w3.org/2000/svg" xmlns:sodipodi="http://sodipodi.sourceforge.net/DTD/sodipodi-0.dtd" width="500" height="500" viewBox="0 0 500.00001 500.00001" id="svg2" version="1.1" sodipodi:docname="user.svg">
  <defs id="defs4"/>
  <sodipodi:namedview id="base" pagecolor="#ffffff" bordercolor="#666666" borderopacity="1.0" showgrid="false" units="px"/>
  <metadata id="metadata7">
    <rdf:RDF>
      <cc:Work rdf:about="">
        <dc:format>
          image/svg+xml
        </dc:format>
        <dc:type rdf:resource="http://purl.org/dc/dcmitype/StillImage"/>
      </cc:Work>
    </rdf:RDF>
  </metadata>
  <g id="layer1" transform="translate(0,-552.36216)">
    <path d="m246.98504 553.09534c-66.78301 0.80186-129.73641 53.75469-139.48732 120.26494-3.94517 27.51911-1.57685 55.43911-2.75057 83.07676 0.18637 31.93939 7.23559 64.86846 26.38116 91.03913 28.25985 41.2341 78.75186 66.56102 128.8329 62.52062 47.51271-2.8266 92.65669-30.58145 116.34317-71.91822 15.24758-25.79118 21.49277-56.20089 19.98435-85.97243-0.10253-28.64372 0.7058-57.56109-3.72367-85.93119-13.59326-61.99523-71.86598-111.23432-135.52804-112.97951-3.34871-0.10424-6.70168-0.10957-10.05198-0.1001zm5.47784 42.08288c47.85555 0.046 93.12932 38.70134 100.3093 86.1658 2.365 22.65888 0.44593 45.83593 1.17993 68.74511 0.57727 20.6782-0.46138 42.34281-10.70764 60.89494-17.79698 35.84478-57.96103 59.85257-97.74274 57.02092-41.40224-1.43792-80.35819-31.05154-92.82583-70.78064-7.32238-21.29969-5.03536-44.23003-6.15766-66.40317 0.097-22.28446 0.20369-44.85291 6.53499-66.40325 14.25415-40.84453 55.91545-70.60997 99.40965-69.23971zM122.4911 859.98434c-30.979635 7.4646-63.301753 13.30468-91.297903 29.33162-17.3186 11.0876-32.11774037 30.03513-30.50961037 51.59983 0.12954 21.6427-2.97393003 43.9847 3.06465997 65.11511 9.1994904 27.5728 37.9945204 47.8109 67.2932744 44.7204 101.576969 1.621 203.171339 0.457 304.755379 0.7172 24.57904-0.2851 49.3022 0.076 73.76217-2.1874 31.84418-8.1678 53.25119-41.9002 50.00688-74.13581 0.40853-22.1585 2.83878-46.8449-10.4724-66.1076-14.12234-20.95398-39.03435-30.84749-62.73582-36.3913-16.77233-4.63141-33.53451-11.20391-51.09984-11.50774-15.81928 2.31614-22.23166 26.64889-8.39242 35.54553 14.4416 8.85573 31.68278 11.14461 47.61035 16.18011 13.82006 4.0284 29.10882 7.9967 39.2618 18.9045 5.35455 9.5161 1.75305 20.8897 2.92028 31.2422-0.10665 11.916 1.1828 24.2266-3.74186 35.3023-5.91236 9.78921-18.32856 12.43061-28.92455 10.94261-121.119 0-242.23801 0-363.357013 0-12.27499-4.3183-20.98502-17.78691-17.90009-30.78151 0.49941-15.8215-2.9747-32.5176 3.30306-47.241 11.4435-13.1661 29.818413-14.6504 45.345043-20.2942 16.15763-4.5374 33.9686-6.99877 47.43617-17.75882 10.38316-12.2959-0.22569-33.94383-16.32756-33.19603z" id="path20103"/>
  </g>
</svg>
