<svg xmlns:dc="http://purl.org/dc/elements/1.1/" xmlns:cc="http://creativecommons.org/ns#" xmlns:rdf="http://www.w3.org/1999/02/22-rdf-syntax-ns#" xmlns:svg="http://www.w3.org/2000/svg" xmlns="http://www.w3.org/2000/svg" xmlns:sodipodi="http://sodipodi.sourceforge.net/DTD/sodipodi-0.dtd" width="500" height="500" viewBox="0 0 500 500.00001" id="svg4946" version="1.1" sodipodi:docname="uxbox-icon.svg">
  <defs id="defs4948">
    <path id="path-1" d="M0.140487671 0C0.0628984728 0 0 0.065177679 0 0.14488998L0 17.85511C0 17.9351306 0.0631103513 18 0.140487671 18L21.8595124 18C21.9371015 18 22 17.9348223 22 17.85511L22 0.14488998C22 0.064869454 21.9368896 0 21.8595124 0L0.140487671 0ZM1 1L1 17 21 17 21 1 1 1ZM8.31146755 3.96557279L11.5680228 9.58960333C11.6080958 9.65880899 11.694647 9.6768875 11.7588871 9.63170823L14.5213939 7.68886831C14.6506985 7.59792981 14.8228868 7.62965466 14.9092326 7.7648075L19.9298551 15.6233415C20.0147479 15.75622 19.9533678 15.8639394 19.8034742 15.8639394L2.14722686 15.8639394C1.99212294 15.8639394 1.92473319 15.7514312 1.99797568 15.6102003L7.71352136 4.58911188 8.03502924 3.96915944C8.107704 3.82902321 8.23291348 3.82991093 8.31146755 3.96557279ZM17.5 6C18.3284271 6 19 5.32842715 19 4.5 19 3.67157284 18.3284271 3 17.5 3 16.6715729 3 16 3.67157284 16 4.5 16 5.32842715 16.6715729 6 17.5 6ZM0.140487671 0C0.0628984728 0 0 0.065177679 0 0.14488998L0 17.85511C0 17.9351306 0.0631103513 18 0.140487671 18L21.8595124 18C21.9371015 18 22 17.9348223 22 17.85511L22 0.14488998C22 0.064869454 21.9368896 0 21.8595124 0L0.140487671 0ZM8.31146755 3.96557279L11.5680228 9.58960333C11.6080958 9.65880899 11.694647 9.6768875 11.7588871 9.63170823L14.5213939 7.68886831C14.6506985 7.59792981 14.8228868 7.62965466 14.9092326 7.7648075L19.9298551 15.6233415C20.0147479 15.75622 19.9533678 15.8639394 19.8034742 15.8639394L2.14722686 15.8639394C1.99212294 15.8639394 1.92473319 15.7514312 1.99797568 15.6102003L7.71352136 4.58911188 8.03502924 3.96915944C8.107704 3.82902321 8.23291348 3.82991093 8.31146755 3.96557279ZM17.5 6C18.3284271 6 19 5.32842715 19 4.5 19 3.67157284 18.3284271 3 17.5 3 16.6715729 3 16 3.67157284 16 4.5 16 5.32842715 16.6715729 6 17.5 6Z"/>
  </defs>
  <sodipodi:namedview id="base" pagecolor="#ffffff" bordercolor="#666666" borderopacity="1.0" showgrid="false" units="px" showguides="true">
    <sodipodi:guide orientation="0,1" position="166.17009,250.51783" id="guide5801"/>
  </sodipodi:namedview>
  <metadata id="metadata4951">
    <rdf:RDF>
      <cc:Work rdf:about="">
        <dc:format>
          image/svg+xml
        </dc:format>
        <dc:type rdf:resource="http://purl.org/dc/dcmitype/StillImage"/>
      </cc:Work>
    </rdf:RDF>
  </metadata>
  <g id="layer1" transform="translate(0,-552.3622)">
    <path d="m159.4607 552.36219-52.57675 74.05348 0 41.86098-45.753774 21.76184-0.412151-0.19478 0 17.20283 0 255.89707 178.379885 84.27239 10.90209 5.1462 10.89926-5.1462 178.38271-84.27239 0-273.0999-0.33593 0.15808-45.76789-21.76749 0-41.81863-1.60059-2.25268-50.97899-71.8008-52.57958 74.05348 0 0.0734-38.25894-53.88377-37.96254 53.4688-1.35782-1.91111-50.97899-71.8008zm9.3015 43.01555 20.33627 28.64128-59.27553 0 20.09914-28.30535 18.84012-0.33593zm181.13787 0 20.33626 28.64128-59.27553 0 20.09632-28.30535 18.84295-0.33593zm-90.83852 20.24593 20.33626 28.63846-59.2727 0 20.09631-28.30535 18.84013-0.33311zm-134.85903 22.82891 28.11339 0 0 94.66356-28.11339-13.2818 0-81.38176zm42.54695 0 27.97224 0-0.003 114.69495-27.97224-13.21405 0.003-101.4809zm138.58809 0 28.11622 0-0.003 101.38492-28.11057 13.27898-0.003-114.6639zm42.54695 0 27.97224 0 0 81.3507-27.97224 13.21406 0-94.56476zm-133.38265 20.24311 28.11339 0 0 117.07749-28.11339-13.2818 0-103.79569zm42.54695 0 27.97225 0-0.003 104.02152-27.97224 13.21688 0.003-117.2384zm136.12651 31.11133 24.75131 10.12014-24.75131 11.6925 0-21.81264zm-286.29137 0.0367 0 21.80982-24.748483-11.6925 24.748483-10.11732zm-24.367392 34.4113 156.581352 73.96879 0 224.87888-156.581352-73.96877 0-224.8789zm334.964042 0 0 224.8789-156.58134 73.96877 0-224.87888 156.58134-73.96879z" id="rect2990"/>
  </g>
</svg>
