<svg width="534" xmlns="http://www.w3.org/2000/svg" height="462" id="screenshot-df362402-8d3c-809c-8007-fa8b1bb8bc0c" viewBox="0 0 534 462" xmlns:xlink="http://www.w3.org/1999/xlink" fill="none" version="1.1"><g id="shape-df362402-8d3c-809c-8007-fa8b1bb8bc0c"><defs><clipPath id="frame-clip-df362402-8d3c-809c-8007-fa8b1bb8bc0c-render-147" class="frame-clip frame-clip-def"><rect rx="0" ry="0" x="0" y="0" width="534" height="462.00000000000045" transform="matrix(1.000000, 0.000000, 0.000000, 1.000000, 0.000000, 0.000000)"/></clipPath></defs><g class="frame-container-wrapper"><g class="frame-container-blur"><g class="frame-container-shadows"><g clip-path="url(#frame-clip-df362402-8d3c-809c-8007-fa8b1bb8bc0c-render-147)" fill="none"><g class="fills" id="fills-df362402-8d3c-809c-8007-fa8b1bb8bc0c"><rect rx="0" ry="0" x="0" y="0" width="534" height="462.00000000000045" transform="matrix(1.000000, 0.000000, 0.000000, 1.000000, 0.000000, 0.000000)" class="frame-background"/></g><g class="frame-children"><g id="shape-df362402-8d3c-809c-8007-fa8b0d5dc983" rx="0" ry="0"><g id="shape-df362402-8d3c-809c-8007-fa8b0d5dc986" rx="0" ry="0"><g id="shape-df362402-8d3c-809c-8007-fa8b0d5dc9b6" rx="0" ry="0"><g id="shape-df362402-8d3c-809c-8007-fa8b0d5dc9bc" rx="0" ry="0" style="fill: rgb(0, 0, 0);"><g id="shape-df362402-8d3c-809c-8007-fa8b0d5dc9bd" rx="0" ry="0" style="fill: rgb(0, 0, 0);"><g id="shape-df362402-8d3c-809c-8007-fa8b0d5dc9c0"><g class="fills" id="fills-df362402-8d3c-809c-8007-fa8b0d5dc9c0"><path d="M26.680419921875,393.1353759765625C26.6796875,392.6231689453125,27.0919189453125,392.205810546875,27.6015625,392.205078125L56.8516845703125,392.1531982421875C57.363037109375,392.1524658203125,57.776611328125,392.568359375,57.7777099609375,393.0804443359375L57.8250732421875,420.1815185546875C57.8260498046875,420.6953125,57.413818359375,421.111083984375,56.9024658203125,421.1121826171875L27.65234375,421.16357421875C27.1427001953125,421.164794921875,26.728759765625,420.750244140625,26.72802734375,420.2364501953125L26.680419921875,393.1353759765625Z" style="fill: rgb(242, 58, 229); fill-opacity: 1;"/></g></g><g id="shape-df362402-8d3c-809c-8007-fa8b0d5dc9c1"><g class="fills" id="fills-df362402-8d3c-809c-8007-fa8b0d5dc9c1"><path d="M218.712890625,399.4088134765625C218.7119140625,398.8963623046875,219.1258544921875,398.4791259765625,219.6356201171875,398.4781494140625L248.885498046875,398.4267578125C249.3953857421875,398.425537109375,249.810546875,398.8414306640625,249.8115234375,399.35400390625L249.8590087890625,426.45654296875C249.85986328125,426.9688720703125,249.446044921875,427.384521484375,248.9361572265625,427.38525390625L219.6861572265625,427.4371337890625C219.1766357421875,427.4378662109375,218.76123046875,427.023681640625,218.7603759765625,426.511474609375L218.712890625,399.4088134765625Z" stroke-miterlimit="10" style="fill-rule: nonzero; clip-rule: evenodd; stroke-linejoin: round; fill: rgb(255, 154, 232); fill-opacity: 1;"/></g></g><g id="shape-df362402-8d3c-809c-8007-fa8b0d5dc9c2"><g class="fills" id="fills-df362402-8d3c-809c-8007-fa8b0d5dc9c2"><path d="M76.5166015625,399.65966796875C76.515625,399.1475830078125,76.9281005859375,398.730224609375,77.4390869140625,398.7293701171875L106.6893310546875,398.677734375C107.1990966796875,398.6767578125,107.61279296875,399.0926513671875,107.613525390625,399.604736328125L107.6610107421875,426.70751953125C107.6619873046875,427.2198486328125,107.249755859375,427.635498046875,106.7401123046875,427.636474609375L77.4898681640625,427.68798828125C76.9783935546875,427.6890869140625,76.56494140625,427.2747802734375,76.56396484375,426.762451171875L76.5166015625,399.65966796875Z" stroke-miterlimit="10" fill="none" style="fill-rule: nonzero; clip-rule: evenodd; stroke-linejoin: round; fill: none;"/></g><g stroke-miterlimit="10" fill="none" id="strokes-752ba781-055a-8081-8008-28cd7e96555a-df362402-8d3c-809c-8007-fa8b0d5dc9c2" class="strokes" style="fill-rule: nonzero; clip-rule: evenodd; stroke-linejoin: round;"><g class="stroke-shape"><path d="M76.5166015625,399.65966796875C76.515625,399.1475830078125,76.9281005859375,398.730224609375,77.4390869140625,398.7293701171875L106.6893310546875,398.677734375C107.1990966796875,398.6767578125,107.61279296875,399.0926513671875,107.613525390625,399.604736328125L107.6610107421875,426.70751953125C107.6619873046875,427.2198486328125,107.249755859375,427.635498046875,106.7401123046875,427.636474609375L77.4898681640625,427.68798828125C76.9783935546875,427.6890869140625,76.56494140625,427.2747802734375,76.56396484375,426.762451171875L76.5166015625,399.65966796875Z" style="fill: none; stroke-width: 4.55544; stroke: rgb(29, 227, 221); stroke-opacity: 1;"/></g></g></g><g id="shape-df362402-8d3c-809c-8007-fa8b0d5dc9c3"><g class="fills" id="fills-df362402-8d3c-809c-8007-fa8b0d5dc9c3"><path d="M112.8758544921875,399.595458984375C112.875,399.0831298828125,113.287109375,398.666015625,113.798583984375,398.6650390625L143.048583984375,398.6134033203125C143.5584716796875,398.6124267578125,143.9720458984375,399.0283203125,143.9727783203125,399.5406494140625L144.0203857421875,426.6434326171875C144.021240234375,427.15576171875,143.60888671875,427.5714111328125,143.0992431640625,427.572265625L113.849365234375,427.6240234375C113.337890625,427.624755859375,112.9241943359375,427.2105712890625,112.9234619140625,426.6982421875L112.8758544921875,399.595458984375Z" stroke-miterlimit="10" style="fill-rule: nonzero; clip-rule: evenodd; stroke-linejoin: round; fill: rgb(47, 34, 108); fill-opacity: 1;"/></g></g><g id="shape-df362402-8d3c-809c-8007-fa8b0d5dc9c4"><g class="fills" id="fills-df362402-8d3c-809c-8007-fa8b0d5dc9c4"><path d="M151.135498046875,399.528076171875C151.134521484375,399.0157470703125,151.546875,398.598388671875,152.05810546875,398.59765625L181.3082275390625,398.5457763671875C181.81787109375,398.5450439453125,182.2315673828125,398.9609375,182.2327880859375,399.4730224609375L182.2799072265625,426.575927734375C182.281005859375,427.088134765625,181.86865234375,427.5037841796875,181.35888671875,427.5047607421875L152.10888671875,427.556396484375C151.597412109375,427.557373046875,151.1837158203125,427.1429443359375,151.1829833984375,426.630859375L151.135498046875,399.528076171875Z" stroke-miterlimit="10" style="fill-rule: nonzero; clip-rule: evenodd; stroke-linejoin: round; fill: rgb(20, 206, 202); fill-opacity: 1;"/></g></g><g id="shape-df362402-8d3c-809c-8007-fa8b0d5dc9c5"><g class="fills" id="fills-df362402-8d3c-809c-8007-fa8b0d5dc9c5"><path d="M112.5242919921875,367.4859619140625C112.5235595703125,366.97216796875,112.935791015625,366.5562744140625,113.4454345703125,366.5552978515625L142.6956787109375,366.503662109375C143.2069091796875,366.5029296875,143.6207275390625,366.917236328125,143.62158203125,367.4310302734375L143.669189453125,394.5323486328125C143.669921875,395.04443359375,143.2576904296875,395.4617919921875,142.7462158203125,395.462646484375L113.4962158203125,395.5142822265625C112.9864501953125,395.51513671875,112.57275390625,395.099365234375,112.57177734375,394.5870361328125L112.5242919921875,367.4859619140625Z" style="fill: rgb(255, 30, 189); fill-opacity: 1;"/></g></g><g id="shape-df362402-8d3c-809c-8007-fa8b0d5dc9c6"><g class="fills" id="fills-df362402-8d3c-809c-8007-fa8b0d5dc9c6"><path d="M74.96533203125,358.56005859375C74.96435546875,358.0479736328125,75.376708984375,357.632080078125,75.88818359375,357.6312255859375L105.1380615234375,357.57958984375C105.64794921875,357.5787353515625,106.0616455078125,357.9931640625,106.0623779296875,358.5052490234375L106.10986328125,385.6077880859375C106.1107177734375,386.1201171875,105.698486328125,386.5360107421875,105.188720703125,386.5367431640625L75.9388427734375,386.58837890625C75.42724609375,386.589111328125,75.0137939453125,386.175048828125,75.0125732421875,385.6627197265625L74.96533203125,358.56005859375Z" stroke-miterlimit="10" style="fill-rule: nonzero; clip-rule: evenodd; stroke-linejoin: round; fill: rgb(163, 120, 243); fill-opacity: 1;"/></g></g></g><g id="shape-df362402-8d3c-809c-8007-fa8b0d5dc9be"><g class="fills" id="fills-df362402-8d3c-809c-8007-fa8b0d5dc9be"><path d="M195.9359130859375,270.5345458984375C195.9359130859375,270.5345458984375,110.7431640625,356.6165771484375,126.3074951171875,371.5499267578125C141.8701171875,386.4833984375,229.990234375,306.4052734375,215.825927734375,300.698486328125C201.6619873046875,294.9912109375,158.3702392578125,360.0289306640625,191.86083984375,356.149169921875C225.351806640625,352.2691650390625,259.2568359375,314.951904296875,247.4521484375,309.718994140625C235.6474609375,304.4842529296875,203.526611328125,341.822509765625,221.582763671875,355.618408203125C239.6407470703125,369.414306640625,251.747314453125,337.8922119140625,275.322265625,328.7757568359375" stroke-miterlimit="10" fill="none" style="fill-rule: nonzero; clip-rule: evenodd; stroke-linejoin: round; fill: none;"/></g><g stroke-miterlimit="10" fill="none" id="strokes-752ba781-055a-8081-8008-28cd7e9753a9-df362402-8d3c-809c-8007-fa8b0d5dc9be" class="strokes" style="fill-rule: nonzero; clip-rule: evenodd; stroke-linejoin: round;"><g class="stroke-shape"><path d="M195.9359130859375,270.5345458984375C195.9359130859375,270.5345458984375,110.7431640625,356.6165771484375,126.3074951171875,371.5499267578125C141.8701171875,386.4833984375,229.990234375,306.4052734375,215.825927734375,300.698486328125C201.6619873046875,294.9912109375,158.3702392578125,360.0289306640625,191.86083984375,356.149169921875C225.351806640625,352.2691650390625,259.2568359375,314.951904296875,247.4521484375,309.718994140625C235.6474609375,304.4842529296875,203.526611328125,341.822509765625,221.582763671875,355.618408203125C239.6407470703125,369.414306640625,251.747314453125,337.8922119140625,275.322265625,328.7757568359375" style="fill: none; stroke-width: 5.15329; stroke: rgb(255, 154, 232); stroke-opacity: 1; stroke-linecap: round;"/></g></g></g><g id="shape-df362402-8d3c-809c-8007-fa8b0d5dc9bf"><g class="fills" id="fills-df362402-8d3c-809c-8007-fa8b0d5dc9bf"><path d="M125.219970703125,347.942626953125C128.56201171875,339.4874267578125,134.10302734375,333.7763671875,137.597900390625,335.187255859375C141.09130859375,336.5960693359375,141.215087890625,344.594482421875,137.8729248046875,353.0491943359375C134.5306396484375,361.505859375,128.9881591796875,367.2169189453125,125.4947509765625,365.806396484375C122.0013427734375,364.395751953125,121.8775634765625,356.399169921875,125.219970703125,347.942626953125Z" stroke-miterlimit="10" style="fill-rule: nonzero; clip-rule: evenodd; stroke-linejoin: round; fill: rgb(17, 231, 228); fill-opacity: 1;"/></g></g></g></g><g id="shape-df362402-8d3c-809c-8007-fa8b0d5dc9b7" style="display: none;"><g class="fills" id="fills-df362402-8d3c-809c-8007-fa8b0d5dc9b7"><path d="M181.7230224609375,367.3636474609375C181.7220458984375,366.849853515625,182.134521484375,366.4342041015625,182.6458740234375,366.433349609375L211.895751953125,366.381591796875C212.405517578125,366.380859375,212.8192138671875,366.794921875,212.8201904296875,367.308837890625L212.867431640625,394.409912109375C212.86865234375,394.922119140625,212.4561767578125,395.33935546875,211.946533203125,395.3404541015625L182.6966552734375,395.3919677734375C182.1851806640625,395.39306640625,181.7713623046875,394.97705078125,181.7703857421875,394.4647216796875L181.7230224609375,367.3636474609375Z"/></g><g id="strokes-752ba781-055a-8081-8008-28cd7e97fb3d-df362402-8d3c-809c-8007-fa8b0d5dc9b7" class="strokes"><g class="stroke-shape"><path d="M181.7230224609375,367.3636474609375C181.7220458984375,366.849853515625,182.134521484375,366.4342041015625,182.6458740234375,366.433349609375L211.895751953125,366.381591796875C212.405517578125,366.380859375,212.8192138671875,366.794921875,212.8201904296875,367.308837890625L212.867431640625,394.409912109375C212.86865234375,394.922119140625,212.4561767578125,395.33935546875,211.946533203125,395.3404541015625L182.6966552734375,395.3919677734375C182.1851806640625,395.39306640625,181.7713623046875,394.97705078125,181.7703857421875,394.4647216796875L181.7230224609375,367.3636474609375Z" style="fill: none; stroke-width: 3.21939; stroke: rgb(105, 17, 212); stroke-opacity: 1;"/></g></g></g><g id="shape-df362402-8d3c-809c-8007-fa8b0d5dc9b8"><g class="fills" id="fills-df362402-8d3c-809c-8007-fa8b0d5dc9b8"><path d="M274.1158447265625,61.52490234375C251.923095703125,55.6944580078125,181.3360595703125,66.5269775390625,212.70703125,132.6268310546875C244.0780029296875,198.7265625,235.591796875,230.469970703125,282.6485595703125,243.2955322265625C329.705322265625,256.1207275390625,364.867919921875,185.8319091796875,354.7841796875,154.2620849609375C344.7008056640625,122.6920166015625,313.5841064453125,71.8941650390625,274.1158447265625,61.52490234375" style="fill: rgb(255, 154, 232); fill-opacity: 1;"/></g></g><g id="shape-df362402-8d3c-809c-8007-fa8b0d5dc9b9"><g class="fills" id="fills-df362402-8d3c-809c-8007-fa8b0d5dc9b9"><path d="M256.6065673828125,167.18505859375C256.6065673828125,167.18505859375,272.3695068359375,185.1234130859375,293.3768310546875,166.80859375C314.382080078125,148.4923095703125,296.5078125,127.009033203125,296.5078125,127.009033203125" stroke-miterlimit="10" fill="none" style="fill-rule: nonzero; clip-rule: evenodd; stroke-linejoin: round; fill: none;"/></g><g stroke-miterlimit="10" fill="none" id="strokes-752ba781-055a-8081-8008-28cd7e982c4f-df362402-8d3c-809c-8007-fa8b0d5dc9b9" class="strokes" style="fill-rule: nonzero; clip-rule: evenodd; stroke-linejoin: round;"><g class="stroke-shape"><path d="M256.6065673828125,167.18505859375C256.6065673828125,167.18505859375,272.3695068359375,185.1234130859375,293.3768310546875,166.80859375C314.382080078125,148.4923095703125,296.5078125,127.009033203125,296.5078125,127.009033203125" style="fill: none; stroke-width: 4.73412; stroke: rgb(47, 34, 108); stroke-opacity: 1;"/></g></g></g><g id="shape-df362402-8d3c-809c-8007-fa8b0d5dc9ba"><g class="fills" id="fills-df362402-8d3c-809c-8007-fa8b0d5dc9ba"><path d="M266.3348388671875,144.5260009765625C261.9100341796875,142.260009765625,260.2650146484375,136.71875,262.66064453125,132.1478271484375C265.0552978515625,127.57763671875,270.5838623046875,125.709228515625,275.0086669921875,127.9752197265625C279.4337158203125,130.239990234375,281.0797119140625,135.782470703125,278.6839599609375,140.3524169921875C276.288330078125,144.9222412109375,270.759521484375,146.7908935546875,266.3348388671875,144.5260009765625Z" stroke-miterlimit="10" fill="none" style="fill-rule: nonzero; clip-rule: evenodd; stroke-linejoin: round; fill: none;"/></g><g stroke-miterlimit="10" fill="none" id="strokes-752ba781-055a-8081-8008-28cd7e98738d-df362402-8d3c-809c-8007-fa8b0d5dc9ba" class="strokes" style="fill-rule: nonzero; clip-rule: evenodd; stroke-linejoin: round;"><g class="stroke-shape"><path d="M266.3348388671875,144.5260009765625C261.9100341796875,142.260009765625,260.2650146484375,136.71875,262.66064453125,132.1478271484375C265.0552978515625,127.57763671875,270.5838623046875,125.709228515625,275.0086669921875,127.9752197265625C279.4337158203125,130.239990234375,281.0797119140625,135.782470703125,278.6839599609375,140.3524169921875C276.288330078125,144.9222412109375,270.759521484375,146.7908935546875,266.3348388671875,144.5260009765625Z" style="fill: none; stroke-width: 4.73412; stroke: rgb(47, 34, 108); stroke-opacity: 1;"/></g></g></g><g id="shape-df362402-8d3c-809c-8007-fa8b0d5dc9bb"><g class="fills" id="fills-df362402-8d3c-809c-8007-fa8b0d5dc9bb"><path d="M310.6773681640625,96.84033203125C308.7647705078125,90.3724365234375,260.0631103515625,31.983154296875,234.5142822265625,19.61572265625C198.3822021484375,2.12548828125,220.7294921875,78.85009765625,234.355712890625,62.737548828125C241.998046875,53.7010498046875,190.9090576171875,15.437744140625,175.180908203125,24.927734375C167.7978515625,29.382568359375,169.100830078125,41.381103515625,177.64501953125,53.1907958984375C197.154541015625,80.155517578125,214.9539794921875,95.833984375,218.695556640625,85.708740234375C223.57861328125,72.494873046875,155.0330810546875,42.269287109375,157.44970703125,84.552978515625C158.794677734375,108.08203125,200.51318359375,107.7432861328125,200.51318359375,107.7432861328125"/></g><g id="strokes-752ba781-055a-8081-8008-28cd7e98b01f-df362402-8d3c-809c-8007-fa8b0d5dc9bb" class="strokes"><g class="stroke-shape"><path d="M310.6773681640625,96.84033203125C308.7647705078125,90.3724365234375,260.0631103515625,31.983154296875,234.5142822265625,19.61572265625C198.3822021484375,2.12548828125,220.7294921875,78.85009765625,234.355712890625,62.737548828125C241.998046875,53.7010498046875,190.9090576171875,15.437744140625,175.180908203125,24.927734375C167.7978515625,29.382568359375,169.100830078125,41.381103515625,177.64501953125,53.1907958984375C197.154541015625,80.155517578125,214.9539794921875,95.833984375,218.695556640625,85.708740234375C223.57861328125,72.494873046875,155.0330810546875,42.269287109375,157.44970703125,84.552978515625C158.794677734375,108.08203125,200.51318359375,107.7432861328125,200.51318359375,107.7432861328125" style="fill: none; stroke-width: 5.15329; stroke: rgb(20, 206, 202); stroke-opacity: 1; stroke-linecap: round;"/></g></g></g></g></g><g id="shape-df362402-8d3c-809c-8007-fa8b3e399e82" rx="0" ry="0"><g id="shape-df362402-8d3c-809c-8007-fa8b3e399e83" rx="0" ry="0" style="fill: rgb(0, 0, 0);"><g id="shape-df362402-8d3c-809c-8007-fa8b3e399e85"><g class="fills" id="fills-df362402-8d3c-809c-8007-fa8b3e399e85"><path d="M371.649169921875,171.95556640625C370.8955078125,171.6492919921875,370.012451171875,172.0098876953125,369.673828125,172.758056640625L292.3424072265625,344.7879638671875C292.0087890625,345.5389404296875,292.3480224609375,346.391357421875,293.101806640625,346.697509765625L304.1971435546875,351.17333984375C304.95068359375,351.479248046875,305.837646484375,351.1180419921875,306.1727294921875,350.3704833984375L383.50390625,178.3406982421875C383.841796875,177.58935546875,383.50244140625,176.736328125,382.74853515625,176.430419921875L371.649169921875,171.95556640625Z" stroke-miterlimit="10" style="fill-rule: nonzero; clip-rule: evenodd; stroke-linejoin: round; fill: rgb(20, 206, 202); fill-opacity: 1;"/></g><g stroke-miterlimit="10" id="strokes-752ba781-055a-8081-8008-28cd7e991fb7-df362402-8d3c-809c-8007-fa8b3e399e85" class="strokes" style="fill-rule: nonzero; clip-rule: evenodd; stroke-linejoin: round;"><g class="stroke-shape"><path d="M371.649169921875,171.95556640625C370.8955078125,171.6492919921875,370.012451171875,172.0098876953125,369.673828125,172.758056640625L292.3424072265625,344.7879638671875C292.0087890625,345.5389404296875,292.3480224609375,346.391357421875,293.101806640625,346.697509765625L304.1971435546875,351.17333984375C304.95068359375,351.479248046875,305.837646484375,351.1180419921875,306.1727294921875,350.3704833984375L383.50390625,178.3406982421875C383.841796875,177.58935546875,383.50244140625,176.736328125,382.74853515625,176.430419921875L371.649169921875,171.95556640625Z" style="fill: none; stroke-width: 2.24623; stroke: rgb(255, 255, 255); stroke-opacity: 0.002;"/></g></g></g><g id="shape-df362402-8d3c-809c-8007-fa8b3e399e86"><g class="fills" id="fills-df362402-8d3c-809c-8007-fa8b3e399e86"><path d="M388.815673828125,178.515380859375C388.06201171875,178.209228515625,387.17822265625,178.56982421875,386.84033203125,179.3179931640625L309.5091552734375,351.34814453125C309.1712646484375,352.0955810546875,309.51123046875,352.9521484375,310.268798828125,353.257568359375L321.364013671875,357.733154296875C322.11767578125,358.0384521484375,323.0008544921875,357.6781005859375,323.339111328125,356.9296875L400.670166015625,184.9007568359375C401.004638671875,184.149169921875,400.66845703125,183.2957763671875,399.911376953125,182.990234375L388.815673828125,178.515380859375Z" stroke-miterlimit="10" style="fill-rule: nonzero; clip-rule: evenodd; stroke-linejoin: round; fill: rgb(20, 206, 202); fill-opacity: 1;"/></g><g stroke-miterlimit="10" id="strokes-752ba781-055a-8081-8008-28cd7e997521-df362402-8d3c-809c-8007-fa8b3e399e86" class="strokes" style="fill-rule: nonzero; clip-rule: evenodd; stroke-linejoin: round;"><g class="stroke-shape"><path d="M388.815673828125,178.515380859375C388.06201171875,178.209228515625,387.17822265625,178.56982421875,386.84033203125,179.3179931640625L309.5091552734375,351.34814453125C309.1712646484375,352.0955810546875,309.51123046875,352.9521484375,310.268798828125,353.257568359375L321.364013671875,357.733154296875C322.11767578125,358.0384521484375,323.0008544921875,357.6781005859375,323.339111328125,356.9296875L400.670166015625,184.9007568359375C401.004638671875,184.149169921875,400.66845703125,183.2957763671875,399.911376953125,182.990234375L388.815673828125,178.515380859375Z" style="fill: none; stroke-width: 2.24623; stroke: rgb(255, 255, 255); stroke-opacity: 0.002;"/></g></g></g><g id="shape-df362402-8d3c-809c-8007-fa8b3e399e87"><g class="fills" id="fills-df362402-8d3c-809c-8007-fa8b3e399e87"><path d="M405.9619140625,185.801513671875C405.208251953125,185.49560546875,404.3212890625,185.8565673828125,403.986572265625,186.6043701171875L326.6553955078125,358.6341552734375C326.3175048828125,359.385986328125,326.657470703125,360.238525390625,327.4110107421875,360.544677734375L338.510009765625,365.0196533203125C339.2637939453125,365.3255615234375,340.1474609375,364.9652099609375,340.4853515625,364.216796875L417.81689453125,192.1868896484375C418.150390625,191.4359130859375,417.811767578125,190.582763671875,417.0576171875,190.2772216796875L405.9619140625,185.801513671875Z" stroke-miterlimit="10" style="fill-rule: nonzero; clip-rule: evenodd; stroke-linejoin: round; fill: rgb(20, 206, 202); fill-opacity: 1;"/></g><g stroke-miterlimit="10" id="strokes-752ba781-055a-8081-8008-28cd7e99a3ad-df362402-8d3c-809c-8007-fa8b3e399e87" class="strokes" style="fill-rule: nonzero; clip-rule: evenodd; stroke-linejoin: round;"><g class="stroke-shape"><path d="M405.9619140625,185.801513671875C405.208251953125,185.49560546875,404.3212890625,185.8565673828125,403.986572265625,186.6043701171875L326.6553955078125,358.6341552734375C326.3175048828125,359.385986328125,326.657470703125,360.238525390625,327.4110107421875,360.544677734375L338.510009765625,365.0196533203125C339.2637939453125,365.3255615234375,340.1474609375,364.9652099609375,340.4853515625,364.216796875L417.81689453125,192.1868896484375C418.150390625,191.4359130859375,417.811767578125,190.582763671875,417.0576171875,190.2772216796875L405.9619140625,185.801513671875Z" style="fill: none; stroke-width: 2.24623; stroke: rgb(255, 255, 255); stroke-opacity: 0.002;"/></g></g></g></g><g id="shape-df362402-8d3c-809c-8007-fa8b3e399e84"><g class="fills" id="fills-df362402-8d3c-809c-8007-fa8b3e399e84"><path d="M290.27392578125,381.830810546875C290.2813720703125,380.6688232421875,291.54345703125,379.86962890625,292.6278076171875,380.341064453125L318.0880126953125,391.4161376953125C319.079833984375,391.8468017578125,319.31982421875,393.0977783203125,318.56591796875,393.8983154296875L292.7557373046875,421.36279296875C291.738037109375,422.447265625,289.911865234375,421.8094482421875,289.924072265625,420.369873046875L290.27392578125,381.830810546875L290.27392578125,381.830810546875" stroke-miterlimit="10" style="fill-rule: nonzero; clip-rule: evenodd; stroke-linejoin: round; fill: rgb(20, 206, 202); fill-opacity: 1;"/></g><g stroke-miterlimit="10" id="strokes-752ba781-055a-8081-8008-28cd7e99f997-df362402-8d3c-809c-8007-fa8b3e399e84" class="strokes" style="fill-rule: nonzero; clip-rule: evenodd; stroke-linejoin: round;"><g class="stroke-shape"><path d="M290.27392578125,381.830810546875C290.2813720703125,380.6688232421875,291.54345703125,379.86962890625,292.6278076171875,380.341064453125L318.0880126953125,391.4161376953125C319.079833984375,391.8468017578125,319.31982421875,393.0977783203125,318.56591796875,393.8983154296875L292.7557373046875,421.36279296875C291.738037109375,422.447265625,289.911865234375,421.8094482421875,289.924072265625,420.369873046875L290.27392578125,381.830810546875L290.27392578125,381.830810546875" style="fill: none; stroke-width: 2.42589; stroke: rgb(255, 255, 255); stroke-opacity: 0.002;"/></g></g></g></g><g id="shape-df362402-8d3c-809c-8007-fa8b3e399e88"><g class="fills" id="fills-df362402-8d3c-809c-8007-fa8b3e399e88"><path d="M351.2763671875,161.177978515625C467.98193359375,190.4854736328125,510.181396484375,194.5416259765625,511.281005859375,266.078857421875C512.084716796875,318.3447265625,467.114013671875,347.6556396484375,424.872314453125,373.047119140625C409.81787109375,381.388671875,381.67529296875,398.147216796875,348.814453125,403.5263671875C315.953369140625,408.9056396484375,379.286376953125,352.255615234375,387.48046875,356.6610107421875C395.6728515625,361.0645751953125,322.8448486328125,398.8892822265625,311.5653076171875,389.107421875C299.1015625,378.299072265625,357.1025390625,341.0528564453125,364.71142578125,344.9215087890625C372.319580078125,348.7894287109375,297.5611572265625,372.8890380859375,284.4959716796875,361.936279296875C271.430908203125,350.98291015625,345.6683349609375,318.361328125,396.437255859375,309.6533203125"/></g><g id="strokes-752ba781-055a-8081-8008-28cd7e9a32aa-df362402-8d3c-809c-8007-fa8b3e399e88" class="strokes"><g class="stroke-shape"><path d="M351.2763671875,161.177978515625C467.98193359375,190.4854736328125,510.181396484375,194.5416259765625,511.281005859375,266.078857421875C512.084716796875,318.3447265625,467.114013671875,347.6556396484375,424.872314453125,373.047119140625C409.81787109375,381.388671875,381.67529296875,398.147216796875,348.814453125,403.5263671875C315.953369140625,408.9056396484375,379.286376953125,352.255615234375,387.48046875,356.6610107421875C395.6728515625,361.0645751953125,322.8448486328125,398.8892822265625,311.5653076171875,389.107421875C299.1015625,378.299072265625,357.1025390625,341.0528564453125,364.71142578125,344.9215087890625C372.319580078125,348.7894287109375,297.5611572265625,372.8890380859375,284.4959716796875,361.936279296875C271.430908203125,350.98291015625,345.6683349609375,318.361328125,396.437255859375,309.6533203125" style="fill: none; stroke-width: 4.017; stroke: rgb(255, 154, 232); stroke-opacity: 1;"/></g></g></g><g id="shape-df362402-8d3c-809c-8007-fa8b3e399e89"><g class="fills" id="fills-df362402-8d3c-809c-8007-fa8b3e399e89"><path d="M328.093505859375,383.1597900390625C335.7940673828125,379.124755859375,340.6170654296875,373.2603759765625,338.8673095703125,370.060791015625C337.1170654296875,366.86083984375,329.4566650390625,367.5390625,321.756591796875,371.574462890625C314.0565185546875,375.6097412109375,309.232666015625,381.47509765625,310.9827880859375,384.674560546875C312.7330322265625,387.873779296875,320.3935546875,387.1954345703125,328.093505859375,383.1597900390625Z" stroke-miterlimit="10" style="fill-rule: nonzero; clip-rule: evenodd; stroke-linejoin: round; fill: rgb(20, 206, 202); fill-opacity: 1;"/></g></g><g id="shape-df362402-8d3c-809c-8007-fa8b3e399e8a"><g class="fills" id="fills-df362402-8d3c-809c-8007-fa8b3e399e8a"><path d="M356.514404296875,394.556884765625C363.56298828125,391.0799560546875,367.8193359375,385.71875,366.021728515625,382.5828857421875C364.223876953125,379.4471435546875,357.052490234375,379.724365234375,350.004150390625,383.201171875C342.9559326171875,386.6785888671875,338.69921875,392.0389404296875,340.496826171875,395.1741943359375C342.294189453125,398.3099365234375,349.466552734375,398.0340576171875,356.514404296875,394.556884765625Z" stroke-miterlimit="10" style="fill-rule: nonzero; clip-rule: evenodd; stroke-linejoin: round; fill: rgb(20, 206, 202); fill-opacity: 1;"/></g></g><g id="shape-df362402-8d3c-809c-8007-fa8b3e399e8b"><g class="fills" id="fills-df362402-8d3c-809c-8007-fa8b3e399e8b"><path d="M295.8665771484375,357.082275390625C302.4786376953125,353.7379150390625,306.55908203125,348.7579345703125,304.980224609375,345.9586181640625C303.4014892578125,343.1600341796875,296.7620849609375,343.6011962890625,290.1492919921875,346.9447021484375C283.537353515625,350.2884521484375,279.4580078125,355.2681884765625,281.036376953125,358.0675048828125C282.6151123046875,360.8668212890625,289.255126953125,360.425537109375,295.8665771484375,357.082275390625Z" stroke-miterlimit="10" style="fill-rule: nonzero; clip-rule: evenodd; stroke-linejoin: round; fill: rgb(20, 206, 202); fill-opacity: 1;"/></g></g></g></g></g></g></g></g></svg>