<svg width="310" xmlns="http://www.w3.org/2000/svg" height="341" id="screenshot-df362402-8d3c-809c-8007-fa8c31d8cc11" viewBox="0 0 310 341" xmlns:xlink="http://www.w3.org/1999/xlink" fill="none" version="1.1"><g id="shape-df362402-8d3c-809c-8007-fa8c31d8cc11"><defs><clipPath id="frame-clip-df362402-8d3c-809c-8007-fa8c31d8cc11-render-25" class="frame-clip frame-clip-def"><rect rx="0" ry="0" x="0" y="0" width="310" height="340.99999999999955" transform="matrix(1.000000, 0.000000, 0.000000, 1.000000, 0.000000, 0.000000)"/></clipPath></defs><g class="frame-container-wrapper"><g class="frame-container-blur"><g class="frame-container-shadows"><g clip-path="url(#frame-clip-df362402-8d3c-809c-8007-fa8c31d8cc11-render-25)" fill="none"><g class="fills" id="fills-df362402-8d3c-809c-8007-fa8c31d8cc11"><rect rx="0" ry="0" x="0" y="0" width="310" height="340.99999999999955" transform="matrix(1.000000, 0.000000, 0.000000, 1.000000, 0.000000, 0.000000)" class="frame-background"/></g><g class="frame-children"><g id="shape-df362402-8d3c-809c-8007-fa8c31d8cc12" rx="0" ry="0"><g id="shape-df362402-8d3c-809c-8007-fa8c31d8cc18"><g class="fills" id="fills-df362402-8d3c-809c-8007-fa8c31d8cc18"><rect rx="19.95891423846092" ry="19.95891423846092" x="168.2412060301508" y="85.63926940639249" transform="matrix(1.000000, 0.000000, 0.000000, 1.000000, 0.000000, 0.000000)" width="126.18090452261276" height="235.1187214611873"/></g><g id="strokes-752ba781-055a-8081-8008-28cd7e7d2419-df362402-8d3c-809c-8007-fa8c31d8cc18" class="strokes"><g class="stroke-shape"><rect rx="19.95891423846092" ry="19.95891423846092" x="168.2412060301508" y="85.63926940639249" transform="matrix(1.000000, 0.000000, 0.000000, 1.000000, 0.000000, 0.000000)" width="126.18090452261276" height="235.1187214611873" style="fill: none; stroke-width: 3.11286; stroke: rgb(242, 58, 229); stroke-opacity: 1;"/></g></g></g><g id="shape-df362402-8d3c-809c-8007-fa8c31d8cc19" rx="0" ry="0"><g id="shape-df362402-8d3c-809c-8007-fa8c31d8cc1a" rx="0" ry="0"><g id="shape-df362402-8d3c-809c-8007-fa8c31d8cc1e"><g class="fills" id="fills-df362402-8d3c-809c-8007-fa8c31d8cc1e"><path d="M194.53955078125,217.3487548828125L269.3662109375,217.3487548828125"/></g><g id="strokes-752ba781-055a-8081-8008-28cd7e7db07f-df362402-8d3c-809c-8007-fa8c31d8cc1e" class="strokes"><g class="stroke-shape"><path d="M194.53955078125,217.3487548828125L269.3662109375,217.3487548828125" style="fill: none; stroke-width: 3.11286; stroke: rgb(242, 58, 229); stroke-opacity: 1;"/></g></g></g><g id="shape-df362402-8d3c-809c-8007-fa8c31d8cc1f" rx="0" ry="0"><g id="shape-df362402-8d3c-809c-8007-fa8c31d8cc20"><g class="fills" id="fills-df362402-8d3c-809c-8007-fa8c31d8cc20"><rect rx="1.995891423846092" ry="1.995891423846092" x="194.53973497065044" y="138.05782970722566" transform="matrix(1.000000, 0.000000, 0.000000, 1.000000, 0.000000, 0.000000)" width="74.82646461305922" height="57.943336878750415"/></g><g id="strokes-752ba781-055a-8081-8008-28cd7e7dfe50-df362402-8d3c-809c-8007-fa8c31d8cc20" class="strokes"><g class="stroke-shape"><rect rx="1.995891423846092" ry="1.995891423846092" x="194.53973497065044" y="138.05782970722566" transform="matrix(1.000000, 0.000000, 0.000000, 1.000000, 0.000000, 0.000000)" width="74.82646461305922" height="57.943336878750415" style="fill: none; stroke-width: 3.11286; stroke: rgb(242, 58, 229); stroke-opacity: 1;"/></g></g></g><g id="shape-df362402-8d3c-809c-8007-fa8c31d8cc21"><g class="fills" id="fills-df362402-8d3c-809c-8007-fa8c31d8cc21"><path d="M194.53955078125,204.133544921875L269.3662109375,204.133544921875"/></g><g id="strokes-752ba781-055a-8081-8008-28cd7e7e2dcc-df362402-8d3c-809c-8007-fa8c31d8cc21" class="strokes"><g class="stroke-shape"><path d="M194.53955078125,204.133544921875L269.3662109375,204.133544921875" style="fill: none; stroke-width: 3.11286; stroke: rgb(242, 58, 229); stroke-opacity: 1;"/></g></g></g><g id="shape-df362402-8d3c-809c-8007-fa8c31d8cc22"><g class="fills" id="fills-df362402-8d3c-809c-8007-fa8c31d8cc22"><path d="M194.53955078125,211.2493896484375L269.3662109375,211.2493896484375"/></g><g id="strokes-752ba781-055a-8081-8008-28cd7e7e7de1-df362402-8d3c-809c-8007-fa8c31d8cc22" class="strokes"><g class="stroke-shape"><path d="M194.53955078125,211.2493896484375L269.3662109375,211.2493896484375" style="fill: none; stroke-width: 3.11286; stroke: rgb(242, 58, 229); stroke-opacity: 1;"/></g></g></g><g id="shape-df362402-8d3c-809c-8007-fa8c31d8cc23"><g class="fills" id="fills-df362402-8d3c-809c-8007-fa8c31d8cc23"><path d="M195.925537109375,140.0909423828125L268.67333984375,193.9678955078125M195.925537109375,193.9678955078125"/></g><g id="strokes-752ba781-055a-8081-8008-28cd7e7eb932-df362402-8d3c-809c-8007-fa8c31d8cc23" class="strokes"><g class="stroke-shape"><path d="M195.925537109375,140.0909423828125L268.67333984375,193.9678955078125M195.925537109375,193.9678955078125" style="fill: none; stroke-width: 3.11286; stroke: rgb(242, 58, 229); stroke-opacity: 1;"/></g></g></g></g></g><g id="shape-df362402-8d3c-809c-8007-fa8c31d8cc1b" rx="0" ry="0"><g id="shape-df362402-8d3c-809c-8007-fa8c31d8cc24"><g class="fills" id="fills-df362402-8d3c-809c-8007-fa8c31d8cc24"><path d="M195.50244140625,306.7442626953125L270.328857421875,306.7442626953125"/></g><g id="strokes-752ba781-055a-8081-8008-28cd7e7f2e6b-df362402-8d3c-809c-8007-fa8c31d8cc24" class="strokes"><g class="stroke-shape"><path d="M195.50244140625,306.7442626953125L270.328857421875,306.7442626953125" style="fill: none; stroke-width: 3.11286; stroke: rgb(242, 58, 229); stroke-opacity: 1;"/></g></g></g><g id="shape-df362402-8d3c-809c-8007-fa8c31d8cc25" rx="0" ry="0"><g id="shape-df362402-8d3c-809c-8007-fa8c31d8cc26"><g class="fills" id="fills-df362402-8d3c-809c-8007-fa8c31d8cc26"><rect rx="1.995891423846092" ry="1.995891423846092" x="195.502512562814" y="225.77625570776218" transform="matrix(1.000000, 0.000000, 0.000000, 1.000000, 0.000000, 0.000000)" width="74.82646461306103" height="57.943336878750415"/></g><g id="strokes-752ba781-055a-8081-8008-28cd7e7f47fc-df362402-8d3c-809c-8007-fa8c31d8cc26" class="strokes"><g class="stroke-shape"><rect rx="1.995891423846092" ry="1.995891423846092" x="195.502512562814" y="225.77625570776218" transform="matrix(1.000000, 0.000000, 0.000000, 1.000000, 0.000000, 0.000000)" width="74.82646461306103" height="57.943336878750415" style="fill: none; stroke-width: 3.11286; stroke: rgb(242, 58, 229); stroke-opacity: 1;"/></g></g></g><g id="shape-df362402-8d3c-809c-8007-fa8c31d8cc27"><g class="fills" id="fills-df362402-8d3c-809c-8007-fa8c31d8cc27"><path d="M195.50244140625,291.85205078125L270.328857421875,291.85205078125"/></g><g id="strokes-752ba781-055a-8081-8008-28cd7e7f9cd7-df362402-8d3c-809c-8007-fa8c31d8cc27" class="strokes"><g class="stroke-shape"><path d="M195.50244140625,291.85205078125L270.328857421875,291.85205078125" style="fill: none; stroke-width: 3.11286; stroke: rgb(242, 58, 229); stroke-opacity: 1;"/></g></g></g><g id="shape-df362402-8d3c-809c-8007-fa8c31d8cc28"><g class="fills" id="fills-df362402-8d3c-809c-8007-fa8c31d8cc28"><path d="M195.50244140625,298.9678955078125L270.328857421875,298.9678955078125"/></g><g id="strokes-752ba781-055a-8081-8008-28cd7e7fca68-df362402-8d3c-809c-8007-fa8c31d8cc28" class="strokes"><g class="stroke-shape"><path d="M195.50244140625,298.9678955078125L270.328857421875,298.9678955078125" style="fill: none; stroke-width: 3.11286; stroke: rgb(242, 58, 229); stroke-opacity: 1;"/></g></g></g><g id="shape-df362402-8d3c-809c-8007-fa8c31d8cc29"><g class="fills" id="fills-df362402-8d3c-809c-8007-fa8c31d8cc29"><path d="M196.887939453125,227.809326171875L269.635986328125,281.6866455078125M196.887939453125,281.6866455078125"/></g><g id="strokes-752ba781-055a-8081-8008-28cd7e8028a5-df362402-8d3c-809c-8007-fa8c31d8cc29" class="strokes"><g class="stroke-shape"><path d="M196.887939453125,227.809326171875L269.635986328125,281.6866455078125M196.887939453125,281.6866455078125" style="fill: none; stroke-width: 3.11286; stroke: rgb(242, 58, 229); stroke-opacity: 1;"/></g></g></g></g></g><g id="shape-df362402-8d3c-809c-8007-fa8c31d8cc1c"><g class="fills" id="fills-df362402-8d3c-809c-8007-fa8c31d8cc1c"><rect rx="1.995891423846092" ry="1.995891423846092" x="186.1557788944724" y="105.8812785388127" transform="matrix(1.000000, 0.000000, 0.000000, 1.000000, 0.000000, 0.000000)" width="90.35175879396957" height="15.570776255707642"/></g><g id="strokes-752ba781-055a-8081-8008-28cd7e80b8cd-df362402-8d3c-809c-8007-fa8c31d8cc1c" class="strokes"><g class="stroke-shape"><rect rx="1.995891423846092" ry="1.995891423846092" x="186.1557788944724" y="105.8812785388127" transform="matrix(1.000000, 0.000000, 0.000000, 1.000000, 0.000000, 0.000000)" width="90.35175879396957" height="15.570776255707642" style="fill: none; stroke-width: 3.11286; stroke: rgb(242, 58, 229); stroke-opacity: 1;"/></g></g></g><g id="shape-df362402-8d3c-809c-8007-fa8c31d8cc1d"><g class="fills" id="fills-df362402-8d3c-809c-8007-fa8c31d8cc1d"><path d="M186.15576171875,127.680419921875L276.44677734375,127.680419921875"/></g><g id="strokes-752ba781-055a-8081-8008-28cd7e80b8ce-df362402-8d3c-809c-8007-fa8c31d8cc1d" class="strokes"><g class="stroke-shape"><path d="M186.15576171875,127.680419921875L276.44677734375,127.680419921875" style="fill: none; stroke-width: 3.11286; stroke: rgb(242, 58, 229); stroke-opacity: 1;"/></g></g></g></g></g><g id="shape-df362402-8d3c-809c-8007-fa8c31d8cc13" rx="0" ry="0"><g id="shape-df362402-8d3c-809c-8007-fa8c31d8cc2a"><g class="fills" id="fills-df362402-8d3c-809c-8007-fa8c31d8cc2a"><rect rx="19.95891423846092" ry="19.95891423846092" x="17.135678391960028" y="15.570776255707642" transform="matrix(1.000000, 0.000000, 0.000000, 1.000000, 0.000000, 0.000000)" width="126.18090452261322" height="235.11872146118685"/></g><g id="strokes-752ba781-055a-8081-8008-28cd7e813acb-df362402-8d3c-809c-8007-fa8c31d8cc2a" class="strokes"><g class="stroke-shape"><rect rx="19.95891423846092" ry="19.95891423846092" x="17.135678391960028" y="15.570776255707642" transform="matrix(1.000000, 0.000000, 0.000000, 1.000000, 0.000000, 0.000000)" width="126.18090452261322" height="235.11872146118685" style="fill: none; stroke-width: 3.11286; stroke: rgb(242, 58, 229); stroke-opacity: 1;"/></g></g></g><g id="shape-df362402-8d3c-809c-8007-fa8c31d8cc2b" rx="0" ry="0"><g id="shape-df362402-8d3c-809c-8007-fa8c31d8cc2c" rx="0" ry="0"><g id="shape-df362402-8d3c-809c-8007-fa8c31d8cc2e" rx="0" ry="0"><g id="shape-df362402-8d3c-809c-8007-fa8c31d8cc2f"><g class="fills" id="fills-df362402-8d3c-809c-8007-fa8c31d8cc2f"><rect rx="1.995891423846092" ry="1.995891423846092" x="42.81289834673498" y="71.6255707762557" transform="matrix(1.000000, 0.000000, 0.000000, 1.000000, 0.000000, 0.000000)" width="74.8264646130624" height="57.94333687874996"/></g><g id="strokes-752ba781-055a-8081-8008-28cd7e81b160-df362402-8d3c-809c-8007-fa8c31d8cc2f" class="strokes"><g class="stroke-shape"><rect rx="1.995891423846092" ry="1.995891423846092" x="42.81289834673498" y="71.6255707762557" transform="matrix(1.000000, 0.000000, 0.000000, 1.000000, 0.000000, 0.000000)" width="74.8264646130624" height="57.94333687874996" style="fill: none; stroke-width: 3.11286; stroke: rgb(242, 58, 229); stroke-opacity: 1;"/></g></g></g><g id="shape-df362402-8d3c-809c-8007-fa8c31d8cc30"><g class="fills" id="fills-df362402-8d3c-809c-8007-fa8c31d8cc30"><path d="M42.81298828125,137.701416015625L117.639404296875,137.701416015625"/></g><g id="strokes-752ba781-055a-8081-8008-28cd7e81c6a1-df362402-8d3c-809c-8007-fa8c31d8cc30" class="strokes"><g class="stroke-shape"><path d="M42.81298828125,137.701416015625L117.639404296875,137.701416015625" style="fill: none; stroke-width: 3.11286; stroke: rgb(242, 58, 229); stroke-opacity: 1;"/></g></g></g><g id="shape-df362402-8d3c-809c-8007-fa8c31d8cc31"><g class="fills" id="fills-df362402-8d3c-809c-8007-fa8c31d8cc31"><path d="M42.81298828125,144.817138671875L117.639404296875,144.817138671875"/></g><g id="strokes-752ba781-055a-8081-8008-28cd7e820b26-df362402-8d3c-809c-8007-fa8c31d8cc31" class="strokes"><g class="stroke-shape"><path d="M42.81298828125,144.817138671875L117.639404296875,144.817138671875" style="fill: none; stroke-width: 3.11286; stroke: rgb(242, 58, 229); stroke-opacity: 1;"/></g></g></g></g></g><g id="shape-df362402-8d3c-809c-8007-fa8c31d8cc2d"><g class="fills" id="fills-df362402-8d3c-809c-8007-fa8c31d8cc2d"><rect rx="1.995891423846092" ry="1.995891423846092" x="35.050251256281626" y="165.050228310502" transform="matrix(1.000000, 0.000000, 0.000000, 1.000000, 0.000000, 0.000000)" width="90.35175879397002" height="15.570776255707642"/></g><g id="strokes-752ba781-055a-8081-8008-28cd7e827fa7-df362402-8d3c-809c-8007-fa8c31d8cc2d" class="strokes"><g class="stroke-shape"><rect rx="1.995891423846092" ry="1.995891423846092" x="35.050251256281626" y="165.050228310502" transform="matrix(1.000000, 0.000000, 0.000000, 1.000000, 0.000000, 0.000000)" width="90.35175879397002" height="15.570776255707642" style="fill: none; stroke-width: 3.11286; stroke: rgb(242, 58, 229); stroke-opacity: 1;"/></g></g></g></g></g><g id="shape-df362402-8d3c-809c-8007-fa8c31d8cc14"><g class="fills" id="fills-df362402-8d3c-809c-8007-fa8c31d8cc14"><path d="M43.6181640625,108.9954833984375C43.6181640625,108.9954833984375,52.5810546875,87.1962890625,65.42724609375,87.1962890625C82.562744140625,87.1962890625,84.12060546875,112.109619140625,95.025146484375,112.109619140625C105.9296875,112.109619140625,107.487548828125,96.538818359375,116.834228515625,96.538818359375"/></g><g id="strokes-752ba781-055a-8081-8008-28cd7e829b3c-df362402-8d3c-809c-8007-fa8c31d8cc14" class="strokes"><g class="stroke-shape"><path d="M43.6181640625,108.9954833984375C43.6181640625,108.9954833984375,52.5810546875,87.1962890625,65.42724609375,87.1962890625C82.562744140625,87.1962890625,84.12060546875,112.109619140625,95.025146484375,112.109619140625C105.9296875,112.109619140625,107.487548828125,96.538818359375,116.834228515625,96.538818359375" style="fill: none; stroke-width: 3.11286; stroke: rgb(242, 58, 229); stroke-opacity: 1;"/></g></g></g><g id="shape-df362402-8d3c-809c-8007-fa8c31d8cc15"><g class="fills" id="fills-df362402-8d3c-809c-8007-fa8c31d8cc15"><ellipse cx="96.58291457286418" cy="85.63926940639249" rx="6.2311557788946175" ry="6.228310502282966" transform="matrix(1.000000, 0.000000, 0.000000, 1.000000, 0.000000, 0.000000)" style="fill: rgb(242, 58, 229); fill-opacity: 1;"/></g></g><g id="shape-df362402-8d3c-809c-8007-fa8c31d8cc16"><g class="fills" id="fills-df362402-8d3c-809c-8007-fa8c31d8cc16"><path d="M124.623046875,172.8355712890625C124.623046875,172.8355712890625,151.10546875,168.0400390625,151.10546875,207.09130859375C151.10546875,246.142578125,168.2412109375,246.018310546875,168.2412109375,246.018310546875"/></g><g id="strokes-752ba781-055a-8081-8008-28cd7e831d95-df362402-8d3c-809c-8007-fa8c31d8cc16" class="strokes"><g class="stroke-shape"><path d="M124.623046875,172.8355712890625C124.623046875,172.8355712890625,151.10546875,168.0400390625,151.10546875,207.09130859375C151.10546875,246.142578125,168.2412109375,246.018310546875,168.2412109375,246.018310546875" style="fill: none; stroke-width: 3.11286; stroke: rgb(242, 58, 229); stroke-opacity: 1;"/></g></g></g><g id="shape-df362402-8d3c-809c-8007-fa8c31d8cc17"><g class="fills" id="fills-df362402-8d3c-809c-8007-fa8c31d8cc17"><path d="M163.56787109375,237.454345703125L168.2412109375,246.018310546875L159.67333984375,249.9110107421875"/></g><g id="strokes-752ba781-055a-8081-8008-28cd7e8348d5-df362402-8d3c-809c-8007-fa8c31d8cc17" class="strokes"><g class="stroke-shape"><path d="M163.56787109375,237.454345703125L168.2412109375,246.018310546875L159.67333984375,249.9110107421875" style="fill: none; stroke-width: 3.11286; stroke: rgb(242, 58, 229); stroke-opacity: 1;"/></g></g></g></g></g></g></g></g></g></svg>