<svg width="463" xmlns="http://www.w3.org/2000/svg" height="229" id="screenshot-e32531b0-8f0e-8085-8008-26334089cb02" viewBox="0 0 463 229" xmlns:xlink="http://www.w3.org/1999/xlink" fill="none" version="1.1"><g id="shape-e32531b0-8f0e-8085-8008-26334089cb02"><defs><clipPath id="frame-clip-e32531b0-8f0e-8085-8008-26334089cb02-render-1" class="frame-clip frame-clip-def"><rect rx="0" ry="0" x="0" y="0" width="462.99973754749135" height="228.9999398724458" transform="matrix(1.000000, 0.000000, 0.000000, 1.000000, 0.000000, 0.000000)"/></clipPath></defs><g class="frame-container-wrapper"><g class="frame-container-blur"><g class="frame-container-shadows"><g clip-path="url(#frame-clip-e32531b0-8f0e-8085-8008-26334089cb02-render-1)" fill="none"><g class="fills" id="fills-e32531b0-8f0e-8085-8008-26334089cb02"><rect rx="0" ry="0" x="0" y="0" width="462.99973754749135" height="228.9999398724458" transform="matrix(1.000000, 0.000000, 0.000000, 1.000000, 0.000000, 0.000000)" class="frame-background"/></g><g class="frame-children"><g id="shape-e32531b0-8f0e-8085-8008-26334089cb03" xmlns:xlink="http://www.w3.org/1999/xlink" xml:space="preserve" rx="0" ry="0" style="fill: rgb(0, 0, 0);"><g id="shape-e32531b0-8f0e-8085-8008-26334089cb09" rx="0" ry="0" style="fill: rgb(0, 0, 0);"><g id="shape-e32531b0-8f0e-8085-8008-26334089cb0a"><g class="fills" id="fills-e32531b0-8f0e-8085-8008-26334089cb0a"><path d="M196.24061584472656,78.86276245117188C197.27137756347656,79.40719604492188,197.66835021972656,80.68795776367188,197.12586975097656,81.72384643554688C196.58363342285156,82.75949096679688,195.30702209472656,83.15756225585938,194.27503967285156,82.61215209960938C193.24305725097656,82.06796264648438,192.84706115722656,80.78707885742188,193.38929748535156,79.75241088867188C193.93226623535156,78.71688842773438,195.20814514160156,78.31857299804688,196.24061584472656,78.86276245117188Z" stroke-miterlimit="10" style="fill-rule: nonzero; clip-rule: evenodd; stroke-linejoin: round; fill: rgb(74, 207, 203);"/></g></g><g id="shape-e32531b0-8f0e-8085-8008-26334089cb0b"><g class="fills" id="fills-e32531b0-8f0e-8085-8008-26334089cb0b"><path d="M167.81239318847656,133.70590209960938C167.78260803222656,133.76449584960938,169.45594787597656,130.53866577148438,169.45594787597656,130.53866577148438L177.49745178222656,115.03439331054688C177.49745178222656,115.03439331054688,192.75062561035156,85.62643432617188,194.55384826660156,82.15048217773438" stroke-miterlimit="10" fill="none" style="fill-rule: nonzero; clip-rule: evenodd; stroke-linejoin: round; fill: none;"/></g><g stroke-miterlimit="10" fill="none" id="strokes-dc8a1b63-55c2-8062-8008-5db06ca9f3a6-e32531b0-8f0e-8085-8008-26334089cb0b" class="strokes" style="fill-rule: nonzero; clip-rule: evenodd; stroke-linejoin: round;"><g class="stroke-shape"><path d="M167.81239318847656,133.70590209960938C167.78260803222656,133.76449584960938,169.45594787597656,130.53866577148438,169.45594787597656,130.53866577148438L177.49745178222656,115.03439331054688C177.49745178222656,115.03439331054688,192.75062561035156,85.62643432617188,194.55384826660156,82.15048217773438" style="fill: none; stroke-width: 0.60359; stroke: rgb(74, 207, 203); stroke-opacity: 1; stroke-linecap: round;"/></g></g></g><g id="shape-e32531b0-8f0e-8085-8008-26334089cb0c"><g class="fills" id="fills-e32531b0-8f0e-8085-8008-26334089cb0c"><path d="M209.26258850097656,162.66159057617188C188.10633850097656,161.17269897460938,167.56971740722656,136.42843627929688,181.53309631347656,111.23141479492188C197.15882873535156,83.03256225585938,221.11341857910156,98.94552612304688,221.11341857910156,98.94552612304688C221.11341857910156,98.94552612304688,256.9129943847656,123.34054565429688,262.8150939941406,90.62533569335938" stroke-miterlimit="10" fill="none" style="fill-rule: nonzero; clip-rule: evenodd; stroke-linejoin: round; fill: none;"/></g><g stroke-miterlimit="10" fill="none" id="strokes-dc8a1b63-55c2-8062-8008-5db06caa8654-e32531b0-8f0e-8085-8008-26334089cb0c" class="strokes" style="fill-rule: nonzero; clip-rule: evenodd; stroke-linejoin: round;"><g class="stroke-shape"><path d="M209.26258850097656,162.66159057617188C188.10633850097656,161.17269897460938,167.56971740722656,136.42843627929688,181.53309631347656,111.23141479492188C197.15882873535156,83.03256225585938,221.11341857910156,98.94552612304688,221.11341857910156,98.94552612304688C221.11341857910156,98.94552612304688,256.9129943847656,123.34054565429688,262.8150939941406,90.62533569335938" style="fill: none; stroke-width: 3.02094; stroke: rgb(74, 207, 203); stroke-opacity: 1; stroke-linecap: round;"/></g></g></g><g id="shape-e32531b0-8f0e-8085-8008-26334089cb0d" style="opacity: 1;"><g class="fills" id="fills-e32531b0-8f0e-8085-8008-26334089cb0d"><path d="M201.34632873535156,180.76791381835938L223.14662170410156,180.27767944335938C223.14662170410156,180.27767944335938,251.78309631347656,206.59201049804688,282.8590393066406,194.33322143554688C313.9339904785156,182.07589721679688,302.7079162597656,148.57272338867188,287.9032287597656,142.03524780273438C273.0970764160156,135.49801635742188,264.6371154785156,134.68038940429688,264.7994689941406,125.20150756835938C264.9610900878906,115.72116088867188,298.9076232910156,111.54464721679688,281.4190979003906,80.42941284179688C277.3443908691406,73.18038940429688,276.0094299316406,75.47970581054688,272.7098693847656,65.56613159179688C268.1210021972656,51.779632568359375,253.89857482910156,48.223114013671875,253.89857482910156,48.223114013671875C253.89857482910156,48.223114013671875,259.4291076660156,33.187347412109375,248.85487365722656,30.408784866333008C238.27894592285156,27.630220413208008,237.92323303222656,34.713348388671875,237.92323303222656,34.713348388671875C237.92323303222656,34.713348388671875,238.44105529785156,27.302949905395508,231.28285217285156,27.793184280395508C224.12464904785156,28.284883499145508,220.81678771972656,37.246673583984375,220.81678771972656,37.246673583984375C220.81678771972656,37.246673583984375,219.24256896972656,31.552217483520508,214.03651428222656,33.187347412109375C208.83021545410156,34.820770263671875,192.88587951660156,48.713348388671875,210.62049865722656,74.04562377929688C228.35462951660156,99.37777709960938,240.44203186035156,106.53659057617188,233.31044006347656,119.94979858398438C226.17713928222656,133.36459350585938,197.95204162597656,129.85861206054688,198.10462951660156,156.38168334960938C198.25575256347656,182.90463256835938,201.34632873535156,180.76791381835938,201.34632873535156,180.76791381835938Z" stroke-miterlimit="10" style="fill-rule: nonzero; clip-rule: evenodd; stroke-linejoin: round; fill: rgb(163, 120, 243); fill-opacity: 1;"/></g></g><g id="shape-e32531b0-8f0e-8085-8008-26334089cb0e"><g class="fills" id="fills-e32531b0-8f0e-8085-8008-26334089cb0e"><path d="M392.0960998535156,45.843841552734375C392.0960998535156,45.843841552734375,392.4642639160156,36.061737060546875,389.6498107910156,31.471284866333008C386.8348693847656,26.880830764770508,380.8368225097656,27.482149124145508,380.8368225097656,27.482149124145508C380.8368225097656,27.482149124145508,386.8348693847656,28.082490921020508,389.6498107910156,23.491914749145508C392.4642639160156,18.901704788208008,392.0960998535156,9.119478225708008,392.0960998535156,9.119478225708008C392.0960998535156,9.119478225708008,391.7276916503906,18.901704788208008,394.5428771972656,23.491914749145508C397.3575744628906,28.082490921020508,403.3558654785156,27.482149124145508,403.3558654785156,27.482149124145508C403.3558654785156,27.482149124145508,397.3575744628906,26.880830764770508,394.5428771972656,31.471284866333008C391.7276916503906,36.061737060546875,392.0960998535156,45.843841552734375,392.0960998535156,45.843841552734375Z" stroke-miterlimit="10" style="fill-rule: nonzero; clip-rule: evenodd; stroke-linejoin: round; fill: rgb(255, 154, 232); fill-opacity: 1;"/></g><g stroke-miterlimit="10" id="strokes-dc8a1b63-55c2-8062-8008-5db06cab7a72-e32531b0-8f0e-8085-8008-26334089cb0e" class="strokes" style="fill-rule: nonzero; clip-rule: evenodd; stroke-linejoin: round;"><g class="stroke-shape"><path d="M392.0960998535156,45.843841552734375C392.0960998535156,45.843841552734375,392.4642639160156,36.061737060546875,389.6498107910156,31.471284866333008C386.8348693847656,26.880830764770508,380.8368225097656,27.482149124145508,380.8368225097656,27.482149124145508C380.8368225097656,27.482149124145508,386.8348693847656,28.082490921020508,389.6498107910156,23.491914749145508C392.4642639160156,18.901704788208008,392.0960998535156,9.119478225708008,392.0960998535156,9.119478225708008C392.0960998535156,9.119478225708008,391.7276916503906,18.901704788208008,394.5428771972656,23.491914749145508C397.3575744628906,28.082490921020508,403.3558654785156,27.482149124145508,403.3558654785156,27.482149124145508C403.3558654785156,27.482149124145508,397.3575744628906,26.880830764770508,394.5428771972656,31.471284866333008C391.7276916503906,36.061737060546875,392.0960998535156,45.843841552734375,392.0960998535156,45.843841552734375Z" style="fill: none; stroke-width: 1.40237; stroke: rgb(255, 154, 232); stroke-opacity: 1; stroke-linecap: round;"/></g></g></g><g id="shape-e32531b0-8f0e-8085-8008-26334089cb0f"><g class="fills" id="fills-e32531b0-8f0e-8085-8008-26334089cb0f"><path d="M237.77919006347656,32.678070068359375C237.71888732910156,35.309661865234375,241.00135803222656,45.569671630859375,237.60267639160156,44.358489990234375C234.20448303222656,43.147186279296875,238.11537170410156,33.041839599609375,238.11537170410156,33.041839599609375" stroke-miterlimit="10" fill="none" style="fill-rule: nonzero; clip-rule: evenodd; stroke-linejoin: round; fill: none;"/></g><g stroke-miterlimit="10" fill="none" id="strokes-dc8a1b63-55c2-8062-8008-5db06cabc2af-e32531b0-8f0e-8085-8008-26334089cb0f" class="strokes" style="fill-rule: nonzero; clip-rule: evenodd; stroke-linejoin: round;"><g class="stroke-shape"><path d="M237.77919006347656,32.678070068359375C237.71888732910156,35.309661865234375,241.00135803222656,45.569671630859375,237.60267639160156,44.358489990234375C234.20448303222656,43.147186279296875,238.11537170410156,33.041839599609375,238.11537170410156,33.041839599609375" style="fill: none; stroke-width: 0.527993; stroke: rgb(255, 255, 255); stroke-opacity: 1; stroke-linecap: round;"/></g></g></g><g id="shape-e32531b0-8f0e-8085-8008-26334089cb10"><g class="fills" id="fills-e32531b0-8f0e-8085-8008-26334089cb10"><path d="M220.05409240722656,35.622772216796875C220.05409240722656,35.622772216796875,223.40394592285156,48.560516357421875,220.10145568847656,47.318084716796875C216.79798889160156,46.075408935546875,220.07191467285156,36.325164794921875,220.07191467285156,36.325164794921875" stroke-miterlimit="10" fill="none" style="fill-rule: nonzero; clip-rule: evenodd; stroke-linejoin: round; fill: none;"/></g><g stroke-miterlimit="10" fill="none" id="strokes-dc8a1b63-55c2-8062-8008-5db06cac654c-e32531b0-8f0e-8085-8008-26334089cb10" class="strokes" style="fill-rule: nonzero; clip-rule: evenodd; stroke-linejoin: round;"><g class="stroke-shape"><path d="M220.05409240722656,35.622772216796875C220.05409240722656,35.622772216796875,223.40394592285156,48.560516357421875,220.10145568847656,47.318084716796875C216.79798889160156,46.075408935546875,220.07191467285156,36.325164794921875,220.07191467285156,36.325164794921875" style="fill: none; stroke-width: 0.527993; stroke: rgb(255, 255, 255); stroke-opacity: 1; stroke-linecap: round;"/></g></g></g><g id="shape-e32531b0-8f0e-8085-8008-26334089cb11" rx="0" ry="0" style="fill: rgb(0, 0, 0);"><g id="shape-e32531b0-8f0e-8085-8008-26334089cb17"><g class="fills" id="fills-e32531b0-8f0e-8085-8008-26334089cb17"><path d="M281.0863342285156,159.98593139648438C281.2552795410156,159.67684936523438,281.1424865722656,159.28890991210938,280.8356018066406,159.11886596679688L210.17469787597656,120.11947631835938C209.86610412597656,119.95053100585938,209.48060607910156,120.06417846679688,209.31117248535156,120.37326049804688L206.83168029785156,124.92306518554688C206.66224670410156,125.23214721679688,206.77528381347656,125.62167358398438,207.08216857910156,125.79037475585938L277.7425842285156,164.78976440429688C278.0516662597656,164.96005249023438,278.4371643066406,164.84640502929688,278.6065979003906,164.53732299804688L281.0863342285156,159.98593139648438Z" stroke-miterlimit="10" style="fill-rule: nonzero; clip-rule: evenodd; stroke-linejoin: round; fill: rgb(255, 154, 232);"/></g><g stroke-miterlimit="10" id="strokes-dc8a1b63-55c2-8062-8008-5db06cacf662-e32531b0-8f0e-8085-8008-26334089cb17" class="strokes" style="fill-rule: nonzero; clip-rule: evenodd; stroke-linejoin: round;"><g class="stroke-shape"><path d="M281.0863342285156,159.98593139648438C281.2552795410156,159.67684936523438,281.1424865722656,159.28890991210938,280.8356018066406,159.11886596679688L210.17469787597656,120.11947631835938C209.86610412597656,119.95053100585938,209.48060607910156,120.06417846679688,209.31117248535156,120.37326049804688L206.83168029785156,124.92306518554688C206.66224670410156,125.23214721679688,206.77528381347656,125.62167358398438,207.08216857910156,125.79037475585938L277.7425842285156,164.78976440429688C278.0516662597656,164.96005249023438,278.4371643066406,164.84640502929688,278.6065979003906,164.53732299804688L281.0863342285156,159.98593139648438Z" style="fill: none; stroke-width: 1.33017; stroke: rgb(255, 255, 255); stroke-opacity: 0.002; stroke-linecap: round;"/></g></g></g><g id="shape-e32531b0-8f0e-8085-8008-26334089cb18"><g class="fills" id="fills-e32531b0-8f0e-8085-8008-26334089cb18"><path d="M277.4071350097656,167.03829956054688C277.5765686035156,166.72921752929688,277.4637756347656,166.34127807617188,277.1564025878906,166.17111206054688L206.49598693847656,127.17184448242188C206.18910217285156,127.00155639648438,205.80189514160156,127.11495971679688,205.63270568847656,127.42562866210938L203.15296936035156,131.97518920898438C202.98353576660156,132.28451538085938,203.09657287597656,132.67245483398438,203.40370178222656,132.84274291992188L274.0641174316406,171.84213256835938C274.3729553222656,172.01083374023438,274.7584533691406,171.89877319335938,274.9273986816406,171.58810424804688L277.4071350097656,167.03829956054688Z" stroke-miterlimit="10" style="fill-rule: nonzero; clip-rule: evenodd; stroke-linejoin: round; fill: rgb(255, 154, 232);"/></g><g stroke-miterlimit="10" id="strokes-dc8a1b63-55c2-8062-8008-5db06cad086c-e32531b0-8f0e-8085-8008-26334089cb18" class="strokes" style="fill-rule: nonzero; clip-rule: evenodd; stroke-linejoin: round;"><g class="stroke-shape"><path d="M277.4071350097656,167.03829956054688C277.5765686035156,166.72921752929688,277.4637756347656,166.34127807617188,277.1564025878906,166.17111206054688L206.49598693847656,127.17184448242188C206.18910217285156,127.00155639648438,205.80189514160156,127.11495971679688,205.63270568847656,127.42562866210938L203.15296936035156,131.97518920898438C202.98353576660156,132.28451538085938,203.09657287597656,132.67245483398438,203.40370178222656,132.84274291992188L274.0641174316406,171.84213256835938C274.3729553222656,172.01083374023438,274.7584533691406,171.89877319335938,274.9273986816406,171.58810424804688L277.4071350097656,167.03829956054688Z" style="fill: none; stroke-width: 1.33017; stroke: rgb(255, 255, 255); stroke-opacity: 0.002; stroke-linecap: round;"/></g></g></g><g id="shape-e32531b0-8f0e-8085-8008-26334089cb19"><g class="fills" id="fills-e32531b0-8f0e-8085-8008-26334089cb19"><path d="M273.4151916503906,174.05624389648438C273.5846252441406,173.74716186523438,273.4718322753906,173.35751342773438,273.1644592285156,173.18881225585938L202.50404357910156,134.18954467773438C202.19520568847656,134.01925659179688,201.80946350097656,134.13265991210938,201.64027404785156,134.44174194335938L199.16053771972656,138.99288940429688C198.99159240722656,139.30209350585938,199.10414123535156,139.68991088867188,199.41151428222656,139.86044311523438L270.0719299316406,178.85971069335938C270.3805236816406,179.02828979492188,270.7660217285156,178.91488647460938,270.9354553222656,178.60580444335938L273.4151916503906,174.05624389648438Z" stroke-miterlimit="10" style="fill-rule: nonzero; clip-rule: evenodd; stroke-linejoin: round; fill: rgb(255, 154, 232);"/></g><g stroke-miterlimit="10" id="strokes-dc8a1b63-55c2-8062-8008-5db06cadb2e0-e32531b0-8f0e-8085-8008-26334089cb19" class="strokes" style="fill-rule: nonzero; clip-rule: evenodd; stroke-linejoin: round;"><g class="stroke-shape"><path d="M273.4151916503906,174.05624389648438C273.5846252441406,173.74716186523438,273.4718322753906,173.35751342773438,273.1644592285156,173.18881225585938L202.50404357910156,134.18954467773438C202.19520568847656,134.01925659179688,201.80946350097656,134.13265991210938,201.64027404785156,134.44174194335938L199.16053771972656,138.99288940429688C198.99159240722656,139.30209350585938,199.10414123535156,139.68991088867188,199.41151428222656,139.86044311523438L270.0719299316406,178.85971069335938C270.3805236816406,179.02828979492188,270.7660217285156,178.91488647460938,270.9354553222656,178.60580444335938L273.4151916503906,174.05624389648438Z" style="fill: none; stroke-width: 1.33017; stroke: rgb(255, 255, 255); stroke-opacity: 0.002; stroke-linecap: round;"/></g></g></g></g><g id="shape-e32531b0-8f0e-8085-8008-26334089cb12"><g class="fills" id="fills-e32531b0-8f0e-8085-8008-26334089cb12"><path d="M255.75843811035156,180.77743530273438C255.75843811035156,180.77743530273438,254.26942443847656,150.48873901367188,244.52137756347656,153.99191284179688C234.77308654785156,157.49325561523438,241.01991271972656,188.43234252929688,243.05506896972656,179.18246459960938C245.09095764160156,169.93270874023438,242.41761779785156,151.29904174804688,233.79579162597656,151.77682495117188C225.17420959472656,152.25314331054688,228.83851623535156,184.91329956054688,231.67201232910156,176.51535034179688C234.50672912597656,168.11898803710938,231.55580139160156,147.95736694335938,221.82020568847656,151.97665405273438C212.08485412597656,155.99594116210938,222.43983459472656,180.06771850585938,222.43983459472656,180.06771850585938" stroke-miterlimit="10" fill="none" style="fill-rule: nonzero; clip-rule: evenodd; stroke-linejoin: round; fill: none;"/></g><g stroke-miterlimit="10" fill="none" id="strokes-dc8a1b63-55c2-8062-8008-5db06cadda5f-e32531b0-8f0e-8085-8008-26334089cb12" class="strokes" style="fill-rule: nonzero; clip-rule: evenodd; stroke-linejoin: round;"><g class="stroke-shape"><path d="M255.75843811035156,180.77743530273438C255.75843811035156,180.77743530273438,254.26942443847656,150.48873901367188,244.52137756347656,153.99191284179688C234.77308654785156,157.49325561523438,241.01991271972656,188.43234252929688,243.05506896972656,179.18246459960938C245.09095764160156,169.93270874023438,242.41761779785156,151.29904174804688,233.79579162597656,151.77682495117188C225.17420959472656,152.25314331054688,228.83851623535156,184.91329956054688,231.67201232910156,176.51535034179688C234.50672912597656,168.11898803710938,231.55580139160156,147.95736694335938,221.82020568847656,151.97665405273438C212.08485412597656,155.99594116210938,222.43983459472656,180.06771850585938,222.43983459472656,180.06771850585938" style="fill: none; stroke-width: 0.794339; stroke: rgb(255, 255, 255); stroke-opacity: 1; stroke-linecap: round;"/></g></g></g><g id="shape-e32531b0-8f0e-8085-8008-26334089cb13"><g class="fills" id="fills-e32531b0-8f0e-8085-8008-26334089cb13"><path d="M267.4845275878906,84.58126831054688C267.4845275878906,84.58126831054688,266.2699279785156,94.88583374023438,254.61146545410156,93.38925170898438C242.95472717285156,91.89279174804688,244.05995178222656,79.79513549804688,244.05995178222656,79.79513549804688" stroke-miterlimit="10" fill="none" style="fill-rule: nonzero; clip-rule: evenodd; stroke-linejoin: round; fill: none;"/></g><g stroke-miterlimit="10" fill="none" id="strokes-dc8a1b63-55c2-8062-8008-5db06cae3449-e32531b0-8f0e-8085-8008-26334089cb13" class="strokes" style="fill-rule: nonzero; clip-rule: evenodd; stroke-linejoin: round;"><g class="stroke-shape"><path d="M267.4845275878906,84.58126831054688C267.4845275878906,84.58126831054688,266.2699279785156,94.88583374023438,254.61146545410156,93.38925170898438C242.95472717285156,91.89279174804688,244.05995178222656,79.79513549804688,244.05995178222656,79.79513549804688" style="fill: none; stroke-width: 2.64466; stroke: rgb(255, 255, 255); stroke-opacity: 1; stroke-linecap: round;"/></g></g></g><g id="shape-e32531b0-8f0e-8085-8008-26334089cb14"><g class="fills" id="fills-e32531b0-8f0e-8085-8008-26334089cb14"><path d="M264.8663635253906,78.75753784179688C266.3607482910156,75.92343139648438,265.2462463378906,72.33383178710938,262.3749084472656,70.73788452148438C259.5033264160156,69.14193725585938,255.96253967285156,70.14584350585938,254.46864318847656,72.98019409179688C252.97254943847656,75.81417846679688,254.08705139160156,79.40536499023438,256.9586486816406,80.99984741210938C259.8299865722656,82.59579467773438,263.3702697753906,81.59176635742188,264.8663635253906,78.75753784179688Z" stroke-miterlimit="10" fill="none" style="fill-rule: nonzero; clip-rule: evenodd; stroke-linejoin: round; fill: none;"/></g><g stroke-miterlimit="10" fill="none" id="strokes-dc8a1b63-55c2-8062-8008-5db06caeb801-e32531b0-8f0e-8085-8008-26334089cb14" class="strokes" style="fill-rule: nonzero; clip-rule: evenodd; stroke-linejoin: round;"><g class="stroke-shape"><path d="M264.8663635253906,78.75753784179688C266.3607482910156,75.92343139648438,265.2462463378906,72.33383178710938,262.3749084472656,70.73788452148438C259.5033264160156,69.14193725585938,255.96253967285156,70.14584350585938,254.46864318847656,72.98019409179688C252.97254943847656,75.81417846679688,254.08705139160156,79.40536499023438,256.9586486816406,80.99984741210938C259.8299865722656,82.59579467773438,263.3702697753906,81.59176635742188,264.8663635253906,78.75753784179688Z" style="fill: none; stroke-width: 2.0117; stroke: rgb(255, 255, 255); stroke-opacity: 1;"/></g></g></g><g id="shape-e32531b0-8f0e-8085-8008-26334089cb15"><g class="fills" id="fills-e32531b0-8f0e-8085-8008-26334089cb15"><path d="M177.86195373535156,105.41317749023438C180.19007873535156,102.81845092773438,184.19325256347656,102.63095092773438,186.80506896972656,104.99496459960938C189.41566467285156,107.35910034179688,189.64588928222656,111.37936401367188,187.31898498535156,113.97396850585938C184.99208068847656,116.56893920898438,180.98768615722656,116.75643920898438,178.37709045410156,114.39328002929688C175.76576232910156,112.02926635742188,175.53504943847656,108.00900268554688,177.86195373535156,105.41317749023438Z" stroke-miterlimit="10" style="fill-rule: nonzero; clip-rule: evenodd; stroke-linejoin: round; fill: rgb(255, 255, 255);"/></g><g stroke-miterlimit="10" id="strokes-dc8a1b63-55c2-8062-8008-5db06caec027-e32531b0-8f0e-8085-8008-26334089cb15" class="strokes" style="fill-rule: nonzero; clip-rule: evenodd; stroke-linejoin: round;"><g class="stroke-shape"><path d="M177.86195373535156,105.41317749023438C180.19007873535156,102.81845092773438,184.19325256347656,102.63095092773438,186.80506896972656,104.99496459960938C189.41566467285156,107.35910034179688,189.64588928222656,111.37936401367188,187.31898498535156,113.97396850585938C184.99208068847656,116.56893920898438,180.98768615722656,116.75643920898438,178.37709045410156,114.39328002929688C175.76576232910156,112.02926635742188,175.53504943847656,108.00900268554688,177.86195373535156,105.41317749023438Z" style="fill: none; stroke-width: 3.02094; stroke: rgb(74, 207, 203); stroke-opacity: 1;"/></g></g></g><g id="shape-e32531b0-8f0e-8085-8008-26334089cb16"><g class="fills" id="fills-e32531b0-8f0e-8085-8008-26334089cb16"><path d="M193.61976623535156,119.43234252929688C194.08216857910156,119.47177124023438,194.34388732910156,119.97018432617188,194.10707092285156,120.36178588867188L188.54505920410156,129.55404663085938C188.32875061035156,129.91232299804688,187.81922912597656,129.96249389648438,187.53407287597656,129.65475463867188L177.74964904785156,119.11068725585938C177.36341857910156,118.69479370117188,177.69984436035156,118.03048706054688,178.27333068847656,118.08078002929688L193.61976623535156,119.43234252929688Z" stroke-miterlimit="10" style="fill-rule: nonzero; clip-rule: evenodd; stroke-linejoin: round; fill: rgb(255, 154, 232);"/></g><g stroke-miterlimit="10" id="strokes-dc8a1b63-55c2-8062-8008-5db06caf3624-e32531b0-8f0e-8085-8008-26334089cb16" class="strokes" style="fill-rule: nonzero; clip-rule: evenodd; stroke-linejoin: round;"><g class="stroke-shape"><path d="M193.61976623535156,119.43234252929688C194.08216857910156,119.47177124023438,194.34388732910156,119.97018432617188,194.10707092285156,120.36178588867188L188.54505920410156,129.55404663085938C188.32875061035156,129.91232299804688,187.81922912597656,129.96249389648438,187.53407287597656,129.65475463867188L177.74964904785156,119.11068725585938C177.36341857910156,118.69479370117188,177.69984436035156,118.03048706054688,178.27333068847656,118.08078002929688L193.61976623535156,119.43234252929688Z" style="fill: none; stroke-width: 1.33017; stroke: rgb(255, 255, 255); stroke-opacity: 0.002; stroke-linecap: round;"/></g></g></g></g></g><g id="shape-e32531b0-8f0e-8085-8008-26334089cb04" rx="0" ry="0" style="fill: rgb(0, 0, 0);"><g id="shape-e32531b0-8f0e-8085-8008-26334089cb1a" rx="0" ry="0" style="fill: rgb(0, 0, 0);"><g id="shape-e32531b0-8f0e-8085-8008-26334089cb24" style="opacity: 1;"><g class="fills" id="fills-e32531b0-8f0e-8085-8008-26334089cb24"><path d="M101.77308654785156,104.67416381835938C101.77308654785156,103.07516479492188,103.07557678222656,101.77999877929688,104.68031311035156,101.77999877929688L168.94862365722656,101.77999877929688C170.55506896972656,101.77999877929688,171.85585021972656,103.07516479492188,171.85585021972656,104.67416381835938L171.85585021972656,141.03988647460938C171.85585021972656,142.63754272460938,170.55506896972656,143.93417358398438,168.94862365722656,143.93417358398438L104.68031311035156,143.93417358398438C103.07557678222656,143.93417358398438,101.77308654785156,142.63754272460938,101.77308654785156,141.03988647460938L101.77308654785156,104.67416381835938L101.77308654785156,104.67416381835938" stroke-miterlimit="10" style="fill-rule: nonzero; clip-rule: evenodd; stroke-linejoin: round; fill: rgb(83, 9, 205);"/></g><g stroke-miterlimit="10" id="strokes-dc8a1b63-55c2-8062-8008-5db06cafc8c8-e32531b0-8f0e-8085-8008-26334089cb24" class="strokes" style="fill-rule: nonzero; clip-rule: evenodd; stroke-linejoin: round;"><g class="stroke-shape"><path d="M101.77308654785156,104.67416381835938C101.77308654785156,103.07516479492188,103.07557678222656,101.77999877929688,104.68031311035156,101.77999877929688L168.94862365722656,101.77999877929688C170.55506896972656,101.77999877929688,171.85585021972656,103.07516479492188,171.85585021972656,104.67416381835938L171.85585021972656,141.03988647460938C171.85585021972656,142.63754272460938,170.55506896972656,143.93417358398438,168.94862365722656,143.93417358398438L104.68031311035156,143.93417358398438C103.07557678222656,143.93417358398438,101.77308654785156,142.63754272460938,101.77308654785156,141.03988647460938L101.77308654785156,104.67416381835938L101.77308654785156,104.67416381835938" style="fill: none; stroke-width: 0.0144623; stroke: rgb(231, 68, 188); stroke-opacity: 1;"/></g></g></g><g id="shape-e32531b0-8f0e-8085-8008-26334089cb25"><g class="fills" id="fills-e32531b0-8f0e-8085-8008-26334089cb25"><path d="M106.87513732910156,131.63815307617188L153.56898498535156,131.46725463867188" stroke-miterlimit="10" fill="none" style="fill-rule: nonzero; clip-rule: evenodd; stroke-linejoin: round; fill: none;"/></g><g stroke-miterlimit="10" fill="none" id="strokes-dc8a1b63-55c2-8062-8008-5db06cb011c0-e32531b0-8f0e-8085-8008-26334089cb25" class="strokes" style="fill-rule: nonzero; clip-rule: evenodd; stroke-linejoin: round;"><g class="stroke-shape"><path d="M106.87513732910156,131.63815307617188L153.56898498535156,131.46725463867188" style="fill: none; stroke-width: 2.35013; stroke: rgb(255, 154, 232); stroke-opacity: 1; stroke-linecap: round;"/></g></g></g><g id="shape-e32531b0-8f0e-8085-8008-26334089cb26"><g class="fills" id="fills-e32531b0-8f0e-8085-8008-26334089cb26"><path d="M107.74891662597656,136.66964721679688L127.61488342285156,136.90975952148438" stroke-miterlimit="10" fill="none" style="fill-rule: nonzero; clip-rule: evenodd; stroke-linejoin: round; fill: none;"/></g><g stroke-miterlimit="10" fill="none" id="strokes-dc8a1b63-55c2-8062-8008-5db06cb0a53b-e32531b0-8f0e-8085-8008-26334089cb26" class="strokes" style="fill-rule: nonzero; clip-rule: evenodd; stroke-linejoin: round;"><g class="stroke-shape"><path d="M107.74891662597656,136.66964721679688L127.61488342285156,136.90975952148438" style="fill: none; stroke-width: 4.37919; stroke: rgb(62, 229, 255); stroke-opacity: 1; stroke-linecap: round;"/></g></g></g><g id="shape-e32531b0-8f0e-8085-8008-26334089cb27"><g class="fills" id="fills-e32531b0-8f0e-8085-8008-26334089cb27"><path d="M115.42005920410156,108.61325073242188L111.54017639160156,113.07736206054688L115.24867248535156,117.58676147460938" stroke-miterlimit="10" fill="none" style="fill-rule: nonzero; clip-rule: evenodd; stroke-linejoin: round; fill: none;"/></g><g stroke-miterlimit="10" fill="none" id="strokes-dc8a1b63-55c2-8062-8008-5db06cb0dda6-e32531b0-8f0e-8085-8008-26334089cb27" class="strokes" style="fill-rule: nonzero; clip-rule: evenodd; stroke-linejoin: round;"><g class="stroke-shape"><path d="M115.42005920410156,108.61325073242188L111.54017639160156,113.07736206054688L115.24867248535156,117.58676147460938" style="fill: none; stroke-width: 1.88589; stroke: rgb(255, 255, 255); stroke-opacity: 1; stroke-linecap: round;"/></g></g></g><g id="shape-e32531b0-8f0e-8085-8008-26334089cb28"><g class="fills" id="fills-e32531b0-8f0e-8085-8008-26334089cb28"><path d="M128.41883850097656,117.58810424804688L132.18666076660156,113.03854370117188L128.36805725097656,108.61325073242188" stroke-miterlimit="10" fill="none" style="fill-rule: nonzero; clip-rule: evenodd; stroke-linejoin: round; fill: none;"/></g><g stroke-miterlimit="10" fill="none" id="strokes-dc8a1b63-55c2-8062-8008-5db06cb139d7-e32531b0-8f0e-8085-8008-26334089cb28" class="strokes" style="fill-rule: nonzero; clip-rule: evenodd; stroke-linejoin: round;"><g class="stroke-shape"><path d="M128.41883850097656,117.58810424804688L132.18666076660156,113.03854370117188L128.36805725097656,108.61325073242188" style="fill: none; stroke-width: 1.88589; stroke: rgb(255, 255, 255); stroke-opacity: 1; stroke-linecap: round;"/></g></g></g><g id="shape-e32531b0-8f0e-8085-8008-26334089cb29"><g class="fills" id="fills-e32531b0-8f0e-8085-8008-26334089cb29"><path d="M119.37269592285156,117.58676147460938L124.72474670410156,109.52621459960938" stroke-miterlimit="10" fill="none" style="fill-rule: nonzero; clip-rule: evenodd; stroke-linejoin: round; fill: none;"/></g><g stroke-miterlimit="10" fill="none" id="strokes-dc8a1b63-55c2-8062-8008-5db06cb139d8-e32531b0-8f0e-8085-8008-26334089cb29" class="strokes" style="fill-rule: nonzero; clip-rule: evenodd; stroke-linejoin: round;"><g class="stroke-shape"><path d="M119.37269592285156,117.58676147460938L124.72474670410156,109.52621459960938" style="fill: none; stroke-width: 1.88589; stroke: rgb(255, 255, 255); stroke-opacity: 1; stroke-linecap: round;"/></g></g></g><g id="shape-e32531b0-8f0e-8085-8008-26334089cb2a"><g class="fills" id="fills-e32531b0-8f0e-8085-8008-26334089cb2a"><path d="M136.81532287597656,115.36386108398438C136.82093811035156,113.87203979492188,138.01869201660156,112.66659545898438,139.49134826660156,112.67233276367188C140.96400451660156,112.67672729492188,142.15467834472656,113.89083862304688,142.14857482910156,115.38278198242188C142.14295959472656,116.87619018554688,140.94374084472656,118.08163452148438,139.47108459472656,118.07589721679688C137.99842834472656,118.07003784179688,136.80921936035156,116.85592651367188,136.81532287597656,115.36386108398438Z" stroke-miterlimit="10" style="fill-rule: nonzero; clip-rule: evenodd; stroke-linejoin: round; fill: rgb(80, 15, 185);"/></g></g><g id="shape-e32531b0-8f0e-8085-8008-26334089cb2b"><g class="fills" id="fills-e32531b0-8f0e-8085-8008-26334089cb2b"><path d="M157.25819396972656,115.57247924804688C157.26380920410156,114.07882690429688,158.46205139160156,112.87496948242188,159.93421936035156,112.87936401367188C161.40687561035156,112.88510131835938,162.59754943847656,114.09921264648438,162.59169006347656,115.59115600585938C162.58583068847656,117.08322143554688,161.38685607910156,118.28854370117188,159.91371154785156,118.28280639648438C158.44154357910156,118.27841186523438,157.25233459472656,117.06430053710938,157.25819396972656,115.57247924804688Z" stroke-miterlimit="10" style="fill-rule: nonzero; clip-rule: evenodd; stroke-linejoin: round; fill: rgb(62, 229, 255);"/></g></g><g id="shape-e32531b0-8f0e-8085-8008-26334089cb2c"><g class="fills" id="fills-e32531b0-8f0e-8085-8008-26334089cb2c"><path d="M146.97792053222656,115.57247924804688C146.98353576660156,114.07882690429688,148.18275451660156,112.87496948242188,149.65541076660156,112.87936401367188C151.12806701660156,112.88510131835938,152.31727600097656,114.09921264648438,152.31166076660156,115.59115600585938C152.30531311035156,117.08322143554688,151.10780334472656,118.28854370117188,149.63514709472656,118.28280639648438C148.16249084472656,118.27841186523438,146.97206115722656,117.06430053710938,146.97792053222656,115.57247924804688Z" stroke-miterlimit="10" style="fill-rule: nonzero; clip-rule: evenodd; stroke-linejoin: round; fill: rgb(255, 255, 255);"/></g></g><g id="shape-e32531b0-8f0e-8085-8008-26334089cb2d"><g class="fills" id="fills-e32531b0-8f0e-8085-8008-26334089cb2d"><path d="M134.20741271972656,136.87228393554688L165.08216857910156,137.07492065429688" stroke-miterlimit="10" fill="none" style="fill-rule: nonzero; clip-rule: evenodd; stroke-linejoin: round; fill: none;"/></g><g stroke-miterlimit="10" fill="none" id="strokes-dc8a1b63-55c2-8062-8008-5db06cb23321-e32531b0-8f0e-8085-8008-26334089cb2d" class="strokes" style="fill-rule: nonzero; clip-rule: evenodd; stroke-linejoin: round;"><g class="stroke-shape"><path d="M134.20741271972656,136.87228393554688L165.08216857910156,137.07492065429688" style="fill: none; stroke-width: 3.28584; stroke: rgb(231, 68, 188); stroke-opacity: 1; stroke-linecap: round;"/></g></g></g></g><g id="shape-e32531b0-8f0e-8085-8008-26334089cb1b" rx="0" ry="0" style="fill: rgb(0, 0, 0);"><g id="shape-e32531b0-8f0e-8085-8008-26334089cb2e"><g class="fills" id="fills-e32531b0-8f0e-8085-8008-26334089cb2e"><path d="M141.43910217285156,124.95529174804688C89.40956115722656,124.79330444335938,104.77015686035156,127.54989624023438,67.60731506347656,155.28231811523438C49.56849670410156,168.74337768554688,18.196670532226562,154.17831420898438,18.196670532226562,181.92941284179688C18.196670532226562,189.74386596679688,23.421279907226562,192.47140502929688,27.453750610351562,192.63217163085938" stroke-miterlimit="10" fill="none" style="fill-rule: nonzero; clip-rule: evenodd; stroke-linejoin: round; fill: none;"/></g><g stroke-miterlimit="10" fill="none" id="strokes-dc8a1b63-55c2-8062-8008-5db06cb2a740-e32531b0-8f0e-8085-8008-26334089cb2e" class="strokes" style="fill-rule: nonzero; clip-rule: evenodd; stroke-linejoin: round;"><g class="stroke-shape"><path d="M141.43910217285156,124.95529174804688C89.40956115722656,124.79330444335938,104.77015686035156,127.54989624023438,67.60731506347656,155.28231811523438C49.56849670410156,168.74337768554688,18.196670532226562,154.17831420898438,18.196670532226562,181.92941284179688C18.196670532226562,189.74386596679688,23.421279907226562,192.47140502929688,27.453750610351562,192.63217163085938" style="fill: none; stroke-width: 2.35013; stroke: rgb(236, 48, 193); stroke-opacity: 1; stroke-linecap: round;"/></g></g></g></g><g id="shape-e32531b0-8f0e-8085-8008-26334089cb1c" style="opacity: 1;"><g class="fills" id="fills-e32531b0-8f0e-8085-8008-26334089cb1c"><path d="M94.16419982910156,57.805877685546875C93.87953186035156,57.660491943359375,93.53041076660156,57.852996826171875,93.48280334472656,58.167694091796875C93.43885803222656,58.458831787109375,93.30238342285156,58.965667724609375,93.02919006347656,59.659881591796875C92.56825256347656,60.826873779296875,91.89955139160156,62.005706787109375,90.93861389160156,63.096893310546875C89.75843811035156,64.43746948242188,88.24183654785156,65.59213256835938,86.35072326660156,66.44320678710938C85.04554748535156,67.03073120117188,83.88417053222656,67.14877319335938,82.62538146972656,66.94088745117188C82.08558654785156,66.85165405273438,81.53773498535156,66.68173217773438,80.80799865722656,66.44320678710938C80.44593811035156,66.32443237304688,79.03749084472656,65.87167358398438,78.71888732910156,65.76498413085938C73.34364318847656,63.967620849609375,68.25257873535156,63.760833740234375,59.82118225097656,66.12680053710938C44.22206115722656,70.50387573242188,38.79115295410156,87.14987182617188,39.78822326660156,110.12838745117188C40.05873107910156,116.36825561523438,40.94349670410156,122.13925170898438,42.19544982910156,127.31259155273438C42.73475646972656,129.54281616210938,43.29750061035156,131.49618530273438,43.87586975097656,133.19088745117188C44.07972717285156,133.78561401367188,44.25062561035156,134.33541870117188,44.42127990722656,134.77401733398438C44.52430725097656,135.03878784179688,44.60829162597656,135.22262573242188,44.64759826660156,135.31674194335938C46.04774475097656,138.72457885742188,47.61488342285156,141.74325561523438,49.37220764160156,144.54183959960938C52.00941467285156,148.73849487304688,59.60731506347656,157.53854370117188,60.32142639160156,158.83212280273438C61.00599670410156,160.07516479492188,61.29383850097656,161.20529174804688,61.27479553222656,162.44992065429688C61.17616271972656,168.85775756835938,56.22352600097656,172.33651733398438,39.69667053222656,177.55343627929688C33.24647521972656,179.59091186523438,29.179336547851562,184.23739624023438,27.068496704101562,190.66842651367188C25.597549438476562,195.14730834960938,25.257217407226562,199.81259155273438,25.523330688476562,203.87338256835938C25.550674438476562,204.28842163085938,25.549453735351562,204.57357788085938,25.568252563476562,204.73300170898438C25.594375610351562,204.95578002929688,25.797744750976562,205.16989135742188,26.023086547851562,205.18441772460938C26.217910766601562,205.19747924804688,42.84388732910156,206.14535522460938,44.37586975097656,206.22482299804688C51.24037170410156,206.58065795898438,56.51136779785156,206.80807495117188,59.63954162597656,206.81246948242188C59.91395568847656,206.81246948242188,69.87196350097656,206.49984741210938,69.99696350097656,206.49545288085938C72.16883850097656,206.42465209960938,79.70179748535156,206.18417358398438,79.85462951660156,206.18002319335938C79.90638732910156,206.19015502929688,80.11903381347656,206.19308471679688,80.44471740722656,206.22482299804688C80.98841857910156,206.27841186523438,86.61976623535156,206.77755737304688,89.03163146972656,206.94845581054688C95.43055725097656,207.39987182617188,101.79310607910156,207.67929077148438,107.74769592285156,207.71688842773438C116.57557678222656,207.77182006835938,123.71766662597656,207.25949096679688,128.64418029785156,206.08883666992188C138.55360412597656,203.73300170898438,147.77870178222656,198.54660034179688,152.71986389160156,191.66268920898438C158.84437561035156,183.13339233398438,158.24232482910156,172.65487670898438,149.63099670410156,160.86679077148438C143.87562561035156,152.98873901367188,136.58998107910156,149.61264038085938,128.05238342285156,149.96871948242188C121.31019592285156,150.24923706054688,114.31532287597656,152.75424194335938,106.33900451660156,157.06808471679688C105.14979553222656,157.71054077148438,94.92323303222656,163.76242065429688,93.75575256347656,164.03292846679688C91.08094787597656,164.64938354492188,89.07630920410156,163.95187377929688,87.62269592285156,162.40487670898438C87.23890686035156,161.99691772460938,86.91761779785156,161.57577514648438,86.66932678222656,161.13864135742188C86.52088928222656,160.87973022460938,86.43641662597656,160.65414428710938,86.39588928222656,160.54977416992188C86.36708068847656,160.47604370117188,86.27113342285156,160.50936889648438,86.21424865722656,160.46017456054688C88.02406311035156,159.70602416992188,89.76087951660156,158.72640991210938,91.39393615722656,157.56588745117188C97.09803771972656,153.51254272460938,100.95863342285156,147.41867065429688,101.29579162597656,142.09909057617188C101.57337951660156,137.72763061523438,100.48963928222656,135.12704467773438,97.75331115722656,131.56283569335938C97.68544006347656,131.47457885742188,97.06312561035156,130.70455932617188,96.89027404785156,130.47750854492188C94.92884826660156,127.90316772460938,94.25306701660156,126.18832397460938,94.43641662597656,123.60385131835938C94.70643615722656,119.82821655273438,94.48866271972656,116.31332397460938,94.02772521972656,113.20333862304688C93.92030334472656,112.47274780273438,93.82704162597656,111.81845092773438,93.70936584472656,111.25839233398438C93.70106506347656,111.21078491210938,93.67445373535156,111.21224975585938,93.66444396972656,111.16744995117188C94.75282287597656,111.19918823242188,96.09339904785156,111.16879272460938,97.66200256347656,110.98641967773438C100.15199279785156,110.69833374023438,102.65834045410156,110.11227416992188,105.11170959472656,109.17770385742188C107.48426818847656,108.27462768554688,109.83778381347656,106.55099487304688,112.10853576660156,104.29367065429688C113.31947326660156,103.08969116210938,114.43421936035156,101.82919311523438,115.42420959472656,100.54135131835938C115.77064514160156,100.08981323242188,116.06849670410156,99.65133666992188,116.33290100097656,99.27499389648438C116.49110412597656,99.04623413085938,116.59315490722656,98.86703491210938,116.65150451660156,98.77719116210938C116.72840881347656,98.65841674804688,116.73988342285156,98.54867553710938,116.69618225097656,98.41537475585938L114.15223693847656,90.68197631835938C114.02455139160156,90.29562377929688,113.48524475097656,90.23495483398438,113.28895568847656,90.59237670898438C113.23646545410156,90.68637084960938,113.12196350097656,90.87887573242188,112.97084045410156,91.13497924804688C112.71766662597656,91.56185913085938,112.44178771972656,92.02206420898438,112.10853576660156,92.53573608398438C111.15345764160156,94.00619506835938,110.09364318847656,95.46334838867188,108.92762756347656,96.83236694335938C106.64393615722656,99.51669311523438,104.29627990722656,101.50802612304688,101.97816467285156,102.43978881835938C98.35682678222656,103.89559936523438,94.92323303222656,104.05343627929688,92.02870178222656,103.48019409179688C91.48377990722656,103.37179565429688,91.08534240722656,103.27621459960938,90.89369201660156,103.20822143554688L87.84950256347656,100.81185913085938C88.60389709472656,100.80453491210938,89.30043029785156,100.82199096679688,90.25672912597656,100.76693725585938C92.39686584472656,100.64254760742188,94.50184631347656,100.38778686523438,96.48158264160156,99.99862670898438C99.25526428222656,99.45285034179688,101.58973693847656,98.65573120117188,103.33973693847656,97.55575561523438C105.92445373535156,95.93368530273438,108.31727600097656,93.46774291992188,110.47328186035156,90.54598999023438C111.16810607910156,89.60409545898438,111.80043029785156,88.69943237304688,112.33509826660156,87.83273315429688C112.65663146972656,87.31185913085938,112.89930725097656,86.91976928710938,113.01722717285156,86.70260620117188C113.09095764160156,86.56369018554688,113.09266662597656,86.38864135742188,113.01722717285156,86.25094604492188L109.10975646972656,79.19589233398438C108.91761779785156,78.85006713867188,108.38978576660156,78.87313842773438,108.24623107910156,79.24105834960938C108.19398498535156,79.37484741210938,108.07020568847656,79.62948608398438,107.88294982910156,80.00985717773438C107.56849670410156,80.65084838867188,107.19203186035156,81.38168334960938,106.70228576660156,82.18038940429688C105.29652404785156,84.47250366210938,103.43885803222656,86.87911987304688,101.06947326660156,89.27975463867188C96.75184631347656,93.65451049804688,89.69862365722656,93.90487670898438,79.17274475097656,91.90353393554688C75.89906311035156,91.27975463867188,73.73744201660156,91.73715209960938,72.49598693847656,92.89755249023438C72.10487365722656,93.26376342773438,71.98866271972656,93.57333374023438,71.85951232910156,93.89315795898438L66.54481506347656,93.44039916992188C66.51136779785156,93.35787963867188,66.49232482910156,93.29269409179688,66.45301818847656,93.16976928710938C66.17982482910156,92.28695678710938,66.17543029785156,91.36080932617188,66.58949279785156,90.50119018554688C66.87757873535156,89.90646362304688,67.36878967285156,89.38265991210938,68.08827209472656,88.91818237304688C69.37660217285156,88.08883666992188,70.12782287597656,88.17721557617188,76.81044006347656,89.46078491210938C81.82533264160156,90.42465209960938,85.48451232910156,90.75302124023438,89.71180725097656,90.32015991210938C94.41297912597656,89.83981323242188,98.65150451660156,86.81979370117188,102.34144592285156,82.13558959960938C103.74549865722656,80.35153198242188,104.97206115722656,78.43673706054688,106.02088928222656,76.52792358398438C106.38807678222656,75.85958862304688,106.70668029785156,75.23153686523438,106.97425842285156,74.67367553710938C107.13685607910156,74.33724975585938,107.23597717285156,74.12704467773438,107.29286193847656,73.99545288085938C107.35072326660156,73.86203002929688,107.36537170410156,73.71469116210938,107.29286193847656,73.58822631835938L103.29481506347656,66.57907104492188C103.11488342285156,66.26242065429688,102.65541076660156,66.26083374023438,102.47767639160156,66.57907104492188C102.41273498535156,66.69467163085938,102.29896545410156,66.90194702148438,102.11439514160156,67.21212768554688C101.80360412597656,67.73056030273438,101.43104553222656,68.30722045898438,101.02406311035156,68.93051147460938C99.85975646972656,70.71090698242188,98.56752014160156,72.47140502929688,97.16200256347656,74.13107299804688C93.79969787597656,78.10189819335938,90.36463928222656,80.75631713867188,87.12294006347656,81.45675659179688C85.69837951660156,81.76510620117188,84.20082092285156,81.83444213867188,82.53529357910156,81.68258666992188C80.80482482910156,81.52474975585938,79.34535217285156,81.23117065429688,76.35682678222656,80.50753784179688C69.42738342285156,78.83065795898438,66.60975646972656,78.64767456054688,63.27381896972656,80.50753784179688C60.76478576660156,81.90682983398438,59.12635803222656,84.17306518554688,58.18592834472656,87.06430053710938C57.36732482910156,89.58090209960938,57.16810607910156,92.19430541992188,57.32240295410156,94.48080444335938C57.32850646972656,94.56185913085938,57.31654357910156,94.59652709960938,57.32240295410156,94.66159057617188L52.68959045410156,96.24484252929688C52.47572326660156,92.85275268554688,52.93983459472656,88.83700561523438,54.59657287597656,84.98495483398438C56.00257873535156,81.71725463867188,58.11878967285156,78.99508666992188,61.13832092285156,76.98019409179688C66.20765686035156,73.59652709960938,69.92860412597656,73.34371948242188,76.44667053222656,74.80941772460938C76.70301818847656,74.86679077148438,76.83119201660156,74.87033081054688,77.35585021972656,74.99020385742188C81.66981506347656,75.97714233398438,83.73158264160156,76.27023315429688,86.48768615722656,75.98532104492188C90.43714904785156,75.57711791992188,93.92030334472656,72.91891479492188,96.89027404785156,68.79476928710938C98.01332092285156,67.23410034179688,98.97450256347656,65.58041381835938,99.79750061035156,63.910736083984375C100.08534240722656,63.326507568359375,100.35975646972656,62.770965576171875,100.56922912597656,62.282806396484375C100.69544982910156,61.988250732421875,100.75257873535156,61.810760498046875,100.79603576660156,61.695037841796875C100.88050842285156,61.473724365234375,100.78138732910156,61.215179443359375,100.56922912597656,61.107025146484375L94.16419982910156,57.805877685546875L94.16419982910156,57.805877685546875" stroke-miterlimit="10" style="fill-rule: nonzero; clip-rule: evenodd; stroke-linejoin: round; fill: rgb(20, 217, 212);"/></g></g><g id="shape-e32531b0-8f0e-8085-8008-26334089cb1d"><g class="fills" id="fills-e32531b0-8f0e-8085-8008-26334089cb1d"><path d="M86.26185607910156,160.06784057617188C81.23548889160156,161.49911499023438,75.31312561035156,161.55856323242188,69.09730529785156,159.64682006835938" stroke-miterlimit="10" fill="none" style="fill-rule: nonzero; clip-rule: evenodd; stroke-linejoin: round; fill: none;"/></g><g stroke-miterlimit="10" fill="none" id="strokes-dc8a1b63-55c2-8062-8008-5db06cb38170-e32531b0-8f0e-8085-8008-26334089cb1d" class="strokes" style="fill-rule: nonzero; clip-rule: evenodd; stroke-linejoin: round;"><g class="stroke-shape"><path d="M86.26185607910156,160.06784057617188C81.23548889160156,161.49911499023438,75.31312561035156,161.55856323242188,69.09730529785156,159.64682006835938" style="fill: none; stroke-width: 0.929927; stroke: rgb(255, 255, 255); stroke-opacity: 1; stroke-linecap: round;"/></g></g></g><g id="shape-e32531b0-8f0e-8085-8008-26334089cb1e" rx="0" ry="0" style="fill: rgb(0, 0, 0);"><g id="shape-e32531b0-8f0e-8085-8008-26334089cb2f"><g class="fills" id="fills-e32531b0-8f0e-8085-8008-26334089cb2f"><path d="M85.30409240722656,187.81478881835938C85.30409240722656,187.35739135742188,85.67640686035156,186.98703002929688,86.13539123535156,186.98703002929688L94.96253967285156,186.98703002929688C95.42201232910156,186.98703002929688,95.79505920410156,187.35739135742188,95.79505920410156,187.81478881835938L95.79505920410156,195.98947143554688C95.79505920410156,196.44821166992188,95.42201232910156,196.81857299804688,94.96253967285156,196.81857299804688L86.13539123535156,196.81857299804688C85.67640686035156,196.81857299804688,85.30409240722656,196.44821166992188,85.30409240722656,195.98947143554688L85.30409240722656,187.81478881835938Z" stroke-miterlimit="10" style="fill-rule: nonzero; clip-rule: evenodd; stroke-linejoin: round; fill: rgb(83, 9, 205); fill-opacity: 0.043;"/></g><g stroke-miterlimit="10" id="strokes-dc8a1b63-55c2-8062-8008-5db06cb41ccc-e32531b0-8f0e-8085-8008-26334089cb2f" class="strokes" style="fill-rule: nonzero; clip-rule: evenodd; stroke-linejoin: round;"><g class="stroke-shape"><path d="M85.30409240722656,187.81478881835938C85.30409240722656,187.35739135742188,85.67640686035156,186.98703002929688,86.13539123535156,186.98703002929688L94.96253967285156,186.98703002929688C95.42201232910156,186.98703002929688,95.79505920410156,187.35739135742188,95.79505920410156,187.81478881835938L95.79505920410156,195.98947143554688C95.79505920410156,196.44821166992188,95.42201232910156,196.81857299804688,94.96253967285156,196.81857299804688L86.13539123535156,196.81857299804688C85.67640686035156,196.81857299804688,85.30409240722656,196.44821166992188,85.30409240722656,195.98947143554688L85.30409240722656,187.81478881835938Z" style="fill: none; stroke-width: 0.43387; stroke: rgb(83, 9, 205); stroke-opacity: 1; stroke-linecap: round;"/></g></g></g><g id="shape-e32531b0-8f0e-8085-8008-26334089cb30"><g class="fills" id="fills-e32531b0-8f0e-8085-8008-26334089cb30"><path d="M97.76356506347656,198.71725463867188C97.76356506347656,198.25985717773438,98.13587951660156,197.88961791992188,98.59657287597656,197.88961791992188L107.42201232910156,197.88961791992188C107.88294982910156,197.88961791992188,108.25502014160156,198.25985717773438,108.25502014160156,198.71725463867188L108.25502014160156,206.89193725585938C108.25502014160156,207.35067749023438,107.88294982910156,207.72103881835938,107.42201232910156,207.72103881835938L98.59657287597656,207.72103881835938C98.13587951660156,207.72103881835938,97.76356506347656,207.35067749023438,97.76356506347656,206.89193725585938L97.76356506347656,198.71725463867188Z" stroke-miterlimit="10" style="fill-rule: nonzero; clip-rule: evenodd; stroke-linejoin: round; fill: rgb(250, 90, 207);"/></g></g><g id="shape-e32531b0-8f0e-8085-8008-26334089cb31"><g class="fills" id="fills-e32531b0-8f0e-8085-8008-26334089cb31"><path d="M62.05848693847656,198.71725463867188C62.05848693847656,198.25985717773438,62.43226623535156,197.88961791992188,62.89149475097656,197.88961791992188L71.71669006347656,197.88961791992188C72.17762756347656,197.88961791992188,72.54945373535156,198.25985717773438,72.54945373535156,198.71725463867188L72.54945373535156,206.89193725585938C72.54945373535156,207.35067749023438,72.17762756347656,207.72103881835938,71.71669006347656,207.72103881835938L62.89149475097656,207.72103881835938C62.43226623535156,207.72103881835938,62.05848693847656,207.35067749023438,62.05848693847656,206.89193725585938L62.05848693847656,198.71725463867188Z" stroke-miterlimit="10" style="fill-rule: nonzero; clip-rule: evenodd; stroke-linejoin: round; fill: rgb(83, 9, 205);"/></g></g><g id="shape-e32531b0-8f0e-8085-8008-26334089cb32"><g class="fills" id="fills-e32531b0-8f0e-8085-8008-26334089cb32"><path d="M74.96571350097656,198.71725463867188C74.96571350097656,198.25985717773438,75.33949279785156,197.88961791992188,75.79872131347656,197.88961791992188L84.62391662597656,197.88961791992188C85.08485412597656,197.88961791992188,85.45668029785156,198.25985717773438,85.45668029785156,198.71725463867188L85.45668029785156,206.89193725585938C85.45668029785156,207.35067749023438,85.08485412597656,207.72103881835938,84.62391662597656,207.72103881835938L75.79872131347656,207.72103881835938C75.33949279785156,207.72103881835938,74.96571350097656,207.35067749023438,74.96571350097656,206.89193725585938L74.96571350097656,198.71725463867188Z" stroke-miterlimit="10" style="fill-rule: nonzero; clip-rule: evenodd; stroke-linejoin: round; fill: rgb(255, 154, 232);"/></g></g><g id="shape-e32531b0-8f0e-8085-8008-26334089cb33"><g class="fills" id="fills-e32531b0-8f0e-8085-8008-26334089cb33"><path d="M49.29359436035156,184.76278686523438C49.29359436035156,184.30551147460938,49.66566467285156,183.93368530273438,50.12660217285156,183.93368530273438L58.95228576660156,183.93368530273438C59.41151428222656,183.93368530273438,59.78480529785156,184.30551147460938,59.78480529785156,184.76278686523438L59.78480529785156,192.93746948242188C59.78480529785156,193.39486694335938,59.41151428222656,193.76657104492188,58.95228576660156,193.76657104492188L50.12660217285156,193.76657104492188C49.66566467285156,193.76657104492188,49.29359436035156,193.39486694335938,49.29359436035156,192.93746948242188L49.29359436035156,184.76278686523438Z" stroke-miterlimit="10" style="fill-rule: nonzero; clip-rule: evenodd; stroke-linejoin: round; fill: rgb(83, 9, 205);"/></g></g></g><g id="shape-e32531b0-8f0e-8085-8008-26334089cb1f"><g class="fills" id="fills-e32531b0-8f0e-8085-8008-26334089cb1f"><path d="M136.06800842285156,164.91854858398438C136.06800842285156,164.91854858398438,122.23793029785156,154.06686401367188,111.83680725097656,162.93319702148438C101.43397521972656,171.79806518554688,85.97596740722656,185.32565307617188,90.95594787597656,188.38912963867188C95.93470764160156,191.45419311523438,124.23353576660156,176.59249877929688,120.25233459472656,171.24826049804688C116.27040100097656,165.90414428710938,104.58265686035156,179.60104370117188,109.81166076660156,183.22311401367188C115.03919982910156,186.84664916992188,132.44520568847656,184.82943725585938,128.05116271972656,181.75704956054688C123.65663146972656,178.68649291992188,105.89979553222656,184.61947631835938,109.20399475097656,189.01010131835938C112.50672912597656,193.40060424804688,123.21302795410156,190.66989135742188,123.21302795410156,190.66989135742188" stroke-miterlimit="10" fill="none" style="fill-rule: nonzero; clip-rule: evenodd; stroke-linejoin: round; fill: none;"/></g><g stroke-miterlimit="10" fill="none" id="strokes-dc8a1b63-55c2-8062-8008-5db06cb51105-e32531b0-8f0e-8085-8008-26334089cb1f" class="strokes" style="fill-rule: nonzero; clip-rule: evenodd; stroke-linejoin: round;"><g class="stroke-shape"><path d="M136.06800842285156,164.91854858398438C136.06800842285156,164.91854858398438,122.23793029785156,154.06686401367188,111.83680725097656,162.93319702148438C101.43397521972656,171.79806518554688,85.97596740722656,185.32565307617188,90.95594787597656,188.38912963867188C95.93470764160156,191.45419311523438,124.23353576660156,176.59249877929688,120.25233459472656,171.24826049804688C116.27040100097656,165.90414428710938,104.58265686035156,179.60104370117188,109.81166076660156,183.22311401367188C115.03919982910156,186.84664916992188,132.44520568847656,184.82943725585938,128.05116271972656,181.75704956054688C123.65663146972656,178.68649291992188,105.89979553222656,184.61947631835938,109.20399475097656,189.01010131835938C112.50672912597656,193.40060424804688,123.21302795410156,190.66989135742188,123.21302795410156,190.66989135742188" style="fill: none; stroke-width: 0.929927; stroke: rgb(255, 255, 255); stroke-opacity: 1; stroke-linecap: round;"/></g></g></g><g id="shape-e32531b0-8f0e-8085-8008-26334089cb20"><g class="fills" id="fills-e32531b0-8f0e-8085-8008-26334089cb20"><path d="M71.34022521972656,124.93942260742188C71.34022521972656,122.03219604492188,73.80287170410156,119.67501831054688,76.83949279785156,119.67501831054688C79.87635803222656,119.67501831054688,82.33729553222656,122.03219604492188,82.33729553222656,124.93942260742188C82.33729553222656,127.84664916992188,79.87635803222656,130.20394897460938,76.83949279785156,130.20394897460938C73.80287170410156,130.20394897460938,71.34022521972656,127.84664916992188,71.34022521972656,124.93942260742188Z" stroke-miterlimit="10" fill="none" style="fill-rule: nonzero; clip-rule: evenodd; stroke-linejoin: round; fill: none;"/></g><g stroke-miterlimit="10" fill="none" id="strokes-dc8a1b63-55c2-8062-8008-5db06cb578b3-e32531b0-8f0e-8085-8008-26334089cb20" class="strokes" style="fill-rule: nonzero; clip-rule: evenodd; stroke-linejoin: round;"><g class="stroke-shape"><path d="M71.34022521972656,124.93942260742188C71.34022521972656,122.03219604492188,73.80287170410156,119.67501831054688,76.83949279785156,119.67501831054688C79.87635803222656,119.67501831054688,82.33729553222656,122.03219604492188,82.33729553222656,124.93942260742188C82.33729553222656,127.84664916992188,79.87635803222656,130.20394897460938,76.83949279785156,130.20394897460938C73.80287170410156,130.20394897460938,71.34022521972656,127.84664916992188,71.34022521972656,124.93942260742188Z" style="fill: none; stroke-width: 1.85696; stroke: rgb(255, 255, 255); stroke-opacity: 1;"/></g></g></g><g id="shape-e32531b0-8f0e-8085-8008-26334089cb21"><g class="fills" id="fills-e32531b0-8f0e-8085-8008-26334089cb21"><path d="M66.45594787597656,128.17526245117188C66.45594787597656,128.17526245117188,63.03529357910156,136.80136108398438,73.11048889160156,140.71127319335938C83.18617248535156,144.62155151367188,87.45985412597656,134.63497924804688,87.45985412597656,134.63497924804688" stroke-miterlimit="10" fill="none" style="fill-rule: nonzero; clip-rule: evenodd; stroke-linejoin: round; fill: none;"/></g><g stroke-miterlimit="10" fill="none" id="strokes-dc8a1b63-55c2-8062-8008-5db06cb58717-e32531b0-8f0e-8085-8008-26334089cb21" class="strokes" style="fill-rule: nonzero; clip-rule: evenodd; stroke-linejoin: round;"><g class="stroke-shape"><path d="M66.45594787597656,128.17526245117188C66.45594787597656,128.17526245117188,63.03529357910156,136.80136108398438,73.11048889160156,140.71127319335938C83.18617248535156,144.62155151367188,87.45985412597656,134.63497924804688,87.45985412597656,134.63497924804688" style="fill: none; stroke-width: 2.44124; stroke: rgb(255, 255, 255); stroke-opacity: 1; stroke-linecap: round;"/></g></g></g><g id="shape-e32531b0-8f0e-8085-8008-26334089cb22"><g class="fills" id="fills-e32531b0-8f0e-8085-8008-26334089cb22"><path d="M91.32997131347656,186.85824584960938C90.62196350097656,185.73666381835938,91.71913146972656,183.78305053710938,93.78065490722656,182.49655151367188C95.84022521972656,181.20870971679688,98.08485412597656,181.07540893554688,98.79286193847656,182.19857788085938C99.49916076660156,183.32015991210938,98.40174865722656,185.27352905273438,96.34217834472656,186.56002807617188C94.28089904785156,187.84811401367188,92.03602600097656,187.98117065429688,91.32997131347656,186.85824584960938Z" stroke-miterlimit="10" style="fill-rule: nonzero; clip-rule: evenodd; stroke-linejoin: round; fill: rgb(83, 9, 205);"/></g></g><g id="shape-e32531b0-8f0e-8085-8008-26334089cb23"><g class="fills" id="fills-e32531b0-8f0e-8085-8008-26334089cb23"><path d="M26.757705688476562,192.59176635742188L45.14076232910156,192.48178100585938L45.35829162597656,182.66012573242188L36.59022521972656,182.75131225585938L36.57997131347656,188.04196166992188" stroke-miterlimit="10" fill="none" style="fill-rule: nonzero; clip-rule: evenodd; stroke-linejoin: round; fill: none;"/></g><g stroke-miterlimit="10" fill="none" id="strokes-dc8a1b63-55c2-8062-8008-5db06cb62edd-e32531b0-8f0e-8085-8008-26334089cb23" class="strokes" style="fill-rule: nonzero; clip-rule: evenodd; stroke-linejoin: round;"><g class="stroke-shape"><path d="M26.757705688476562,192.59176635742188L45.14076232910156,192.48178100585938L45.35829162597656,182.66012573242188L36.59022521972656,182.75131225585938L36.57997131347656,188.04196166992188" style="fill: none; stroke-width: 2.35013; stroke: rgb(236, 48, 193); stroke-opacity: 1; stroke-linecap: round;"/></g></g></g></g><g id="shape-e32531b0-8f0e-8085-8008-26334089cb05" rx="0" ry="0"><g id="shape-e32531b0-8f0e-8085-8008-26334089cb34" rx="0" ry="0"><g id="shape-e32531b0-8f0e-8085-8008-26334089cb3a" rx="0" ry="0" style="fill: rgb(0, 0, 0);"><g id="shape-e32531b0-8f0e-8085-8008-26334089cb3b" rx="0" ry="0" style="fill: rgb(0, 0, 0);"><g id="shape-e32531b0-8f0e-8085-8008-26334089cb3e"><g class="fills" id="fills-e32531b0-8f0e-8085-8008-26334089cb3e"><path d="M346.0494689941406,207.95407104492188C346.0492248535156,207.73788452148438,346.2232971191406,207.56185913085938,346.4374084472656,207.56149291992188L358.7340393066406,207.53964233398438C358.9483947753906,207.53952026367188,359.1229553222656,207.71469116210938,359.1234436035156,207.93087768554688L359.1432189941406,219.36032104492188C359.1437072753906,219.57638549804688,358.9696350097656,219.75167846679688,358.7552795410156,219.75204467773438L346.4584045410156,219.77389526367188C346.2442932128906,219.77426147460938,346.0697326660156,219.59957885742188,346.0694885253906,219.38351440429688L346.0494689941406,207.95407104492188Z" stroke-miterlimit="10" style="fill-rule: nonzero; clip-rule: evenodd; stroke-linejoin: round; fill: rgb(255, 154, 232); fill-opacity: 1;"/></g></g><g id="shape-e32531b0-8f0e-8085-8008-26334089cb3f"><g class="fills" id="fills-e32531b0-8f0e-8085-8008-26334089cb3f"><path d="M286.2704162597656,208.05990600585938C286.2701721191406,207.84384155273438,286.4432678222656,207.66769409179688,286.6583557128906,207.66732788085938L298.9552307128906,207.64559936523438C299.1693420410156,207.64535522460938,299.3434143066406,207.82064819335938,299.3434143066406,208.03671264648438L299.3636779785156,219.46640014648438C299.3636779785156,219.68222045898438,299.1908264160156,219.85751342773438,298.9762268066406,219.85787963867188L286.6793518066406,219.87973022460938C286.4647521972656,219.88009643554688,286.2906799316406,219.70541381835938,286.2901916503906,219.48934936523438L286.2704162597656,208.05990600585938Z" stroke-miterlimit="10" fill="none" style="fill-rule: nonzero; clip-rule: evenodd; stroke-linejoin: round; fill: none;"/></g><g stroke-miterlimit="10" fill="none" id="strokes-dc8a1b63-55c2-8062-8008-5db06cb73d70-e32531b0-8f0e-8085-8008-26334089cb3f" class="strokes" style="fill-rule: nonzero; clip-rule: evenodd; stroke-linejoin: round;"><g class="stroke-shape"><path d="M286.2704162597656,208.05990600585938C286.2701721191406,207.84384155273438,286.4432678222656,207.66769409179688,286.6583557128906,207.66732788085938L298.9552307128906,207.64559936523438C299.1693420410156,207.64535522460938,299.3434143066406,207.82064819335938,299.3434143066406,208.03671264648438L299.3636779785156,219.46640014648438C299.3636779785156,219.68222045898438,299.1908264160156,219.85751342773438,298.9762268066406,219.85787963867188L286.6793518066406,219.87973022460938C286.4647521972656,219.88009643554688,286.2906799316406,219.70541381835938,286.2901916503906,219.48934936523438L286.2704162597656,208.05990600585938Z" style="fill: none; stroke-width: 2.05227; stroke: rgb(29, 227, 221); stroke-opacity: 1; stroke-linecap: round;"/></g></g></g><g id="shape-e32531b0-8f0e-8085-8008-26334089cb40"><g class="fills" id="fills-e32531b0-8f0e-8085-8008-26334089cb40"><path d="M301.5558166503906,208.03268432617188C301.5553283691406,207.81661987304688,301.7286682128906,207.64083862304688,301.9437561035156,207.64035034179688L314.2401428222656,207.61862182617188C314.4547424316406,207.61813354492188,314.6285705566406,207.79367065429688,314.6288146972656,208.00949096679688L314.6485900878906,219.43917846679688C314.6490783691406,219.65512084960938,314.4762268066406,219.83053588867188,314.2616271972656,219.83078002929688L301.9652404785156,219.85275268554688C301.7496643066406,219.85299682617188,301.5760803222656,219.67831420898438,301.5755920410156,219.46237182617188L301.5558166503906,208.03268432617188Z" stroke-miterlimit="10" style="fill-rule: nonzero; clip-rule: evenodd; stroke-linejoin: round; fill: rgb(47, 34, 108); fill-opacity: 1;"/></g></g><g id="shape-e32531b0-8f0e-8085-8008-26334089cb41"><g class="fills" id="fills-e32531b0-8f0e-8085-8008-26334089cb41"><path d="M317.6400451660156,208.00424194335938C317.6395568847656,207.78829956054688,317.8128967285156,207.61227416992188,318.0279846191406,207.61178588867188L330.3248596191406,207.59005737304688C330.5389709472656,207.58969116210938,330.7130432128906,207.76510620117188,330.7130432128906,207.98104858398438L330.7333068847656,219.41061401367188C330.7335510253906,219.62680053710938,330.5599670410156,219.80197143554688,330.3458557128906,219.80245971679688L318.0492248535156,219.82418823242188C317.8343811035156,219.82455444335938,317.6603088378906,219.64999389648438,317.6603088378906,219.43380737304688L317.6400451660156,208.00424194335938Z" stroke-miterlimit="10" style="fill-rule: nonzero; clip-rule: evenodd; stroke-linejoin: round; fill: rgb(20, 206, 202); fill-opacity: 1;"/></g></g><g id="shape-e32531b0-8f0e-8085-8008-26334089cb42"><g class="fills" id="fills-e32531b0-8f0e-8085-8008-26334089cb42"><path d="M301.4083557128906,194.49166870117188C301.4078674316406,194.27499389648438,301.5807189941406,194.09945678710938,301.7953186035156,194.09909057617188L314.0919494628906,194.07748413085938C314.3067932128906,194.07711791992188,314.4808654785156,194.25180053710938,314.4813537597656,194.46847534179688L314.5011291503906,205.89755249023438C314.5016174316406,206.11337280273438,314.3282775878906,206.28952026367188,314.1136779785156,206.28988647460938L301.8163146972656,206.31161499023438C301.6022033691406,206.31210327148438,301.4286193847656,206.13656616210938,301.4281311035156,205.92050170898438L301.4083557128906,194.49166870117188Z" style="fill: rgb(255, 30, 189); fill-opacity: 1;"/></g></g><g id="shape-e32531b0-8f0e-8085-8008-26334089cb43"><g class="fills" id="fills-e32531b0-8f0e-8085-8008-26334089cb43"><path d="M368.4300842285156,205.59225463867188C368.4298400878906,205.37606811523438,368.6029357910156,205.20089721679688,368.8180236816406,205.20040893554688L381.1148986816406,205.17868041992188C381.3290100097656,205.17819213867188,381.5030822753906,205.35287475585938,381.5030822753906,205.56906127929688L381.5233459472656,216.99862670898438C381.5238342285156,217.21456909179688,381.3504943847656,217.38998413085938,381.1358947753906,217.39022827148438L368.8395080566406,217.41207885742188C368.6244201660156,217.41244506835938,368.4503479003906,217.23776245117188,368.4503479003906,217.02182006835938L368.4300842285156,205.59225463867188Z" stroke-miterlimit="10" style="fill-rule: nonzero; clip-rule: evenodd; stroke-linejoin: round; fill: rgb(163, 120, 243); fill-opacity: 1;"/></g></g></g><g id="shape-e32531b0-8f0e-8085-8008-26334089cb3c"><g class="fills" id="fills-e32531b0-8f0e-8085-8008-26334089cb3c"><path d="M336.4740295410156,153.60568237304688C336.4740295410156,153.60568237304688,300.6595764160156,189.90780639648438,307.2025451660156,196.20541381835938C313.7447814941406,202.50314331054688,350.7904357910156,168.73324584960938,344.8358459472656,166.32638549804688C338.8815002441406,163.91952514648438,320.6817932128906,191.34689331054688,334.7608947753906,189.71066284179688C348.8407287597656,188.07455444335938,363.0939025878906,172.33737182617188,358.1315002441406,170.13058471679688C353.1688537597656,167.92294311523438,339.6651916503906,183.66903686523438,347.2560119628906,189.48690795898438C354.8473205566406,195.30490112304688,359.9371643066406,182.01168823242188,369.8480529785156,178.16708374023438C379.7584533691406,174.32186889648438,382.1473693847656,179.35397338867188,398.4171447753906,182.54769897460938C414.6871643066406,185.74215698242188,443.8092346191406,165.74850463867188,436.4181213378906,136.15060424804688C429.0282287597656,106.55319213867188,402.4454650878906,104.18283081054688,402.4454650878906,104.18283081054688" stroke-miterlimit="10" fill="none" style="fill-rule: nonzero; clip-rule: evenodd; stroke-linejoin: round; fill: none;"/></g><g stroke-miterlimit="10" fill="none" id="strokes-dc8a1b63-55c2-8062-8008-5db06cb849a6-e32531b0-8f0e-8085-8008-26334089cb3c" class="strokes" style="fill-rule: nonzero; clip-rule: evenodd; stroke-linejoin: round;"><g class="stroke-shape"><path d="M336.4740295410156,153.60568237304688C336.4740295410156,153.60568237304688,300.6595764160156,189.90780639648438,307.2025451660156,196.20541381835938C313.7447814941406,202.50314331054688,350.7904357910156,168.73324584960938,344.8358459472656,166.32638549804688C338.8815002441406,163.91952514648438,320.6817932128906,191.34689331054688,334.7608947753906,189.71066284179688C348.8407287597656,188.07455444335938,363.0939025878906,172.33737182617188,358.1315002441406,170.13058471679688C353.1688537597656,167.92294311523438,339.6651916503906,183.66903686523438,347.2560119628906,189.48690795898438C354.8473205566406,195.30490112304688,359.9371643066406,182.01168823242188,369.8480529785156,178.16708374023438C379.7584533691406,174.32186889648438,382.1473693847656,179.35397338867188,398.4171447753906,182.54769897460938C414.6871643066406,185.74215698242188,443.8092346191406,165.74850463867188,436.4181213378906,136.15060424804688C429.0282287597656,106.55319213867188,402.4454650878906,104.18283081054688,402.4454650878906,104.18283081054688" style="fill: none; stroke-width: 2.3216; stroke: rgb(255, 154, 232); stroke-opacity: 1; stroke-linecap: round;"/></g></g></g><g id="shape-e32531b0-8f0e-8085-8008-26334089cb3d"><g class="fills" id="fills-e32531b0-8f0e-8085-8008-26334089cb3d"><path d="M306.7452697753906,186.24996948242188C308.1505432128906,182.68429565429688,310.4798889160156,180.27584838867188,311.9488830566406,180.87081909179688C313.4176330566406,181.46505737304688,313.4696350097656,184.83798217773438,312.0643615722656,188.40341186523438C310.6595764160156,191.96981811523438,308.3292541503906,194.37826538085938,306.8607482910156,193.78329467773438C305.3919982910156,193.18856811523438,305.3404846191406,189.81613159179688,306.7452697753906,186.24996948242188Z" stroke-miterlimit="10" style="fill-rule: nonzero; clip-rule: evenodd; stroke-linejoin: round; fill: rgb(17, 231, 228); fill-opacity: 1;"/></g></g></g></g><g id="shape-e32531b0-8f0e-8085-8008-26334089cb35" style="display: none;"><g class="fills" id="fills-e32531b0-8f0e-8085-8008-26334089cb35"><path d="M330.4991760253906,194.44015502929688C330.4984436035156,194.22335815429688,330.6717834472656,194.04818725585938,330.8871154785156,194.04769897460938L343.1835021972656,194.02597045898438C343.3978576660156,194.02560424804688,343.5719299316406,194.20016479492188,343.5721740722656,194.41708374023438L343.5921936035156,205.84579467773438C343.5924377441406,206.06185913085938,343.4190979003906,206.23788452148438,343.2049865722656,206.23837280273438L330.9081115722656,206.26010131835938C330.6932678222656,206.26046752929688,330.5194396972656,206.08505249023438,330.5187072753906,205.86911010742188L330.4991760253906,194.44015502929688Z"/></g><g id="strokes-dc8a1b63-55c2-8062-8008-5db06cb8fa2b-e32531b0-8f0e-8085-8008-26334089cb35" class="strokes"><g class="stroke-shape"><path d="M330.4991760253906,194.44015502929688C330.4984436035156,194.22335815429688,330.6717834472656,194.04818725585938,330.8871154785156,194.04769897460938L343.1835021972656,194.02597045898438C343.3978576660156,194.02560424804688,343.5719299316406,194.20016479492188,343.5721740722656,194.41708374023438L343.5921936035156,205.84579467773438C343.5924377441406,206.06185913085938,343.4190979003906,206.23788452148438,343.2049865722656,206.23837280273438L330.9081115722656,206.26010131835938C330.6932678222656,206.26046752929688,330.5194396972656,206.08505249023438,330.5187072753906,205.86911010742188L330.4991760253906,194.44015502929688Z" style="fill: none; stroke-width: 1.45037; stroke: rgb(105, 17, 212); stroke-opacity: 1; stroke-linecap: round;"/></g></g></g><g id="shape-e32531b0-8f0e-8085-8008-26334089cb36"><g class="fills" id="fills-e32531b0-8f0e-8085-8008-26334089cb36"><path d="M369.3407287597656,65.46371459960938C360.0111389160156,63.004730224609375,330.3365783691406,67.57308959960938,343.5248107910156,95.44833374023438C356.7127990722656,123.32345581054688,353.1451721191406,136.71017456054688,372.9281311035156,142.11874389648438C392.7103576660156,147.52743530273438,407.4925842285156,117.88571166992188,403.2535705566406,104.57199096679688C399.0148010253906,91.25851440429688,385.9330139160156,69.83639526367188,369.3407287597656,65.46371459960938" style="fill: rgb(255, 154, 232); fill-opacity: 1;"/></g></g><g id="shape-e32531b0-8f0e-8085-8008-26334089cb37"><g class="fills" id="fills-e32531b0-8f0e-8085-8008-26334089cb37"><path d="M361.9798889160156,110.02194213867188C361.9798889160156,110.02194213867188,368.6065979003906,117.58676147460938,377.4381408691406,109.86325073242188C386.2684631347656,102.13900756835938,378.7540588378906,93.07919311523438,378.7540588378906,93.07919311523438" stroke-miterlimit="10" fill="none" style="fill-rule: nonzero; clip-rule: evenodd; stroke-linejoin: round; fill: none;"/></g><g stroke-miterlimit="10" fill="none" id="strokes-dc8a1b63-55c2-8062-8008-5db06cb9403f-e32531b0-8f0e-8085-8008-26334089cb37" class="strokes" style="fill-rule: nonzero; clip-rule: evenodd; stroke-linejoin: round;"><g class="stroke-shape"><path d="M361.9798889160156,110.02194213867188C361.9798889160156,110.02194213867188,368.6065979003906,117.58676147460938,377.4381408691406,109.86325073242188C386.2684631347656,102.13900756835938,378.7540588378906,93.07919311523438,378.7540588378906,93.07919311523438" style="fill: none; stroke-width: 2.13276; stroke: rgb(255, 255, 255); stroke-opacity: 1; stroke-linecap: round;"/></g></g></g><g id="shape-e32531b0-8f0e-8085-8008-26334089cb38"><g class="fills" id="fills-e32531b0-8f0e-8085-8008-26334089cb38"><path d="M365.4142150878906,103.10311889648438C362.8592834472656,101.80673217773438,361.9093322753906,98.63644409179688,363.2926330566406,96.02120971679688C364.6756896972656,93.40670776367188,367.8680725097656,92.33749389648438,370.4234924316406,93.63388061523438C372.9786682128906,94.92965698242188,373.9288635253906,98.10031127929688,372.5455627441406,100.71517944335938C371.1620178222656,103.32980346679688,367.9691467285156,104.39901733398438,365.4142150878906,103.10311889648438Z" stroke-miterlimit="10" fill="none" style="fill-rule: nonzero; clip-rule: evenodd; stroke-linejoin: round; fill: none;"/></g><g stroke-miterlimit="10" fill="none" id="strokes-dc8a1b63-55c2-8062-8008-5db06cb9be94-e32531b0-8f0e-8085-8008-26334089cb38" class="strokes" style="fill-rule: nonzero; clip-rule: evenodd; stroke-linejoin: round;"><g class="stroke-shape"><path d="M365.4142150878906,103.10311889648438C362.8592834472656,101.80673217773438,361.9093322753906,98.63644409179688,363.2926330566406,96.02120971679688C364.6756896972656,93.40670776367188,367.8680725097656,92.33749389648438,370.4234924316406,93.63388061523438C372.9786682128906,94.92965698242188,373.9288635253906,98.10031127929688,372.5455627441406,100.71517944335938C371.1620178222656,103.32980346679688,367.9691467285156,104.39901733398438,365.4142150878906,103.10311889648438Z" style="fill: none; stroke-width: 2.13276; stroke: rgb(255, 255, 255); stroke-opacity: 1;"/></g></g></g><g id="shape-e32531b0-8f0e-8085-8008-26334089cb39"><g class="fills" id="fills-e32531b0-8f0e-8085-8008-26334089cb39"><path d="M384.7110900878906,80.35641479492188C383.9071350097656,77.62899780273438,363.4330139160156,53.005462646484375,352.6925354003906,47.789886474609375C337.5023498535156,40.414031982421875,346.8971252441406,72.76974487304688,352.6258850097656,65.97494506835938C355.8385314941406,62.164031982421875,334.3607482910156,46.028045654296875,327.7486877441406,50.029998779296875C324.6446838378906,51.908660888671875,325.1925354003906,56.968597412109375,328.7845764160156,61.948944091796875C336.9864807128906,73.32040405273438,344.4693908691406,79.93222045898438,346.0421447753906,75.66232299804688C348.0953674316406,70.08981323242188,319.2784729003906,57.343109130859375,320.2945861816406,75.17477416992188C320.8602600097656,85.09738159179688,338.3983459472656,84.95443725585938,338.3983459472656,84.95443725585938"/></g><g id="strokes-dc8a1b63-55c2-8062-8008-5db06cba0f45-e32531b0-8f0e-8085-8008-26334089cb39" class="strokes"><g class="stroke-shape"><path d="M384.7110900878906,80.35641479492188C383.9071350097656,77.62899780273438,363.4330139160156,53.005462646484375,352.6925354003906,47.789886474609375C337.5023498535156,40.414031982421875,346.8971252441406,72.76974487304688,352.6258850097656,65.97494506835938C355.8385314941406,62.164031982421875,334.3607482910156,46.028045654296875,327.7486877441406,50.029998779296875C324.6446838378906,51.908660888671875,325.1925354003906,56.968597412109375,328.7845764160156,61.948944091796875C336.9864807128906,73.32040405273438,344.4693908691406,79.93222045898438,346.0421447753906,75.66232299804688C348.0953674316406,70.08981323242188,319.2784729003906,57.343109130859375,320.2945861816406,75.17477416992188C320.8602600097656,85.09738159179688,338.3983459472656,84.95443725585938,338.3983459472656,84.95443725585938" style="fill: none; stroke-width: 2.3216; stroke: rgb(20, 206, 202); stroke-opacity: 1; stroke-linecap: round;"/></g></g></g></g><g id="shape-e32531b0-8f0e-8085-8008-26334089cb06"><g class="fills" id="fills-e32531b0-8f0e-8085-8008-26334089cb06"><path d="M159.21961975097656,102.34066772460938C159.21961975097656,102.34066772460938,159.79750061035156,86.95614624023438,155.37586975097656,79.73666381835938C150.95252990722656,72.51742553710938,141.52870178222656,73.46310424804688,141.52870178222656,73.46310424804688C141.52870178222656,73.46310424804688,150.95252990722656,74.40719604492188,155.37586975097656,67.18783569335938C159.79750061035156,59.968353271484375,159.21961975097656,44.583953857421875,159.21961975097656,44.583953857421875C159.21961975097656,44.583953857421875,158.64051818847656,59.968353271484375,163.06336975097656,67.18783569335938C167.48646545410156,74.40719604492188,176.91053771972656,73.46310424804688,176.91053771972656,73.46310424804688C176.91053771972656,73.46310424804688,167.48646545410156,72.51742553710938,163.06336975097656,79.73666381835938C158.64051818847656,86.95614624023438,159.21961975097656,102.34066772460938,159.21961975097656,102.34066772460938L159.21961975097656,102.34066772460938"/></g><g id="strokes-dc8a1b63-55c2-8062-8008-5db06cba61d5-e32531b0-8f0e-8085-8008-26334089cb06" class="strokes"><g class="stroke-shape"><path d="M159.21961975097656,102.34066772460938C159.21961975097656,102.34066772460938,159.79750061035156,86.95614624023438,155.37586975097656,79.73666381835938C150.95252990722656,72.51742553710938,141.52870178222656,73.46310424804688,141.52870178222656,73.46310424804688C141.52870178222656,73.46310424804688,150.95252990722656,74.40719604492188,155.37586975097656,67.18783569335938C159.79750061035156,59.968353271484375,159.21961975097656,44.583953857421875,159.21961975097656,44.583953857421875C159.21961975097656,44.583953857421875,158.64051818847656,59.968353271484375,163.06336975097656,67.18783569335938C167.48646545410156,74.40719604492188,176.91053771972656,73.46310424804688,176.91053771972656,73.46310424804688C176.91053771972656,73.46310424804688,167.48646545410156,72.51742553710938,163.06336975097656,79.73666381835938C158.64051818847656,86.95614624023438,159.21961975097656,102.34066772460938,159.21961975097656,102.34066772460938L159.21961975097656,102.34066772460938" style="fill: none; stroke-width: 1.40237; stroke: rgb(242, 58, 229); stroke-opacity: 1; stroke-linecap: round;"/></g></g></g><g id="shape-e32531b0-8f0e-8085-8008-26334089cb07"><g class="fills" id="fills-e32531b0-8f0e-8085-8008-26334089cb07"><path d="M413.9706115722656,94.23434448242188C413.9706115722656,94.23434448242188,414.5484924316406,78.84994506835938,410.1268615722656,71.63058471679688C405.7032775878906,64.41110229492188,396.2796936035156,65.35678100585938,396.2796936035156,65.35678100585938C396.2796936035156,65.35678100585938,405.7032775878906,66.30111694335938,410.1268615722656,59.081634521484375C414.5484924316406,51.862274169921875,413.9706115722656,36.477874755859375,413.9706115722656,36.477874755859375C413.9706115722656,36.477874755859375,413.3915100097656,51.862274169921875,417.8141174316406,59.081634521484375C422.2372131347656,66.30111694335938,431.6615295410156,65.35678100585938,431.6615295410156,65.35678100585938C431.6615295410156,65.35678100585938,422.2372131347656,64.41110229492188,417.8141174316406,71.63058471679688C413.3915100097656,78.84994506835938,413.9706115722656,94.23434448242188,413.9706115722656,94.23434448242188L413.9706115722656,94.23434448242188"/></g><g id="strokes-dc8a1b63-55c2-8062-8008-5db06cbaae45-e32531b0-8f0e-8085-8008-26334089cb07" class="strokes"><g class="stroke-shape"><path d="M413.9706115722656,94.23434448242188C413.9706115722656,94.23434448242188,414.5484924316406,78.84994506835938,410.1268615722656,71.63058471679688C405.7032775878906,64.41110229492188,396.2796936035156,65.35678100585938,396.2796936035156,65.35678100585938C396.2796936035156,65.35678100585938,405.7032775878906,66.30111694335938,410.1268615722656,59.081634521484375C414.5484924316406,51.862274169921875,413.9706115722656,36.477874755859375,413.9706115722656,36.477874755859375C413.9706115722656,36.477874755859375,413.3915100097656,51.862274169921875,417.8141174316406,59.081634521484375C422.2372131347656,66.30111694335938,431.6615295410156,65.35678100585938,431.6615295410156,65.35678100585938C431.6615295410156,65.35678100585938,422.2372131347656,64.41110229492188,417.8141174316406,71.63058471679688C413.3915100097656,78.84994506835938,413.9706115722656,94.23434448242188,413.9706115722656,94.23434448242188L413.9706115722656,94.23434448242188" style="fill: none; stroke-width: 1.40237; stroke: rgb(242, 58, 229); stroke-opacity: 1; stroke-linecap: round;"/></g></g></g><g id="shape-e32531b0-8f0e-8085-8008-26334089cb08"><g class="fills" id="fills-e32531b0-8f0e-8085-8008-26334089cb08"><path d="M276.9916076660156,115.51315307617188C278.0035705566406,116.52645874023438,317.4750061035156,115.51315307617188,331.6441955566406,120.57968139648438C345.8136291503906,125.64584350585938,347.8380432128906,137.80514526367188,340.7530822753906,146.92465209960938"/></g><g id="strokes-dc8a1b63-55c2-8062-8008-5db06cbac6d5-e32531b0-8f0e-8085-8008-26334089cb08" class="strokes"><g class="stroke-shape"><path d="M276.9916076660156,115.51315307617188C278.0035705566406,116.52645874023438,317.4750061035156,115.51315307617188,331.6441955566406,120.57968139648438C345.8136291503906,125.64584350585938,347.8380432128906,137.80514526367188,340.7530822753906,146.92465209960938" style="fill: none; stroke-width: 2.01824; stroke: rgb(20, 206, 202); stroke-opacity: 1;"/></g></g></g></g></g></g></g></g></g></svg>