<svg width="310" xmlns="http://www.w3.org/2000/svg" height="341" id="screenshot-df362402-8d3c-809c-8007-fa8cab7d0c9b" viewBox="0 0 310 341" xmlns:xlink="http://www.w3.org/1999/xlink" fill="none" version="1.1"><g id="shape-df362402-8d3c-809c-8007-fa8cab7d0c9b"><defs><clipPath id="frame-clip-df362402-8d3c-809c-8007-fa8cab7d0c9b-render-96" class="frame-clip frame-clip-def"><rect rx="0" ry="0" x="0" y="0" width="310" height="341" transform="matrix(1.000000, 0.000000, 0.000000, 1.000000, 0.000000, 0.000000)"/></clipPath></defs><g class="frame-container-wrapper"><g class="frame-container-blur"><g class="frame-container-shadows"><g clip-path="url(#frame-clip-df362402-8d3c-809c-8007-fa8cab7d0c9b-render-96)" fill="none"><g class="fills" id="fills-df362402-8d3c-809c-8007-fa8cab7d0c9b"><rect rx="0" ry="0" x="0" y="0" width="310" height="341" transform="matrix(1.000000, 0.000000, 0.000000, 1.000000, 0.000000, 0.000000)" class="frame-background"/></g><g class="frame-children"><g id="shape-df362402-8d3c-809c-8007-fa8cd12eefa9" rx="0" ry="0"><g id="shape-df362402-8d3c-809c-8007-fa8cd12eefaa"><g class="fills" id="fills-df362402-8d3c-809c-8007-fa8cd12eefaa"><path d="M21.80908203125,137.013671875L91.909912109375,137.013671875"/></g><g id="strokes-752ba781-055a-8081-8008-28cd7e8b8fcf-df362402-8d3c-809c-8007-fa8cd12eefaa" class="strokes"><g class="stroke-shape"><path d="M21.80908203125,137.013671875L91.909912109375,137.013671875" style="fill: none; stroke-width: 2.91595; stroke: rgb(242, 58, 229); stroke-opacity: 1;"/></g></g></g><g id="shape-df362402-8d3c-809c-8007-fa8cd12eefab" rx="0" ry="0"><g id="shape-df362402-8d3c-809c-8007-fa8cd12eefac"><g class="fills" id="fills-df362402-8d3c-809c-8007-fa8cd12eefac"><rect rx="1.869638023867036" ry="1.869638023867036" x="21.809045226130365" y="63.84018264840188" transform="matrix(1.000000, 0.000000, 0.000000, 1.000000, 0.000000, 0.000000)" width="70.10050251256325" height="53.47277219464286"/></g><g id="strokes-752ba781-055a-8081-8008-28cd7e8bd201-df362402-8d3c-809c-8007-fa8cd12eefac" class="strokes"><g class="stroke-shape"><rect rx="1.869638023867036" ry="1.869638023867036" x="21.809045226130365" y="63.84018264840188" transform="matrix(1.000000, 0.000000, 0.000000, 1.000000, 0.000000, 0.000000)" width="70.10050251256325" height="53.47277219464286" style="fill: none; stroke-width: 2.91595; stroke: rgb(242, 58, 229); stroke-opacity: 1;"/></g></g></g><g id="shape-df362402-8d3c-809c-8007-fa8cd12eefad"><g class="fills" id="fills-df362402-8d3c-809c-8007-fa8cd12eefad"><path d="M21.80908203125,124.818115234375L91.909912109375,124.818115234375"/></g><g id="strokes-752ba781-055a-8081-8008-28cd7e8c22a6-df362402-8d3c-809c-8007-fa8cd12eefad" class="strokes"><g class="stroke-shape"><path d="M21.80908203125,124.818115234375L91.909912109375,124.818115234375" style="fill: none; stroke-width: 2.91595; stroke: rgb(242, 58, 229); stroke-opacity: 1;"/></g></g></g><g id="shape-df362402-8d3c-809c-8007-fa8cd12eefae"><g class="fills" id="fills-df362402-8d3c-809c-8007-fa8cd12eefae"><path d="M21.80908203125,131.38427734375L91.909912109375,131.38427734375"/></g><g id="strokes-752ba781-055a-8081-8008-28cd7e8c6f6b-df362402-8d3c-809c-8007-fa8cd12eefae" class="strokes"><g class="stroke-shape"><path d="M21.80908203125,131.38427734375L91.909912109375,131.38427734375" style="fill: none; stroke-width: 2.91595; stroke: rgb(242, 58, 229); stroke-opacity: 1;"/></g></g></g><g id="shape-df362402-8d3c-809c-8007-fa8cd12eefaf"><g class="fills" id="fills-df362402-8d3c-809c-8007-fa8cd12eefaf"><path d="M23.10791015625,65.7169189453125L91.2607421875,115.43701171875M23.10791015625,115.43701171875"/></g><g id="strokes-752ba781-055a-8081-8008-28cd7e8c6f6c-df362402-8d3c-809c-8007-fa8cd12eefaf" class="strokes"><g class="stroke-shape"><path d="M23.10791015625,65.7169189453125L91.2607421875,115.43701171875M23.10791015625,115.43701171875" style="fill: none; stroke-width: 2.91595; stroke: rgb(242, 58, 229); stroke-opacity: 1;"/></g></g></g></g></g><g id="shape-df362402-8d3c-809c-8007-fa8cd12eefb0" rx="0" ry="0"><g id="shape-df362402-8d3c-809c-8007-fa8cd12eefb1"><g class="fills" id="fills-df362402-8d3c-809c-8007-fa8cd12eefb1"><path d="M113.718994140625,137.013671875L183.819580078125,137.013671875"/></g><g id="strokes-752ba781-055a-8081-8008-28cd7e8ce9cb-df362402-8d3c-809c-8007-fa8cd12eefb1" class="strokes"><g class="stroke-shape"><path d="M113.718994140625,137.013671875L183.819580078125,137.013671875" style="fill: none; stroke-width: 2.91595; stroke: rgb(242, 58, 229); stroke-opacity: 1;"/></g></g></g><g id="shape-df362402-8d3c-809c-8007-fa8cd12eefb2" rx="0" ry="0"><g id="shape-df362402-8d3c-809c-8007-fa8cd12eefb3"><g class="fills" id="fills-df362402-8d3c-809c-8007-fa8cd12eefb3"><rect rx="1.869638023867036" ry="1.869638023867036" x="113.71859296482398" y="63.84018264840188" transform="matrix(1.000000, 0.000000, 0.000000, 1.000000, 0.000000, 0.000000)" width="70.10050251256416" height="53.47277219464286" style="fill: rgb(242, 58, 229); fill-opacity: 1;"/></g><g id="strokes-752ba781-055a-8081-8008-28cd7e8d3620-df362402-8d3c-809c-8007-fa8cd12eefb3" class="strokes"><g class="stroke-shape"><rect rx="1.869638023867036" ry="1.869638023867036" x="113.71859296482398" y="63.84018264840188" transform="matrix(1.000000, 0.000000, 0.000000, 1.000000, 0.000000, 0.000000)" width="70.10050251256416" height="53.47277219464286" style="fill: none; stroke-width: 2.91595; stroke: rgb(242, 58, 229); stroke-opacity: 1;"/></g></g></g><g id="shape-df362402-8d3c-809c-8007-fa8cd12eefb4"><g class="fills" id="fills-df362402-8d3c-809c-8007-fa8cd12eefb4"><path d="M113.718994140625,124.818115234375L183.819580078125,124.818115234375"/></g><g id="strokes-752ba781-055a-8081-8008-28cd7e8d65f3-df362402-8d3c-809c-8007-fa8cd12eefb4" class="strokes"><g class="stroke-shape"><path d="M113.718994140625,124.818115234375L183.819580078125,124.818115234375" style="fill: none; stroke-width: 2.91595; stroke: rgb(242, 58, 229); stroke-opacity: 1;"/></g></g></g><g id="shape-df362402-8d3c-809c-8007-fa8cd12eefb5"><g class="fills" id="fills-df362402-8d3c-809c-8007-fa8cd12eefb5"><path d="M113.718994140625,131.38427734375L183.819580078125,131.38427734375"/></g><g id="strokes-752ba781-055a-8081-8008-28cd7e8db5aa-df362402-8d3c-809c-8007-fa8cd12eefb5" class="strokes"><g class="stroke-shape"><path d="M113.718994140625,131.38427734375L183.819580078125,131.38427734375" style="fill: none; stroke-width: 2.91595; stroke: rgb(242, 58, 229); stroke-opacity: 1;"/></g></g></g></g></g><g id="shape-df362402-8d3c-809c-8007-fa8cd12eefc4"><g class="fills" id="fills-df362402-8d3c-809c-8007-fa8cd12eefc4"><rect rx="1.869638023867036" ry="1.869638023867036" x="21.809045226130365" y="29.584474885844884" transform="matrix(1.000000, 0.000000, 0.000000, 1.000000, 0.000000, 0.000000)" width="119.94974874371928" height="15.570776255707187"/></g><g id="strokes-752ba781-055a-8081-8008-28cd7e8dc524-df362402-8d3c-809c-8007-fa8cd12eefc4" class="strokes"><g class="stroke-shape"><rect rx="1.869638023867036" ry="1.869638023867036" x="21.809045226130365" y="29.584474885844884" transform="matrix(1.000000, 0.000000, 0.000000, 1.000000, 0.000000, 0.000000)" width="119.94974874371928" height="15.570776255707187" style="fill: none; stroke-width: 2.91595; stroke: rgb(242, 58, 229); stroke-opacity: 1;"/></g></g></g><g id="shape-df362402-8d3c-809c-8007-fa8cd12eefc5"><g class="fills" id="fills-df362402-8d3c-809c-8007-fa8cd12eefc5"><path d="M23.366943359375,52.9407958984375L182.260986328125,52.9407958984375"/></g><g id="strokes-752ba781-055a-8081-8008-28cd7e8dc525-df362402-8d3c-809c-8007-fa8cd12eefc5" class="strokes"><g class="stroke-shape"><path d="M23.366943359375,52.9407958984375L182.260986328125,52.9407958984375" style="fill: none; stroke-width: 2.91595; stroke: rgb(242, 58, 229); stroke-opacity: 1;"/></g></g></g><g id="shape-df362402-8d3c-809c-8007-fa8ce8024caf" rx="0" ry="0" style="fill: rgb(0, 0, 0);"><g id="shape-df362402-8d3c-809c-8007-fa8ce8024cb0"><g class="fills" id="fills-df362402-8d3c-809c-8007-fa8ce8024cb0"><path d="M108.0068359375,232.0045166015625L213.590087890625,230.6939697265625" stroke-miterlimit="10" fill="none" style="fill-rule: nonzero; clip-rule: evenodd; stroke-linejoin: round; fill: none;"/></g><g stroke-miterlimit="10" fill="none" id="strokes-752ba781-055a-8081-8008-28cd7e8e7143-df362402-8d3c-809c-8007-fa8ce8024cb0" class="strokes" style="fill-rule: nonzero; clip-rule: evenodd; stroke-linejoin: round;"><g class="stroke-shape"><path d="M108.0068359375,232.0045166015625L213.590087890625,230.6939697265625" style="fill: none; stroke-width: 5.99684; stroke: rgb(242, 58, 229); stroke-opacity: 1; stroke-linecap: round;"/></g></g></g><g id="shape-df362402-8d3c-809c-8007-fa8ce8024cb2"><g class="fills" id="fills-df362402-8d3c-809c-8007-fa8ce8024cb2"><path d="M120.6240234375,182.1781005859375L108.634765625,196.22412109375L120.093505859375,210.4111328125" stroke-miterlimit="10" fill="none" style="fill-rule: nonzero; clip-rule: evenodd; stroke-linejoin: round; fill: none;"/></g><g stroke-miterlimit="10" fill="none" id="strokes-752ba781-055a-8081-8008-28cd7e8e8907-df362402-8d3c-809c-8007-fa8ce8024cb2" class="strokes" style="fill-rule: nonzero; clip-rule: evenodd; stroke-linejoin: round;"><g class="stroke-shape"><path d="M120.6240234375,182.1781005859375L108.634765625,196.22412109375L120.093505859375,210.4111328125" style="fill: none; stroke-width: 5.92964; stroke: rgb(242, 58, 229); stroke-opacity: 1;"/></g></g></g><g id="shape-df362402-8d3c-809c-8007-fa8ce8024cb3"><g class="fills" id="fills-df362402-8d3c-809c-8007-fa8ce8024cb3"><path d="M160.789306640625,210.4156494140625L172.431884765625,196.10107421875L160.6318359375,182.1781005859375" stroke-miterlimit="10" fill="none" style="fill-rule: nonzero; clip-rule: evenodd; stroke-linejoin: round; fill: none;"/></g><g stroke-miterlimit="10" fill="none" id="strokes-752ba781-055a-8081-8008-28cd7e8e8908-df362402-8d3c-809c-8007-fa8ce8024cb3" class="strokes" style="fill-rule: nonzero; clip-rule: evenodd; stroke-linejoin: round;"><g class="stroke-shape"><path d="M160.789306640625,210.4156494140625L172.431884765625,196.10107421875L160.6318359375,182.1781005859375" style="fill: none; stroke-width: 5.92964; stroke: rgb(242, 58, 229); stroke-opacity: 1;"/></g></g></g><g id="shape-df362402-8d3c-809c-8007-fa8ce8024cb4"><g class="fills" id="fills-df362402-8d3c-809c-8007-fa8ce8024cb4"><path d="M132.8369140625,210.4111328125L149.37548828125,185.0509033203125" stroke-miterlimit="10" fill="none" style="fill-rule: nonzero; clip-rule: evenodd; stroke-linejoin: round; fill: none;"/></g><g stroke-miterlimit="10" fill="none" id="strokes-752ba781-055a-8081-8008-28cd7e8eddf4-df362402-8d3c-809c-8007-fa8ce8024cb4" class="strokes" style="fill-rule: nonzero; clip-rule: evenodd; stroke-linejoin: round;"><g class="stroke-shape"><path d="M132.8369140625,210.4111328125L149.37548828125,185.0509033203125" style="fill: none; stroke-width: 5.92964; stroke: rgb(242, 58, 229); stroke-opacity: 1;"/></g></g></g><g id="shape-df362402-8d3c-809c-8007-fa8ce8024cb5"><g class="fills" id="fills-df362402-8d3c-809c-8007-fa8ce8024cb5"><path d="M186.734130859375,203.41796875C186.751708984375,198.7235107421875,190.453125,194.9312744140625,195.003173828125,194.9490966796875C199.552978515625,194.9627685546875,203.232177734375,198.7828369140625,203.2138671875,203.4769287109375C203.1962890625,208.175537109375,199.490478515625,211.96826171875,194.9404296875,211.949951171875C190.389892578125,211.9317626953125,186.716064453125,208.11181640625,186.734130859375,203.41796875Z" stroke-miterlimit="10" style="fill-rule: nonzero; clip-rule: evenodd; stroke-linejoin: round; fill: rgb(242, 58, 229); fill-opacity: 1;"/></g></g><g id="shape-df362402-8d3c-809c-8007-fa8ce8024cb6"><g class="fills" id="fills-df362402-8d3c-809c-8007-fa8ce8024cb6"><path d="M249.90185546875,204.0733642578125C249.919677734375,199.374755859375,253.62060546875,195.5867919921875,258.1708984375,195.6004638671875C262.721435546875,195.6185302734375,266.39990234375,199.4384765625,266.3818359375,204.1326904296875C266.364013671875,208.82666015625,262.658203125,212.61962890625,258.108154296875,212.601318359375C253.557861328125,212.587646484375,249.883544921875,208.767333984375,249.90185546875,204.0733642578125Z" stroke-miterlimit="10" style="fill-rule: nonzero; clip-rule: evenodd; stroke-linejoin: round; fill: rgb(242, 58, 229); fill-opacity: 1;"/></g></g><g id="shape-df362402-8d3c-809c-8007-fa8ce8024cb7"><g class="fills" id="fills-df362402-8d3c-809c-8007-fa8ce8024cb7"><path d="M218.13525390625,204.0733642578125C218.153564453125,199.374755859375,221.859130859375,195.5867919921875,226.409912109375,195.6004638671875C230.959716796875,195.6185302734375,234.634033203125,199.4384765625,234.616455078125,204.1326904296875C234.597900390625,208.82666015625,230.896484375,212.61962890625,226.346923828125,212.601318359375C221.79638671875,212.587646484375,218.117919921875,208.767333984375,218.13525390625,204.0733642578125Z" stroke-miterlimit="10" style="fill-rule: nonzero; clip-rule: evenodd; stroke-linejoin: round; fill: rgb(242, 58, 229); fill-opacity: 1;"/></g></g><g id="shape-df362402-8d3c-809c-8007-fa8ce8024cb8"><g class="fills" id="fills-df362402-8d3c-809c-8007-fa8ce8024cb8"><path d="M119.884765625,243.805419921875L213.590087890625,242.494140625"/></g><g id="strokes-752ba781-055a-8081-8008-28cd7e8f88ae-df362402-8d3c-809c-8007-fa8ce8024cb8" class="strokes"><g class="stroke-shape"><path d="M119.884765625,243.805419921875L213.590087890625,242.494140625" style="fill: none; stroke-width: 6.41559; stroke: rgb(242, 58, 229); stroke-opacity: 1; stroke-linecap: round;"/></g></g></g><g id="shape-df362402-8d3c-809c-8007-fa8d11ad89dc"><g class="fills" id="fills-df362402-8d3c-809c-8007-fa8d11ad89dc"><path d="M133.0830078125,256.9178466796875L238.666015625,255.6072998046875" stroke-miterlimit="10" fill="none" style="fill-rule: nonzero; clip-rule: evenodd; stroke-linejoin: round; fill: none;"/></g><g stroke-miterlimit="10" fill="none" id="strokes-752ba781-055a-8081-8008-28cd7e8ffca9-df362402-8d3c-809c-8007-fa8d11ad89dc" class="strokes" style="fill-rule: nonzero; clip-rule: evenodd; stroke-linejoin: round;"><g class="stroke-shape"><path d="M133.0830078125,256.9178466796875L238.666015625,255.6072998046875" style="fill: none; stroke-width: 5.99684; stroke: rgb(242, 58, 229); stroke-opacity: 1; stroke-linecap: round;"/></g></g></g><g id="shape-df362402-8d3c-809c-8007-fa8d11ad89dd"><g class="fills" id="fills-df362402-8d3c-809c-8007-fa8d11ad89dd"><path d="M119.85009765625,268.7186279296875L156.7763671875,268.5533447265625L238.666015625,267.4073486328125"/></g><g id="strokes-752ba781-055a-8081-8008-28cd7e903662-df362402-8d3c-809c-8007-fa8d11ad89dd" class="strokes"><g class="stroke-shape"><path d="M119.85009765625,268.7186279296875L156.7763671875,268.5533447265625L238.666015625,267.4073486328125" style="fill: none; stroke-width: 6.41559; stroke: rgb(242, 58, 229); stroke-opacity: 1; stroke-linecap: round;"/></g></g></g><g id="shape-df362402-8d3c-809c-8007-fa8ce8024cba"><g class="fills" id="fills-df362402-8d3c-809c-8007-fa8ce8024cba"><path d="M93.717529296875,209.357421875C91.80810546875,209.1217041015625,89.63818359375,209.4100341796875,87.6015625,210.6065673828125C84.12939453125,212.647216796875,82.201904296875,216.7393798828125,82.099853515625,223.171142578125C82.062255859375,225.6104736328125,82.11279296875,227.6766357421875,82.253662109375,230.81298828125C82.67041015625,240.08251953125,82.300048828125,241.27978515625,78.198974609375,242.5517578125C78.080078125,242.58837890625,78.001220703125,242.6688232421875,77.891357421875,242.7166748046875C77.76171875,242.7742919921875,77.635498046875,242.82958984375,77.5185546875,242.900634765625C77.333740234375,243.01416015625,77.163330078125,243.1417236328125,77.0146484375,243.2861328125C76.9169921875,243.384033203125,76.83056640625,243.4898681640625,76.75146484375,243.598876953125C76.63623046875,243.7537841796875,76.539306640625,243.92041015625,76.467041015625,244.0943603515625C76.41650390625,244.222412109375,76.383056640625,244.34619140625,76.357177734375,244.47998046875C76.3251953125,244.636474609375,76.33056640625,244.7957763671875,76.33544921875,244.9578857421875C76.345458984375,245.1456298828125,76.360107421875,245.33984375,76.42333984375,245.5274658203125C76.463623046875,245.6488037109375,76.51611328125,245.7642822265625,76.57666015625,245.8768310546875C76.681640625,246.06689453125,76.81884765625,246.234619140625,76.971435546875,246.3907470703125C77.05322265625,246.4755859375,77.139892578125,246.5550537109375,77.234130859375,246.6298828125C77.411865234375,246.768310546875,77.615966796875,246.88134765625,77.826416015625,246.9788818359375C77.935546875,247.0294189453125,78.037109375,247.0869140625,78.154541015625,247.1256103515625C78.374755859375,247.1982421875,78.597900390625,247.227294921875,78.834228515625,247.2542724609375C78.971435546875,247.2696533203125,79.109130859375,247.29150390625,79.2509765625,247.291015625C79.3623046875,247.2906494140625,79.4658203125,247.321044921875,79.57958984375,247.30908203125C80.094482421875,247.27392578125,80.85595703125,247.4200439453125,81.639892578125,247.952392578125C83.457275390625,249.18505859375,84.717041015625,252.0006103515625,84.79638671875,257.0455322265625C84.833251953125,259.381591796875,84.78125,261.3782958984375,84.642822265625,264.5218505859375C84.364013671875,270.87939453125,84.40087890625,272.55078125,85.081298828125,274.88232421875C86.047607421875,278.1934814453125,88.4091796875,280.400146484375,92.533203125,281.678955078125C94.054931640625,282.1514892578125,95.7412109375,281.4847412109375,96.303466796875,280.2099609375C96.866943359375,278.9345703125,96.09375,277.5218505859375,94.572998046875,277.0499267578125C90.5224609375,275.7945556640625,90.09423828125,274.341064453125,90.51708984375,264.705078125C90.65869140625,261.4862060546875,90.709228515625,259.4271240234375,90.67041015625,256.990234375C90.572021484375,250.703125,88.708740234375,246.5550537109375,85.454345703125,244.2598876953125C86.4921875,243.24755859375,87.2490234375,242.0679931640625,87.689453125,240.640869140625C88.38134765625,238.401611328125,88.408447265625,236.861083984375,88.12841796875,230.629638671875C87.99072265625,227.5692138671875,87.93798828125,225.5830078125,87.974365234375,223.24462890625C88.052734375,218.2481689453125,89.2841796875,215.624267578125,90.977783203125,214.6292724609375C91.350830078125,214.40966796875,91.743408203125,214.2774658203125,92.13916015625,214.2254638671875C92.419189453125,214.1881103515625,92.67333984375,214.201904296875,92.862548828125,214.2254638671875C92.88232421875,214.227783203125,92.871826171875,214.218505859375,92.8193359375,214.20703125C94.38818359375,214.552490234375,95.979736328125,213.777099609375,96.39111328125,212.4620361328125C96.803955078125,211.1470947265625,95.877685546875,209.7945556640625,94.309326171875,209.4486083984375C94.15869140625,209.416259765625,93.95947265625,209.38720703125,93.717529296875,209.357421875Z" stroke-miterlimit="10" style="fill-rule: nonzero; clip-rule: evenodd; stroke-linejoin: round; fill: rgb(242, 58, 229); fill-opacity: 1;"/></g></g></g><g id="shape-df362402-8d3c-809c-8007-fa8d4e915b99"><g class="fills" id="fills-df362402-8d3c-809c-8007-fa8d4e915b99"><rect rx="7.782145459950359" ry="7.782145459950359" x="57.63819095477356" y="158.8219178082195" transform="matrix(1.000000, 0.000000, 0.000000, 1.000000, 0.000000, 0.000000)" width="235.2261306532664" height="146.36529680365265"/></g><g id="strokes-752ba781-055a-8081-8008-28cd7e90aad6-df362402-8d3c-809c-8007-fa8d4e915b99" class="strokes"><g class="stroke-shape"><rect rx="7.782145459950359" ry="7.782145459950359" x="57.63819095477356" y="158.8219178082195" transform="matrix(1.000000, 0.000000, 0.000000, 1.000000, 0.000000, 0.000000)" width="235.2261306532664" height="146.36529680365265" style="fill: none; stroke-width: 6.22572; stroke: rgb(242, 58, 229); stroke-opacity: 1;"/></g></g></g><g id="shape-df362402-8d3c-809c-8007-fa8d6a0bfcb1"><g class="fills" id="fills-df362402-8d3c-809c-8007-fa8d6a0bfcb1"><path d="M202.512451171875,67.592041015625C202.512451171875,67.592041015625,228.994873046875,61.36376953125,233.66845703125,87.833984375C238.341796875,114.3043212890625,208.74365234375,114.3043212890625,208.74365234375,151.6741943359375"/></g><g id="strokes-752ba781-055a-8081-8008-28cd7e90db06-df362402-8d3c-809c-8007-fa8d6a0bfcb1" class="strokes"><g class="stroke-shape"><defs><marker refX="2" fill-opacity="1" orient="auto-start-reverse" id="marker-render-125-line-arrow" viewBox="0 0 3 6" fill="#f23ae5" refY="3" markerWidth="8.5" markerHeight="8.5"><path d="M 0.5 0.5 L 3 3 L 0.5 5.5 L 0 5 L 2 3 L 0 1 z"/></marker><marker refX="3" fill-opacity="1" orient="auto-start-reverse" id="marker-render-125-circle-marker" viewBox="0 0 6 6" fill="#f23ae5" refY="3" markerWidth="4" markerHeight="4"><circle cx="3" cy="3" r="3"/></marker></defs><path d="M202.512451171875,67.592041015625C202.512451171875,67.592041015625,228.994873046875,61.36376953125,233.66845703125,87.833984375C238.341796875,114.3043212890625,208.74365234375,114.3043212890625,208.74365234375,151.6741943359375" style="fill: none; stroke-width: 3.11286; stroke: rgb(242, 58, 229); stroke-opacity: 1; marker-start: url(&quot;#marker-render-125-circle-marker&quot;); marker-end: url(&quot;#marker-render-125-line-arrow&quot;);"/></g></g></g></g></g></g></g></g></g></svg>