<svg width="458" xmlns="http://www.w3.org/2000/svg" height="226" id="screenshot-8af6a589-27c7-808d-8007-67be2c637aed" viewBox="0 0 458 226" xmlns:xlink="http://www.w3.org/1999/xlink" fill="none" version="1.1"><g id="shape-8af6a589-27c7-808d-8007-67be2c637aed"><defs><clipPath id="frame-clip-8af6a589-27c7-808d-8007-67be2c637aed-render-1" class="frame-clip frame-clip-def"><rect rx="0" ry="0" x="0" y="0" width="458" height="226" transform="matrix(1.000000, 0.000000, 0.000000, 1.000000, 0.000000, 0.000000)"/></clipPath></defs><g class="frame-container-wrapper"><g class="frame-container-blur"><g class="frame-container-shadows"><g clip-path="url(#frame-clip-8af6a589-27c7-808d-8007-67be2c637aed-render-1)" fill="none"><g class="fills" id="fills-8af6a589-27c7-808d-8007-67be2c637aed"><rect rx="0" ry="0" x="0" y="0" width="458" height="226" transform="matrix(1.000000, 0.000000, 0.000000, 1.000000, 0.000000, 0.000000)" class="frame-background"/></g><g class="frame-children"><g id="shape-8af6a589-27c7-808d-8007-67bdbb1d126b" xmlns:xlink="http://www.w3.org/1999/xlink" xml:space="preserve" rx="0" ry="0" style="fill: rgb(0, 0, 0);"><g id="shape-8af6a589-27c7-808d-8007-67bdbb1d126c" rx="0" ry="0" style="fill: rgb(0, 0, 0);"><g id="shape-8af6a589-27c7-808d-8007-67bdbb1d126d"><g class="fills" id="fills-8af6a589-27c7-808d-8007-67bdbb1d126d"><path d="M194.12115478515625,77.82977294921875C195.1409912109375,78.36700439453125,195.53375244140625,79.63104248046875,194.9970703125,80.6531982421875C194.46038818359375,81.67529296875,193.1978759765625,82.06829833984375,192.1768798828125,81.53009033203125C191.15594482421875,80.992919921875,190.76434326171875,79.72882080078125,191.3009033203125,78.70770263671875C191.83758544921875,77.6856689453125,193.10009765625,77.2926025390625,194.12115478515625,77.82977294921875Z" stroke-miterlimit="10" style="fill-rule: nonzero; clip-rule: evenodd; stroke-linejoin: round; fill: rgb(74, 207, 203);"/></g></g><g id="shape-8af6a589-27c7-808d-8007-67bdbb1d126e"><g class="fills" id="fills-8af6a589-27c7-808d-8007-67bdbb1d126e"><path d="M166,131.954345703125C165.970458984375,132.01214599609375,167.6259765625,128.82861328125,167.6259765625,128.82861328125L175.58050537109375,113.52740478515625C175.58050537109375,113.52740478515625,190.66925048828125,84.5047607421875,192.4527587890625,81.07427978515625" stroke-miterlimit="10" fill="none" style="fill-rule: nonzero; clip-rule: evenodd; stroke-linejoin: round; fill: none;"/></g><g stroke-miterlimit="10" fill="none" id="strokes-b1c71a4d-4b13-809d-8008-28cd945ee8b9-8af6a589-27c7-808d-8007-67bdbb1d126e" class="strokes" style="fill-rule: nonzero; clip-rule: evenodd; stroke-linejoin: round;"><g class="stroke-shape"><path d="M166,131.954345703125C165.970458984375,132.01214599609375,167.6259765625,128.82861328125,167.6259765625,128.82861328125L175.58050537109375,113.52740478515625C175.58050537109375,113.52740478515625,190.66925048828125,84.5047607421875,192.4527587890625,81.07427978515625" style="fill: none; stroke-width: 0.597491; stroke: rgb(74, 207, 203); stroke-opacity: 1;"/></g></g></g><g id="shape-8af6a589-27c7-808d-8007-67bdbb1d126f"><g class="fills" id="fills-8af6a589-27c7-808d-8007-67bdbb1d126f"><path d="M207.00244140625,160.53076171875C186.0748291015625,159.06134033203125,165.759765625,134.6412353515625,179.57257080078125,109.7744140625C195.0296630859375,81.94488525390625,218.725341796875,97.6492919921875,218.725341796875,97.6492919921875C218.725341796875,97.6492919921875,254.13812255859375,121.72479248046875,259.9769287109375,89.4381103515625" stroke-miterlimit="10" fill="none" style="fill-rule: nonzero; clip-rule: evenodd; stroke-linejoin: round; fill: none;"/></g><g stroke-miterlimit="10" fill="none" id="strokes-b1c71a4d-4b13-809d-8008-28cd945ff325-8af6a589-27c7-808d-8007-67bdbb1d126f" class="strokes" style="fill-rule: nonzero; clip-rule: evenodd; stroke-linejoin: round;"><g class="stroke-shape"><path d="M207.00244140625,160.53076171875C186.0748291015625,159.06134033203125,165.759765625,134.6412353515625,179.57257080078125,109.7744140625C195.0296630859375,81.94488525390625,218.725341796875,97.6492919921875,218.725341796875,97.6492919921875C218.725341796875,97.6492919921875,254.13812255859375,121.72479248046875,259.9769287109375,89.4381103515625" style="fill: none; stroke-width: 2.99042; stroke: rgb(74, 207, 203); stroke-opacity: 1;"/></g></g></g><g id="shape-8af6a589-27c7-808d-8007-67bdbb1d1270" style="opacity: 1;"><g class="fills" id="fills-8af6a589-27c7-808d-8007-67bdbb1d1270"><path d="M199.17169189453125,178.39996337890625L220.7369384765625,177.9161376953125C220.7369384765625,177.9161376953125,249.0638427734375,203.88568115234375,279.8045654296875,191.78741455078125C310.543701171875,179.690673828125,299.43865966796875,146.62646484375,284.79400634765625,140.1746826171875C270.1478271484375,133.722900390625,261.779052734375,132.916015625,261.939453125,123.56146240234375C262.0997314453125,114.2052001953125,295.67950439453125,110.08355712890625,278.37969970703125,79.3758544921875C274.3494873046875,72.2218017578125,273.02880859375,74.49102783203125,269.764892578125,64.70721435546875C265.22528076171875,51.101318359375,251.1568603515625,47.59136962890625,251.1568603515625,47.59136962890625C251.1568603515625,47.59136962890625,256.62744140625,32.75262451171875,246.1673583984375,30.01055908203125C235.70562744140625,27.2684326171875,235.35357666015625,34.2586669921875,235.35357666015625,34.2586669921875C235.35357666015625,34.2586669921875,235.86590576171875,26.94537353515625,228.78497314453125,27.42913818359375C221.7041015625,27.91448974609375,218.4322509765625,36.75885009765625,218.4322509765625,36.75885009765625C218.4322509765625,36.75885009765625,216.8748779296875,31.138916015625,211.72503662109375,32.75262451171875C206.5750732421875,34.36474609375,190.80279541015625,48.07525634765625,208.345703125,73.07550048828125C225.88848876953125,98.0758056640625,237.84521484375,105.14093017578125,230.7906494140625,118.37841796875C223.73468017578125,131.6175537109375,195.81427001953125,128.15753173828125,195.96533203125,154.3330078125C196.11480712890625,180.50848388671875,199.17169189453125,178.39996337890625,199.17169189453125,178.39996337890625Z" stroke-miterlimit="10" style="fill-rule: nonzero; clip-rule: evenodd; stroke-linejoin: round; fill: rgb(163, 120, 243); fill-opacity: 1;"/></g></g><g id="shape-8af6a589-27c7-808d-8007-67bdbb1d1271"><g class="fills" id="fills-8af6a589-27c7-808d-8007-67bdbb1d1271"><path d="M387.8619384765625,45.24334716796875C387.8619384765625,45.24334716796875,388.2259521484375,35.58929443359375,385.4420166015625,31.05908203125C382.65728759765625,26.5286865234375,376.72393798828125,27.12213134765625,376.72393798828125,27.12213134765625C376.72393798828125,27.12213134765625,382.65728759765625,27.714599609375,385.4420166015625,23.1842041015625C388.2259521484375,18.65399169921875,387.8619384765625,9,387.8619384765625,9C387.8619384765625,9,387.49725341796875,18.65399169921875,390.28204345703125,23.1842041015625C393.06658935546875,27.714599609375,399.00006103515625,27.12213134765625,399.00006103515625,27.12213134765625C399.00006103515625,27.12213134765625,393.06658935546875,26.5286865234375,390.28204345703125,31.05908203125C387.49725341796875,35.58929443359375,387.8619384765625,45.24334716796875,387.8619384765625,45.24334716796875Z" stroke-miterlimit="10" style="fill-rule: nonzero; clip-rule: evenodd; stroke-linejoin: round; fill: rgb(255, 154, 232); fill-opacity: 1;"/></g><g stroke-miterlimit="10" id="strokes-b1c71a4d-4b13-809d-8008-28cd9460e1e2-8af6a589-27c7-808d-8007-67bdbb1d1271" class="strokes" style="fill-rule: nonzero; clip-rule: evenodd; stroke-linejoin: round;"><g class="stroke-shape"><path d="M387.8619384765625,45.24334716796875C387.8619384765625,45.24334716796875,388.2259521484375,35.58929443359375,385.4420166015625,31.05908203125C382.65728759765625,26.5286865234375,376.72393798828125,27.12213134765625,376.72393798828125,27.12213134765625C376.72393798828125,27.12213134765625,382.65728759765625,27.714599609375,385.4420166015625,23.1842041015625C388.2259521484375,18.65399169921875,387.8619384765625,9,387.8619384765625,9C387.8619384765625,9,387.49725341796875,18.65399169921875,390.28204345703125,23.1842041015625C393.06658935546875,27.714599609375,399.00006103515625,27.12213134765625,399.00006103515625,27.12213134765625C399.00006103515625,27.12213134765625,393.06658935546875,26.5286865234375,390.28204345703125,31.05908203125C387.49725341796875,35.58929443359375,387.8619384765625,45.24334716796875,387.8619384765625,45.24334716796875Z" style="fill: none; stroke-width: 1.3882; stroke: rgb(255, 154, 232); stroke-opacity: 1;"/></g></g></g><g id="shape-8af6a589-27c7-808d-8007-67bdbb1d1273"><g class="fills" id="fills-8af6a589-27c7-808d-8007-67bdbb1d1273"><path d="M235.2113037109375,32.24993896484375C235.1513671875,34.84716796875,238.3984375,44.9727783203125,235.0367431640625,43.77740478515625C231.67510986328125,42.5819091796875,235.543701171875,32.6090087890625,235.543701171875,32.6090087890625" stroke-miterlimit="10" fill="none" style="fill-rule: nonzero; clip-rule: evenodd; stroke-linejoin: round; fill: none;"/></g><g stroke-miterlimit="10" fill="none" id="strokes-b1c71a4d-4b13-809d-8008-28cd946141a7-8af6a589-27c7-808d-8007-67bdbb1d1273" class="strokes" style="fill-rule: nonzero; clip-rule: evenodd; stroke-linejoin: round;"><g class="stroke-shape"><path d="M235.2113037109375,32.24993896484375C235.1513671875,34.84716796875,238.3984375,44.9727783203125,235.0367431640625,43.77740478515625C231.67510986328125,42.5819091796875,235.543701171875,32.6090087890625,235.543701171875,32.6090087890625" style="fill: none; stroke-width: 0.522657; stroke: rgb(255, 255, 255); stroke-opacity: 1;"/></g></g></g><g id="shape-8af6a589-27c7-808d-8007-67bdbb1d1274"><g class="fills" id="fills-8af6a589-27c7-808d-8007-67bdbb1d1274"><path d="M217.6776123046875,35.15618896484375C217.6776123046875,35.15618896484375,220.9912109375,47.9244384765625,217.7244873046875,46.6982421875C214.45648193359375,45.471923828125,217.6954345703125,35.84930419921875,217.6954345703125,35.84930419921875" stroke-miterlimit="10" fill="none" style="fill-rule: nonzero; clip-rule: evenodd; stroke-linejoin: round; fill: none;"/></g><g stroke-miterlimit="10" fill="none" id="strokes-b1c71a4d-4b13-809d-8008-28cd94619363-8af6a589-27c7-808d-8007-67bdbb1d1274" class="strokes" style="fill-rule: nonzero; clip-rule: evenodd; stroke-linejoin: round;"><g class="stroke-shape"><path d="M217.6776123046875,35.15618896484375C217.6776123046875,35.15618896484375,220.9912109375,47.9244384765625,217.7244873046875,46.6982421875C214.45648193359375,45.471923828125,217.6954345703125,35.84930419921875,217.6954345703125,35.84930419921875" style="fill: none; stroke-width: 0.522657; stroke: rgb(255, 255, 255); stroke-opacity: 1;"/></g></g></g><g id="shape-8af6a589-27c7-808d-8007-67bdbb1d1275" rx="0" ry="0" style="fill: rgb(0, 0, 0);"><g id="shape-8af6a589-27c7-808d-8007-67bdbb1d127b"><g class="fills" id="fills-8af6a589-27c7-808d-8007-67bdbb1d127b"><path d="M278.050537109375,157.8902587890625C278.21783447265625,157.585205078125,278.106201171875,157.20233154296875,277.80242919921875,157.0343017578125L207.90509033203125,118.54583740234375C207.59967041015625,118.3792724609375,207.21820068359375,118.4913330078125,207.0509033203125,118.79638671875L204.597900390625,123.2864990234375C204.430419921875,123.59149169921875,204.54205322265625,123.9759521484375,204.845947265625,124.1424560546875L274.74322509765625,162.63092041015625C275.04876708984375,162.79901123046875,275.43011474609375,162.68695068359375,275.59765625,162.3818359375L278.050537109375,157.8902587890625Z" stroke-miterlimit="10" style="fill-rule: nonzero; clip-rule: evenodd; stroke-linejoin: round; fill: rgb(255, 154, 232);"/></g><g stroke-miterlimit="10" id="strokes-b1c71a4d-4b13-809d-8008-28cd94623301-8af6a589-27c7-808d-8007-67bdbb1d127b" class="strokes" style="fill-rule: nonzero; clip-rule: evenodd; stroke-linejoin: round;"><g class="stroke-shape"><path d="M278.050537109375,157.8902587890625C278.21783447265625,157.585205078125,278.106201171875,157.20233154296875,277.80242919921875,157.0343017578125L207.90509033203125,118.54583740234375C207.59967041015625,118.3792724609375,207.21820068359375,118.4913330078125,207.0509033203125,118.79638671875L204.597900390625,123.2864990234375C204.430419921875,123.59149169921875,204.54205322265625,123.9759521484375,204.845947265625,124.1424560546875L274.74322509765625,162.63092041015625C275.04876708984375,162.79901123046875,275.43011474609375,162.68695068359375,275.59765625,162.3818359375L278.050537109375,157.8902587890625Z" style="fill: none; stroke-width: 1.31672; stroke: rgb(255, 255, 255); stroke-opacity: 0.002;"/></g></g></g><g id="shape-8af6a589-27c7-808d-8007-67bdbb1d127c"><g class="fills" id="fills-8af6a589-27c7-808d-8007-67bdbb1d127c"><path d="M274.4114990234375,164.8502197265625C274.5789794921875,164.545166015625,274.46734619140625,164.16229248046875,274.16339111328125,163.9942626953125L204.2659912109375,125.505859375C203.96221923828125,125.3377685546875,203.57928466796875,125.4498291015625,203.41180419921875,125.75640869140625L200.95880126953125,130.24639892578125C200.79150390625,130.551513671875,200.903076171875,130.93438720703125,201.20697021484375,131.10247802734375L271.1043701171875,169.59088134765625C271.40985107421875,169.75738525390625,271.79119873046875,169.64691162109375,271.95849609375,169.34033203125L274.4114990234375,164.8502197265625Z" stroke-miterlimit="10" style="fill-rule: nonzero; clip-rule: evenodd; stroke-linejoin: round; fill: rgb(255, 154, 232);"/></g><g stroke-miterlimit="10" id="strokes-b1c71a4d-4b13-809d-8008-28cd9462bb5d-8af6a589-27c7-808d-8007-67bdbb1d127c" class="strokes" style="fill-rule: nonzero; clip-rule: evenodd; stroke-linejoin: round;"><g class="stroke-shape"><path d="M274.4114990234375,164.8502197265625C274.5789794921875,164.545166015625,274.46734619140625,164.16229248046875,274.16339111328125,163.9942626953125L204.2659912109375,125.505859375C203.96221923828125,125.3377685546875,203.57928466796875,125.4498291015625,203.41180419921875,125.75640869140625L200.95880126953125,130.24639892578125C200.79150390625,130.551513671875,200.903076171875,130.93438720703125,201.20697021484375,131.10247802734375L271.1043701171875,169.59088134765625C271.40985107421875,169.75738525390625,271.79119873046875,169.64691162109375,271.95849609375,169.34033203125L274.4114990234375,164.8502197265625Z" style="fill: none; stroke-width: 1.31672; stroke: rgb(255, 255, 255); stroke-opacity: 0.002;"/></g></g></g><g id="shape-8af6a589-27c7-808d-8007-67bdbb1d127d"><g class="fills" id="fills-8af6a589-27c7-808d-8007-67bdbb1d127d"><path d="M270.46246337890625,171.7760009765625C270.6298828125,171.47100830078125,270.51824951171875,171.0865478515625,270.21429443359375,170.91998291015625L200.31707763671875,132.43157958984375C200.01153564453125,132.26348876953125,199.63006591796875,132.37554931640625,199.46270751953125,132.6805419921875L197.009765625,137.172119140625C196.84228515625,137.477294921875,196.95391845703125,137.86004638671875,197.25787353515625,138.0281982421875L267.1552734375,176.5166015625C267.46063232421875,176.68310546875,267.84197998046875,176.571044921875,268.0096435546875,176.26605224609375L270.46246337890625,171.7760009765625Z" stroke-miterlimit="10" style="fill-rule: nonzero; clip-rule: evenodd; stroke-linejoin: round; fill: rgb(255, 154, 232);"/></g><g stroke-miterlimit="10" id="strokes-b1c71a4d-4b13-809d-8008-28cd94631d24-8af6a589-27c7-808d-8007-67bdbb1d127d" class="strokes" style="fill-rule: nonzero; clip-rule: evenodd; stroke-linejoin: round;"><g class="stroke-shape"><path d="M270.46246337890625,171.7760009765625C270.6298828125,171.47100830078125,270.51824951171875,171.0865478515625,270.21429443359375,170.91998291015625L200.31707763671875,132.43157958984375C200.01153564453125,132.26348876953125,199.63006591796875,132.37554931640625,199.46270751953125,132.6805419921875L197.009765625,137.172119140625C196.84228515625,137.477294921875,196.95391845703125,137.86004638671875,197.25787353515625,138.0281982421875L267.1552734375,176.5166015625C267.46063232421875,176.68310546875,267.84197998046875,176.571044921875,268.0096435546875,176.26605224609375L270.46246337890625,171.7760009765625Z" style="fill: none; stroke-width: 1.31672; stroke: rgb(255, 255, 255); stroke-opacity: 0.002;"/></g></g></g></g><g id="shape-8af6a589-27c7-808d-8007-67bdbb1d1276"><g class="fills" id="fills-8af6a589-27c7-808d-8007-67bdbb1d1276"><path d="M252.99609375,178.4093017578125C252.99609375,178.4093017578125,251.5234375,148.51739501953125,241.88067626953125,151.97454833984375C232.23779296875,155.43011474609375,238.4169921875,185.96392822265625,240.42987060546875,176.83526611328125C242.44384765625,167.7066650390625,239.7996826171875,149.3170166015625,231.27099609375,149.78851318359375C222.7423095703125,150.25860595703125,226.3673095703125,182.490966796875,229.16998291015625,174.2030029296875C231.9739990234375,165.9166259765625,229.05511474609375,146.0191650390625,219.424560546875,149.98565673828125C209.7943115234375,153.9522705078125,220.03765869140625,177.70892333984375,220.03765869140625,177.70892333984375" stroke-miterlimit="10" fill="none" style="fill-rule: nonzero; clip-rule: evenodd; stroke-linejoin: round; fill: none;"/></g><g stroke-miterlimit="10" fill="none" id="strokes-b1c71a4d-4b13-809d-8008-28cd9463adc9-8af6a589-27c7-808d-8007-67bdbb1d1276" class="strokes" style="fill-rule: nonzero; clip-rule: evenodd; stroke-linejoin: round;"><g class="stroke-shape"><path d="M252.99609375,178.4093017578125C252.99609375,178.4093017578125,251.5234375,148.51739501953125,241.88067626953125,151.97454833984375C232.23779296875,155.43011474609375,238.4169921875,185.96392822265625,240.42987060546875,176.83526611328125C242.44384765625,167.7066650390625,239.7996826171875,149.3170166015625,231.27099609375,149.78851318359375C222.7423095703125,150.25860595703125,226.3673095703125,182.490966796875,229.16998291015625,174.2030029296875C231.9739990234375,165.9166259765625,229.05511474609375,146.0191650390625,219.424560546875,149.98565673828125C209.7943115234375,153.9522705078125,220.03765869140625,177.70892333984375,220.03765869140625,177.70892333984375" style="fill: none; stroke-width: 0.786313; stroke: rgb(255, 255, 255); stroke-opacity: 1;"/></g></g></g><g id="shape-8af6a589-27c7-808d-8007-67bdbb1d1277"><g class="fills" id="fills-8af6a589-27c7-808d-8007-67bdbb1d1277"><path d="M264.595703125,83.473388671875C264.595703125,83.473388671875,263.394287109375,93.64288330078125,251.86181640625,92.1658935546875C240.33087158203125,90.68896484375,241.42437744140625,78.74993896484375,241.42437744140625,78.74993896484375" stroke-miterlimit="10" fill="none" style="fill-rule: nonzero; clip-rule: evenodd; stroke-linejoin: round; fill: none;"/></g><g stroke-miterlimit="10" fill="none" id="strokes-b1c71a4d-4b13-809d-8008-28cd9463e9c4-8af6a589-27c7-808d-8007-67bdbb1d1277" class="strokes" style="fill-rule: nonzero; clip-rule: evenodd; stroke-linejoin: round;"><g class="stroke-shape"><path d="M264.595703125,83.473388671875C264.595703125,83.473388671875,263.394287109375,93.64288330078125,251.86181640625,92.1658935546875C240.33087158203125,90.68896484375,241.42437744140625,78.74993896484375,241.42437744140625,78.74993896484375" style="fill: none; stroke-width: 2.61794; stroke: rgb(255, 255, 255); stroke-opacity: 1;"/></g></g></g><g id="shape-8af6a589-27c7-808d-8007-67bdbb1d1278"><g class="fills" id="fills-8af6a589-27c7-808d-8007-67bdbb1d1278"><path d="M262.0059814453125,77.72589111328125C263.4842529296875,74.9288330078125,262.38165283203125,71.38623046875,259.54119873046875,69.8111572265625C256.70074462890625,68.23614501953125,253.198486328125,69.22705078125,251.72021484375,72.02410888671875C250.240478515625,74.8211669921875,251.343017578125,78.36529541015625,254.1834716796875,79.938720703125C257.02392578125,81.51385498046875,260.52618408203125,80.52288818359375,262.0059814453125,77.72589111328125Z" stroke-miterlimit="10" fill="none" style="fill-rule: nonzero; clip-rule: evenodd; stroke-linejoin: round; fill: none;"/></g><g stroke-miterlimit="10" fill="none" id="strokes-b1c71a4d-4b13-809d-8008-28cd94645c8f-8af6a589-27c7-808d-8007-67bdbb1d1278" class="strokes" style="fill-rule: nonzero; clip-rule: evenodd; stroke-linejoin: round;"><g class="stroke-shape"><path d="M262.0059814453125,77.72589111328125C263.4842529296875,74.9288330078125,262.38165283203125,71.38623046875,259.54119873046875,69.8111572265625C256.70074462890625,68.23614501953125,253.198486328125,69.22705078125,251.72021484375,72.02410888671875C250.240478515625,74.8211669921875,251.343017578125,78.36529541015625,254.1834716796875,79.938720703125C257.02392578125,81.51385498046875,260.52618408203125,80.52288818359375,262.0059814453125,77.72589111328125Z" style="fill: none; stroke-width: 1.99137; stroke: rgb(255, 255, 255); stroke-opacity: 1;"/></g></g></g><g id="shape-8af6a589-27c7-808d-8007-67bdbb1d1279"><g class="fills" id="fills-8af6a589-27c7-808d-8007-67bdbb1d1279"><path d="M175.941162109375,104.03228759765625C178.2440185546875,101.4715576171875,182.2039794921875,101.286376953125,184.78741455078125,103.61956787109375C187.36981201171875,105.9527587890625,187.5980224609375,109.92022705078125,185.2960205078125,112.48095703125C182.99407958984375,115.04180908203125,179.0330810546875,115.22686767578125,176.45068359375,112.894775390625C173.86737060546875,110.56158447265625,173.63922119140625,106.59417724609375,175.941162109375,104.03228759765625Z" stroke-miterlimit="10" style="fill-rule: nonzero; clip-rule: evenodd; stroke-linejoin: round; fill: rgb(255, 255, 255);"/></g><g stroke-miterlimit="10" id="strokes-b1c71a4d-4b13-809d-8008-28cd9464ab5d-8af6a589-27c7-808d-8007-67bdbb1d1279" class="strokes" style="fill-rule: nonzero; clip-rule: evenodd; stroke-linejoin: round;"><g class="stroke-shape"><path d="M175.941162109375,104.03228759765625C178.2440185546875,101.4715576171875,182.2039794921875,101.286376953125,184.78741455078125,103.61956787109375C187.36981201171875,105.9527587890625,187.5980224609375,109.92022705078125,185.2960205078125,112.48095703125C182.99407958984375,115.04180908203125,179.0330810546875,115.22686767578125,176.45068359375,112.894775390625C173.86737060546875,110.56158447265625,173.63922119140625,106.59417724609375,175.941162109375,104.03228759765625Z" style="fill: none; stroke-width: 2.99042; stroke: rgb(74, 207, 203); stroke-opacity: 1;"/></g></g></g><g id="shape-8af6a589-27c7-808d-8007-67bdbb1d127a"><g class="fills" id="fills-8af6a589-27c7-808d-8007-67bdbb1d127a"><path d="M191.52850341796875,117.8677978515625C191.9862060546875,117.90673828125,192.2451171875,118.3985595703125,192.01092529296875,118.7850341796875L186.5089111328125,127.85699462890625C186.29473876953125,128.21044921875,185.790771484375,128.26007080078125,185.50860595703125,127.956298828125L175.83013916015625,117.5504150390625C175.44805908203125,117.13983154296875,175.7808837890625,116.48431396484375,176.347900390625,116.533935546875L191.52850341796875,117.8677978515625Z" stroke-miterlimit="10" style="fill-rule: nonzero; clip-rule: evenodd; stroke-linejoin: round; fill: rgb(255, 154, 232);"/></g><g stroke-miterlimit="10" id="strokes-b1c71a4d-4b13-809d-8008-28cd9464e991-8af6a589-27c7-808d-8007-67bdbb1d127a" class="strokes" style="fill-rule: nonzero; clip-rule: evenodd; stroke-linejoin: round;"><g class="stroke-shape"><path d="M191.52850341796875,117.8677978515625C191.9862060546875,117.90673828125,192.2451171875,118.3985595703125,192.01092529296875,118.7850341796875L186.5089111328125,127.85699462890625C186.29473876953125,128.21044921875,185.790771484375,128.26007080078125,185.50860595703125,127.956298828125L175.83013916015625,117.5504150390625C175.44805908203125,117.13983154296875,175.7808837890625,116.48431396484375,176.347900390625,116.533935546875L191.52850341796875,117.8677978515625Z" style="fill: none; stroke-width: 1.31672; stroke: rgb(255, 255, 255); stroke-opacity: 0.002;"/></g></g></g></g></g><g id="shape-8af6a589-27c7-808d-8007-67bdbb1d127e" rx="0" ry="0" style="fill: rgb(0, 0, 0);"><g id="shape-8af6a589-27c7-808d-8007-67bdbb1d127f" rx="0" ry="0" style="fill: rgb(0, 0, 0);"><g id="shape-8af6a589-27c7-808d-8007-67bdbb1d1289" style="opacity: 1;"><g class="fills" id="fills-8af6a589-27c7-808d-8007-67bdbb1d1289"><path d="M100.6737060546875,103.302978515625C100.6737060546875,101.724853515625,101.96209716796875,100.4466552734375,103.54962158203125,100.4466552734375L167.1240234375,100.4466552734375C168.71307373046875,100.4466552734375,170,101.724853515625,170,103.302978515625L170,139.19232177734375C170,140.76898193359375,168.71307373046875,142.048583984375,167.1240234375,142.048583984375L103.54962158203125,142.048583984375C101.96209716796875,142.048583984375,100.6737060546875,140.76898193359375,100.6737060546875,139.19232177734375L100.6737060546875,103.302978515625L100.6737060546875,103.302978515625" stroke-miterlimit="10" style="fill-rule: nonzero; clip-rule: evenodd; stroke-linejoin: round; fill: rgb(83, 9, 205);"/></g><g stroke-miterlimit="10" id="strokes-b1c71a4d-4b13-809d-8008-28cd94658b39-8af6a589-27c7-808d-8007-67bdbb1d1289" class="strokes" style="fill-rule: nonzero; clip-rule: evenodd; stroke-linejoin: round;"><g class="stroke-shape"><path d="M100.6737060546875,103.302978515625C100.6737060546875,101.724853515625,101.96209716796875,100.4466552734375,103.54962158203125,100.4466552734375L167.1240234375,100.4466552734375C168.71307373046875,100.4466552734375,170,101.724853515625,170,103.302978515625L170,139.19232177734375C170,140.76898193359375,168.71307373046875,142.048583984375,167.1240234375,142.048583984375L103.54962158203125,142.048583984375C101.96209716796875,142.048583984375,100.6737060546875,140.76898193359375,100.6737060546875,139.19232177734375L100.6737060546875,103.302978515625L100.6737060546875,103.302978515625" style="fill: none; stroke-width: 0.0143162; stroke: rgb(231, 68, 188); stroke-opacity: 1;"/></g></g></g><g id="shape-8af6a589-27c7-808d-8007-67bdbb1d128a"><g class="fills" id="fills-8af6a589-27c7-808d-8007-67bdbb1d128a"><path d="M105.720947265625,129.9136962890625L151.9102783203125,129.7451171875" stroke-miterlimit="10" fill="none" style="fill-rule: nonzero; clip-rule: evenodd; stroke-linejoin: round; fill: none;"/></g><g stroke-miterlimit="10" fill="none" id="strokes-b1c71a4d-4b13-809d-8008-28cd9465cf4a-8af6a589-27c7-808d-8007-67bdbb1d128a" class="strokes" style="fill-rule: nonzero; clip-rule: evenodd; stroke-linejoin: round;"><g class="stroke-shape"><path d="M105.720947265625,129.9136962890625L151.9102783203125,129.7451171875" style="fill: none; stroke-width: 2.32638; stroke: rgb(255, 154, 232); stroke-opacity: 1;"/></g></g></g><g id="shape-8af6a589-27c7-808d-8007-67bdbb1d128b"><g class="fills" id="fills-8af6a589-27c7-808d-8007-67bdbb1d128b"><path d="M106.58514404296875,134.87933349609375L126.2366943359375,135.1163330078125" stroke-miterlimit="10" fill="none" style="fill-rule: nonzero; clip-rule: evenodd; stroke-linejoin: round; fill: none;"/></g><g stroke-miterlimit="10" fill="none" id="strokes-b1c71a4d-4b13-809d-8008-28cd946623a7-8af6a589-27c7-808d-8007-67bdbb1d128b" class="strokes" style="fill-rule: nonzero; clip-rule: evenodd; stroke-linejoin: round;"><g class="stroke-shape"><path d="M106.58514404296875,134.87933349609375L126.2366943359375,135.1163330078125" style="fill: none; stroke-width: 4.33494; stroke: rgb(62, 229, 255); stroke-opacity: 1;"/></g></g></g><g id="shape-8af6a589-27c7-808d-8007-67bdbb1d128c"><g class="fills" id="fills-8af6a589-27c7-808d-8007-67bdbb1d128c"><path d="M114.17340087890625,107.1904296875L110.33544921875,111.59619140625L114.003662109375,116.04632568359375" stroke-miterlimit="10" fill="none" style="fill-rule: nonzero; clip-rule: evenodd; stroke-linejoin: round; fill: none;"/></g><g stroke-miterlimit="10" fill="none" id="strokes-b1c71a4d-4b13-809d-8008-28cd946659a1-8af6a589-27c7-808d-8007-67bdbb1d128c" class="strokes" style="fill-rule: nonzero; clip-rule: evenodd; stroke-linejoin: round;"><g class="stroke-shape"><path d="M114.17340087890625,107.1904296875L110.33544921875,111.59619140625L114.003662109375,116.04632568359375" style="fill: none; stroke-width: 1.86683; stroke: rgb(255, 255, 255); stroke-opacity: 1;"/></g></g></g><g id="shape-8af6a589-27c7-808d-8007-67bdbb1d128d"><g class="fills" id="fills-8af6a589-27c7-808d-8007-67bdbb1d128d"><path d="M127.03173828125,116.04779052734375L130.75909423828125,111.5577392578125L126.9814453125,107.1904296875" stroke-miterlimit="10" fill="none" style="fill-rule: nonzero; clip-rule: evenodd; stroke-linejoin: round; fill: none;"/></g><g stroke-miterlimit="10" fill="none" id="strokes-b1c71a4d-4b13-809d-8008-28cd9466887a-8af6a589-27c7-808d-8007-67bdbb1d128d" class="strokes" style="fill-rule: nonzero; clip-rule: evenodd; stroke-linejoin: round;"><g class="stroke-shape"><path d="M127.03173828125,116.04779052734375L130.75909423828125,111.5577392578125L126.9814453125,107.1904296875" style="fill: none; stroke-width: 1.86683; stroke: rgb(255, 255, 255); stroke-opacity: 1;"/></g></g></g><g id="shape-8af6a589-27c7-808d-8007-67bdbb1d128e"><g class="fills" id="fills-8af6a589-27c7-808d-8007-67bdbb1d128e"><path d="M118.08331298828125,116.04632568359375L123.3778076171875,108.091552734375" stroke-miterlimit="10" fill="none" style="fill-rule: nonzero; clip-rule: evenodd; stroke-linejoin: round; fill: none;"/></g><g stroke-miterlimit="10" fill="none" id="strokes-b1c71a4d-4b13-809d-8008-28cd9466c901-8af6a589-27c7-808d-8007-67bdbb1d128e" class="strokes" style="fill-rule: nonzero; clip-rule: evenodd; stroke-linejoin: round;"><g class="stroke-shape"><path d="M118.08331298828125,116.04632568359375L123.3778076171875,108.091552734375" style="fill: none; stroke-width: 1.86683; stroke: rgb(255, 255, 255); stroke-opacity: 1;"/></g></g></g><g id="shape-8af6a589-27c7-808d-8007-67bdbb1d128f"><g class="fills" id="fills-8af6a589-27c7-808d-8007-67bdbb1d128f"><path d="M135.33758544921875,113.85272216796875C135.34332275390625,112.38031005859375,136.5281982421875,111.190673828125,137.98486328125,111.19635009765625C139.4415283203125,111.20062255859375,140.61907958984375,112.39886474609375,140.613525390625,113.87127685546875C140.6077880859375,115.3450927734375,139.42132568359375,116.53472900390625,137.96466064453125,116.529052734375C136.50811767578125,116.52337646484375,135.33184814453125,115.32513427734375,135.33758544921875,113.85272216796875Z" stroke-miterlimit="10" style="fill-rule: nonzero; clip-rule: evenodd; stroke-linejoin: round; fill: rgb(80, 15, 185);"/></g></g><g id="shape-8af6a589-27c7-808d-8007-67bdbb1d1290"><g class="fills" id="fills-8af6a589-27c7-808d-8007-67bdbb1d1290"><path d="M155.55987548828125,114.05841064453125C155.56549072265625,112.58447265625,156.75048828125,111.39630126953125,158.20709228515625,111.40057373046875C159.66387939453125,111.40631103515625,160.84149169921875,112.6044921875,160.835693359375,114.076904296875C160.8299560546875,115.54931640625,159.6436767578125,116.73895263671875,158.1868896484375,116.7332763671875C156.730224609375,116.72900390625,155.5540771484375,115.53076171875,155.55987548828125,114.05841064453125Z" stroke-miterlimit="10" style="fill-rule: nonzero; clip-rule: evenodd; stroke-linejoin: round; fill: rgb(62, 229, 255);"/></g></g><g id="shape-8af6a589-27c7-808d-8007-67bdbb1d1291"><g class="fills" id="fills-8af6a589-27c7-808d-8007-67bdbb1d1291"><path d="M145.39044189453125,114.05841064453125C145.39605712890625,112.58447265625,146.58251953125,111.39630126953125,148.03912353515625,111.40057373046875C149.495849609375,111.40631103515625,150.67218017578125,112.6044921875,150.66644287109375,114.076904296875C150.6605224609375,115.54931640625,149.47576904296875,116.73895263671875,148.01898193359375,116.7332763671875C146.5625,116.72900390625,145.3846435546875,115.53076171875,145.39044189453125,114.05841064453125Z" stroke-miterlimit="10" style="fill-rule: nonzero; clip-rule: evenodd; stroke-linejoin: round; fill: rgb(255, 255, 255);"/></g></g><g id="shape-8af6a589-27c7-808d-8007-67bdbb1d1292"><g class="fills" id="fills-8af6a589-27c7-808d-8007-67bdbb1d1292"><path d="M132.7578125,135.07928466796875L163.299072265625,135.2791748046875" stroke-miterlimit="10" fill="none" style="fill-rule: nonzero; clip-rule: evenodd; stroke-linejoin: round; fill: none;"/></g><g stroke-miterlimit="10" fill="none" id="strokes-b1c71a4d-4b13-809d-8008-28cd9467dc80-8af6a589-27c7-808d-8007-67bdbb1d1292" class="strokes" style="fill-rule: nonzero; clip-rule: evenodd; stroke-linejoin: round;"><g class="stroke-shape"><path d="M132.7578125,135.07928466796875L163.299072265625,135.2791748046875" style="fill: none; stroke-width: 3.25264; stroke: rgb(231, 68, 188); stroke-opacity: 1;"/></g></g></g></g><g id="shape-8af6a589-27c7-808d-8007-67bdbb1d1280" rx="0" ry="0" style="fill: rgb(0, 0, 0);"><g id="shape-8af6a589-27c7-808d-8007-67bdbb1d1293"><g class="fills" id="fills-8af6a589-27c7-808d-8007-67bdbb1d1293"><path d="M139.91162109375,123.3184814453125C88.44354248046875,123.15850830078125,103.638671875,125.87908935546875,66.876953125,153.2481689453125C49.032958984375,166.5328369140625,18,152.1585693359375,18,179.54608154296875C18,187.25811767578125,23.168212890625,189.95013427734375,27.156982421875,190.108642578125" stroke-miterlimit="10" fill="none" style="fill-rule: nonzero; clip-rule: evenodd; stroke-linejoin: round; fill: none;"/></g><g stroke-miterlimit="10" fill="none" id="strokes-b1c71a4d-4b13-809d-8008-28cd9468567f-8af6a589-27c7-808d-8007-67bdbb1d1293" class="strokes" style="fill-rule: nonzero; clip-rule: evenodd; stroke-linejoin: round;"><g class="stroke-shape"><path d="M139.91162109375,123.3184814453125C88.44354248046875,123.15850830078125,103.638671875,125.87908935546875,66.876953125,153.2481689453125C49.032958984375,166.5328369140625,18,152.1585693359375,18,179.54608154296875C18,187.25811767578125,23.168212890625,189.95013427734375,27.156982421875,190.108642578125" style="fill: none; stroke-width: 2.32638; stroke: rgb(236, 48, 193); stroke-opacity: 1;"/></g></g></g></g><g id="shape-8af6a589-27c7-808d-8007-67bdbb1d1281" style="opacity: 1;"><g class="fills" id="fills-8af6a589-27c7-808d-8007-67bdbb1d1281"><path d="M93.1473388671875,57.04864501953125C92.865478515625,56.90521240234375,92.520263671875,57.09521484375,92.472900390625,57.40570068359375C92.42962646484375,57.69305419921875,92.2945556640625,58.1932373046875,92.02410888671875,58.87835693359375C91.56829833984375,60.030029296875,90.9068603515625,61.1934814453125,89.9564208984375,62.270263671875C88.78875732421875,63.59344482421875,87.2889404296875,64.73284912109375,85.4180908203125,65.5728759765625C84.12677001953125,66.152587890625,82.97796630859375,66.2691650390625,81.73272705078125,66.06390380859375C81.198974609375,65.97589111328125,80.65692138671875,65.8082275390625,79.93511962890625,65.5728759765625C79.57696533203125,65.4556884765625,78.18365478515625,65.00872802734375,77.8687744140625,64.90350341796875C72.55120849609375,63.129638671875,67.5152587890625,62.925537109375,59.17510986328125,65.26055908203125C43.744140625,69.58026123046875,38.371826171875,86.0081787109375,39.358154296875,108.68572998046875C39.625732421875,114.84381103515625,40.5013427734375,120.539306640625,41.7396240234375,125.6448974609375C42.2730712890625,127.845703125,42.8297119140625,129.773681640625,43.40185546875,131.44610595703125C43.603271484375,132.03302001953125,43.7728271484375,132.57568359375,43.941162109375,133.00848388671875C44.043212890625,133.26983642578125,44.1265869140625,133.451171875,44.1654052734375,133.5440673828125C45.5501708984375,136.90728759765625,47.1004638671875,139.88641357421875,48.8389892578125,142.6484375C51.4473876953125,146.79010009765625,58.96368408203125,155.47467041015625,59.669677734375,156.75140380859375C60.34698486328125,157.97821044921875,60.63177490234375,159.093505859375,60.6129150390625,160.32177734375C60.51519775390625,166.6456298828125,55.6160888671875,170.078857421875,39.2677001953125,175.2274169921875C32.8873291015625,177.23822021484375,28.864013671875,181.823974609375,26.77587890625,188.17071533203125C25.32080078125,192.59088134765625,24.984375,197.19512939453125,25.2474365234375,201.20263671875C25.2747802734375,201.61236572265625,25.2733154296875,201.89373779296875,25.2919921875,202.05096435546875C25.31787109375,202.2708740234375,25.5191650390625,202.48223876953125,25.741943359375,202.4964599609375C25.9346923828125,202.5093994140625,42.380859375,203.44476318359375,43.8966064453125,203.5233154296875C50.6866455078125,203.87457275390625,55.90081787109375,204.098876953125,58.995361328125,204.1031494140625C59.2669677734375,204.1031494140625,69.1171875,203.794677734375,69.2408447265625,203.7904052734375C71.38916015625,203.720458984375,78.8408203125,203.4832763671875,78.99188232421875,203.47906494140625C79.0435791015625,203.48895263671875,79.25360107421875,203.491943359375,79.57568359375,203.5233154296875C80.11346435546875,203.57611083984375,85.6842041015625,204.06884765625,88.06982421875,204.23736572265625C94.39984130859375,204.68292236328125,100.69366455078125,204.95855712890625,106.58367919921875,204.9957275390625C115.31658935546875,205.04998779296875,122.38134765625,204.54443359375,127.25457763671875,203.3890380859375C137.0572509765625,201.0640869140625,146.18267822265625,195.945556640625,151.0703125,189.15185546875C157.128662109375,180.73431396484375,156.5333251953125,170.3931884765625,148.01470947265625,158.7593994140625C142.3218994140625,150.98455810546875,135.11480712890625,147.65277099609375,126.6693115234375,148.00408935546875C120.00006103515625,148.281005859375,113.08050537109375,150.753173828125,105.19036865234375,155.010498046875C104.0140380859375,155.6446533203125,93.89788818359375,161.61712646484375,92.74322509765625,161.8841552734375C90.09722900390625,162.4925537109375,88.1142578125,161.80419921875,86.6763916015625,160.2774658203125C86.296630859375,159.87481689453125,85.9788818359375,159.45916748046875,85.7330322265625,159.02783203125C85.58648681640625,158.772216796875,85.50299072265625,158.54949951171875,85.46270751953125,158.44659423828125C85.43402099609375,158.373779296875,85.339111328125,158.40667724609375,85.28302001953125,158.35809326171875C87.0733642578125,157.61395263671875,88.7916259765625,156.647216796875,90.40655517578125,155.50177001953125C96.0491943359375,151.50152587890625,99.86834716796875,145.48760986328125,100.201904296875,140.23773193359375C100.47662353515625,135.92327880859375,99.40399169921875,133.35699462890625,96.6976318359375,129.83941650390625C96.63006591796875,129.7523193359375,96.0146484375,128.992431640625,95.84344482421875,128.76824951171875C93.90362548828125,126.2276611328125,93.23480224609375,124.5352783203125,93.416259765625,121.984619140625C93.68359375,118.25848388671875,93.46795654296875,114.78961181640625,93.01202392578125,111.720458984375C92.90570068359375,110.999267578125,92.813720703125,110.353759765625,92.6971435546875,109.801025390625C92.68865966796875,109.75390625,92.6627197265625,109.75537109375,92.6527099609375,109.7110595703125C93.72955322265625,109.74249267578125,95.05548095703125,109.71246337890625,96.60711669921875,109.5325927734375C99.07037353515625,109.248291015625,101.54937744140625,108.669921875,103.9766845703125,107.7474365234375C106.323486328125,106.856201171875,108.65155029296875,105.1552734375,110.897705078125,102.9273681640625C112.095458984375,101.73919677734375,113.1983642578125,100.4952392578125,114.177734375,99.22418212890625C114.52001953125,98.77862548828125,114.81475830078125,98.3458251953125,115.076416015625,97.97454833984375C115.23321533203125,97.74884033203125,115.333740234375,97.57183837890625,115.39129638671875,97.48321533203125C115.4676513671875,97.36614990234375,115.4791259765625,97.25762939453125,115.43585205078125,97.126220703125L112.91949462890625,89.494140625C112.79290771484375,89.11285400390625,112.2593994140625,89.05291748046875,112.06536865234375,89.40570068359375C112.01336669921875,89.49847412109375,111.89996337890625,89.6883544921875,111.75048828125,89.9412841796875C111.500244140625,90.3624267578125,111.22698974609375,90.816650390625,110.897705078125,91.3236083984375C109.95294189453125,92.77471923828125,108.90460205078125,94.21282958984375,107.75128173828125,95.5638427734375C105.49224853515625,98.21307373046875,103.169921875,100.17816162109375,100.87646484375,101.097900390625C97.29443359375,102.53466796875,93.89788818359375,102.6903076171875,91.03485107421875,102.124755859375C90.49554443359375,102.01763916015625,90.10162353515625,101.92333984375,89.91180419921875,101.856201171875L86.9007568359375,99.4912109375C87.64697265625,99.484130859375,88.33575439453125,99.501220703125,89.28204345703125,99.44696044921875C91.39874267578125,99.32415771484375,93.48089599609375,99.07275390625,95.43939208984375,98.68865966796875C98.18310546875,98.150146484375,100.492431640625,97.36328125,102.2237548828125,96.27789306640625C104.7803955078125,94.67694091796875,107.14739990234375,92.24334716796875,109.27996826171875,89.35992431640625C109.96728515625,88.43023681640625,110.59283447265625,87.53759765625,111.1219482421875,86.68212890625C111.4398193359375,86.16802978515625,111.67999267578125,85.781005859375,111.79632568359375,85.5667724609375C111.8697509765625,85.4296875,111.87115478515625,85.25689697265625,111.79632568359375,85.1212158203125L107.93109130859375,78.158447265625C107.74127197265625,77.817138671875,107.21929931640625,77.8399658203125,107.076904296875,78.203125C107.0252685546875,78.33514404296875,106.90283203125,78.58642578125,106.71746826171875,78.9617919921875C106.40679931640625,79.59429931640625,106.03448486328125,80.31549072265625,105.5498046875,81.10382080078125C104.159423828125,83.365966796875,102.32159423828125,85.740966796875,99.9775390625,88.11029052734375C95.7069091796875,92.4276123046875,88.72979736328125,92.6746826171875,78.3173828125,90.6995849609375C75.07904052734375,90.08404541015625,72.94085693359375,90.53533935546875,71.712890625,91.6806640625C71.3260498046875,92.04193115234375,71.2109375,92.3475341796875,71.08294677734375,92.66326904296875L65.82568359375,92.21624755859375C65.792724609375,92.1348876953125,65.77392578125,92.07061767578125,65.73504638671875,91.94915771484375C65.46478271484375,91.0780029296875,65.46051025390625,90.16400146484375,65.87030029296875,89.315673828125C66.155029296875,88.72869873046875,66.64105224609375,88.21173095703125,67.35284423828125,87.7532958984375C68.62689208984375,86.9349365234375,69.37030029296875,87.0220947265625,75.980712890625,88.28887939453125C80.941650390625,89.24005126953125,84.5611572265625,89.56414794921875,88.7427978515625,89.1370849609375C93.3931884765625,88.66302490234375,97.58624267578125,85.6824951171875,101.23590087890625,81.0595703125C102.625,79.29888916015625,103.8385009765625,77.4091796875,104.87548828125,75.525390625C105.2391357421875,74.86578369140625,105.5540771484375,74.24609375,105.81884765625,73.6954345703125C105.97979736328125,73.3634033203125,106.07763671875,73.15606689453125,106.13372802734375,73.02606201171875C106.19110107421875,72.89434814453125,106.20550537109375,72.74908447265625,106.13372802734375,72.624267578125L102.17913818359375,65.70684814453125C102.0009765625,65.3944091796875,101.54656982421875,65.3929443359375,101.3709716796875,65.70684814453125C101.30645751953125,65.8209228515625,101.19415283203125,66.02569580078125,101.01153564453125,66.3316650390625C100.703857421875,66.84332275390625,100.335693359375,67.41253662109375,99.93304443359375,68.02752685546875C98.7813720703125,69.78460693359375,97.5029296875,71.52197265625,96.11248779296875,73.15985107421875C92.78631591796875,77.078857421875,89.388427734375,79.698486328125,86.18182373046875,80.38970947265625C84.7725830078125,80.69390869140625,83.29132080078125,80.76251220703125,81.6435546875,80.612548828125C79.9322509765625,80.4569091796875,78.4884033203125,80.1669921875,75.53204345703125,79.452880859375C68.67730712890625,77.798095703125,65.8905029296875,77.617431640625,62.5902099609375,79.452880859375C60.10833740234375,80.83392333984375,58.4876708984375,83.07037353515625,57.5572509765625,85.92376708984375C56.7476806640625,88.40740966796875,56.55059814453125,90.98663330078125,56.70318603515625,93.2431640625C56.708984375,93.32305908203125,56.69744873046875,93.3572998046875,56.70318603515625,93.421630859375L52.120361328125,94.98406982421875C51.9088134765625,91.63641357421875,52.36767578125,87.67333984375,54.0069580078125,83.87158203125C55.3974609375,80.6468505859375,57.49114990234375,77.96014404296875,60.4779052734375,75.9716796875C65.49212646484375,72.63250732421875,69.17327880859375,72.38287353515625,75.6212158203125,73.82940673828125C75.87432861328125,73.8861083984375,76.00091552734375,73.88958740234375,76.51995849609375,74.0079345703125C80.78790283203125,74.9818115234375,82.826904296875,75.27099609375,85.55316162109375,74.9898681640625C89.4603271484375,74.58697509765625,92.90570068359375,71.96368408203125,95.84344482421875,67.8935546875C96.9549560546875,66.35333251953125,97.90557861328125,64.72137451171875,98.719482421875,63.0736083984375C99.004150390625,62.4969482421875,99.27593994140625,61.94866943359375,99.48297119140625,61.4669189453125C99.6080322265625,61.17626953125,99.66424560546875,61.00103759765625,99.70733642578125,60.88677978515625C99.790771484375,60.66839599609375,99.6929931640625,60.41339111328125,99.48297119140625,60.30657958984375L93.1473388671875,57.04864501953125L93.1473388671875,57.04864501953125" stroke-miterlimit="10" style="fill-rule: nonzero; clip-rule: evenodd; stroke-linejoin: round; fill: rgb(20, 217, 212);"/></g></g><g id="shape-8af6a589-27c7-808d-8007-67bdbb1d1282"><g class="fills" id="fills-8af6a589-27c7-808d-8007-67bdbb1d1282"><path d="M85.3304443359375,157.9710693359375C80.35784912109375,159.3834228515625,74.49957275390625,159.44207763671875,68.35076904296875,157.555419921875" stroke-miterlimit="10" fill="none" style="fill-rule: nonzero; clip-rule: evenodd; stroke-linejoin: round; fill: none;"/></g><g stroke-miterlimit="10" fill="none" id="strokes-b1c71a4d-4b13-809d-8008-28cd946994eb-8af6a589-27c7-808d-8007-67bdbb1d1282" class="strokes" style="fill-rule: nonzero; clip-rule: evenodd; stroke-linejoin: round;"><g class="stroke-shape"><path d="M85.3304443359375,157.9710693359375C80.35784912109375,159.3834228515625,74.49957275390625,159.44207763671875,68.35076904296875,157.555419921875" style="fill: none; stroke-width: 0.920531; stroke: rgb(255, 255, 255); stroke-opacity: 1;"/></g></g></g><g id="shape-8af6a589-27c7-808d-8007-67bdbb1d1283" rx="0" ry="0" style="fill: rgb(0, 0, 0);"><g id="shape-8af6a589-27c7-808d-8007-67bdbb1d1295"><g class="fills" id="fills-8af6a589-27c7-808d-8007-67bdbb1d1295"><path d="M84.38262939453125,185.3543701171875C84.38262939453125,184.903076171875,84.7509765625,184.53753662109375,85.2052001953125,184.53753662109375L93.93670654296875,184.53753662109375C94.39111328125,184.53753662109375,94.7606201171875,184.903076171875,94.7606201171875,185.3543701171875L94.7606201171875,193.4219970703125C94.7606201171875,193.874755859375,94.39111328125,194.24029541015625,93.93670654296875,194.24029541015625L85.2052001953125,194.24029541015625C84.7509765625,194.24029541015625,84.38262939453125,193.874755859375,84.38262939453125,193.4219970703125L84.38262939453125,185.3543701171875Z" stroke-miterlimit="10" style="fill-rule: nonzero; clip-rule: evenodd; stroke-linejoin: round; fill: rgb(83, 9, 205); fill-opacity: 0.043;"/></g><g stroke-miterlimit="10" id="strokes-b1c71a4d-4b13-809d-8008-28cd9469ca7a-8af6a589-27c7-808d-8007-67bdbb1d1295" class="strokes" style="fill-rule: nonzero; clip-rule: evenodd; stroke-linejoin: round;"><g class="stroke-shape"><path d="M84.38262939453125,185.3543701171875C84.38262939453125,184.903076171875,84.7509765625,184.53753662109375,85.2052001953125,184.53753662109375L93.93670654296875,184.53753662109375C94.39111328125,184.53753662109375,94.7606201171875,184.903076171875,94.7606201171875,185.3543701171875L94.7606201171875,193.4219970703125C94.7606201171875,193.874755859375,94.39111328125,194.24029541015625,93.93670654296875,194.24029541015625L85.2052001953125,194.24029541015625C84.7509765625,194.24029541015625,84.38262939453125,193.874755859375,84.38262939453125,193.4219970703125L84.38262939453125,185.3543701171875Z" style="fill: none; stroke-width: 0.429485; stroke: rgb(83, 9, 205); stroke-opacity: 1;"/></g></g></g><g id="shape-8af6a589-27c7-808d-8007-67bdbb1d1296"><g class="fills" id="fills-8af6a589-27c7-808d-8007-67bdbb1d1296"><path d="M96.7076416015625,196.1141357421875C96.7076416015625,195.66278076171875,97.075927734375,195.29718017578125,97.5316162109375,195.29718017578125L106.26171875,195.29718017578125C106.71746826171875,195.29718017578125,107.08563232421875,195.66278076171875,107.08563232421875,196.1141357421875L107.08563232421875,204.18170166015625C107.08563232421875,204.63446044921875,106.71746826171875,205,106.26171875,205L97.5316162109375,205C97.075927734375,205,96.7076416015625,204.63446044921875,96.7076416015625,204.18170166015625L96.7076416015625,196.1141357421875Z" stroke-miterlimit="10" style="fill-rule: nonzero; clip-rule: evenodd; stroke-linejoin: round; fill: rgb(250, 90, 207);"/></g></g><g id="shape-8af6a589-27c7-808d-8007-67bdbb1d1298"><g class="fills" id="fills-8af6a589-27c7-808d-8007-67bdbb1d1298"><path d="M61.3880615234375,196.1141357421875C61.3880615234375,195.66278076171875,61.7576904296875,195.29718017578125,62.2119140625,195.29718017578125L70.9420166015625,195.29718017578125C71.39794921875,195.29718017578125,71.7659912109375,195.66278076171875,71.7659912109375,196.1141357421875L71.7659912109375,204.18170166015625C71.7659912109375,204.63446044921875,71.39794921875,205,70.9420166015625,205L62.2119140625,205C61.7576904296875,205,61.3880615234375,204.63446044921875,61.3880615234375,204.18170166015625L61.3880615234375,196.1141357421875Z" stroke-miterlimit="10" style="fill-rule: nonzero; clip-rule: evenodd; stroke-linejoin: round; fill: rgb(83, 9, 205);"/></g></g><g id="shape-8af6a589-27c7-808d-8007-67bdbb1d1299"><g class="fills" id="fills-8af6a589-27c7-808d-8007-67bdbb1d1299"><path d="M74.15594482421875,196.1141357421875C74.15594482421875,195.66278076171875,74.52545166015625,195.29718017578125,74.9798583984375,195.29718017578125L83.70989990234375,195.29718017578125C84.16558837890625,195.29718017578125,84.5338134765625,195.66278076171875,84.5338134765625,196.1141357421875L84.5338134765625,204.18170166015625C84.5338134765625,204.63446044921875,84.16558837890625,205,83.70989990234375,205L74.9798583984375,205C74.52545166015625,205,74.15594482421875,204.63446044921875,74.15594482421875,204.18170166015625L74.15594482421875,196.1141357421875Z" stroke-miterlimit="10" style="fill-rule: nonzero; clip-rule: evenodd; stroke-linejoin: round; fill: rgb(255, 154, 232);"/></g></g><g id="shape-8af6a589-27c7-808d-8007-67bdbb1d129b"><g class="fills" id="fills-8af6a589-27c7-808d-8007-67bdbb1d129b"><path d="M48.76123046875,182.34246826171875C48.76123046875,181.89111328125,49.1292724609375,181.52410888671875,49.585205078125,181.52410888671875L58.315185546875,181.52410888671875C58.7696533203125,181.52410888671875,59.1390380859375,181.89111328125,59.1390380859375,182.34246826171875L59.1390380859375,190.4100341796875C59.1390380859375,190.861328125,58.7696533203125,191.22833251953125,58.315185546875,191.22833251953125L49.585205078125,191.22833251953125C49.1292724609375,191.22833251953125,48.76123046875,190.861328125,48.76123046875,190.4100341796875L48.76123046875,182.34246826171875Z" stroke-miterlimit="10" style="fill-rule: nonzero; clip-rule: evenodd; stroke-linejoin: round; fill: rgb(83, 9, 205);"/></g></g></g><g id="shape-8af6a589-27c7-808d-8007-67bdbb1d1284"><g class="fills" id="fills-8af6a589-27c7-808d-8007-67bdbb1d1284"><path d="M134.5985107421875,162.75823974609375C134.5985107421875,162.75823974609375,120.91754150390625,152.04852294921875,110.62890625,160.798828125C100.3385009765625,169.547607421875,85.04718017578125,182.89794921875,89.9736328125,185.92132568359375C94.8988037109375,188.9461669921875,122.89190673828125,174.279052734375,118.95330810546875,169.00494384765625C115.01458740234375,163.73077392578125,103.4532470703125,177.24822998046875,108.6256103515625,180.82293701171875C113.79669189453125,184.39898681640625,131.0150146484375,182.40814208984375,126.66802978515625,179.3760986328125C122.32098388671875,176.34564208984375,104.756103515625,182.2010498046875,108.02471923828125,186.5340576171875C111.2916259765625,190.86700439453125,121.88238525390625,188.172119140625,121.88238525390625,188.172119140625" stroke-miterlimit="10" fill="none" style="fill-rule: nonzero; clip-rule: evenodd; stroke-linejoin: round; fill: none;"/></g><g stroke-miterlimit="10" fill="none" id="strokes-b1c71a4d-4b13-809d-8008-28cd946b6e3b-8af6a589-27c7-808d-8007-67bdbb1d1284" class="strokes" style="fill-rule: nonzero; clip-rule: evenodd; stroke-linejoin: round;"><g class="stroke-shape"><path d="M134.5985107421875,162.75823974609375C134.5985107421875,162.75823974609375,120.91754150390625,152.04852294921875,110.62890625,160.798828125C100.3385009765625,169.547607421875,85.04718017578125,182.89794921875,89.9736328125,185.92132568359375C94.8988037109375,188.9461669921875,122.89190673828125,174.279052734375,118.95330810546875,169.00494384765625C115.01458740234375,163.73077392578125,103.4532470703125,177.24822998046875,108.6256103515625,180.82293701171875C113.79669189453125,184.39898681640625,131.0150146484375,182.40814208984375,126.66802978515625,179.3760986328125C122.32098388671875,176.34564208984375,104.756103515625,182.2010498046875,108.02471923828125,186.5340576171875C111.2916259765625,190.86700439453125,121.88238525390625,188.172119140625,121.88238525390625,188.172119140625" style="fill: none; stroke-width: 0.920531; stroke: rgb(255, 255, 255); stroke-opacity: 1;"/></g></g></g><g id="shape-8af6a589-27c7-808d-8007-67bdbb1d1285"><g class="fills" id="fills-8af6a589-27c7-808d-8007-67bdbb1d1285"><path d="M70.569580078125,123.30279541015625C70.569580078125,120.43365478515625,73.00555419921875,118.107177734375,76.00946044921875,118.107177734375C79.013427734375,118.107177734375,81.44793701171875,120.43365478515625,81.44793701171875,123.30279541015625C81.44793701171875,126.17193603515625,79.013427734375,128.49835205078125,76.00946044921875,128.49835205078125C73.00555419921875,128.49835205078125,70.569580078125,126.17193603515625,70.569580078125,123.30279541015625Z" stroke-miterlimit="10" fill="none" style="fill-rule: nonzero; clip-rule: evenodd; stroke-linejoin: round; fill: none;"/></g><g stroke-miterlimit="10" fill="none" id="strokes-b1c71a4d-4b13-809d-8008-28cd946bbe7d-8af6a589-27c7-808d-8007-67bdbb1d1285" class="strokes" style="fill-rule: nonzero; clip-rule: evenodd; stroke-linejoin: round;"><g class="stroke-shape"><path d="M70.569580078125,123.30279541015625C70.569580078125,120.43365478515625,73.00555419921875,118.107177734375,76.00946044921875,118.107177734375C79.013427734375,118.107177734375,81.44793701171875,120.43365478515625,81.44793701171875,123.30279541015625C81.44793701171875,126.17193603515625,79.013427734375,128.49835205078125,76.00946044921875,128.49835205078125C73.00555419921875,128.49835205078125,70.569580078125,126.17193603515625,70.569580078125,123.30279541015625Z" style="fill: none; stroke-width: 1.8382; stroke: rgb(255, 255, 255); stroke-opacity: 1;"/></g></g></g><g id="shape-8af6a589-27c7-808d-8007-67bdbb1d1286"><g class="fills" id="fills-8af6a589-27c7-808d-8007-67bdbb1d1286"><path d="M65.738037109375,126.49609375C65.738037109375,126.49609375,62.3544921875,135.00927734375,72.3209228515625,138.86810302734375C82.28753662109375,142.72705078125,86.5152587890625,132.871337890625,86.5152587890625,132.871337890625" stroke-miterlimit="10" fill="none" style="fill-rule: nonzero; clip-rule: evenodd; stroke-linejoin: round; fill: none;"/></g><g stroke-miterlimit="10" fill="none" id="strokes-b1c71a4d-4b13-809d-8008-28cd946bcbf6-8af6a589-27c7-808d-8007-67bdbb1d1286" class="strokes" style="fill-rule: nonzero; clip-rule: evenodd; stroke-linejoin: round;"><g class="stroke-shape"><path d="M65.738037109375,126.49609375C65.738037109375,126.49609375,62.3544921875,135.00927734375,72.3209228515625,138.86810302734375C82.28753662109375,142.72705078125,86.5152587890625,132.871337890625,86.5152587890625,132.871337890625" style="fill: none; stroke-width: 2.41657; stroke: rgb(255, 255, 255); stroke-opacity: 1;"/></g></g></g><g id="shape-8af6a589-27c7-808d-8007-67bdbb1d1287"><g class="fills" id="fills-8af6a589-27c7-808d-8007-67bdbb1d1287"><path d="M90.34326171875,184.410400390625C89.64300537109375,183.30352783203125,90.7286376953125,181.37554931640625,92.76763916015625,180.10595703125C94.80517578125,178.83489990234375,97.02545166015625,178.70343017578125,97.72576904296875,179.81170654296875C98.42462158203125,180.9185791015625,97.3388671875,182.84649658203125,95.30126953125,184.11614990234375C93.26239013671875,185.38720703125,91.04205322265625,185.51861572265625,90.34326171875,184.410400390625Z" stroke-miterlimit="10" style="fill-rule: nonzero; clip-rule: evenodd; stroke-linejoin: round; fill: rgb(83, 9, 205);"/></g></g><g id="shape-8af6a589-27c7-808d-8007-67bdbb1d1288"><g class="fills" id="fills-8af6a589-27c7-808d-8007-67bdbb1d1288"><path d="M26.46826171875,190.0687255859375L44.6529541015625,189.960205078125L44.8685302734375,180.267333984375L36.19482421875,180.35723876953125L36.1846923828125,185.57861328125" stroke-miterlimit="10" fill="none" style="fill-rule: nonzero; clip-rule: evenodd; stroke-linejoin: round; fill: none;"/></g><g stroke-miterlimit="10" fill="none" id="strokes-b1c71a4d-4b13-809d-8008-28cd946c69f0-8af6a589-27c7-808d-8007-67bdbb1d1288" class="strokes" style="fill-rule: nonzero; clip-rule: evenodd; stroke-linejoin: round;"><g class="stroke-shape"><path d="M26.46826171875,190.0687255859375L44.6529541015625,189.960205078125L44.8685302734375,180.267333984375L36.19482421875,180.35723876953125L36.1846923828125,185.57861328125" style="fill: none; stroke-width: 2.32638; stroke: rgb(236, 48, 193); stroke-opacity: 1;"/></g></g></g></g><g id="shape-8af6a589-27c7-808d-8007-67bdbb1d129c" rx="0" ry="0"><g id="shape-8af6a589-27c7-808d-8007-67bdbb1d129d" rx="0" ry="0"><g id="shape-8af6a589-27c7-808d-8007-67bdbb1d12a3" rx="0" ry="0" style="fill: rgb(0, 0, 0);"><g id="shape-8af6a589-27c7-808d-8007-67bdbb1d12a4" rx="0" ry="0" style="fill: rgb(0, 0, 0);"><g id="shape-8af6a589-27c7-808d-8007-67bdbb1d12a8"><g class="fills" id="fills-8af6a589-27c7-808d-8007-67bdbb1d12a8"><path d="M342.31243896484375,205.229736328125C342.31201171875,205.01654052734375,342.484130859375,204.84283447265625,342.6961669921875,204.84246826171875L354.8599853515625,204.82098388671875C355.07196044921875,204.82061767578125,355.2447509765625,204.99365234375,355.2451171875,205.2069091796875L355.26470947265625,216.48675537109375C355.26513671875,216.699951171875,355.09295654296875,216.87286376953125,354.8809814453125,216.873291015625L342.7171630859375,216.8948974609375C342.50506591796875,216.895263671875,342.3323974609375,216.7227783203125,342.3321533203125,216.50958251953125L342.31243896484375,205.229736328125Z" stroke-miterlimit="10" style="fill-rule: nonzero; clip-rule: evenodd; stroke-linejoin: round; fill: rgb(255, 154, 232); fill-opacity: 1;"/></g></g><g id="shape-8af6a589-27c7-808d-8007-67bdbb1d12a9"><g class="fills" id="fills-8af6a589-27c7-808d-8007-67bdbb1d12a9"><path d="M283.17901611328125,205.334228515625C283.178466796875,205.12103271484375,283.3499755859375,204.9473876953125,283.56256103515625,204.94696044921875L295.7265625,204.92547607421875C295.93853759765625,204.92510986328125,296.11053466796875,205.09820556640625,296.11090087890625,205.3114013671875L296.130615234375,216.59124755859375C296.130859375,216.804443359375,295.95953369140625,216.9774169921875,295.74755859375,216.97784423828125L283.5836181640625,216.99932861328125C283.37103271484375,216.9996337890625,283.198974609375,216.8272705078125,283.19854736328125,216.61407470703125L283.17901611328125,205.334228515625Z" stroke-miterlimit="10" fill="none" style="fill-rule: nonzero; clip-rule: evenodd; stroke-linejoin: round; fill: none;"/></g><g stroke-miterlimit="10" fill="none" id="strokes-b1c71a4d-4b13-809d-8008-28cd946d7f76-8af6a589-27c7-808d-8007-67bdbb1d12a9" class="strokes" style="fill-rule: nonzero; clip-rule: evenodd; stroke-linejoin: round;"><g class="stroke-shape"><path d="M283.17901611328125,205.334228515625C283.178466796875,205.12103271484375,283.3499755859375,204.9473876953125,283.56256103515625,204.94696044921875L295.7265625,204.92547607421875C295.93853759765625,204.92510986328125,296.11053466796875,205.09820556640625,296.11090087890625,205.3114013671875L296.130615234375,216.59124755859375C296.130859375,216.804443359375,295.95953369140625,216.9774169921875,295.74755859375,216.97784423828125L283.5836181640625,216.99932861328125C283.37103271484375,216.9996337890625,283.198974609375,216.8272705078125,283.19854736328125,216.61407470703125L283.17901611328125,205.334228515625Z" style="fill: none; stroke-width: 2.03153; stroke: rgb(29, 227, 221); stroke-opacity: 1;"/></g></g></g><g id="shape-8af6a589-27c7-808d-8007-67bdbb1d12aa"><g class="fills" id="fills-8af6a589-27c7-808d-8007-67bdbb1d12aa"><path d="M298.2991943359375,205.3074951171875C298.2989501953125,205.09429931640625,298.47027587890625,204.92059326171875,298.682861328125,204.9202880859375L310.84674072265625,204.89874267578125C311.0587158203125,204.8983154296875,311.2308349609375,205.07147216796875,311.2310791015625,205.28460693359375L311.2508544921875,216.56451416015625C311.2513427734375,216.77764892578125,311.07989501953125,216.9508056640625,310.8677978515625,216.9510498046875L298.7041015625,216.97259521484375C298.49127197265625,216.97296142578125,298.3193359375,216.80059814453125,298.31890869140625,216.58740234375L298.2991943359375,205.3074951171875Z" stroke-miterlimit="10" style="fill-rule: nonzero; clip-rule: evenodd; stroke-linejoin: round; fill: rgb(47, 34, 108); fill-opacity: 1;"/></g></g><g id="shape-8af6a589-27c7-808d-8007-67bdbb1d12ab"><g class="fills" id="fills-8af6a589-27c7-808d-8007-67bdbb1d12ab"><path d="M314.2098388671875,205.2794189453125C314.2093505859375,205.06622314453125,314.38092041015625,204.89251708984375,314.593505859375,204.89208984375L326.75738525390625,204.87060546875C326.9693603515625,204.8702392578125,327.14129638671875,205.0433349609375,327.1417236328125,205.25653076171875L327.16143798828125,216.536376953125C327.161865234375,216.7496337890625,326.9903564453125,216.92254638671875,326.7784423828125,216.9229736328125L314.61456298828125,216.94451904296875C314.4019775390625,216.94488525390625,314.2298583984375,216.7724609375,314.2296142578125,216.55926513671875L314.2098388671875,205.2794189453125Z" stroke-miterlimit="10" style="fill-rule: nonzero; clip-rule: evenodd; stroke-linejoin: round; fill: rgb(20, 206, 202); fill-opacity: 1;"/></g></g><g id="shape-8af6a589-27c7-808d-8007-67bdbb1d12ac"><g class="fills" id="fills-8af6a589-27c7-808d-8007-67bdbb1d12ac"><path d="M298.15301513671875,191.94378662109375C298.15277099609375,191.72998046875,298.3240966796875,191.556884765625,298.53607177734375,191.55645751953125L310.7000732421875,191.5350341796875C310.91265869140625,191.53466796875,311.084716796875,191.70703125,311.0849609375,191.9208984375L311.10479736328125,203.2001953125C311.105224609375,203.41339111328125,310.9337158203125,203.5870361328125,310.72113037109375,203.58740234375L298.55712890625,203.60894775390625C298.34515380859375,203.60931396484375,298.17315673828125,203.43621826171875,298.17279052734375,203.2230224609375L298.15301513671875,191.94378662109375Z" style="fill: rgb(255, 30, 189); fill-opacity: 1;"/></g></g><g id="shape-8af6a589-27c7-808d-8007-67bdbb1d12ad"><g class="fills" id="fills-8af6a589-27c7-808d-8007-67bdbb1d12ad"><path d="M364.451416015625,202.89886474609375C364.4510498046875,202.6856689453125,364.62249755859375,202.5126953125,364.83526611328125,202.51226806640625L376.99908447265625,202.4908447265625C377.2110595703125,202.49041748046875,377.383056640625,202.662841796875,377.3834228515625,202.8759765625L377.4031982421875,214.15594482421875C377.403564453125,214.36907958984375,377.23211669921875,214.5421142578125,377.0201416015625,214.54248046875L364.85614013671875,214.56390380859375C364.6435546875,214.5643310546875,364.4715576171875,214.39190673828125,364.47113037109375,214.1788330078125L364.451416015625,202.89886474609375Z" stroke-miterlimit="10" style="fill-rule: nonzero; clip-rule: evenodd; stroke-linejoin: round; fill: rgb(163, 120, 243); fill-opacity: 1;"/></g></g></g><g id="shape-8af6a589-27c7-808d-8007-67bdbb1d12a5"><g class="fills" id="fills-8af6a589-27c7-808d-8007-67bdbb1d12a5"><path d="M332.84033203125,151.59356689453125C332.84033203125,151.59356689453125,297.41229248046875,187.4200439453125,303.88482666015625,193.6351318359375C310.356689453125,199.850341796875,347.00213623046875,166.52276611328125,341.1119384765625,164.1475830078125C335.2216796875,161.77227783203125,317.21844482421875,188.84027099609375,331.14581298828125,187.22552490234375C345.07318115234375,185.61077880859375,359.1728515625,170.0797119140625,354.26373291015625,167.90179443359375C349.35479736328125,165.72314453125,335.9970703125,181.26300048828125,343.50592041015625,187.004638671875C351.015380859375,192.746337890625,356.05010986328125,179.627197265625,365.8538818359375,175.8330078125C375.65716552734375,172.0382080078125,378.0205078125,177.00439453125,394.114501953125,180.15643310546875C410.208984375,183.30889892578125,439.0164794921875,163.5771484375,431.70538330078125,134.36712646484375C424.39508056640625,105.15728759765625,398.0994873046875,102.81805419921875,398.0994873046875,102.81805419921875" stroke-miterlimit="10" fill="none" style="fill-rule: nonzero; clip-rule: evenodd; stroke-linejoin: round; fill: none;"/></g><g stroke-miterlimit="10" fill="none" id="strokes-b1c71a4d-4b13-809d-8008-28cd946e9968-8af6a589-27c7-808d-8007-67bdbb1d12a5" class="strokes" style="fill-rule: nonzero; clip-rule: evenodd; stroke-linejoin: round;"><g class="stroke-shape"><path d="M332.84033203125,151.59356689453125C332.84033203125,151.59356689453125,297.41229248046875,187.4200439453125,303.88482666015625,193.6351318359375C310.356689453125,199.850341796875,347.00213623046875,166.52276611328125,341.1119384765625,164.1475830078125C335.2216796875,161.77227783203125,317.21844482421875,188.84027099609375,331.14581298828125,187.22552490234375C345.07318115234375,185.61077880859375,359.1728515625,170.0797119140625,354.26373291015625,167.90179443359375C349.35479736328125,165.72314453125,335.9970703125,181.26300048828125,343.50592041015625,187.004638671875C351.015380859375,192.746337890625,356.05010986328125,179.627197265625,365.8538818359375,175.8330078125C375.65716552734375,172.0382080078125,378.0205078125,177.00439453125,394.114501953125,180.15643310546875C410.208984375,183.30889892578125,439.0164794921875,163.5771484375,431.70538330078125,134.36712646484375C424.39508056640625,105.15728759765625,398.0994873046875,102.81805419921875,398.0994873046875,102.81805419921875" style="fill: none; stroke-width: 2.29814; stroke: rgb(21, 16, 53); stroke-opacity: 1; stroke-linecap: round;"/></g></g></g><g id="shape-8af6a589-27c7-808d-8007-67bdbb1d12a6"><g class="fills" id="fills-8af6a589-27c7-808d-8007-67bdbb1d12a6"><path d="M303.4324951171875,183.81005859375C304.822509765625,180.29119873046875,307.126708984375,177.91424560546875,308.58013916015625,178.50140380859375C310.0328369140625,179.0877685546875,310.084228515625,182.41650390625,308.69439697265625,185.93536376953125C307.3045654296875,189.4549560546875,304.99957275390625,191.83184814453125,303.54681396484375,191.2447509765625C302.0941162109375,190.65771484375,302.04266357421875,187.32958984375,303.4324951171875,183.81005859375Z" stroke-miterlimit="10" style="fill-rule: nonzero; clip-rule: evenodd; stroke-linejoin: round; fill: rgb(17, 231, 228); fill-opacity: 1;"/></g></g></g></g><g id="shape-8af6a589-27c7-808d-8007-67bdbb1d129e" style="display: none;"><g class="fills" id="fills-8af6a589-27c7-808d-8007-67bdbb1d129e"><path d="M326.92987060546875,191.89300537109375C326.9295654296875,191.6790771484375,327.1009521484375,191.50616455078125,327.31365966796875,191.50567626953125L339.4774169921875,191.48419189453125C339.68939208984375,191.48382568359375,339.86151123046875,191.65625,339.86181640625,191.87017822265625L339.88153076171875,203.14923095703125C339.88189697265625,203.362548828125,339.71044921875,203.5361328125,339.49847412109375,203.53656005859375L327.33465576171875,203.55804443359375C327.1220703125,203.55841064453125,326.9500732421875,203.3853759765625,326.9495849609375,203.17218017578125L326.92987060546875,191.89300537109375Z"/></g><g id="strokes-b1c71a4d-4b13-809d-8008-28cd946f7a08-8af6a589-27c7-808d-8007-67bdbb1d129e" class="strokes"><g class="stroke-shape"><path d="M326.92987060546875,191.89300537109375C326.9295654296875,191.6790771484375,327.1009521484375,191.50616455078125,327.31365966796875,191.50567626953125L339.4774169921875,191.48419189453125C339.68939208984375,191.48382568359375,339.86151123046875,191.65625,339.86181640625,191.87017822265625L339.88153076171875,203.14923095703125C339.88189697265625,203.362548828125,339.71044921875,203.5361328125,339.49847412109375,203.53656005859375L327.33465576171875,203.55804443359375C327.1220703125,203.55841064453125,326.9500732421875,203.3853759765625,326.9495849609375,203.17218017578125L326.92987060546875,191.89300537109375Z" style="fill: none; stroke-width: 1.43571; stroke: rgb(105, 17, 212); stroke-opacity: 1;"/></g></g></g><g id="shape-8af6a589-27c7-808d-8007-67bdbb1d129f"><g class="fills" id="fills-8af6a589-27c7-808d-8007-67bdbb1d129f"><path d="M365.3521728515625,64.6060791015625C356.12310791015625,62.179443359375,326.76898193359375,66.68792724609375,339.8148193359375,94.19793701171875C352.8607177734375,121.70794677734375,349.33160400390625,134.919189453125,368.90057373046875,140.257080078125C388.469482421875,145.5948486328125,403.0921630859375,116.3414306640625,398.89874267578125,103.20220947265625C394.70550537109375,90.06317138671875,381.765380859375,68.9215087890625,365.3521728515625,64.6060791015625" style="fill: rgb(255, 154, 232); fill-opacity: 1;"/></g></g><g id="shape-8af6a589-27c7-808d-8007-67bdbb1d12a0"><g class="fills" id="fills-8af6a589-27c7-808d-8007-67bdbb1d12a0"><path d="M358.07080078125,108.58062744140625C358.07080078125,108.58062744140625,364.62591552734375,116.04632568359375,373.362060546875,108.42401123046875C382.09722900390625,100.80096435546875,374.6639404296875,91.85980224609375,374.6639404296875,91.85980224609375" stroke-miterlimit="10" fill="none" style="fill-rule: nonzero; clip-rule: evenodd; stroke-linejoin: round; fill: none;"/></g><g stroke-miterlimit="10" fill="none" id="strokes-b1c71a4d-4b13-809d-8008-28cd946ffa5c-8af6a589-27c7-808d-8007-67bdbb1d12a0" class="strokes" style="fill-rule: nonzero; clip-rule: evenodd; stroke-linejoin: round;"><g class="stroke-shape"><path d="M358.07080078125,108.58062744140625C358.07080078125,108.58062744140625,364.62591552734375,116.04632568359375,373.362060546875,108.42401123046875C382.09722900390625,100.80096435546875,374.6639404296875,91.85980224609375,374.6639404296875,91.85980224609375" style="fill: none; stroke-width: 2.11121; stroke: rgb(21, 16, 53); stroke-opacity: 1;"/></g></g></g><g id="shape-8af6a589-27c7-808d-8007-67bdbb1d12a1"><g class="fills" id="fills-8af6a589-27c7-808d-8007-67bdbb1d12a1"><path d="M361.4681396484375,101.75250244140625C358.94049072265625,100.47314453125,358.0009765625,97.34442138671875,359.3695068359375,94.763427734375C360.73748779296875,92.1829833984375,363.89556884765625,91.1279296875,366.4232177734375,92.40728759765625C368.9508056640625,93.68603515625,369.890869140625,96.81536865234375,368.5223388671875,99.39581298828125C367.15386962890625,101.9761962890625,363.99560546875,103.03131103515625,361.4681396484375,101.75250244140625Z" stroke-miterlimit="10" fill="none" style="fill-rule: nonzero; clip-rule: evenodd; stroke-linejoin: round; fill: none;"/></g><g stroke-miterlimit="10" fill="none" id="strokes-b1c71a4d-4b13-809d-8008-28cd94707dfd-8af6a589-27c7-808d-8007-67bdbb1d12a1" class="strokes" style="fill-rule: nonzero; clip-rule: evenodd; stroke-linejoin: round;"><g class="stroke-shape"><path d="M361.4681396484375,101.75250244140625C358.94049072265625,100.47314453125,358.0009765625,97.34442138671875,359.3695068359375,94.763427734375C360.73748779296875,92.1829833984375,363.89556884765625,91.1279296875,366.4232177734375,92.40728759765625C368.9508056640625,93.68603515625,369.890869140625,96.81536865234375,368.5223388671875,99.39581298828125C367.15386962890625,101.9761962890625,363.99560546875,103.03131103515625,361.4681396484375,101.75250244140625Z" style="fill: none; stroke-width: 2.11121; stroke: rgb(21, 16, 53); stroke-opacity: 1;"/></g></g></g><g id="shape-8af6a589-27c7-808d-8007-67bdbb1d12a2"><g class="fills" id="fills-8af6a589-27c7-808d-8007-67bdbb1d12a2"><path d="M380.5565185546875,79.30389404296875C379.76116943359375,76.61212158203125,359.5081787109375,52.31103515625,348.883544921875,47.16387939453125C333.857666015625,39.88470458984375,343.15093994140625,71.81658935546875,348.817626953125,65.11077880859375C351.99566650390625,61.349853515625,330.74993896484375,45.42510986328125,324.209228515625,49.3746337890625C321.13897705078125,51.22869873046875,321.6807861328125,56.222412109375,325.23406982421875,61.137451171875C333.34716796875,72.35992431640625,340.74920654296875,78.8851318359375,342.30523681640625,74.671142578125C344.3359375,69.17169189453125,315.83050537109375,56.59197998046875,316.83563232421875,74.1900634765625C317.39501953125,83.98260498046875,334.74395751953125,83.84161376953125,334.74395751953125,83.84161376953125"/></g><g id="strokes-b1c71a4d-4b13-809d-8008-28cd9470ae25-8af6a589-27c7-808d-8007-67bdbb1d12a2" class="strokes"><g class="stroke-shape"><path d="M380.5565185546875,79.30389404296875C379.76116943359375,76.61212158203125,359.5081787109375,52.31103515625,348.883544921875,47.16387939453125C333.857666015625,39.88470458984375,343.15093994140625,71.81658935546875,348.817626953125,65.11077880859375C351.99566650390625,61.349853515625,330.74993896484375,45.42510986328125,324.209228515625,49.3746337890625C321.13897705078125,51.22869873046875,321.6807861328125,56.222412109375,325.23406982421875,61.137451171875C333.34716796875,72.35992431640625,340.74920654296875,78.8851318359375,342.30523681640625,74.671142578125C344.3359375,69.17169189453125,315.83050537109375,56.59197998046875,316.83563232421875,74.1900634765625C317.39501953125,83.98260498046875,334.74395751953125,83.84161376953125,334.74395751953125,83.84161376953125" style="fill: none; stroke-width: 2.29814; stroke: rgb(20, 206, 202); stroke-opacity: 1; stroke-linecap: round;"/></g></g></g></g><g id="shape-8af6a589-27c7-808d-8007-67be72b3102f"><g class="fills" id="fills-8af6a589-27c7-808d-8007-67be72b3102f"><path d="M157.5,101C157.5,101,158.07183837890625,85.81707763671875,153.69775390625,78.6922607421875C149.3223876953125,71.56744384765625,140,72.500732421875,140,72.500732421875C140,72.500732421875,149.3223876953125,73.43255615234375,153.69775390625,66.3077392578125C158.07183837890625,59.18292236328125,157.5,44,157.5,44C157.5,44,156.92694091796875,59.18292236328125,161.30224609375,66.3077392578125C165.677490234375,73.43255615234375,175,72.500732421875,175,72.500732421875C175,72.500732421875,165.677490234375,71.56744384765625,161.30224609375,78.6922607421875C156.92694091796875,85.81707763671875,157.5,101,157.5,101L157.5,101"/></g><g id="strokes-b1c71a4d-4b13-809d-8008-28cd9470fc2c-8af6a589-27c7-808d-8007-67be72b3102f" class="strokes"><g class="stroke-shape"><path d="M157.5,101C157.5,101,158.07183837890625,85.81707763671875,153.69775390625,78.6922607421875C149.3223876953125,71.56744384765625,140,72.500732421875,140,72.500732421875C140,72.500732421875,149.3223876953125,73.43255615234375,153.69775390625,66.3077392578125C158.07183837890625,59.18292236328125,157.5,44,157.5,44C157.5,44,156.92694091796875,59.18292236328125,161.30224609375,66.3077392578125C165.677490234375,73.43255615234375,175,72.500732421875,175,72.500732421875C175,72.500732421875,165.677490234375,71.56744384765625,161.30224609375,78.6922607421875C156.92694091796875,85.81707763671875,157.5,101,157.5,101L157.5,101" style="fill: none; stroke-width: 1.3882; stroke: rgb(242, 58, 229); stroke-opacity: 1;"/></g></g></g><g id="shape-8af6a589-27c7-808d-8007-67bdbb1d1272"><g class="fills" id="fills-8af6a589-27c7-808d-8007-67bdbb1d1272"><path d="M409.5,93C409.5,93,410.07183837890625,77.81707763671875,405.69775390625,70.6922607421875C401.3223876953125,63.56744384765625,392,64.500732421875,392,64.500732421875C392,64.500732421875,401.3223876953125,65.43255615234375,405.69775390625,58.3077392578125C410.07183837890625,51.18292236328125,409.5,36,409.5,36C409.5,36,408.92694091796875,51.18292236328125,413.30224609375,58.3077392578125C417.677490234375,65.43255615234375,427,64.500732421875,427,64.500732421875C427,64.500732421875,417.677490234375,63.56744384765625,413.30224609375,70.6922607421875C408.92694091796875,77.81707763671875,409.5,93,409.5,93L409.5,93"/></g><g id="strokes-b1c71a4d-4b13-809d-8008-28cd94712913-8af6a589-27c7-808d-8007-67bdbb1d1272" class="strokes"><g class="stroke-shape"><path d="M409.5,93C409.5,93,410.07183837890625,77.81707763671875,405.69775390625,70.6922607421875C401.3223876953125,63.56744384765625,392,64.500732421875,392,64.500732421875C392,64.500732421875,401.3223876953125,65.43255615234375,405.69775390625,58.3077392578125C410.07183837890625,51.18292236328125,409.5,36,409.5,36C409.5,36,408.92694091796875,51.18292236328125,413.30224609375,58.3077392578125C417.677490234375,65.43255615234375,427,64.500732421875,427,64.500732421875C427,64.500732421875,417.677490234375,63.56744384765625,413.30224609375,70.6922607421875C408.92694091796875,77.81707763671875,409.5,93,409.5,93L409.5,93" style="fill: none; stroke-width: 1.3882; stroke: rgb(242, 58, 229); stroke-opacity: 1; stroke-linecap: round;"/></g></g></g><g id="shape-10ab256c-db3d-80c3-8007-67c21aa60d58"><g class="fills" id="fills-10ab256c-db3d-80c3-8007-67c21aa60d58"><path d="M274,114C275.00115966796875,114.99993896484375,314.04656982421875,114,328.0628662109375,119C342.07916259765625,124,344.08148193359375,135.99993896484375,337.07330322265625,145"/></g><g id="strokes-b1c71a4d-4b13-809d-8008-28cd94716edd-10ab256c-db3d-80c3-8007-67c21aa60d58" class="strokes"><g class="stroke-shape"><path d="M274,114C275.00115966796875,114.99993896484375,314.04656982421875,114,328.0628662109375,119C342.07916259765625,124,344.08148193359375,135.99993896484375,337.07330322265625,145" style="fill: none; stroke-width: 1.99785; stroke: rgb(20, 206, 202); stroke-opacity: 1;"/></g></g></g></g></g></g></g></g></g></svg>