<svg width="310" xmlns="http://www.w3.org/2000/svg" height="341" id="screenshot-df362402-8d3c-809c-8007-fa8d8127c13b" viewBox="0 0 310 341" xmlns:xlink="http://www.w3.org/1999/xlink" fill="none" version="1.1"><g id="shape-df362402-8d3c-809c-8007-fa8d8127c13b"><defs><clipPath id="frame-clip-df362402-8d3c-809c-8007-fa8d8127c13b-render-58" class="frame-clip frame-clip-def"><rect rx="0" ry="0" x="0" y="0" width="310" height="341" transform="matrix(1.000000, 0.000000, 0.000000, 1.000000, 0.000000, 0.000000)"/></clipPath></defs><g class="frame-container-wrapper"><g class="frame-container-blur"><g class="frame-container-shadows"><g clip-path="url(#frame-clip-df362402-8d3c-809c-8007-fa8d8127c13b-render-58)" fill="none"><g class="fills" id="fills-df362402-8d3c-809c-8007-fa8d8127c13b"><rect rx="0" ry="0" x="0" y="0" width="310" height="341" transform="matrix(1.000000, 0.000000, 0.000000, 1.000000, 0.000000, 0.000000)" class="frame-background"/></g><g class="frame-children"><g id="shape-df362402-8d3c-809c-8007-fa8e17d580ad" rx="0" ry="0"><g clip-path="url(#render-59-df362402-8d3c-809c-8007-fa8dfcef665e-clip)"><g mask="url(#render-59-df362402-8d3c-809c-8007-fa8dfcef665e-mask)"><defs><filter id="render-59-df362402-8d3c-809c-8007-fa8dfcef665e-filter"><feFlood flood-color="white" result="FloodResult"/><feComposite in="FloodResult" in2="SourceGraphic" operator="in" result="comp"/></filter><clipPath id="render-59-df362402-8d3c-809c-8007-fa8dfcef665e-clip" class="mask-clip-path"><polyline points="-18.69346733668317,-10.899543378995531 276.81445425307174,-10.899543378995531 276.81445425307174,219.30806822460409 -18.69346733668317,219.30806822460409"/></clipPath><mask width="295.5079215897549" maskUnits="userSpaceOnUse" height="230.20761160359962" class="mask-shape" x="-18.69346733668317" id="render-59-df362402-8d3c-809c-8007-fa8dfcef665e-mask" data-old-y="-10.899543378995531" data-old-width="295.5079215897549" data-old-x="-18.69346733668317" y="-10.899543378995531" data-old-height="230.20761160359962"><g filter="url(#render-59-df362402-8d3c-809c-8007-fa8dfcef665e-filter)"><g id="shape-df362402-8d3c-809c-8007-fa8dfcef665e"><g class="fills" id="fills-df362402-8d3c-809c-8007-fa8dfcef665e"><path d="M178.23291015625,216.0614013671875L178.23291015625,136.5894775390625L275.0205078125,136.5894775390625C275.0205078125,136.5894775390625,279.056640625,0.517578125,275.0205078125,-3.5167236328125C270.984375,-7.551025390625,-32.578857421875,-17.8907470703125,-18.1982421875,-3.5167236328125C-3.817626953125,10.8572998046875,-18.1982421875,219.034423828125,-18.1982421875,219.034423828125C-18.1982421875,219.034423828125,86.3232421875,217.6185302734375,114.97802734375,219.034423828125C143.1318359375,220.425537109375,178.23291015625,216.0614013671875,178.23291015625,216.0614013671875" style="fill: rgb(177, 178, 181); fill-opacity: 1;"/></g></g></g></mask></defs><g id="shape-df362402-8d3c-809c-8007-fa8dacdba315" rx="0" ry="0"><g id="shape-df362402-8d3c-809c-8007-fa8dacdba316"><g class="fills" id="fills-df362402-8d3c-809c-8007-fa8dacdba316"><rect rx="20.053005059457288" ry="20.053005059457288" x="30.24305286679919" y="33.88333071422221" transform="matrix(1.000000, 0.000000, 0.000000, 1.000000, 0.000000, 0.000000)" width="227.4330700739065" height="172.83561643835583"/></g><g id="strokes-752ba781-055a-8081-8008-28cd7e84d439-df362402-8d3c-809c-8007-fa8dacdba316" class="strokes"><g class="stroke-shape"><rect rx="20.053005059457288" ry="20.053005059457288" x="30.24305286679919" y="33.88333071422221" transform="matrix(1.000000, 0.000000, 0.000000, 1.000000, 0.000000, 0.000000)" width="227.4330700739065" height="172.83561643835583" style="fill: none; stroke-width: 3.12753; stroke: rgb(242, 58, 229); stroke-opacity: 1;"/></g></g></g><g id="shape-df362402-8d3c-809c-8007-fa8dacdba317"><g class="fills" id="fills-df362402-8d3c-809c-8007-fa8dacdba317"><path d="M32.2119140625,55.233642578125L188.056640625,55.233642578125L195.3076171875,62.720703125L257.68017578125,62.720703125"/></g><g id="strokes-752ba781-055a-8081-8008-28cd7e85203f-df362402-8d3c-809c-8007-fa8dacdba317" class="strokes"><g class="stroke-shape"><path d="M32.2119140625,55.233642578125L188.056640625,55.233642578125L195.3076171875,62.720703125L257.68017578125,62.720703125" style="fill: none; stroke-width: 3.12753; stroke: rgb(242, 58, 229); stroke-opacity: 1;"/></g></g></g><g id="shape-df362402-8d3c-809c-8007-fa8dacdba318"><g class="fills" id="fills-df362402-8d3c-809c-8007-fa8dacdba318"><ellipse cx="203.03311259827296" cy="49.64187221301381" rx="5.41507309699773" ry="5.591740531829146" transform="matrix(1.000000, 0.000000, 0.000000, 1.000000, 0.000000, 0.000000)"/></g><g id="strokes-752ba781-055a-8081-8008-28cd7e856004-df362402-8d3c-809c-8007-fa8dacdba318" class="strokes"><g class="stroke-shape"><ellipse cx="203.03311259827296" cy="49.64187221301381" rx="5.41507309699773" ry="5.591740531829146" transform="matrix(1.000000, 0.000000, 0.000000, 1.000000, 0.000000, 0.000000)" style="fill: none; stroke-width: 3.12753; stroke: rgb(242, 58, 229); stroke-opacity: 1;"/></g></g></g><g id="shape-df362402-8d3c-809c-8007-fa8dacdba319"><g class="fills" id="fills-df362402-8d3c-809c-8007-fa8dacdba319"><ellipse cx="220.75517000663058" cy="49.64187221301381" rx="5.415073096996821" ry="5.591740531829146" transform="matrix(1.000000, 0.000000, 0.000000, 1.000000, 0.000000, 0.000000)"/></g><g id="strokes-752ba781-055a-8081-8008-28cd7e85a2f7-df362402-8d3c-809c-8007-fa8dacdba319" class="strokes"><g class="stroke-shape"><ellipse cx="220.75517000663058" cy="49.64187221301381" rx="5.415073096996821" ry="5.591740531829146" transform="matrix(1.000000, 0.000000, 0.000000, 1.000000, 0.000000, 0.000000)" style="fill: none; stroke-width: 3.12753; stroke: rgb(242, 58, 229); stroke-opacity: 1;"/></g></g></g><g id="shape-df362402-8d3c-809c-8007-fa8dacdba31a"><g class="fills" id="fills-df362402-8d3c-809c-8007-fa8dacdba31a"><ellipse cx="238.47722741498592" cy="49.64187221301381" rx="5.415073096998185" ry="5.591740531829146" transform="matrix(1.000000, 0.000000, 0.000000, 1.000000, 0.000000, 0.000000)"/></g><g id="strokes-752ba781-055a-8081-8008-28cd7e85a2f8-df362402-8d3c-809c-8007-fa8dacdba31a" class="strokes"><g class="stroke-shape"><ellipse cx="238.47722741498592" cy="49.64187221301381" rx="5.415073096998185" ry="5.591740531829146" transform="matrix(1.000000, 0.000000, 0.000000, 1.000000, 0.000000, 0.000000)" style="fill: none; stroke-width: 3.12753; stroke: rgb(242, 58, 229); stroke-opacity: 1;"/></g></g></g><g id="shape-df362402-8d3c-809c-8007-fa8dacdba31b" rx="0" ry="0"><g id="shape-df362402-8d3c-809c-8007-fa8dacdba31c" rx="0" ry="0"><g id="shape-df362402-8d3c-809c-8007-fa8dacdba320"><g class="fills" id="fills-df362402-8d3c-809c-8007-fa8dacdba320"><path d="M57.320556640625,187.3919677734375L132.14697265625,187.3919677734375"/></g><g id="strokes-752ba781-055a-8081-8008-28cd7e8611a8-df362402-8d3c-809c-8007-fa8dacdba320" class="strokes"><g class="stroke-shape"><path d="M57.320556640625,187.3919677734375L132.14697265625,187.3919677734375" style="fill: none; stroke-width: 3.12753; stroke: rgb(242, 58, 229); stroke-opacity: 1;"/></g></g></g><g id="shape-df362402-8d3c-809c-8007-fa8dacdba321" rx="0" ry="0"><g id="shape-df362402-8d3c-809c-8007-fa8dacdba322"><g class="fills" id="fills-df362402-8d3c-809c-8007-fa8dacdba322"><rect rx="2.0053005059457285" ry="2.0053005059457285" x="57.32047627965949" y="108.100977773046" transform="matrix(1.000000, 0.000000, 0.000000, 1.000000, 0.000000, 0.000000)" width="74.82646461306103" height="57.94333687875087"/></g><g id="strokes-752ba781-055a-8081-8008-28cd7e8671df-df362402-8d3c-809c-8007-fa8dacdba322" class="strokes"><g class="stroke-shape"><rect rx="2.0053005059457285" ry="2.0053005059457285" x="57.32047627965949" y="108.100977773046" transform="matrix(1.000000, 0.000000, 0.000000, 1.000000, 0.000000, 0.000000)" width="74.82646461306103" height="57.94333687875087" style="fill: none; stroke-width: 3.12753; stroke: rgb(242, 58, 229); stroke-opacity: 1;"/></g></g></g><g id="shape-df362402-8d3c-809c-8007-fa8dacdba323"><g class="fills" id="fills-df362402-8d3c-809c-8007-fa8dacdba323"><path d="M57.320556640625,174.1767578125L132.14697265625,174.1767578125"/></g><g id="strokes-752ba781-055a-8081-8008-28cd7e8680d4-df362402-8d3c-809c-8007-fa8dacdba323" class="strokes"><g class="stroke-shape"><path d="M57.320556640625,174.1767578125L132.14697265625,174.1767578125" style="fill: none; stroke-width: 3.12753; stroke: rgb(242, 58, 229); stroke-opacity: 1;"/></g></g></g><g id="shape-df362402-8d3c-809c-8007-fa8dacdba324"><g class="fills" id="fills-df362402-8d3c-809c-8007-fa8dacdba324"><path d="M57.320556640625,181.2923583984375L132.14697265625,181.2923583984375"/></g><g id="strokes-752ba781-055a-8081-8008-28cd7e86d32e-df362402-8d3c-809c-8007-fa8dacdba324" class="strokes"><g class="stroke-shape"><path d="M57.320556640625,181.2923583984375L132.14697265625,181.2923583984375" style="fill: none; stroke-width: 3.12753; stroke: rgb(242, 58, 229); stroke-opacity: 1;"/></g></g></g><g id="shape-df362402-8d3c-809c-8007-fa8dacdba325"><g class="fills" id="fills-df362402-8d3c-809c-8007-fa8dacdba325"><path d="M58.7060546875,110.1341552734375L131.4541015625,164.0111083984375M58.7060546875,164.0111083984375"/></g><g id="strokes-752ba781-055a-8081-8008-28cd7e8732c4-df362402-8d3c-809c-8007-fa8dacdba325" class="strokes"><g class="stroke-shape"><path d="M58.7060546875,110.1341552734375L131.4541015625,164.0111083984375M58.7060546875,164.0111083984375" style="fill: none; stroke-width: 3.12753; stroke: rgb(242, 58, 229); stroke-opacity: 1;"/></g></g></g></g></g><g id="shape-df362402-8d3c-809c-8007-fa8dacdba31d" rx="0" ry="0"><g id="shape-df362402-8d3c-809c-8007-fa8dacdba326"><g class="fills" id="fills-df362402-8d3c-809c-8007-fa8dacdba326"><path d="M155.77685546875,187.3919677734375L230.6025390625,187.3919677734375"/></g><g id="strokes-752ba781-055a-8081-8008-28cd7e87547c-df362402-8d3c-809c-8007-fa8dacdba326" class="strokes"><g class="stroke-shape"><path d="M155.77685546875,187.3919677734375L230.6025390625,187.3919677734375" style="fill: none; stroke-width: 3.12753; stroke: rgb(242, 58, 229); stroke-opacity: 1;"/></g></g></g><g id="shape-df362402-8d3c-809c-8007-fa8dacdba327" rx="0" ry="0"><g id="shape-df362402-8d3c-809c-8007-fa8dacdba328"><g class="fills" id="fills-df362402-8d3c-809c-8007-fa8dacdba328"><rect rx="2.0053005059457285" ry="2.0053005059457285" x="155.77635077052582" y="108.100977773046" transform="matrix(1.000000, 0.000000, 0.000000, 1.000000, 0.000000, 0.000000)" width="74.82646461306194" height="57.94333687875087"/></g><g id="strokes-752ba781-055a-8081-8008-28cd7e87a369-df362402-8d3c-809c-8007-fa8dacdba328" class="strokes"><g class="stroke-shape"><rect rx="2.0053005059457285" ry="2.0053005059457285" x="155.77635077052582" y="108.100977773046" transform="matrix(1.000000, 0.000000, 0.000000, 1.000000, 0.000000, 0.000000)" width="74.82646461306194" height="57.94333687875087" style="fill: none; stroke-width: 3.12753; stroke: rgb(242, 58, 229); stroke-opacity: 1;"/></g></g></g><g id="shape-df362402-8d3c-809c-8007-fa8dacdba329"><g class="fills" id="fills-df362402-8d3c-809c-8007-fa8dacdba329"><path d="M155.77685546875,174.1767578125L230.6025390625,174.1767578125"/></g><g id="strokes-752ba781-055a-8081-8008-28cd7e87de16-df362402-8d3c-809c-8007-fa8dacdba329" class="strokes"><g class="stroke-shape"><path d="M155.77685546875,174.1767578125L230.6025390625,174.1767578125" style="fill: none; stroke-width: 3.12753; stroke: rgb(242, 58, 229); stroke-opacity: 1;"/></g></g></g><g id="shape-df362402-8d3c-809c-8007-fa8dacdba32a"><g class="fills" id="fills-df362402-8d3c-809c-8007-fa8dacdba32a"><path d="M155.77685546875,181.2923583984375L230.6025390625,181.2923583984375"/></g><g id="strokes-752ba781-055a-8081-8008-28cd7e882b1d-df362402-8d3c-809c-8007-fa8dacdba32a" class="strokes"><g class="stroke-shape"><path d="M155.77685546875,181.2923583984375L230.6025390625,181.2923583984375" style="fill: none; stroke-width: 3.12753; stroke: rgb(242, 58, 229); stroke-opacity: 1;"/></g></g></g><g id="shape-df362402-8d3c-809c-8007-fa8dacdba32b"><g class="fills" id="fills-df362402-8d3c-809c-8007-fa8dacdba32b"><path d="M157.16162109375,110.1341552734375L229.90966796875,164.0111083984375M157.16162109375,164.0111083984375"/></g><g id="strokes-752ba781-055a-8081-8008-28cd7e887dda-df362402-8d3c-809c-8007-fa8dacdba32b" class="strokes"><g class="stroke-shape"><path d="M157.16162109375,110.1341552734375L229.90966796875,164.0111083984375M157.16162109375,164.0111083984375" style="fill: none; stroke-width: 3.12753; stroke: rgb(242, 58, 229); stroke-opacity: 1;"/></g></g></g></g></g><g id="shape-df362402-8d3c-809c-8007-fa8dacdba31e"><g class="fills" id="fills-df362402-8d3c-809c-8007-fa8dacdba31e"><rect rx="2.0053005059457285" ry="2.0053005059457285" x="57.32047627965949" y="70.4838141952846" transform="matrix(1.000000, 0.000000, 0.000000, 1.000000, 0.000000, 0.000000)" width="129.9617543279437" height="16.26688154714111"/></g><g id="strokes-752ba781-055a-8081-8008-28cd7e88ae37-df362402-8d3c-809c-8007-fa8dacdba31e" class="strokes"><g class="stroke-shape"><rect rx="2.0053005059457285" ry="2.0053005059457285" x="57.32047627965949" y="70.4838141952846" transform="matrix(1.000000, 0.000000, 0.000000, 1.000000, 0.000000, 0.000000)" width="129.9617543279437" height="16.26688154714111" style="fill: none; stroke-width: 3.12753; stroke: rgb(242, 58, 229); stroke-opacity: 1;"/></g></g></g><g id="shape-df362402-8d3c-809c-8007-fa8dacdba31f"><g class="fills" id="fills-df362402-8d3c-809c-8007-fa8dacdba31f"><path d="M58.304931640625,95.90087890625L228.65380859375,95.90087890625"/></g><g id="strokes-752ba781-055a-8081-8008-28cd7e88ae38-df362402-8d3c-809c-8007-fa8dacdba31f" class="strokes"><g class="stroke-shape"><path d="M58.304931640625,95.90087890625L228.65380859375,95.90087890625" style="fill: none; stroke-width: 3.12753; stroke: rgb(242, 58, 229); stroke-opacity: 1;"/></g></g></g></g></g></g></g></g><g id="shape-df362402-8d3c-809c-8007-fa8df4cd9a64" rx="0" ry="0"><g id="shape-df362402-8d3c-809c-8007-fa8df4cd9a65"><g class="fills" id="fills-df362402-8d3c-809c-8007-fa8df4cd9a65"><rect rx="20.053005059457288" ry="20.053005059457288" x="183.81909547738724" y="140.13698630137014" transform="matrix(1.000000, 0.000000, 0.000000, 1.000000, 0.000000, 0.000000)" width="95.02512562814081" height="172.83561643835628"/></g><g id="strokes-752ba781-055a-8081-8008-28cd7e88d723-df362402-8d3c-809c-8007-fa8df4cd9a65" class="strokes"><g class="stroke-shape"><rect rx="20.053005059457288" ry="20.053005059457288" x="183.81909547738724" y="140.13698630137014" transform="matrix(1.000000, 0.000000, 0.000000, 1.000000, 0.000000, 0.000000)" width="95.02512562814081" height="172.83561643835628" style="fill: none; stroke-width: 3.12753; stroke: rgb(242, 58, 229); stroke-opacity: 1;"/></g></g></g><g id="shape-df362402-8d3c-809c-8007-fa8df4cd9a66" rx="0" ry="0"><g id="shape-df362402-8d3c-809c-8007-fa8df4cd9a67" rx="0" ry="0"><g id="shape-df362402-8d3c-809c-8007-fa8df4cd9a6a"><g class="fills" id="fills-df362402-8d3c-809c-8007-fa8df4cd9a6a"><path d="M193.166015625,255.352783203125L252.41748046875,255.352783203125"/></g><g id="strokes-752ba781-055a-8081-8008-28cd7e89524c-df362402-8d3c-809c-8007-fa8df4cd9a6a" class="strokes"><g class="stroke-shape"><path d="M193.166015625,255.352783203125L252.41748046875,255.352783203125" style="fill: none; stroke-width: 2.50183; stroke: rgb(242, 58, 229); stroke-opacity: 1;"/></g></g></g><g id="shape-df362402-8d3c-809c-8007-fa8df4cd9a6b" rx="0" ry="0"><g id="shape-df362402-8d3c-809c-8007-fa8df4cd9a6c"><g class="fills" id="fills-df362402-8d3c-809c-8007-fa8df4cd9a6c"><rect rx="1.6041175872898203" ry="1.6041175872898203" x="193.1658291457279" y="191.99446052647" transform="matrix(1.000000, 0.000000, 0.000000, 1.000000, 0.000000, 0.000000)" width="59.25180192840617" height="46.300184512586384"/></g><g id="strokes-752ba781-055a-8081-8008-28cd7e89be42-df362402-8d3c-809c-8007-fa8df4cd9a6c" class="strokes"><g class="stroke-shape"><rect rx="1.6041175872898203" ry="1.6041175872898203" x="193.1658291457279" y="191.99446052647" transform="matrix(1.000000, 0.000000, 0.000000, 1.000000, 0.000000, 0.000000)" width="59.25180192840617" height="46.300184512586384" style="fill: none; stroke-width: 2.50183; stroke: rgb(242, 58, 229); stroke-opacity: 1;"/></g></g></g><g id="shape-df362402-8d3c-809c-8007-fa8df4cd9a6d"><g class="fills" id="fills-df362402-8d3c-809c-8007-fa8df4cd9a6d"><path d="M193.166015625,244.7928466796875L252.41748046875,244.7928466796875"/></g><g id="strokes-752ba781-055a-8081-8008-28cd7e89db10-df362402-8d3c-809c-8007-fa8df4cd9a6d" class="strokes"><g class="stroke-shape"><path d="M193.166015625,244.7928466796875L252.41748046875,244.7928466796875" style="fill: none; stroke-width: 2.50183; stroke: rgb(242, 58, 229); stroke-opacity: 1;"/></g></g></g><g id="shape-df362402-8d3c-809c-8007-fa8df4cd9a6e"><g class="fills" id="fills-df362402-8d3c-809c-8007-fa8df4cd9a6e"><path d="M193.166015625,250.478759765625L252.41748046875,250.478759765625"/></g><g id="strokes-752ba781-055a-8081-8008-28cd7e8a1c17-df362402-8d3c-809c-8007-fa8df4cd9a6e" class="strokes"><g class="stroke-shape"><path d="M193.166015625,250.478759765625L252.41748046875,250.478759765625" style="fill: none; stroke-width: 2.50183; stroke: rgb(242, 58, 229); stroke-opacity: 1;"/></g></g></g><g id="shape-df362402-8d3c-809c-8007-fa8df4cd9a6f"><g class="fills" id="fills-df362402-8d3c-809c-8007-fa8df4cd9a6f"><path d="M194.26318359375,193.619140625L251.869140625,236.669921875M194.26318359375,236.669921875"/></g><g id="strokes-752ba781-055a-8081-8008-28cd7e8a64af-df362402-8d3c-809c-8007-fa8df4cd9a6f" class="strokes"><g class="stroke-shape"><path d="M194.26318359375,193.619140625L251.869140625,236.669921875M194.26318359375,236.669921875" style="fill: none; stroke-width: 2.50183; stroke: rgb(242, 58, 229); stroke-opacity: 1;"/></g></g></g></g></g><g id="shape-df362402-8d3c-809c-8007-fa8df4cd9a68"><g class="fills" id="fills-df362402-8d3c-809c-8007-fa8df4cd9a68"><path d="M193.166015625,163.5391845703125C193.166015625,162.654541015625,193.8779296875,161.93603515625,194.75537109375,161.93603515625L266.3505859375,161.93603515625C267.2275390625,161.93603515625,267.93994140625,162.654541015625,267.93994140625,163.5391845703125L267.93994140625,173.331298828125C267.93994140625,174.2159423828125,267.2275390625,174.9342041015625,266.3505859375,174.9342041015625L194.75537109375,174.9342041015625C193.8779296875,174.9342041015625,193.166015625,174.2159423828125,193.166015625,173.331298828125L193.166015625,163.5391845703125"/></g><g id="strokes-752ba781-055a-8081-8008-28cd7e8a8d1e-df362402-8d3c-809c-8007-fa8df4cd9a68" class="strokes"><g class="stroke-shape"><path d="M193.166015625,163.5391845703125C193.166015625,162.654541015625,193.8779296875,161.93603515625,194.75537109375,161.93603515625L266.3505859375,161.93603515625C267.2275390625,161.93603515625,267.93994140625,162.654541015625,267.93994140625,163.5391845703125L267.93994140625,173.331298828125C267.93994140625,174.2159423828125,267.2275390625,174.9342041015625,266.3505859375,174.9342041015625L194.75537109375,174.9342041015625C193.8779296875,174.9342041015625,193.166015625,174.2159423828125,193.166015625,173.331298828125L193.166015625,163.5391845703125" style="fill: none; stroke-width: 2.50183; stroke: rgb(242, 58, 229); stroke-opacity: 1;"/></g></g></g><g id="shape-df362402-8d3c-809c-8007-fa8df4cd9a69"><g class="fills" id="fills-df362402-8d3c-809c-8007-fa8df4cd9a69"><path d="M193.9453125,182.2459716796875L264.20751953125,182.2459716796875"/></g><g id="strokes-752ba781-055a-8081-8008-28cd7e8aff5b-df362402-8d3c-809c-8007-fa8df4cd9a69" class="strokes"><g class="stroke-shape"><path d="M193.9453125,182.2459716796875L264.20751953125,182.2459716796875" style="fill: none; stroke-width: 2.50183; stroke: rgb(242, 58, 229); stroke-opacity: 1;"/></g></g></g></g></g></g></g></g></g></g></g></svg>