<svg width="310" xmlns="http://www.w3.org/2000/svg" height="341" id="screenshot-df362402-8d3c-809c-8007-fa8c46450903" viewBox="0 0 310 341" xmlns:xlink="http://www.w3.org/1999/xlink" fill="none" version="1.1"><g id="shape-df362402-8d3c-809c-8007-fa8c46450903"><defs><clipPath id="frame-clip-df362402-8d3c-809c-8007-fa8c46450903-render-1" class="frame-clip frame-clip-def"><rect rx="0" ry="0" x="0" y="0" width="310.00000000000045" height="341" transform="matrix(1.000000, 0.000000, 0.000000, 1.000000, 0.000000, 0.000000)"/></clipPath></defs><g class="frame-container-wrapper"><g class="frame-container-blur"><g class="frame-container-shadows"><g clip-path="url(#frame-clip-df362402-8d3c-809c-8007-fa8c46450903-render-1)" fill="none"><g class="fills" id="fills-df362402-8d3c-809c-8007-fa8c46450903"><rect rx="0" ry="0" x="0" y="0" width="310.00000000000045" height="341" transform="matrix(1.000000, 0.000000, 0.000000, 1.000000, 0.000000, 0.000000)" class="frame-background"/></g><g class="frame-children"><g id="shape-df362402-8d3c-809c-8007-fa8c46450904" rx="0" ry="0"><g id="shape-df362402-8d3c-809c-8007-fa8c4645090a" rx="0" ry="0"><g id="shape-df362402-8d3c-809c-8007-fa8c4645090b" rx="0" ry="0"><g id="shape-df362402-8d3c-809c-8007-fa8c4645090c" rx="0" ry="0"><g id="shape-df362402-8d3c-809c-8007-fa8c4645090d"><g class="fills" id="fills-df362402-8d3c-809c-8007-fa8c4645090d"><rect rx="3.0649501507591" ry="3.0649501507591" x="31.155778894472405" y="191.52054794520564" transform="matrix(1.000000, 0.000000, 0.000000, 1.000000, 0.000000, 0.000000)" width="114.36003547147538" height="88.30672206003464"/></g><g id="strokes-752ba781-055a-8081-8008-28cd7e76015f-df362402-8d3c-809c-8007-fa8c4645090d" class="strokes"><g class="stroke-shape"><rect rx="3.0649501507591" ry="3.0649501507591" x="31.155778894472405" y="191.52054794520564" transform="matrix(1.000000, 0.000000, 0.000000, 1.000000, 0.000000, 0.000000)" width="114.36003547147538" height="88.30672206003464" style="fill: none; stroke-width: 4.7802; stroke: rgb(242, 58, 229); stroke-opacity: 1;"/></g></g></g><g id="shape-df362402-8d3c-809c-8007-fa8c4645090e"><g class="fills" id="fills-df362402-8d3c-809c-8007-fa8c4645090e"><path d="M33.2734375,194.619140625L144.456787109375,276.7288818359375M33.2734375,276.7288818359375"/></g><g id="strokes-752ba781-055a-8081-8008-28cd7e777721-df362402-8d3c-809c-8007-fa8c4645090e" class="strokes"><g class="stroke-shape"><path d="M33.2734375,194.619140625L144.456787109375,276.7288818359375M33.2734375,276.7288818359375" style="fill: none; stroke-width: 4.7802; stroke: rgb(242, 58, 229); stroke-opacity: 1;"/></g></g></g></g></g></g></g><g id="shape-df362402-8d3c-809c-8007-fa8c46450905" rx="0" ry="0"><g id="shape-df362402-8d3c-809c-8007-fa8c4645090f" rx="0" ry="0"><g id="shape-df362402-8d3c-809c-8007-fa8c46450910" rx="0" ry="0"><g id="shape-df362402-8d3c-809c-8007-fa8c46450911" rx="0" ry="0"><g id="shape-df362402-8d3c-809c-8007-fa8c46450912"><g class="fills" id="fills-df362402-8d3c-809c-8007-fa8c46450912"><rect rx="3.0649501507591" ry="3.0649501507591" x="71.6582914572864" y="135.46575342465758" transform="matrix(1.000000, 0.000000, 0.000000, 1.000000, 0.000000, 0.000000)" width="114.36003547147538" height="88.30672206003419"/></g><g id="strokes-752ba781-055a-8081-8008-28cd7e785612-df362402-8d3c-809c-8007-fa8c46450912" class="strokes"><g class="stroke-shape"><rect rx="3.0649501507591" ry="3.0649501507591" x="71.6582914572864" y="135.46575342465758" transform="matrix(1.000000, 0.000000, 0.000000, 1.000000, 0.000000, 0.000000)" width="114.36003547147538" height="88.30672206003419" style="fill: none; stroke-width: 4.7802; stroke: rgb(234, 133, 227); stroke-opacity: 1;"/></g></g></g><g id="shape-df362402-8d3c-809c-8007-fa8c46450913"><g class="fills" id="fills-df362402-8d3c-809c-8007-fa8c46450913"><path d="M73.77587890625,138.5643310546875L184.958984375,220.6739501953125M73.77587890625,220.6739501953125"/></g><g id="strokes-752ba781-055a-8081-8008-28cd7e78bb4e-df362402-8d3c-809c-8007-fa8c46450913" class="strokes"><g class="stroke-shape"><path d="M73.77587890625,138.5643310546875L184.958984375,220.6739501953125M73.77587890625,220.6739501953125" style="fill: none; stroke-width: 4.7802; stroke: rgb(234, 133, 227); stroke-opacity: 1;"/></g></g></g></g></g></g></g><g id="shape-df362402-8d3c-809c-8007-fa8c46450906" rx="0" ry="0"><g id="shape-df362402-8d3c-809c-8007-fa8c46450914" rx="0" ry="0"><g id="shape-df362402-8d3c-809c-8007-fa8c46450915" rx="0" ry="0"><g id="shape-df362402-8d3c-809c-8007-fa8c46450916" rx="0" ry="0"><g id="shape-df362402-8d3c-809c-8007-fa8c46450917"><g class="fills" id="fills-df362402-8d3c-809c-8007-fa8c46450917"><rect rx="3.0649501507591" ry="3.0649501507591" x="116.83417085427163" y="77.85388127853912" transform="matrix(1.000000, 0.000000, 0.000000, 1.000000, 0.000000, 0.000000)" width="114.36003547147448" height="88.30672206003464"/></g><g id="strokes-752ba781-055a-8081-8008-28cd7e794e27-df362402-8d3c-809c-8007-fa8c46450917" class="strokes"><g class="stroke-shape"><rect rx="3.0649501507591" ry="3.0649501507591" x="116.83417085427163" y="77.85388127853912" transform="matrix(1.000000, 0.000000, 0.000000, 1.000000, 0.000000, 0.000000)" width="114.36003547147448" height="88.30672206003464" style="fill: none; stroke-width: 4.7802; stroke: rgb(238, 185, 234); stroke-opacity: 1;"/></g></g></g><g id="shape-df362402-8d3c-809c-8007-fa8c46450918"><g class="fills" id="fills-df362402-8d3c-809c-8007-fa8c46450918"><path d="M118.951904296875,80.952392578125L230.134765625,163.062255859375M118.951904296875,163.062255859375"/></g><g id="strokes-752ba781-055a-8081-8008-28cd7e79eea6-df362402-8d3c-809c-8007-fa8c46450918" class="strokes"><g class="stroke-shape"><path d="M118.951904296875,80.952392578125L230.134765625,163.062255859375M118.951904296875,163.062255859375" style="fill: none; stroke-width: 4.7802; stroke: rgb(238, 185, 234); stroke-opacity: 1;"/></g></g></g></g></g></g></g><g id="shape-df362402-8d3c-809c-8007-fa8c46450907" width="24" height="24" rx="0" ry="0" style="fill: rgb(0, 0, 0);"><g id="shape-df362402-8d3c-809c-8007-fa8c46450919" style="display: none;"><g class="fills" id="fills-df362402-8d3c-809c-8007-fa8c46450919"><rect width="107.21253325450834" height="107.40006737031217" x="0" transform="matrix(1.000000, 0.000000, 0.000000, 1.000000, 0.000000, 0.000000)" style="fill: none;" ry="0" fill="none" rx="0" y="63.84018264840188"/></g></g><g id="shape-df362402-8d3c-809c-8007-fa8c4645091a"><g class="fills" id="fills-df362402-8d3c-809c-8007-fa8c4645091a"><path d="M10.05078125,117.5399169921875C10.05078125,93.4432373046875,29.55126953125,73.9090576171875,53.60595703125,73.9090576171875C77.661376953125,73.9090576171875,97.161376953125,93.4432373046875,97.161376953125,117.5399169921875C97.161376953125,141.63720703125,77.661376953125,161.17138671875,53.60595703125,161.17138671875C29.55126953125,161.17138671875,10.05078125,141.63720703125,10.05078125,117.5399169921875ZM72.699951171875,113.1396484375C76.146484375,115.057373046875,76.146484375,120.0230712890625,72.699951171875,121.9415283203125L47.670654296875,135.87060546875C44.32080078125,137.7342529296875,40.204833984375,135.308349609375,40.204833984375,131.469482421875L40.204833984375,103.611083984375C40.204833984375,99.7723388671875,44.32080078125,97.34619140625,47.670654296875,99.2100830078125L72.699951171875,113.1396484375Z" fill-rule="evenodd" clip-rule="evenodd" style="fill: rgb(242, 58, 229); fill-opacity: 1;"/></g></g></g><g id="shape-df362402-8d3c-809c-8007-fa8c46450908"><g class="fills" id="fills-df362402-8d3c-809c-8007-fa8c46450908"><path d="M138.643310546875,289.4024658203125C138.643310546875,289.4024658203125,216.40380859375,319.690673828125,216.40380859375,243.97021484375C216.40380859375,219.739501953125,207.431640625,174.3074951171875,279.2109375,171.278564453125"/></g><g id="strokes-752ba781-055a-8081-8008-28cd7e7b770d-df362402-8d3c-809c-8007-fa8c46450908" class="strokes"><g class="stroke-shape"><defs><marker refX="2" fill-opacity="1" orient="auto-start-reverse" id="marker-render-23-line-arrow" viewBox="0 0 3 6" fill="#f23ae5" refY="3" markerWidth="8.5" markerHeight="8.5"><path d="M 0.5 0.5 L 3 3 L 0.5 5.5 L 0 5 L 2 3 L 0 1 z"/></marker><marker refX="3" fill-opacity="1" orient="auto-start-reverse" id="marker-render-23-square" viewBox="0 0 6 6" fill="#f23ae5" refY="3" markerWidth="6" markerHeight="6"><rect x="3" y="2.5" width="0.5" height="1"/></marker></defs><path d="M138.643310546875,289.4024658203125C138.643310546875,289.4024658203125,216.40380859375,319.690673828125,216.40380859375,243.97021484375C216.40380859375,219.739501953125,207.431640625,174.3074951171875,279.2109375,171.278564453125" style="fill: none; stroke-width: 6.00385; stroke: rgb(242, 58, 229); stroke-opacity: 1; marker-start: url(&quot;#marker-render-23-square&quot;); marker-end: url(&quot;#marker-render-23-line-arrow&quot;);"/></g></g></g><g id="shape-df362402-8d3c-809c-8007-fa8c46450909"><g class="fills" id="fills-df362402-8d3c-809c-8007-fa8c46450909"><path d="M175.11474609375,138.2354736328125C167.882080078125,138.2354736328125,162.010009765625,132.3660888671875,162.010009765625,125.136474609375L162.010009765625,58.2542724609375C162.010009765625,51.024658203125,167.882080078125,45.1552734375,175.11474609375,45.1552734375L241.156005859375,45.1552734375L272.795166015625,45.1552734375C280.02783203125,45.1552734375,285.89990234375,51.024658203125,285.89990234375,58.2542724609375L285.89990234375,125.136474609375C285.89990234375,132.3660888671875,280.02783203125,138.2354736328125,272.795166015625,138.2354736328125L175.11474609375,138.2354736328125" style="fill: rgb(242, 58, 229); fill-opacity: 1;"/></g><g id="strokes-752ba781-055a-8081-8008-28cd7e7bd017-df362402-8d3c-809c-8007-fa8c46450909" class="strokes"><g class="inner-stroke-shape"><defs><clipPath id="inner-stroke-render-24-df362402-8d3c-809c-8007-fa8c46450909-0"><use href="#stroke-shape-render-24-df362402-8d3c-809c-8007-fa8c46450909-0"/></clipPath><path d="M175.11474609375,138.2354736328125C167.882080078125,138.2354736328125,162.010009765625,132.3660888671875,162.010009765625,125.136474609375L162.010009765625,58.2542724609375C162.010009765625,51.024658203125,167.882080078125,45.1552734375,175.11474609375,45.1552734375L241.156005859375,45.1552734375L272.795166015625,45.1552734375C280.02783203125,45.1552734375,285.89990234375,51.024658203125,285.89990234375,58.2542724609375L285.89990234375,125.136474609375C285.89990234375,132.3660888671875,280.02783203125,138.2354736328125,272.795166015625,138.2354736328125L175.11474609375,138.2354736328125" id="stroke-shape-render-24-df362402-8d3c-809c-8007-fa8c46450909-0" style="fill: none; stroke-width: 10.5797; stroke: rgb(242, 58, 229); stroke-opacity: 1;"/></defs><use href="#stroke-shape-render-24-df362402-8d3c-809c-8007-fa8c46450909-0" clip-path="url('#inner-stroke-render-24-df362402-8d3c-809c-8007-fa8c46450909-0')"/></g></g></g></g></g></g></g></g></g></svg>