<?xml version="1.0" encoding="UTF-8" standalone="no"?>
<svg
   xmlns:dc="http://purl.org/dc/elements/1.1/"
   xmlns:cc="http://creativecommons.org/ns#"
   xmlns:rdf="http://www.w3.org/1999/02/22-rdf-syntax-ns#"
   xmlns:svg="http://www.w3.org/2000/svg"
   xmlns="http://www.w3.org/2000/svg"
   xmlns:xlink="http://www.w3.org/1999/xlink"
   xmlns:sodipodi="http://sodipodi.sourceforge.net/DTD/sodipodi-0.dtd"
   xmlns:inkscape="http://www.inkscape.org/namespaces/inkscape"
   width="500"
   height="500"
   viewBox="0 0 500.00001 500.00001"
   id="svg2"
   version="1.1"
   sodipodi:docname="align-left.svg"
   inkscape:version="0.91 r13725">
  <defs
     id="defs4" />
  <sodipodi:namedview
     id="base"
     pagecolor="#ffffff"
     bordercolor="#666666"
     borderopacity="1.0"
     showgrid="false"
     units="px"
     inkscape:zoom="0.472"
     inkscape:cx="-315.67797"
     inkscape:cy="250"
     inkscape:window-width="1920"
     inkscape:window-height="1056"
     inkscape:window-x="0"
     inkscape:window-y="24"
     inkscape:window-maximized="1"
     inkscape:current-layer="svg2" />
  <metadata
     id="metadata7">
    <rdf:RDF>
      <cc:Work
         rdf:about="">
        <dc:format>


          image/svg+xml


        </dc:format>
        <dc:type
           rdf:resource="http://purl.org/dc/dcmitype/StillImage" />
      </cc:Work>
    </rdf:RDF>
  </metadata>
  <use
     id="use32130"
     xlink:href="#symbol16714"
     transform="matrix(0.48875855,0,0,0.48875855,266.5973,18.208584)"
     x="0"
     y="0"
     width="100%"
     height="100%" />
  <path
     style="opacity:1;fill:#000000;fill-opacity:1;stroke:none;stroke-width:25;stroke-miterlimit:4;stroke-dasharray:none;stroke-dashoffset:0;stroke-opacity:1"
     d="M 9.0957031 0 C 4.0564559 0 0 4.0564559 0 9.0957031 L 0 60.904297 C 0 65.943544 4.0564559 70 9.0957031 70 L 490.9043 70 C 495.94354 70 500 65.943544 500 60.904297 L 500 9.0957031 C 500 4.0564559 495.94354 0 490.9043 0 L 9.0957031 0 z M 9.0957031 146 C 4.0564559 146 0 150.05646 0 155.0957 L 0 206.9043 C 0 211.94354 4.0564559 216 9.0957031 216 L 351.07422 216 C 356.11347 216 360.16992 211.94354 360.16992 206.9043 L 360.16992 155.0957 C 360.16992 150.05646 356.11347 146 351.07422 146 L 9.0957031 146 z M 9.0957031 290 C 4.0564559 290 0 294.05646 0 299.0957 L 0 350.9043 C 0 355.94354 4.0564559 360 9.0957031 360 L 416.75195 360 C 421.7912 360 425.84766 355.94354 425.84766 350.9043 L 425.84766 299.0957 C 425.84766 294.05646 421.7912 290 416.75195 290 L 9.0957031 290 z M 9.0957031 430 C 4.0564559 430 0 434.05646 0 439.0957 L 0 490.9043 C 0 495.94354 4.0564559 500 9.0957031 500 L 226.07422 500 C 231.11347 500 235.16992 495.94354 235.16992 490.9043 L 235.16992 439.0957 C 235.16992 434.05646 231.11347 430 226.07422 430 L 9.0957031 430 z "
     id="rect23283" />
</svg>
