<svg xmlns:dc="http://purl.org/dc/elements/1.1/" xmlns:cc="http://creativecommons.org/ns#" xmlns:rdf="http://www.w3.org/1999/02/22-rdf-syntax-ns#" xmlns:svg="http://www.w3.org/2000/svg" xmlns="http://www.w3.org/2000/svg" xmlns:sodipodi="http://sodipodi.sourceforge.net/DTD/sodipodi-0.dtd" width="500" height="500" viewBox="0 0 500 500.00001" id="svg4946" version="1.1" sodipodi:docname="alignment.svg">
  <defs id="defs4948">
    <path id="path-1" d="M0.140487671 0C0.0628984728 0 0 0.065177679 0 0.14488998L0 17.85511C0 17.9351306 0.0631103513 18 0.140487671 18L21.8595124 18C21.9371015 18 22 17.9348223 22 17.85511L22 0.14488998C22 0.064869454 21.9368896 0 21.8595124 0L0.140487671 0ZM1 1L1 17 21 17 21 1 1 1ZM8.31146755 3.96557279L11.5680228 9.58960333C11.6080958 9.65880899 11.694647 9.6768875 11.7588871 9.63170823L14.5213939 7.68886831C14.6506985 7.59792981 14.8228868 7.62965466 14.9092326 7.7648075L19.9298551 15.6233415C20.0147479 15.75622 19.9533678 15.8639394 19.8034742 15.8639394L2.14722686 15.8639394C1.99212294 15.8639394 1.92473319 15.7514312 1.99797568 15.6102003L7.71352136 4.58911188 8.03502924 3.96915944C8.107704 3.82902321 8.23291348 3.82991093 8.31146755 3.96557279ZM17.5 6C18.3284271 6 19 5.32842715 19 4.5 19 3.67157284 18.3284271 3 17.5 3 16.6715729 3 16 3.67157284 16 4.5 16 5.32842715 16.6715729 6 17.5 6ZM0.140487671 0C0.0628984728 0 0 0.065177679 0 0.14488998L0 17.85511C0 17.9351306 0.0631103513 18 0.140487671 18L21.8595124 18C21.9371015 18 22 17.9348223 22 17.85511L22 0.14488998C22 0.064869454 21.9368896 0 21.8595124 0L0.140487671 0ZM8.31146755 3.96557279L11.5680228 9.58960333C11.6080958 9.65880899 11.694647 9.6768875 11.7588871 9.63170823L14.5213939 7.68886831C14.6506985 7.59792981 14.8228868 7.62965466 14.9092326 7.7648075L19.9298551 15.6233415C20.0147479 15.75622 19.9533678 15.8639394 19.8034742 15.8639394L2.14722686 15.8639394C1.99212294 15.8639394 1.92473319 15.7514312 1.99797568 15.6102003L7.71352136 4.58911188 8.03502924 3.96915944C8.107704 3.82902321 8.23291348 3.82991093 8.31146755 3.96557279ZM17.5 6C18.3284271 6 19 5.32842715 19 4.5 19 3.67157284 18.3284271 3 17.5 3 16.6715729 3 16 3.67157284 16 4.5 16 5.32842715 16.6715729 6 17.5 6Z"/>
  </defs>
  <sodipodi:namedview id="base" pagecolor="#ffffff" bordercolor="#666666" borderopacity="1.0" showgrid="false" units="px" showguides="true">
    <sodipodi:guide orientation="0,1" position="166.17009,250.51783" id="guide5801"/>
  </sodipodi:namedview>
  <metadata id="metadata4951">
    <rdf:RDF>
      <cc:Work rdf:about="">
        <dc:format>
          image/svg+xml
        </dc:format>
        <dc:type rdf:resource="http://purl.org/dc/dcmitype/StillImage"/>
      </cc:Work>
    </rdf:RDF>
  </metadata>
  <g id="layer1" transform="translate(0,-552.3622)">
    <path d="m244.7221 599.77232c-8.74356-0.23149-17.56204 7.91145-15.11407 17.0208 0.78484 20.54464-3.12134 41.8571 2.47357 61.93045 6.58216 9.0286 20.0097 8.78873 29.40609 5.05351 8.4512-4.98219 8.74157-15.833 8.10023-24.46791 0.44149-18.09809-0.26501-36.2031 0.22297-54.30073-7.56395-4.41773-16.48936-5.35563-25.08879-5.23612zm-44.29751 66.01088c-19.36478 4.37394-33.4322 19.699-50.33205 29.08316C100.80535 728.11553-0.1939649 787.79987-0.35672766 800.91901-0.51949043 814.03815 133.72086 900.15186 196.15919 939.22445c10.75131 2.62074 20.33275-9.75883 17.29227-19.82575 0.3925-81.45094 1.56159-163.00906-1.14948-244.3927-1.56231-5.08292-6.34018-9.47011-11.87739-9.2228zm97.47183 0.0462c-9.851 0.61613-13.99563 12.15908-12.40985 20.65039-0.18479 81.17012-2.06204 162.46662 0.74775 243.56038 3.38472 10.15591 18.64881 12.28243 25.26179 4.15584 63.15948-41.28808 188.50983-118.0044 188.35959-132.26974-0.15024-14.26534-134.52366-97.45625-194.33-134.48413-2.40385-1.02296-5.00146-1.69268-7.62928-1.61274zm-48.33226 52.49193c-9.40973-0.61765-19.96753 5.97188-19.84112 16.21391-1.38762 15.37964-0.10975 30.85818-0.54268 46.27522 0.37171 8.15226 0.657 19.35158 9.88273 22.54017 7.62883 2.70869 16.9064 2.28324 23.95469-1.64157 9.58491-7.77956 5.75638-21.43285 6.59078-32.0099 0.0331-14.30708 1.52697-29.3056-2.89052-43.06808-3.50186-5.82646-10.55612-8.62612-17.15388-8.30975zm84.65064 15.66992c34.07538 22.54881 68.00465 45.28463 101.73531 68.33677-36.14205 24.78238-72.68131 48.93619-109.24734 73.10002-0.69437-48.81021-0.27459-97.62629-0.0692-146.4384zm-162.01797 2.46812c0.48562 46.33584 0.2043 92.67506-0.12111 139.01096-36.59663-24.08579-73.007699-48.45394-109.17044-73.18659 36.20548-24.70995 72.59761-49.14706 109.20505-73.25765 0.0288 2.47774 0.0577 4.95548 0.0865 7.43321zm77.36733 100.81072c-9.40971-0.61885-19.96779 5.97227-19.84112 16.21391-1.38811 15.37836-0.11059 30.85562-0.54265 46.27137 0.37458 8.14841 0.64976 19.34369 9.86925 22.53826 7.62996 2.71951 16.91382 2.29083 23.96621-1.63581 9.58833-7.77688 5.75769-21.43325 6.59271-32.00989 0.0326-14.30772 1.52898-29.3075-2.89244-43.07001-3.49885-5.82693-10.55674-8.62323-17.15196-8.30783zm-2.01832 119.22556c-8.95083-0.57867-17.23121 6.19054-18.32642 15.1144-0.49261 7.32451-0.94386 15.0555 1.18408 22.15548 2.64846 8.03057 11.30484 11.69837 19.24716 11.14117 9.28033 0.5584 19.83508-5.61106 19.82384-15.76794 0.29129-9.07167 2.13066-19.95882-4.71136-27.18208-4.2894-5.08293-10.96646-5.92267-17.2173-5.46103z" id="path5780" sodipodi:nodetypes="ccccccccczcccccccczcccccccccccccccccccccccccccccccccccc"/>
  </g>
</svg>
