<?xml version="1.0" encoding="UTF-8" standalone="no"?>
<svg
   xmlns:dc="http://purl.org/dc/elements/1.1/"
   xmlns:cc="http://creativecommons.org/ns#"
   xmlns:rdf="http://www.w3.org/1999/02/22-rdf-syntax-ns#"
   xmlns:svg="http://www.w3.org/2000/svg"
   xmlns="http://www.w3.org/2000/svg"
   xmlns:xlink="http://www.w3.org/1999/xlink"
   xmlns:sodipodi="http://sodipodi.sourceforge.net/DTD/sodipodi-0.dtd"
   xmlns:inkscape="http://www.inkscape.org/namespaces/inkscape"
   width="500"
   height="500"
   viewBox="0 0 500.00001 500.00001"
   id="svg2"
   version="1.1"
   sodipodi:docname="align-justify.svg"
   inkscape:version="0.91 r13725">
  <defs
     id="defs4" />
  <sodipodi:namedview
     id="base"
     pagecolor="#ffffff"
     bordercolor="#666666"
     borderopacity="1.0"
     showgrid="false"
     units="px"
     inkscape:zoom="0.472"
     inkscape:cx="-315.67797"
     inkscape:cy="250"
     inkscape:window-width="1920"
     inkscape:window-height="1056"
     inkscape:window-x="0"
     inkscape:window-y="24"
     inkscape:window-maximized="1"
     inkscape:current-layer="svg2" />
  <metadata
     id="metadata7">
    <rdf:RDF>
      <cc:Work
         rdf:about="">
        <dc:format>


          image/svg+xml


        </dc:format>
        <dc:type
           rdf:resource="http://purl.org/dc/dcmitype/StillImage" />
        <dc:title></dc:title>
      </cc:Work>
    </rdf:RDF>
  </metadata>
  <use
     id="use32130"
     xlink:href="#symbol16714"
     transform="matrix(0.48875855,0,0,0.48875855,266.5973,18.208584)"
     x="0"
     y="0"
     width="100%"
     height="100%" />
  <path
     style="opacity:1;fill:#000000;fill-opacity:1;stroke:none;stroke-width:25;stroke-miterlimit:4;stroke-dasharray:none;stroke-dashoffset:0;stroke-opacity:1"
     d="M 9.0957031 0 C 4.0564559 0 0 4.0564559 0 9.0957031 L 0 60.904297 C 0 65.943544 4.0564559 70 9.0957031 70 L 490.9043 70 C 495.94354 70 500 65.943544 500 60.904297 L 500 9.0957031 C 500 4.0564559 495.94354 0 490.9043 0 L 9.0957031 0 z M 9.0957031 146 C 4.0564559 146 0 150.05646 0 155.0957 L 0 206.9043 C 0 211.94354 4.0564559 216 9.0957031 216 L 490.9043 216 C 495.94354 216 500 211.94354 500 206.9043 L 500 155.0957 C 500 150.05646 495.94354 146 490.9043 146 L 9.0957031 146 z M 9.0957031 288 C 4.0564559 288 0 292.05646 0 297.0957 L 0 348.9043 C 0 353.94354 4.0564559 358 9.0957031 358 L 490.9043 358 C 495.94354 358 500 353.94354 500 348.9043 L 500 297.0957 C 500 292.05646 495.94354 288 490.9043 288 L 9.0957031 288 z M 9.0957031 430 C 4.0564559 430 0 434.05646 0 439.0957 L 0 490.9043 C 0 495.94354 4.0564559 500 9.0957031 500 L 490.9043 500 C 495.94354 500 500 495.94354 500 490.9043 L 500 439.0957 C 500 434.05646 495.94354 430 490.9043 430 L 9.0957031 430 z "
     id="rect23283" />
</svg>
