<?xml version="1.0" encoding="UTF-8" standalone="no"?>
<svg
   xmlns:dc="http://purl.org/dc/elements/1.1/"
   xmlns:cc="http://creativecommons.org/ns#"
   xmlns:rdf="http://www.w3.org/1999/02/22-rdf-syntax-ns#"
   xmlns:svg="http://www.w3.org/2000/svg"
   xmlns="http://www.w3.org/2000/svg"
   xmlns:xlink="http://www.w3.org/1999/xlink"
   xmlns:sodipodi="http://sodipodi.sourceforge.net/DTD/sodipodi-0.dtd"
   xmlns:inkscape="http://www.inkscape.org/namespaces/inkscape"
   width="500"
   height="500"
   viewBox="0 0 500.00001 500.00001"
   id="svg2"
   version="1.1"
   sodipodi:docname="align-center.svg"
   inkscape:version="0.91 r13725">
  <defs
     id="defs4" />
  <sodipodi:namedview
     id="base"
     pagecolor="#ffffff"
     bordercolor="#666666"
     borderopacity="1.0"
     showgrid="false"
     units="px"
     inkscape:zoom="0.472"
     inkscape:cx="-315.67797"
     inkscape:cy="250"
     inkscape:window-width="1920"
     inkscape:window-height="1056"
     inkscape:window-x="0"
     inkscape:window-y="24"
     inkscape:window-maximized="1"
     inkscape:current-layer="svg2" />
  <metadata
     id="metadata7">
    <rdf:RDF>
      <cc:Work
         rdf:about="">
        <dc:format>


          image/svg+xml


        </dc:format>
        <dc:type
           rdf:resource="http://purl.org/dc/dcmitype/StillImage" />
        <dc:title></dc:title>
      </cc:Work>
    </rdf:RDF>
  </metadata>
  <use
     id="use32130"
     xlink:href="#symbol16714"
     transform="matrix(0.48875855,0,0,0.48875855,266.5973,18.208584)"
     x="0"
     y="0"
     width="100%"
     height="100%" />
  <path
     style="opacity:1;fill:#000000;fill-opacity:1;stroke:none;stroke-width:25;stroke-miterlimit:4;stroke-dasharray:none;stroke-dashoffset:0;stroke-opacity:1"
     d="M 9.0957031 0 C 4.0564559 0 0 4.0564559 0 9.0957031 L 0 60.904297 C 0 65.943544 4.0564559 70 9.0957031 70 L 490.9043 70 C 495.94354 70 500 65.943544 500 60.904297 L 500 9.0957031 C 500 4.0564559 495.94354 0 490.9043 0 L 9.0957031 0 z M 79.011719 146 C 73.972472 146 69.916016 150.05646 69.916016 155.0957 L 69.916016 206.9043 C 69.916016 211.94354 73.972472 216 79.011719 216 L 420.98828 216 C 426.02753 216 430.08398 211.94354 430.08398 206.9043 L 430.08398 155.0957 C 430.08398 150.05646 426.02753 146 420.98828 146 L 79.011719 146 z M 46.171875 290 C 41.132628 290 37.076172 294.05646 37.076172 299.0957 L 37.076172 350.9043 C 37.076172 355.94354 41.132628 360 46.171875 360 L 453.82812 360 C 458.86737 360 462.92383 355.94354 462.92383 350.9043 L 462.92383 299.0957 C 462.92383 294.05646 458.86737 290 453.82812 290 L 46.171875 290 z M 141.51172 430 C 136.47247 430 132.41602 434.05646 132.41602 439.0957 L 132.41602 490.9043 C 132.41602 495.94354 136.47247 500 141.51172 500 L 358.48828 500 C 363.52753 500 367.58398 495.94354 367.58398 490.9043 L 367.58398 439.0957 C 367.58398 434.05646 363.52753 430 358.48828 430 L 141.51172 430 z "
     id="rect23283" />
</svg>
