<svg xmlns:dc="http://purl.org/dc/elements/1.1/" xmlns:cc="http://creativecommons.org/ns#" xmlns:rdf="http://www.w3.org/1999/02/22-rdf-syntax-ns#" xmlns:svg="http://www.w3.org/2000/svg" xmlns="http://www.w3.org/2000/svg" xmlns:sodipodi="http://sodipodi.sourceforge.net/DTD/sodipodi-0.dtd" width="500" height="500" viewBox="0 0 500.00001 500.00001" id="svg2" version="1.1" sodipodi:docname="chat.svg">
  <defs id="defs4"/>
  <sodipodi:namedview id="base" pagecolor="#ffffff" bordercolor="#666666" borderopacity="1.0" showgrid="false" units="px"/>
  <metadata id="metadata7">
    <rdf:RDF>
      <cc:Work rdf:about="">
        <dc:format>
          image/svg+xml
        </dc:format>
        <dc:type rdf:resource="http://purl.org/dc/dcmitype/StillImage"/>
      </cc:Work>
    </rdf:RDF>
  </metadata>
  <g id="layer1" transform="translate(0,-552.36216)">
    <path d="M245.37443 560.1539C172.43183 561.04855 97.905533 588.76783 48.423952 643.62506 15.67037 679.30951-3.7043597 728.21528 0.59304145 776.92522 4.0123162 833.37045 37.0557 884.73674 81.104903 918.73698c8.098235 6.39662 16.538249 12.35111 25.158027 18.0212 0.95406 31.91859-0.82752 64.10242 2.36912 95.85342 5.26909 12.8142 23.80421 15.9744 33.66354 6.5707 26.23006-21.6325 52.72651-42.96164 78.96925-64.59768 24.56188 2.49228 49.46518 1.12 73.87321-2.21543 68.69794-11.16255 134.94494-48.38561 173.49703-107.33344 26.15943-39.43305 37.9981-89.1593 27.62356-135.76607C486.16938 681.36056 455.05913 639.8301 415.67534 611.62635 366.73341 575.99591 305.60292 559.0112 245.37443 560.1539Zm5.61963 42.2586c60.35202 0.21034 122.75637 21.19128 165.3291 65.52883 25.94218 26.56891 42.87607 63.05006 40.95847 100.32047-0.7981 42.23442-23.44831 81.85956-54.77729 109.38195-44.67518 39.7667-105.84101 58.81146-164.93222 55.55457-10.1878 0.36226-20.63735-2.84553-30.55684-1.60842-19.30569 15.7333-38.62146 31.45426-57.90097 47.21962-0.49451-22.26332-0.39985-44.53369-0.63345-66.80017C104.31499 889.73884 64.261664 853.73701 48.832688 805.66642 35.513029 765.19011 43.174207 718.30247 69.658619 684.4439 111.31831 628.35156 182.93963 602.05496 250.99406 602.4125Z" id="path20103"/>
  </g>
</svg>
