<?xml version="1.0" encoding="UTF-8" standalone="no"?>
<svg
   xmlns:dc="http://purl.org/dc/elements/1.1/"
   xmlns:cc="http://creativecommons.org/ns#"
   xmlns:rdf="http://www.w3.org/1999/02/22-rdf-syntax-ns#"
   xmlns:svg="http://www.w3.org/2000/svg"
   xmlns="http://www.w3.org/2000/svg"
   xmlns:sodipodi="http://sodipodi.sourceforge.net/DTD/sodipodi-0.dtd"
   xmlns:inkscape="http://www.inkscape.org/namespaces/inkscape"
   width="500"
   height="500"
   viewBox="0 0 500 500.00001"
   id="svg4946"
   version="1.1"
   sodipodi:docname="copy.svg"
   inkscape:version="0.91 r13725">
  <defs
     id="defs4948">
    <path
       id="path-1"
       d="M0.140487671 0C0.0628984728 0 0 0.065177679 0 0.14488998L0 17.85511C0 17.9351306 0.0631103513 18 0.140487671 18L21.8595124 18C21.9371015 18 22 17.9348223 22 17.85511L22 0.14488998C22 0.064869454 21.9368896 0 21.8595124 0L0.140487671 0ZM1 1L1 17 21 17 21 1 1 1ZM8.31146755 3.96557279L11.5680228 9.58960333C11.6080958 9.65880899 11.694647 9.6768875 11.7588871 9.63170823L14.5213939 7.68886831C14.6506985 7.59792981 14.8228868 7.62965466 14.9092326 7.7648075L19.9298551 15.6233415C20.0147479 15.75622 19.9533678 15.8639394 19.8034742 15.8639394L2.14722686 15.8639394C1.99212294 15.8639394 1.92473319 15.7514312 1.99797568 15.6102003L7.71352136 4.58911188 8.03502924 3.96915944C8.107704 3.82902321 8.23291348 3.82991093 8.31146755 3.96557279ZM17.5 6C18.3284271 6 19 5.32842715 19 4.5 19 3.67157284 18.3284271 3 17.5 3 16.6715729 3 16 3.67157284 16 4.5 16 5.32842715 16.6715729 6 17.5 6ZM0.140487671 0C0.0628984728 0 0 0.065177679 0 0.14488998L0 17.85511C0 17.9351306 0.0631103513 18 0.140487671 18L21.8595124 18C21.9371015 18 22 17.9348223 22 17.85511L22 0.14488998C22 0.064869454 21.9368896 0 21.8595124 0L0.140487671 0ZM8.31146755 3.96557279L11.5680228 9.58960333C11.6080958 9.65880899 11.694647 9.6768875 11.7588871 9.63170823L14.5213939 7.68886831C14.6506985 7.59792981 14.8228868 7.62965466 14.9092326 7.7648075L19.9298551 15.6233415C20.0147479 15.75622 19.9533678 15.8639394 19.8034742 15.8639394L2.14722686 15.8639394C1.99212294 15.8639394 1.92473319 15.7514312 1.99797568 15.6102003L7.71352136 4.58911188 8.03502924 3.96915944C8.107704 3.82902321 8.23291348 3.82991093 8.31146755 3.96557279ZM17.5 6C18.3284271 6 19 5.32842715 19 4.5 19 3.67157284 18.3284271 3 17.5 3 16.6715729 3 16 3.67157284 16 4.5 16 5.32842715 16.6715729 6 17.5 6Z" />
  </defs>
  <sodipodi:namedview
     id="base"
     pagecolor="#ffffff"
     bordercolor="#666666"
     borderopacity="1.0"
     showgrid="false"
     units="px"
     showguides="true"
     inkscape:zoom="1.3350176"
     inkscape:cx="290.40207"
     inkscape:cy="320.59564"
     inkscape:window-width="1920"
     inkscape:window-height="1056"
     inkscape:window-x="1920"
     inkscape:window-y="24"
     inkscape:window-maximized="1"
     inkscape:current-layer="svg4946">
    <sodipodi:guide
       orientation="0,1"
       position="166.17009,250.51783"
       id="guide5801" />
  </sodipodi:namedview>
  <metadata
     id="metadata4951">
    <rdf:RDF>
      <cc:Work
         rdf:about="">
        <dc:format>
          image/svg+xml
        </dc:format>
        <dc:type
           rdf:resource="http://purl.org/dc/dcmitype/StillImage" />
      </cc:Work>
    </rdf:RDF>
  </metadata>
  <path
     d="m 358.94336,28.601562 c -0.30857,0 -0.60397,0.03742 -0.89063,0.0918 -49.58512,0.03915 -99.17269,0.0912 -148.75195,-0.01563 -27.72781,-0.02751 -55.45913,0.0742 -83.17773,0.851563 -4.75195,-1.01912 -10.44291,1.40434 -11.45508,6.53125 -0.4662,103.068103 -0.64006,206.200213 0.0801,309.291013 -1.23786,5.1905 3.2388,9.59559 8.19336,9.90039 125.5876,1.6695 251.21638,0.43148 376.82031,0.83008 -0.0532,-62.19379 0.004,-124.38654 0.004,-186.58008 3.7e-4,-0.0246 0.006,-0.0475 0.006,-0.0723 l 0,-33.24414 c 0.009,-1.01455 -0.0746,-1.87344 -0.63281,-2.62891 0,0 -100.55214,-100.471187 -103.73633,-103.52539 -1.17253,-1.205466 -1.9674,-1.411454 -3.21484,-1.429688 z m -3.76953,41.041016 0,66.542972 0,33.24414 0,0.81054 c 0,0.76568 0.37667,1.45418 0.98047,1.97852 0.52434,0.60379 1.21284,0.98047 1.97851,0.98047 l 0.81055,0 33.24414,0 66.82227,0 c 0.0238,47.19953 -0.0177,94.39802 -0.51172,141.5957 -100.83365,0.8844 -201.67196,0.38808 -302.50782,0.51758 l 0.45899,-245.412109 c 66.24156,-0.124924 132.483,-0.207104 198.72461,-0.257813 z M 43.253906,143.85742 C 28.835649,143.8643 14.418195,143.88597 0,143.91992 l 0,327.38477 c 122.69715,-0.2986 245.39767,0.59226 368.0918,-0.61914 5.46229,-0.3343 13.18389,1.32497 16.04101,-4.89453 2.21679,-19.76552 1.21852,-39.80019 1.22852,-59.67579 -0.86514,-8.9033 1.34476,-18.10799 -1.34571,-26.87109 -2.65586,-6.8301 -11.40976,-6.92879 -17.60742,-6.77539 -6.94207,0.5006 -16.21617,-1.81909 -20.77539,5.06641 -3.70864,17.1073 -1.46112,34.96009 -2.18164,52.37109 -9.80503,0.4248 -20.45557,0.09 -30.58398,0.22461 -90.70066,-0.1246 -181.40587,0.82138 -272.103518,-0.16602 l 0.458984,-244.92578 c 18.69461,-0.31754 37.389395,-0.63501 56.083985,-0.95312 0.2525,-13.37765 0.503606,-26.75511 0.753906,-40.13282 -3.85028,-0.0315 -7.700371,-0.0642 -11.550781,-0.0742 -14.418215,-0.0213 -28.837602,-0.0284 -43.25586,-0.0215 z"
     id="path5835"
     inkscape:connector-curvature="0"
     sodipodi:nodetypes="sccccccccsccccscccscscccccccscccccccccccccccs" />
</svg>
