<svg xmlns:dc="http://purl.org/dc/elements/1.1/" xmlns:cc="http://creativecommons.org/ns#" xmlns:rdf="http://www.w3.org/1999/02/22-rdf-syntax-ns#" xmlns:svg="http://www.w3.org/2000/svg" xmlns="http://www.w3.org/2000/svg" xmlns:sodipodi="http://sodipodi.sourceforge.net/DTD/sodipodi-0.dtd" width="500" height="500" viewBox="0 0 500.00001 500.00001" id="svg2" version="1.1" sodipodi:docname="curve.svg">
  <defs id="defs4"/>
  <sodipodi:namedview id="base" pagecolor="#ffffff" bordercolor="#666666" borderopacity="1.0" showgrid="false" units="px" showguides="true">
    <sodipodi:guide orientation="1,0" position="250.02671,192.20803" id="guide4241"/>
  </sodipodi:namedview>
  <metadata id="metadata7">
    <rdf:RDF>
      <cc:Work rdf:about="">
        <dc:format>

          image/svg+xml

        </dc:format>
        <dc:type rdf:resource="http://purl.org/dc/dcmitype/StillImage"/>
      </cc:Work>
    </rdf:RDF>
  </metadata>
  <g id="text4186">
    <path d="m406.51244 0.97329001 0 15.51209599 0 19.307309C360.91639 39.553514 324.8313 67.502981 297.2178 104.3287c-29.70843 39.61953-51.83247 89.74546-73.47422 138.52624-21.64175 48.78078-42.80959 96.23955-67.23741 129.74818-18.98926 26.04832-38.52517 43.38413-63.018613 49.81444l0-28.75192-93.4875572906251 0 0 15.51209 0 89.84898 93.4875572906251 0 0-30.41623c38.747483-7.41867 69.869573-33.72876 94.213383-67.12214 28.86179-39.59085 50.55584-89.59868 72.15518-138.28388 21.59934-48.68518 43.09512-96.02588 68.19983-129.50579 22.67977-30.24605 46.49872-48.970651 78.45649-52.306879l0 24.942559 93.48756 0 0-105.36105999-93.48756 0zm27.52797 31.02419299 38.43161 0 0 43.312684-38.43161 0 0-43.312684zM27.527966 424.68983l38.431621 0 0 43.31268-38.431621 0 0-43.31268z" id="path4245"/>
  </g>
</svg>
