<?xml version="1.0" encoding="UTF-8" standalone="no"?>
<svg
   xmlns:dc="http://purl.org/dc/elements/1.1/"
   xmlns:cc="http://creativecommons.org/ns#"
   xmlns:rdf="http://www.w3.org/1999/02/22-rdf-syntax-ns#"
   xmlns:svg="http://www.w3.org/2000/svg"
   xmlns="http://www.w3.org/2000/svg"
   xmlns:xlink="http://www.w3.org/1999/xlink"
   xmlns:sodipodi="http://sodipodi.sourceforge.net/DTD/sodipodi-0.dtd"
   xmlns:inkscape="http://www.inkscape.org/namespaces/inkscape"
   width="500"
   height="500"
   viewBox="0 0 500.00001 500.00001"
   id="svg2"
   version="1.1"
   sodipodi:docname="eye-closed.svg"
   inkscape:version="0.91 r13725">
  <defs
     id="defs4" />
  <sodipodi:namedview
     id="base"
     pagecolor="#ffffff"
     bordercolor="#666666"
     borderopacity="1.0"
     showgrid="false"
     units="px"
     inkscape:zoom="0.944"
     inkscape:cx="323.71814"
     inkscape:cy="459.15036"
     inkscape:window-width="1920"
     inkscape:window-height="1056"
     inkscape:window-x="1920"
     inkscape:window-y="24"
     inkscape:window-maximized="1"
     inkscape:current-layer="svg2" />
  <metadata
     id="metadata7">
    <rdf:RDF>
      <cc:Work
         rdf:about="">
        <dc:format>


          image/svg+xml


        </dc:format>
        <dc:type
           rdf:resource="http://purl.org/dc/dcmitype/StillImage" />
      </cc:Work>
    </rdf:RDF>
  </metadata>
  <use
     id="use32130"
     xlink:href="#symbol16714"
     transform="matrix(0.48875855,0,0,0.48875855,266.5973,18.208584)"
     x="0"
     y="0"
     width="100%"
     height="100%" />
  <path
     d="m 327.05664,64.849609 -198.87305,344.458981 44.75977,25.8418 23.69141,-41.03516 c 2.35903,0.59703 4.72668,1.17184 7.10742,1.70508 50.37592,11.18535 103.88226,2.66396 150.00781,-19.77734 55.1695,-26.12751 102.73105,-66.57335 141.82812,-113.0957 5.99919,-7.82735 6.08153,-19.58432 -0.9121,-26.86915 -14.0138,-18.42516 -31.27731,-34.09609 -48.19727,-49.78906 -27.96601,-24.90691 -59.37685,-47.08692 -93.52734,-62.90429 l 18.875,-32.693364 z m -74.5918,34.433594 c -2.93701,-0.01769 -5.87574,0.0014 -8.8125,0.03516 -58.6229,1.203561 -114.03827,26.830651 -160.890621,60.648441 -28.49997,20.93851 -55.3792,44.82017 -76.4765628,73.3457 -5.96967201,7.87671 -9.1263945,19.37014 -2.8652343,28.01758 7.6561091,11.91781 18.5366421,21.32939 28.0566401,31.70703 26.29913,26.37398 55.826562,50.43229 88.220708,69.19922 L 140.94336,325.4375 C 110.97726,307.95194 83.859771,285.2697 59.40625,260.79297 55.464164,256.74246 51.631475,252.58224 48.013672,248.23828 90.04379,200.80264 144.14083,162.3308 206.07617,146.51172 c 13.52692,-3.23909 27.33538,-5.11068 41.22461,-5.29102 l 23.75195,-41.14062 c -6.17986,-0.550446 -12.38091,-0.759488 -18.58789,-0.796877 z m -11.87109,53.556637 c -44.24005,3.79404 -83.52927,41.51539 -87.5625,86.11719 -2.07939,17.47758 1.02205,35.29043 8.27148,51.21875 z m 90.9668,7.57813 c 26.2703,11.73991 50.82263,27.92436 72.96484,45.94922 16.31355,13.36149 32.05731,27.80976 46.0918,43.71289 -41.51276,44.10281 -91.00143,83.18612 -149.74219,100.76953 -26.42942,8.07583 -54.75814,9.69952 -82.03125,4.79883 l 6.56836,-11.37891 c 30.46548,7.6852 64.77948,0.63723 88.2168,-20.83984 23.46907,-20.17237 36.70491,-51.78847 33.28906,-82.69922 -1.86537,-22.2384 -12.15414,-43.18803 -27.65235,-59.01758 z"
     id="path4431"
     inkscape:connector-curvature="0"
     sodipodi:nodetypes="ccccccccccccsccccccccccccscccccccccccccc" />
</svg>
