<svg xmlns:dc="http://purl.org/dc/elements/1.1/" xmlns:cc="http://creativecommons.org/ns#" xmlns:rdf="http://www.w3.org/1999/02/22-rdf-syntax-ns#" xmlns:svg="http://www.w3.org/2000/svg" xmlns="http://www.w3.org/2000/svg" xmlns:xlink="http://www.w3.org/1999/xlink" xmlns:sodipodi="http://sodipodi.sourceforge.net/DTD/sodipodi-0.dtd" width="500" height="500" viewBox="0 0 500.00001 500.00001" id="svg2" version="1.1" sodipodi:docname="eye-closed.svg">
  <defs id="defs4"/>
  <sodipodi:namedview id="base" pagecolor="#ffffff" bordercolor="#666666" borderopacity="1.0" showgrid="false" units="px"/>
  <metadata id="metadata7">
    <rdf:RDF>
      <cc:Work rdf:about="">
        <dc:format>


          image/svg+xml


        </dc:format>
        <dc:type rdf:resource="http://purl.org/dc/dcmitype/StillImage"/>
      </cc:Work>
    </rdf:RDF>
  </metadata>
  <use id="use32130" xlink:href="#symbol16714" transform="matrix(0.48875855,0,0,0.48875855,266.5973,18.208584)" x="0" y="0" width="100%" height="100%"/>
  <path d="M327.05664 64.849609L303.42578 105.78125C295.3378 103.77078 287.13499 102.14453 278.81836 100.96289 267.16476 99.296987 255.39936 99.183229 243.65234 99.318359 185.02944 100.52192 129.61407 126.14901 82.761719 159.9668 54.261749 180.90531 27.382519 204.78697 6.2851562 233.3125 0.31548414 241.18921-2.8412383 252.68264 3.4199219 261.33008 11.076031 273.24789 21.956564 282.65947 31.476562 293.03711 65.025379 326.68141 103.82773 356.55858 147.13281 376.48828L128.18359 409.30859 172.94336 435.15039 196.63477 394.11523C198.9938 394.71226 201.36145 395.28707 203.74219 395.82031 254.11811 407.00566 307.62445 398.48427 353.75 376.04297 408.9195 349.91546 456.48105 309.46962 495.57812 262.94727 501.57731 255.11992 501.65965 243.36295 494.66602 236.07812 480.65222 217.65296 463.38871 201.98203 446.46875 186.28906 418.50274 161.38215 387.0919 139.20214 352.94141 123.38477L371.81641 90.691406 327.05664 64.849609zM249.95508 141.18359C260.49952 141.36259 270.9026 142.47622 281.13672 144.38672L274.61133 155.68945C266.12185 153.43452 257.32754 152.31795 248.54297 152.52148 201.15702 152.157 157.30468 191.6989 153.03125 238.95703 149.58796 267.89845 160.32958 297.76874 180.63672 318.45703L168.44336 339.57617C127.34009 321.29682 91.13375 292.55059 59.40625 260.79297 55.464164 256.74246 51.631475 252.58224 48.013672 248.23828 90.04379 200.80264 144.14083 162.3308 206.07617 146.51172 220.46497 143.06625 235.17057 141.14136 249.95508 141.18359zM331.56055 160.41797C357.83085 172.15788 382.38318 188.34233 404.52539 206.36719 420.83894 219.72868 436.5827 234.17695 450.61719 250.08008 409.10443 294.18289 359.61576 333.2662 300.875 350.84961 274.44558 358.92544 246.11686 360.54913 218.84375 355.64844L225.41211 344.26953C255.87759 351.95473 290.19159 344.90676 313.62891 323.42969 337.09798 303.25732 350.33382 271.64122 346.91797 240.73047 345.0526 218.49207 334.76382 197.54244 319.26562 181.71289L331.56055 160.41797z" id="path4431"/>
</svg>
