<svg xmlns="http://www.w3.org/2000/svg" width="500" height="500" viewBox="0 0 500.00001 500.00001"><path d="M321.207 0l-.816.002C246.95.68 173.43-.652 100.04 1.355 79.302 8.75 60.753 28.67 62.542 51.86c.16 136.492-.68 273.03.436 409.49 7.008 21.48 27.824 39.858 51.33 38.09 93.425 1.042 186.87.398 280.29-.073 11.936-.885 21.887-9.14 29.968-17.3 9.44-10.022 14.253-24.036 12.63-37.74-.07-109.31.33-218.62.413-327.93C398.81 77.596 360.01 38.798 321.208 0zm-201.96 44.016c3.874.016 7.9.513 11.337.09 8.543-.08 17.084.04 25.627-.063 44.39.08 88.783.204 133.173.322.89 30.38-1.634 61.045 3.107 91.192 4.51 10.793 17.666 12.764 27.985 11.746 24.315.94 48.655.87 72.984.836-.947 100.897 1.59 201.892-.933 302.73-4.32 8.28-15.445 5.24-22.984 5.487-85.857-.442-171.756.51-257.588-.49-8.522-3.928-4.48-14.764-5.478-21.875-1.053-89.485-.257-178.98-.676-268.47.078-38.725-.054-77.522.83-116.198 2.903-4.552 7.634-5.33 12.616-5.308zm215.237 31.677l5.604 5.547c7.316 7.268 14.61 14.558 21.85 21.9-9.155.057-18.31.007-27.467.014.005-9.153-.04-18.307.014-27.46zM168.64 262.77c-4.752 0-9.132.698-13.138 2.095-3.913 1.398-7.31 3.354-10.2 5.87-2.887 2.42-5.123 5.31-6.706 8.663-1.584 3.26-2.377 6.755-2.377 10.48 0 3.355.51 6.38 1.536 9.083 1.025 2.61 2.376 4.938 4.053 6.987 1.77 1.957 3.725 3.68 5.868 5.17 2.236 1.49 4.518 2.703 6.847 3.635l11.877 5.03c1.957.838 3.727 1.63 5.31 2.374 1.678.652 3.074 1.398 4.192 2.237 1.21.745 2.096 1.63 2.655 2.654.65 1.025.977 2.237.977 3.635 0 2.7-1.07 4.844-3.213 6.427-2.05 1.583-5.217 2.374-9.502 2.374-3.82 0-7.732-.884-11.738-2.654-3.913-1.77-7.5-4.053-10.76-6.848l-11.738 14.114c4.658 4.378 9.922 7.686 15.79 9.922 5.963 2.142 11.924 3.212 17.886 3.212 5.403 0 10.248-.745 14.533-2.236 4.285-1.584 7.872-3.633 10.76-6.148 2.98-2.61 5.216-5.588 6.707-8.942 1.583-3.447 2.375-7.08 2.375-10.9 0-6.428-1.63-11.597-4.89-15.51-3.168-3.912-7.546-6.987-13.136-9.223l-11.737-4.75c-1.956-.84-3.772-1.585-5.45-2.237-1.676-.745-3.166-1.49-4.47-2.234-1.21-.84-2.19-1.726-2.935-2.657-.653-1.025-.98-2.236-.98-3.633 0-2.61 1.026-4.61 3.075-6.008 2.143-1.49 4.986-2.236 8.526-2.236 3.632 0 6.938.652 9.92 1.957 2.98 1.21 5.96 2.98 8.942 5.308l10.48-12.993c-3.912-3.912-8.476-6.894-13.693-8.943-5.125-2.05-10.34-3.074-15.65-3.074zm169.01 0c-6.148 0-11.97 1.07-17.466 3.212-5.404 2.143-10.155 5.265-14.254 9.364-4.006 4.1-7.22 9.13-9.64 15.09-2.33 5.87-3.495 12.577-3.495 20.123 0 7.637 1.118 14.39 3.353 20.26 2.33 5.776 5.497 10.62 9.502 14.534 4.006 3.912 8.665 6.893 13.975 8.943 5.403 1.956 11.178 2.933 17.326 2.933 6.43 0 12.3-1.07 17.61-3.212 5.31-2.143 9.594-4.752 12.854-7.827v-41.92h-33.258v16.77h15.092v15.65c-1.118.93-2.562 1.63-4.332 2.095-1.77.466-3.586.7-5.45.7-8.57 0-14.997-2.563-19.282-7.686-4.192-5.218-6.29-12.532-6.29-21.94 0-4.565.56-8.662 1.678-12.296 1.21-3.633 2.887-6.707 5.03-9.222 2.142-2.515 4.66-4.426 7.546-5.73 2.98-1.398 6.242-2.096 9.782-2.096 3.912 0 7.08.605 9.502 1.816 2.515 1.21 4.89 2.89 7.127 5.03l11.317-12.716c-2.98-3.074-6.847-5.822-11.598-8.244-4.66-2.422-10.202-3.632-16.63-3.632zm-130.914 1.675l27.528 91.11h24.732l27.39-91.11h-20.962l-10.76 42.48c-1.304 5.03-2.515 9.922-3.633 14.673-1.117 4.657-2.327 9.502-3.632 14.533h-.558c-1.398-5.03-2.656-9.875-3.774-14.532-1.024-4.75-2.235-9.642-3.632-14.672l-10.9-42.48h-21.798z"/></svg>