<svg xmlns:dc="http://purl.org/dc/elements/1.1/" xmlns:cc="http://creativecommons.org/ns#" xmlns:rdf="http://www.w3.org/1999/02/22-rdf-syntax-ns#" xmlns:svg="http://www.w3.org/2000/svg" xmlns="http://www.w3.org/2000/svg" xmlns:sodipodi="http://sodipodi.sourceforge.net/DTD/sodipodi-0.dtd" width="500" height="500" viewBox="0 0 500.00001 500.00001" id="svg2" version="1.1" sodipodi:docname="forms.svg">
  <defs id="defs4"/>
  <sodipodi:namedview id="base" pagecolor="#ffffff" bordercolor="#666666" borderopacity="1.0" showgrid="false" units="px"/>
  <metadata id="metadata7">
    <rdf:RDF>
      <cc:Work rdf:about="">
        <dc:format>


          image/svg+xml


        </dc:format>
        <dc:type rdf:resource="http://purl.org/dc/dcmitype/StillImage"/>
      </cc:Work>
    </rdf:RDF>
  </metadata>
  <path d="M175.22537 0.0214681C98.602395-0.4189217 25.177287 57.341185 8.1268427 132.43819c-16.236521 64.68266 7.6690733 137.6301 61.0127383 178.29929 29.517076 23.30663 66.410239 37.17296 104.021159 37.97425-0.0312 50.42943 0.0789 100.85884 0.0307 151.28827 107.89983 0 215.79967 0 323.69951 0 0-107.89983 0-215.79966 0-323.69951-48.37827 0-96.75653 0-145.13478 0C353.71298 101.54532 300.96681 28.47396 228.60303 7.70976 211.56875 2.4333964 193.25409-0.2710881 175.22537 0.0214681Zm1.39564 45.1256169c59.60941-1.339223 116.86335 44.455175 127.24524 103.415595 1.85716 9.11869 2.67055 18.43563 2.57212 27.73781-44.41306 0-88.82612 0-133.23918 0-0.12477 42.3413 0.20748 84.68363-0.16917 127.02417C113.59669 302.40815 58.275037 254.48689 50.046662 195.49339 41.679559 145.85509 64.545443 91.631367 108.08481 65.447269c20.38308-12.91528 44.37765-20.187654 68.5362-20.300184zm41.62691 174.243245c26.7401 0 53.48021 0 80.22032 0-13.57553 36.75933-44.78553 66.40841-82.18883 78.09034 0-26.03011 0-52.06022 0-78.09034l0.98426 0 0.98425 0zm129.05802 0c35.49906 0 70.99811 0 106.49715 0 0 79.17327 0 158.34656 0 237.51984-79.17455 0-158.34912 0-237.52368 0 0-37.5579 0-75.11581 0-112.67371 61.81439-13.63797 113.78218-63.87645 129.53094-124.84613l0.98425 0 0.51134 0z" id="rect4138" />
</svg>
