<svg xmlns:dc="http://purl.org/dc/elements/1.1/" xmlns:cc="http://creativecommons.org/ns#" xmlns:rdf="http://www.w3.org/1999/02/22-rdf-syntax-ns#" xmlns:svg="http://www.w3.org/2000/svg" xmlns="http://www.w3.org/2000/svg" xmlns:sodipodi="http://sodipodi.sourceforge.net/DTD/sodipodi-0.dtd" width="500" height="500" viewBox="0 0 500 500.00001" id="svg4946" version="1.1" sodipodi:docname="grid.svg">
  <defs id="defs4948">
    <path id="path-1" d="M0.140487671 0C0.0628984728 0 0 0.065177679 0 0.14488998L0 17.85511C0 17.9351306 0.0631103513 18 0.140487671 18L21.8595124 18C21.9371015 18 22 17.9348223 22 17.85511L22 0.14488998C22 0.064869454 21.9368896 0 21.8595124 0L0.140487671 0ZM1 1L1 17 21 17 21 1 1 1ZM8.31146755 3.96557279L11.5680228 9.58960333C11.6080958 9.65880899 11.694647 9.6768875 11.7588871 9.63170823L14.5213939 7.68886831C14.6506985 7.59792981 14.8228868 7.62965466 14.9092326 7.7648075L19.9298551 15.6233415C20.0147479 15.75622 19.9533678 15.8639394 19.8034742 15.8639394L2.14722686 15.8639394C1.99212294 15.8639394 1.92473319 15.7514312 1.99797568 15.6102003L7.71352136 4.58911188 8.03502924 3.96915944C8.107704 3.82902321 8.23291348 3.82991093 8.31146755 3.96557279ZM17.5 6C18.3284271 6 19 5.32842715 19 4.5 19 3.67157284 18.3284271 3 17.5 3 16.6715729 3 16 3.67157284 16 4.5 16 5.32842715 16.6715729 6 17.5 6ZM0.140487671 0C0.0628984728 0 0 0.065177679 0 0.14488998L0 17.85511C0 17.9351306 0.0631103513 18 0.140487671 18L21.8595124 18C21.9371015 18 22 17.9348223 22 17.85511L22 0.14488998C22 0.064869454 21.9368896 0 21.8595124 0L0.140487671 0ZM8.31146755 3.96557279L11.5680228 9.58960333C11.6080958 9.65880899 11.694647 9.6768875 11.7588871 9.63170823L14.5213939 7.68886831C14.6506985 7.59792981 14.8228868 7.62965466 14.9092326 7.7648075L19.9298551 15.6233415C20.0147479 15.75622 19.9533678 15.8639394 19.8034742 15.8639394L2.14722686 15.8639394C1.99212294 15.8639394 1.92473319 15.7514312 1.99797568 15.6102003L7.71352136 4.58911188 8.03502924 3.96915944C8.107704 3.82902321 8.23291348 3.82991093 8.31146755 3.96557279ZM17.5 6C18.3284271 6 19 5.32842715 19 4.5 19 3.67157284 18.3284271 3 17.5 3 16.6715729 3 16 3.67157284 16 4.5 16 5.32842715 16.6715729 6 17.5 6Z"/>
  </defs>
  <sodipodi:namedview id="base" pagecolor="#ffffff" bordercolor="#666666" borderopacity="1.0" showgrid="false" units="px"/>
  <metadata id="metadata4951">
    <rdf:RDF>
      <cc:Work rdf:about="">
        <dc:format>
          image/svg+xml
        </dc:format>
        <dc:type rdf:resource="http://purl.org/dc/dcmitype/StillImage"/>
      </cc:Work>
    </rdf:RDF>
  </metadata>
  <g id="layer1" transform="translate(0,-552.3622)">
    <path d="m456.73499 552.40637c-37.03948 0.55553-74.13146-0.0579-111.19268 0.16864-103.75485 0-207.5097 0-311.264546 0-13.378707 4.87752-25.1288586 14.40338-30.965554 27.59878-5.4848905 9.55437-1.8671196 21.00046-2.90252482 31.44964 0 135.52059 0 271.04119 0 406.56177 6.28640122 17.3263 21.49629082 33.3779 40.99047482 33.5963 132.07284 1.2119 264.18356 0.1387 396.27102 0.2146 10.09638-0.5821 20.80251 1.1486 30.50925-0.907 14.91841-6.1906 28.43314-18.8709 31.57859-35.2667 0.11288-143.11195 0.0226-286.31 0.0516-429.4547-5.85142-16.19374-19.35885-30.4674-36.60791-33.81848-2.14743-0.22947-4.31215-0.20837-6.4677-0.14285zM97.272275 593.8968c17.193555 0.44644 34.497565-0.6536 51.588765 1.75977 5.46534 5.38378 2.18232 13.95144 3.48522 20.6441 0.30391 28.0139 1.53524 56.27544-1.31081 84.13248-3.33 5.94455-11.54189 2.74028-16.92404 3.97018-29.26161 0.45356-58.770975 1.68478-87.878338-1.20257-5.932256-3.34253-2.73049-11.53903-3.960263-16.92204-0.45574-29.25904-1.679227-58.76512 1.198599-87.87041 3.325068-5.95374 11.5233-2.69657 16.896671-4.01939 12.29604-0.42155 24.602036-0.45212 36.904196-0.49212zm152.855735 0c17.19355 0.44644 34.49756-0.6536 51.58875 1.75977 5.46434 5.38405 2.1828 13.95126 3.48522 20.6441 0.30391 28.0139 1.53525 56.27544-1.31081 84.13248-3.33006 5.94455-11.5419 2.7403-16.92403 3.97018-29.26162 0.45356-58.77098 1.68478-87.87834-1.20257-5.93082-3.34298-2.73116-11.53915-3.96028-16.92204-0.45846-29.25631-1.67385-58.75535 1.19465-87.86049 3.31705-5.96652 11.52774-2.70656 16.90262-4.02931 12.29538-0.42156 24.60072-0.45212 36.90222-0.49212zm152.85572 0c17.20128 0.45264 34.51487-0.6624 51.61256 1.7677 5.41388 5.4045 2.20292 13.93815 3.46246 20.63421 0.29842 28.0184 1.5392 56.28568-1.31383 84.14634-3.34635 5.92716-11.53861 2.7296-16.92207 3.95757-29.25905 0.45511-58.76527 1.68367-87.87038-1.19987-5.94111-3.33402-2.73896-11.54122-3.96823-16.92403-0.45719-29.25672-1.67637-58.75801 1.19664-87.86248 3.31678-5.9644 11.52676-2.70429 16.90064-4.02732 12.29538-0.42156 24.60071-0.45212 36.90221-0.49212zM97.272275 746.75252c17.193555 0.44645 34.497565-0.6536 51.588765 1.75978 5.46534 5.38377 2.18232 13.95144 3.48522 20.6441 0.30391 28.01388 1.53524 56.27543-1.31081 84.13247-3.33075 5.94485-11.54343 2.73914-16.92603 3.96947-29.26096 0.45323-58.769584 1.68379-87.876348-1.20185-5.931836-3.34263-2.729601-11.53926-3.960263-16.92205-0.45574-29.25904-1.679227-58.76511 1.198599-87.8704 3.325068-5.95374 11.5233-2.69658 16.896671-4.01939 12.29604-0.42155 24.602036-0.45213 36.904196-0.49213zm152.855735 0c17.19355 0.44645 34.49756-0.6536 51.58875 1.75978 5.46434 5.38405 2.1828 13.95126 3.48522 20.6441 0.30391 28.01388 1.53525 56.27543-1.31081 84.13247-3.33084 5.94504-11.54327 2.73954-16.92604 3.96947-29.25839 0.45423-58.76389 1.68166-87.86839-1.19986-5.94217-3.3335-2.73724-11.54157-3.96822-16.92404-0.45846-29.25631-1.67385-58.75534 1.19465-87.86048 3.31705-5.96653 11.52774-2.70657 16.90262-4.02931 12.29538-0.42156 24.60072-0.45213 36.90222-0.49213zm152.85572 0c17.20128 0.45264 34.51487-0.66239 51.61256 1.76771 5.41388 5.4045 2.20292 13.93815 3.46246 20.6342 0.29842 28.0184 1.5392 56.28568-1.31383 84.14634-3.34875 5.93378-11.53227 2.71295-16.92206 3.9563-29.259 0.45697-58.76523 1.68226-87.87039-1.19859-5.94111-3.33402-2.73896-11.54122-3.96823-16.92404-0.45719-29.25672-1.67637-58.758 1.19664-87.86247 3.31678-5.9644 11.52676-2.70429 16.90064-4.02732 12.29538-0.42156 24.60071-0.45213 36.90221-0.49213zM97.272275 899.60825c17.192315 0.44719 34.494715-0.65282 51.584795 1.75977 5.47318 5.37848 2.18417 13.95237 3.48919 20.6441 0.30719 28.0113 1.52877 56.26515-1.30486 84.12258-3.32192 5.9583-11.54623 2.7497-16.92999 3.9801-29.25903 0.4558-58.765115 1.6792-87.870403-1.1986-5.941105-3.334-2.738955-11.54124-3.968198-16.92405-0.453371-29.26202-1.684029-58.77352 1.202567-87.88032 3.333596-5.94075 11.52021-2.69037 16.892703-4.01146 12.296067-0.42133 24.602002-0.45375 36.904196-0.49212zm152.855735 0c17.19355 0.44832 34.49779-0.65503 51.58875 1.76175 5.46502 5.38318 2.1825 13.95011 3.48522 20.64212 0.30601 28.01241 1.53115 56.26886-1.30684 84.12658-3.32378 5.9546-11.54496 2.7453-16.928 3.9761-29.25904 0.4558-58.76512 1.6792-87.8704-1.1986-5.94088-3.3343-2.73915-11.54118-3.96822-16.92405-0.45835-29.25622-1.67401-58.75578 1.19465-87.86048 3.31525-5.96723 11.52783-2.71042 16.90262-4.0313 12.29541-0.42134 24.60068-0.45375 36.90222-0.49212zm152.85572 0c17.2013 0.45298 34.51506-0.66367 51.61256 1.76969 5.41468 5.40339 2.20187 13.93687 3.46246 20.63221 0.30083 28.01544 1.53442 56.27728-1.30987 84.13645-3.33348 5.9431-11.54111 2.737-16.92403 3.9682-29.26202 0.4534-58.77352 1.6841-87.88033-1.2026-5.93062-3.3411-2.73141-11.53805-3.96028-16.92005-0.45834-29.25622-1.674-58.75578 1.19466-87.86048 3.31539-5.96708 11.52777-2.71053 16.90262-4.0313 12.2954-0.42134 24.60068-0.45375 36.90221-0.49212z" id="path5737"/>
  </g>
</svg>
