<svg xmlns:dc="http://purl.org/dc/elements/1.1/" xmlns:cc="http://creativecommons.org/ns#" xmlns:rdf="http://www.w3.org/1999/02/22-rdf-syntax-ns#" xmlns:svg="http://www.w3.org/2000/svg" xmlns="http://www.w3.org/2000/svg" xmlns:sodipodi="http://sodipodi.sourceforge.net/DTD/sodipodi-0.dtd" width="500" height="500" viewBox="0 0 500.00001 500.00001" id="svg2" version="1.1" sodipodi:docname="layers.svg">
  <defs id="defs4"/>
  <sodipodi:namedview id="base" pagecolor="#ffffff" bordercolor="#666666" borderopacity="1.0" showgrid="false" units="px"/>
  <metadata id="metadata7">
    <rdf:RDF>
      <cc:Work rdf:about="">
        <dc:format>


          image/svg+xml


        </dc:format>
        <dc:type rdf:resource="http://purl.org/dc/dcmitype/StillImage"/>
      </cc:Work>
    </rdf:RDF>
  </metadata>
  <path d="M249.31931 0.2729147C233.62316 1.7758889 222.62226 14.513416 208.94096 20.9496 141.06479 62.757635 71.994899 102.68273 5.2643896 146.25265c-9.7979734 10.4033-4.5687011 29.56561 8.8007004 34.17351 12.602371 8.04566 25.427072 15.73406 38.196241 23.51001-16.393583 11.43727-35.696112 19.05582-49.56621 33.6899-6.4186198 11.00458-0.4334501 26.5756 11.481305 30.82486 13.579059 8.62581 27.394945 16.86772 41.047931 25.3742-17.515721 12.14489-38.521119 19.88761-52.9052744 36.02095-6.298844 11.38127 1.0109666 26.14004 12.5755334 30.6441 62.424935 38.1462 125.003964 76.09764 187.530074 114.11259 14.53681 8.27858 28.63502 17.84148 43.71502 24.95088 13.17393 1.68464 23.14993-9.20439 34.04692-14.67699 71.58125-43.33778 143.60086-86.05625 214.19758-130.91883 9.49113-9.60539 6.1847-27.54433-6.03996-33.12787-14.11946-9.67282-29.30676-17.94933-43.88457-27.02845 17.36604-12.04925 38.15336-19.76376 52.72217-35.43031 6.27533-10.83718 0.37459-25.88574-10.94786-30.63812-12.64571-8.24391-25.75341-15.67813-38.57306-23.67878 16.79008-12.01353 37.65856-19.10426 50.58013-35.74531 5.2897-11.22863-1.9905-25.21401-13.31213-29.17048C409.86254 93.382686 335.28425 46.732857 259.27743 2.5823033 256.12865 1.280434 252.75771 0.223126 249.31931 0.2729147Zm1.3053 46.8571573C313.33913 83.835209 375.0049 122.29506 437.20075 159.84319 375.19279 198.23022 312.75686 235.91566 250.34307 273.64308 187.19385 236.49004 124.96041 197.82053 62.217492 159.98888 124.84434 122.4421 186.8425 83.87445 249.5969 46.525654l0.86889 0.511014 0.15882 0.0934zM94.629652 229.7017c50.223898 29.67123 99.077888 61.87355 150.303188 89.69799 13.64279 3.57416 24.52116-8.33034 35.65343-13.9659 42.07059-25.25662 83.75029-51.16086 125.90533-76.27153 10.24124 6.00256 20.31329 12.28529 30.33114 18.65229C374.95355 286.39178 312.5991 324.1862 249.98869 361.54947 187.08463 324.52193 125.12805 285.92699 62.794348 247.95237 72.965778 241.50478 83.1967 235.14981 93.601944 229.08547l0.864516 0.51838 0.163192 0.0979zm2.787804 89.69405c49.442164 29.10198 97.453674 60.74038 147.690604 88.3533 12.94756 2.70685 23.3524-7.87321 33.97413-13.36043 41.48097-25.20828 82.86065-50.57982 124.46803-75.58351 11.31406 6.87422 22.63641 13.72784 33.89073 20.69984-62.4284 37.67462-124.3127 76.28654-187.15694 113.28604-63.24792-36.623-125.22726-75.38783-187.72198-113.27422 11.224656-6.99285 22.435195-14.01125 33.823781-20.73528l0.866115 0.5157 0.16553 0.0986z" id="path32000"/>
</svg>
