<svg xmlns="http://www.w3.org/2000/svg" viewBox="0 0 500 500.00001">
  <path d="M358.943 28.602c-.308 0-.604.036-.89.09-49.585.04-99.173.093-148.752-.014-27.726-.028-55.458.073-83.177.85-4.752-1.02-10.44 1.406-11.453 6.533-.466 103.07-.642 206.202.078 309.294-1.238 5.19 3.24 9.595 8.193 9.9 125.59 1.67 251.22.428 376.824.828-.053-62.194.004-124.385.004-186.578 0-.025.006-.048.006-.072v-33.245c.01-1.015-.075-1.874-.633-2.63 0 0-100.55-100.47-103.735-103.526-1.173-1.203-1.968-1.41-3.215-1.427zm-3.77 41.04V170.24c0 .766.377 1.455.98 1.98.525.604 1.214.98 1.98.98H459.01c.024 47.2-.018 94.397-.512 141.595-100.834.884-201.672.388-302.508.517l.46-245.412c66.24-.125 132.482-.207 198.724-.257zM43.257 143.856l-.002.002c-14.417.007-28.836.03-43.254.063v58.435h41.19l.035-17.316 56.084-.954.752-40.133c-3.85-.03-7.7-.064-11.55-.074-14.418-.023-28.838-.03-43.256-.024zM0 244.303v42.052h41.035l.078-42.052zm0 84v44.052h40.873l.084-44.052zm368.836 44.135c-.838 0-1.653.014-2.428.033-6.942.5-16.216-1.82-20.775 5.065-1.568 29.864-1.863 61.374-1.863 93.342 8.107-.063 16.214-.11 24.322-.19 5.462-.335 13.185 1.324 16.04-4.896 2.22-19.764 1.22-39.8 1.23-59.675-.867-8.903 1.344-18.107-1.346-26.87-2.324-5.975-9.316-6.798-15.18-6.807zM0 414.303v57.002c18.607-.046 37.215-.058 55.822-.06v-41.15c-5.02-.043-10.038-.074-15.056-.128l.03-15.664zm309.822 15.828c-11.35-.004-30.702.006-42.052.024v41.1c11.35-.03 30.7-.065 42.052-.117zm-84 .118c-14.017.04-28.035.077-42.052.11v40.953c14.017.008 28.035.022 42.052.012zm-128.052.104v40.906c14.684.01 29.368.02 44.052.035V430.42c-14.684.005-29.368-.018-44.052-.068z"/>
</svg>
