<svg xmlns="http://www.w3.org/2000/svg" width="500" height="500" viewBox="0 0 500 500.00001"><path d="M208.508 0a61.44 61.44 0 0 0-61.44 61.44 61.44 61.44 0 0 0 61.44 61.443 61.44 61.44 0 0 0 61.44-61.442A61.44 61.44 0 0 0 208.51 0zM0 39.44v44h120.602a92.16 92.16 0 0 1-2.762-22 92.16 92.16 0 0 1 2.78-22H0zm299.398 0a92.16 92.16 0 0 1 2.762 22 92.16 92.16 0 0 1-2.78 22H500v-44H299.398zM390 188.56A61.44 61.44 0 0 0 328.56 250 61.44 61.44 0 0 0 390 311.44 61.44 61.44 0 0 0 451.44 250 61.44 61.44 0 0 0 390 188.56zM0 228v44h300.602a92.16 92.16 0 0 1-2.762-22 92.16 92.16 0 0 1 2.78-22H0zm479.398 0a92.16 92.16 0 0 1 2.762 22 92.16 92.16 0 0 1-2.78 22H500v-44h-20.602zM126 377.117a61.44 61.44 0 0 0-61.44 61.442A61.44 61.44 0 0 0 126 500a61.44 61.44 0 0 0 61.44-61.44A61.44 61.44 0 0 0 126 377.116zM0 416.56v44h36.602a92.16 92.16 0 0 1-2.762-22 92.16 92.16 0 0 1 2.78-22H0zm215.398 0a92.16 92.16 0 0 1 2.762 22 92.16 92.16 0 0 1-2.78 22H500v-44H215.398z"/></svg>