<?xml version="1.0" encoding="UTF-8" standalone="no"?>
<svg
   xmlns:dc="http://purl.org/dc/elements/1.1/"
   xmlns:cc="http://creativecommons.org/ns#"
   xmlns:rdf="http://www.w3.org/1999/02/22-rdf-syntax-ns#"
   xmlns:svg="http://www.w3.org/2000/svg"
   xmlns="http://www.w3.org/2000/svg"
   xmlns:sodipodi="http://sodipodi.sourceforge.net/DTD/sodipodi-0.dtd"
   xmlns:inkscape="http://www.inkscape.org/namespaces/inkscape"
   height="499.17151"
   id="Layer_1"
   version="1.2"
   viewBox="0 0 500 499.17151"
   width="500"
   xml:space="preserve"
   sodipodi:docname="pin.svg"
   inkscape:version="0.91 r13725"><metadata
     id="metadata9"><rdf:RDF><cc:Work
         rdf:about=""><dc:format>
          image/svg+xml
        </dc:format><dc:type
           rdf:resource="http://purl.org/dc/dcmitype/StillImage" /><dc:title></dc:title></cc:Work></rdf:RDF></metadata><defs
     id="defs7" /><sodipodi:namedview
     pagecolor="#ffffff"
     bordercolor="#666666"
     borderopacity="1"
     objecttolerance="10"
     gridtolerance="10"
     guidetolerance="10"
     id="namedview5"
     showgrid="false"
     borderlayer="true"
     fit-margin-top="0"
     fit-margin-left="0"
     fit-margin-right="0"
     fit-margin-bottom="0"
     inkscape:zoom="0.295"
     inkscape:cx="-527.11864"
     inkscape:cy="399.3372"
     inkscape:window-width="1920"
     inkscape:window-height="1056"
     inkscape:window-x="0"
     inkscape:window-y="24"
     inkscape:window-maximized="1"
     inkscape:current-layer="Layer_1" /><path
     d="m 325.31837,0.01188188 c -21.82819,-0.28305 -42.13868,15.33951012 -48.74148,35.79822012 -15.49713,31.78792 -36.61941,62.65613 -67.73679,80.851258 -46.01922,26.24621 -99.73104,35.5894 -152.187741,35.6499 -11.824304,-0.0272 -24.336736,1.56253 -34.001282,9.06349 C 4.6323372,173.86279 -4.8678964,198.33387 2.5189597,219.4091 6.670185,233.26068 17.358129,243.53542 27.71658,252.99227 58.217203,283.49249 83.717838,308.99269 114.21845,339.49292 84.486994,381.13603 30.991674,456.54267 1.2601344,498.18573 42.882791,468.45944 118.27039,414.97126 159.89226,385.24386 c 37.5422,36.61978 68.37301,70.02528 106.95586,105.55993 23.19531,15.98678 59.37703,8.33532 73.03488,-16.7224 7.60083,-12.73438 8.22477,-27.80576 7.50043,-42.231 1.3658,-50.12185 11.25009,-101.40472 37.67469,-144.66975 20.65799,-31.71465 53.5884,-52.97887 87.63506,-68.02402 20.97205,-10.42669 31.76052,-36.4126 25.5708,-58.77079 -2.66468,-11.11709 -9.64082,-20.30951 -17.89795,-27.87169 C 443.11547,95.918772 407.16559,58.018842 369.66538,21.674292 362.43928,15.080752 355.94776,6.9073419 346.39846,3.7696819 339.71622,1.1259319 332.50022,-0.13771812 325.31837,0.01188188 Z M 325.05664,36.848942 c 45.35182,46.8209 90.70532,93.640158 136.05715,140.461058 -40.43648,18.14924 -79.90691,42.18192 -106.30326,78.61287 -30.21683,43.44098 -43.97918,96.17766 -48.76543,148.34587 -1.85239,21.5434 -2.09664,43.25727 -1.72591,64.93459 C 212.77403,377.68259 121.23135,286.15937 29.686206,194.63862 c 60.078157,2.46294 121.695714,-4.11531 176.978884,-28.96583 38.7738,-15.76182 70.43783,-46.03212 91.71264,-81.660978 9.63775,-15.52096 17.81297,-31.90336 25.3614,-48.52336 z"
     id="path3"
     sodipodi:nodetypes="cccccccccccccccccccccccccccccc"
     inkscape:connector-curvature="0" /></svg>