<svg xmlns="http://www.w3.org/2000/svg" width="500" height="500" viewBox="0 0 500 500"><path d="M254.832 499.517c-2.658.644-7.006.644-9.664 0-5.773-1.4-13.147-8.265-14.846-13.82-.64-2.095-1.136-50.682-1.102-107.97.034-57.29-.562-104.788-1.325-105.55-.763-.765-48.248-1.36-105.522-1.326-57.275.035-105.85-.46-107.944-1.102-2.096-.64-5.798-3.157-8.228-5.59-8.27-8.286-8.27-19.9 0-28.185 2.43-2.433 6.132-4.95 8.227-5.59 2.094-.642 50.668-1.138 107.943-1.103 57.274.034 104.76-.562 105.522-1.326.763-.763 1.36-48.26 1.325-105.55-.035-57.29.462-105.876 1.102-107.972.64-2.095 3.157-5.798 5.59-8.228 8.283-8.272 19.894-8.272 28.176 0 2.433 2.43 4.95 6.133 5.59 8.228.64 2.096 1.137 50.683 1.102 107.972-.034 57.29.562 104.787 1.325 105.55.763.764 48.248 1.36 105.523 1.326 57.274-.035 105.848.46 107.943 1.102 2.096.64 5.798 3.157 8.228 5.59 8.27 8.286 8.27 19.9 0 28.185-2.432 2.432-6.132 4.95-8.227 5.59-2.094.642-50.668 1.138-107.942 1.104-57.275-.034-104.76.562-105.523 1.326-.763.763-1.36 48.26-1.325 105.55.035 57.29-.462 105.876-1.102 107.972-1.7 5.554-9.073 12.42-14.846 13.82z"/></svg>