<?xml version="1.0" encoding="UTF-8" standalone="no"?>
<svg
   xmlns:dc="http://purl.org/dc/elements/1.1/"
   xmlns:cc="http://creativecommons.org/ns#"
   xmlns:rdf="http://www.w3.org/1999/02/22-rdf-syntax-ns#"
   xmlns:svg="http://www.w3.org/2000/svg"
   xmlns="http://www.w3.org/2000/svg"
   xmlns:sodipodi="http://sodipodi.sourceforge.net/DTD/sodipodi-0.dtd"
   xmlns:inkscape="http://www.inkscape.org/namespaces/inkscape"
   width="500"
   height="500"
   viewBox="0 0 500.00001 500.00001"
   id="svg2"
   version="1.1"
   sodipodi:docname="puzzle-plus.svg"
   inkscape:version="0.91 r13725">
  <defs
     id="defs4" />
  <sodipodi:namedview
     id="base"
     pagecolor="#ffffff"
     bordercolor="#666666"
     borderopacity="1.0"
     showgrid="false"
     units="px"
     inkscape:zoom="0.472"
     inkscape:cx="111.8112"
     inkscape:cy="-8.6389782"
     inkscape:window-width="1920"
     inkscape:window-height="1056"
     inkscape:window-x="0"
     inkscape:window-y="24"
     inkscape:window-maximized="1"
     inkscape:current-layer="svg2" />
  <metadata
     id="metadata7">
    <rdf:RDF>
      <cc:Work
         rdf:about="">
        <dc:format>


          image/svg+xml


        </dc:format>
        <dc:type
           rdf:resource="http://purl.org/dc/dcmitype/StillImage" />
        <dc:title></dc:title>
      </cc:Work>
    </rdf:RDF>
  </metadata>
  <path
     d="M 316.16211 0 C 315.11216 -0.0060704812 314.05776 0.018105234 313 0.072265625 C 281.35422 0.14803563 251.88674 27.343934 250.75195 59.460938 C 249.3499 80.499212 260.04789 99.045485 268.81641 117.28906 C 270.35021 120.96958 271.46339 124.80986 272.26562 128.71289 C 231.4101 130.62187 190.21663 127.68757 149.61719 131.67383 C 135.829 135.62827 128.66397 151.14707 130.3457 164.62695 C 128.91306 200.70992 129.92 236.9652 128.76367 273.10742 C 105.68596 268.65046 87.217698 249.04712 62.734375 250.68164 C 29.439996 251.15484 -0.8524493 281.11172 0.15625 314.84766 C 0.0318565 343.88387 21.720097 371.74569 50.667969 377.13086 C 68.85685 381.31379 87.811281 376.26077 103.46094 366.73242 C 111.42719 362.67 119.59551 358.72009 128.4375 356.99414 C 130.73833 397.75494 127.47991 438.88651 131.91797 479.36523 C 133.44892 485.78561 136.35121 492.50616 143.12305 494.75586 C 158.95691 502.85551 177.24848 498.27397 194.24219 499.71289 C 206.06558 499.7034 217.88854 499.71483 229.71289 499.73633 L 229.71289 462.08594 C 209.69057 462.02077 189.67032 461.94881 169.6582 461.88086 C 165.37254 460.0907 168.77348 454.52497 167.55664 451.16797 C 166.39637 414.71423 168.3709 378.12435 166.14453 341.75781 C 162.66944 326.2466 146.0359 316.50405 130.80078 318.89258 C 108.19475 319.75867 88.799757 333.62714 67.837891 340.81836 C 51.430478 343.77945 34.550179 327.87176 38.011719 311.16992 C 40.376217 294.75824 60.824194 282.33248 75.712891 291.60156 C 96.964501 302.02786 120.27281 315.18181 144.83398 309.87305 C 157.5416 306.77725 167.43961 294.44286 166.16602 281.13281 C 167.69228 243.41221 166.46307 205.51793 168.02344 167.74414 C 209.24939 166.07753 250.84193 169.10432 291.76367 164.75 C 303.6793 161.37122 310.59681 149.03423 310.29102 137.13086 C 311.78338 114.53144 299.36728 93.704918 289.89844 73.847656 C 284.51369 59.872612 292.77438 41.695928 308.06445 38.847656 C 310.45727 38.196487 312.92724 37.798061 315.41016 37.789062 C 333.87045 38.168087 347.87145 61.979365 336.78516 77.597656 C 325.85753 99.016303 313.29855 123.28646 320.06641 147.71094 C 324.76289 160.95883 339.63791 168.28043 353.16992 166.40234 C 389.15139 167.55611 425.16341 166.73641 461.14453 167.91602 C 461.77538 190.54628 462.00421 213.18577 461.97266 235.82422 L 499.63086 235.82422 C 499.89288 208.66027 500.19695 181.49662 499 154.38867 C 496.60284 141.4405 485.06703 129.93937 471.44531 130.87695 C 438.99744 128.38196 406.38875 130.25165 373.86133 129.20898 C 367.97757 129.27648 362.05817 129.20748 356.25586 128.11523 C 361.23588 104.98096 380.50175 85.815659 378.35156 61.261719 C 377.13307 28.915868 348.7104 0.18818492 316.16211 0 z M 358.71484 215.04297 C 358.16878 215.01912 357.61839 215.02056 357.06641 215.04688 C 343.7825 215.26146 334.25122 229.94079 337.11914 242.40039 C 336.61528 273.42752 337.15824 304.46289 336.50195 335.48828 C 300.56983 336.86658 264.2402 333.75712 228.44922 337.6543 C 213.74634 343.53398 211.84079 367.88318 226.82031 374.61328 C 238.55373 380.27696 251.84346 376.06142 264.25195 377.61328 C 288.35665 377.74907 312.46505 377.50401 336.56641 378.02539 C 337.93371 413.94911 334.86287 450.28126 338.70703 486.07422 C 344.59866 500.91979 369.19148 502.61975 375.82422 487.5 C 381.33328 476.18564 377.00424 463.32176 378.67969 451.375 C 378.83431 426.90448 378.56917 402.43017 379.0957 377.96289 C 415.02913 376.58144 451.36004 379.69307 487.15234 375.79688 C 501.85238 369.91499 503.76141 345.56872 488.78125 338.83789 C 477.04783 333.17421 463.7581 337.38975 451.34961 335.83789 C 427.24884 335.69787 403.14435 335.94392 379.04688 335.42578 C 377.93732 299.89521 380.16101 264.21955 377.38086 228.77539 C 374.31173 221.27346 366.90583 215.40072 358.71484 215.04297 z "
     id="path20322" />
</svg>
