<svg xmlns:dc="http://purl.org/dc/elements/1.1/" xmlns:cc="http://creativecommons.org/ns#" xmlns:rdf="http://www.w3.org/1999/02/22-rdf-syntax-ns#" xmlns:svg="http://www.w3.org/2000/svg" xmlns="http://www.w3.org/2000/svg" xmlns:sodipodi="http://sodipodi.sourceforge.net/DTD/sodipodi-0.dtd" width="500" height="500" viewBox="0 0 500.00001 500.00001" id="svg2" version="1.1" sodipodi:docname="search.svg">
  <defs id="defs4"/>
  <sodipodi:namedview id="base" pagecolor="#ffffff" bordercolor="#666666" borderopacity="1.0" showgrid="false" units="px"/>
  <metadata id="metadata7">
    <rdf:RDF>
      <cc:Work rdf:about="">
        <dc:format>
          image/svg+xml
        </dc:format>
        <dc:type rdf:resource="http://purl.org/dc/dcmitype/StillImage"/>
      </cc:Work>
    </rdf:RDF>
  </metadata>
  <g id="layer1" transform="translate(0,-552.36216)">
    <path d="M200.29725 552.38324C144.6653 551.99051 89.88011 577.18168 52.876636 618.57942 16.313752 657.43131-2.705195 711.35963 0.18295332 764.26078 1.9985904 822.58459 31.889632 878.83447 77.90587 914.59958c39.98578 31.74014 92.60748 47.06342 143.31425 41.9013 38.84333-2.62505 75.51155-19.16456 106.85305-41.76435 7.17231-1.53934 9.72142 7.50384 14.78811 10.58845 42.04255 41.3293 82.67492 84.17352 126.05517 124.09232 12.00732 7.9439 30.51663-1.1479 31.07467-15.7527 1.43434-13.0422-11.15438-20.6025-18.48934-29.2229-39.70031-41.19026-80.70036-81.09772-120.92692-121.76625 26.62166-35.23184 44.29966-78.16846 44.25714-122.56405 1.14919-33.55943-5.92357-67.44724-21.63713-97.18325-30.42135-59.87878-92.12109-103.59639-159.38669-109.59423-7.81133-0.75294-15.66453-1.05874-23.51093-0.95068zm6.23995 42.08785c60.28585 0.0563 117.641 38.95656 142.07743 93.73252 18.00411 38.76462 19.29632 84.99092 3.70183 124.75478-20.95175 53.68824-72.14922 94.79843-129.72385 101.23843-24.87708 2.80107-50.52648 0.98127-74.01503-8.14937C87.422868 885.2355 42.779742 823.9258 42.129407 759.28178 39.924956 708.78753 64.304902 658.55536 104.23533 627.86914c28.30796-22.10779 64.22378-34.81492 100.28539-33.38614 0.67217 0.00003 1.34431-0.012 2.01648-0.0119z" id="path20146"/>
  </g>
</svg>
