<svg xmlns:dc="http://purl.org/dc/elements/1.1/" xmlns:cc="http://creativecommons.org/ns#" xmlns:rdf="http://www.w3.org/1999/02/22-rdf-syntax-ns#" xmlns:svg="http://www.w3.org/2000/svg" xmlns="http://www.w3.org/2000/svg" xmlns:sodipodi="http://sodipodi.sourceforge.net/DTD/sodipodi-0.dtd" width="500" height="500" viewBox="0 0 500.00001 500.00001" id="svg2" version="1.1" sodipodi:docname="tree.svg">
  <defs id="defs4"/>
  <sodipodi:namedview id="base" pagecolor="#ffffff" bordercolor="#666666" borderopacity="1.0" showgrid="false" units="px"/>
  <metadata id="metadata7">
    <rdf:RDF>
      <cc:Work rdf:about="">
        <dc:format>


          image/svg+xml


        </dc:format>
        <dc:type rdf:resource="http://purl.org/dc/dcmitype/StillImage"/>
      </cc:Work>
    </rdf:RDF>
  </metadata>
  <path id="path26948" d="M29.46926 452.35886C23.35178 450.88074 14.4953 445.65728 10.18832 440.98472 7.99028 438.60033 4.79943 433.70925 3.0964 430.11453L0 423.57862 0 390.80005 0 358.02147 3.03589 351.615c6.94437-14.6546 17.86818-21.999 34.63504-23.28719l8.31705-0.63822 0.49016-31.80005 0.49015-31.80031 3.0964-6.5359c4.30928-9.09569 9.8567-14.76234 18.76092-19.16377l7.39291-3.6542 78.81838-0.49016 78.81838-0.49015 0-30.82179 0-30.82153-8.58868-0.65609c-15.76026-1.19986-27.03943-8.61549-33.74484-22.18256l-3.65421-7.39418 0-32.88018 0-32.879921 3.65421-7.39419c4.40118-8.90524 10.06731-14.45241 19.16402-18.76194l6.53565-3.0964 32.77857 0 32.77883 0 6.53565 3.0964c9.0967 4.30953 14.76258 9.8567 19.16402 18.76194l3.6542 7.39419 0 32.879921 0 32.88018-3.6542 7.39418c-6.70542 13.56707-17.98459 20.98168-33.74484 22.18256l-8.58894 0.65609 0 30.82153 0 30.82179 78.81864 0.49015 78.81863 0.49016 7.39266 3.6542c8.90421 4.40143 14.4519 10.06808 18.76092 19.16377l3.09639 6.5359 0.49016 31.80031 0.49015 31.80005 8.72118 0.66375c15.89173 1.21007 27.51069 9.07577 34.17015 23.13274l3.0964 6.53565 0 32.77883 0 32.77857-3.0964 6.53565c-4.30953 9.09671-9.8567 14.76259-18.76194 19.16402l-7.39418 3.65421-32.87993 0-32.88018 0-7.39393-3.65421c-8.90549-4.40143-14.45266-10.06731-18.76219-19.16402l-3.0964-6.53565 0-32.77857 0-32.77883 3.0964-6.53565c6.65946-14.05697 18.27842-21.92267 34.17015-23.13274l8.72143-0.66375 0.2604-27.39709c0.28081-29.47667-0.0255-31.84421-4.50355-33.68459-1.83298-0.75566-24.68388-0.99818-76.97035-0.81693l-74.36359 0.25529 0 30.82153 0 30.82179 8.5629 0.58716c15.73626 1.07732 27.66258 9.14011 34.32869 23.21112l3.09639 6.53565 0 32.28944c0 29.56653-0.15317 32.7219-1.9019 37.41564-3.78772 10.20976-13.09478 19.51683-23.30455 23.30455-4.69399 1.74107-7.84911 1.9019-37.41564 1.9019l-32.28944 0-6.53565-3.0964c-9.0967-4.30953-14.76258-9.8567-19.16402-18.7622l-3.6542-7.39393 0-32.88017 0-32.87993 3.6542-7.39418c6.71001-13.57677 18.31059-21.19178 33.91053-22.26017l8.42325-0.57695 0-30.82179 0-30.82152-74.36359-0.25529c-52.28672-0.17871-75.13737 0.0511-76.97034 0.81692-4.46807 1.84063-4.78463 4.20793-4.50355 33.68434l0.26039 27.39708 8.58894 0.6561c15.75949 1.19985 27.03891 8.61523 33.74458 22.18204l3.65446 7.39291 0 32.8304 0 32.83014-3.09639 6.53591c-4.30826 9.09364-9.85696 14.76233-18.75863 19.16402l-7.39035 3.6542-30.87616 0.1787c-16.98182 0.10212-32.58532-0.22976-34.67461-0.74544zm61.11411-33.10789 2.86025-2.86026 0-24.98001c0-16.22361-0.38038-25.81608-1.08753-27.36441-1.90701-4.18418-4.38101-4.55716-30.22466-4.55716-25.8434 0-28.31817 0.37272-30.22441 4.55716-1.49089 3.27153-1.48834 50.24314 0.004 53.51568 0.59993 1.31474 2.02955 2.84801 3.17988 3.40454 1.26113 0.61014 12.09788 1.03902 27.36083 1.07732l25.27079 0.0511 2.86-2.86025zm186.16886 1.77425c4.18392-1.907 4.5569-4.38101 4.5569-30.22466 0-15.77583-0.38293-25.21028-1.08753-26.75376-1.90701-4.18393-4.38101-4.55716-30.22441-4.55716-25.84365 0-28.31842 0.37272-30.22466 4.55716-1.49089 3.27153-1.48834 50.24339 0.004 53.51594 0.59993 1.31474 2.02955 2.84775 3.17988 3.40453 2.94859 1.42707 50.67585 1.47812 53.79497 0.0511zm187.86551 0c4.18392-1.907 4.5569-4.38101 4.5569-30.22466 0-15.77583-0.38293-25.21028-1.08753-26.75376-1.90701-4.18393-4.38076-4.55716-30.22441-4.55716-25.8434 0-28.31817 0.37272-30.22466 4.55716-1.49089 3.27153-1.48834 50.24339 0.004 53.51594 0.59993 1.31474 2.02955 2.84775 3.18013 3.40453 2.94859 1.42707 50.6756 1.47812 53.79472 0.0511zM276.75223 139.2267c4.18392-1.907 4.5569-4.38101 4.5569-30.22466 0-25.843401-0.37272-28.318171-4.5569-30.224411-3.26489-1.48833-50.24289-1.48833-53.50777 0-4.18393 1.90701-4.55717 4.38101-4.55717 30.224411 0 25.47578 0.39826 28.29213 4.27022 30.16671 2.94859 1.42707 50.6756 1.47812 53.79472 0.0511z"/>
</svg>
