<?xml version="1.0" encoding="UTF-8" standalone="no"?>
<svg
   xmlns:dc="http://purl.org/dc/elements/1.1/"
   xmlns:cc="http://creativecommons.org/ns#"
   xmlns:rdf="http://www.w3.org/1999/02/22-rdf-syntax-ns#"
   xmlns:svg="http://www.w3.org/2000/svg"
   xmlns="http://www.w3.org/2000/svg"
   xmlns:xlink="http://www.w3.org/1999/xlink"
   xmlns:sodipodi="http://sodipodi.sourceforge.net/DTD/sodipodi-0.dtd"
   xmlns:inkscape="http://www.inkscape.org/namespaces/inkscape"
   width="500"
   height="500"
   viewBox="0 0 500.00001 500.00001"
   id="svg2"
   version="1.1"
   sodipodi:docname="undo-history.svg"
   inkscape:version="0.91 r13725">
  <defs
     id="defs4" />
  <sodipodi:namedview
     id="base"
     pagecolor="#ffffff"
     bordercolor="#666666"
     borderopacity="1.0"
     showgrid="false"
     units="px"
     inkscape:zoom="0.472"
     inkscape:cx="495.32285"
     inkscape:cy="103.78898"
     inkscape:window-width="1920"
     inkscape:window-height="1056"
     inkscape:window-x="0"
     inkscape:window-y="24"
     inkscape:window-maximized="1"
     inkscape:current-layer="svg2" />
  <metadata
     id="metadata7">
    <rdf:RDF>
      <cc:Work
         rdf:about="">
        <dc:format>


          image/svg+xml


        </dc:format>
        <dc:type
           rdf:resource="http://purl.org/dc/dcmitype/StillImage" />
        <dc:title></dc:title>
      </cc:Work>
    </rdf:RDF>
  </metadata>
  <use
     id="use32130"
     xlink:href="#symbol16714"
     transform="matrix(0.48875855,0,0,0.48875855,266.5973,18.208584)"
     x="0"
     y="0"
     width="100%"
     height="100%" />
  <path
     style="fill:#080808"
     d="M 267.39334,23.47883 C 179.21189,24.426022 94.972542,83.196693 63.245311,165.42677 c -5.38952,13.26534 -9.621236,26.9968 -12.712528,40.97587 -14.832537,1.07771 -31.187212,-2.46694 -45.3793925,3.70545 -7.5843566,5.31408 -6.2724707,17.12511 0.5170074,22.53749 18.7219061,23.62651 37.0582111,47.81538 58.2340701,69.27646 9.941639,5.90324 22.775871,-0.81447 27.465256,-10.44474 17.489456,-22.46141 36.882796,-43.90354 51.209786,-68.52988 1.85478,-10.2359 -9.62585,-17.80831 -18.92316,-16.11428 -7.37693,-0.53472 -14.79006,0.50816 -22.15356,-0.32556 16.96022,-71.21851 83.18505,-127.702927 156.31599,-133.256449 61.47295,-5.761596 125.65057,23.54236 160.77325,74.891759 34.63624,49.37004 42.32899,116.3027 17.73814,171.65925 -22.50989,52.99339 -72.07364,93.51416 -128.67294,104.13843 -53.84624,10.76041 -112.32691,-5.19052 -153.14002,-42.24017 -6.70682,-5.93223 -13.55932,-13.61545 -23.35553,-13.31873 -14.05564,-1.01192 -26.42207,12.11795 -25.29135,25.98587 0.0459,8.41284 5.86854,14.97518 11.95682,20.03385 62.63915,61.80807 163.48272,79.46722 243.89866,44.30232 64.72431,-27.21826 115.68214,-85.8197 131.71541,-154.41186 15.94106,-64.32832 2.5917,-135.65071 -37.51632,-188.70563 C 413.58899,58.191988 343.20189,21.591076 271.51857,23.475014 c -1.37514,-0.01046 -2.75011,-0.0091 -4.12523,0.0038 z m 4.99912,74.839841 c -14.59231,0.0353 -25.9249,15.446229 -22.92873,29.441299 -0.2673,43.31601 -1.85464,80.76348 0.57008,124.00574 0,16.02201 12.65581,22.4093 31.21584,22.4093 37.45141,0.10732 75.06555,1.90829 112.40957,-1.26313 16.2989,-4.74767 21.16944,-28.11911 9.3991,-39.84601 -6.2132,-7.35691 -16.49247,-8.59209 -25.47056,-7.43234 l -79.21897,-0.73416 c -0.81943,-37.01888 1.05224,-74.17626 -2.31448,-111.08916 -3.3684,-9.63341 -13.65641,-15.794029 -23.66185,-15.491539 z"
     id="path23444"
     inkscape:connector-curvature="0"
     sodipodi:nodetypes="cccccccccccccccccccccccccccccccccc" />
</svg>
