<?xml version="1.0" encoding="UTF-8" standalone="no"?>
<svg
   xmlns:dc="http://purl.org/dc/elements/1.1/"
   xmlns:cc="http://creativecommons.org/ns#"
   xmlns:rdf="http://www.w3.org/1999/02/22-rdf-syntax-ns#"
   xmlns:svg="http://www.w3.org/2000/svg"
   xmlns="http://www.w3.org/2000/svg"
   xmlns:xlink="http://www.w3.org/1999/xlink"
   xmlns:sodipodi="http://sodipodi.sourceforge.net/DTD/sodipodi-0.dtd"
   xmlns:inkscape="http://www.inkscape.org/namespaces/inkscape"
   width="500"
   height="500"
   viewBox="0 0 500.00001 500.00001"
   id="svg2"
   version="1.1"
   sodipodi:docname="unlock.svg"
   inkscape:version="0.91 r13725">
  <defs
     id="defs4" />
  <sodipodi:namedview
     id="base"
     pagecolor="#ffffff"
     bordercolor="#666666"
     borderopacity="1.0"
     showgrid="false"
     units="px"
     inkscape:zoom="1.3350176"
     inkscape:cx="241.94883"
     inkscape:cy="277.26996"
     inkscape:window-width="1920"
     inkscape:window-height="1056"
     inkscape:window-x="1920"
     inkscape:window-y="24"
     inkscape:window-maximized="1"
     inkscape:current-layer="svg2" />
  <metadata
     id="metadata7">
    <rdf:RDF>
      <cc:Work
         rdf:about="">
        <dc:format>


          image/svg+xml


        </dc:format>
        <dc:type
           rdf:resource="http://purl.org/dc/dcmitype/StillImage" />
      </cc:Work>
    </rdf:RDF>
  </metadata>
  <use
     id="use32130"
     xlink:href="#symbol16714"
     transform="matrix(0.48875855,0,0,0.48875855,266.5973,18.208584)"
     x="0"
     y="0"
     width="100%"
     height="100%" />
  <path
     d="m 249.02148,0.00195313 c -31.98741,0.029762 -33.06999,0.09423211 -45.36718,2.72070307 -13.01959,2.780767 -27.08478,7.5517408 -37.29102,12.6503908 -24.70445,12.341397 -46.95198,35.080795 -55.16992,56.390625 -6.21186,16.10787 -6.17357,15.719287 -6.83203,69.482418 l -0.60547,49.32227 -7.824219,3.94141 c -15.294597,7.7023 -27.396661,23.04352 -31.820313,40.33984 -1.859552,7.27077 -1.929687,11.22805 -1.929687,109.87305 0,100.34216 0.04026,102.47398 2.017578,109.60937 6.44316,23.25091 24.226309,40.4981 46.404301,45.00586 2.15208,0.43742 65.98111,0.72944 141.84179,0.64844 l 137.92969,-0.14649 6.59375,-2.5664 c 10.14139,-3.94553 16.97592,-8.51901 24.11719,-16.13867 7.55225,-8.05815 12.00747,-16.25545 14.77344,-27.1836 1.89703,-7.49515 1.95898,-10.93179 1.95898,-109.64844 0,-98.22631 -0.0704,-102.18332 -1.92969,-109.45312 -4.47217,-17.48603 -19.47318,-33.24179 -31.89258,-40.30078 -5.61714,-3.56886 -12.20499,-5.71876 -17.47656,-6.1211 -9.26907,-0.66208 -32.17578,-0.0664 -32.17578,-0.0664 l -0.0566,-0.084 -104.26758,0 -104.65234,0 -0.57227,-2.28125 c -0.31481,-1.25446 -0.42339,-21.83253 -0.24219,-45.73047 0.32586,-42.97586 0.35416,-43.515158 2.63868,-49.320308 8.81375,-22.39646 31.30164,-39.419551 61.66015,-46.675781 12.10516,-2.89335 60.05034,-3.704978 74.65039,-1.263672 26.84348,4.488549 49.6284,17.285698 61.76367,34.371094 4.15841,5.616741 14.90754,12.018908 25.82813,7.765625 12.58117,-7.863202 14.58271,-19.477615 8.58008,-30.121094 -3.498,-5.088429 -7.72279,-9.989639 -13.21879,-15.490224 C 350.85407,23.917227 334.78083,14.304414 312.11719,7.0332031 292.35371,0.69246012 285.84267,-0.03230688 249.02148,0.00195313 Z M 114.0957,227.40625 l 135.08985,0 c 134.2206,0 135.10951,0.0134 138.31445,1.99414 1.91419,1.18303 4.24806,4.04465 5.74023,7.03906 l 2.51368,5.04493 0,101.43164 0,101.42968 -2.70313,5.17578 c -2.02238,3.87128 -3.78753,5.7494 -7.00195,7.44922 l -4.29688,2.27344 -132.63867,-0.004 c -127.68782,-0.004 -132.74912,-0.0716 -135.57422,-1.82617 -4.08973,-2.54003 -6.98339,-5.88993 -8.75781,-10.13672 -1.33386,-3.19239 -1.51119,-15.64358 -1.49219,-104.65429 0.0241,-113.32621 -0.4919,-105.29742 7.19532,-112.04688 z m 136.69532,45.25586 c -11.15842,-0.30586 -22.57183,3.84903 -31.34961,13.33008 -6.38794,6.89975 -9.16193,12.49326 -10.72852,21.6289 -2.14792,12.52573 2.68663,26.14039 12.45313,35.06641 2.94613,2.6926 5.35742,5.59778 5.35742,6.45703 0,0.85922 -3.52201,15.62884 -7.82617,32.82031 -4.30415,17.19146 -7.82618,31.92651 -7.82618,32.7461 0,1.3099 4.72639,1.49023 39.07032,1.49023 21.48901,0 39.28773,-0.34781 39.55078,-0.77344 0.26306,-0.42565 -3.27101,-15.76123 -7.85157,-34.07812 l -8.32812,-33.30273 5.77344,-5.78516 c 9.7301,-9.75148 14.15407,-22.63864 11.97656,-34.88672 -3.78674,-21.29981 -21.67413,-34.20312 -40.27148,-34.71289 z"
     id="path4498"
     inkscape:connector-curvature="0"
     sodipodi:nodetypes="sssscccsssssccsssscccccccsssscccssscsscccccccssssccssssssssssccss" />
</svg>
