<svg width="298" height="465" viewBox="0 0 298 465" fill="none" xmlns="http://www.w3.org/2000/svg">
<path fill-rule="evenodd" clip-rule="evenodd" d="M256.587 294.103C256.624 294.558 256.641 294.799 256.641 294.799L256.444 294.813C256.496 294.581 256.544 294.344 256.587 294.103ZM255.605 285.129C253.657 270.317 248.493 242.558 236.319 231.397C229.105 224.78 221.428 220.177 214.544 216.049C202.283 208.698 192.541 202.856 192.425 189.839C192.314 176.709 196.697 169.435 201.311 161.776C203.84 157.579 206.438 153.267 208.405 147.812C217.62 122.245 205.79 106.194 203.559 103.482C203.586 103.509 203.614 103.536 203.643 103.565C206.173 106.026 218.488 118.011 217.662 145.916C216.68 179.047 255.008 194.386 266.953 166.971C266.953 166.971 248.455 177.745 245.747 139.008C245.222 131.544 245.695 124.94 246.12 118.997C247.123 104.972 247.863 94.6266 234.616 85.354C215.746 72.152 196.624 92.073 196.624 92.073C196.624 92.073 180.381 71.704 151.165 81.203C126.154 89.3363 126.199 104.009 126.238 116.477C126.254 121.758 126.269 126.643 124.379 130.468C122.561 134.147 120.822 136.77 119.349 138.992C115.675 144.535 113.661 147.573 116.229 158.237C119.456 171.655 128.083 179.877 136.638 187.358C153.606 195.534 162.345 213.98 158.514 230.171C153.3 252.251 137.279 261.251 127.187 266.746C136.47 264.969 147.656 264.187 158.108 263.456H158.109L158.255 263.446C215.831 259.42 222.788 279.034 224.573 284.066L224.573 284.066C224.711 284.453 224.817 284.754 224.914 284.951C227.055 279.159 232.461 275.145 238.702 274.708C245.708 274.218 252.779 278.842 255.605 285.129Z" fill="url(#paint0_linear_601_4202)"/>
<path fill-rule="evenodd" clip-rule="evenodd" d="M131.323 464.729C131.127 463.084 129.891 451.412 132.559 437.38C134.945 424.827 141.839 413.304 161.356 404.98C180.873 396.656 195.882 363.029 173.358 358.712C154.835 355.159 149.696 342.551 147.601 324.493C147.207 321.105 147.442 317.921 147.66 314.984C148.343 305.771 148.846 298.975 129.174 295.853C113.578 293.376 103.43 290.381 106.714 278.243C108.364 272.143 116.52 268.788 127.187 266.746C137.279 261.251 153.3 252.251 158.514 230.171C163.665 208.398 146.084 182.546 116.329 183.078C86.5675 183.611 78.8435 199.872 78.8435 199.872C78.8435 199.872 82.7735 188.622 72.2955 181.942C60.8665 174.652 48.2425 181.794 48.2225 193.69C48.2088 202.742 53.6237 207.565 57.7249 209.92C55.8975 209.264 53.3869 208.454 49.9755 207.504C39.9805 204.719 30.4195 209.602 29.1285 220.575C27.8775 231.188 35.9835 237.322 43.8025 236.969C43.8025 236.969 35.5005 238.773 33.4105 247.147C32.0065 252.772 31.9305 260.639 42.2455 263.422C47.5356 264.849 53.9706 262.22 57.6474 260.325C55.3482 262.102 52.6141 265.469 53.0335 271.3C53.6985 280.533 62.3465 283.511 69.1345 280.684C74.3115 278.527 77.2745 272.759 77.2745 272.759C77.2745 272.759 81.6815 282.392 80.0605 288.947C79.0568 293.007 75.9264 295.337 72.0061 298.256C64.1612 304.096 53.1531 312.291 49.6925 341.414C47.2429 361.995 44.9642 379.281 43.0549 393.765C35.4425 451.512 33.7003 464.729 50.3965 464.729H131.323Z" fill="url(#paint1_linear_601_4202)"/>
<path d="M166.309 136.528C161.899 136.751 158.137 133.355 157.915 128.942C157.693 124.529 161.089 120.771 165.5 120.549C169.911 120.326 173.673 123.722 173.894 128.135C174.116 132.548 170.719 136.306 166.309 136.528Z" stroke="#151035" stroke-width="6"/>
<path d="M129.366 148.837C130.409 157.769 139.231 172.81 158.987 171.819C178.744 170.828 183.496 155.105 184.308 146.081" stroke="#151035" stroke-width="6"/>
<path d="M117.2 214.827C113.18 216.645 108.438 214.856 106.62 210.83C104.795 206.804 106.578 202.067 110.606 200.25C114.633 198.432 119.368 200.221 121.193 204.247C123.011 208.273 121.228 213.009 117.2 214.827Z" stroke="#151035" stroke-width="6"/>
<path d="M83.212 236.931C87.279 244.537 100.532 254.824 118.079 246.899C135.619 238.974 134.422 223.24 131.999 214.892" stroke="#151035" stroke-width="6"/>
<path d="M158.255 263.446C135.757 265.019 109.806 266.809 106.714 278.243C103.43 290.381 113.578 293.376 129.174 295.853C155.119 299.97 145.97 310.479 147.601 324.493C149.696 342.551 154.835 355.159 173.358 358.712C195.882 363.029 180.873 396.656 161.356 404.98C141.839 413.304 134.945 424.827 132.559 437.38C129.679 452.529 131.348 464.927 131.348 464.927C131.348 464.927 212.183 464.927 262.124 464.927C284.091 464.927 281.613 438.159 266.233 424.124C247.986 407.47 213.629 410.886 209.806 388.745C207.61 364.187 221.781 349.045 240.409 348.024C246.018 347.631 250.249 342.842 249.863 337.326C250.508 327.337 245.496 328.585 245.496 328.585C245.496 328.585 259.748 331.375 261.065 318.659C262.175 307.936 254.549 305.225 248.21 305.669C248.21 305.669 257.3 301.436 256.855 290.008C256.255 281.421 247.428 274.098 238.702 274.708C232.461 275.145 227.055 279.159 224.914 284.951C223.559 282.191 220.26 259.11 158.255 263.446Z" fill="url(#paint2_linear_601_4202)" fill-opacity="0.95"/>
<path d="M158.255 263.446C135.757 265.019 109.806 266.809 106.714 278.243C103.43 290.381 113.578 293.376 129.174 295.853C155.119 299.97 145.97 310.479 147.601 324.493C149.696 342.551 154.835 355.159 173.358 358.712C195.882 363.029 180.873 396.656 161.356 404.98C141.839 413.304 134.945 424.827 132.559 437.38C129.679 452.529 131.348 464.927 131.348 464.927C131.348 464.927 212.183 464.927 262.124 464.927C284.091 464.927 281.613 438.159 266.233 424.124C247.986 407.47 213.629 410.886 209.806 388.745C207.61 364.187 221.781 349.045 240.409 348.024C246.018 347.631 250.249 342.842 249.863 337.326C250.508 327.337 245.496 328.585 245.496 328.585C245.496 328.585 259.748 331.375 261.065 318.659C262.175 307.936 254.549 305.225 248.21 305.669C248.21 305.669 257.3 301.436 256.855 290.008C256.255 281.421 247.428 274.098 238.702 274.708C232.461 275.145 227.055 279.159 224.914 284.951C223.559 282.191 220.26 259.11 158.255 263.446Z" fill="url(#paint3_linear_601_4202)" fill-opacity="0.95"/>
<path d="M196.747 300.394C191.957 301.742 186.988 298.957 185.645 294.174C184.294 289.391 187.082 284.421 191.863 283.072C196.653 281.724 201.621 284.508 202.965 289.292C204.317 294.074 201.528 299.046 196.747 300.394Z" stroke="#151035" stroke-width="6"/>
<path d="M161.337 322.014C164.155 330.167 175.417 342.375 193.41 337.185C211.408 331.994 212.518 316.221 211.385 307.58" stroke="#151035" stroke-width="6"/>
<defs>
<linearGradient id="paint0_linear_601_4202" x1="266.953" y1="305.119" x2="298.574" y2="109.899" gradientUnits="userSpaceOnUse">
<stop stop-color="#00D1B8" stop-opacity="0.9"/>
<stop offset="1" stop-color="#25CBD9"/>
<stop offset="1" stop-color="#25CBD9"/>
</linearGradient>
<linearGradient id="paint1_linear_601_4202" x1="201.539" y1="464.729" x2="248.093" y2="220.818" gradientUnits="userSpaceOnUse">
<stop stop-color="white"/>
<stop offset="1" stop-color="white"/>
</linearGradient>
<linearGradient id="paint2_linear_601_4202" x1="106.096" y1="464.927" x2="305.549" y2="295.022" gradientUnits="userSpaceOnUse">
<stop stop-color="#FF8CF4" stop-opacity="0.9"/>
<stop offset="1" stop-color="#FFA9DE"/>
</linearGradient>
<linearGradient id="paint3_linear_601_4202" x1="106.096" y1="464.927" x2="305.549" y2="295.022" gradientUnits="userSpaceOnUse">
<stop stop-color="#FF8CF4" stop-opacity="0.9"/>
<stop offset="1" stop-color="#FFA9DE"/>
</linearGradient>
</defs>
</svg>
