<svg xmlns:xlink="http://www.w3.org/1999/xlink" width="48" xmlns="http://www.w3.org/2000/svg" height="48" id="screenshot-4c303e10-f7a4-11ec-a5eb-5b34f1b9a5f8" viewBox="0 0 48 48" style="-webkit-print-color-adjust: exact;" fill="none" version="1.1"><g id="shape-4c303e10-f7a4-11ec-a5eb-5b34f1b9a5f8" rx="0" ry="0"><g id="shape-4c303e11-f7a4-11ec-a5eb-5b34f1b9a5f8"><g id="fills-4c303e11-f7a4-11ec-a5eb-5b34f1b9a5f8"><rect rx="24" ry="24" x="0" y="0" transform="" width="48" height="48" style="fill: rgb(49, 239, 184); fill-opacity: 1;"/></g></g><g id="shape-fd4cc483-02bb-11ed-9a39-e16fc89e0613" rx="0" ry="0"><g id="shape-fd4cc484-02bb-11ed-9a39-e16fc89e0613"><g id="fills-fd4cc484-02bb-11ed-9a39-e16fc89e0613"><path rx="0" ry="0" d="M46,23.509699812659164C46,13.839405665317372,36.37388034188007,6,24.5,6C12.626119658119023,6,3,13.839405665317372,3,23.509699812659164C3,28.169402480873487,5.8043350427342375,34.21014187922765,12.347538461537624,37.128363452956364C10.478324786324265,42.964954748528726,6.739162393161678,44.91050987173867,6.739162393161678,44.91050987173867C16.08670085470112,48.80154604410063,23.565025641025386,41.01947369937625,23.565025641025386,41.01947369937625C38.521675213674825,41.01947369937625,46,32.158142335227694,46,23.509699812659164ZZ" style="fill: rgb(255, 255, 255);"/></g></g><g id="shape-fd4cc485-02bb-11ed-9a39-e16fc89e0613"><g id="fills-fd4cc485-02bb-11ed-9a39-e16fc89e0613"><path fill-rule="evenodd" clip-rule="evenodd" rx="0" ry="0" d="M16.410854700854543,35.29523734014356L15.495726495726558,38.15234631352496C14.940034188033678,39.8859746460289,14.238068376067531,41.348788366345616,13.489059829060352,42.57108374810332C14.859179487179063,42.38700981175589,16.1183076923071,41.95115828601456,17.234837606836663,41.41501053901948C18.48367521367436,40.81501098794752,19.504649572649214,40.108122627962985,20.211025641025117,39.55056748957804C20.56090598290575,39.274049177954566,20.825521367521105,39.04086416724158,20.99384615384588,38.88590132022409C21.077641025640332,38.80864211877133,21.13717948717931,38.75153105039135,21.170256410256115,38.71893848218497C21.18422222222216,38.70501256667876,21.19377777777754,38.69560516631009,21.198188034187297,38.69116072519091C21.198923076923165,38.69041998500461,21.199658119658125,38.68982739285548,21.199658119658125,38.689382948743514L22.16403418803384,37.68612444013661L23.565025641025386,37.68612444013661C37.124358974358984,37.68612444013661,42.69230769230671,29.912426552824854,42.69230769230671,23.50969060270245C42.69230769230671,16.30843673152458,35.24044444444371,9.333330839287555,24.5,9.333330839287555C13.75955555555447,9.333330839287555,6.307692307691468,16.30843673152458,6.307692307691468,23.50969060270245C6.307692307691468,26.957688022861475,8.4346119658112,31.73798074247452,13.686786324786226,34.08020121221398L16.410854700854543,35.29523734014356ZZM10.806888888888352,45.93982196830575C9.50586324786309,45.81619243117757,8.143608547008625,45.49508156032607,6.739162393161678,44.91048940513383C6.739162393161678,44.91048940513383,8.100755555555224,44.20204549075697,9.591128205127461,42.35760242635115C10.570940170940048,41.14552925916769,11.606615384614997,39.4428638664599,12.347538461537624,37.128347079695686C5.8043350427342375,34.210127040927546,3,28.16931674593343,3,23.50969060270245C3,13.839401541855068,12.626119658119023,6,24.5,6C36.37388034188007,6,46,13.839401541855068,46,23.50969060270245C46,32.15812857626224,38.521675213674825,41.019455279424164,23.565025641025386,41.019455279424164C23.565025641025386,41.019455279424164,18.165401709400612,46.63871033427631,10.806888888888352,45.93982196830575ZZ" style="fill: rgb(0, 0, 0);"/></g></g></g></g></svg>