<svg xmlns:xlink="http://www.w3.org/1999/xlink" width="48" xmlns="http://www.w3.org/2000/svg" height="48" id="screenshot-22974974-f7a4-11ec-a5eb-5b34f1b9a5f8" viewBox="0 0 48 48" style="-webkit-print-color-adjust: exact;" fill="none" version="1.1"><g id="shape-22974974-f7a4-11ec-a5eb-5b34f1b9a5f8" rx="0" ry="0"><g id="shape-22974978-f7a4-11ec-a5eb-5b34f1b9a5f8"><g id="fills-22974978-f7a4-11ec-a5eb-5b34f1b9a5f8"><rect rx="24" ry="24" x="0" y="0" transform="" width="48" height="48" style="fill: rgb(49, 239, 184); fill-opacity: 1;"/></g></g><g id="shape-fd4cc480-02bb-11ed-9a39-e16fc89e0613" rx="0" ry="0"><g id="shape-fd4cc481-02bb-11ed-9a39-e16fc89e0613"><g id="fills-fd4cc481-02bb-11ed-9a39-e16fc89e0613"><path rx="0" ry="0" d="M12.322918022224258,16.99483368241954C13.61232450629177,18.28497733749373,15.703848968210878,18.28497733749373,16.99325545227839,16.99483368241954C18.282661936344994,15.705423897456058,18.282661936344994,13.614627951320472,16.99325545227839,12.324484296246283L14.658820605483925,9.990043473270816L21.665060618795906,2.9836387498780823C22.309396926712907,2.3387870833739726,23.35515915767246,2.3387870833739726,24.000229333822062,2.9836387498780823L29.837417253156673,8.820988386505633C32.41696408952339,6.241434946467962,36.599279145128094,6.241434946467962,39.17809211326312,8.820988386505633C41.757638949629836,11.400541826542849,41.757638949629836,15.58213371881402,39.17809211326312,18.16168715885169L45.01674776906111,24.00035776167897C45.66108407697902,24.64469571910513,45.66108407697902,25.69046062722873,45.01674776906111,26.3355324547656L38.012709360446024,33.33885492369245L35.67900838188325,31.005147970827693C34.388868029584046,29.715004315753504,32.29807743589845,29.715004315753504,31.008670951830936,31.005147970827693C29.718530599531732,32.294557755791175,29.718530599531732,34.38535370192676,31.008670951830936,35.67549735700095L33.3423719303928,38.009204309865254L26.33539804884822,45.01619612934701C25.690327872698617,45.66126795688433,24.644565641739973,45.66126795688433,24.000229333822062,45.01619612934701L18.16157367802407,39.17825939663089C15.582026841657353,41.7570789665574,11.40044565428434,41.7570789665574,8.820898817917623,39.17825939663089C6.241939076136987,36.59870595659322,6.241939076136987,32.41711406432205,8.820898817917623,29.83756062428438L2.983637511759298,24.00035776167897C2.338787496079931,23.355285934142103,2.338787496079931,22.309521026018956,2.983637511759298,21.66518306859234L9.988483175430702,14.660392859444073L12.322918022224258,16.99483368241954ZZ" style="fill: rgb(255, 255, 255);"/></g></g><g id="shape-fd4cc482-02bb-11ed-9a39-e16fc89e0613"><g id="fills-fd4cc482-02bb-11ed-9a39-e16fc89e0613"><path fill-rule="evenodd" clip-rule="evenodd" rx="0" ry="0" d="M16.49325545227839,18.49483368241954C15.203848968210878,19.78497733749373,13.11232450629177,19.78497733749373,11.822918022224258,18.49483368241954L9.488483175430702,16.160392859444073L2.483637511759298,23.16518306859234C1.8387874960799309,23.809521026018956,1.8387874960799309,24.855285934142103,2.483637511759298,25.50035776167897L8.320898817917623,31.33756062428438C5.741939076136987,33.91711406432205,5.741939076136987,38.09870595659322,8.320898817917623,40.67825939663089C10.90044565428434,43.2570789665574,15.082026841657353,43.2570789665574,17.66157367802407,40.67825939663089L23.500229333822062,46.51619612934701C24.144565641739973,47.16126795688433,25.190327872698617,47.16126795688433,25.83539804884822,46.51619612934701L32.8423719303928,39.509204309865254L30.508670951830936,37.17549735700095C29.218530599531732,35.88535370192676,29.218530599531732,33.794557755791175,30.508670951830936,32.50514797082769C31.79807743589845,31.215004315753504,33.888868029584046,31.215004315753504,35.17900838188325,32.50514797082769L37.512709360446024,34.83885492369245L44.51674776906111,27.8355324547656C45.16108407697902,27.19046062722873,45.16108407697902,26.14469571910513,44.51674776906111,25.50035776167897L38.67809211326312,19.66168715885169C41.257638949629836,17.08213371881402,41.257638949629836,12.900541826542849,38.67809211326312,10.320988386505633C36.099279145128094,7.741434946467962,31.91696408952339,7.741434946467962,29.337417253156673,10.320988386505633L23.500229333822062,4.483638749878082C22.85515915767246,3.8387870833739726,21.809396926712907,3.8387870833739726,21.165060618795906,4.483638749878082L14.158820605483925,11.490043473270816L16.49325545227839,13.824484296246283C17.782661936344994,15.114627951320472,17.782661936344994,17.205423897456058,16.49325545227839,18.49483368241954ZZM18.82989190376884,11.491511213492686L22.333378844541585,7.987281433640874L29.338884989620965,14.992805512900304L31.67405370464803,12.65763081981413C32.963460188713725,11.367487164739487,35.05498465063283,11.367487164739487,36.344391134700345,12.65763081981413C37.63379761876786,13.947040604777158,37.63379761876786,16.037836550912743,36.344391134700345,17.327980205986933L34.00922241967419,19.662421028962854L41.01472856475357,26.668678978333446L37.514177096910316,30.169973277741065C34.93463026054451,27.591887577925718,30.753782941403188,27.591887577925718,28.17423610503647,30.170707147852227C25.595423136901445,32.749526717778735,25.595423136901445,36.93111861004991,28.17350223680387,39.51067205008758L24.66854755956774,43.01490182993939L17.66304141448836,36.009377750679505L15.327872699461295,38.34455244376613C14.038466215393782,39.63396222872916,11.946941753474675,39.63396222872916,10.657535269408982,38.34381857365497C9.368128785341469,37.054408788691944,9.368128785341469,34.96361284255636,10.657535269408982,33.67420305759288L12.992703984435138,31.339028364506703L5.987564773471604,24.333504285246818L9.489217043663302,20.831476115728037C12.06876388002911,23.410295685654546,16.250345067403032,23.410295685654546,18.829158035537148,20.831476115728037C21.408704871902955,18.251922675690366,21.408704871902955,14.070330783419195,18.82989190376884,11.491511213492686ZZ" style="fill: rgb(0, 0, 0);"/></g></g></g></g></svg>