<?xml version="1.0" encoding="UTF-8" standalone="no"?>
<svg
   width="1674.833"
   height="2840.731"
   viewBox="0 0 443.133 751.61"
   version="1.1"
   id="svg297"
   sodipodi:docname="login-pink.svg"
   inkscape:version="1.2.1 (8a69933317, 2022-10-28, custom)"
   xmlns:inkscape="http://www.inkscape.org/namespaces/inkscape"
   xmlns:sodipodi="http://sodipodi.sourceforge.net/DTD/sodipodi-0.dtd"
   xmlns="http://www.w3.org/2000/svg"
   xmlns:svg="http://www.w3.org/2000/svg">
  <defs
     id="defs301" />
  <sodipodi:namedview
     id="namedview299"
     pagecolor="#ffffff"
     bordercolor="#000000"
     borderopacity="0.25"
     inkscape:showpageshadow="2"
     inkscape:pageopacity="0.0"
     inkscape:pagecheckerboard="0"
     inkscape:deskcolor="#d1d1d1"
     showgrid="false"
     inkscape:zoom="0.64257926"
     inkscape:cx="245.88406"
     inkscape:cy="1743.7538"
     inkscape:window-width="2486"
     inkscape:window-height="1376"
     inkscape:window-x="1994"
     inkscape:window-y="27"
     inkscape:window-maximized="1"
     inkscape:current-layer="g291" />
  <path
     fill="#feecfd"
     d="M0 0h443.133v751.61H0z"
     paint-order="markers fill stroke"
     id="path41" />
  <path
     fill="#fab5f5"
     stroke="#f23ae5"
     stroke-width="2"
     d="M195.717 323.845s28.209-26.54 62.14-33.141c37.984-7.39 49.49 26.486 49.49 26.486l12.783-32.099s-26.058-15.501-56.66-14.165c-42.992 1.877-59.067 32.874-59.067 32.874zM322.38 454.223s9.45 26.27-9.638 71.06c-19.087 44.79-54.24 61.61-90.336 71.626-36.097 10.016-42.711 18.71-48.192 30.049-5.48 11.34 0 21.167 0 21.167L147 615.808s1.417-16.726 46.68-30.994c55.915-17.627 83.155-24.38 102.62-68.603 19.466-44.223-.945-79.564-.945-79.564l23.246 6.426z"
     id="path43" />
  <path
     fill="none"
     stroke="#31efb8"
     stroke-width="2"
     d="M68.417 284.169l.76-16.186 14.054.66.605-12.853 15.244.717.695-14.758"
     id="path45" />
  <g
     fill="none"
     stroke="#f23ae5"
     id="g51">
    <path
       d="M323.1 454.34c-3.192 0-1.801 3.927-5.156 3.927-3.355 0-2.455-3.928-4.91-3.928M324.554 466.953c-3.6 0-1.882-3.928-5.074-3.928-3.19 0-1.8 3.928-5.155 3.928-3.355 0-2.455-3.928-4.91-3.928M324.575 471.511c-3.191 0-1.555 3.928-5.155 3.928-3.6 0-1.882-3.928-5.074-3.928-3.191 0-1.8 3.928-5.155 3.928-3.355 0-2.455-3.928-4.91-3.928M324.697 480.519c-3.192 0-1.555 3.928-5.155 3.928-3.601 0-1.883-3.928-5.074-3.928s-1.8 3.928-5.155 3.928c-3.355 0-2.455-3.928-4.91-3.928M315.58 518.607c-3.192 0-1.555 3.928-5.156 3.928-3.6 0-1.882-3.928-5.074-3.928-3.191 0-1.8 3.928-5.155 3.928-3.355 0-2.455-3.928-4.91-3.928M310.674 529.032c-3.191 0-1.555 3.928-5.155 3.928-3.6 0-1.882-3.928-5.074-3.928-3.191 0-1.8 3.928-5.155 3.928-3.355 0-2.455-3.928-4.91-3.928M295.018 537.037c-3.192 0-1.8 3.928-5.155 3.928-3.356 0-2.455-3.928-4.91-3.928M173.3 592.554c3.191 0 1.8 3.928 5.155 3.928 3.355 0 2.455-3.928 4.91-3.928M154.424 624.042c3.6 0 1.882-3.928 5.074-3.928 3.191 0 1.8 3.928 5.155 3.928 3.355 0 2.455-3.928 4.91-3.928M149.395 610.795c3.191 0 1.555 3.928 5.155 3.928 3.6 0 1.882-3.928 5.074-3.928 3.191 0 1.8 3.928 5.155 3.928 3.355 0 2.455-3.928 4.91-3.928M158.478 601.757c3.191 0 1.555 3.928 5.155 3.928 3.6 0 1.882-3.928 5.074-3.928 3.191 0 1.8 3.928 5.155 3.928 3.355 0 2.455-3.928 4.91-3.928M158.6 628.101c3.191 0 1.8 3.928 5.155 3.928 3.355 0 2.455-3.928 4.91-3.928M236.96 577.76c-3.191 0-1.555 3.928-5.155 3.928-3.6 0-1.882-3.928-5.074-3.928-3.191 0-1.8 3.928-5.155 3.928-3.355 0-2.455-3.928-4.91-3.928M232.055 588.185c-3.191 0-1.555 3.928-5.155 3.928-3.6 0-1.883-3.928-5.074-3.928s-1.8 3.928-5.155 3.928c-3.355 0-2.455-3.928-4.91-3.928M258.656 569.294c-3.191 0-1.555 3.928-5.155 3.928-3.6 0-1.882-3.928-5.074-3.928-3.191 0-1.8 3.928-5.155 3.928-3.355 0-2.455-3.928-4.91-3.928"
       id="path47" />
    <path
       d="M253.75 579.719c-3.19 0-1.554 3.928-5.155 3.928-3.6 0-1.882-3.928-5.073-3.928-3.191 0-1.8 3.928-5.155 3.928-3.356 0-2.455-3.928-4.91-3.928"
       id="path49" />
  </g>
  <g
     fill="#31efb8"
     transform="translate(-1330.954 35.642)"
     id="g59">
    <path
       d="M1551.978 621.19s-2.114-19.668 7.613-29.608c9.727-9.94 21.514-12.377 20.88-22.74-.635-10.362-4.92-11.587-8.299-19.24-6.167-13.973-.283-24.587-.283-24.587-3.569.103-8.461-4.144-5.839 19.939.814 13.768-5.374 26.218-18.73 30.27-7.424 2.251-18.809-2.091-16.334-11.711.212-1.084 12.83 12.364 12.544-14.506-.136-12.84-1.17-24.496 7.97-31.896 9.139-7.399 23.352 2.064 23.352 2.064s7.55-10.958 22.769-7.158c18.549 4.63 11.71 17.823 15.402 24.148 3.693 6.325 6.44 6.12 5.141 13.86-2.537 15.121-23.795 29.782-23.733 43.032.062 13.25 26.732 4.491 30.288 17.77 2.538 10.575 1.48 11.633 1.48 11.633z"
       id="path53" />
    <ellipse
       cx="1580.884"
       cy="566.605"
       stroke="#fff"
       stroke-width="2"
       rx="4.644"
       ry="4.655"
       transform="rotate(-1.113) skewX(-.008)"
       id="ellipse55" />
    <path
       stroke="#fff"
       stroke-width="2"
       d="M1612.413 544.948c-.232 4.965-4.574 13.599-15.647 13.814-11.073.215-14.343-8.27-15.148-13.215"
       id="path57" />
  </g>
  <path
     fill="none"
     stroke="#000"
     stroke-width="2"
     d="M141.06 368.078H79.855v25.124h43.832v26.192H77.45v38.754h49.445M301.422 654.591v29.667h-99.96V556.771h-36.08v-48.109"
     id="path61" />
  <path
     fill="#fff"
     d="M131.43 500.911c2.806-4.21 6.882-9.688 6.348-12.561-.535-2.873-6.482-15.368-7.016-15.435-.535-.067-5.078 1.203-5.078 1.203s-3.943 9.554-3.943 11.158c0 1.604-1.002 14.633 1.136 15.435 2.138.802 8.553.2 8.553.2z"
     id="path63" />
  <g
     stroke-width="1.126"
     transform="translate(-917.614 -48.71) scale(.88844)"
     id="g71">
    <path
       fill="#fab5f5"
       d="M1160.79 551.32c-.789 4.157 7.804 6.392 10.498 7.4-6.773 1.657-22.716-3.782-23.139.668-.422 4.45 7.406 9.2 12.484 11.338 5.078 2.139 12.829 4.544 11.492 5.079-1.336.534-13.184-4.052-14.327-.505-1.143 3.546 6.082 5.727 11.388 7.72 13.815 5.192 11.147 36.604 11.147 36.604l21.21 17.607s17.292 9.51 33.872 10.615c16.58 1.105 26.88-7.906 26.88-7.906l17.997-20.946c0-1.336-14.408-50.95-44.289-62.967-19.605-8.537-38.742-.027-54.366-2.485-7.92-1.3-20.059-6.381-20.848-2.223z"
       id="path65" />
    <ellipse
       cx="-948.115"
       cy="971.688"
       fill="none"
       stroke="#fff"
       stroke-width="2.251"
       rx="6.705"
       ry="6.715"
       transform="scale(-1 1) rotate(20.33)"
       id="ellipse67" />
    <path
       fill="none"
       stroke="#fff"
       stroke-width="2.251"
       d="M1203.403 605.089c2.93 6.543 13.315 15.844 28.309 10.29 14.994-5.556 14.914-18.676 13.39-25.74"
       id="path69" />
  </g>
  <path
     fill="#fff"
     stroke="#31efb8"
     stroke-width="2"
     d="M213.333 465.94h70.115v77.107h-70.115z"
     paint-order="markers fill stroke"
     id="path73" />
  <g
     transform="translate(-920.535 -409.094)"
     id="g81">
    <path
       fill="#31efb8"
       d="M1275.63 654.874s-2.97 2.523-7.219 3.43c-4.248.908-8.262.182-12.65 4.137-5.88 4.194-7.08 6.502-14.583 7.58-.013-.002-.028-.008-.04-.01-9.759.647-12.931-2.236-19.587 2.03-8.455 5.808-12.117 15.713-12.117 15.713s-5.991-2.652-8.912 2.913c-3.235 6.163 2.864 9.891 2.864 9.891s-3.717 7.514-2.313 15.04c1.405 7.528 7.137 25.255-1.384 33.854-8.522 8.6-19.784 4.81-26.438 9.755-6.653 4.945-5.26 13.168-5.04 14.853l77.715.084s2.864-8.916-1.93-20.59c-5.774-14.063-20.302-7.309-21.936-16.48-1.68-9.425 15.452-3.32 22.72-14.97 4.456-9.512 5.425-19.175 4.758-27.553 1.455.271 4.465.701 8.465-1.121 4.649-2.118 3.48-4.733 7.548-3.255 6.083 2.21 7.82 1.213 7.82 1.213l-1.12-5.202s-3.662-.416-7.788-1.306c-5.669-1.862-6.686 4.31-11.187 3.833-4.5-.478-5.126-3.121-3.949-3.007 9.42-.399 11.095-4.904 16.434-7.005 5.422-1.817 5.21-.604 9.461-.799 4.252-.195 6.729-2.744 6.729-2.744l-1.643-5.8c-5.539 4.472-11.794 2.648-15.2 3.28-7.376 1.306-10.785 7.823-17.213 5.975 9.411-5.124 7.792-8.816 12.007-11.72 2.874-1.887 7.144-2.976 10.474-3.407 3.33-.432 8.36-3.223 8.36-3.223z"
       id="path75" />
    <ellipse
       cx="1402.016"
       cy="-162.196"
       fill="none"
       stroke="#fff"
       stroke-width="2"
       rx="4.917"
       ry="4.926"
       transform="rotate(36.087) skewX(.078)"
       id="ellipse77" />
    <path
       fill="none"
       stroke="#fff"
       stroke-width="2"
       d="M1240.12 716.264c-3.028 3.632-11.284 7.683-19.81 1.475-8.528-6.208-6.133-14.526-3.903-18.74"
       id="path79" />
  </g>
  <path
     fill="none"
     stroke="#31efb8"
     stroke-width="2"
     d="M222.359 491.553l11.448-11.467 9.957 9.94 9.091-9.106 10.8 10.782 10.439-10.454"
     id="path83" />
  <path
     fill="#fff"
     stroke="#f23ae5"
     stroke-width="2"
     d="M225.858 492.896s-1.112-6.661-7.399-4.52c-6.287 2.142-10.131.783-12.54 3.734-2.408 2.951-1.955 7.932 2.544 12.093 4.499 4.16 14.84-3.916 15.193-4.365.353-.448 2.202-6.942 2.202-6.942z"
     id="path85" />
  <path
     fill="none"
     stroke="#31efb8"
     stroke-width="2"
     d="M270.463 520.989c0 4.905-4.014 8.892-8.979 8.892-4.965 0-8.979-3.987-8.979-8.892 0-4.905 4.014-8.892 8.98-8.892 4.964 0 8.978 3.987 8.978 8.892z"
     id="path87" />
  <g
     stroke="#000"
     stroke-width="2"
     id="g95">
    <path
       fill="#fff"
       d="M-1121.968 84.01h12.219v40.296h-12.219z"
       paint-order="markers fill stroke"
       transform="matrix(.05022 -.99874 -.99824 -.05935 384.492 -598.448)"
       id="path89" />
    <path
       fill="none"
       d="M244.495 511.256l-40.086-2.547M244.281 517.119l.614-12.204 13.42 7.183z"
       id="path91" />
    <path
       d="M258.315 512.098l-4.762 1.66.557-3.864z"
       id="path93" />
  </g>
  <path
     fill="#fff"
     d="M210.751 495.794l-1.573 5.758 3.375.364 1.935 6.301-.926 4.925-2.294 3.931s1.336 11.543 1.693 11.724c.358.181 19.234-3.352 19.683-3.499.45-.147 5.647-4.777 5.647-4.777l3.412-11.007s.22-7.08-.282-7.86c-.504-.78-2.751-4.768-4.063-5.284-1.312-.515-4.75-.237-4.75-.237s-2.95-1.422-3.606-1.605c-.656-.183-3.136-.318-3.37-1.036-.235-.719 0-.15-.357-.331-.358-.181-.602.669-.961.786-.36.118-5.355-1.406-5.355-1.406s-4.766-.058-5.068.388c-.298.448-3.14 2.865-3.14 2.865z"
     id="path97" />
  <path
     fill="#fff"
     stroke="#f23ae5"
     stroke-width="2"
     d="M126.474 473.62c-28.021 18.53-13.923 45.635 13.005 60.77 18.7 10.512 48.675 17.338 71.74 8.84 13.126-5.616 25.97-12.36 30.404-32.635 1.005-5.424-.593-10.42-1.786-12.35-1.193-1.93-3.74-3.593-5.75-3.077s-2.375 1.444-2.375 1.444-1.863-3.011-4.968-3.157c-3.105-.145-4.386 2.066-4.386 2.066s-1.858-3.486-5.684-3.52c-6.91-.062-7.026 8.939-7.026 8.939l3.274.125s1.328 4.064 1.136 7.993c-.192 3.93-2.858 8.034-2.858 8.034l-4.067-.208s-6.635 13.355-34.853 6.896c-32.29-7.391-50.127-28.364-44.977-40.287"
     id="path99" />
  <g
     fill="none"
     stroke="#f23ae5"
     id="g103">
    <path
       d="M113.097 487.865c3.19.028 1.766 3.944 5.121 3.972 3.355.029 2.488-3.907 4.943-3.886M111.534 500.467c3.6.03 1.916-3.912 5.107-3.885 3.191.027 1.767 3.943 5.122 3.972 3.355.029 2.488-3.907 4.943-3.886M113.062 505.038c3.191.027 1.52 3.941 5.121 3.972 3.6.03 1.916-3.912 5.107-3.885 3.192.027 1.767 3.943 5.122 3.972 3.355.029 2.488-3.907 4.943-3.886M117.803 513.236c3.191.027 1.521 3.94 5.121 3.971 3.6.031 1.916-3.911 5.107-3.884 3.192.027 1.767 3.943 5.122 3.972 3.355.028 2.488-3.907 4.943-3.886"
       id="path101" />
  </g>
  <path
     fill="#f23ae5"
     stroke="#f23ae5"
     stroke-width="2"
     d="M221.446 494.33s1.837 2.58 2.69 4.736l.855 2.157M229.97 494.707s1.6 1.221 2.985 4.94l.5 1.341"
     id="path105" />
  <g
     transform="translate(-1179.787 -446.512)"
     id="g113">
    <path
       fill="#fab5f5"
       d="M1338.168 672.004c-7.066.027-13.22.59-16.011.785-7.441.52-17.697 1.495-18.706 4.35-2.25 6.366 4.61 7.916 14.82 10.08 13.712 2.905 11.908 9.669 12.254 17.188.446 9.688 4.284 16.708 14.207 18.413 9.808 1.685 3.368 18.789-20.947 24.933-22.988 5.809-22.583 27.691-22.583 27.691l68.25-1.735s20.095-11.961 16.747-15.685c-7.427-8.264-23.734-5.183-24.947-17.108-.252-13.151 7.853-20.683 17.812-20.533 2.998 0 5.428-2.391 5.428-5.341.717-5.292-8.148-4-7.725-6.31.871-2.124 5.44 1.45 8.024 1.495 3.394 0 6.146-2.707 6.146-6.047s-2.752-6.047-6.146-6.047c-1.793-.02-6.57 2.666-6.719 1.256 4.006-3.208 11.073-3.674 11.26-9.772 0-4.592-3.783-8.315-8.45-8.315-3.34 0-6.366 1.935-7.722 4.938-.62-1.52-1.66-3.432-3.428-5.727-5.479-7.113-19.787-8.555-31.564-8.51z"
       id="path107" />
    <ellipse
       cx="-1189.198"
       cy="950.583"
       fill="none"
       stroke="#fff"
       stroke-width="2"
       rx="4.917"
       ry="4.926"
       transform="matrix(-.97898 .20393 .2026 .97926 0 0)"
       id="ellipse109" />
    <path
       fill="none"
       stroke="#fff"
       stroke-width="2"
       d="M1337.151 703.247c1.264 4.557 7.12 11.649 17.446 9.503 10.327-2.145 11.57-10.711 11.273-15.47"
       id="path111" />
  </g>
  <path
     fill="#b1f7e4"
     stroke="#31efb8"
     stroke-width="2"
     d="M280.264 631.583h53.434v26.606h-53.434z"
     paint-order="markers fill stroke"
     id="path115" />
  <g
     stroke-width=".844"
     id="g129">
    <path
       fill="#fff"
       stroke="#f23ae5"
       stroke-width="1.689"
       d="M840.784 145.022s-15.304 34.712-52.887 41.82c-31.292 5.92-29.466 2.807-29.466 2.807s-2.673-4.343-10.223-3.675c-7.55.668-5.078 4.01-5.078 4.01s-12.428.2-14.967.801c-2.54.601-2.873 4.076-.134 5.078 2.74 1.002 13.63-.534 13.63-.534s-1.135 8.352 0 10.49c1.137 2.138 2.324 3.135 17.707 2.606 25.257-.869 44.636-7.322 52.717-11.944 29.026-16.6 37.254-34.822 28.7-51.46z"
       transform="matrix(-1.11094 .24913 .26956 1.20206 1041.804 231.53)"
       id="path117" />
    <path
       fill="none"
       stroke="#f23ae5"
       stroke-width="1.689"
       d="M742.395 189.916l7.216.067"
       transform="matrix(-1.11094 .24913 .26956 1.20206 1041.804 231.53)"
       id="path119" />
    <path
       fill="#fff"
       d="M275.685 651.903l-2.629.202s-1.534.165-1.639.189c-.105.023-2.798.06-2.798.06l2.072 8.87 1.185 2.21 1.111-1.68s1.62-2.123 1.608-2.419c-.011-.295.37-3.632.44-4.184.069-.553.65-3.248.65-3.248z"
       id="path121" />
    <path
       fill="none"
       stroke="#f23ae5"
       stroke-width="1.689"
       d="M736.415 196.197s-.134 2.706 4.042 3.608c4.176.902 5.078.502 5.078.502M738.826 199.971s-1.077 2.45 2.995 3.993c4.072 1.543 5.317 1.12 5.317 1.12"
       transform="matrix(-1.11094 .24913 .26956 1.20206 1041.804 231.53)"
       id="path123" />
    <g
       fill="none"
       stroke="#f23ae5"
       id="g127">
      <path
         d="M54.692 96.89c3.07-.805 2.893 3.325 6.12 2.478 3.227-.847 1.2-4.398 3.562-5.018M45.49 106.125c3.07-.806 2.656 3.386 6.12 2.477 3.464-.909.65-4.254 3.72-5.06 3.07-.805 2.893 3.325 6.12 2.478 3.228-.847 1.2-4.398 3.562-5.018M41.792 115.298c3.07-.806 2.657 3.386 6.12 2.477 3.464-.909.65-4.254 3.72-5.06 3.07-.805 2.893 3.325 6.12 2.478 3.228-.847 1.201-4.398 3.563-5.018"
         transform="matrix(-1.11094 .24913 .26956 1.20206 192.033 497.993)"
         id="path125" />
    </g>
  </g>
  <path
     fill="#fff"
     d="M94.178 519.046l41.672.945-30.144 29.954-39.688-3.26zM66.951 527.037l13.23-8.152-11.159-7.617-4.075 2.339z"
     id="path131" />
  <g
     stroke="#000"
     stroke-width="1.975"
     id="g139">
    <path
       fill="#fff"
       d="M334.657-1017.287h16.014v52.387h-16.014z"
       paint-order="markers fill stroke"
       transform="matrix(.86175 -.53766 .5385 .85434 326.05 1576.23)"
       id="path133" />
    <path
       fill="none"
       d="M993.324 406.079l-52.126-3.095M993.919 398.414l-1.02 15.981 18.39-7.203z"
       transform="matrix(-.59198 -.81854 .8257 -.59102 326.05 1576.23)"
       id="path135" />
    <path
       d="M1011.289 407.192l-5.9-2.923.145 5.119z"
       transform="matrix(-.59198 -.81854 .8257 -.59102 326.05 1576.23)"
       id="path137" />
  </g>
  <path
     fill="#fff"
     d="M64.367 548.345l42.028 2.72 19.065 50.887-42.868-3.501zM136.507 521.116L106.66 550.83l19.148 50.857 29.964-30.856z"
     color="#000"
     font-family="sans-serif"
     font-weight="400"
     overflow="visible"
     style="line-height:normal;font-variant-ligatures:normal;font-variant-position:normal;font-variant-caps:normal;font-variant-numeric:normal;font-variant-alternates:normal;font-feature-settings:normal;text-indent:0;text-align:start;text-decoration-line:none;text-decoration-style:solid;text-decoration-color:#000;text-transform:none;text-orientation:mixed;white-space:normal;shape-padding:0;isolation:auto;mix-blend-mode:normal;solid-color:#000;solid-opacity:1"
     id="path141" />
  <path
     d="M93.61 518.019l-29.614 28.335-1.061 1.03 18.561 51.02 43.339 3.54.722.06.711-.733 30.292-31.192-19.832-51.15-.772-.04zm.785 2.016l39.592.815-28.326 28.2-38.954-2.521zm-28.94 28.418l39.855 2.58 18.285 48.804-40.658-3.321zm70.298-26.538l18.48 47.69-28.418 29.265-18.367-48.775z"
     color="#000"
     font-family="sans-serif"
     font-weight="400"
     overflow="visible"
     style="line-height:normal;font-variant-ligatures:normal;font-variant-position:normal;font-variant-caps:normal;font-variant-numeric:normal;font-variant-alternates:normal;font-feature-settings:normal;text-indent:0;text-align:start;text-decoration-line:none;text-decoration-style:solid;text-decoration-color:#000;text-transform:none;text-orientation:mixed;white-space:normal;shape-padding:0;isolation:auto;mix-blend-mode:normal;solid-color:#000;solid-opacity:1"
     id="path143" />
  <path
     fill="#fff"
     d="M69.796 530.249l8.42 13.463 5.427-2.391-6.806-10.76zM84.24 526.49l2.506 3.953-3.874 5.866-5.676-8.965zM70.325 286.661l6.214 12.529L85.526 289l-12.962-3.942z"
     id="path145" />
  <g
     stroke="#000"
     stroke-width="2.258"
     id="g153">
    <path
       fill="#fff"
       d="M334.657-1017.287h16.014v52.387h-16.014z"
       paint-order="markers fill stroke"
       transform="matrix(.59386 -.65528 .65792 .59529 546.761 1124.098)"
       id="path147" />
    <path
       fill="none"
       d="M993.324 406.079l-52.126-3.095M993.919 398.414l-1.02 15.981 18.39-7.203z"
       transform="matrix(-.6942 -.55257 .55074 -.6919 546.761 1124.098)"
       id="path149" />
    <path
       d="M1011.289 407.192l-5.9-2.923.145 5.119z"
       transform="matrix(-.6942 -.55257 .55074 -.6919 546.761 1124.098)"
       id="path151" />
  </g>
  <g
     stroke="#f23ae5"
     stroke-width=".711"
     id="g161">
    <path
       fill="#fff"
       stroke-width="1.421"
       d="M556.264-36.81s-3.548 13.494-20.25 24.296C519.312-1.71 508.763 2.7 502.378 21.484c-5.563 16.366 2.292 42.22 2.292 42.22s-2.929 1.811-5.154 2.376c-2.225.564-7.223-1.06-9.32 1.217-2.006 2.18-1.103 4.909 2.993 6.25 3.632 1.189 10.229-2.722 10.911-3.504.683-.783-1.317 2.693-1.399 6.31-.075 3.35 5.3 9.086 10.082 6.315 4.783-2.771 6.399-5.098 4.654-7.467-1.633-2.217-5.172-.8-6.22.684-1.048 1.485-2.774-2.857-.886-5.25 1.017-1.29 4.381-5.394 7.552-4.57 3.148.82 1.565 3.88 4.277 4.614 2.562.694 4.163-1.532 3.878-4.726-.226-2.533-1.154-4.67-4.01-6.078-2.98-1.47-4.162-1.055-4.162-1.055s-6.174-15.29-2.336-26.874c5.092-15.366 9.076-17.03 25.918-38.171 16.843-21.143 15.921-39.027 15.921-39.027"
       transform="matrix(.13428 -1.40186 -1.3997 -.13449 129.665 1046.106)"
       id="path155" />
    <path
       fill="none"
       stroke-width="1.421"
       d="M503.688 60.944s-2.551.695-5.73.219c-3.179-.476-4.046-.334-4.907.898-1.087 1.555.712 3.758.712 3.758"
       transform="matrix(.13428 -1.40186 -1.3997 -.13449 129.665 1046.106)"
       id="path157" />
    <path
       fill="none"
       stroke-width="1.175"
       d="M503.39 58.193s-2.25.162-4.684-.702c-2.435-.864-3.173-.884-4.206-.036-1.303 1.07-.456 2.873-.456 2.873"
       transform="matrix(.13428 -1.40186 -1.3997 -.13449 129.665 1046.106)"
       id="path159" />
  </g>
  <path
     fill="#b1f7e4"
     stroke="#31efb8"
     stroke-width="2"
     d="M140.791 392.287h42.095v19.51h-42.095z"
     paint-order="markers fill stroke"
     id="path163" />
  <path
     fill="#fff"
     stroke="#f23ae5"
     stroke-width="2"
     d="M193.334 424.803s35.927-.708 63.322 1.914c38.236 3.658 66.284 29.622 66.284 29.622s-.45-27.29-34.91-45.313c-36.194-18.93-118.993-12.086-118.993-12.086s-5.968-.025-5.569 3.32c.33 2.76 2.863 4.508 11.449 4.508s10.452-.72 10.452-.72-6.346.845-6.346 4.227c0 3.381 4.604 7.013 8.835 6.637 4.231-.375 6.859-4.665 4.176-6.95-2.683-2.286-8.033.062-8.033.062"
     id="path165" />
  <g
     fill="none"
     stroke="#f23ae5"
     stroke-width=".757"
     id="g169">
    <path
       d="M35.772 99.598c3.192 0 1.8 3.928 5.156 3.928 3.355 0 2.455-3.928 4.91-3.928M26.279 110.68c3.6 0 1.882-3.928 5.074-3.928 3.19 0 1.8 3.928 5.155 3.928 3.355 0 2.455-3.928 4.91-3.928"
       transform="matrix(-1.31689 0 0 1.32538 350.144 289.676)"
       id="path167" />
  </g>
  <g
     fill="#fff"
     stroke="#000"
     stroke-width="2"
     paint-order="markers fill stroke"
     transform="translate(-1558.24 560.245)"
     id="g179">
    <rect
       width="38.743"
       height="7.182"
       x="1811.451"
       y="-195.225"
       rx="2.268"
       ry="2.268"
       id="rect171" />
    <rect
       width="52.35"
       height="39.687"
       x="1767.227"
       y="-227.731"
       rx="2.268"
       ry="2.268"
       id="rect173" />
    <rect
       width="8.608"
       height="3.654"
       x="1823.622"
       y="195.354"
       rx="2.268"
       ry="2.268"
       transform="scale(1 -1)"
       id="rect175" />
    <rect
       width="8.608"
       height="3.654"
       x="1834.896"
       y="195.354"
       rx="2.268"
       ry="2.268"
       transform="scale(1 -1)"
       id="rect177" />
  </g>
  <g
     stroke-width="2.301"
     id="g213">
    <path
       fill="#fff"
       stroke="#31efb8"
       d="M808.82 411.649c-.7-.29-1.535-.636-1.853-.77-.319-.133-1.397-.68-2.397-1.217-7.944-4.258-14.128-10.395-18.58-18.439-3.225-5.826-5.083-12.349-5.518-19.373-.536-8.655 1.684-17.872 6.105-25.351 4.586-7.758 11.08-13.846 19.022-17.83 3.734-1.873 6.704-2.938 10.635-3.813 3.55-.79 5.29-.96 9.812-.96 4.52 0 6.262.17 9.811.96 3.932.875 6.901 1.94 10.636 3.813 7.94 3.984 14.435 10.072 19.021 17.83 4.421 7.48 6.64 16.696 6.105 25.351-.511 8.259-2.901 15.552-7.35 22.431-4.944 7.646-12.003 13.565-20.473 17.166-1.867.794-2.732.89-3.669.407-1.122-.579-1.114-.56-3.423-7.986a4474.991 4474.991 0 00-4.508-14.38c-1.585-4.958-2.14-6.932-2.14-7.608 0-1.011.56-1.778 1.985-2.715 6.736-4.432 7.256-13.728 1.045-18.69-2.753-2.2-6.76-2.992-10.111-2-5.06 1.497-8.307 5.811-8.313 11.044-.004 3.823 2.006 7.42 5.388 9.646.63.414 1.31 1.009 1.553 1.357.756 1.085.709 1.332-1.781 9.19-.591 1.865-3.79 12.071-4.436 14.156-1.657 5.34-2.109 6.675-2.415 7.137-.419.629-1.48 1.177-2.273 1.174-.346-.002-1.15-.229-1.879-.53z"
       transform="matrix(.86936 0 0 .86918 -381.48 65.072)"
       id="path181" />
    <g
       transform="matrix(.86936 0 0 .86918 -381.48 65.072)"
       id="g191">
      <path
         fill="none"
         stroke="#000"
         d="M779.198 346.415v44.79"
         id="path183" />
      <rect
         width="7.938"
         height="8.126"
         x="775.229"
         y="365.125"
         fill="#fff"
         stroke="#f23ae5"
         paint-order="markers fill stroke"
         rx="0"
         ry="0"
         id="rect185" />
      <circle
         cx="779.198"
         cy="344.809"
         r="3.496"
         fill="#fff"
         stroke="#000"
         paint-order="markers fill stroke"
         id="circle187" />
      <circle
         cx="779.198"
         cy="394.021"
         r="3.496"
         fill="#fff"
         stroke="#000"
         paint-order="markers fill stroke"
         id="circle189" />
    </g>
    <g
       transform="matrix(0 .86918 -.86936 0 657.335 -332.169)"
       id="g201">
      <path
         fill="none"
         stroke="#000"
         d="M779.198 346.415v44.79"
         id="path193" />
      <rect
         width="7.938"
         height="8.126"
         x="775.229"
         y="365.125"
         fill="#fff"
         stroke="#f23ae5"
         paint-order="markers fill stroke"
         rx="0"
         ry="0"
         id="rect195" />
      <circle
         cx="779.198"
         cy="344.809"
         r="3.496"
         fill="#fff"
         stroke="#000"
         paint-order="markers fill stroke"
         id="circle197" />
      <circle
         cx="779.198"
         cy="394.021"
         r="3.496"
         fill="#fff"
         stroke="#000"
         paint-order="markers fill stroke"
         id="circle199" />
    </g>
    <g
       transform="matrix(-.86936 0 0 -.86918 1054.003 706.591)"
       id="g211">
      <path
         fill="none"
         stroke="#000"
         d="M779.198 346.415v44.79"
         id="path203" />
      <rect
         width="7.938"
         height="8.126"
         x="775.229"
         y="365.125"
         fill="#fff"
         stroke="#f23ae5"
         paint-order="markers fill stroke"
         rx="0"
         ry="0"
         id="rect205" />
      <circle
         cx="779.198"
         cy="344.809"
         r="3.496"
         fill="#fff"
         stroke="#000"
         paint-order="markers fill stroke"
         id="circle207" />
      <circle
         cx="779.198"
         cy="394.021"
         r="3.496"
         fill="#fff"
         stroke="#000"
         paint-order="markers fill stroke"
         id="circle209" />
    </g>
  </g>
  <path
     fill="#fff"
     stroke="#f23ae5"
     stroke-width="2"
     d="M181.076 421.108s-.404.094-.217 2.41c.186 2.318 5.675 6.523 10.079 4.29 4.765-2.416 1.431-6.888 1.431-6.888s-2.386 1.604-5.202 1.98c-2.816.376-6.09-1.792-6.09-1.792z"
     id="path215" />
  <path
     fill="#fff"
     stroke="#f23ae5"
     stroke-width="2"
     d="M180.05 414.032s-.716 1.315-.53 3.6c.188 2.286 3.983 6.607 9.863 4.478 6.507-2.357 1.99-6.575 1.99-6.575s-1.172 1.017-4.162 1.476c-2.651.406-7.161-2.98-7.161-2.98zM207.457 405.265s-2.613-4.446-3.67-7.39c-1.058-2.942.061-7.075-.996-9.768-1.058-2.693-4.853-2.38-6.284 1.252-1.431 3.632 1.306 13.213 1.306 13.213s-.995 1.628-1.369 4.572c-.373 2.943 1.183 7.702 1.183 7.702"
     id="path217" />
  <path
     fill="#b1f7e4"
     stroke="#31efb8"
     stroke-width="2"
     d="M140.791 367.945h42.095v17.773h-42.095z"
     paint-order="markers fill stroke"
     id="path219" />
  <path
     fill="none"
     stroke="#fab5f5"
     stroke-width="2"
     d="M79.964 616.617c0 4.905-4.015 8.891-8.98 8.891-4.965 0-8.979-3.986-8.979-8.891 0-4.905 4.014-8.892 8.98-8.892 4.964 0 8.979 3.987 8.979 8.892z"
     id="path221" />
  <path
     fill="#fff"
     stroke="#000"
     stroke-width="2"
     d="M313.228 653.634c0 6.453-5.28 11.698-11.81 11.698s-11.81-5.245-11.81-11.698c0-6.454 5.28-11.698 11.81-11.698s11.81 5.244 11.81 11.698zM155.804 367.898c0 6.693-5.476 12.132-12.25 12.132-6.772 0-12.248-5.44-12.248-12.132 0-6.693 5.476-12.132 12.249-12.132 6.773 0 12.249 5.44 12.249 12.132z"
     id="path223" />
  <path
     fill="none"
     stroke="#fab5f5"
     stroke-width="2"
     d="M370.316 502.191l-8.695 11.571-11.571-8.695 8.695-11.571z"
     id="path225" />
  <g
     fill="none"
     stroke="#fab5f5"
     stroke-width="2"
     id="g229">
    <path
       d="M341.112 449.702h15.934M349.079 449.296v16.446"
       id="path227" />
  </g>
  <path
     stroke="#000"
     stroke-width=".5"
     d="M299.102 646.748l-.099.046c-.139.064-.205.15-.3.387a392.632 392.632 0 00-.767 1.95l-.275.698-.214.542-.216.551-.24.61-.725 1.842-.242.61c-.145.362-.09.61.16.745l.082.043 1.925.005c1.058.003 1.925.01 1.925.017 0 .006-.05.136-.11.29l-.16.407-.154.393-.197.503-.22.56-.173.444-.197.502a251.975 251.975 0 00-.375.955l-.197.502-.18.463-.154.394-.177.453c-.05.13-.104.267-.121.305a.61.61 0 00-.03.345c.03.11.13.223.247.278a.5.5 0 00.395.01.935.935 0 00.206-.172 1686.5 1686.5 0 001.39-1.464l.404-.424c.125-.13.32-.334.432-.453a403.551 403.551 0 011.527-1.608l.364-.381a223.1 223.1 0 01.834-.877l.347-.364a1485.507 1485.507 0 002.463-2.59c.2-.211.38-.408.4-.438a.506.506 0 00.048-.34.441.441 0 00-.236-.313l-.102-.05h-1.73c-1.112 0-1.728-.008-1.728-.02 0-.01.092-.199.204-.419.112-.22.507-1.001.878-1.738l1-1.98c.304-.597.326-.647.326-.748a.466.466 0 00-.291-.435c-.075-.034-.216-.036-3.013-.036zm3.744.929c.875 0 1.268.006 1.268.017 0 .011-.132.28-.293.596-.161.316-.619 1.221-1.017 2.012l-.91 1.802c-.184.363-.185.365-.179.492 0 .08.022.158.047.207a.522.522 0 00.28.226c.047.013.61.02 1.604.02.842 0 1.531.006 1.531.013 0 .007-.055.072-.123.143l-.675.71a374.962 374.962 0 01-.925.974l-.207.22c-.775.81-.813.851-1.32 1.386a134.684 134.684 0 01-.718.756 350.024 350.024 0 00-1.288 1.356c-.254.269-.465.488-.468.488-.014 0 0-.035.12-.342.115-.29.182-.461.38-.968l.196-.502.331-.847.22-.561c.142-.358.265-.674.375-.955.049-.125.11-.28.137-.345a.974.974 0 00.06-.211.459.459 0 00-.268-.452l-.088-.043-1.905-.003c-1.047 0-1.91-.007-1.917-.014-.01-.007 0-.042.017-.078.016-.037.069-.169.118-.293.111-.287.331-.85.55-1.408.092-.239.245-.629.338-.867l.246-.63.4-1.024.181-.463c.112-.284.154-.393.357-.915.059-.152.127-.325.152-.384l.045-.109 2.308-.005h1.04zM141.48 361.037l-.1.046c-.138.064-.204.15-.298.387a395.182 395.182 0 00-.768 1.95l-.275.698-.214.542-.216.551-.24.61-.725 1.842-.242.61c-.145.362-.091.61.16.745l.082.043 1.925.005c1.058.003 1.925.01 1.925.016s-.05.137-.11.29l-.16.407-.154.394-.197.502-.22.562-.174.443-.196.502a238.01 238.01 0 00-.375.955l-.197.502-.18.463-.155.394-.176.453c-.05.13-.105.267-.121.305a.61.61 0 00-.03.345c.03.11.13.223.247.278a.5.5 0 00.395.01.938.938 0 00.206-.172 1847.334 1847.334 0 001.39-1.464l.404-.424a396.311 396.311 0 011.959-2.061l.364-.382a228.276 228.276 0 01.834-.876l.347-.364a1447.748 1447.748 0 002.463-2.59c.2-.211.38-.408.4-.438a.506.506 0 00.048-.34.441.441 0 00-.236-.313l-.102-.05h-1.73c-1.112 0-1.729-.008-1.729-.02 0-.01.092-.2.204-.419.113-.22.508-1.001.88-1.738.37-.736.82-1.627 1-1.98.303-.597.325-.647.324-.748a.466.466 0 00-.29-.435c-.076-.034-.216-.036-3.014-.036zm3.744.929c.875 0 1.268.006 1.268.017 0 .011-.132.28-.293.595-.161.317-.62 1.222-1.018 2.013l-.91 1.802c-.183.362-.184.365-.178.492 0 .08.022.158.047.207a.522.522 0 00.28.225c.047.014.61.02 1.604.02.842 0 1.53.007 1.53.014s-.054.072-.122.143l-.675.71a371.82 371.82 0 01-.925.974 362.966 362.966 0 00-3.533 3.718 24.99 24.99 0 01-.468.487c-.014 0 0-.034.12-.34.115-.292.182-.463.379-.97l.197-.501.331-.847.22-.561.375-.955c.049-.125.11-.28.137-.345a.974.974 0 00.06-.211.458.458 0 00-.268-.452l-.088-.043-1.905-.003c-1.048 0-1.91-.007-1.917-.014-.01-.007 0-.042.017-.079.016-.036.069-.168.118-.293l.55-1.408.338-.866.246-.63.4-1.024.181-.463.357-.916c.059-.151.127-.324.152-.384l.045-.108 2.308-.005 1.04-.001z"
     id="path231" />
  <path
     fill="#b1f7e4"
     stroke="#31efb8"
     stroke-width="2"
     d="M280.265 615.708h24.236v10.259h-24.236zM309.444 615.708h24.33v10.259h-24.33z"
     paint-order="markers fill stroke"
     id="path233" />
  <g
     fill="none"
     stroke="#f23ae5"
     stroke-width=".757"
     id="g237">
    <path
       d="M38.305 100.76c3.192 0 1.8 3.928 5.156 3.928 3.355 0 2.455-3.928 4.91-3.928M45.567 111.89c3.49 0 1.825-3.81 4.919-3.81 3.094 0 1.746 3.81 4.998 3.81 3.253 0 2.38-3.81 4.76-3.81"
       transform="matrix(-1.31689 0 0 1.32538 258.102 166.341)"
       id="path235" />
  </g>
  <g
     fill="none"
     stroke="#f23ae5"
     id="g241">
    <path
       d="M212.965 304.856c3.191-.027 1.766-3.943 5.121-3.971 3.355-.029 2.489 3.907 4.943 3.886M220.927 293.843c3.6-.031 1.916 3.911 5.107 3.884 3.192-.027 1.767-3.943 5.122-3.972 3.355-.028 2.488 3.907 4.943 3.886M226.16 289.272c3.19-.028 1.52-3.942 5.12-3.972 3.601-.03 1.916 3.912 5.108 3.884 3.19-.027 1.766-3.943 5.121-3.971 3.355-.03 2.489 3.906 4.943 3.885M236.721 281.074c3.191-.027 1.521-3.941 5.122-3.972 3.6-.03 1.915 3.912 5.107 3.884 3.19-.027 1.766-3.943 5.121-3.971 3.355-.029 2.488 3.907 4.943 3.886"
       id="path239" />
  </g>
  <path
     fill="none"
     stroke="#000"
     stroke-width="2"
     d="M317.38 654.056s-.098-4.3-1.854-7.885c-1.756-3.584-5.548-6.13-5.548-6.13M286.966 660.39s.974 1.887 2.723 3.815c1.75 1.927 3.813 2.943 3.813 2.943M136.584 352.996s-1.937.868-3.958 2.508c-2.021 1.64-3.15 3.644-3.15 3.644M158.802 363.356s-.197-.822-.846-2.49c-.648-1.668-1.162-2.342-1.162-2.342"
     id="path243" />
  <path
     fill="none"
     stroke="#31efb8"
     stroke-width="1.099"
     d="M229.713 337.761l-9.086 9.086-7.883-7.883-7.215 7.215-8.55-8.551-8.285 8.283M229.713 348.345l-9.086 9.085-7.883-7.883-7.215 7.215-8.55-8.55-8.285 8.283M229.713 358.928l-9.086 9.086-7.883-7.883-7.215 7.214-8.55-8.55-8.285 8.283"
     id="path245" />
  <g
     stroke-width="1.25"
     transform="rotate(-17.841 1573.55 4052.26) scale(.80013)"
     id="g259">
    <rect
       width="61.547"
       height="55.391"
       x="1461.394"
       y="444.645"
       fill="#31efb8"
       paint-order="markers fill stroke"
       rx="3.543"
       ry="2.843"
       transform="skewX(4.947) scale(1 .99627)"
       id="rect247" />
    <rect
       width="54.724"
       height="55.561"
       x="1450.343"
       y="430.912"
       fill="#fff"
       stroke="#31efb8"
       stroke-width="2.508"
       paint-order="markers fill stroke"
       rx="3.543"
       ry="2.838"
       transform="skewX(6.675) scale(1 .99322)"
       id="rect249" />
    <rect
       width="54.724"
       height="55.561"
       x="1446.315"
       y="435.371"
       fill="#fff"
       stroke="#31efb8"
       stroke-width="2.508"
       paint-order="markers fill stroke"
       rx="3.543"
       ry="2.838"
       transform="skewX(6.675) scale(1 .99322)"
       id="rect251" />
    <rect
       width="63.311"
       height="43.106"
       x="1248.557"
       y="516.638"
       fill="#b1f7e4"
       paint-order="markers fill stroke"
       rx="3.543"
       ry="3.124"
       transform="skewX(27.127) scale(1 .89)"
       id="rect253" />
    <path
       fill="#31efb8"
       d="M1519.706 474.22c.43-.216.632-.254 1.34-.25.707.006.935.046 1.504.27.874.342 1.743.976 2.314 1.685.386.482.494.687.706 1.354.213.67.233.872.15 1.36-.102.594-.649 1.417-1.022 1.537-.114.037-.17.139-.136.247.052.165 2.89 5.962 3.227 6.59l.136.254-2.664-.017-2.664-.018-.024-.254c-.055-.58-.9-6.41-.953-6.577-.033-.105-.157-.209-.294-.247-.45-.126-1.524-.96-2.004-1.557-.396-.493-.501-.694-.714-1.364-.212-.667-.234-.873-.153-1.35a2.328 2.328 0 011.251-1.662z"
       color="#000"
       font-family="sans-serif"
       font-weight="400"
       overflow="visible"
       style="line-height:normal;text-indent:0;text-align:start;text-decoration-line:none;text-decoration-style:solid;text-decoration-color:#000;text-transform:none;white-space:normal;isolation:auto;mix-blend-mode:normal;solid-color:#000;solid-opacity:1"
       id="path255" />
    <path
       fill="none"
       stroke="#31efb8"
       stroke-width="2.5"
       d="M1539.095 450.481l-6.495 6.182-5.686-5.316-5.159 4.91-6.168-5.767-5.922 5.636M1536.991 441.805c0 2.458-2.013 4.456-4.502 4.456-2.49 0-4.503-1.998-4.503-4.456s2.013-4.456 4.503-4.456 4.502 1.998 4.502 4.456z"
       id="path257" />
  </g>
  <g
     stroke-width="1.076"
     id="g291">
    <path
       fill="#fff"
       stroke="#f23ae5"
       stroke-width="2.151"
       d="M608.07 355.581s-3.12 2.173-12.19 3.024c-9.072.85-12.568-.095-12.568-.095l12.662 10.206-7.465 15.213 14.363-1.417z"
       transform="matrix(.9298 0 0 .9297 -258.918 219.266)"
       id="path261" />
    <path
       fill="#fff"
       stroke="#f23ae5"
       stroke-width="2.151"
       d="M602.4 360.4s-.284-4.346 6.425-5.386c6.58-1.02 1.89 10.678 1.89 10.678M706.532 366.164s2.457 0 8.788.19c6.331.188 8.977 1.511 8.977 1.511l-12.946 9.072 8.032 14.552s-9.355.472-12.568.283c-3.212-.189-6.236-1.512-6.236-1.512l.85-21.355z"
       transform="matrix(.9298 0 0 .9297 -258.918 219.266)"
       id="path263" />
    <path
       fill="#fff"
       stroke="#f23ae5"
       stroke-width="2.151"
       d="M706.812 386.669s-.699 4.335-11.838 4.272c-10.924-.062-.217-10.843-.217-10.843"
       transform="matrix(.9298 0 0 .9297 -258.918 219.266)"
       id="path265" />
    <path
       fill="#b1f7e4"
       stroke="#31efb8"
       stroke-width="2.151"
       d="M657.679 415.585s23.15-10.017 34.206-25.892c8.15-11.701 23.258-42.13 1.512-55.562-20.088-12.408-35.907 5.48-35.907 5.48s-21.356-18.898-38.176-4.535c-18.1 15.456-9.272 44.459 11.717 63.31 15.78 14.175 26.648 17.199 26.648 17.199z"
       transform="matrix(.9298 0 0 .9297 -258.918 219.266)"
       id="path267" />
    <path
       fill="#fff"
       stroke="#f23ae5"
       stroke-width="2.151"
       d="M602.4 361.062l-.095 26.836s10.489 8.505 25.702 7.749c15.214-.756 34.585-13.891 53.484-15.875 18.899-1.985 25.513 7.56 25.513 7.56l.567-27.31s-4.44-7.37-24.852-7.843c-20.41-.472-36.19 15.592-54.24 15.875-18.048.284-26.08-6.992-26.08-6.992z"
       transform="matrix(.9298 0 0 .9297 -258.918 219.266)"
       id="path269" />
    <path
       fill="none"
       stroke="#000"
       stroke-width="2.151"
       d="M622.032 307.468l1.47 3.742zm3.741 9.088l3.074 7.35zm-25.524 2.806l9.89 9.22zm11.493 10.824l1.737 1.47zm-23.253 14.7l3.341.267zm5.613.802l12.16.802zm99.959 51.316l12.561 5.612zm-9.889 11.091l4.543 4.143zm6.682 6.281l4.944 4.543zm-17.507 3.207l5.212 9.355zm6.281 11.36l1.47 2.806z"
       transform="matrix(.9298 0 0 .9297 -258.918 219.266)"
       id="path271" />
    <g
       fill="none"
       stroke="#31efb8"
       id="g275">
      <path
         d="M41.064 100.165c3.191 0 1.8 3.928 5.155 3.928 3.355 0 2.455-3.928 4.91-3.928M37.493 112.779c3.6 0 1.882-3.928 5.073-3.928 3.192 0 1.8 3.928 5.156 3.928 3.355 0 2.454-3.928 4.91-3.928M37.472 117.337c3.191 0 1.554 3.928 5.155 3.928 3.6 0 1.882-3.928 5.073-3.928 3.192 0 1.8 3.928 5.156 3.928 3.355 0 2.455-3.928 4.91-3.928M57.515 156.299c3.191 0 1.555 3.928 5.155 3.928 3.6 0 1.882-3.928 5.074-3.928 3.191 0 1.8 3.928 5.155 3.928 3.355 0 2.455-3.928 4.91-3.928M70.301 167.283c3.6 0 1.882-3.928 5.074-3.928 3.191 0 1.8 3.928 5.155 3.928 3.355 0 2.455-3.928 4.91-3.928"
         transform="matrix(.9298 0 0 .9297 274.018 443.034)"
         id="path273" />
    </g>
    <g
       id="g579"
       transform="matrix(0.8815993,0,0,0.93185445,38.253893,38.56444)"
       style="font-size:33.9123px;line-height:1.25;letter-spacing:0;word-spacing:0;fill:#ffffff;stroke:#000000;stroke-width:3.99974;paint-order:markers stroke fill">
      <path
         id="path473"
         style="font-weight:700;font-size:33.9123px;line-height:1.25;font-family:'Open Sans';-inkscape-font-specification:'Open Sans Bold';letter-spacing:0;word-spacing:0;fill:#ffffff;stroke:#000000;stroke-width:4.08677652;stroke-linecap:round;stroke-dasharray:none;paint-order:stroke markers fill"
         d="m 326.5753,561.5161 c -2.64833,0.046 -5.65565,0.81117 -7.14496,3.19911 -1.16173,1.94817 -1.27636,4.46408 -0.49719,6.57098 0.94142,2.29926 3.46976,3.30597 5.72099,3.84222 1.98217,0.54397 4.13631,0.67102 5.94046,1.7284 1.7425,1.09768 1.5692,4.057 -0.28254,4.9593 -1.97231,1.02908 -4.32163,0.77719 -6.43496,0.40538 -1.81729,-0.36072 -3.56023,-1.03392 -5.21738,-1.85276 0,1.33991 0,2.67984 0,4.01976 4.04597,1.41421 8.48413,2.0895 12.72139,1.20854 2.16249,-0.43239 4.25609,-1.83664 4.93139,-4.01977 0.61927,-1.97447 0.71126,-4.23233 -0.14399,-6.15217 -1.03672,-2.14817 -3.51322,-2.94474 -5.65784,-3.48871 -2.07816,-0.55228 -4.32489,-0.62206 -6.25751,-1.63072 -1.76574,-0.98098 -1.50431,-3.90986 0.30622,-4.69929 1.98633,-0.90835 4.27748,-0.70247 6.377,-0.37327 1.44764,0.27458 2.86244,0.70969 4.22437,1.26961 0,-1.29956 0,-2.59911 0,-3.89865 -2.33997,-0.59691 -4.73506,-0.97885 -7.04648,-1.07625 -0.51303,-0.008 -1.02588,-0.0293 -1.53897,-0.0117 z" />
      <path
         id="path470"
         style="font-weight:700;font-size:33.9123px;line-height:1.25;font-family:'Open Sans';-inkscape-font-specification:'Open Sans Bold';letter-spacing:0;word-spacing:0;fill:#ffffff;stroke:#000000;stroke-width:4.08677652;stroke-linecap:round;stroke-dasharray:none;paint-order:stroke markers fill"
         d="m 349.09766,577.73438 c 2.26237,-10e-6 4.52474,0 6.78711,0 2.90885,-7.85157 5.8177,-15.70313 8.72656,-23.55469 -1.72005,0 -3.44011,0 -5.16016,0 -2.31704,6.46419 -4.63419,12.92836 -6.95117,19.39258 -2.31989,-6.46505 -4.64488,-12.92826 -6.9668,-19.39258 -1.72005,0 -3.4401,0 -5.16015,0 2.9082,7.85156 5.8164,15.70312 8.72461,23.55469 z" />
      <path
         id="path467"
         style="font-weight:700;font-family:'Open Sans';-inkscape-font-specification:'Open Sans Bold';stroke-width:4.08677652;stroke-linecap:round;stroke-dasharray:none;paint-order:stroke markers fill"
         d="m 383.48828,545.6543 c -3.43416,0.0745 -7.14735,1.19585 -9.52797,3.88604 -2.73685,2.96606 -3.26765,7.32009 -2.63474,11.16527 0.5608,3.63857 3.06563,6.90111 6.48627,8.29442 3.15759,1.33005 6.71627,1.31362 10.00457,0.80075 2.01099,-0.33673 3.91377,-0.92524 5.75,-1.78516 0,-3.64453 0,-7.28906 0,-10.93359 -2.92253,0 -5.84506,0 -8.76758,0 0,1.03516 0,2.07031 0,3.10547 1.29687,0 2.59375,0 3.89062,0 0,1.93229 0,3.86458 0,5.79688 -2.21866,0.86517 -4.74216,0.89951 -7.02148,0.25 -2.58406,-0.75285 -4.44952,-3.12598 -4.90695,-5.73312 -0.5161,-2.85904 -0.34597,-6.09371 1.45187,-8.49735 1.74777,-2.34706 4.86577,-3.09815 7.657,-2.88439 2.36818,0.12294 4.68114,0.83827 6.78441,1.91564 0,-1.25261 0,-2.50521 0,-3.75782 -2.87583,-1.24642 -6.04602,-1.71442 -9.16602,-1.62304 z" />
    </g>
  </g>
  <path
     fill="#fff"
     d="M219.841 219.685a2.99 2.99 0 00-2.997 2.998v19.052a2.99 2.99 0 002.997 2.997h6.287l-2.186 7.544 9.485-7.544H242a2.99 2.99 0 002.998-2.997v-19.052a2.99 2.99 0 00-2.998-2.998z"
     paint-order="markers fill stroke"
     id="path293" />
  <path
     fill="#fab5f5"
     stroke="#fab5f5"
     stroke-width=".3"
     d="M230.285 239.088c-.19-.12-6.217-6.165-6.442-6.46-.456-.603-.8-1.659-.799-2.451 0-.386.175-1.172.344-1.557a4.078 4.078 0 013.726-2.447c1.117.003 2.104.444 3.023 1.353.206.204.39.37.41.37.019 0 .25-.2.512-.445.76-.71 1.373-1.03 2.29-1.2 1.534-.283 3.191.451 4.081 1.81.382.583.67 1.548.67 2.241 0 .616-.26 1.49-.635 2.133-.125.214-1.047 1.174-3.311 3.45-1.726 1.735-3.201 3.187-3.279 3.228a.57.57 0 01-.59-.025zm3.222-4.275c1.525-1.53 2.826-2.877 2.917-3.022.563-.896.552-2.193-.025-3.068-.733-1.11-2.2-1.59-3.396-1.114-.512.205-.703.348-1.386 1.044-.64.652-.788.76-1.045.76-.25 0-.342-.068-1.045-.762-.977-.964-1.495-1.225-2.427-1.225-.787 0-1.43.256-1.967.784-.54.53-.778 1.071-.82 1.864-.038.727.117 1.247.554 1.857.076.105 1.388 1.442 2.917 2.97 2.397 2.397 2.792 2.772 2.875 2.726.053-.029 1.335-1.295 2.849-2.814z"
     id="path295" />
</svg>
