<svg xmlns:xlink="http://www.w3.org/1999/xlink" width="24.47353642154485" xmlns="http://www.w3.org/2000/svg" id="screenshot" version="1.1" viewBox="10.276508697995268 -10.66646042069624 24.47353642154485 45.833972589782206" height="45.833972589782206" style="-webkit-print-color-adjust: exact;"><g id="shape-b0db2ad1-203d-11ec-9082-1597698bcafa" width="133" height="70" fill="none"><g id="shape-b0db2ad2-203d-11ec-9082-1597698bcafa"><path d="M34.15111509349208,-6.042576477324474C32.728545198285246,-6.3302711552623805,31.92939323677365,-3.376021339874569,31.573755956590503,-2.4511143742274726C31.03134089353898,-4.792719923592813,32.95730466396617,-10.268928805500764,31.43334627304739,-10.431571776021883C29.909377991244583,-10.59425037460096,28.25067219538414,-7.913146659964696,27.49821990591863,-6.170389430908472C26.74573283532027,-4.427587759031667,25.891378375591557,-1.7644073640558418,25.713212854031553,-2.2272258928269366C25.535081233357232,-2.6900095615483224,27.15263561710435,-6.757552580227639,25.941143250794084,-7.165252706616229C24.72968451746874,-7.57289383729767,23.954342086512952,-5.090038220419956,23.25052490786311,-3.268314742871553C21.417817942427064,1.4754114884181035,10.659070475242515,0.4358613513777527,10.659070475242515,0.4358613513777527L10.492289692115264,34.90386991835294C10.950455754343238,34.90895547471155,28.014759237585167,30.129601494621056,32.24939430527593,19.872789654186818C35.25119864070166,13.145361698193483,32.406657583041124,6.514941655594157,33.309134176787666,1.1371823352346837C33.78537439733827,-1.58885192629441,35.57368117762144,-5.754847357929975,34.15111509349208,-6.042576477324474ZZ" style="fill: rgb(250, 181, 245);"/></g><g id="shape-b0db51e0-203d-11ec-9082-1597698bcafa"><path d="M22.85523475939408,17.21695965203071C22.427431361919844,16.01479714589459,23.05111296555242,14.690853785115905,24.24829081777807,14.259819026323385C25.445434386402667,13.828783886987367,26.762725789724755,14.45390600122937,27.19052918719808,15.65606850736549C27.618298301069444,16.85823063295993,26.994616697437777,18.182173993736797,25.79747312881318,18.613209133072814C24.60029527658753,19.044243891866245,23.283003873265443,18.41912177762515,22.85523475939408,17.21695965203071ZZ" style="stroke-width: 1; stroke: white;"/></g><g id="shape-b0db51e1-203d-11ec-9082-1597698bcafa"><path d="M17.110277419337763,8.33266054250089C14.855684713780647,9.317767677909615,11.627251872240777,12.863450146366631,13.47442592751213,18.054309980863763C15.321633118238424,23.245273634429395,19.819776888222805,23.267580687635927,22.247438584220617,22.768891367604738" style="stroke-width: 1; stroke: white;"/></g></g></svg>