<svg xmlns:xlink="http://www.w3.org/1999/xlink" width="24.47353642154394" xmlns="http://www.w3.org/2000/svg" id="screenshot" version="1.1" viewBox="10.276508697997087 -10.666460420698968 24.47353642154394 45.833972589785844" height="45.833972589785844" style="-webkit-print-color-adjust: exact;"><g id="shape-68c61310-2040-11ec-9082-1597698bcafa" width="133" height="70" fill="none"><g id="shape-68c61311-2040-11ec-9082-1597698bcafa"><path d="M34.15111509349208,-6.042576477324019C32.728545198285246,-6.330271155262835,31.92939323677365,-3.376021339875024,31.573755956590503,-2.4511143742279273C31.03134089353898,-4.792719923592813,32.95730466396617,-10.268928805500309,31.43334627304739,-10.431571776022338C29.909377991244583,-10.594250374600506,28.25067219538414,-7.913146659964696,27.49821990591863,-6.170389430908017C26.74573283532027,-4.427587759031667,25.891378375591557,-1.7644073640558418,25.713212854031553,-2.2272258928269366C25.535081233357232,-2.6900095615483224,27.15263561710435,-6.757552580227184,25.941143250794084,-7.1652527066157745C24.72968451746874,-7.572893837298125,23.954342086512952,-5.090038220419956,23.25052490786311,-3.268314742871553C21.417817942427064,1.4754114884185583,10.659070475242515,0.4358613513782075,10.659070475242515,0.4358613513782075L10.492289692115264,34.903869918353394C10.950455754343238,34.90895547471155,28.014759237585167,30.129601494621056,32.24939430527593,19.872789654186818C35.25119864070166,13.145361698193483,32.406657583041124,6.514941655593702,33.309134176787666,1.1371823352346837C33.78537439733827,-1.58885192629441,35.57368117762144,-5.754847357929975,34.15111509349208,-6.042576477324019ZZ" style="fill: rgb(255, 255, 255); fill-opacity: 1;"/></g><g id="shape-68c61312-2040-11ec-9082-1597698bcafa"><path d="M22.85523475939408,17.21695965203071C22.427431361919844,16.01479714589459,23.05111296555242,14.69085378511636,24.24829081777807,14.259819026323385C25.445434386402667,13.828783886987821,26.762725789724755,14.45390600122937,27.19052918719808,15.656068507365035C27.618298301069444,16.85823063295993,26.994616697437777,18.18217399373725,25.79747312881318,18.61320913307327C24.60029527658753,19.044243891866245,23.283003873265443,18.41912177762515,22.85523475939408,17.21695965203071ZZ" style="stroke-width: 1; stroke: rgb(49, 239, 184); stroke-opacity: 1;"/></g><g id="shape-68c61313-2040-11ec-9082-1597698bcafa"><path d="M17.110277419337763,8.332660542501344C14.855684713780647,9.317767677909615,11.627251872240777,12.863450146366631,13.47442592751213,18.054309980863763C15.321633118238424,23.24527363442894,19.819776888222805,23.267580687635473,22.247438584220617,22.768891367604738" style="stroke-width: 1; stroke: rgb(49, 239, 184); stroke-opacity: 1;"/></g></g></svg>