<svg xmlns:xlink="http://www.w3.org/1999/xlink" width="58.97218285395502" xmlns="http://www.w3.org/2000/svg" id="screenshot" version="1.1" viewBox="0 0 58.97218285395502 34.02461708792089" height="34.02461708792089" style="-webkit-print-color-adjust: exact;"><g id="shape-eb85b840-3ba3-11ec-a51e-9dc34ea791b7"><g id="shape-b0dba000-203d-11ec-9082-1597698bcafa" width="96" height="107" fill="none"><g id="shape-b0dba001-203d-11ec-9082-1597698bcafa"><path d="M11.602428229999532,20.291568315949007C12.960916013168571,20.24669422745046,14.141179330514206,20.10533780059268,14.676638164902215,20.052727380549186C16.10456041327143,19.9124312322283,18.070963388378914,19.66967240735903,18.249168931038184,19.122483239906614C18.646677342780094,17.901934389613416,17.3191062562164,17.646456981846313,15.343966676357923,17.293366035034524C12.691381181411998,16.819172878341305,13.000606671052992,15.525824876555816,12.892396662947249,14.10133068489904C12.752977507126161,12.26586466842582,11.976264750403061,10.955493769998611,10.058874331963125,10.687813096058562C8.163646789746963,10.423225671405817,9.307241769590291,7.14220610675784,13.94815843743254,5.840002658536832C18.335963374420317,4.608858362767023,18.1369352634365,0.45968491111943877,18.1369352634365,0.45968491111943877L0.02253717583607795,0.5287075987298522C0.02253717583607795,0.5287075987298522,-0.201505823088155,1.981172718064954,1.1450954357305818,3.617855622650495C2.4916961404132962,5.254519555618572,6.482940492021044,5.091933248100759,6.782266936438646,7.347466732296198C6.903558382827214,9.841104758467736,5.386938093889512,11.31541253859632,3.471298117719016,11.342865107160833C2.894864812137712,11.359739921989785,2.4408166919811265,11.827095340911,2.457125783851552,12.38677812241167C2.3485513314253694,13.394745944211536,4.045872147768023,13.099828102718675,3.977479116534596,13.540557924903624C3.8216582745326377,13.948220278864937,2.9234340028297083,13.295794177478456,2.4262748894752804,13.301790001375593C1.7737003729262142,13.320850822655302,1.2596836917227847,13.84995929680099,1.278190149449074,14.483554372968683C1.2966966071771822,15.117149449136377,1.8407191625456107,15.615335036715805,2.493293679092858,15.596274215436097C2.8382692138875427,15.590128420472865,3.741696825362851,15.053614229012055,3.778215936327797,15.320256576051179C3.0257684573089136,15.951439192582257,1.6696887978787345,16.079417680738516,1.6673134217226107,17.237363230858136C1.6927807600695814,18.108615185287817,2.4408558940331204,18.793648510606545,3.3382132606593586,18.767441710057938C3.9803081790623764,18.748662299559328,4.551440953339807,18.364524539005288,4.795581229286654,17.787227811149933C4.923075422147122,18.07200454201393,5.133965692954007,18.429043399181865,5.48648459906417,18.85442951049572C6.579269298622421,20.17316437001955,9.338281885929064,20.366357135433645,11.602428229999532,20.291568315949007ZZ" style="fill: rgb(250, 181, 245);"/></g><g id="shape-b0dba002-203d-11ec-9082-1597698bcafa"><path d="M7.712493137448291,16.384882897215903C8.22060129816873,16.26488729558423,8.730376864877144,16.57487873194532,8.851122116916486,17.077262923658964C8.971867368955827,17.5796471153717,8.657863708508557,18.084172518390005,8.149774775086371,18.204167558417794C7.641685841662365,18.32416259844649,7.131891601792631,18.014190695305842,7.0111271224532175,17.51180706519608C6.890381870413876,17.009422873482436,7.204404204025195,16.5048779372446,7.712493137448291,16.384882897215903ZZ" style="stroke-width: 1; stroke: white;"/></g><g id="shape-b0dba003-203d-11ec-9082-1597698bcafa"><path d="M11.62489851619921,14.35853514835253C11.35657339698355,13.501041460594934,10.19153944293339,12.188607512239287,8.217901638866351,12.653619115013498C6.244225934334281,13.118650812612032,6.052639608601567,14.750722925936316,6.136035752130738,15.651802609506376" style="stroke-width: 1; stroke: white;"/></g></g><g id="shape-b0db51e2-203d-11ec-9082-1597698bcafa" width="115" height="120" fill="none"><g id="shape-b0db51e3-203d-11ec-9082-1597698bcafa"><path d="M11.862488256153483,33.44176202408926C11.862488256153483,33.44176202408926,12.720858484571181,32.75523040951248,13.934561097473306,32.52559708435092C15.14800775439653,32.29595331943892,16.28633969733437,32.519877155494214,17.555732194004122,31.44243093701425C19.25077445484021,30.306307060002837,19.604498278119536,29.670298733458367,21.744686454309885,29.41058909865751C21.748427728013667,29.411412302943063,21.752607803228784,29.41310729972338,21.756242686970836,29.41353853720284C24.536115188825534,29.28649019546083,25.42349476720574,30.10620787359403,27.339726143596636,28.954393522506507C29.776074386950313,27.383174235832485,30.87042639316587,24.645090640943636,30.87042639316587,24.645090640943636C30.87042639316587,24.645090640943636,32.560869444102536,25.41593965926313,33.42132107923044,23.88239665101355C34.37427833597303,22.183996371969442,32.65875281433091,21.112831953188106,32.65875281433091,21.112831953188106C32.65875281433091,21.112831953188106,33.75616983587042,19.04099628127642,33.396495907522876,16.937653855710778C33.03679352785639,14.834310888907567,31.49985713935439,9.867588190292736,33.96985902130382,7.519240112443185C36.439831392597625,5.17094717933378,39.62406153370375,6.287013782447502,41.543234103569375,4.94632804066805C43.462404769558816,3.6055029973431374,43.10938507854735,1.308429823023289,43.05614581108421,0.8380928838105319L20.945462012953612,0.3940772500991443C20.945462012953612,0.3940772500991443,20.08353328726571,2.8610597900396897,21.385402509807136,6.137281123427783C22.953890361616686,10.084290547728415,27.122847892113896,8.282234895295915,27.53922581238112,10.844449001665453C27.96722529724684,13.477993064753718,23.125505664976117,11.685597013266488,20.995617482902162,14.889877975623676C19.67767116853338,17.514245513254536,19.350913140146076,20.199304066902187,19.496309586239477,22.535516245649887C19.083635969228453,22.45218400806516,18.229497598650596,22.316306527788583,17.081936918714746,22.80193108756157C15.748075041364245,23.366400943480585,16.066707484653307,24.100764348627308,14.91721829337348,23.667396037812978C13.198085012348201,23.01927890256229,12.69832182250775,23.28738323937887,12.69832182250775,23.28738323937887L12.989709489632332,24.7417593044529C12.989709489632332,24.7417593044529,14.029680175022804,24.877300359987203,15.198522096505258,25.14765074324623C16.801622665479044,25.69674329372083,17.123839654822405,23.98350321536236,18.40164744628146,24.140865480624598C19.679454708073536,24.2982555888766,19.843586707032046,25.03767370926198,19.509293705705204,24.99936687387435C16.826892835210856,25.059583792552985,16.326642922234896,26.304820107568048,14.796612269684374,26.860906716242425C13.244301093597642,27.337438916386418,13.311327268941568,27.000856295876474,12.100544143643674,27.032136633994924C10.889761548010028,27.063389129124516,10.17180504587759,27.75973368625546,10.17180504587759,27.75973368625546L10.60825193497385,29.383681270409397C12.207860084071399,28.168382814229517,13.977830309116143,28.710037765048583,14.95019719211541,28.552726882761817C17.055770143609152,28.228993027180877,18.060223647094062,26.43286111528778,19.879289130808502,26.982051198390764C17.174564387546525,28.35790077846741,17.6156913365503,29.39471121700626,16.401060728815537,30.180318637150776C15.57340121458492,30.690272543393803,14.352679667234952,30.97019196380643,13.402935042721765,31.072394184778204C12.453218710631518,31.174605299886025,11.007620191900969,31.92440346652984,11.007620191900969,31.92440346652984L11.862488256153483,33.44176202408926ZZ" style="fill: rgb(177, 247, 228);"/></g><g id="shape-b0db78f0-203d-11ec-9082-1597698bcafa"><path d="M26.367916328853426,21.541864617553983C25.752024052399975,21.08463850960743,24.874335589572183,21.20375348989637,24.407570785845564,21.80789217873189C23.940805982118945,22.41203086756559,24.061708216018815,23.272455921102846,24.677600492472266,23.7296820290494C25.293520690584955,24.186936521225107,26.17118070208835,24.06782099969587,26.63794550581588,23.46368231086126C27.104710839209474,22.859515779037793,26.983808605308695,21.999090725500537,26.367916328853426,21.541864617553983ZZ" style="stroke-width: 1; stroke: white;"/></g><g id="shape-b0db78f1-203d-11ec-9082-1597698bcafa"><path d="M22.290717374941778,16.541050556460505C23.171689612726368,15.546130552717841,25.542000733571513,14.462977670812506,27.935050108374526,16.237591904608962C30.328155856159356,18.01223506387396,29.602746949540233,20.315197630069633,28.945962813088045,21.476403721246243" style="stroke-width: 1; stroke: white;"/></g></g><g id="shape-b0dab5a0-203d-11ec-9082-1597698bcafa" width="101" height="114" fill="none"><g id="shape-b0dab5a1-203d-11ec-9082-1597698bcafa"><path d="M37.367513280913045,20.133292488741972C37.367513280913045,20.133292488741972,34.47324632323307,22.30653980059742,34.84863363869499,25.356438180496298C35.22402695335495,28.406336462321633,41.879424902602295,29.294056176220693,46.87282537913052,28.083008645277005C51.86624767451667,26.871984813337804,53.880832984758854,30.625859726819726,53.880832984758854,30.625859726819726L53.83623996239021,23.91664163630867C53.83623996239021,23.91664163630867,54.781440392099285,26.233739014499406,56.225371174116844,26.940924119365263C57.66919482759022,27.64811097553593,58.90788052119842,27.487660368157776,58.90788052119842,27.487660368157776L58.62188616189542,9.114836810032102C58.62188616189542,9.114836810032102,54.141558755091864,8.717594259259386,52.30578058531046,11.639492813587822C50.469980989820215,14.561391718178129,51.2541616945864,15.029686005809708,50.53323418202672,14.72450496800684C49.81228560116779,14.419346143432449,50.138951377463854,8.829826936177597,50.138951377463854,8.829826936177597C50.138951377463854,8.829826936177597,47.311935842496496,11.134827867714193,42.57887875848883,12.341595327473442C37.84582203188893,13.548384650201115,30.80430857443207,16.918822766548146,37.367513280913045,20.133292488741972ZZ" style="fill: rgb(250, 181, 245);"/></g><g id="shape-b0dab5a2-203d-11ec-9082-1597698bcafa"><path d="M43.78310756909741,21.898392426751343C43.71040464575253,21.169031458118297,43.07154757977423,20.637631775699447,42.35613013401144,20.711456496497703C41.64073411395748,20.785280867036818,41.11970689025202,21.43636973165303,41.19238874529674,22.165752913514552C41.265091668642526,22.895113882149417,41.9039494494391,23.426557290502387,42.61936689520098,23.35273256970413C43.33476255784535,23.278886336197502,43.85578942414304,22.627775608613774,43.78310756909741,21.898392426751343ZZ" style="stroke-width: 1; stroke: white;"/></g><g id="shape-b0dab5a3-203d-11ec-9082-1597698bcafa"><path d="M44.564542765303486,15.866730564347563C45.95380390293849,15.817601817573632,48.460070218461624,16.85388775037427,48.7739403824462,20.003267049277383C49.087810903840364,23.152668211146192,46.79729976525141,24.281104032503208,45.437423948055766,24.625374981523237" style="stroke-width: 1; stroke: white;"/></g></g></g></svg>