<svg xmlns:xlink="http://www.w3.org/1999/xlink" width="58.97218209120183" xmlns="http://www.w3.org/2000/svg" id="screenshot" version="1.1" viewBox="0 0 58.97218209120183 34.02461765404769" height="34.02461765404769" style="-webkit-print-color-adjust: exact;"><g id="shape-56b9b850-3ba4-11ec-a51e-9dc34ea791b7"><g id="shape-0431a4b0-2044-11ec-9082-1597698bcafa" width="96" height="107" fill="none"><g id="shape-0431a4b1-2044-11ec-9082-1597698bcafa"><path d="M11.602428230001351,20.29156831594628C12.96091601317039,20.246694227447506,14.141179330516024,20.105337800590405,14.676638164904034,20.052727380546685C16.104560413273248,19.912431232226254,18.070963388380733,19.669672407356757,18.249168931040003,19.122483239904568C18.646677342781913,17.90193438961137,17.31910625621822,17.646456981843585,15.343966676359742,17.293366035031795C12.691381181413817,16.819172878339486,13.000606671054811,15.52582487655286,12.892396662949068,14.101330684896084C12.75297750712798,12.265864668423092,11.97626475040488,10.955493769995883,10.058874331964944,10.687813096056516C8.163646789748782,10.423225671403543,9.30724176959211,7.142206106756021,13.948158437434358,5.840002658534331C18.335963374422136,4.60885836276384,18.136935263438318,0.4596849111167103,18.136935263438318,0.4596849111167103L0.02253717583789694,0.5287075987273511C0.02253717583789694,0.5287075987273511,-0.20150582308633602,1.9811727180626804,1.1450954357324008,3.6178556226475393C2.4916961404151152,5.254519555615843,6.482940492022863,5.0919332480982575,6.782266936440465,7.347466732293697C6.903558382829033,9.84110475846569,5.386938093891331,11.315412538593364,3.471298117720835,11.342865107158332C2.894864812139531,11.359739921987739,2.4408166919829455,11.827095340908727,2.457125783853371,12.386778122409396C2.3485513314271884,13.394745944208807,4.045872147769842,13.099828102716401,3.977479116536415,13.540557924901123C3.8216582745344567,13.948220278861754,2.9234340028315273,13.295794177475727,2.4262748894770994,13.30179000137241C1.7737003729280332,13.320850822652574,1.2596836917246037,13.84995929679826,1.278190149450893,14.483554372966182C1.2966966071790011,15.117149449134331,1.8407191625474297,15.615335036713759,2.493293679094677,15.596274215433596C2.8382692138893617,15.590128420470364,3.74169682536467,15.0536142290091,3.778215936329616,15.320256576048678C3.0257684573107326,15.951439192579983,1.6696887978805535,16.07941768073647,1.6673134217244296,17.237363230855635C1.6927807600714004,18.10861518528486,2.4408558940349394,18.793648510604044,3.3382132606611776,18.76744171005521C3.9803081790641954,18.748662299556827,4.551440953341626,18.36452453900256,4.795581229288473,17.78722781114743C4.923075422148941,18.072004542010973,5.133965692955826,18.429043399179818,5.486484599065989,18.85442951049299C6.57926929862424,20.17316437001682,9.338281885930883,20.366357135430917,11.602428230001351,20.29156831594628ZZ" style="fill: rgb(255, 255, 255);"/></g><g id="shape-0431a4b2-2044-11ec-9082-1597698bcafa"><path d="M7.71249313745011,16.384882897213856C8.22060129817055,16.264887295582184,8.730376864878963,16.57487873194259,8.851122116918305,17.077262923656008C8.971867368957646,17.579647115369426,8.657863708510376,18.084172518387504,8.14977477508819,18.204167558415747C7.641685841664184,18.324162598443763,7.13189160179445,18.01419069530357,7.011127122455036,17.51180706519358C6.890381870415695,17.009422873480162,7.204404204027014,16.504877937241872,7.71249313745011,16.384882897213856ZZ" style="stroke-width: 1; stroke: rgb(49, 239, 184); stroke-opacity: 1;"/></g><g id="shape-0431a4b3-2044-11ec-9082-1597698bcafa"><path d="M11.624898516201029,14.358535148349802C11.356573396985368,13.501041460592432,10.191539442935209,12.188607512236104,8.21790163886817,12.653619115011224C6.2442259343361,13.11865081260953,6.052639608603386,14.750722925934042,6.136035752132557,15.651802609503648" style="stroke-width: 1; stroke: rgb(49, 239, 184); stroke-opacity: 1;"/></g></g><g id="shape-0431a4b4-2044-11ec-9082-1597698bcafa" width="115" height="120" fill="none"><g id="shape-0431a4b5-2044-11ec-9082-1597698bcafa"><path d="M11.862488256155302,33.441762024086756C11.862488256155302,33.441762024086756,12.720858484573,32.75523040950952,13.934561097475125,32.52559708434819C15.14800775439835,32.29595331943665,16.28633969733619,32.51987715549126,17.55573219400594,31.442430937011977C19.25077445484203,30.306307060000336,19.604498278121355,29.67029873345541,21.744686454311704,29.410589098655237C21.748427728015486,29.411412302940562,21.752607803230603,29.413107299721332,21.756242686972655,29.41353853720034C24.536115188827353,29.286490195458327,25.423494767207558,30.106207873591757,27.339726143598455,28.95439352250378C29.776074386952132,27.38317423583021,30.87042639316769,24.645090640941135,30.87042639316769,24.645090640941135C30.87042639316769,24.645090640941135,32.560869444104355,25.415939659260175,33.42132107923226,23.882396651011277C34.37427833597485,22.183996371967396,32.65875281433273,21.112831953185605,32.65875281433273,21.112831953185605C32.65875281433273,21.112831953185605,33.75616983587224,19.040996281273465,33.396495907524695,16.937653855708504C33.03679352785821,14.834310888904838,31.49985713935621,9.867588190290235,33.96985902130564,7.519240112441139C36.439831392599444,5.170947179330824,39.62406153370557,6.287013782444774,41.543234103571194,4.946328040665321C43.462404769560635,3.6055029973408637,43.10938507854917,1.3084298230205604,43.056145811086026,0.8380928838082582L20.94546201295543,0.3940772500964158C20.94546201295543,0.3940772500964158,20.083533287267528,2.8610597900371886,21.385402509808955,6.13728112342551C22.953890361618505,10.084290547725914,27.122847892115715,8.282234895293414,27.539225812382938,10.844449001662952C27.96722529724866,13.477993064751672,23.125505664977936,11.685597013264214,20.99561748290398,14.889877975621175C19.6776711685352,17.514245513251808,19.350913140147895,20.199304066899458,19.496309586241296,22.535516245647386C19.083635969230272,22.45218400806266,18.229497598652415,22.316306527785628,17.081936918716565,22.80193108755907C15.748075041366064,23.36640094347831,16.066707484655126,24.100764348625034,14.9172182933753,23.66739603781093C13.19808501235002,23.019278902559563,12.69832182250957,23.287383239375913,12.69832182250957,23.287383239375913L12.989709489634151,24.741759304450397C12.989709489634151,24.741759304450397,14.029680175024623,24.8773003599847,15.198522096507077,25.147650743244185C16.801622665480863,25.696743293718782,17.123839654824224,23.983503215360088,18.401647446283278,24.140865480622324C19.679454708075355,24.29825558887387,19.843586707033865,25.037673709259252,19.509293705707023,24.999366873871622C16.826892835212675,25.05958379255094,16.326642922236715,26.304820107565547,14.796612269686193,26.86090671624038C13.24430109359946,27.33743891638369,13.311327268943387,27.000856295873973,12.100544143645493,27.032136633992423C10.889761548011847,27.063389129121788,10.17180504587941,27.759733686253185,10.17180504587941,27.759733686253185L10.60825193497567,29.38368127040735C12.207860084073218,28.16838281422679,13.977830309117962,28.710037765045854,14.95019719211723,28.552726882758634C17.05577014361097,28.22899302717792,18.06022364709588,26.432861115284823,19.87928913081032,26.982051198388262C17.174564387548344,28.35790077846491,17.615691336552118,29.394711217003987,16.401060728817356,30.180318637148275C15.573401214586738,30.69027254339153,14.352679667236771,30.9701919638037,13.402935042723584,31.072394184775703C12.453218710633337,31.174605299883524,11.007620191902788,31.924403466527338,11.007620191902788,31.924403466527338L11.862488256155302,33.441762024086756ZZ" style="fill: rgb(255, 255, 255);"/></g><g id="shape-0431a4b6-2044-11ec-9082-1597698bcafa"><path d="M26.367916328855245,21.541864617551028C25.752024052401794,21.084638509604474,24.874335589574002,21.203753489894325,24.407570785847383,21.807892178728707C23.940805982120764,22.412030867562862,24.061708216020634,23.272455921100345,24.677600492474085,23.729682029047126C25.293520690586774,24.18693652122238,26.17118070209017,24.067820999693367,26.637945505817697,23.463682310858985C27.104710839211293,22.859515779035064,26.983808605310514,21.99909072549758,26.367916328855245,21.541864617551028ZZ" style="stroke-width: 1; stroke: rgb(49, 239, 184); stroke-opacity: 1;"/></g><g id="shape-0431a4b7-2044-11ec-9082-1597698bcafa"><path d="M22.290717374943597,16.541050556458003C23.171689612728187,15.546130552714885,25.54200073357333,14.462977670809778,27.935050108376345,16.23759190460669C30.328155856161175,18.012235063871458,29.602746949542052,20.315197630067587,28.945962813089864,21.47640372124374" style="stroke-width: 1; stroke: rgb(49, 239, 184); stroke-opacity: 1;"/></g></g><g id="shape-0431a4b8-2044-11ec-9082-1597698bcafa" width="101" height="114" fill="none"><g id="shape-0431a4b9-2044-11ec-9082-1597698bcafa"><path d="M37.367513280914864,20.133292488739926C37.367513280914864,20.133292488739926,34.47324632323489,22.306539800594464,34.84863363869681,25.35643818049425C35.22402695335677,28.406336462319132,41.879424902604114,29.29405617621819,46.87282537913234,28.083008645274504C51.86624767451849,26.871984813334848,53.88083298476067,30.625859726817225,53.88083298476067,30.625859726817225L53.83623996239203,23.916641636305712C53.83623996239203,23.916641636305712,54.7814403921011,26.233739014496905,56.22537117411866,26.940924119363217C57.66919482759204,27.648110975533427,58.90788052120024,27.48766036815573,58.90788052120024,27.48766036815573L58.62188616189724,9.114836810030056C58.62188616189724,9.114836810030056,54.14155875509368,8.71759425925643,52.30578058531228,11.63949281358532C50.469980989822034,14.561391718175628,51.25416169458822,15.029686005807207,50.53323418202854,14.724504968003885C49.812285601169606,14.419346143429948,50.13895137746567,8.829826936175095,50.13895137746567,8.829826936175095C50.13895137746567,8.829826936175095,47.311935842498315,11.134827867711692,42.578878758490646,12.341595327470941C37.84582203189075,13.548384650198614,30.80430857443389,16.918822766545645,37.367513280914864,20.133292488739926ZZ" style="fill: rgb(255, 255, 255);"/></g><g id="shape-0431a4ba-2044-11ec-9082-1597698bcafa"><path d="M43.78310756909923,21.898392426748387C43.71040464575435,21.16903145811534,43.07154757977605,20.6376317756974,42.356130134013256,20.711456496495202C41.6407341139593,20.785280867033862,41.11970689025384,21.43636973165053,41.19238874529856,22.165752913512506C41.265091668644345,22.89511388214646,41.903949449440915,23.426557290499886,42.6193668952028,23.352732569701175C43.33476255784717,23.278886336195,43.85578942414486,22.627775608611273,43.78310756909923,21.898392426748387ZZ" style="stroke-width: 1; stroke: rgb(49, 239, 184); stroke-opacity: 1;"/></g><g id="shape-0431cbc0-2044-11ec-9082-1597698bcafa"><path d="M44.564542765305305,15.866730564345517C45.95380390294031,15.817601817570676,48.46007021846344,16.85388775037177,48.77394038244802,20.003267049274427C49.08781090384218,23.152668211144146,46.79729976525323,24.281104032500707,45.437423948057585,24.625374981520736" style="stroke-width: 1; stroke: rgb(49, 239, 184); stroke-opacity: 1;"/></g></g></g></svg>