<svg xmlns:xlink="http://www.w3.org/1999/xlink" width="260.9015506822461" xmlns="http://www.w3.org/2000/svg" height="402.96093918234305" id="screenshot-a1bfc440-02bc-11ed-9a39-e16fc89e0613" viewBox="0 0 260.902 402.961" style="-webkit-print-color-adjust: exact;" fill="none" version="1.1"><g id="shape-a1bfc440-02bc-11ed-9a39-e16fc89e0613" rx="0" ry="0"><g id="shape-045e60a0-02ba-11ed-9a39-e16fc89e0613"><g id="fills-045e60a0-02ba-11ed-9a39-e16fc89e0613"><path rx="0" ry="0" d="M238.27451822770945,222.79883003154646C238.27451822770945,222.79883003154646,234.92931830453017,174.96024236818766,217.95271200575098,159.39663210776484C197.88990572390503,140.99467857580612,174.2400759838074,138.16414419244506,174.05921574794866,117.83876422045046C173.88661629228045,97.51417188739083,184.48392252105077,91.2211885029601,190.03865646461418,75.81185455941386C200.1764535193197,47.68269210715334,184.8417191594699,31.07341696536764,184.8417191594699,31.07341696536764C184.28712697855917,31.112197828507988,200.2322348026637,42.28844890197388,199.29546111344553,73.9159989701302C198.31415373068194,107.04710495453855,236.6413714225182,122.38562430896786,248.58691215973704,94.9707686886045C248.58691215973704,94.9707686886045,230.08933229815193,105.74521780380542,227.3805283842712,67.00751707653103C225.61747578887935,41.931595175379016,235.11015740243147,26.55621643540212,216.2499690554896,13.35376766538434C197.3802549217571,0.15199865615795716,178.25806172599368,20.072872988970857,178.25806172599368,20.072872988970857C178.25806172599368,20.072872988970857,162.01494936367635,-0.2955137678018218,132.7987838559029,9.203254274472329C97.19486795131525,20.78072279831713,112.36598543171749,45.6113994979512,106.01250380056808,58.467588387980186C99.65970740091325,71.32379762640198,94.26614341826098,71.29901129170776,97.86269998072476,86.23724264456291C104.88232858297033,115.42230317019721,137.44491717595247,120.0224808267435,139.25439667033243,145.89924317423424C140.87538475880683,169.08045283363163,93.75745577891303,177.16652580024424,88.62243693932942,203.58487162402366C85.11266866414371,224.58337332486622,90.68767190986637,233.11910767935024,90.68767190986637,233.11910767935024L238.27451822770945,222.79883003154646ZL238.27451822770945,222.79883003154646Z" style="fill: rgb(49, 239, 184);"/></g></g><g id="shape-045eaec0-02ba-11ed-9a39-e16fc89e0613"><g id="fills-045eaec0-02ba-11ed-9a39-e16fc89e0613"><path fill="none" rx="0" ry="0" d="M147.94321471471812,64.52826520184726C143.53261165075946,64.75087559896997,139.77050366989988,61.35476810720479,139.54879482890738,56.941751161393086C139.32713249221615,52.52939925818055,142.72330595494986,48.77140707496369,147.13391366933593,48.54886318210174C151.5445213837238,48.32631928923843,155.30662471415144,51.72236027674421,155.5283382055777,56.1354437268169C155.74999589183426,60.54772912576732,152.35315737823476,64.30576781387163,147.94321471471812,64.52826520184726ZZ" style="fill: none;"/></g><g id="strokes-045eaec0-02ba-11ed-9a39-e16fc89e0613"><g class="stroke-shape"><path rx="0" ry="0" d="M147.94321471471812,64.52826520184726C143.53261165075946,64.75087559896997,139.77050366989988,61.35476810720479,139.54879482890738,56.941751161393086C139.32713249221615,52.52939925818055,142.72330595494986,48.77140707496369,147.13391366933593,48.54886318210174C151.5445213837238,48.32631928923843,155.30662471415144,51.72236027674421,155.5283382055777,56.1354437268169C155.74999589183426,60.54772912576732,152.35315737823476,64.30576781387163,147.94321471471812,64.52826520184726ZZ" style="fill: none; stroke-width: 6; stroke: rgb(48, 50, 54); stroke-opacity: 1;"/></g></g></g><g id="shape-045fe740-02ba-11ed-9a39-e16fc89e0613"><g id="fills-045fe740-02ba-11ed-9a39-e16fc89e0613"><path fill="none" rx="0" ry="0" d="M111,76.8366060559265C112.04292962429008,85.76877488127002,120.86454534416589,100.8104140444409,140.6208299320515,99.81906192022893C160.37784747825208,98.82833587221921,165.1301860556996,83.10505856752548,165.9416100096514,74.08094796920886" style="fill: none;"/></g><g id="strokes-045fe740-02ba-11ed-9a39-e16fc89e0613"><g class="stroke-shape"><path rx="0" ry="0" d="M111,76.8366060559265C112.04292962429008,85.76877488127002,120.86454534416589,100.8104140444409,140.6208299320515,99.81906192022893C160.37784747825208,98.82833587221921,165.1301860556996,83.10505856752548,165.9416100096514,74.08094796920886" style="fill: none; stroke-width: 6; stroke: rgb(48, 50, 54); stroke-opacity: 1;"/></g></g></g><g id="shape-04611fc0-02ba-11ed-9a39-e16fc89e0613"><g id="fills-04611fc0-02ba-11ed-9a39-e16fc89e0613"><path rx="0" ry="0" d="M182.20616877062912,285.7870430372775C188.92557630098327,226.01681626080767,129.17762243375728,222.5238518649155,108.50285355163123,220.55266905277153C99.66850103125034,219.71004260944733,96.62555062457795,203.1840996245487,101.09269647725796,199.10698209379302C107.20249605597928,193.52773620882385,132.83524299959936,187.14368502687807,139.7063163262519,158.05006296818306C144.85691798627977,136.27684703753903,127.27614792722215,110.42520395685165,97.52111804392098,110.95733767523075C67.75927582783606,111.4899477583242,60.03464567839728,127.75059608451011,60.03464567839728,127.75059608451011C60.03464567839728,127.75059608451011,63.96462403444639,116.50069122444461,53.48713042154759,109.82071852365084C42.0575192645847,102.53146085743401,29.433982182983527,109.67258498914407,29.413641633287625,121.56893176045742C29.392185131022416,136.13464157139765,43.42515067848126,139.7511463616538,43.42515067848126,139.7511463616538C43.42515067848126,139.7511463616538,41.16213783618423,138.16745423705265,31.16683077513244,135.38251939812903C21.171455590749247,132.59758932285308,11.61127492597916,137.48119442081997,10.320194278678173,148.45362980220125C9.069007549810522,159.06655080492988,17.17521807918638,165.2009404658229,24.993885610241705,164.8482860898339C24.993885610241705,164.8482860898339,16.691663333992437,166.65208547426914,14.601818864048255,175.0261252339874C13.197858495868786,180.65148278839706,13.121749290519801,188.51773302638094,23.436687039122262,191.30081853125057C31.34006083485383,193.43316355878255,41.798332272429434,186.51247100102182,41.798332272429434,186.51247100102182C41.798332272429434,186.51247100102182,33.51656076628842,189.33512770974107,34.225166055308364,199.1788795593552C34.88977341444843,208.4120321775399,43.53795655642716,211.3902572985612,50.3262815019616,208.56269163502589C55.50317053444087,206.40613057743803,58.46584680914293,200.63829133478066,58.46584680914293,200.63829133478066C58.46584680914293,200.63829133478066,62.87306268145494,210.2712477865125,61.25172097892846,216.82616949792828C58.23940215672246,229.01100793215642,36.073927011218075,225.6173929782342,30.8833881145365,269.29306723876266C18.667836833072215,371.93017574047985,10.70393999301541,392.6081825155609,31.58740798391682,392.6081825155609C77.51906137587412,392.608182515562,103.08104267279941,392.6081825155609,156.00510111487347,392.6081825155609C176.5200417924725,392.6081825155609,180.50749434318277,300.898515048023,182.20616877062912,285.7870430372775ZL182.20616877062912,285.7870430372775Z" style="fill: rgb(255, 255, 255);"/></g></g><g id="shape-04616de0-02ba-11ed-9a39-e16fc89e0613"><g id="fills-04616de0-02ba-11ed-9a39-e16fc89e0613"><path fill="none" rx="0" ry="0" d="M98.8341118225253,142.82702514062248C94.81380557314878,144.64524217780217,90.07207133178508,142.85563255977286,88.25415358325517,138.82993798965026C86.4288738390187,134.80408992048842,88.21214623296237,130.06745355285284,92.23986098274236,128.25005506271737C96.26686418319696,126.43203802902872,101.0019014734853,128.22144764356653,102.82646966840093,132.24667716917565C104.64509896625168,136.27299028285142,102.86178006762202,141.00896160248203,98.8341118225253,142.82702514062248ZZ" style="fill: none;"/></g><g id="strokes-04616de0-02ba-11ed-9a39-e16fc89e0613"><g class="stroke-shape"><path rx="0" ry="0" d="M98.8341118225253,142.82702514062248C94.81380557314878,144.64524217780217,90.07207133178508,142.85563255977286,88.25415358325517,138.82993798965026C86.4288738390187,134.80408992048842,88.21214623296237,130.06745355285284,92.23986098274236,128.25005506271737C96.26686418319696,126.43203802902872,101.0019014734853,128.22144764356653,102.82646966840093,132.24667716917565C104.64509896625168,136.27299028285142,102.86178006762202,141.00896160248203,98.8341118225253,142.82702514062248ZZ" style="fill: none; stroke-width: 6; stroke: rgb(48, 50, 54); stroke-opacity: 1;"/></g></g></g><g id="shape-0461bc00-02ba-11ed-9a39-e16fc89e0613"><g id="fills-0461bc00-02ba-11ed-9a39-e16fc89e0613"><path fill="none" rx="0" ry="0" d="M64.84554643174215,164.9314900531524C68.91244102508153,172.53684648164563,82.16608916482801,182.82372135388846,99.7126462626793,174.89859869685483C117.2524199538475,166.97395038182458,116.05604851108455,151.23953189602707,113.63254564139152,142.89210382704277" style="fill: none;"/></g><g id="strokes-0461bc00-02ba-11ed-9a39-e16fc89e0613"><g class="stroke-shape"><path rx="0" ry="0" d="M64.84554643174215,164.9314900531524C68.91244102508153,172.53684648164563,82.16608916482801,182.82372135388846,99.7126462626793,174.89859869685483C117.2524199538475,166.97395038182458,116.05604851108455,151.23953189602707,113.63254564139152,142.89210382704277" style="fill: none; stroke-width: 6; stroke: rgb(48, 50, 54); stroke-opacity: 1;"/></g></g></g><g id="shape-04625840-02ba-11ed-9a39-e16fc89e0613"><g id="fills-04625840-02ba-11ed-9a39-e16fc89e0613"><path rx="0" ry="0" d="M139.88835487514643,191.4460190558691C117.39042084447829,193.01922785794977,91.43992745277774,194.80922057690123,88.34740392804724,206.24330830284407C85.06429753663815,218.38071434520225,95.21170950486157,221.37641971982998,110.80740579863505,223.85287184204594C136.75273580461635,227.96992306320612,127.60348383305154,238.47904327766923,129.23459032749906,252.492697331895C131.32970274452327,270.5508783046612,136.46851574090942,283.1589961222862,154.99214307066177,286.71212008067937C163.18787782516665,288.2829205270534,165.44559725034105,295.5650426511545,163.4064441161372,304.03270971109987C160.70081592206316,315.2720368213677,156.99553519091023,328.1419614250151,142.9902488131138,332.9799194312893C123.96364012600861,339.5535203408085,116.57924326545435,352.8273865342994,114.19289016643415,365.3796959661047C111.31280884002717,380.52903493552435,112.98150905203329,392.92685419171767,112.98150905203329,392.92685419171767C112.98150905203329,392.92685419171767,193.8172620264495,392.92685419171767,243.75778931222067,392.92685419171767C265.7247603502756,392.92685419171744,263.24682392833984,366.1587982796011,247.86730356494718,352.12356294624783C229.61961507157685,335.47005529042303,195.2623545325232,338.88600801354573,191.4397563687362,316.74501590014324C189.24431690028814,292.1868476428094,203.41457464214545,277.04498104157256,222.04268374997082,276.0237125644446C227.6516989382726,275.63080749884307,231.88259349996588,270.84248034481266,231.4968133360162,265.3255669717232C232.14158091072932,255.3372105814849,227.12977476888773,256.5850698196489,227.12977476888773,256.5850698196489C227.12977476888773,256.5850698196489,241.38165975023094,259.3745352920471,242.69870986326077,246.65860625022196C243.80912831520436,235.93606015371665,236.18282147505215,233.22542527501787,229.84373319646056,233.66869750896853C226.48647337004786,233.86512712637636,229.84373319646056,233.66869750896853,229.84373319646056,233.66869750896853C229.84373319646056,233.66869750896853,238.93395145035538,229.43591940750275,238.489046833065,218.0082433538355C237.88858446157064,209.42123137937483,229.0617412687934,202.09808642303597,220.33600523261975,202.70824932590767C214.09452481460266,203.1446961533461,208.6890070525269,207.1588322709124,206.54790899649288,212.9510123912562C205.19284948267432,210.1906538940384,201.89374830677843,187.11017956989258,139.88835487514643,191.4460190558691ZL139.88835487514643,191.4460190558691Z" style="fill: rgb(255, 140, 244);"/></g></g><g id="shape-0462a660-02ba-11ed-9a39-e16fc89e0613"><g id="fills-0462a660-02ba-11ed-9a39-e16fc89e0613"><path fill="none" rx="0" ry="0" d="M178.38119633503538,228.39374844745976C173.59057747835868,229.74230317822116,168.62226203978753,226.95695011803173,167.2792187349778,222.17406978608892C165.9274636724076,217.39117644068233,168.71580767530304,212.42081978798842,173.49709559842722,211.07229534075168C178.28709527930823,209.72378390697872,183.25532412452685,212.50789862454394,184.5984540226873,217.29201729911074C185.95078496437782,222.07424817621472,183.16190837903923,227.0458864685254,178.38119633503538,228.39374844745976ZZ" style="fill: none;"/></g><g id="strokes-0462a660-02ba-11ed-9a39-e16fc89e0613"><g class="stroke-shape"><path rx="0" ry="0" d="M178.38119633503538,228.39374844745976C173.59057747835868,229.74230317822116,168.62226203978753,226.95695011803173,167.2792187349778,222.17406978608892C165.9274636724076,217.39117644068233,168.71580767530304,212.42081978798842,173.49709559842722,211.07229534075168C178.28709527930823,209.72378390697872,183.25532412452685,212.50789862454394,184.5984540226873,217.29201729911074C185.95078496437782,222.07424817621472,183.16190837903923,227.0458864685254,178.38119633503538,228.39374844745976ZZ" style="fill: none; stroke-width: 6; stroke: rgb(48, 50, 54); stroke-opacity: 1;"/></g></g></g><g id="shape-0462f480-02ba-11ed-9a39-e16fc89e0613"><g id="fills-0462f480-02ba-11ed-9a39-e16fc89e0613"><path fill="none" rx="0" ry="0" d="M142.9708787036452,250.013527181761C145.78869710438084,258.1671822331077,157.05047162245774,270.3748770627458,175.04372816813157,265.18470724013287C193.04183003687285,259.994198599524,194.1518217190178,244.22090865814903,193.01870690459236,235.58018866942757" style="fill: none;"/></g><g id="strokes-0462f480-02ba-11ed-9a39-e16fc89e0613"><g class="stroke-shape"><path rx="0" ry="0" d="M142.9708787036452,250.013527181761C145.78869710438084,258.1671822331077,157.05047162245774,270.3748770627458,175.04372816813157,265.18470724013287C193.04183003687285,259.994198599524,194.1518217190178,244.22090865814903,193.01870690459236,235.58018866942757" style="fill: none; stroke-width: 6; stroke: rgb(48, 50, 54); stroke-opacity: 1;"/></g></g></g></g></svg>