<svg width="153" height="147" viewBox="0 0 153 147" fill="none" xmlns="http://www.w3.org/2000/svg">
<g clip-path="url(#clip0)">
<path d="M70.5135 99.0059C70.529 98.82 70.467 98.6604 70.4068 98.5492C70.3441 98.4335 70.2594 98.3258 70.1694 98.2284C69.989 98.0332 69.7381 97.8263 69.4428 97.6156C68.8483 97.1914 68.0077 96.7053 67.0112 96.2148C65.1445 95.2959 63.1127 93.8062 61.3099 92.1033C59.5061 90.3993 57.9598 88.5085 57.0442 86.8042C53.5473 80.2953 53.5473 71.9685 57.0442 65.4596C57.825 64.0061 59.3437 62.1456 61.0642 60.4368C62.7845 58.7281 64.658 57.2194 66.122 56.4435C67.3941 55.7692 69.6698 54.8942 71.1519 54.5108C76.4752 53.1337 82.7691 53.8725 87.6202 56.4435C89.0842 57.2194 90.9577 58.7281 92.678 60.4368C94.3984 62.1456 95.9171 64.0061 96.698 65.4596C100.195 71.9685 100.195 80.2953 96.698 86.8042C95.7732 88.5256 94.2227 90.4268 92.4365 92.1185C90.6505 93.81 88.6594 95.2632 86.8733 96.1086C86.0006 96.5216 85.1783 96.9408 84.5549 97.2846C84.244 97.4561 83.977 97.6119 83.7762 97.7408C83.6763 97.8048 83.5861 97.8666 83.5126 97.9234C83.4581 97.9655 83.3519 98.0495 83.2829 98.1605C83.2247 98.254 83.2127 98.3419 83.2091 98.3725C83.2044 98.4127 83.2052 98.4461 83.2062 98.4657C83.2082 98.5053 83.214 98.5403 83.218 98.5623C83.2267 98.6091 83.2398 98.6612 83.2536 98.7115C83.282 98.8152 83.3254 98.9556 83.381 99.1258C83.4927 99.4682 83.6614 99.9563 83.8781 100.567C84.312 101.789 84.9432 103.515 85.7072 105.575C87.2355 109.698 89.298 115.167 91.3836 120.642C93.4692 126.118 95.5785 131.6 97.2004 135.747C98.0113 137.821 98.7009 139.562 99.2051 140.803C99.4571 141.423 99.6638 141.921 99.8168 142.273C99.893 142.449 99.9578 142.593 100.009 142.699C100.035 142.752 100.059 142.801 100.082 142.843L100.084 142.846C100.098 142.87 100.14 142.947 100.204 143.01C100.32 143.126 100.457 143.175 100.559 143.199C100.664 143.224 100.772 143.231 100.872 143.229C101.071 143.227 101.307 143.191 101.561 143.137C102.073 143.027 102.742 142.821 103.514 142.542C105.061 141.982 107.075 141.11 109.182 140.064C128.347 130.546 142.719 112.267 147.23 91.6643C149.874 79.5875 149.22 65.4834 145.486 54.1211C135.009 22.2424 104.104 1.90846 70.6147 4.85626C47.5315 6.88809 27.6821 19.0565 15.4103 38.6988C1.56552 60.8588 1.33744 90.3375 14.8416 112.569C22.8864 125.812 35.0873 136.488 48.3172 141.837C49.2284 142.205 50.1442 142.542 50.8877 142.789C51.2591 142.912 51.5918 143.014 51.8618 143.086C52.1124 143.154 52.3613 143.21 52.5359 143.213C52.7592 143.217 52.9207 143.096 52.9979 143.03C53.089 142.951 53.1716 142.852 53.246 142.749C53.3968 142.542 53.5698 142.244 53.7678 141.862C54.1664 141.091 54.7034 139.904 55.4128 138.223C56.8334 134.858 58.9649 129.467 62.0964 121.368C64.3869 115.444 66.4759 109.981 67.9963 105.952C68.7564 103.937 69.3749 102.279 69.8055 101.101C70.0207 100.513 70.1897 100.042 70.3062 99.705C70.3644 99.537 70.4105 99.3994 70.4431 99.2959C70.4593 99.2445 70.4733 99.1977 70.4841 99.158C70.4912 99.1315 70.5082 99.0691 70.5135 99.0059ZM70.5135 99.0059L70.0152 98.9642L70.5135 99.0058C70.5135 99.0058 70.5135 99.0059 70.5135 99.0059Z" fill="white" stroke="#DB00FF"/>
<path d="M151.816 100.319C152.597 99.638 152.674 98.4568 151.988 97.6808C151.302 96.9049 150.113 96.828 149.332 97.5091C148.551 98.1903 148.473 99.3715 149.159 100.148C149.845 100.923 151.035 101 151.816 100.319Z" stroke="#31EFB8" stroke-linecap="round"/>
<path d="M145.575 69.0743H152.537V75.99H145.575V69.0743Z" stroke="#31EFB8" stroke-linecap="round"/>
<path d="M150.477 96.9794L147.635 48.7585" stroke="#31EFB8"/>
<path d="M146.27 48.318C145.489 47.6368 145.412 46.4556 146.097 45.6796C146.783 44.9036 147.973 44.8268 148.754 45.5079C149.535 46.1891 149.612 47.3703 148.926 48.1463C148.24 48.9222 147.051 48.9991 146.27 48.318Z" stroke="#31EFB8" stroke-linecap="round"/>
<path d="M1.16333 69.075L1.16333 75.9892H8.12611V69.075H1.16333Z" stroke="#31EFB8" stroke-linecap="round"/>
<path d="M3.22363 96.9794L6.06577 48.7585" stroke="#31EFB8"/>
<path d="M7.2933 48.2355C8.07444 47.5543 8.15159 46.3731 7.46565 45.5971C6.7797 44.8211 5.59039 44.7442 4.80926 45.4254C4.02813 46.1066 3.95097 47.2878 4.63692 48.0638C5.32287 48.8398 6.51217 48.9166 7.2933 48.2355Z" stroke="#31EFB8" stroke-linecap="round"/>
<path d="M1.64444 100.377C0.863306 99.6962 0.78613 98.515 1.47208 97.739C2.15803 96.963 3.34735 96.8861 4.12848 97.5673C4.90962 98.2485 4.98676 99.4297 4.30081 100.206C3.61486 100.982 2.42557 101.059 1.64444 100.377Z" stroke="#31EFB8" stroke-linecap="round"/>
<path d="M73.5375 1.12392L80.4912 1.44949L80.1634 8.35747L73.2097 8.0319L73.5375 1.12392Z" stroke="#31EFB8" stroke-linecap="round"/>
<path d="M101.165 4.21001L52.5356 4.75921" stroke="#31EFB8"/>
<path d="M52.0657 5.97548C51.3439 6.71839 50.1523 6.73932 49.4042 6.02223C48.6561 5.30514 48.6348 4.12159 49.3566 3.37867C50.0784 2.63576 51.27 2.61483 52.0181 3.33192C52.7662 4.04901 52.7876 5.23257 52.0657 5.97548Z" stroke="#31EFB8" stroke-linecap="round"/>
<path d="M104.227 5.22676C103.505 5.96967 102.314 5.9906 101.566 5.27351C100.818 4.55643 100.796 3.37287 101.518 2.62995C102.24 1.88704 103.432 1.86611 104.18 2.5832C104.928 3.30029 104.949 4.48385 104.227 5.22676Z" stroke="#31EFB8" stroke-linecap="round"/>
<path d="M96.8124 139.733V146.647H103.775V139.733H96.8124Z" stroke="#31EFB8" stroke-linecap="round"/>
<path d="M48.9878 139.733V146.647H55.9505V139.733H48.9878Z" stroke="#31EFB8" stroke-linecap="round"/>
<path d="M65.8671 95.0266V101.941H72.8298V95.0266H65.8671Z" stroke="#31EFB8" stroke-linecap="round"/>
<path d="M80.8708 95.0266V101.941H87.8336V95.0266H80.8708Z" stroke="#31EFB8" stroke-linecap="round"/>
<path d="M50.641 96.4773C49.8599 95.7961 49.7828 94.6149 50.4687 93.8389C51.1547 93.0629 52.3439 92.9861 53.1251 93.6672C53.9062 94.3484 53.9834 95.5296 53.2974 96.3056C52.6115 97.0816 51.4222 97.1585 50.641 96.4773Z" stroke="#31EFB8" stroke-linecap="round"/>
<path d="M56.8877 71.8685H49.9263V78.7841H56.8877V71.8685Z" stroke="#31EFB8" stroke-linecap="round"/>
<path d="M51.9858 93.2515L54.828 57.4011" stroke="#31EFB8"/>
<path d="M56.1728 56.8649C56.954 56.1837 57.0311 55.0025 56.3452 54.2265C55.6592 53.4506 54.4699 53.3737 53.6888 54.0548C52.9076 54.736 52.8305 55.9172 53.5164 56.6932C54.2024 57.4692 55.3917 57.5461 56.1728 56.8649Z" stroke="#31EFB8" stroke-linecap="round"/>
<path d="M96.6958 71.8685H103.657V78.7841H96.6958V71.8685Z" stroke="#31EFB8" stroke-linecap="round"/>
<path d="M101.715 93.2515L98.8727 57.4011" stroke="#31EFB8"/>
<path d="M97.528 57.0975C96.7469 56.4164 96.6697 55.2351 97.3557 54.4591C98.0416 53.6832 99.2309 53.6063 100.012 54.2875C100.793 54.9686 100.87 56.1498 100.184 56.9258C99.4984 57.7018 98.3091 57.7787 97.528 57.0975Z" stroke="#31EFB8" stroke-linecap="round"/>
<path d="M102.942 96.4772C103.723 95.796 103.801 94.6148 103.115 93.8388C102.429 93.0628 101.239 92.986 100.458 93.6671C99.6772 94.3483 99.6 95.5295 100.286 96.3055C100.972 97.0815 102.161 97.1583 102.942 96.4772Z" stroke="#31EFB8" stroke-linecap="round"/>
<path d="M73.3409 49.7435L80.3021 49.6866L80.3595 56.602L73.3983 56.659L73.3409 49.7435Z" stroke="#31EFB8" stroke-linecap="round"/>
<path d="M93.3248 52.6421L60.3757 53.1913" stroke="#31EFB8"/>
<path d="M60.0151 54.4005C59.2933 55.1434 58.1017 55.1644 57.3536 54.4473C56.6055 53.7302 56.5841 52.5466 57.306 51.8037C58.0278 51.0608 59.2194 51.0399 59.9675 51.757C60.7156 52.4741 60.7369 53.6576 60.0151 54.4005Z" stroke="#31EFB8" stroke-linecap="round"/>
<path d="M96.3535 53.8844C95.6316 54.6274 94.44 54.6483 93.6919 53.9312C92.9438 53.2141 92.9225 52.0305 93.6443 51.2876C94.3662 50.5447 95.5578 50.5238 96.3059 51.2409C97.054 51.958 97.0753 53.1415 96.3535 53.8844Z" stroke="#31EFB8" stroke-linecap="round"/>
</g>
<defs>
<clipPath id="clip0">
<rect width="152" height="146" fill="white" transform="translate(0.771118 0.880295)"/>
</clipPath>
</defs>
</svg>
