<svg xmlns:xlink="http://www.w3.org/1999/xlink" width="81.5877720738863" xmlns="http://www.w3.org/2000/svg" id="screenshot" version="1.1" viewBox="-0.43500565160593396 0.14985215967590193 81.5877720738863 128.8502825397186" height="128.8502825397186" style="-webkit-print-color-adjust: exact;"><g id="shape-305b39c3-25c6-11ec-9877-05429cda5971" width="90" height="140" fill="none"><g id="shape-305b39c4-25c6-11ec-9877-05429cda5971"><path d="M18.180074555850297,34.13571661820788C16.328443710368447,37.802933917027985,15.363633970810042,41.85364142381468,15.363541785663983,45.96187246179579C15.363449600517924,49.407753224720636,16.04230101673238,52.81989422415609,17.360917347203213,56.00341606115035C18.679625862816465,59.187030083290665,20.612379636906553,62.07970778419531,23.049017419827578,64.51634556711724C25.485655202748603,66.95298335003963,28.378332903652336,68.88573712412926,31.561946925794473,70.20444563974297C34.74556094793297,71.52306197021062,38.157794132515846,72.20182120128084,41.603674895442964,72.20182120128084C48.56282376312447,72.20172901613478,55.23693615892262,69.43709648322647,60.15777926017472,64.51616119682512C65.07871454658016,59.59522591042378,67.84316270919953,52.92102132947775,67.8430705240462,45.96187246179579C67.84316270919953,41.85373360896074,66.87872171022173,37.802933917027985,65.027275235032,34.13571661820788L18.180074555850297,34.13571661820788ZZ" style="fill: rgb(227, 227, 227); fill-opacity: 1;"/></g><g id="shape-305b39c5-25c6-11ec-9877-05429cda5971"><path d="M40.358622311596264,76.81790020937888C29.539497004501754,76.81799239452494,19.163413509784732,80.76582127821257,11.513152601448382,87.79300278375013C3.862873256086459,94.81972336355693,-0.4349826275210944,104.35074562355658,-0.43500383010177757,114.28922622951995C-0.4349070356984157,119.34558149560962,0.6793145450319571,124.34939122839569,2.840650607504358,129.00013185144462L77.87714712656452,129.00013185144462C80.03842787794929,124.34939122839569,81.15276192455713,119.34558149560962,81.15276192455713,114.28922622951995C81.15276192455713,109.36838312826512,80.09761074177368,104.49547630300549,78.04750527664146,99.94890489510135C75.99739981150924,95.40325533865871,72.99244060259662,91.27234675472573,69.20436857717868,87.79281841345801C65.41629655176075,84.31329007218983,60.919228567337996,81.55317461144296,55.96990025592095,79.67010863112546C51.02047975936148,77.78704265080796,45.715777709559916,76.81790020937888,40.358622311596264,76.81790020937888ZZ" style="fill: rgb(227, 227, 227); fill-opacity: 1;"/></g><g id="shape-305b39c6-25c6-11ec-9877-05429cda5971"><path d="M22.63741074228892,55.77654841648564C22.63741074228892,55.77654841648564,28.038261899520876,66.05546876716517,39.71092947477882,65.88123884095012C51.38359705003313,65.70700891473462,57.30695361562539,56.473468121347196,57.30695361562539,56.473468121347196" style="stroke-width: 2; stroke: white;"/></g><g id="shape-305b39c7-25c6-11ec-9877-05429cda5971"><path d="M33.141447219852125,53.60300704066367C36.667529059923254,53.60300704066367,39.52591388646397,50.77716357071449,39.52591388646397,47.29136663950885C39.52591388646397,43.805569708302755,36.667529059923254,40.97972623835358,33.141447219852125,40.97972623835358C29.615457564927056,40.97972623835358,26.75698055324392,43.805569708302755,26.75698055324392,47.29136663950885C26.75698055324392,50.77716357071449,29.615457564927056,53.60300704066367,33.141447219852125,53.60300704066367ZZ" style="fill: rgb(227, 227, 227); fill-opacity: 1; stroke-width: 2; stroke: white;"/></g><g id="shape-305b39c8-25c6-11ec-9877-05429cda5971"><path d="M52.22921139562823,5.9902455968044706C47.897615748537646,2.9522656685448965,42.82503589672706,1.0223696339853632,37.493231413951435,0.383799439228369C32.16142693117581,-0.2547744429339218,26.74730111289682,0.4191478335183092,21.76469396372704,2.341603604932061L64.9989743951628,32.66471824116161C65.42634473269572,27.547336408323645,64.47748302341643,22.41059569479512,62.24254634026147,17.742063338540447C60.007609657106514,13.073623167432288,56.56080704272608,9.028299273180437,52.22921139562823,5.9902455968044706ZZ" style="fill: rgb(227, 227, 227); fill-opacity: 1;"/></g></g></svg>