<svg xmlns:xlink="http://www.w3.org/1999/xlink" width="102.12322708597458" xmlns="http://www.w3.org/2000/svg" id="screenshot" version="1.1" viewBox="-0.2830548330293823 0.00013327541864782688 102.12322708597458 54.02153523420793" height="54.02153523420793" style="-webkit-print-color-adjust: exact;"><g id="shape-305b39ca-25c6-11ec-9877-05429cda5971" width="133" height="70" fill="none"><g id="shape-305b39cb-25c6-11ec-9877-05429cda5971"><path d="M92.06001883709541,52.780900512351764C92.66931429164106,49.56773051235177,86.02942338254798,47.840623239624165,83.94800520073477,47.06227823962445C89.18168701891409,45.781289603260575,101.50092247346038,49.98474823962442,101.82747470073446,46.54621233053331C102.1541065189158,43.10765323962414,96.1049138370945,39.43658051235161,92.18095065527814,37.78441233053354C88.2568870189134,36.13216687598788,82.26786429164349,34.273371421442334,83.30053701891302,33.860271421442576C84.33313247346086,33.4472486941695,93.48809610982426,36.99089869416957,94.37155520073429,34.2504214214423C95.25488292800583,31.510021421442616,89.671905200732,29.82478051235148,85.57220065527872,28.284194148715414C74.89666429164208,24.27258051235185,76.95853247345804,0.00013505780589184724,76.95853247345804,0.00013505780589184724L-0.28305389017623384,0.486489603260452C-0.28305389017623384,1.519162330533618,10.851173382550769,39.85655778507862,33.94041883709724,49.143364148715136C49.09020065527875,55.740090512351344,63.87718701891572,49.16363278507879,75.95035520072997,51.06297323962417C82.07081883709907,52.068059603260735,91.45064610982081,55.99406278507877,92.06001883709541,52.780900512351764ZZ" style="fill: rgb(227, 227, 227); fill-opacity: 1;"/></g><g id="shape-305b39cc-25c6-11ec-9877-05429cda5971"><path d="M39.658059746187064,27.905789603260928C42.341277928004274,26.911598694169697,45.32354156436486,28.28403960326068,46.31920065527811,30.971275966897338C47.314859746184084,33.658435057805946,45.946823382550065,36.64278505780612,43.263605200732854,37.6369759668969C40.580387018912006,38.631089603260534,37.59812338255142,37.258648694170006,36.60246429163817,34.57148960326049C35.6068052007322,31.884253239624286,36.974841564369854,28.89990323962411,39.658059746187064,27.905789603260928ZZ" style="stroke-width: 2; stroke: white;"/></g><g id="shape-305b39cd-25c6-11ec-9877-05429cda5971"><path d="M59.423496109822736,14.73643051235149C57.15994610982307,9.680012330533373,49.1343233825537,2.492953239624512,37.54835974618618,6.785685057806404C25.962164291642694,11.078494148715436,26.02405974618887,21.21628960326052,27.201927928006626,26.674912330533516" style="stroke-width: 2; stroke: white;"/></g></g></svg>