<svg xmlns="http://www.w3.org/2000/svg" fill="none" style="-webkit-print-color-adjust:exact" viewBox="0 0 48 48"><rect width="48" height="48" fill="#31efb8" rx="24" ry="24"/><g class="inner-stroke-shape"><defs><clipPath id="a"><use href="#stroke-shape-3fe79320-0e5a-11ed-8ef6-85a75a2eae6b--0"/></clipPath></defs><use clip-path="url('#a')" href="#stroke-shape-3fe79320-0e5a-11ed-8ef6-85a75a2eae6b--0"/></g><path fill="#fff" d="m4 8 2-2 15 4h6l15-4 2 2v28l-1 1-16 5h-6L5 37l-1-1V8Z"/><path fill="#000" fill-rule="evenodd" d="M20 38V13L7 9v26l13 3Zm1 4L5 37l-1-1V8l2-2 15 4h6l15-4 2 2v28l-1 1-16 5h-6Zm2-3h2V13h-2v26Zm5-26v25l13-3V9l-13 4Z" clip-rule="evenodd"/></svg>