<svg xmlns="http://www.w3.org/2000/svg" fill="none" style="-webkit-print-color-adjust:exact" viewBox="0 0 48 48"><rect width="48" height="48" fill="#31efb8" rx="24" ry="24"/><g fill="#000"><rect width="31" height="31" x="9" y="9" fill="none" rx="0" ry="0"/><path fill="#f5f7ff" d="M18 13v22l15-11-15-11Z"/><path d="M17 13v23l1 1 2-1 13-10 2-1-1-1-14-12h-2l-1 1Zm3 3 11 9h-1l-10 8Z"/></g><path fill="#fff" d="m5 9 1-1h36l2 1v30l-2 2H6l-1-2V9Z"/><path fill="#000" d="M21 18c-1-1-2 0-2 1v10c0 1 1 2 2 1l9-5v-2l-9-5Z"/><path fill="#000" fill-rule="evenodd" d="m5 9 1-1h36l2 1v30l-2 2H6l-1-2V9Zm2 29V10h34v28H7Z" clip-rule="evenodd"/></svg>