<svg height="500" width="500" xmlns="http://www.w3.org/2000/svg"><path d="M499.963 138.951c.92-15.98-15.647-29.97-31.334-25.607-8.65 4.13-29.786 24.567-29.786 24.567S314.235 262.451 250.29 323.039c-7.374 2.988-11.746-5.241-16.468-9.099-65.776-65.676-128.32-134.54-194.558-199.746C25.214 104.153 2.76 113.56.395 130.81c-2.132 11.186 4.678 21.436 12.904 28.266 65.465 69.318 132.004 137.627 198.04 206.412 8.141 7.657 15.294 16.969 25.014 22.61 12.025 5.093 25.682-1.092 33.082-11.041 75.378-74.274 150.948-148.38 224.898-224.07 3.303-3.903 5.912-8.78 5.63-14.036z"/></svg>