<svg xmlns="http://www.w3.org/2000/svg" viewBox="0 0 660 310"><path d="M534.51 162.17a12.54 12.54 0 0 0 .32-7c3.33-5 5.08-11.4 3.69-15.4a85.31 85.31 0 0 1-3.95-16 116.06 116.06 0 0 0 .08-22 10.05 10.05 0 0 0-1.79-5.26c2.58-4.85 4.9-12.45 1.5-17.26a7.06 7.06 0 0 0-1.89-1.89c4.4-5.87 9.76-22.82-3-21.19-15.13 1.93-30.52-.85-45.45-3.15a277.21 277.21 0 0 0-44.75-3.59c-30.26.28-60.43 4.24-90.63 5.82-61.64 3.24-123.32 2.19-184.95 1.4-34.05-.44-68.1-.77-102.16-.31-2.84-.24-5.69-.51-8.53-.81-10.92-1.18-22.26 23.09-12.27 27a22.89 22.89 0 0 0-5.33 13.7c-.29 6.2 2.85 9.65 7.2 11.73a22.16 22.16 0 0 0-6.14 11.68 124.1 124.1 0 0 0 1.68 47.46 6.23 6.23 0 0 0 5.25 4.78l1.53.06c-4 3.95-7.34 9-7.72 14.78-.25 3.92.76 8.83 5.51 9.38 29.49 3.43 59.17 2.46 88.82 1.82 32.42-.71 64.84-1.88 97.28-2.25 31.71-.35 63.45.08 95.09 2.49 16.33 1.25 32.53 2.52 48.93 2.51 15.67 0 31.34-.54 47-1.14 17.63-.68 35.27-1.51 52.92-1.25s35.13 2.44 52.53-1.35c9-1.95 14.54-14.13 13-22.43a57.77 57.77 0 0 0-3.77-12.33zm-188.77-76h-10.62l2.7-.13c16.81-.73 33.66-1 50.47-.2 6 .29 12 .75 18 1.32q-30.29-.85-60.55-.95zM145.28 173h.27a1.14 1.14 0 0 1-.36 0z" fill="#cecece"/><path d="M535.5 169.76q-.22-17-.47-33.92c-.3-21.34-1-42.73-.87-64.08 0-5.8 1.55-13.42-5-16.31-4.27-1.88-9.84-1.12-14.39-1.24-3-.08-6-.21-9.05-.24H151.75c-26.88 0-53.75.12-80.63.06-6.18 0-12.38-.18-18.56.17-3.37.19-7.41.39-10.07 2.75-3.38 3-2.25 7.14-2.37 11.17a.53.53 0 0 0 0 .18Q40 97 39.74 125.56l-.28 38c-.05 7.59-.78 16 .53 23.46 1.49 8.42 12.28 8.29 19 8.68 8.55.48 17.19-.06 25.76.19 2.44.07 4.9 0 7.34 0h42.07q74.9 0 149.8-.33l155.61-.39 49.35-.13h12.15c8.76 0 18.19.84 26.73-1s7.62-10.11 7.8-17.46c.05-2.35-.07-4.58-.1-6.82zm-2.16 6.76c-.06 2-.27 4-.41 6-.31 4.53-1 8.09-5.74 9.22-6.37 1.49-13.71.74-20.22.87-2.77.06-5.52.08-8.29.09l-36.52.08-140.83.35-155.95.41c-26.73.08-53.65 1.19-80.37.32-5.38-.18-10.61-.35-16-.11a90.85 90.85 0 0 1-18.57-.87c-3.41-.56-7.14-1.4-8.39-5.09-1.07-3.2-.78-7.45-.86-10.82-.13-5.66 0-11.34.06-17q.15-37.77.28-75.54c0-5.38 0-10.75.06-16.13v-.13c.16-3.86-.92-8.3 3-10.68C47.3 55.9 51 56.07 54 56c5.59-.16 11.19-.07 16.79-.05h55.5l147 .05H427.6c25.91 0 51.85-.26 77.76 0 5.49.06 11 .19 16.5.44 5.88.26 10.12 1.87 10.3 8.3.06 2.16-.2 4.32-.22 6.48v1.71c.06 8.62.23 17.24.34 25.86l.92 72.11c.09 1.94.19 3.79.14 5.62z" fill="#1e1e1e"/><path d="M242.2 30.84q-33.57 0-67.13.08-53.58.1-107.15.23l-24.82.06a.82.82 0 0 0-.81.81c0 5.54 0 11.09.2 16.63a.65.65 0 0 0 1.3 0c.12-3.9.13-7.81.13-11.72 0-1.33-.1-2.73 0-4.08 2.79.21 5.71 0 8.5 0h44.42l117.05-.13c9.45 0 18.9-.08 28.35-.1a.86.86 0 0 0-.04-1.78zM32.25 192.85c-3.12-.59-6.61-.19-9.77-.2-1.7 0-4.32-.5-5.94 0a1 1 0 0 1-.25 0 .76.76 0 0 1 0-.21c.92-3.52 0-8.47 0-12.1 0-2.91.39-6.19-.12-9.07a.87.87 0 0 0-1.66 0c-.57 3.43 0 7.32 0 10.79l.09 11.42a.89.89 0 0 0 .87.87c5.43 0 11.47.74 16.8-.28a.65.65 0 0 0-.02-1.22zM32.25 57.16c-5.32-1-11.38-.26-16.8-.29a.89.89 0 0 0-.87.87l-.09 11.43c0 3.46-.56 7.36 0 10.79a.87.87 0 0 0 1.66 0c.49-2.75.11-5.87.12-8.64V64.1c0-1.58.41-3.78 0-5.32a.5.5 0 0 1 0-.18c1.38.56 4.25 0 5.75 0 3.29 0 6.94.42 10.19-.19a.65.65 0 0 0 .04-1.25zm-16.2 1.35c-.28 0-.56-.19 0 0zm.26-.23a1.62 1.62 0 0 0 0-.49 1 1 0 0 1 0 .49zM530.22 31.21q-33.57-.09-67.13-.16l-107.15-.22h-24.82a.86.86 0 0 0 0 1.72q38.13.06 76.27.15 54.81.06 109.61.11h7.78c1.22 0 3.35.42 4.5 0h.1c-.06.78 0 1.63 0 2.39 0 4.49 0 9 .12 13.45a.65.65 0 0 0 1.3 0c.2-5.54.18-11.09.21-16.63a.83.83 0 0 0-.79-.81zM261.49 28c-1.33-.94-3.21-.26-4.29.95a3 3 0 0 0-.87-1 3.15 3.15 0 0 0-4.06.8c-.14-.67-.43-1.52-1-1.12-1 .68-.58 1.94-.54 3 .08 1.77.22 3.52.14 5.29-.05.94 1.4.93 1.45 0a50.51 50.51 0 0 0 .1-5.9c1.34-.92 3.1-2 3.56.3.33 1.7-.08 3.56.06 5.29a.85.85 0 0 0 1.69 0 24 24 0 0 0 0-5.08v-.2c.35-.27.67-.57 1.05-.82 1.09-.72 2.28-.5 2.6.88.4 1.67-.1 3.57 0 5.27a.8.8 0 0 0 1.6 0c.07-2.32.73-6.13-1.49-7.66zM270.92 27.84c-1.33-1.19-4.49-.58-5.21 1.06a.25.25 0 0 0 .22.38c1.43-.05 3.6-1.92 4.47.08a6.64 6.64 0 0 1 .45 1.94 4.24 4.24 0 0 0-3.51-.75c-1.4.3-3 1.34-2.74 3a3.43 3.43 0 0 0 3 2.52 4.57 4.57 0 0 0 3.06-.69c-.09 1.2 1.76 1.33 1.72.13-.06-1.5-.15-3-.34-4.5-.15-1.07-.26-2.39-1.12-3.17zm-4.78 5.58c-.25-1.19 2-1.51 2.62-1.47a15.85 15.85 0 0 1 2.14.51v.72a4.19 4.19 0 0 1-2.37 1.37c-.8.12-2.18-.19-2.39-1.13zM275.71 27.9a.3.3 0 0 0-.46.05c-.7.93-.37 2.23-.32 3.32.07 1.45.08 2.89.14 4.34a.89.89 0 0 0 1.77 0 44.73 44.73 0 0 0-.24-4.61c-.11-1.08-.04-2.37-.89-3.1zM275.79 25.79a.81.81 0 0 0 0-1.2.66.66 0 0 0-.94 0 1.11 1.11 0 0 0-.31.79.71.71 0 0 0 1.25.41zM284.53 27.29a4 4 0 0 0-4.18 1.88c-.08-.74-.26-1.49-.75-1.73a.55.55 0 0 0-.79.32 13 13 0 0 0-.08 4 11.43 11.43 0 0 0 .47 4.13c.27.62 1.15.36 1.32-.17.49-1.46.11-3.38 0-4.93.87-1.13 3-2.74 3.81-1.38.38.67.18 2 .22 2.77.05 1 .07 2.09.14 3.14.08 1.25 2 1.27 2 0-.08-1.83-.14-3.7-.34-5.52a2.6 2.6 0 0 0-1.82-2.51zM295.25 30.62c-.58-.27-.85-.65-.46-1.29.28-.47 1.63-.59 2.2-.53.29 0 1.32.65 1.76.43h.09a.7.7 0 0 0 .25-1c-.71-1.23-2.56-1.17-3.8-.92a2.64 2.64 0 0 0-2.22 2.74c0 1.45 1.21 1.93 2.46 2.22.84.2 3.52 1.28 1.57 2.22-1.07.53-2.32-.17-3.38-.35-.66-.12-1.37.72-.73 1.25a5.08 5.08 0 0 0 4.72.74 2.71 2.71 0 0 0 1.55-3c-.6-1.97-2.53-1.83-4.01-2.51zM302.7 27.74a.31.31 0 0 0-.49-.06c-.83 1-.74 2.42-.84 3.68a13.75 13.75 0 0 0 .21 4.83.8.8 0 0 0 1.56-.21c0-1.54-.13-3.08-.1-4.62.04-1.23.33-2.54-.34-3.62zM302.17 24.42a.92.92 0 0 0-.44.2.8.8 0 0 0-.12.93.85.85 0 0 0 1.37.17.8.8 0 0 0-.81-1.3zM311.28 34a21.5 21.5 0 0 0-3.47.22 27 27 0 0 1 1.63-2.52c.79-1 2.19-2.05 2.5-3.35a.89.89 0 0 0-1.08-1.08c-1.67.23-3.59 0-5.19.53a.48.48 0 0 0-.11.87 6.74 6.74 0 0 0 3.7.53 6.33 6.33 0 0 0-.45.46c-.42.5-.82 1-1.2 1.54a27.79 27.79 0 0 0-2.28 3.8.93.93 0 0 0 1 1.34 37 37 0 0 1 4.92-.45.93.93 0 0 0 .03-1.89zM321.57 32a.85.85 0 0 0 .58-1c-.64-3.82-6.46-5.42-7.62-1.09-.48 1.81-.62 4.33.89 5.7s4 1 5.8.18c1-.47.14-2-.89-1.53s-2.45 1-3.55.27a2.29 2.29 0 0 1-.89-1.9c.44 0 .91-.08 1.38-.1a41.66 41.66 0 0 0 4.3-.53zm-5.57-.92l.06-.33c.52-2.62 3.19-2 4.16-.2-1.16.2-2.33.37-3.51.49zM17.81 157.49c.86 1.12 1.43 3 0 3.92a3.69 3.69 0 0 1-3.77-.13 3.6 3.6 0 0 1-.81-3.05c.1-.37.53-1 0-1.29l-.08-.06a.68.68 0 0 0-.81.11c-1 1.12-.8 2.79-.28 4.11a3.87 3.87 0 0 0 4 2.33 4.1 4.1 0 0 0 4-2.19 4.31 4.31 0 0 0-.94-4.72c-.65-.66-1.87.25-1.31.97zM19.7 153.12a30.82 30.82 0 0 0-5.28-.14 12 12 0 0 1-.65-1.09 6.31 6.31 0 0 1-.55-1.95c-.12-1-1.61-1-1.56 0a5.39 5.39 0 0 0 1.3 3.17c-.31 0-.63 0-.92.1-.75.11-.48 1.16.16 1.23a52.15 52.15 0 0 0 7.5.13.73.73 0 0 0 0-1.45zM18.71 148a4.24 4.24 0 0 0 1.37-6.25 4.77 4.77 0 0 0-7-.58v.06c-1.34.89-1.91 3.73-1.35 4.91 1.17 2.47 4.75 3.08 6.98 1.86zm-.12-5.64a2.7 2.7 0 0 1-.38 4.11 3.84 3.84 0 0 1-4.6-.37c-1.13-1.15-.46-2.65.38-3.76 1.55-.86 3.21-1.45 4.6.03zM13.86 138.56c1.41-.12 2.07-1.4 2.47-2.6s1.29-3.18 2.8-1.55c.92 1-.06 2.7-.32 3.72a.68.68 0 0 0 1.24.52c1.27-2.07 1-6.54-2.27-6.35a2.86 2.86 0 0 0-2.41 2.09c-.28.73-.89 4.07-2.45 2.33-.7-.78.35-2.9.51-3.75.12-.64-.78-1.14-1.13-.47-.89 1.7-1.8 6.36 1.56 6.06zM13.6 130a2.53 2.53 0 0 0 2.17-1.48c.4-.84.55-2.07 1.34-2.65 1.35-1 2.12.44 2 1.5a3.48 3.48 0 0 1-.81 1.8c-.62.83.86 1.75 1.43.83a4.54 4.54 0 0 0 .71-4.21 2.81 2.81 0 0 0-3.24-1.68c-1.47.43-2 1.9-2.46 3.2-.34 1-1 2-1.89.89s.1-2.59.51-3.72c.14-.37-.37-.79-.69-.54-1.77 1.39-2.32 6.26.93 6.06zM18.36 117.56c2.7-1 2.66-6.61-.42-7.09a2.93 2.93 0 0 0-3 1.94c-.28.61-.64 3.45-1.87 2.15-.81-.86.33-2.45.28-3.37a.44.44 0 0 0-.66-.38c-2.05 1-1.69 5.91 1 5.67 1.36-.12 1.86-1.41 2.2-2.54s1.72-3.34 2.62-1.09c.57 1.45 0 2.46-.9 3.53-.34.48.03 1.45.75 1.18zM19.89 106.83c-1.27-.06-2.55-.08-3.82 0-1.06 0-2.16.3-3.21.31a.78.78 0 0 0-.76.27v.07a.67.67 0 0 0 .24.9c.9.45 2.25.07 3.23 0 1.46-.07 2.91-.08 4.37 0 .94.03.94-1.51-.05-1.55zM8.8 107.22a1 1 0 0 0-.12 1.55.71.71 0 0 0 1.23-.46.53.53 0 0 0 .28-.6.92.92 0 0 0-1.39-.49zm1.09.81a.76.76 0 0 0-.29-.44c.25.19.31.33.29.41zm-.76-.23v.06zM13 104.15a16.94 16.94 0 0 0-.18-3.76l.65.45 1.87 1.28c1.24.85 2.54 1.63 3.77 2.51a.73.73 0 0 0 1.07-.44 18.64 18.64 0 0 0 .12-6c-.08-1.28-2.1-1.27-2 0s.44 3 .48 4.45c-1.2-.84-2.38-1.71-3.58-2.54-.91-.62-2.18-2-3.37-1.75a.82.82 0 0 0-.57.57 11.65 11.65 0 0 0 .46 5.24c.22.55 1.17.68 1.28-.01zM14.74 96.15a4.76 4.76 0 0 0 1.22.14H16c3.4-.11 5.47-4.18 3.85-7.28-.47-.9-1.75-.11-1.34.78.87 1.91.12 4.34-1.81 4.89a29.68 29.68 0 0 0-.42-6.12c-.07-.5-.7-.6-1.07-.43-1.87.88-4 1.88-3.72 4.28a4.38 4.38 0 0 0 3.25 3.74zm.18-6.32a46.85 46.85 0 0 0 .3 4.89 2.83 2.83 0 0 1-2.17-2.14c-.33-1.37.74-2.21 1.87-2.75z" fill="#108a10"/><path d="M558.19 109.17a3.87 3.87 0 0 0-4.24 1 2.45 2.45 0 0 0-1.08-1.15 3.85 3.85 0 0 0-4 .69 3.14 3.14 0 0 0-.24-.57.25.25 0 0 0-.46.06 10.4 10.4 0 0 0-.15 3.57c0 1.37-.06 2.73 0 4.1a.57.57 0 0 0 1.13 0 32.17 32.17 0 0 0 .06-4.39v-1.11a5 5 0 0 1 .9-.81c1.21-.74 2.6-.4 2.78 1.12.19 1.68-.08 3.49 0 5.19a.79.79 0 0 0 1.57 0 34.58 34.58 0 0 0 0-5.19 3 3 0 0 0-.06-.4 7.77 7.77 0 0 1 1.13-.77 1.83 1.83 0 0 1 1.9-.06c.75.43.76.85.82 1.72.09 1.54-.24 3.25.08 4.74.12.55.89.47 1 0a8 8 0 0 0 .23-2.19 18.06 18.06 0 0 0 .07-2.55c-.12-1.17-.34-2.4-1.44-3zM562.65 110a.39.39 0 0 0 .44.57c.64-.08 1.17-.44 1.81-.55a3.44 3.44 0 0 1 2.11.25c.43.3.56 1.21.63 1.68s.07.72.09 1.08a4.81 4.81 0 0 0-4.37-.4 2.86 2.86 0 0 0-1.67 3.4 3.14 3.14 0 0 0 3.36 2 4.46 4.46 0 0 0 2.58-1.24v.33c-.06.93 1.45.94 1.45 0 0-2.37.89-6-1-7.91-1.37-1.38-4.58-.99-5.43.79zm3.35 6.1c-.85.49-2.28.69-2.78-.4-.66-1.43 1.28-2 2.28-1.94.77.06 1.5.34 2.27.44v.63c-.77.25-1.13.9-1.77 1.27zM571.93 109.19a16.12 16.12 0 0 0-.26 4.17 18.72 18.72 0 0 0 .06 4c.11.62 1 .56 1.2 0a17.15 17.15 0 0 0 .37-4.35 8 8 0 0 0-.62-3.94.41.41 0 0 0-.75.12zM573.09 106.14a.74.74 0 0 0-.84-.34 1 1 0 0 0-.71 1.23.92.92 0 0 0 1.52.4 1 1 0 0 0 .06-1.21zm-.09.86zm.16-.31a.15.15 0 0 0 0-.07zM582 109.05c-1.39-.92-3.64-.06-5 1.15a2.66 2.66 0 0 0-.42-1.16.17.17 0 0 0-.29 0c-.63 1-.39 2.25-.42 3.39a32.47 32.47 0 0 0 0 4.52.74.74 0 0 0 1.48 0 42.64 42.64 0 0 0-.25-4.52v-.87c1.36-.79 3.66-2.33 4.34-.69a11.18 11.18 0 0 1 .33 2.9 11.83 11.83 0 0 1 0 3.2c-.21 1.26 1.74 1.29 1.6.21-.23-1.74 0-3.47-.2-5.21-.17-.97-.27-2.32-1.17-2.92zM596.24 109.13c-1.35-1.51-4.43-.58-5.66.63-.27.27-.09.87.34.82 1.62-.17 4.42-1.85 4.76.7a11.9 11.9 0 0 1 .1 1.34 5.38 5.38 0 0 0-3.16-.51 2.54 2.54 0 0 0-2.43 2.62c.18 2.82 3.44 3.09 5.37 1.76v.2c-.07.94 1.42.94 1.47 0a41.46 41.46 0 0 0 0-4.73 4.38 4.38 0 0 0-.79-2.83zm-2.56 6.73c-.93.23-2.5-.2-2.15-1.48.26-1 1.79-.93 2.57-.8a15.07 15.07 0 0 1 1.65.52v.54a6.29 6.29 0 0 1-2.07 1.22zM603.86 113.07c.72-1 2.37-2.4 2-3.69a.33.33 0 0 0-.31-.23c-1.26-.05-2 1.64-2.71 2.57-.81-1.1-1.86-2.72-3.11-2.69a.21.21 0 0 0-.18.14c-.32 1.39 1.46 2.86 2.3 3.92a33 33 0 0 0-2.18 3.39c-.37.68.58 1.52 1.12.86.73-.89 1.4-1.84 2.06-2.79a12.68 12.68 0 0 0 2.41 3c.61.49 1.74-.17 1.19-.92-.92-1.14-1.7-2.39-2.59-3.56zM608.8 109.11c-.6 2.41-.25 5.27-.11 7.72a.69.69 0 0 0 1.38 0c.08-2.46.34-5.33-.32-7.72a.5.5 0 0 0-.95 0zM609.5 107.26a.78.78 0 0 0 .18-.11.82.82 0 0 0 .17-.2.92.92 0 0 0 .11-.57.82.82 0 0 0-.11-.23.48.48 0 0 0-.15-.29.75.75 0 0 0-.55-.21.8.8 0 0 0-.44.19.78.78 0 0 0-.24.24.91.91 0 0 0 0 .94.71.71 0 0 0 1.03.24zm-.17-.4a.54.54 0 0 0 .21 0zM618.45 114.59c-.36-1.53-1.88-2.07-3.25-2.37-1-.21-2.21-.32-1.81-1.65.53-1.73 3.16-.94 4.08-.21a.45.45 0 0 0 .74-.43c-.48-2.82-5.68-2-6 .71a2.08 2.08 0 0 0 1.12 2.38c.89.46 2 .4 2.88.88 1.3.71.32 2.27-.89 2.3a3.38 3.38 0 0 1-2.27-.62c-.71-.53-1.39.66-.7 1.19 1.79 1.37 6.89 1.11 6.1-2.18zM283.33 274.34c1.76 2.07-.69 4.23-2.8 4-2.28-.2-4.28-2.23-2.55-4.34.3-.38 0-1.14-.54-.92a2.8 2.8 0 0 0-1.45 3.53 5 5 0 0 0 4.36 3.1c3.48.36 6.6-3.4 3.94-6.37-.59-.62-1.53.34-.96 1zM276.38 270.24c.9.85 2.35.5 3.51.49a36.26 36.26 0 0 0 4.78-.21c.85-.13.56-1.35-.19-1.42a36.32 36.32 0 0 0-4.89.14h-.79l-.6-.89a8.23 8.23 0 0 1-.46-.74 6.4 6.4 0 0 1-.31-1 .62.62 0 0 0-1.18 0 2.36 2.36 0 0 0 .7 2.18 7 7 0 0 0 .53.58 2.06 2.06 0 0 0-1.1.59.23.23 0 0 0 0 .28zM278.08 264.35c1.86 1.1 4.91.62 6.06-1.3a3.85 3.85 0 0 0-1.56-5.28c-1.82-1-5-.83-5.82 1.33a.62.62 0 0 0 0 .35c-1.7 1.09.04 4.15 1.32 4.9zm0-4.69a3 3 0 0 1 4.26-.37 2.34 2.34 0 0 1-.11 3.67 3.26 3.26 0 0 1-4.22-.62c-.54-.76-.36-1.58-.49-2.37a.75.75 0 0 0 .57-.31zM277.49 248.66c-2.47.55-1.78 5.14.09 6.08 1.17.59 1.92-.48 2.29-1.47s.32-2.17.94-3c1.81-2.37 4 2.45 1.8 3-1 .25-.49 1.83.41 1.47 2.85-1.14 2.1-6.57-1.09-6.59-1.8 0-2.49 1.77-2.76 3.26a12.33 12.33 0 0 1-.25 1.35c-.05.63-.4.91-1.06.86a2.45 2.45 0 0 1-.53-1.07 3.6 3.6 0 0 1 .73-3.17c.29-.38-.18-.8-.57-.72zM278.36 246.74c1.64.17 2-1.78 2.53-3 .38-.8 1.38-2.87 2.39-1.46.87 1.23-.4 2.35-.94 3.3-.28.49.19 1.22.78 1 2.5-.9 2.77-6.49-.33-6.62-1.6-.06-2.64 1.75-3.21 3-.2.42-.36.85-.55 1.27-.28.64-.43 1.1-1.13.48-1.21-1.08-.27-2.69.13-3.86a.54.54 0 0 0-.78-.6c-2.25 1.46-1.91 6.19 1.11 6.49zM277.33 232.62a.28.28 0 0 0 .41-.24 18.65 18.65 0 0 0-.53-2.3 1.91 1.91 0 0 1 .78-2.16 3.7 3.7 0 0 1 1.49 0l.9.07a5.17 5.17 0 0 0-.7 3.17 2.65 2.65 0 0 0 2.7 2.56c1.68.1 2.5-.86 2.88-2.41a4.56 4.56 0 0 0-.68-3.43 3 3 0 0 0 .32-.12c.73-.33.21-1.56-.54-1.29-2.35.84-6-1.25-8 .73-1.36 1.38-.54 4.39.97 5.42zm6.43-.77c-.32.65-.85.68-1.45.62-1.2-.13-1.48-.93-1.51-2a3.42 3.42 0 0 1 .57-2.41c.42 0 .84.06 1.26.07.39.68 1.09 1.2 1.3 2a3 3 0 0 1-.17 1.72zM284.72 218.3a.66.66 0 0 0-.64-1.09 9.67 9.67 0 0 0-3.78 2.37 13.58 13.58 0 0 0-3.42-2c-.5-.19-.86.52-.51.87a24.07 24.07 0 0 0 2.75 2.17c-1 .72-2.85 1.51-2.68 2.88 0 .14.11.3.28.28a3.45 3.45 0 0 0 1.53-.81c.65-.42 1.36-.7 2-1.18l.21-.19a43 43 0 0 0 3.41 2.67c.62.4 1.11-.45.72-.94a16 16 0 0 0-2.95-2.72c.27-.23.53-.46.82-.67a14.23 14.23 0 0 0 2.26-1.64zM284.19 213.13c-1.6 0-3.19-.12-4.79-.07-.92 0-2.15-.14-2.67.75a.17.17 0 0 0 0 .18c.65.84 1.95.53 2.92.55q2.2.06 4.41.18c.94.15 1.33-1.55.13-1.59zM273.93 213.44h-.08a.54.54 0 0 0-.57.44v.05c-.13.43.22.71.58.85s.6-.14.71-.4a.76.76 0 0 0 0-.47.64.64 0 0 0-.64-.47zM277.84 211a2.73 2.73 0 0 0 2.85-1.41c.4-.7.64-2.49 1.29-2.86s1.31.37 1.55.95a2.39 2.39 0 0 1-.47 2.78c-.66.68.39 1.73 1 1a3.94 3.94 0 0 0 1-3.85c-.32-1.18-1.23-2.67-2.61-2.63s-2.05 1.29-2.41 2.46a11.44 11.44 0 0 1-.34 1.18c-.44 1-1.75 2.24-2.44.16a3.51 3.51 0 0 1 .61-2.9c.35-.45-.33-1.11-.78-.78-1.55 1.21-1.49 5.45.75 5.9z" fill="#b81414"/><path d="M27.09 237.66V237a5.91 5.91 0 0 1 1.8-1.26c1.38-.45 1.58.74 1.65 1.83.11 1.47.07 3 .1 4.45a.83.83 0 0 0 1.65 0c0-1.48 0-3-.13-4.45v-.18c.28-.29.5-.64.77-1 .91-1 2.73-1.87 3.09.12.32 1.77-.17 3.76-.05 5.57a.79.79 0 0 0 1.47.39c.68-1.14.25-3 .25-4.32s.25-2.9-.86-3.83a3.25 3.25 0 0 0-3.14-.45 4.08 4.08 0 0 0-1.5.95s-.22.29-.43.59a2.69 2.69 0 0 0-.69-1c-1.16-1-3-.38-4.11.71a3.14 3.14 0 0 0-.33-.9.44.44 0 0 0-.79.1c-.45 1.08-.2 2.46-.21 3.62 0 1.37-.05 2.73-.13 4.09-.06 1 1.43 1 1.48 0 .09-1.45.14-2.91.11-4.37zM45.66 242.43c0 1.14 1.87 1.11 1.76 0-.15-1.51-.25-3-.37-4.54a4.44 4.44 0 0 0-.8-2.82c-1.46-1.72-4.09-1.34-5.76-.17-.58.41-.25 1.46.52 1.22 1.74-.53 4-1.34 4.36 1.2 0 .27.06.54.09.82a4.49 4.49 0 0 0-3.3-.78c-1.48.17-2.23 1.86-2.13 3.23.19 2.55 3.77 3.17 5.63 1.84zm-4-2.15a2.18 2.18 0 0 1 .29-1c.34-.43.76-.33 1.27-.31a3.76 3.76 0 0 1 2.15.63.64.64 0 0 0 .2.08v.47l-.15.1c-.6.52-1 1.13-1.87 1.23s-1.91-.31-1.89-1.2zM51.12 242.22c0-1.5 0-3 .11-4.46a6.87 6.87 0 0 0-.25-3.52c-.19-.42-.74-.23-.88.11a12.09 12.09 0 0 0-.41 3.71 21.41 21.41 0 0 0 0 4.16c.08.9 1.44.97 1.43 0zM55.18 236.79c.61-.3 1.15-.71 1.76-1a1.64 1.64 0 0 1 1.62-.26c.74.3.65.48.69 1.26.09 1.75 0 3.53 0 5.28 0 1.13 1.8 1.12 1.75 0-.07-1.61-.09-3.23-.15-4.84 0-1-.06-2.27-.88-3-1.38-1.22-3.59-.08-4.89 1.16a2.64 2.64 0 0 0-.44-1 .49.49 0 0 0-.89.11 16.11 16.11 0 0 0-.06 3.61c0 1.32 0 2.65.07 4a.69.69 0 0 0 1.38 0c.07-1.41.06-2.83.05-4.24-.02-.39-.01-.74-.01-1.08zM31.09 254.63c-.76-.36-2.75-1-2.18-2.08.64-1.23 2.93-.41 3.66.14.48.37 1.06-.32.79-.79-1.23-2.12-5.83-1.65-6.07 1.09-.13 1.55 2 2.3 3.12 2.8a5.08 5.08 0 0 1 1.19.59c1.25 1.18.1 1.79-.74 2a3.62 3.62 0 0 1-3-.89c-.65-.45-1.19.48-.78 1 1.43 1.82 6 1.91 6.51-.87.24-1.62-1.27-2.43-2.5-2.99zM38.67 258.42c-1.12 1.47-1.19-1.69-1.19-1.79v-2.68-1.71h1c1 0 1-1.54 0-1.55h-1c0-.57 0-1.14-.07-1.7a.6.6 0 0 0-1.19 0c-.06.56-.09 1.13-.11 1.7a4.76 4.76 0 0 0-1.15.17.56.56 0 0 0 0 1.07 4.86 4.86 0 0 0 1.11.23v2.94c0 1.2-.33 2.84.22 4a2 2 0 0 0 3.58.05.71.71 0 0 0-1.2-.73zM47.81 256.82c0-.87-.05-1.74 0-2.62a3.43 3.43 0 0 0-.82-2.78c-1.29-1.18-4.74-1.26-5.52.57-.12.27 0 .68.37.66 1.6-.11 4.2-1.87 4.59 1.11v.72c-2-1.3-5.43-.77-5.66 1.91a2.92 2.92 0 0 0 2.16 3.07 4.79 4.79 0 0 0 3.54-.83v.52c.1.89 1.46.93 1.41 0 0-.53 0-1.06-.07-1.58a.86.86 0 0 0 0-.75zm-5.54-.23c.11-2.24 2.89-1.09 4.2-.43v.7a6.64 6.64 0 0 1-2.06 1.07c-1.01.28-2.19-.1-2.14-1.34zM53.68 251a4.07 4.07 0 0 0-2.38 1.06 3.22 3.22 0 0 0-.37-.9.44.44 0 0 0-.79.1c-.43 1.12-.13 2.47-.09 3.66.05 1.38.07 2.76 0 4.15a.79.79 0 0 0 1.46.39l.07-.1a.64.64 0 0 0 0-.71c0-1.34 0-2.68-.1-4v-.78a4.85 4.85 0 0 1 1-.83 3.87 3.87 0 0 1 1.4-.47.79.79 0 0 0-.2-1.57zM58.31 253.49v-1.14a5.9 5.9 0 0 0 1.92-.33.75.75 0 0 0-.2-1.46 12.31 12.31 0 0 0-1.7.14v-1.87c0-.63-1-.82-1.14-.15s-.2 1.39-.27 2.09h-.5a.72.72 0 0 0-.63.36c-.08.15-.18.32-.11.48v.09a.78.78 0 0 0 .71.54h.37c0 .4-.07.8-.08 1.2a20.09 20.09 0 0 0 0 4.65c.38 1.92 2.16 2.6 3.56 1.1a.76.76 0 0 0-1.07-1.07c-1.08.88-.94-2.31-.94-2.35.04-.72.06-1.5.08-2.28zM51.35 231.21v-.12a.68.68 0 0 0-1-.75l-.11.06a.72.72 0 1 0 1.06.81zM528.38 234.23a3.24 3.24 0 0 0-3.14-.44 4 4 0 0 0-1.5 1l-.43.58a2.65 2.65 0 0 0-.69-1c-1.16-1-3-.39-4.11.7a3.37 3.37 0 0 0-.33-.9.44.44 0 0 0-.79.11c-.45 1.08-.2 2.45-.21 3.62 0 1.36 0 2.72-.14 4.09 0 .95 1.44.95 1.49 0 .08-1.46.14-2.93.11-4.39v-.7a5.85 5.85 0 0 1 1.79-1.27c1.39-.45 1.58.74 1.66 1.83.11 1.48.07 3 .1 4.46a.83.83 0 0 0 1.65 0c0-1.48 0-3-.14-4.46v-.17c.28-.29.5-.65.77-.95.91-1 2.73-1.87 3.09.11.32 1.78-.17 3.77-.05 5.57a.79.79 0 0 0 1.47.4c.68-1.15.25-3 .25-4.33s.26-2.92-.85-3.86zM537.8 235c-1.46-1.71-4.09-1.34-5.76-.16-.59.41-.25 1.45.52 1.22 1.74-.54 4-1.35 4.36 1.19 0 .27.06.55.09.82a4.53 4.53 0 0 0-3.3-.78c-1.49.18-2.23 1.86-2.13 3.24.18 2.54 3.77 3.16 5.63 1.83 0 1.14 1.86 1.11 1.75 0-.14-1.51-.25-3-.36-4.55a4.59 4.59 0 0 0-.8-2.81zm-.81 5.2c-.6.53-1 1.14-1.87 1.23s-1.93-.33-1.91-1.22a2.09 2.09 0 0 1 .29-1c.34-.42.76-.32 1.27-.3a3.7 3.7 0 0 1 2.15.62.42.42 0 0 0 .2.08v.48a1.19 1.19 0 0 0-.12.1zM542.67 242.14c0-1.49 0-3 .11-4.46a7.09 7.09 0 0 0-.25-3.52c-.2-.42-.74-.22-.88.12a12 12 0 0 0-.41 3.7 21.43 21.43 0 0 0 0 4.16c.08.91 1.44.98 1.43 0zM542.58 232.16v-.12a.67.67 0 0 0-1-.75l-.11.05a.72.72 0 1 0 1.06.82zM552.38 237.12c0-1-.06-2.26-.88-3-1.38-1.22-3.59-.09-4.89 1.16a3 3 0 0 0-.44-1 .5.5 0 0 0-.89.12 15.46 15.46 0 0 0-.06 3.6c0 1.32 0 2.66.07 4a.69.69 0 0 0 1.38 0c.06-1.41.06-2.83.05-4.24v-1c.61-.31 1.15-.71 1.76-1a1.65 1.65 0 0 1 1.61-.25c.75.29.66.47.7 1.26.09 1.75 0 3.53 0 5.28 0 1.12 1.8 1.12 1.75 0-.09-1.7-.11-3.31-.16-4.93zM525.49 250.68a4.27 4.27 0 0 0-4.68 2.4 4.73 4.73 0 0 0 1.19 5.32c1.57 1.24 4.08 1.69 5.62.26.73-.69-.4-1.82-1.1-1.1-1 1-2.93.61-3.88-.26a3.42 3.42 0 0 1-.95-1.69c1 .1 2 .09 3 .18a9.19 9.19 0 0 0 3.46.12.78.78 0 0 0 .55-.72 4.59 4.59 0 0 0-3.21-4.51zm-1.32 3.6a10.61 10.61 0 0 0-2.52.15 2.51 2.51 0 0 1 .39-1.09 3 3 0 0 1 3.05-1.21 3.43 3.43 0 0 1 2.15 2.38c-.99.05-2.17-.2-3.07-.23zM537.32 251.17c-1.49-1-3.71-.21-5.08 1 0-.26 0-.52-.07-.77a.66.66 0 0 0-.46-.61h-.08a.55.55 0 0 0-.66.38 12.44 12.44 0 0 0 0 3.5c0 1.48.18 3 .19 4.43 0 .88 1.42.86 1.35 0-.12-1.78-.1-3.57-.18-5.35 1.32-.86 3.77-2.45 4.5-.52a7.76 7.76 0 0 1 .13 2.36v3a.77.77 0 0 0 1.54 0 46 46 0 0 0 0-4.84 3.25 3.25 0 0 0-1.18-2.58zM547.32 247.74a22.17 22.17 0 0 0-.13 4 4 4 0 0 0-3.23-1 4.46 4.46 0 0 0-3.06 4.05c-.09 1.72.77 3.85 2.57 4.31a4.59 4.59 0 0 0 4.21-1.42c0 .41.07.81.09 1.21a.73.73 0 0 0 1.46 0c-.05-3.58.17-7.84-.85-11.29a.54.54 0 0 0-1.06.14zm0 8.23c-.9.74-1.7 1.74-3 1.8-1.42.07-2.09-1.36-2.28-2.56s.68-3.13 2.21-3.15c1 0 2.26 1.09 3 1.73.06.7.13 1.4.2 2.1a.4.4 0 0 0-.09.11zM577.42 191.75c-1.92 1.45-5.18 1.42-5.48-1.6a3.71 3.71 0 0 1 1.17-3.29 3 3 0 0 1 3.86 0c.49.53 1.25-.14.95-.73-.79-1.6-2.8-1.52-4.25-.94a4.79 4.79 0 0 0-2.92 4.18 4.13 4.13 0 0 0 2.51 4.4c1.52.54 3.9.33 5.06-.88.55-.56-.21-1.66-.9-1.14zM583.51 185.36a3.4 3.4 0 0 0-2 1 7.74 7.74 0 0 0-.37-1.12.5.5 0 0 0-.91.12 16.6 16.6 0 0 0 .06 3.59c.06 1.35 0 2.69.06 4a.74.74 0 0 0 1.47 0 27 27 0 0 0 0-5.16 6.58 6.58 0 0 1 .75-.63 11 11 0 0 1 1.34-.64.68.68 0 0 0-.4-1.16zM591.84 185.45c-1.3-1.64-4.13-.19-5.12 1.14a4.8 4.8 0 0 0 .57 6.37c4.32 3.62 8.93-4 5.24-7.38a.63.63 0 0 0-.69-.13zm.43 4.86a2.84 2.84 0 0 1-3.38 2c-3.5-1.14-1.41-7.53 2.33-5.94a.65.65 0 0 0 .31 0c.66 1.3 1.24 2.48.74 3.94zM599.92 186.09a7.19 7.19 0 0 1 1.48.83c.57.33 1-.39.65-.85-1.39-1.78-5.55-1.67-5.89 1a2 2 0 0 0 1.5 2.2c.8.32 2.38.7 2.89 1.49 1 1.54-1.3 1.7-1.89 1.66a3.61 3.61 0 0 1-1.93-.78c-.74-.55-1.5.72-.73 1.25 1.62 1.12 6.26 1.34 6.18-1.61 0-1.31-1.38-2-2.41-2.54-.27-.13-.56-.25-.85-.36-.58-.23-1.46-.82-1.44-1.59s1.97-.85 2.44-.7zM609.17 189.22c-.82-.3-2.56-.54-3.16-1.17-1.81-1.93 2.44-2 3.41-1.16a.65.65 0 0 0 .92-.92c-1.55-1.78-6.7-1.41-6.12 1.74.24 1.35 1.86 1.78 3 2.21.78.3 2.59.55 2.39 1.65-.27 1.42-3.46 1.48-4.1.61s-1.8.14-1.1.84c1.68 1.68 6 1.2 6.57-1.44.23-1.22-.78-1.99-1.81-2.36zM622.08 184.9a4 4 0 0 0-4.3 2.48 5.34 5.34 0 0 0-.37 2 .6.6 0 0 0 0 .75 4.49 4.49 0 0 0 1.47 3.06 5.35 5.35 0 0 0 5.6.18.65.65 0 0 0-.65-1.13 4 4 0 0 1-3.75.1 2.89 2.89 0 0 1-1.2-2c2 0 4-.12 5.9-.2.35 0 .76-.31.71-.7-.22-2.04-1.21-4.09-3.41-4.54zm-3.29 4.15a3.24 3.24 0 0 1 .05-.46c.24-1.59 1.56-3 3.27-2.33a3.27 3.27 0 0 1 1.87 2.5c-1.73.07-3.47.11-5.19.29zM633.51 185.55c-1.43-.84-3-.12-4.18.94-.05-.34-.09-.69-.16-1a.13.13 0 0 0 0-.06.6.6 0 0 0-1.18.16c-.08 2.55-.05 5.21 0 7.76 0 .74 1.25 1 1.36.18a25.71 25.71 0 0 0 .11-5.56c1.25-1.11 3.61-2 3.84.41.16 1.57.09 3.2.14 4.78a.75.75 0 0 0 1.49 0c0-1.59 0-3.2-.1-4.78a3.3 3.3 0 0 0-1.32-2.83zM645.21 182.11c-.15-.72-1.25-.54-1.25.17 0 1.2 0 2.41.07 3.62a4 4 0 0 0-6.51 2.76 4.86 4.86 0 0 0 2.56 4.64 3.55 3.55 0 0 0 4.07-.82v.57a.75.75 0 0 0 1.49 0c-.05-3.64.36-7.36-.43-10.94zm-1.62 8.89c-1.86 3.07-5.37-.11-4.65-2.83a2.59 2.59 0 0 1 2.49-2 4.53 4.53 0 0 1 2.65 1.55c0 1 0 2 .07 2.94a.63.63 0 0 0-.56.34zM576.93 59.43c-2 1.27-4.84.47-5-2.17-.12-2.22 3.06-4.78 4.95-2.93a.59.59 0 0 0 .92-.72c-2-3.32-6.82.18-7.14 3a4.45 4.45 0 0 0 7 4c.7-.48.03-1.67-.73-1.18zM584 52.83c-.65-.39-1.65.11-2.22.48l-.26.19c0-.2-.07-.4-.11-.59-.17-.76-1.19-.5-1.26.17-.27 2.57 0 5.22-.12 7.81-.07 1 1.48 1 1.53 0a55.75 55.75 0 0 0 .15-5.66c.28-.2.54-.48.81-.65a2.61 2.61 0 0 1 .74-.34c.34-.11.61-.11.87-.39a.67.67 0 0 0-.13-1.02zM592.67 53.72a3.81 3.81 0 0 0-5.52-.42c-1.7 1.52-1.76 4.69-.54 6.54 1 1.59 4.06 1.94 5.62 1 2.32-1.41 2-4.91.7-6.88a.7.7 0 0 0-.26-.24zm-1.13 5.92c-1.24.74-3.51.2-4-1.09a4.34 4.34 0 0 1 .33-4.22c1.14-1.3 2.63-.92 3.87-.1a.68.68 0 0 0 0 .39c.66 1.38 1.55 3.98-.2 5.02zM600.74 56.21c-.83-.4-2.35-.2-3-.81-1.51-1.36.78-1.89 1.55-1.8a6.64 6.64 0 0 1 2 .85c.47.23 1.2-.28.81-.81-1.39-1.84-6.28-2.22-6.21 1 0 1.47 1.41 2.1 2.65 2.38.9.2 3.32 1 2 2.4a2.56 2.56 0 0 1-3.67-.22c-.47-.6-1.5.19-1.06.82 1.37 2 6 1.6 6.38-1.06a2.54 2.54 0 0 0-1.45-2.75zM607.92 56.19c-.52-.15-1.42-.23-1.81-.63-.65-.67-.06-1.69.71-2a3.39 3.39 0 0 1 2.78.62c.4.22 1-.26.67-.67-1.41-1.93-5.52-1.72-5.74 1.08-.11 1.44.91 2.22 2.16 2.62.78.25 4 1.09 2.1 2.46-1.15.84-2.61.24-3.55-.58a.69.69 0 0 0-1 1c1.49 1.8 6.67 1.79 6.46-1.37-.07-1.47-1.51-2.19-2.78-2.53zM622.08 56.33c-.85-.41-2.43-.31-3.13-.94-1.48-1.34 1.13-2.22 2-2a6.86 6.86 0 0 1 1.81.87.48.48 0 0 0 .65-.65c-1.17-2.65-6-2-6 1.07 0 1.45 1.23 1.94 2.41 2.34s3.46.88 2.54 2.63c-1 1.94-3.19.55-4-.63-.42-.61-1.59-.26-1.29.54 1.09 2.86 6 3.5 6.88.07a2.9 2.9 0 0 0-1.87-3.3zM629.33 52.52h-1.52a12 12 0 0 0-.22-2.08.6.6 0 0 0-1.15 0c-.11.66-.19 1.36-.24 2.09h-1.05a.65.65 0 0 0-.17 1.26 8.67 8.67 0 0 0 1.15.23 35.08 35.08 0 0 0 .37 5.73c.22 1.43 1.08 2.59 2.58 1.88.7-.33.16-1.25-.48-1.15-1.14.18-.75-5.1-.76-5.59v-.69c.51 0 1 0 1.49-.05 1.05-.06 1.05-1.7 0-1.63zM637.29 53c-1.4-1.33-4.35-.55-5.67.48-.5.39 0 1.16.59 1a16.5 16.5 0 0 1 2.17-.57c1.24-.15 2 0 2.13 1.32 0 .35.06.7.09 1-1.91-1.41-4.77-1.09-5.56 1.63a2.49 2.49 0 0 0 1.84 3.16 5.34 5.34 0 0 0 4-.75v.21c.06 1 1.65 1 1.56 0-.15-1.58-.28-3.16-.4-4.75-.04-.87-.04-2.03-.75-2.73zm-.57 5.73a4.81 4.81 0 0 1-2 1c-1.17.25-2.85 0-2.26-1.64.74-2 3.1-1.22 4.26-.06v.71zM643.76 52.38a2.53 2.53 0 0 0-2.24.9c0-.15 0-.31-.09-.46a.53.53 0 0 0-1 0 14.84 14.84 0 0 0-.26 3.77c0 1.42-.14 2.83-.11 4.25a.72.72 0 0 0 1.44 0c.16-1.41.14-2.84.16-4.25V55.4c.5-.81 1-1.54 2.08-1.56s.92-1.34.02-1.46zM649.63 59.48c-1.38.63-1.06-3.89-1.07-4.64v-.82a10.18 10.18 0 0 1 1.35 0c.8 0 1-1.29.19-1.43a5.14 5.14 0 0 0-1.57.08 13.92 13.92 0 0 0-.22-2.23.53.53 0 0 0-1 0 12 12 0 0 0-.22 2.24 3 3 0 0 0-1.27.07.46.46 0 0 0-.11.83 2.94 2.94 0 0 0 1.38.46v.83a20.53 20.53 0 0 0 .26 4.43c.36 1.47 1.79 2.26 3 1.14.53-.52-.14-1.23-.72-.96z" fill="#1918e6"/><path d="M136 208.08a5.59 5.59 0 0 0-1.08-.05c.55-1.42 1.3-2.4 2.35-2.17.59.13 1-.71.43-1-2.11-1.1-3.42.68-4.25 3.13a8.32 8.32 0 0 0-1.41-.06.52.52 0 0 0-.26 1 5.61 5.61 0 0 0 1.26.5 47.32 47.32 0 0 0-1 6.35c-.1 1 1.4 1 1.49 0a43 43 0 0 1 .9-6.12 5.28 5.28 0 0 0 1.57-.12c.68-.22.75-1.34 0-1.46zM139.25 204.88a81 81 0 0 0-2.8 10.68c-.22.93 1.21 1.32 1.43.4.82-3.56 2-7.17 2.44-10.79a.55.55 0 0 0-1.07-.29zM146.28 207.56c-2.15-.32-4.17 1.4-5 3.25a4.22 4.22 0 0 0 1.06 5.27c1.3.92 3.88 1.23 5-.06.6-.69-.4-1.69-1-1-.74.84-2.72.37-3.42-.27a2.46 2.46 0 0 1-.71-2 41.21 41.21 0 0 0 6.48-.16.74.74 0 0 0 .54-.72c-.05-2.02-.75-3.98-2.95-4.31zm-3.68 3.74a2.14 2.14 0 0 1 .1-.22 4 4 0 0 1 2.93-2.14c1.51-.1 2 1.06 2.09 2.25-1.72.2-3.42-.02-5.12.11zM158 208.07a11.28 11.28 0 0 0-3.82 2.88 12.76 12.76 0 0 0-1.53-3 .54.54 0 0 0-.91.37 10.75 10.75 0 0 0 1.2 3.74 23.47 23.47 0 0 0-3.07 3.32c-.52.71.56 1.41 1.15.89.95-.84 1.82-1.8 2.7-2.73.57 1 1.16 2 1.64 2.89s1.79.06 1.29-.75a35 35 0 0 1-1.78-3.3.12.12 0 0 1 .05 0c1.17-1.13 2.82-2.17 3.62-3.59a.49.49 0 0 0-.54-.72zM167.41 208.14a6.32 6.32 0 0 0-3.67 3.3c-1.72 4.05 3.13 6.59 6.39 4.6.81-.5.07-1.78-.75-1.28a3.52 3.52 0 0 1-3.47.09c-1.42-.76-1.19-2.36-.4-3.49a5.06 5.06 0 0 1 2.67-1.89 4.52 4.52 0 0 1 2.67.23.46.46 0 0 0 .57-.56c-.42-1.67-2.74-1.46-4.01-1zM180.81 209.28c-.93-1.86-3.68-1.9-5.29-.83-1.9 1.26-3.52 4.35-2.31 6.56s3.95 2.39 5.87 1.33a5.05 5.05 0 0 0 2-6.8.74.74 0 0 0-.27-.26zm-2.29 5.72c-1.23.74-3.27.74-4-.7s.44-3.34 1.44-4.25a2.85 2.85 0 0 1 3.84-.1.65.65 0 0 0 .06.33 3.63 3.63 0 0 1-1.34 4.72zM190.53 208c-1.39-1.13-3.51 0-5 1.06a4.28 4.28 0 0 0 0-.62.5.5 0 0 0-.92-.25 10.08 10.08 0 0 0-1.07 3.33c-.3 1.28-.57 2.57-.83 3.85-.2 1 1.28 1.37 1.47.41.25-1.29.53-2.57.81-3.86.08-.38.18-.77.27-1.16 1.29-.77 4.78-3.06 4.62-.3a19.66 19.66 0 0 1-1.56 5.21c-.38 1 1.31 1.51 1.64.46a38.54 38.54 0 0 0 1.29-5.16 3 3 0 0 0-.72-2.97zM197 207.81h-.87a10.42 10.42 0 0 0 .41-1.84.42.42 0 0 0-.71-.29 7.82 7.82 0 0 0-1.15 2.13 5.53 5.53 0 0 0-1.52 0 .54.54 0 0 0-.13 1 3.5 3.5 0 0 0 1.16.44c-.1.35-.2.69-.31 1-.44 1.46-1.13 3.31-.95 4.88a1.9 1.9 0 0 0 3.58.74c.39-.69-.47-1.23-1-.8-1.52 1.2-.78-2.36-.71-2.69.17-.71.35-1.41.56-2.11.08-.3.18-.61.29-.91a9.38 9.38 0 0 0 1.58-.14c.77-.11.59-1.42-.23-1.41zM202.38 207.92c-.43.33-.21 1.18.41 1 1-.36 2.48-1.07 2.81.85a3.78 3.78 0 0 1-.31 1.52c-2-1.05-6.64.27-6.37 3a2.4 2.4 0 0 0 2.54 2 5.33 5.33 0 0 0 2.72-1c-.05.15-.09.3-.14.45-.3.88 1.2 1.29 1.39.38.15-.74.34-1.48.54-2.22a.47.47 0 0 0 .09-.31c.16-.59.32-1.18.46-1.78.23-1 .72-2.28.4-3.29-.61-1.9-3.31-1.52-4.54-.6zm2.39 5.1a11.43 11.43 0 0 1-2 1.4 2.9 2.9 0 0 1-1.53.47c-.84-.08-1.18-.73-.69-1.42 1-1.42 2.94-1.08 4.42-1.1-.05.21-.11.41-.16.61zM210.17 208.31c-1 2.35-1.1 5.32-1.57 7.83-.17.89 1.2 1.27 1.37.37.45-2.47 1.38-5.43 1.13-7.95-.04-.43-.72-.76-.93-.25zM211.27 204.87a.94.94 0 0 0-1 1 .74.74 0 0 0 .74.74.92.92 0 0 0 .28-.09.72.72 0 0 0 .77-.71.89.89 0 0 0-.79-.94zM220.17 208.43c-1.34-1-3.37-.1-4.73 1a8 8 0 0 0 0-1.2c0-.43-.69-.74-.92-.25a15.73 15.73 0 0 0-.93 4c-.24 1.38-.47 2.76-.61 4.15-.07.67 1 .8 1.17.16.34-1.4.58-2.83.83-4.25.06-.34.13-.69.2-1a7.5 7.5 0 0 1 2.19-1.14 3.15 3.15 0 0 1 1.13-.22c.94.1.88.77.76 1.53a28.62 28.62 0 0 1-.71 2.87 4.1 4.1 0 0 0-.35 2.08.81.81 0 0 0 1.18.48l.07-.05a.81.81 0 0 0 .34-.88c.13-2.1 2.51-5.71.38-7.28zM228.49 207.5c-2-.31-3.85 1.31-4.7 2.94a6.78 6.78 0 0 0-.5 1.33.63.63 0 0 0-.16 1 3.17 3.17 0 0 0 .92 2.68 4.81 4.81 0 0 0 5.64.24c.88-.55 0-2-.81-1.39a3.34 3.34 0 0 1-3.44.36 1.8 1.8 0 0 1-.94-1.83c1.95-.15 3.88-.4 5.85-.38a.78.78 0 0 0 .73-.56c.3-1.71-.66-4.09-2.59-4.39zm-1.86 1.83a2 2 0 0 1 3 1.63 25.35 25.35 0 0 0-4.76.39 4.11 4.11 0 0 1 1.76-2.02zM238.61 208c-1-.42-1.86.26-2.7.75-.18.11-.35.22-.51.34a3.06 3.06 0 0 0-.1-.79.48.48 0 0 0-.87-.11c-.71 1-.78 2.46-1.05 3.67-.31 1.38-.73 2.77-.94 4.17a.65.65 0 0 0 1.26.35 26.52 26.52 0 0 0 1.21-4.4c.07-.33.16-.67.24-1a14.08 14.08 0 0 1 1.24-.75 6.27 6.27 0 0 1 1.84-.81c.65-.08 1.15-1.09.38-1.42z" fill="#1e1e1e"/><path d="M193.84 168.54c-1.28-15.12-.43-79.57-.59-96.53 0-2.65-2.18-3.64-4.41-2.55-2.5 1.22-4.27 4.64-4.25 7.35.16 16.59.83 99.68.83 100.35-1.68.25-114.84-.39-125-.62-4.67-.1-9.3 10.87-4.13 11 32.42.72 64.87 1.45 97.29 1.41 6.45 0 30.57 0 35.56-3.58 5.4-3.92 5.21-10.86 4.7-16.83z" opacity=".15"/><path d="M187.4 70.83c-.13-1-3-2.84-3.37-2.91-.86-.14-124.06-.1-126.51 0-1.05 0-4.17 1.14-4.48 1.6-.75 1.11-1 107.16-.92 108.72 0 .7 4.29 3.26 6.38 3.31 2.5 0 122.27.52 124.64.14.86-.14 4.24-2.91 4.3-4.19s.09-105.65-.04-106.67z" fill="#e8e8e8"/><path d="M526.44 74.33c0-2.64-2.18-3.64-4.41-2.54-2.5 1.22-4.27 4.63-4.24 7.35.28 31.89.14 63.8.08 95.69q-47.74.33-95.49.62-82.22.53-164.43 1c-14.08.07-28.2.43-42.28.11-4.67-.1-9.31 10.86-4.13 11 36.46.83 73-.26 109.5-.47q81.15-.48 162.29-1l36.78-.24c3.74 0 6.39-4.53 6.39-7.89.05-34.59.25-69.12-.06-103.63z" opacity=".15"/><path d="M519.44 169c-.2 1.92.23 9.71-2.31 10.68a33.29 33.29 0 0 1-3.57.54c-1.52.27-288.39.45-288.39.45-4.31-.13-20.72-.94-21.27-1.81-1.32-2.08-1.16-12.68-1.11-14.15 0 0-.75-88-.57-90.93.08-1.32-2.37-6.39 11.75-6.21 4.4.06 293.84-1 298-.26 1.52.26 3.88-.13 5.1.52 2.86 1.51 2.37 4.94 2.49 7.34s-.12 93.83-.12 93.83z" fill="#e8e8e8"/><path d="M119.18 114.69c-1.62 1.48-3.27 2.91-4.75 4.52-.76.84.28 2.43 1.29 1.67s2.07-1.69 3.06-2.58q-.15 8-.27 16a1.32 1.32 0 0 0 2.64 0c0-6.26 0-12.51.08-18.76a1.21 1.21 0 0 0-2.05-.85zM368.81 132.92c-3 0-6.06-.18-9.08-.14 4.91-3.75 11.1-8.65 9.41-14.8-1.74-6.35-9.89-3.6-13.5-.69a1 1 0 0 0 1 1.66 46.69 46.69 0 0 1 5.05-2c2.54-.66 4.5.28 5.07 3.08.3 1.49-1.3 3.73-2.18 4.8-2.73 3.28-6.48 5.87-9.74 8.59a1.3 1.3 0 0 0 .91 2.19 63.65 63.65 0 0 1 13.09.32c1.84.18 1.93-3.02-.03-3.01z" fill="#b7b7b7"/><path d="M184.24 68.89c-15.6-3.27-120.68-1.44-125.67-1s-5.64 3.82-5.5 5.7c.6 7.62-2.38 98.22 1.47 104.9 2.05 3.56 5.25-.81 6-2.41 3.41-7.48 1.47-17.14 1.22-25.24-.31-9.83-.51-19.67-.73-29.5-.2-9.08-.74-39.43-.93-43.1 4.9.8 31.07-1.44 39-1.71 18.46-.62 36.92-1.11 55.39-1.31 9-.1 17.78 0 26.69 1.89 3.32.72 7.08-7.37 3.06-8.22zM515 68.52c-8.06-1.5-292.78-1.52-297.75-1-5.68.61-12.18 1.26-13.95 7.64-1.42 5.12 0 99.41.38 101.6s3.86 1.34 5 .45a6.29 6.29 0 0 0 2.24-5.81c-.95-5.08-.91-10.64-1.1-15.85-.32-8.8-.38-77.95-.44-78.91 1.54.15 43.37-1.4 52.31-1.39 63.38.05 243.9.77 250.17 1.51 3.46.4 7.05-7.5 3.14-8.24z" fill="#fff" opacity=".6"/><path d="M520.87 82.87c0-1.83-.15-3.67-.23-5.5-.11-2.41.39-6.43-1-8.61-1.73-2.79-6.63-2.47-9.76-2.58-8.17-.3-16.37-.2-24.55-.25-33.66-.19-67.33-.12-101-.09q-55.28 0-110.55.17c-20.64 0-41.28-.06-61.91.43-5.23.13-9.79 0-10.71 6.07a27.79 27.79 0 0 0-.16 4.08c0 6.45 0 12.9.07 19.36q.15 28.35.35 56.71c0 5.55.07 11.11.09 16.66a36.45 36.45 0 0 0 .7 7.93c1 4.47 4.83 4 8.8 4.06 14 .21 28 .37 42 .4q34.51.06 69 0h116c23.24 0 46.56.47 69.8-.19a48.8 48.8 0 0 0 6.15-.56c4-.61 5.12-1.74 6.15-6a.78.78 0 0 0 0-.34c1.1-12.37.28-25.19.36-37.59q.16-25 .28-50c.11-1.4.15-2.78.12-4.16zm-5 96.16c-2 .87-5 .65-7.17.68H244.8c-7.27 0-14.54.13-21.8-.08-3.85-.11-7.69-.27-11.53-.34-3.5-.06-6.67.37-7.34-3.79a42.57 42.57 0 0 1-.38-6.95c-.09-30.42-.48-60.84-.41-91.26a16.79 16.79 0 0 1 .16-4.31c1.49-5.29 7.58-4.15 12-4.24 3.8-.08 7.6-.21 11.41-.25h4l26.87-.05q50-.1 100-.17 53.14-.09 106.3-.07h35.42c3.2 0 6.41 0 9.61.08H511.67a20.71 20.71 0 0 1 3.47.47c3.3.9 3.25 2.68 3.45 5.79.77 12.24.41 24.55.4 36.81q0 26.28-.08 52.58c0 3.5.2 7.11-.09 10.61-.69 2.46-1.63 3.91-2.98 4.46zM188.74 162.2c0-9.86-.1-19.72-.16-29.58-.12-19.33-.2-38.66-.41-58 0-1.19 0-2.4-.06-3.6a.58.58 0 0 0 0-.39c-1.71-5.92-12-3.87-16.94-3.89H66.15c-2.93 0-5.86.1-8.77.3-4.83.34-5.95 2.39-6 7.12-.16 14.48-.17 29-.27 43.44-.13 18.11-.48 36.22-.41 54.33 0 2.55-.45 5.73.6 8 1.42 3 5.48 2.77 8.35 2.82 6.5.11 13 .09 19.5.13q32.64.21 65.29.39c6.71 0 13.42.18 20.13.11 3 0 6-.17 9.06-.08 4.74.15 13.43 1.23 14.86-4.76 1.15-5 .26-11.37.25-16.34zm-2.08-51c0 18.77-.15 37.53-.14 56.3v5.68a16.33 16.33 0 0 1-.15 3.36c-1.4 6.06-9.15 4.52-14.05 4.37s-9.85.11-14.75.08l-57.89-.34-28.09-.16c-4.17 0-8.93.58-13.06-.09-4.89-.8-5.58-4.64-5.59-8.71v-7.37q.06-13.29.15-26.59.16-28.11.33-56.23v-5.64-1.79c0-1.92.49-4.09 2.29-4.89 1.29-.58 3.73-.26 5.13-.32 4.33-.17 8.65-.13 13-.13q49.79 0 99.58-.12c3 0 12-1.34 13.25 2.42 1.04 13.24.02 26.97-.01 40.16z" fill="#1e1e1e"/><path d="M296.35 289.55c-1 1.16-1.78 2.42-2.63 3.66a35.42 35.42 0 0 1-2 3.08c1.12-7.67.19-16.24.24-23.85q.15-28.59.08-57.18 0-63.52-.37-127.06c0-9.49 0-19-.27-28.49a4.53 4.53 0 0 0 3.11-1.5c1.48-1.78 1-5.64-.89-7a.54.54 0 0 0-.34-.12c-1.43-1.48-4.33-1.07-5.73.27-1.78 1.69-2.13 5.53-.14 7.21a5.16 5.16 0 0 0 2.66 1.11c-.64 26 0 52.09.08 78.09.11 42.59.22 85.19 0 127.78 0 7.43-.08 14.86-.19 22.28 0 2.37.16 5.32 0 7.81-.59-.86-1.2-2-1.45-2.31a23.34 23.34 0 0 0-2.57-3.48.58.58 0 0 0-1 .55c.6 2 2.11 3.77 3.26 5.53.59.9 1.37 3.15 2.66 3.28s1.89-1.53 2.41-2.28c1.45-2.11 3-4.19 4.29-6.42.51-.75-.56-1.7-1.21-.96zm-7.44-237.3c1.4-1 2.6-.37 3.93.2.84 1.1 1.5 3.36.75 4.6-1.07 1.75-4.22 1.59-5.4.12a3.7 3.7 0 0 1 .72-4.92z" fill="#b81414"/><path d="M637.5 122.85c-2.12-1.45-4.19-3-6.43-4.3-.77-.43-1.72.67-1 1.28 1.17 1 2.43 1.79 3.67 2.64.45.32 2.26 1.3 3.12 2-4.77-.57-10.56 0-15.35 0-14.67-.06-29.33 0-44 0q-70.87.09-141.75.42-85.24.34-170.49.76-73.74.36-147.5.76-24.33.13-48.65.27-7.51.06-15 .14c-2.47 0-6.41-.35-8.85.12a1.37 1.37 0 0 1-.29 0 4.52 4.52 0 0 0-1.51-3.13c-1.78-1.47-5.64-1-7 .89a.7.7 0 0 0-.12.34c-1.47 1.43-1.06 4.33.27 5.73 1.69 1.78 5.54 2.13 7.21.14a5.17 5.17 0 0 0 1.17-2.69c19.23.12 39.46-.05 58.68-.14q70.21-.35 140.43-.65 85.2-.39 170.41-.72 74.16-.27 148.32-.43c24.37 0 48.75-.24 73.12.11-.81.53-1.71 1-2 1.26a23.68 23.68 0 0 0-3.48 2.57.58.58 0 0 0 .55 1c2-.61 3.77-2.12 5.53-3.26.91-.59 3.15-1.37 3.28-2.66s-1.6-1.94-2.34-2.45zm-595.08 7.27a3.68 3.68 0 0 1-4.92-.72c-1-1.4-.38-2.6.2-3.93 1.1-.84 3.36-1.5 4.6-.75 1.7 1.07 1.59 4.22.12 5.4z" fill="#b81414"/><path d="M64.49 164.58l-1.16.06c.35-1.27.92-2.41 1.88-2a.69.69 0 0 0 .7-1.19c-1.47-1.12-2.9-.27-3.5 1.3-.23.63-.43 1.29-.62 2a6.41 6.41 0 0 0-1 .16A.55.55 0 0 0 61 166h.5c-.52 2.29-.83 4.7-1.21 6.89a.79.79 0 1 0 1.55.21c.25-1.94.58-3.86 1-5.78 0-.2.1-.67.2-1.23l1.48.11c.99.05 1-1.69-.03-1.62zM67.8 161.52c-1.43 3.4-1.63 7.5-2.54 11.09-.25.95 1.27 1.35 1.45.4.7-3.63 2.14-7.66 2-11.37a.46.46 0 0 0-.91-.12zM75.81 170c1.24-.1 2-.4 2.11-1.75.19-3.08-2.24-4.44-5.07-3.61a4.84 4.84 0 0 0-3.15 3.87.61.61 0 0 0-.14.93 7 7 0 0 0 .12 1.85c.58 2.61 4.26 3 6.18 1.6a.76.76 0 1 0-.92-1.2 3.19 3.19 0 0 1-2.53.4C71.19 171.8 71 171 71 169.86a19.66 19.66 0 0 0 4.81.14zm-4.66-1.59a3.15 3.15 0 0 1 3.13-2.69c1.13 0 1.9.31 2.19 1.47 0 .16.23 1 0 1.22s-.6.15-1 .16c-1.41 0-2.87-.15-4.32-.18zM85.72 164.93a10.28 10.28 0 0 0-3.5 2.51 7.36 7.36 0 0 0-1.48-2.54.5.5 0 0 0-.85.35 8.23 8.23 0 0 0 1.18 3.34c-1 1.11-1.95 2.34-3.08 3.38a.79.79 0 0 0 1 1.24 12.93 12.93 0 0 0 2.89-3.05c.52 1.06 1 2.11 1.51 3.19s2 .1 1.41-.82c-.68-1.13-1.26-2.32-1.83-3.51 1.18-1.05 2.65-2 3.4-3.3a.54.54 0 0 0-.65-.79zM93.52 165c-.37 2.42-1.11 4.82-1.57 7.23-.19 1 1.36 1.49 1.6.44.36-1.58.67-3.17 1-4.76.18-.94.69-2.17.17-3.06-.28-.42-1.11-.4-1.2.15zM94.85 161.44a.82.82 0 0 0 0 1.63.82.82 0 0 0 0-1.63zM100.78 164.46c-.39 0-.78.06-1.16.1a8.65 8.65 0 0 0 .29-1.88.51.51 0 0 0-.94-.25 7.84 7.84 0 0 0-1 2.2 2.81 2.81 0 0 0-1.46.27.46.46 0 0 0-.09.7 2.06 2.06 0 0 0 1.16.47l-.18.67c-.39 1.49-1.1 3.32-1 4.87.19 1.93 1.81 2.45 3.25 1.29.63-.52-.18-1.49-.86-1.11-1.13.63-.52-2.23-.46-2.48.18-.84.39-1.68.61-2.52.05-.22.12-.44.19-.67A10.85 10.85 0 0 0 101 166a.77.77 0 0 0-.22-1.54zM105.08 164.64a5.52 5.52 0 0 0-3.32 5.74c.4 3.28 3.79 3.81 6.32 2.38.85-.47.1-1.72-.75-1.29s-2.66 1-3.6 0a2.71 2.71 0 0 1-.56-2.07c1.53.15 3.1-.1 4.64 0 1.11 0 2 .52 2.34-.87.66-3.1-2.36-4.94-5.07-3.89zm3.8 3.31a9.13 9.13 0 0 1-1.54-.08 30.28 30.28 0 0 0-3.8.12 3.73 3.73 0 0 1 3.19-2.33 2.35 2.35 0 0 1 1.59.57c.12.12.84 1.45.56 1.77zM123.8 165.18c-1.32-1.3-3.34-.37-4.66.75a2.14 2.14 0 0 0-.53-1c-1.21-1.27-3-.26-4.36.86a2.42 2.42 0 0 0-.13-.65.55.55 0 0 0-1-.13 21.39 21.39 0 0 0-1.85 8.1c0 .87 1.42 1.1 1.55.21.22-1.51.42-3 .79-4.5.11-.46.28-.92.41-1.39a11.89 11.89 0 0 0 1.37-.83c.27-.18.52-.39.79-.55 1-.61 1.67.23 1.62 1.34a25.22 25.22 0 0 1-1.27 5v.15a.78.78 0 0 0 1.47.46 45.86 45.86 0 0 0 1.09-5c0-.17 0-.35.07-.53a18.07 18.07 0 0 1 1.68-.9 2.35 2.35 0 0 1 1.33-.39q.56-.18.45.48a1.28 1.28 0 0 1 0 1 34.21 34.21 0 0 1-1.16 4.9c-.32 1.1 1.52 1.54 1.68.46.24-1.66.65-3.3 1-4.94.18-1.01.46-2.08-.34-2.9zM217.14 164.58l-1.16.06c.35-1.27.92-2.41 1.88-2a.69.69 0 0 0 .7-1.19c-1.47-1.12-2.9-.27-3.5 1.3-.23.63-.43 1.29-.62 2a6.41 6.41 0 0 0-1 .16.55.55 0 0 0 .15 1.07h.5c-.52 2.29-.84 4.7-1.21 6.89a.78.78 0 1 0 1.54.21c.26-1.94.59-3.86 1-5.78 0-.2.1-.67.2-1.23l1.48.11c1.06.07 1.07-1.67.04-1.6zM220.45 161.52c-1.43 3.4-1.63 7.5-2.55 11.09-.24.95 1.28 1.35 1.46.4.7-3.63 2.14-7.66 2-11.37a.46.46 0 0 0-.91-.12zM228.46 170c1.24-.1 2-.4 2.11-1.75.18-3.08-2.24-4.44-5.07-3.61a4.87 4.87 0 0 0-3.16 3.87.61.61 0 0 0-.13.93 6.63 6.63 0 0 0 .12 1.85c.58 2.61 4.25 3 6.18 1.6a.76.76 0 1 0-.92-1.2 3.21 3.21 0 0 1-2.54.4c-1.21-.27-1.43-1.08-1.43-2.21a19.66 19.66 0 0 0 4.84.12zm-4.66-1.59a3.14 3.14 0 0 1 3.13-2.69c1.13 0 1.9.31 2.19 1.47 0 .16.23 1 0 1.22s-.6.15-1 .16c-1.41 0-2.87-.15-4.32-.18zM238.37 164.93a10.19 10.19 0 0 0-3.5 2.51 7.23 7.23 0 0 0-1.49-2.54.49.49 0 0 0-.84.35 8.23 8.23 0 0 0 1.18 3.34c-1.05 1.11-1.95 2.34-3.08 3.38a.79.79 0 0 0 1 1.24 12.54 12.54 0 0 0 2.89-3.05c.52 1.06 1.05 2.11 1.52 3.19s2 .1 1.41-.82a39 39 0 0 1-1.83-3.51c1.18-1.05 2.64-2 3.4-3.3a.54.54 0 0 0-.66-.79zM246.17 165c-.37 2.42-1.11 4.82-1.57 7.23-.19 1 1.36 1.49 1.6.44.36-1.58.67-3.17 1-4.76.18-.94.69-2.17.16-3.06-.27-.42-1.1-.4-1.19.15zM247.5 161.44a.82.82 0 0 0 0 1.63.82.82 0 0 0 0-1.63zM253.42 164.46c-.38 0-.77.06-1.16.1a8.1 8.1 0 0 0 .3-1.88.51.51 0 0 0-.94-.25 7.84 7.84 0 0 0-1 2.2 2.81 2.81 0 0 0-1.46.27.45.45 0 0 0-.09.7 2.06 2.06 0 0 0 1.15.47c-.05.22-.11.45-.17.67-.39 1.49-1.1 3.32-1 4.87.19 1.93 1.81 2.45 3.25 1.29.63-.52-.18-1.49-.86-1.11-1.13.63-.52-2.23-.47-2.48.19-.84.4-1.68.62-2.52.05-.22.12-.44.19-.67a10.85 10.85 0 0 0 1.8-.16.77.77 0 0 0-.16-1.5zM257.73 164.64a5.52 5.52 0 0 0-3.32 5.74c.4 3.28 3.79 3.81 6.32 2.38.84-.47.1-1.72-.75-1.29-1 .51-2.66 1-3.6 0a2.71 2.71 0 0 1-.56-2.07c1.53.15 3.1-.1 4.64 0 1.11 0 2 .52 2.34-.87.66-3.1-2.37-4.94-5.07-3.89zm3.8 3.31a9.28 9.28 0 0 1-1.55-.08 30.18 30.18 0 0 0-3.79.12 3.71 3.71 0 0 1 3.19-2.33 2.35 2.35 0 0 1 1.59.57c.12.12.84 1.45.56 1.77zM276.45 165.18c-1.32-1.3-3.34-.37-4.67.75a2.12 2.12 0 0 0-.52-1c-1.21-1.27-3.05-.26-4.36.86a2.42 2.42 0 0 0-.13-.65.55.55 0 0 0-1-.13 21.39 21.39 0 0 0-1.85 8.1c-.05.87 1.42 1.1 1.55.21a43.23 43.23 0 0 1 .79-4.5c.11-.46.28-.92.41-1.39a12.8 12.8 0 0 0 1.37-.83c.26-.18.52-.39.79-.55 1-.61 1.67.23 1.62 1.34a25.22 25.22 0 0 1-1.27 5v.15a.78.78 0 0 0 1.51.42 45.86 45.86 0 0 0 1.09-5c0-.17.05-.35.07-.53.55-.32 1.1-.64 1.67-.9.39-.17.89-.49 1.33-.39.38-.12.53 0 .46.48a1.28 1.28 0 0 1 0 1 34.21 34.21 0 0 1-1.16 4.9c-.33 1.1 1.52 1.54 1.68.46.24-1.66.65-3.3 1-4.94.17-.97.42-2.04-.38-2.86z" fill="#1e1e1e"/><path d="M538.89 59a23.27 23.27 0 0 1 3.64-.07 7.39 7.39 0 0 0 3.46-.36.79.79 0 0 0-.42-1.52 21.46 21.46 0 0 1-3.92.19 6.73 6.73 0 0 0-3.06.67c-.53.24-.26 1.12.3 1.09zM549.62 58.64c1.74.1 3.49-.07 5.25 0 1.09.08 1.11-1.71 0-1.71a21.46 21.46 0 0 0-5.43.4.65.65 0 0 0 .18 1.26zM559.41 58.27a40.23 40.23 0 0 0 5.49 0 .85.85 0 0 0 0-1.69 29 29 0 0 0-5.67.39c-.78.18-.5 1.2.18 1.29zM538.89 191.32c1.35 0 2.69-.08 4-.17.93-.05 2.41.13 3.25-.34a.81.81 0 0 0-.19-1.45c-.92-.36-2.54.1-3.49.19a12.89 12.89 0 0 0-3.91.67c-.55.24-.25 1.1.3 1.1zM549.62 191c1.74.09 3.49-.08 5.25.05 1.09.08 1.11-1.71 0-1.72a21.46 21.46 0 0 0-5.43.4.65.65 0 0 0 .18 1.27zM559.41 191.07a40.23 40.23 0 0 0 5.49 0 .85.85 0 0 0 0-1.69 29 29 0 0 0-5.67.39c-.78.18-.5 1.2.18 1.29zM533 198.85c0 1.35.05 2.69.12 4.05.05.93-.15 2.4.32 3.24a.8.8 0 0 0 1.44-.18c.36-.88-.06-2.43-.14-3.35a12.67 12.67 0 0 0-.59-3.92.59.59 0 0 0-1.15.16zM533.27 209.58c-.11 1.75 0 3.5-.11 5.25-.09 1.09 1.7 1.12 1.72 0a21.39 21.39 0 0 0-.35-5.42.64.64 0 0 0-1.26.17zM533.56 219.2a41.26 41.26 0 0 0-.09 5.67.85.85 0 0 0 1.7 0 29.8 29.8 0 0 0-.34-5.67c-.13-.6-1.18-.65-1.27 0zM42.12 198.85c0 1.35.05 2.69.12 4.05 0 .93-.15 2.4.31 3.24A.8.8 0 0 0 44 206c.35-.88-.06-2.43-.14-3.35a13.3 13.3 0 0 0-.59-3.92c-.24-.57-1.16-.56-1.15.16zM42.35 209.58c-.11 1.75 0 3.5-.1 5.25-.09 1.09 1.7 1.12 1.71 0a21.38 21.38 0 0 0-.34-5.42.65.65 0 0 0-1.27.17zM42.65 219.2a39.73 39.73 0 0 0-.09 5.67.85.85 0 0 0 1.69 0 29 29 0 0 0-.34-5.67c-.13-.6-1.17-.65-1.26 0z" fill="#1918e6"/></svg>