<svg xmlns="http://www.w3.org/2000/svg" viewBox="0 0 58.208 58.208" version="1.1">
  <path d="M17.778 56.751c-6.62-2.802-12.402-8.488-15.267-15.014-3.564-8.114-3.324-17.287.655-25.081 2.998-5.872 8.225-10.832 14.17-13.45 11.384-5.01 24.396-2.374 33 6.684 3.807 4.009 6.163 8.505 7.441 14.207.575 2.563.575 8.986 0 11.549-1.655 7.379-5.508 13.368-11.45 17.795-3.755 2.797-8.631 4.764-9.428 3.802-.189-.228-.325-2.322-.385-5.938-.09-5.23-.133-5.664-.703-6.823-.334-.68-.731-1.313-.881-1.406-.15-.092.916-.435 2.369-.761 7.18-1.61 10.53-5.944 10.521-13.613 0-3.156-.512-4.929-2.015-7.022-.786-1.093-.883-1.379-.665-1.952.39-1.027.304-4.277-.154-5.821l-.41-1.38-1.326.157c-1.319.156-4.503 1.508-5.906 2.507-.719.511-.78.513-2.513.083-2.28-.567-8.793-.577-11.229-.017l-1.658.381-1.72-1.009c-1.757-1.031-4.536-2.035-5.634-2.035-.782 0-1.07.557-1.457 2.816-.24 1.406-.242 2.196-.01 3.465.301 1.622.295 1.658-.46 2.71-1.235 1.721-1.872 3.64-2.017 6.078-.496 8.331 3.47 13.51 11.39 14.867l1.784.306-.515.548c-.284.302-.73 1.182-.994 1.957-.445 1.309-.56 1.433-1.625 1.754-1.353.409-3.49.265-4.601-.31-.433-.223-1.235-.953-1.783-1.62-2.71-3.301-4.242-4.31-5.91-3.891-.998.25-.828.742.71 2.056 1.016.869 1.716 1.81 2.65 3.57 1.852 3.487 3.312 4.275 7.613 4.108l2.384-.092v3c0 1.988-.106 3.107-.312 3.313-.495.495-1.756.33-3.664-.477z" fill="#fff"/>
</svg>
