<svg xmlns="http://www.w3.org/2000/svg" viewBox="0 0 58.208 58.208" version="1.1">
  <path d="M16.025 57.988c-6.61-.593-11.444-3.497-13.78-8.277-1.977-4.045-2.261-6.633-2.261-20.59 0-10.562.194-14.269.893-17.008 1.13-4.432 4.012-8.14 7.677-9.879C12.685.274 15.207 0 29.104 0c10.562 0 14.268.195 17.008.894 4.431 1.13 8.139 4.011 9.878 7.677 1.96 4.13 2.235 6.652 2.235 20.55 0 13.897-.275 16.419-2.235 20.55-1.739 3.665-5.447 6.546-9.878 7.676-.903.23-2.826.526-4.274.656-3.115.282-22.645.27-25.813-.014zm28.62-5.656c3.705-.989 6.34-3.396 7.403-6.765.841-2.663 1.082-7.592.942-19.296-.117-9.765-.171-10.785-.677-12.69-.983-3.704-3.39-6.34-6.762-7.405-2.663-.84-7.593-1.081-19.296-.941-9.765.116-10.786.17-12.691.677-3.703.983-6.34 3.39-7.404 6.762-.84 2.663-1.081 7.592-.942 19.295.117 9.766.171 10.786.677 12.692.983 3.7 3.385 6.332 6.762 7.409 2.579.822 5.615.97 18.26.89 10.95-.07 11.78-.108 13.727-.628zM25.736 43.71c-5.155-.976-10.296-6.216-11.247-11.464-.97-5.357.407-9.93 4.109-13.63 3.701-3.702 8.274-5.08 13.63-4.11 5.373.974 10.515 6.117 11.49 11.49.97 5.356-.408 9.928-4.11 13.63-3.714 3.714-8.454 5.11-13.872 4.084zm7.458-5.854c2.062-.97 3.681-2.599 4.69-4.72.71-1.495.8-1.946.8-4.015 0-2.07-.091-2.52-.8-4.015-1.017-2.14-2.627-3.749-4.766-4.766-1.495-.71-1.946-.8-4.015-.8s-2.52.09-4.014.8c-2.14 1.017-3.749 2.626-4.766 4.766-.71 1.494-.8 1.945-.8 4.015 0 2.069.09 2.52.8 4.014 1.283 2.7 3.712 4.726 6.513 5.433 1.75.443 4.576.126 6.358-.712zm10.35-20.95c-.867-.185-2.055-1.504-2.24-2.49-.538-2.87 1.89-5.005 4.599-4.047 1.249.441 1.97 1.36 2.156 2.744.165 1.232-.434 2.696-1.348 3.295-.669.438-2.262.688-3.166.497z" fill="#fff"/>
</svg>
