<svg xmlns="http://www.w3.org/2000/svg" viewBox="0 0 58.208 58.208" version="1.1">
  <path d="M9.404 57.841c-4.534-1.1-8.166-4.85-9.114-9.409-.395-1.901-.395-36.742 0-38.644C1.264 5.104 5.097 1.27 9.782.296c1.902-.395 36.743-.395 38.644 0 4.685.974 8.518 4.808 9.492 9.492.395 1.902.395 36.743 0 38.644-.974 4.685-4.807 8.518-9.492 9.492-2.05.427-37.23.352-39.022-.083zm10-25.11v-13.32h-7.242v26.641h7.243zm12.208 5.476l.078-7.845.785-1.27c1.968-3.18 5.985-3.271 7.804-.176l.723 1.229.078 7.954.078 7.953h7.472v-8.73c-.01-9.58-.178-11.191-1.462-13.55-1.616-2.969-4.805-4.583-8.453-4.277-2.46.206-5.299 1.574-6.39 3.08l-.761 1.052v-4.216h-7.243v26.641h7.215zM18.057 15.614c2.539-1.88 2.525-5.28-.03-7.172-.545-.405-1.113-.542-2.244-.542-1.697 0-2.557.47-3.556 1.938-1.23 1.805-.506 4.76 1.45 5.926 1.188.708 3.32.635 4.38-.15z" fill="#fff"/>
</svg>
