<svg xmlns="http://www.w3.org/2000/svg" viewBox="0 0 58.208 58.208" version="1.1">
  <path d="M21.312 57.991c-3.316-.524-7.121-1.544-8.922-2.391-2.567-1.207-5.61-4.356-7.052-7.297-2.588-5.28-3.452-11.23-3.473-23.923-.016-10.146.092-10.957 2.032-15.034.94-1.977 1.669-2.967 3.35-4.552 1.838-1.735 2.504-2.144 4.63-2.846C16.294.488 20.673-.005 29.211 0c8.474 0 12.503.467 17.024 1.952 2.126.7 2.788 1.104 4.615 2.829 3.333 3.144 5.012 7.105 5.439 12.83.239 3.206-.34 12.935-.964 16.195-.531 2.773-1.688 4.603-4.006 6.334-4.828 3.607-10.308 4.883-20.7 4.821-4.217-.025-6.56-.199-9.335-.691-2.038-.362-3.781-.658-3.874-.658-.093 0-.091.756 0 1.68.325 3.157 1.969 5.254 4.937 6.302 3.084 1.088 10.379 1.106 15.005.037l1.862-.43v2.409c0 2.81.085 2.735-4.196 3.797-2.901.72-10.741 1.053-13.711.583zm-3.663-30.718c.012-7.313.07-8.348.585-9.484.71-1.561 1.941-2.157 3.985-1.927 3.072.347 3.866 2.299 3.866 9.499v4.179h5.942v-4.363c0-5.305.343-7.133 1.556-8.295 1.072-1.027 3.247-1.39 4.708-.785 1.887.782 2.012 1.424 2.12 10.863l.096 8.522h6.218v-7.896c0-8.433-.267-11.118-1.296-13.172-1.772-3.537-5.505-5.334-9.544-4.595-2.381.436-4.023 1.606-5.594 3.99l-1.27 1.926-1-1.671c-1.85-3.093-3.939-4.312-7.406-4.321-4.808-.012-7.957 2.734-8.884 7.75-.19 1.024-.34 5.428-.34 9.915v8.074h6.254l.012-8.21z" fill="#fff"/>
</svg>
