<svg xmlns="http://www.w3.org/2000/svg" viewBox="0 0 24 24">
  <path d="M14.238 15.348a.215.215 0 010 .306c-.465.462-1.194.687-2.231.687l-.008-.002-.008.002c-1.036 0-1.766-.225-2.231-.688a.214.214 0 010-.305.219.219 0 01.307 0c.379.377 1.008.561 1.924.561l.008.002.008-.002c.915 0 1.544-.184 1.924-.561a.219.219 0 01.307 0zm-3.44-2.418a.922.922 0 00-1.845 0c0 .506.414.918.923.918a.92.92 0 00.922-.918zM24 12c0 6.627-5.373 12-12 12S0 18.627 0 12 5.373 0 12 0s12 5.373 12 12zm-5-.129a1.548 1.548 0 00-2.624-1.108c-1.056-.695-2.485-1.137-4.066-1.194l.865-2.724 2.343.549-.003.034c0 .696.569 1.262 1.268 1.262.699 0 1.267-.566 1.267-1.262a1.266 1.266 0 00-2.446-.458l-2.525-.592a.216.216 0 00-.257.145l-.965 3.038c-1.656.02-3.155.466-4.258 1.181A1.546 1.546 0 005 11.871c0 .566.311 1.056.768 1.325-.03.164-.05.331-.05.5 0 2.281 2.805 4.137 6.253 4.137s6.253-1.856 6.253-4.137c0-.16-.017-.317-.044-.472.486-.261.82-.766.82-1.353zm-4.872.141a.921.921 0 00-.922.919.921.921 0 001.844 0 .921.921 0 00-.922-.919z" fill="#fff"/>
</svg>
