<svg xmlns="http://www.w3.org/2000/svg" viewBox="0 0 58.208 58.208" version="1.1">
  <path d="M13.325 51.027C8.117 50.6 4.44 48.983 2.459 46.249 1.352 44.72.566 42.09.194 38.672c-.387-3.556-.15-22.092.307-23.93.787-3.176 3.137-5.613 6.298-6.532 3.124-.908 2.578-1.001 18.535-1.148 22.405-.205 24.969.143 28.544 2.238 3.83 2.246 4.526 5.707 4.289 21.338-.159 10.397-.356 11.933-1.904 14.838-1.048 1.966-2.312 3.158-4.326 4.08-3.193 1.462-1.958 1.533-20.607 1.626-9.51.048-16.386-.022-18.005-.155zm17.727-16.69C38.527 30.47 39 30.143 39 28.85c0-.612-.2-1.136-.545-1.432-.3-.256-3.532-2.01-7.182-3.896-6.99-3.611-7.935-3.915-8.895-2.855-.49.541-.537 1.158-.604 7.88-.078 7.792 0 8.358 1.29 9 .356.177.918.242 1.249.144.33-.098 3.363-1.607 6.738-3.353z" fill="#fff"/>
</svg>
