<?xml version="1.0" standalone="no"?>
<!DOCTYPE svg PUBLIC "-//W3C//DTD SVG 1.1//EN" "http://www.w3.org/Graphics/SVG/1.1/DTD/svg11.dtd" >
<svg xmlns="http://www.w3.org/2000/svg" xmlns:xlink="http://www.w3.org/1999/xlink" version="1.1">
<metadata>
Created by FontForge 20170731 at Wed Feb 26 09:24:02 2020
 By Aleksey,,,
Copyright 2019 The Work Sans Project Authors (https://github.com/weiweihuanghuang/Work-Sans)
</metadata>
<defs>
<font id="WorkSans-Black" horiz-adv-x="588" >
  <font-face 
    font-family="Work Sans Black"
    font-weight="900"
    font-stretch="normal"
    units-per-em="1000"
    panose-1="0 0 0 0 0 0 0 0 0 0"
    ascent="800"
    descent="-200"
    x-height="500"
    cap-height="660"
    bbox="-291 -343 1406 1105"
    underline-thickness="50"
    underline-position="-175"
    unicode-range="U+000D-FB02"
  />
<missing-glyph horiz-adv-x="500" 
d="M130 80h240v500h-240v-500zM50 0v660h400v-660h-400z" />
    <glyph glyph-name="fi" unicode="fi" horiz-adv-x="738" 
d="M293 720q50 0 87 -10t53 -21l-15 -133q-10 5 -24 9.5t-37 4.5q-31 0 -52 -12.5t-21 -49.5v-58l16 -29v-421h-230v520q0 58 19.5 96.5t52.5 61.5t72.5 32.5t78.5 9.5zM426 500v-155h-423v155h423zM584 532q-68 0 -96.5 22t-28.5 74q0 53 28.5 74.5t96.5 21.5t96.5 -21.5
t28.5 -74.5q0 -52 -28.5 -74t-96.5 -22zM699 500v-500h-230v500h230z" />
    <glyph glyph-name="fl" unicode="fl" horiz-adv-x="771" 
d="M293 720q50 0 87 -10t53 -21l-15 -133q-10 5 -24 9.5t-37 4.5q-31 0 -52 -12.5t-21 -49.5v-58l16 -29v-421h-230v520q0 58 19.5 96.5t52.5 61.5t72.5 32.5t78.5 9.5zM426 500v-155h-423v155h423zM699 700v-501q0 -30 9 -44t32 -14q11 0 19.5 1.5t16.5 3.5l-10 -124
q-19 -14 -54.5 -23t-69.5 -9q-93 0 -133 40t-40 134v536h230z" />
    <glyph glyph-name="f_f" unicode="ff" horiz-adv-x="838" 
d="M293 720q50 0 87 -10t53 -21l-15 -133q-10 5 -24 9.5t-37 4.5q-31 0 -52 -12.5t-21 -49.5v-58l16 -29v-421h-230v520q0 58 19.5 96.5t52.5 61.5t72.5 32.5t78.5 9.5zM426 500v-155h-423v155h423zM701 720q50 0 87 -10t53 -21l-15 -133q-10 5 -24 9.5t-37 4.5
q-31 0 -52 -12.5t-21 -49.5v-58l16 -29v-421h-230v520q0 58 19.5 96.5t52.5 61.5t72.5 32.5t78.5 9.5zM834 500v-155h-423v155h423z" />
    <glyph glyph-name="f_f_i" unicode="ffi" horiz-adv-x="1146" 
d="M293 720q50 0 87 -10t53 -21l-15 -133q-10 5 -24 9.5t-37 4.5q-31 0 -52 -12.5t-21 -49.5v-58l16 -29v-421h-230v520q0 58 19.5 96.5t52.5 61.5t72.5 32.5t78.5 9.5zM426 500v-155h-423v155h423zM701 720q50 0 87 -10t53 -21l-15 -133q-10 5 -24 9.5t-37 4.5
q-31 0 -52 -12.5t-21 -49.5v-58l16 -29v-421h-230v520q0 58 19.5 96.5t52.5 61.5t72.5 32.5t78.5 9.5zM834 500v-155h-423v155h423zM992 532q-68 0 -96.5 22t-28.5 74q0 53 28.5 74.5t96.5 21.5t96.5 -21.5t28.5 -74.5q0 -52 -28.5 -74t-96.5 -22zM1107 500v-500h-230v500
h230z" />
    <glyph glyph-name="f_f_l" unicode="ffl" horiz-adv-x="1179" 
d="M293 720q50 0 87 -10t53 -21l-15 -133q-10 5 -24 9.5t-37 4.5q-31 0 -52 -12.5t-21 -49.5v-58l16 -29v-421h-230v520q0 58 19.5 96.5t52.5 61.5t72.5 32.5t78.5 9.5zM426 500v-155h-423v155h423zM701 720q50 0 87 -10t53 -21l-15 -133q-10 5 -24 9.5t-37 4.5
q-31 0 -52 -12.5t-21 -49.5v-58l16 -29v-421h-230v520q0 58 19.5 96.5t52.5 61.5t72.5 32.5t78.5 9.5zM834 500v-155h-423v155h423zM1107 700v-501q0 -30 9 -44t32 -14q11 0 19.5 1.5t16.5 3.5l-10 -124q-19 -14 -54.5 -23t-69.5 -9q-93 0 -133 40t-40 134v536h230z" />
    <glyph glyph-name=".notdef" horiz-adv-x="500" 
d="M130 80h240v500h-240v-500zM50 0v660h400v-660h-400z" />
    <glyph glyph-name=".null" horiz-adv-x="0" 
 />
    <glyph glyph-name="nonmarkingreturn" horiz-adv-x="333" 
 />
    <glyph glyph-name="NULL" horiz-adv-x="0" 
 />
    <glyph glyph-name="NULL" horiz-adv-x="0" 
 />
    <glyph glyph-name="CR" unicode="&#xd;" horiz-adv-x="250" 
 />
    <glyph glyph-name="space" unicode=" " horiz-adv-x="250" 
 />
    <glyph glyph-name="exclam" unicode="!" horiz-adv-x="321" 
d="M280 660v-164l-24 -276h-192l-24 276v164h240zM160 185q56 0 86.5 -25t30.5 -71t-30.5 -71t-86.5 -25q-55 0 -86 25t-31 71t31 71t86 25z" />
    <glyph glyph-name="quotedbl" unicode="&#x22;" horiz-adv-x="477" 
d="M446 670l-32 -297h-147v297h179zM229 670l-32 -297h-147v297h179z" />
    <glyph glyph-name="numbersign" unicode="#" horiz-adv-x="721" 
d="M604 660l-105 -660h-147l104 660h148zM649 271v-129h-619v129h619zM351 660l-104 -660h-148l104 660h148zM691 518v-129h-619v129h619z" />
    <glyph glyph-name="dollar" unicode="$" horiz-adv-x="653" 
d="M333 0q-61 0 -122 11.5t-113.5 33t-90.5 52.5l89 149q28 -31 73 -50.5t93 -29t84 -9.5q39 0 60 9t21 28q0 14 -17 21t-52 15l-125 30q-50 12 -95.5 33.5t-73.5 57t-28 89.5q0 66 35.5 115.5t103 77t163.5 27.5q92 0 165.5 -23t129.5 -68l-86 -136q-46 32 -99.5 52.5
t-119.5 20.5q-32 0 -52 -4.5t-29 -12.5t-9 -19q0 -10 6.5 -17t27 -13.5t61.5 -15.5l89 -20q98 -22 148 -61.5t50 -116.5t-38 -127.5t-103 -74.5t-146 -24zM272 -80v820h130v-820h-130z" />
    <glyph glyph-name="percent" unicode="%" horiz-adv-x="992" 
d="M171 0l486 661h166l-486 -661h-166zM228 670q61 0 107 -24t71.5 -67t25.5 -101t-25.5 -101t-71.5 -67t-107 -24t-107 24t-71.5 67t-25.5 101t25.5 101t71.5 67t107 24zM228 522q-13 0 -22 -5t-14 -15t-5 -24t5 -24t14 -15t22 -5t22 5t14 15t5 24t-5 24t-14 15t-22 5z
M764 374q61 0 107 -24t71.5 -67t25.5 -101t-25.5 -101t-71.5 -67t-107 -24t-107 24t-71.5 67t-25.5 101t25.5 101t71.5 67t107 24zM764 226q-13 0 -22 -5t-14 -15t-5 -24t5 -24t14 -15t22 -5t22 5t14 15t5 24t-5 24t-14 15t-22 5z" />
    <glyph glyph-name="ampersand" unicode="&#x26;" horiz-adv-x="662" 
d="M257 -10q-71 0 -127 19.5t-87.5 60.5t-32.5 105q0 24 8 54t30.5 58t63.5 47.5t106 22.5l24 1q46 29 68.5 50.5t30 39.5t7.5 38t-12 31.5t-31 11.5q-20 0 -33 -13t-13 -39q0 -13 6 -26.5t22 -33t45.5 -49.5t76.5 -76q45 -44 77 -74.5t57.5 -47.5t50.5 -22t58 1l-12 -159
q-48 0 -84.5 5.5t-71.5 22.5t-76.5 50t-100.5 88q-79 75 -127 123.5t-72.5 82.5t-32.5 62.5t-8 62.5q0 45 24 87t75.5 69t132.5 27q84 0 133.5 -26t71 -65t21.5 -79q0 -51 -27 -93.5t-79.5 -70t-129.5 -36.5l-29 -20q-23 -17 -35.5 -30.5t-17 -27t-4.5 -31.5
q0 -17 10.5 -30.5t30 -21t46.5 -7.5q41 0 74 11.5t66 27.5l16 26q14 26 23 56.5t9 75.5h146q-3 -64 -25.5 -115.5t-64.5 -86.5l-40 -26q-29 -51 -89.5 -81t-147.5 -30z" />
    <glyph glyph-name="quotesingle" unicode="'" horiz-adv-x="260" 
d="M229 670l-32 -297h-147v297h179z" />
    <glyph glyph-name="parenleft" unicode="(" horiz-adv-x="418" 
d="M318 726l103 -100q-50 -44 -83.5 -94.5t-49.5 -114.5t-16 -150t16 -150.5t49.5 -114.5t83.5 -95l-103 -100q-120 68 -183.5 181.5t-63.5 278.5q0 164 63.5 278t183.5 181z" />
    <glyph glyph-name="parenright" unicode=")" horiz-adv-x="418" 
d="M100 -193l-103 100q50 44 83.5 94.5t49.5 114.5t16 150t-16 150.5t-49.5 114.5t-83.5 95l103 100q120 -68 183.5 -181.5t63.5 -278.5q0 -164 -63.5 -278t-183.5 -181z" />
    <glyph glyph-name="asterisk" unicode="*" horiz-adv-x="599" 
d="M336 499l88 -74l91 -116l-128 -93l-82 123l-43 105l37 27zM262 499l37 -28l37 -27l-43 -105l-82 -123l-128 93l92 116zM78 627l138 -52l97 -60l-14 -44l-14 -43l-114 8l-142 40zM378 730l-6 -147l-27 -112h-46h-46l-27 112l-6 147h158zM521 627l49 -151l-143 -40l-114 -8
l-14 43l-14 44l97 60z" />
    <glyph glyph-name="plus" unicode="+" horiz-adv-x="604" 
d="M390 606v-551h-175v551h175zM559 407v-153h-514v153h514z" />
    <glyph glyph-name="comma" unicode="," horiz-adv-x="306" 
d="M148 206q46 0 74.5 -20t42 -51.5t13.5 -67.5q0 -54 -24.5 -101.5t-61.5 -82t-73 -49.5l-87 59q28 13 53.5 30t46.5 37t33 41l-5 4q-7 -4 -16 -6.5t-23 -2.5q-22 0 -44 10.5t-37 31.5t-15 53q0 41 17.5 66t46 37t59.5 12z" />
    <glyph glyph-name="hyphen" unicode="-" horiz-adv-x="540" 
d="M465 359v-175h-390v175h390z" />
    <glyph glyph-name="period" unicode="." horiz-adv-x="306" 
d="M153 206q59 0 91 -28t32 -79t-32 -79t-91 -28q-58 0 -90.5 28t-32.5 79t32.5 79t90.5 28z" />
    <glyph glyph-name="slash" unicode="/" horiz-adv-x="488" 
d="M482 700l-263 -770h-213l263 770h213z" />
    <glyph glyph-name="zero" unicode="0" horiz-adv-x="658" 
d="M329 -10q-150 0 -221.5 85t-71.5 255t71.5 255t221.5 85t221.5 -85t71.5 -255t-71.5 -255t-221.5 -85zM329 165q26 0 40 14t19.5 50t5.5 101t-5.5 101t-19.5 50t-40 14q-25 0 -39.5 -14t-20 -50t-5.5 -101t5.5 -101t20 -50t39.5 -14z" />
    <glyph glyph-name="one" unicode="1" horiz-adv-x="459" 
d="M180 0v310v66v66q-32 -28 -69 -48.5t-78 -26.5l-13 187q31 3 62 13.5t58.5 25.5t49 32t32.5 35h181v-660h-223z" />
    <glyph glyph-name="two" unicode="2" horiz-adv-x="605" 
d="M51 0v140q75 40 130.5 80t92 78.5t54.5 73t18 63.5q0 24 -12 42t-42 18q-34 0 -50 -28t-14 -89l-199 48q-2 84 35 138t101.5 80t142.5 26q75 0 126.5 -20.5t82.5 -53t44.5 -70t13.5 -71.5q0 -66 -34.5 -119t-92.5 -95t-129 -76v-2q21 2 46.5 3.5t54 2t56.5 0.5h103v-169
h-528z" />
    <glyph glyph-name="three" unicode="3" horiz-adv-x="600" 
d="M309 -10q-118 0 -190.5 41.5t-101.5 126.5l210 85q-1 -34 8 -52t24.5 -24t31.5 -6q17 0 30 5.5t20.5 17.5t7.5 29q0 19 -8.5 29.5t-21.5 15t-28 4.5t-25 -1t-24 -3v134q8 -1 16 -1.5t21 -0.5q29 0 43 13t14 43q0 25 -13 39t-36 14t-42 -16.5t-18 -65.5l-201 62
q7 64 45.5 106t99 63.5t133.5 21.5q81 0 138 -21.5t87 -63.5t30 -103q0 -47 -16 -76.5t-38.5 -45.5t-42.5 -22t-27 -6v-4q7 0 28.5 -3.5t46.5 -16t43 -40.5t18 -76q0 -64 -35.5 -109.5t-95 -69t-131.5 -23.5z" />
    <glyph glyph-name="four" unicode="4" horiz-adv-x="670" 
d="M365 0v126h-322v141q14 26 38.5 64.5t57.5 88.5l157 240h269v-383h89v-151h-89v-126h-200zM215 277h153v169q0 15 0.5 33t1.5 37h-2q-9 -17 -18.5 -34t-19.5 -32l-80 -123q-8 -13 -16.5 -25t-18.5 -25z" />
    <glyph glyph-name="five" unicode="5" horiz-adv-x="583" 
d="M285 -10q-85 0 -154.5 29.5t-122.5 107.5l200 98q8 -31 26.5 -50t55.5 -19q22 0 37 7t23.5 22t8.5 37q0 19 -8 31.5t-24 19.5t-41 7q-18 0 -32 -3t-25 -8t-21 -12l-170 32l44 371h445v-171h-282l-11 -82l-5 -21h1q18 22 52.5 32t73.5 10q67 0 112.5 -25.5t69.5 -68.5
t24 -98q0 -67 -23 -114t-63 -76t-89 -42.5t-102 -13.5z" />
    <glyph glyph-name="six" unicode="6" horiz-adv-x="622" 
d="M354 670q54 0 103 -14t86.5 -47t53.5 -90l-185 -87q-7 29 -25 45t-47 16q-19 0 -36 -8t-29.5 -24t-19.5 -42t-7 -62v-7v-8l1 -10q12 22 35.5 38.5t53.5 26t60 9.5q58 0 104 -22.5t73.5 -65t27.5 -103.5q0 -69 -32.5 -119.5t-91 -78t-137.5 -27.5q-87 0 -156 33.5
t-109.5 106t-40.5 190.5q0 122 42.5 199t114.5 114t161 37zM338 265q-16 0 -30 -6.5t-23 -19t-9 -30.5t9 -30.5t23 -19t30 -6.5q29 0 44.5 14.5t15.5 41.5q0 18 -7 30.5t-20 19t-33 6.5z" />
    <glyph glyph-name="seven" unicode="7" horiz-adv-x="640" 
d="M28 660h582v-154q-82 -75 -126 -156t-61 -168t-17 -182h-228q0 108 27.5 201t88 177.5t159.5 167.5l52 -61h-477v175z" />
    <glyph glyph-name="eight" unicode="8" horiz-adv-x="634" 
d="M317 667q82 0 142.5 -22.5t94 -64t33.5 -99.5q0 -54 -27 -92t-83 -58v-1q62 -19 94.5 -54.5t32.5 -94.5q0 -58 -34 -100.5t-98 -66.5t-155 -24t-155 24t-98 66.5t-34 100.5q0 59 33 94.5t94 54.5v1q-55 20 -82.5 58t-27.5 92q0 58 33.5 99.5t94.5 64t142 22.5zM317 509
q-28 0 -44.5 -15t-16.5 -41t16.5 -41t45.5 -15q28 0 44 15t16 41t-16 41t-45 15zM317 148q21 0 35.5 6.5t22 19.5t7.5 30q0 18 -7.5 30.5t-22 19t-35.5 6.5q-20 0 -35 -6.5t-22.5 -19t-7.5 -30.5q0 -17 7.5 -30t22.5 -19.5t35 -6.5z" />
    <glyph glyph-name="nine" unicode="9" horiz-adv-x="616" 
d="M290 670q96 0 160.5 -35.5t97 -109.5t32.5 -191q0 -126 -39.5 -201.5t-105.5 -109t-145 -33.5q-89 0 -155.5 32.5t-99.5 108.5l204 73q4 -23 17 -35t36 -12q18 0 33 7t26 21t17 36t6 53v9.5v11.5h-3q-10 -20 -31.5 -34t-49.5 -21.5t-61 -7.5q-60 0 -107 25.5t-74 72
t-27 108.5q0 73 34.5 124.5t95 79.5t139.5 28zM290 501q-26 0 -43.5 -14.5t-17.5 -41.5t17.5 -41.5t43.5 -14.5q16 0 30 6.5t22.5 19t8.5 30.5t-8.5 30.5t-22.5 19t-30 6.5z" />
    <glyph glyph-name="colon" unicode=":" horiz-adv-x="306" 
d="M153 510q59 0 91 -28t32 -79t-32 -79t-91 -28q-58 0 -90.5 28t-32.5 79t32.5 79t90.5 28zM153 206q59 0 91 -28t32 -79t-32 -79t-91 -28q-58 0 -90.5 28t-32.5 79t32.5 79t90.5 28z" />
    <glyph glyph-name="semicolon" unicode=";" horiz-adv-x="306" 
d="M148 206q46 0 74.5 -20t42 -51.5t13.5 -67.5q0 -54 -24.5 -101.5t-61.5 -82t-73 -49.5l-87 59q28 13 53.5 30t46.5 37t33 41l-5 4q-7 -4 -16 -6.5t-23 -2.5q-22 0 -44 10.5t-37 31.5t-15 53q0 41 17.5 66t46 37t59.5 12zM153 509q59 0 91 -28t32 -79t-32 -79t-91 -28
q-58 0 -90.5 28t-32.5 79t32.5 79t90.5 28z" />
    <glyph glyph-name="less" unicode="&#x3c;" horiz-adv-x="604" 
d="M557 -10l-500 213v183l500 213v-213l-322 -91l322 -92v-213z" />
    <glyph glyph-name="equal" unicode="=" horiz-adv-x="604" 
d="M539 511v-145h-474v145h474zM539 284v-145h-474v145h474z" />
    <glyph glyph-name="greater" unicode="&#x3e;" horiz-adv-x="604" 
d="M47 599l500 -213v-183l-500 -213v213l322 91l-322 92v213z" />
    <glyph glyph-name="question" unicode="?" horiz-adv-x="651" 
d="M331 670q80 0 144 -20.5t101.5 -63.5t37.5 -110q0 -64 -26 -103t-69.5 -58t-96.5 -25l-17 -72h-194l1 154q57 2 90.5 12t47.5 26t14 35q0 23 -11.5 34t-36.5 11q-28 0 -42.5 -18.5t-19.5 -58.5l-226 67q13 53 46.5 96t95.5 68.5t161 25.5zM313 185q56 0 86.5 -25
t30.5 -71t-30.5 -71t-86.5 -25q-55 0 -85.5 25t-30.5 71t30.5 71t85.5 25z" />
    <glyph glyph-name="at" unicode="@" horiz-adv-x="913" 
d="M454 -179q-91 0 -169 25.5t-136.5 77t-91 129t-32.5 180.5q0 96 33.5 176t94.5 138.5t143.5 90t180.5 31.5q85 0 158 -26t127.5 -75t85 -120t30.5 -161q0 -87 -22.5 -144t-58.5 -89.5t-76 -46t-76 -13.5q-79 0 -121.5 39t-40.5 102q-22 -57 -63 -89t-92 -32q-38 0 -69 21
t-49 62.5t-18 101.5q0 48 13.5 95t40 86.5t65.5 63t89 23.5q23 0 46.5 -8.5t42 -29t24.5 -58.5l20 87h197l-59 -258q-3 -14 -5 -26t-2 -23q0 -26 11.5 -39t35.5 -13q21 0 39 17.5t29.5 56.5t11.5 104q0 75 -23.5 132.5t-66 96.5t-100 59t-124.5 20q-79 0 -143.5 -24.5
t-111.5 -71t-72.5 -111.5t-25.5 -145q0 -85 27.5 -147.5t75 -102t109 -59t130.5 -19.5q61 0 104 15t79 35l37 -71q-29 -17 -62 -31.5t-74 -23t-96 -8.5zM424 155q22 0 36 22t21 51.5t7 51.5q0 15 -3.5 25t-11 15t-19.5 5q-18 0 -30.5 -13.5t-21 -33t-12 -39.5t-3.5 -34
q0 -15 4 -26.5t12 -17.5t21 -6z" />
    <glyph glyph-name="A" unicode="A" horiz-adv-x="689" 
d="M-10 0l214 660h280l215 -660h-238l-90 379l-27 112h-3l-26 -112l-93 -379h-232zM157 126v145h377v-145h-377z" />
    <glyph glyph-name="B" unicode="B" horiz-adv-x="704" 
d="M50 0v660h378q125 -1 186 -44.5t61 -131.5q0 -59 -36 -100t-113 -52v-1q86 -9 126 -51t40 -106q0 -87 -58.5 -130.5t-179.5 -43.5h-404zM273 152h119q31 0 46.5 12.5t15.5 36.5q0 23 -15.5 35t-46.5 12h-119v-96zM273 404h104q60 0 60 48t-60 48h-104v-96z" />
    <glyph glyph-name="C" unicode="C" horiz-adv-x="677" 
d="M670 202q-18 -77 -61.5 -124t-105.5 -67.5t-138 -20.5q-104 0 -179.5 40t-116 116t-40.5 184t40.5 184t116 116t179.5 40q73 0 136 -20.5t106.5 -64.5t57.5 -115l-200 -78q-8 65 -32.5 84t-61.5 19q-34 0 -57.5 -17.5t-35 -54t-11.5 -93.5q0 -56 10.5 -93t34.5 -54.5
t64 -17.5q36 0 59 21.5t29 68.5z" />
    <glyph glyph-name="D" unicode="D" horiz-adv-x="716" 
d="M374 660q155 0 234 -86t79 -244q0 -157 -79 -243.5t-234 -86.5h-324v660h324zM341 166q65 0 86.5 39.5t21.5 124.5t-21.5 124.5t-86.5 39.5h-58v-328h58z" />
    <glyph glyph-name="E" unicode="E" horiz-adv-x="626" 
d="M50 0v660h548v-171h-315v-82h254v-158h-254v-78h327v-171h-560z" />
    <glyph glyph-name="F" unicode="F" horiz-adv-x="614" 
d="M597 489h-314v-92h254v-171h-254v-226h-233v660h547v-171z" />
    <glyph glyph-name="G" unicode="G" horiz-adv-x="722" 
d="M328 -10q-85 0 -153 37.5t-107 113t-39 187.5q0 108 40.5 184.5t117.5 117t184 40.5q122 0 195.5 -43t112.5 -138l-217 -78q-7 47 -30.5 65.5t-58.5 18.5q-38 0 -61.5 -18t-34 -54.5t-10.5 -92.5q0 -62 13.5 -100t41 -54.5t69.5 -16.5q20 0 36.5 4t29 12.5t19 21.5
t6.5 31v1h-111v143h306v-372h-154l-19 177l36 -39q-17 -71 -70.5 -109.5t-141.5 -38.5z" />
    <glyph glyph-name="H" unicode="H" horiz-adv-x="747" 
d="M697 660v-660h-233v660h233zM283 660v-660h-233v660h233zM593 417v-171h-431v171h431z" />
    <glyph glyph-name="I" unicode="I" horiz-adv-x="333" 
d="M283 660v-660h-233v660h233z" />
    <glyph glyph-name="J" unicode="J" horiz-adv-x="653" 
d="M618 660v-388q0 -134 -80 -208t-231 -74q-111 0 -177.5 39t-91 107t-11.5 154l231 39q-13 -94 3.5 -129t57.5 -35q34 0 50 29t16 95v371h233z" />
    <glyph glyph-name="K" unicode="K" horiz-adv-x="717" 
d="M703 660l-324 -421l-10 51l-145 -198l-54 161l285 407h248zM283 660v-660h-233v660h233zM467 459l254 -459h-261l-164 330z" />
    <glyph glyph-name="L" unicode="L" horiz-adv-x="605" 
d="M283 171h299v-171h-532v660h233v-489z" />
    <glyph glyph-name="M" unicode="M" horiz-adv-x="948" 
d="M898 660v-660h-203v229l3 222h-3l-128 -451h-186l-126 451h-4l3 -222v-229h-204v660h326l76 -293l29 -123h2l29 123l76 293h310z" />
    <glyph glyph-name="N" unicode="N" horiz-adv-x="746" 
d="M696 660v-660h-252l-158 300l-36 81h-2l4 -136v-245h-202v660h252l158 -301l36 -80h2l-4 136v245h202z" />
    <glyph glyph-name="O" unicode="O" horiz-adv-x="729" 
d="M365 670q105 0 180 -40t115 -116t40 -184t-40 -184t-115 -116t-180 -40q-104 0 -179.5 40t-116 116t-40.5 184t40.5 184t116 116t179.5 40zM365 495q-34 0 -55.5 -17.5t-32 -53.5t-10.5 -94q0 -57 10.5 -93.5t32 -54t55.5 -17.5t55.5 17.5t31.5 54t10 93.5q0 58 -10 94
t-31.5 53.5t-55.5 17.5z" />
    <glyph glyph-name="P" unicode="P" horiz-adv-x="706" 
d="M400 660q89 0 151 -27t94 -79t32 -127t-32 -127t-94 -79t-151 -27h-117v-194h-233v660h350zM362 359q38 0 60 16.5t22 51.5t-22 51.5t-60 16.5h-79v-136h79z" />
    <glyph glyph-name="Q" unicode="Q" horiz-adv-x="729" 
d="M537 -209q-76 0 -129.5 24t-81 64t-27.5 89q0 28 9 57.5t28 58.5l120 39q-17 -30 -25 -54.5t-8 -43.5q0 -28 15 -45t40.5 -25t59.5 -8q47 0 75 9t48 24l25 -149q-27 -19 -67 -29.5t-82 -10.5zM365 670q105 0 180 -40t115 -116t40 -184t-40 -184t-115 -116t-180 -40
q-104 0 -179.5 40t-116 116t-40.5 184t40.5 184t116 116t179.5 40zM365 495q-34 0 -55.5 -17.5t-32 -53.5t-10.5 -94q0 -57 10.5 -93.5t32 -54t55.5 -17.5t55.5 17.5t31.5 54t10 93.5q0 58 -10 94t-31.5 53.5t-55.5 17.5z" />
    <glyph glyph-name="R" unicode="R" horiz-adv-x="705" 
d="M408 660q129 0 198 -57.5t69 -152.5q0 -109 -67.5 -164t-196.5 -55l-23 -12h-110v-219h-228v660h358zM368 372q37 0 55.5 13.5t18.5 47.5q0 33 -18.5 47t-55.5 14h-90v-122h90zM506 323l206 -323h-253l-154 289z" />
    <glyph glyph-name="S" unicode="S" horiz-adv-x="648" 
d="M339 670q95 0 170.5 -23.5t133.5 -70.5l-94 -150q-47 33 -98.5 53t-111.5 20q-26 0 -41.5 -4t-22 -11t-6.5 -16q0 -12 18.5 -18t46.5 -13l91 -21q101 -23 152.5 -68t51.5 -125t-39 -131.5t-105.5 -76.5t-150.5 -25q-63 0 -126 11.5t-117 34t-93 54.5l92 153
q29 -23 70 -41.5t85 -29.5t82 -11q24 0 38 4t19.5 10.5t5.5 15.5q0 14 -11.5 21t-41.5 14l-100 22q-53 12 -101 32t-78 58.5t-30 104.5q0 68 36.5 119t106 79.5t168.5 28.5z" />
    <glyph glyph-name="T" unicode="T" horiz-adv-x="686" 
d="M666 660v-171h-206v-489h-233v489h-207v171h646z" />
    <glyph glyph-name="U" unicode="U" horiz-adv-x="712" 
d="M675 660v-376q0 -148 -79.5 -221t-239.5 -73t-239.5 73t-79.5 221v376h234v-394q0 -50 22 -75.5t63 -25.5q42 0 64 25.5t22 75.5v394h233z" />
    <glyph glyph-name="V" unicode="V" horiz-adv-x="707" 
d="M715 660l-223 -660h-277l-223 660h243l91 -361l32 -129l30 127l93 363h234z" />
    <glyph glyph-name="W" unicode="W" horiz-adv-x="1021" 
d="M179 0l-187 660h251l77 -477l93 477h200l98 -474l75 474h242l-188 -660h-247l-52 248l-26 169h-3l-26 -169l-51 -248h-256z" />
    <glyph glyph-name="X" unicode="X" horiz-adv-x="704" 
d="M713 0h-281l-87 171l-80 -171h-263l219 329l-211 331h275l77 -165l78 165h254l-210 -325z" />
    <glyph glyph-name="Y" unicode="Y" horiz-adv-x="713" 
d="M704 660l-231 -431v-229h-233v229l-231 431h232l70 -151l47 -120l47 120l70 151h229z" />
    <glyph glyph-name="Z" unicode="Z" horiz-adv-x="637" 
d="M201 89l-41 77h462v-166h-597v159l412 412l40 -77h-448v166h582v-159z" />
    <glyph glyph-name="bracketleft" unicode="[" horiz-adv-x="420" 
d="M399 550h-120v-567h120v-151h-315v869h315v-151z" />
    <glyph glyph-name="backslash" unicode="\" horiz-adv-x="488" 
d="M6 700h213l263 -770h-213z" />
    <glyph glyph-name="bracketright" unicode="]" horiz-adv-x="420" 
d="M21 -17h120v567h-120v151h315v-869h-315v151z" />
    <glyph glyph-name="asciicircum" unicode="^" horiz-adv-x="647" 
d="M23 355l206 365h189l206 -365h-196l-104 223l-105 -223h-196z" />
    <glyph glyph-name="underscore" unicode="_" horiz-adv-x="539" 
d="M539 -45v-175h-539v175h539z" />
    <glyph glyph-name="grave" unicode="`" horiz-adv-x="500" 
d="M323 730l60 -177h-162l-103 177h205z" />
    <glyph glyph-name="a" unicode="a" 
d="M310 312q0 23 -10.5 36t-32.5 13q-21 0 -35 -12t-16 -48l-194 28q7 83 72 132t189 49q87 0 143.5 -24t84 -67t27.5 -100v-155q0 -41 39 -41q11 0 17 3l-10 -118q-37 -18 -89 -18q-47 0 -83.5 13.5t-57 41t-20.5 70.5v10h22q-1 -38 -24.5 -68.5t-62.5 -48.5t-89 -18
q-53 0 -89.5 16t-55.5 46t-19 71q0 55 35 89.5t101 47.5l174 36l-1 -81l-54 -13q-21 -5 -30 -16.5t-9 -28.5q0 -16 10 -26t28 -10q8 0 15.5 3t13 9t8.5 14.5t3 19.5v145z" />
    <glyph glyph-name="b" unicode="b" horiz-adv-x="627" 
d="M411 -10q-53 0 -92 26.5t-61 73t-25 104.5l19 26l-11 -220h-202v700h230v-387l-20 30q10 72 50.5 119.5t120.5 47.5q56 0 97 -31t63 -89.5t22 -142.5q0 -81 -22 -138.5t-64.5 -88t-104.5 -30.5zM318 151q24 0 38 20t14 79t-14 78.5t-38 19.5q-17 0 -28 -11t-16 -33
t-5 -54q0 -34 6 -56t17 -32.5t26 -10.5z" />
    <glyph glyph-name="c" unicode="c" horiz-adv-x="571" 
d="M297 510q92 0 150 -25.5t85.5 -64.5t28.5 -80l-212 -62q0 40 -9.5 58.5t-32.5 18.5q-20 0 -32.5 -9.5t-18 -33t-5.5 -65.5q0 -43 7.5 -65t20.5 -29.5t29 -7.5q15 0 24 7.5t14.5 22.5t6.5 36l206 -64q-1 -42 -32 -77.5t-86.5 -57.5t-131.5 -22q-90 0 -155 30.5t-99.5 88.5
t-34.5 141t34.5 141t97 88.5t145.5 30.5z" />
    <glyph glyph-name="d" unicode="d" horiz-adv-x="627" 
d="M216 -10q-61 0 -104 30.5t-65 88t-22 138.5q0 84 22.5 142.5t65.5 89.5t104 31q73 0 112 -47.5t49 -119.5l-20 -30v387h230v-700h-207l-14 202l26 -29q-6 -53 -28.5 -94.5t-60 -65t-88.5 -23.5zM309 151q16 0 26.5 10.5t16.5 32.5t6 56q0 32 -5 54t-16 33t-28 11
q-24 0 -38 -19.5t-14 -78.5t14 -79t38 -20z" />
    <glyph glyph-name="e" unicode="e" horiz-adv-x="580" 
d="M306 -10q-90 0 -154 30.5t-98 88.5t-34 141t34.5 141t97 88.5t145.5 30.5q85 0 144.5 -30.5t90.5 -85.5t31 -128q0 -16 -1.5 -33t-3.5 -27h-390v85h290l-109 -43q0 54 -9.5 82t-41.5 28q-21 0 -34.5 -10t-19.5 -34.5t-6 -67.5t8 -65.5t23.5 -30t39.5 -7.5q26 0 40.5 11.5
t19.5 31.5l185 -50q-11 -49 -49 -81.5t-90.5 -48.5t-108.5 -16z" />
    <glyph glyph-name="f" unicode="f" horiz-adv-x="430" 
d="M293 720q50 0 87 -10t53 -21l-15 -133q-10 5 -24 9.5t-37 4.5q-31 0 -52 -12.5t-21 -49.5v-58l16 -29v-421h-230v520q0 58 19.5 96.5t52.5 61.5t72.5 32.5t78.5 9.5zM426 500v-155h-423v155h423z" />
    <glyph glyph-name="g" unicode="g" horiz-adv-x="578" 
d="M565 662l12 -142q-10 2 -18.5 3t-16.5 1q-41 0 -59.5 -22.5t-18.5 -47.5l-67 20q0 43 13 86.5t45 73t87 29.5h11t12 -1zM381 142q97 0 148 -39t51 -117q0 -70 -35 -114.5t-101.5 -65.5t-161.5 -21q-147 0 -208 30t-61 90q0 42 39 65t128 23l-2 -17q-79 8 -113.5 40.5
t-34.5 84.5q0 53 43.5 83.5t107.5 30.5l69 -30h-20q-32 0 -45 -5.5t-13 -16.5q0 -10 9.5 -15.5t31.5 -5.5h168zM285 -76q42 0 69.5 3t41.5 9.5t14 16.5q0 6 -4 9.5t-15 3.5h-195q-10 0 -15 -5t-5 -12q0 -13 29 -19t80 -6zM299 510q88 0 147 -19t89 -56.5t30 -95.5
q0 -57 -30 -94.5t-89 -56t-147 -18.5q-131 0 -198.5 42t-67.5 127q0 58 30 95.5t89.5 56.5t146.5 19zM299 391q-20 0 -31 -12t-11 -39t11 -39t31 -12t31 12t11 39t-11 39t-31 12z" />
    <glyph glyph-name="h" unicode="h" horiz-adv-x="620" 
d="M39 0v700h230v-302q20 54 59.5 83t96.5 29q50 0 85 -19.5t53.5 -57t18.5 -91.5v-342h-230v282q0 34 -8.5 46.5t-26.5 12.5q-16 0 -27 -8.5t-16 -26t-5 -44.5v-262h-230z" />
    <glyph glyph-name="i" unicode="i" horiz-adv-x="308" 
d="M154 532q-68 0 -96.5 22t-28.5 74q0 53 28.5 74.5t96.5 21.5t96.5 -21.5t28.5 -74.5q0 -52 -28.5 -74t-96.5 -22zM269 500v-500h-230v500h230z" />
    <glyph glyph-name="j" unicode="j" horiz-adv-x="308" 
d="M154 532q-68 0 -96.5 22t-28.5 74q0 53 28.5 74.5t96.5 21.5t96.5 -21.5t28.5 -74.5q0 -52 -28.5 -74t-96.5 -22zM269 500v-513q0 -71 -23 -115.5t-71.5 -65.5t-126.5 -21q-47 0 -84 7.5t-68 23.5l28 133q10 -5 22.5 -8t29.5 -3q29 0 46 15.5t17 53.5v493h230z" />
    <glyph glyph-name="k" unicode="k" horiz-adv-x="658" 
d="M662 500l-256 -282l-40 -3l-129 -157l-3 223l181 219h247zM269 700v-700h-230v700h230zM445 366l228 -366h-250l-118 230z" />
    <glyph glyph-name="l" unicode="l" horiz-adv-x="341" 
d="M269 700v-501q0 -30 9 -44t32 -14q11 0 19.5 1.5t16.5 3.5l-10 -124q-19 -14 -54.5 -23t-69.5 -9q-93 0 -133 40t-40 134v536h230z" />
    <glyph glyph-name="m" unicode="m" horiz-adv-x="933" 
d="M39 0v500h207l5 -109q22 57 66 88t108 31q57 0 94.5 -26t53.5 -74q16 32 39.5 54.5t55 34t70.5 11.5q50 0 85 -19.5t53.5 -57t18.5 -91.5v-342h-230v282q0 34 -8.5 46t-26.5 12q-16 0 -27 -8t-16 -25.5t-5 -44.5v-262h-230v282q0 34 -8.5 46t-26.5 12q-16 0 -27 -8
t-16 -25.5t-5 -44.5v-262h-230z" />
    <glyph glyph-name="n" unicode="n" horiz-adv-x="620" 
d="M39 0v500h207l10 -212l-23 25q7 62 31 106t64.5 67.5t96.5 23.5q50 0 85 -19.5t53.5 -57t18.5 -91.5v-342h-230v285q0 32 -9 43.5t-27 11.5q-16 0 -26.5 -7.5t-15.5 -24.5t-5 -44v-264h-230z" />
    <glyph glyph-name="o" unicode="o" horiz-adv-x="598" 
d="M299 510q84 0 146.5 -30.5t97.5 -88.5t35 -141q0 -82 -35 -140.5t-97.5 -89t-146.5 -30.5q-83 0 -146 30.5t-98 89t-35 140.5q0 83 35 141t98 88.5t146 30.5zM299 355q-15 0 -26 -8.5t-16.5 -31.5t-5.5 -65t5.5 -64.5t16.5 -31.5t26 -9q16 0 26.5 9t16 31.5t5.5 64.5
t-5.5 65t-16 31.5t-26.5 8.5z" />
    <glyph glyph-name="p" unicode="p" horiz-adv-x="627" 
d="M39 -210v710h209l11 -220l-26 26q3 59 25 105t61 72.5t92 26.5q62 0 104.5 -30.5t64.5 -87.5t22 -139q0 -83 -22.5 -142t-65.5 -90t-104 -31q-73 0 -112 47.5t-49 119.5l20 30v-397h-230zM318 152q24 0 38 19.5t14 78.5t-14 79t-38 20q-15 0 -26 -10.5t-17 -32t-6 -56.5
q0 -32 5 -54t16 -33t28 -11z" />
    <glyph glyph-name="q" unicode="q" horiz-adv-x="627" 
d="M358 -210v397l20 -30q-6 -48 -26 -85.5t-53 -59.5t-82 -22q-61 0 -104 31t-65.5 90t-22.5 142q0 82 22 139t65 87.5t104 30.5q54 0 92.5 -26.5t60.5 -72.5t25 -105l-26 -26l11 220h209v-710h-230zM309 152q17 0 28 11t16 33t5 54q0 35 -6 56.5t-16.5 32t-26.5 10.5
q-24 0 -38 -20t-14 -79t14 -78.5t38 -19.5z" />
    <glyph glyph-name="r" unicode="r" horiz-adv-x="444" 
d="M39 0v500h207l5 -125q17 62 52.5 98.5t94.5 36.5q23 0 35 -4t17 -8l-19 -185q-9 4 -26 7t-37 3q-30 0 -52 -9.5t-34.5 -27.5t-12.5 -46v-240h-230z" />
    <glyph glyph-name="s" unicode="s" horiz-adv-x="538" 
d="M269 -10q-73 0 -140.5 20t-117.5 60l82 119q27 -24 71 -42.5t88 -18.5q17 0 30.5 4t13.5 14q0 8 -7.5 12t-32.5 8l-36 7q-109 21 -154 60t-45 105q0 41 26.5 80.5t84.5 65.5t153 26q78 0 140 -19.5t101 -53.5l-79 -114q-28 22 -71.5 35.5t-79.5 13.5q-16 0 -26 -2
t-14.5 -5.5t-4.5 -8.5q0 -7 10 -13t39 -11l71 -12q81 -13 118.5 -52t37.5 -96q0 -49 -26.5 -90.5t-83 -66.5t-148.5 -25z" />
    <glyph glyph-name="t" unicode="t" horiz-adv-x="449" 
d="M310 670v-466q0 -34 14.5 -48.5t45.5 -14.5q20 0 35 3t28 10l10 -130q-25 -16 -68 -25t-81 -9q-70 0 -117.5 17.5t-72 56.5t-24.5 104v438zM436 500v-155h-433v155h433z" />
    <glyph glyph-name="u" unicode="u" horiz-adv-x="620" 
d="M200 -10q-52 0 -88 17.5t-55 55.5t-19 99v338h230v-285q0 -29 9.5 -42t28.5 -13q11 0 19.5 4.5t14 13.5t8.5 23.5t3 33.5v265h230v-500h-207l-5 106q-22 -58 -64.5 -87t-104.5 -29z" />
    <glyph glyph-name="v" unicode="v" 
d="M360 500h238l-161 -500h-286l-161 500h238l66 -355z" />
    <glyph glyph-name="w" unicode="w" horiz-adv-x="942" 
d="M713 500h238l-136 -500h-286l-58 246l-58 -246h-286l-136 500h238l57 -343l72 343h226l72 -343z" />
    <glyph glyph-name="x" unicode="x" horiz-adv-x="627" 
d="M252 500l104 -235l90 13l192 -278h-260l-106 235l-92 -7l-187 272h259zM634 500l-184 -272l-101 7l-103 -235h-257l189 278l93 -13l107 235h256z" />
    <glyph glyph-name="y" unicode="y" horiz-adv-x="594" 
d="M604 500l-147 -444q-33 -99 -73.5 -158.5t-97 -86t-137.5 -26.5q-48 0 -87 9t-67 24l42 145q16 -9 34.5 -13t54.5 -4q32 0 47.5 6t21.5 21l3 8l-63 147l-143 372h251l45 -258l19 -117l22 118l50 257h225z" />
    <glyph glyph-name="z" unicode="z" horiz-adv-x="504" 
d="M21 0v132l156 172l47 46l-73 -2h-130v152h457v-132l-153 -170l-49 -48l82 2h130v-152h-467z" />
    <glyph glyph-name="braceleft" unicode="{" horiz-adv-x="466" 
d="M453 -193q-105 0 -169 18.5t-93 62.5t-29 120v86q0 56 -25.5 80t-86.5 24v137q61 0 86.5 24t25.5 80v87q0 76 29 119.5t93 62t169 18.5v-137q-59 0 -86.5 -23.5t-27.5 -76.5v-105q0 -47 -22 -75t-65 -42q43 -15 65 -43t22 -75v-104q0 -54 27.5 -77.5t86.5 -23.5v-137z
" />
    <glyph glyph-name="bar" unicode="|" horiz-adv-x="372" 
d="M288 701v-869h-204v869h204z" />
    <glyph glyph-name="braceright" unicode="}" horiz-adv-x="466" 
d="M13 726q105 0 169 -18.5t93 -62.5t29 -120v-86q0 -56 25.5 -80t86.5 -24v-137q-61 0 -86.5 -24t-25.5 -80v-87q0 -76 -29 -119.5t-93 -62t-169 -18.5v137q59 0 86.5 23.5t27.5 76.5v105q0 47 22 75t65 42q-43 15 -65 43t-22 75v104q0 54 -27.5 77.5t-86.5 23.5v137z" />
    <glyph glyph-name="asciitilde" unicode="~" horiz-adv-x="635" 
d="M592 452q-4 -109 -49.5 -166.5t-131.5 -57.5q-36 0 -60 8.5t-41 20t-30.5 20t-28.5 8.5q-17 0 -26 -11t-12 -38h-170q4 110 49.5 167t131.5 57q36 0 60 -8.5t41 -20t30.5 -20t28.5 -8.5q17 0 26 11t12 38h170z" />
    <glyph glyph-name="uni00A0" unicode="&#xa0;" horiz-adv-x="250" 
 />
    <glyph glyph-name="exclamdown" unicode="&#xa1;" horiz-adv-x="321" 
d="M41 -160v164l24 276h192l24 -276v-164h-240zM161 315q-56 0 -86.5 25t-30.5 71t30.5 71t86.5 25q55 0 86 -25t31 -71t-31 -71t-86 -25z" />
    <glyph glyph-name="cent" unicode="&#xa2;" horiz-adv-x="581" 
d="M316 -10q-94 0 -158.5 30.5t-98 88.5t-33.5 141t33.5 141t96.5 88.5t150 30.5q91 0 146 -24.5t82 -63.5t33 -82l-162 -53q-3 44 -25.5 66.5t-59.5 22.5q-47 0 -72 -26.5t-25 -102.5q0 -51 13 -77.5t35 -36t49 -9.5q26 0 44 9t28.5 26.5t13.5 43.5l160 -55
q-6 -46 -37.5 -81.5t-85.5 -56t-127 -20.5zM247 -100v700h130v-700h-130z" />
    <glyph glyph-name="sterling" unicode="&#xa3;" horiz-adv-x="622" 
d="M33 264v88h460v-88h-460zM151 -10q-52 0 -89.5 24t-37.5 73q0 34 19 55.5t49 31.5t64 10q45 0 77 -4.5t55 -11t42 -13.5t39 -11.5t45 -4.5q29 0 43 18t11 54l137 -20q10 -57 -6.5 -102.5t-53 -72t-87.5 -26.5q-44 0 -78 12.5t-61.5 31t-53 37.5t-52.5 31.5t-60 12.5
q-18 0 -27.5 -7t-9.5 -20t9.5 -20t25.5 -7t26.5 8t16 29.5t5.5 59.5q0 45 -16 81.5t-51 88.5q-21 32 -33 56t-17 46t-5 46q0 53 29.5 97t87 70.5t141.5 26.5q104 0 169 -46.5t82 -141.5l-183 -63q-10 52 -29.5 73t-49.5 21q-23 0 -39.5 -13.5t-16.5 -37.5q0 -10 4.5 -22.5
t14 -30.5t23.5 -45q17 -31 29 -68.5t12 -72.5q0 -45 -14 -86.5t-40 -74.5t-63 -52.5t-83 -19.5z" />
    <glyph glyph-name="currency" unicode="&#xa4;" horiz-adv-x="634" 
d="M318 536q64 0 112 -26t75 -72t27 -108t-27 -108.5t-75 -72.5t-112 -26q-65 0 -113.5 26t-75.5 72.5t-27 108.5t27 108t75.5 72t113.5 26zM318 384q-25 0 -39 -14t-14 -40q0 -25 14 -39.5t39 -14.5q24 0 37.5 14.5t13.5 39.5q0 26 -13.5 40t-37.5 14zM143 632l139 -166
l-102 -102l-166 139zM180 295l102 -102l-139 -166l-129 129zM460 290l160 -134l-130 -129l-134 160zM490 632l130 -129l-160 -135l-104 104z" />
    <glyph glyph-name="yen" unicode="&#xa5;" horiz-adv-x="697" 
d="M235 0v131h-191v59h191v61h-191v59h110l71 -4l-216 354h232l66 -167l41 -104h2l41 105l66 166h231l-216 -354l71 4h110v-59h-191v-61h191v-59h-191v-131h-227z" />
    <glyph glyph-name="brokenbar" unicode="&#xa6;" horiz-adv-x="372" 
d="M288 701v-391h-204v391h204zM288 223v-391h-204v391h204z" />
    <glyph glyph-name="section" unicode="&#xa7;" horiz-adv-x="639" 
d="M426 73l-66 117q39 9 62.5 16.5t34 16.5t10.5 21q0 19 -18 26.5t-38 11.5l-191 37q-40 8 -72.5 30.5t-51 54.5t-18.5 68q0 61 30.5 105t87 68.5t133.5 24.5q89 0 143.5 -24.5t99.5 -71.5l-108 -101q-28 29 -66 45t-80 16q-43 0 -58 -10t-15 -24q0 -10 7.5 -17.5t29.5 -14
t63 -14.5l71 -14q69 -13 113.5 -34t65.5 -51t21 -74q0 -63 -25.5 -104.5t-68.5 -66t-96 -37.5zM318 -110q-82 0 -156 23.5t-116 72.5l108 102q26 -31 74 -47.5t91 -17.5q32 0 57.5 6.5t25.5 22.5q0 14 -17 19.5t-64 15.5l-140 30q-53 12 -89.5 32.5t-55 53.5t-18.5 81
q0 59 25.5 95.5t69 58.5t95.5 35l66 -117q-39 -9 -62.5 -16.5t-34 -16t-10.5 -21.5q0 -19 18 -25.5t52 -12.5l154 -30q83 -16 126 -52.5t43 -107.5q0 -60 -29 -101t-83 -62t-130 -21z" />
    <glyph glyph-name="dieresis" unicode="&#xa8;" horiz-adv-x="500" 
d="M130 720q50 0 77.5 -23.5t27.5 -67.5q0 -43 -27.5 -67t-77.5 -24q-49 0 -75.5 24t-26.5 67q0 44 26.5 67.5t75.5 23.5zM367 720q50 0 77.5 -23.5t27.5 -67.5q0 -43 -27.5 -67t-77.5 -24q-49 0 -75.5 24t-26.5 67q0 44 26.5 67.5t75.5 23.5z" />
    <glyph glyph-name="copyright" unicode="&#xa9;" horiz-adv-x="740" 
d="M370 -10q-99 0 -177.5 42.5t-123.5 119t-45 178.5q0 103 45 179t123.5 118.5t177.5 42.5q100 0 178 -42.5t123 -118.5t45 -179q0 -102 -45 -178.5t-123 -119t-178 -42.5zM370 86q74 0 129.5 30.5t86.5 85.5t31 128q0 74 -31 128.5t-86.5 85t-129.5 30.5t-129.5 -30.5
t-86.5 -85t-31 -128.5q0 -73 31 -128t86.5 -85.5t129.5 -30.5zM375 135q-94 0 -145.5 53.5t-51.5 141.5q0 89 51.5 142t145.5 53q74 0 121 -33t63 -88l-125 -59q-9 17 -21 22t-29 5q-21 0 -34 -10.5t-13 -31.5t13 -31.5t35 -10.5q15 0 28.5 4.5t21.5 25.5l120 -60
q-27 -68 -68 -95.5t-112 -27.5z" />
    <glyph glyph-name="ordfeminine" unicode="&#xaa;" horiz-adv-x="476" 
d="M143 292q-58 0 -87.5 26.5t-29.5 66.5q0 46 29.5 67.5t90.5 34.5l105 23v-56l-38 -11q-15 -4 -23.5 -14t-8.5 -23t7.5 -19t17.5 -6q9 0 16 4t11 11.5t4 19.5v103q0 17 -8 26t-24 9q-15 0 -26 -9t-12 -35l-137 21q5 60 52 94.5t132 34.5q97 0 142 -36.5t45 -110.5v-97
q0 -15 6.5 -22.5t18.5 -7.5t18 3l-13 -83q-13 -7 -28 -10.5t-38 -3.5q-47 0 -76 23t-29 69v21h21q-2 -30 -18.5 -56t-46.5 -41.5t-73 -15.5zM39 117v113h396v-113h-396z" />
    <glyph glyph-name="guillemotleft" unicode="&#xab;" horiz-adv-x="647" 
d="M337 461l-116 -196l116 -196h-188l-125 196l125 196h188zM623 461l-116 -196l116 -196h-188l-125 196l125 196h188z" />
    <glyph glyph-name="logicalnot" unicode="&#xac;" horiz-adv-x="604" 
d="M544 310v-235h-175v235h175zM544 407v-153h-484v153h484z" />
    <glyph glyph-name="uni00AD" unicode="&#xad;" horiz-adv-x="540" 
d="M465 359v-175h-390v175h390z" />
    <glyph glyph-name="registered" unicode="&#xae;" horiz-adv-x="740" 
d="M370 -10q-99 0 -177.5 42.5t-123.5 119t-45 178.5q0 103 45 179t123.5 118.5t177.5 42.5q100 0 178 -42.5t123 -118.5t45 -179q0 -102 -45 -178.5t-123 -119t-178 -42.5zM391 157l-58 140l109 23l101 -163h-152zM370 86q74 0 129.5 30.5t86.5 85.5t31 128q0 74 -31 128.5
t-86.5 85t-129.5 30.5t-129.5 -30.5t-86.5 -85t-31 -128.5q0 -73 31 -128t86.5 -85.5t129.5 -30.5zM218 157v360h191q35 0 63 -16t45 -43t17 -62q0 -58 -39 -89.5t-106 -31.5h-47v-118h-124zM342 357h28q16 0 26.5 5.5t10.5 21.5t-10.5 21.5t-26.5 5.5h-28v-54z" />
    <glyph glyph-name="macron" unicode="&#xaf;" horiz-adv-x="500" 
d="M444 681v-130h-388v130h388z" />
    <glyph glyph-name="degree" unicode="&#xb0;" horiz-adv-x="519" 
d="M260 270q-70 0 -120 24t-77 69t-27 107t27 107t77 69t120 24t119.5 -24t76.5 -69t27 -107t-27 -107t-76.5 -69t-119.5 -24zM260 408q29 0 46.5 17.5t17.5 45.5t-17.5 45t-46.5 17t-47 -17t-18 -45t18 -45.5t47 -17.5z" />
    <glyph glyph-name="plusminus" unicode="&#xb1;" horiz-adv-x="604" 
d="M380 660v-454h-155v454h155zM559 506v-146h-514v146h514zM559 141v-140h-514v140h514z" />
    <glyph glyph-name="uni00B2" unicode="&#xb2;" horiz-adv-x="410" 
d="M22 333v97q25 11 46.5 21.5t40.5 20.5q39 22 64 43t37 40t12 34q0 13 -6 20t-20 7q-19 0 -26.5 -16.5t-6.5 -48.5l-156 26q0 71 51.5 114.5t139.5 43.5q73 0 114.5 -20.5t59.5 -50.5t18 -61q0 -23 -8 -42.5t-22.5 -36t-34.5 -29.5q-19 -13 -43.5 -23t-50.5 -18v-2
q20 2 49.5 3.5t60.5 1.5h51v-124h-370z" />
    <glyph glyph-name="uni00B3" unicode="&#xb3;" horiz-adv-x="391" 
d="M202 735q77 0 120.5 -29.5t43.5 -86.5q0 -24 -9.5 -43t-28.5 -30t-49 -13v-5q34 0 54.5 -9.5t30 -27t9.5 -42.5q0 -37 -25 -64.5t-68 -42.5t-98 -15q-80 0 -125.5 31.5t-57.5 83.5l145 37q2 -22 13.5 -32t29.5 -10q16 0 23.5 7.5t7.5 20.5t-8.5 18.5t-27.5 5.5h-8t-9 -1
v74q4 -1 8 -1h7q16 0 24.5 7.5t8.5 21.5t-7 20.5t-20 6.5q-16 0 -27 -10t-13 -33l-139 38q9 59 62 91t133 32z" />
    <glyph glyph-name="acute" unicode="&#xb4;" horiz-adv-x="500" 
d="M178 730h205l-103 -177h-162z" />
    <glyph glyph-name="uni00B5" unicode="&#xb5;" horiz-adv-x="621" 
d="M39 -210v710h230v-281q0 -34 9 -46.5t28 -12.5q16 0 26 8.5t15 26t5 44.5v261h230v-500h-207l-5 97q-18 -53 -51.5 -79.5t-80.5 -26.5q-10 0 -20 1t-21 3l72 102v-307h-230z" />
    <glyph glyph-name="paragraph" unicode="&#xb6;" horiz-adv-x="809" 
d="M299 -100v268q-75 1 -136 27t-97 80t-36 138t37 139t102.5 81.5t150.5 26.5h439v-760h-183v588h-94v-588h-183zM294 340v148q-28 0 -48 -9t-30 -25.5t-10 -39.5t10 -39.5t30 -25.5t48 -9z" />
    <glyph glyph-name="periodcentered" unicode="&#xb7;" horiz-adv-x="306" 
d="M153 459q59 0 91 -28t32 -79t-32 -79t-91 -28q-58 0 -90.5 28t-32.5 79t32.5 79t90.5 28z" />
    <glyph glyph-name="cedilla" unicode="&#xb8;" horiz-adv-x="500" 
d="M159 14l40 28q92 -6 137 -36.5t45 -89.5q0 -62 -40 -96.5t-114 -34.5q-43 0 -66 9t-41 20l33 97q11 -7 24 -11t32 -4q24 0 38.5 13t14.5 35q0 21 -22 38t-81 32z" />
    <glyph glyph-name="uni00B9" unicode="&#xb9;" horiz-adv-x="335" 
d="M168 730h133v-397h-158v193q0 11 1 26.5t2 33.5q-25 -16 -55 -27t-66 -16v129q24 2 53 11.5t54 22t36 24.5z" />
    <glyph glyph-name="ordmasculine" unicode="&#xba;" horiz-adv-x="464" 
d="M233 292q-92 0 -145.5 48.5t-53.5 135.5t53.5 135.5t145.5 48.5q91 0 144 -48.5t53 -135.5t-53 -135.5t-144 -48.5zM36 117v113h392v-113h-392zM233 392q19 0 26 18.5t7 65.5t-7 65.5t-26 18.5q-20 0 -27.5 -18.5t-7.5 -65.5t7.5 -65.5t27.5 -18.5z" />
    <glyph glyph-name="guillemotright" unicode="&#xbb;" horiz-adv-x="647" 
d="M310 69l116 196l-116 196h188l125 -196l-125 -196h-188zM24 69l116 196l-116 196h188l125 -196l-125 -196h-188z" />
    <glyph glyph-name="onequarter" unicode="&#xbc;" horiz-adv-x="928" 
d="M168 665h133v-397h-158v193q0 11 1 26.5t2 33.5q-25 -16 -55 -27t-66 -16v129q24 2 53 11.5t54 22t36 24.5zM150 0l476 661h147l-476 -661h-147zM918 174v-103h-53v-75h-140v75h-202v70l148 253h194v-220h53zM655 174h70v53q0 21 1 43t2 40h-3q-5 -15 -13 -32t-16 -31z
" />
    <glyph glyph-name="onehalf" unicode="&#xbd;" horiz-adv-x="998" 
d="M168 665h133v-397h-158v193q0 11 1 26.5t2 33.5q-25 -16 -55 -27t-66 -16v129q24 2 53 11.5t54 22t36 24.5zM150 0l476 661h147l-476 -661h-147zM610 -4v97q25 11 46.5 21.5t40.5 20.5q39 22 64 43t37 40t12 34q0 13 -6 20t-20 7q-19 0 -26.5 -16.5t-6.5 -48.5l-156 26
q0 71 51.5 114.5t139.5 43.5q73 0 114.5 -20.5t59.5 -50.5t18 -61q0 -23 -8 -42.5t-22.5 -36t-34.5 -29.5q-19 -13 -43.5 -23t-50.5 -18v-2q20 2 49.5 3.5t60.5 1.5h51v-124h-370z" />
    <glyph glyph-name="threequarters" unicode="&#xbe;" horiz-adv-x="984" 
d="M202 670q77 0 120.5 -29.5t43.5 -86.5q0 -24 -9.5 -43t-28.5 -30t-49 -13v-5q34 0 54.5 -9.5t30 -27t9.5 -42.5q0 -37 -25 -64.5t-68 -42.5t-98 -15q-80 0 -125.5 31.5t-57.5 83.5l145 37q2 -22 13.5 -32t29.5 -10q16 0 23.5 7.5t7.5 20.5t-8.5 18.5t-27.5 5.5h-8t-9 -1
v74q4 -1 8 -1h7q16 0 24.5 7.5t8.5 21.5t-7 20.5t-20 6.5q-16 0 -27 -10t-13 -33l-139 38q9 59 62 91t133 32zM206 0l476 661h147l-476 -661h-147zM974 174v-103h-53v-75h-140v75h-202v70l148 253h194v-220h53zM711 174h70v53q0 21 1 43t2 40h-3q-5 -15 -13 -32t-16 -31z
" />
    <glyph glyph-name="questiondown" unicode="&#xbf;" horiz-adv-x="651" 
d="M320 -169q-80 0 -144 20.5t-101.5 63.5t-37.5 110q0 64 26 103t69.5 58t96.5 25l17 72h194l-1 -154q-57 -2 -90.5 -12t-47.5 -26t-14 -35q0 -23 11.5 -34t36.5 -11q28 0 42.5 18.5t19.5 58.5l226 -67q-13 -53 -46.5 -96t-95.5 -68.5t-161 -25.5zM338 316q-56 0 -86.5 25
t-30.5 71t30.5 71t86.5 25q55 0 85.5 -25t30.5 -71t-30.5 -71t-85.5 -25z" />
    <glyph glyph-name="Agrave" unicode="&#xc0;" horiz-adv-x="689" 
d="M-10 0l214 660h280l215 -660h-238l-90 379l-27 112h-3l-26 -112l-93 -379h-232zM157 126v145h377v-145h-377zM377 876l58 -167h-163l-91 167h196z" />
    <glyph glyph-name="Aacute" unicode="&#xc1;" horiz-adv-x="689" 
d="M-10 0l214 660h280l215 -660h-238l-90 379l-27 112h-3l-26 -112l-93 -379h-232zM157 126v145h377v-145h-377zM311 876h196l-91 -167h-163z" />
    <glyph glyph-name="Acircumflex" unicode="&#xc2;" horiz-adv-x="689" 
d="M-10 0l214 660h280l215 -660h-238l-90 379l-27 112h-3l-26 -112l-93 -379h-232zM157 126v145h377v-145h-377zM547 709h-148l-55 82l-55 -82h-148l94 167h218z" />
    <glyph glyph-name="Atilde" unicode="&#xc3;" horiz-adv-x="689" 
d="M-10 0l214 660h280l215 -660h-238l-90 379l-27 112h-3l-26 -112l-93 -379h-232zM157 126v145h377v-145h-377zM554 879q-1 -60 -20 -99t-48.5 -58t-62.5 -19q-28 0 -48.5 7.5t-36.5 17.5t-29 17.5t-26 7.5q-14 0 -21.5 -11t-9.5 -37h-118q2 90 43 133t99 43q27 0 46 -7.5
t32.5 -17.5t25.5 -17.5t26 -7.5t21 11.5t9 36.5h118z" />
    <glyph glyph-name="Adieresis" unicode="&#xc4;" horiz-adv-x="689" 
d="M-10 0l214 660h280l215 -660h-238l-90 379l-27 112h-3l-26 -112l-93 -379h-232zM157 126v145h377v-145h-377zM224 880q50 0 77.5 -23.5t27.5 -67.5q0 -43 -27.5 -67t-77.5 -24q-49 0 -75.5 24t-26.5 67q0 44 26.5 67.5t75.5 23.5zM461 880q50 0 77.5 -23.5t27.5 -67.5
q0 -43 -27.5 -67t-77.5 -24q-49 0 -75.5 24t-26.5 67q0 44 26.5 67.5t75.5 23.5z" />
    <glyph glyph-name="Aring" unicode="&#xc5;" horiz-adv-x="689" 
d="M-10 0l214 660h280l215 -660h-238l-90 379l-27 112h-3l-26 -112l-93 -379h-232zM157 126v145h377v-145h-377zM345 839q68 0 108.5 -35.5t40.5 -95.5t-40.5 -95t-108.5 -35t-108.5 35t-40.5 95t40.5 95.5t108.5 35.5zM346 750q-20 0 -31.5 -11t-11.5 -30q0 -20 11.5 -31
t31.5 -11q19 0 30 11t11 31q0 19 -11 30t-30 11z" />
    <glyph glyph-name="AE" unicode="&#xc6;" horiz-adv-x="904" 
d="M615 161h273v-161h-487v185h-135l-46 -185h-230l214 660h672v-161h-261v-96h200v-149h-200v-93zM299 321h102v186h-56z" />
    <glyph glyph-name="Ccedilla" unicode="&#xc7;" horiz-adv-x="677" 
d="M670 202q-18 -77 -61.5 -124t-105.5 -67.5t-138 -20.5q-104 0 -179.5 40t-116 116t-40.5 184t40.5 184t116 116t179.5 40q73 0 136 -20.5t106.5 -64.5t57.5 -115l-200 -78q-8 65 -32.5 84t-61.5 19q-34 0 -57.5 -17.5t-35 -54t-11.5 -93.5q0 -56 10.5 -93t34.5 -54.5
t64 -17.5q36 0 59 21.5t29 68.5zM260 14l40 28q92 -6 137 -36.5t45 -89.5q0 -62 -40 -96.5t-114 -34.5q-43 0 -66 9t-41 20l33 97q11 -7 24 -11t32 -4q24 0 38.5 13t14.5 35q0 21 -22 38t-81 32z" />
    <glyph glyph-name="Egrave" unicode="&#xc8;" horiz-adv-x="626" 
d="M50 0v660h548v-171h-315v-82h254v-158h-254v-78h327v-171h-560zM357 876l58 -167h-163l-91 167h196z" />
    <glyph glyph-name="Eacute" unicode="&#xc9;" horiz-adv-x="626" 
d="M50 0v660h548v-171h-315v-82h254v-158h-254v-78h327v-171h-560zM280 876h196l-91 -167h-163z" />
    <glyph glyph-name="Ecircumflex" unicode="&#xca;" horiz-adv-x="626" 
d="M50 0v660h548v-171h-315v-82h254v-158h-254v-78h327v-171h-560zM527 709h-148l-55 82l-55 -82h-148l94 167h218z" />
    <glyph glyph-name="Edieresis" unicode="&#xcb;" horiz-adv-x="626" 
d="M50 0v660h548v-171h-315v-82h254v-158h-254v-78h327v-171h-560zM204 880q50 0 77.5 -23.5t27.5 -67.5q0 -43 -27.5 -67t-77.5 -24q-49 0 -75.5 24t-26.5 67q0 44 26.5 67.5t75.5 23.5zM441 880q50 0 77.5 -23.5t27.5 -67.5q0 -43 -27.5 -67t-77.5 -24q-49 0 -75.5 24
t-26.5 67q0 44 26.5 67.5t75.5 23.5z" />
    <glyph glyph-name="Igrave" unicode="&#xcc;" horiz-adv-x="333" 
d="M283 660v-660h-233v660h233zM199 876l58 -167h-163l-91 167h196z" />
    <glyph glyph-name="Iacute" unicode="&#xcd;" horiz-adv-x="333" 
d="M283 660v-660h-233v660h233zM133 876h196l-91 -167h-163z" />
    <glyph glyph-name="Icircumflex" unicode="&#xce;" horiz-adv-x="333" 
d="M283 660v-660h-233v660h233zM369 709h-148l-55 82l-55 -82h-148l94 167h218z" />
    <glyph glyph-name="Idieresis" unicode="&#xcf;" horiz-adv-x="333" 
d="M52 880q48 0 75 -23.5t27 -67.5q0 -43 -27 -67t-75 -24q-46 0 -72 24t-26 67q0 44 26 67.5t72 23.5zM277 880q48 0 75 -23.5t27 -67.5q0 -43 -27 -67t-75 -24q-46 0 -72 24t-26 67q0 44 26 67.5t72 23.5zM283 660v-660h-233v660h233z" />
    <glyph glyph-name="Eth" unicode="&#xd0;" horiz-adv-x="744" 
d="M4 253v150h393v-150h-393zM402 660q155 0 234 -86t79 -244q0 -157 -79 -243.5t-234 -86.5h-324v660h324zM369 166q65 0 86.5 39.5t21.5 124.5t-21.5 124.5t-86.5 39.5h-58v-328h58z" />
    <glyph glyph-name="Ntilde" unicode="&#xd1;" horiz-adv-x="746" 
d="M696 660v-660h-252l-158 300l-36 81h-2l4 -136v-245h-202v660h252l158 -301l36 -80h2l-4 136v245h202zM583 879q-1 -60 -20 -99t-48.5 -58t-62.5 -19q-28 0 -48.5 7.5t-36.5 17.5t-29 17.5t-26 7.5q-14 0 -21.5 -11t-9.5 -37h-118q2 90 43 133t99 43q27 0 46 -7.5
t32.5 -17.5t25.5 -17.5t26 -7.5t21 11.5t9 36.5h118z" />
    <glyph glyph-name="Ograve" unicode="&#xd2;" horiz-adv-x="729" 
d="M365 670q105 0 180 -40t115 -116t40 -184t-40 -184t-115 -116t-180 -40q-104 0 -179.5 40t-116 116t-40.5 184t40.5 184t116 116t179.5 40zM365 495q-34 0 -55.5 -17.5t-32 -53.5t-10.5 -94q0 -57 10.5 -93.5t32 -54t55.5 -17.5t55.5 17.5t31.5 54t10 93.5q0 58 -10 94
t-31.5 53.5t-55.5 17.5zM398 876l58 -167h-163l-91 167h196z" />
    <glyph glyph-name="Oacute" unicode="&#xd3;" horiz-adv-x="729" 
d="M365 670q105 0 180 -40t115 -116t40 -184t-40 -184t-115 -116t-180 -40q-104 0 -179.5 40t-116 116t-40.5 184t40.5 184t116 116t179.5 40zM365 495q-34 0 -55.5 -17.5t-32 -53.5t-10.5 -94q0 -57 10.5 -93.5t32 -54t55.5 -17.5t55.5 17.5t31.5 54t10 93.5q0 58 -10 94
t-31.5 53.5t-55.5 17.5zM332 876h196l-91 -167h-163z" />
    <glyph glyph-name="Ocircumflex" unicode="&#xd4;" horiz-adv-x="729" 
d="M365 670q105 0 180 -40t115 -116t40 -184t-40 -184t-115 -116t-180 -40q-104 0 -179.5 40t-116 116t-40.5 184t40.5 184t116 116t179.5 40zM365 495q-34 0 -55.5 -17.5t-32 -53.5t-10.5 -94q0 -57 10.5 -93.5t32 -54t55.5 -17.5t55.5 17.5t31.5 54t10 93.5q0 58 -10 94
t-31.5 53.5t-55.5 17.5zM568 709h-148l-55 82l-55 -82h-148l94 167h218z" />
    <glyph glyph-name="Otilde" unicode="&#xd5;" horiz-adv-x="729" 
d="M365 670q105 0 180 -40t115 -116t40 -184t-40 -184t-115 -116t-180 -40q-104 0 -179.5 40t-116 116t-40.5 184t40.5 184t116 116t179.5 40zM365 495q-34 0 -55.5 -17.5t-32 -53.5t-10.5 -94q0 -57 10.5 -93.5t32 -54t55.5 -17.5t55.5 17.5t31.5 54t10 93.5q0 58 -10 94
t-31.5 53.5t-55.5 17.5zM575 879q-1 -60 -20 -99t-48.5 -58t-62.5 -19q-28 0 -48.5 7.5t-36.5 17.5t-29 17.5t-26 7.5q-14 0 -21.5 -11t-9.5 -37h-118q2 90 43 133t99 43q27 0 46 -7.5t32.5 -17.5t25.5 -17.5t26 -7.5t21 11.5t9 36.5h118z" />
    <glyph glyph-name="Odieresis" unicode="&#xd6;" horiz-adv-x="729" 
d="M365 670q105 0 180 -40t115 -116t40 -184t-40 -184t-115 -116t-180 -40q-104 0 -179.5 40t-116 116t-40.5 184t40.5 184t116 116t179.5 40zM365 495q-34 0 -55.5 -17.5t-32 -53.5t-10.5 -94q0 -57 10.5 -93.5t32 -54t55.5 -17.5t55.5 17.5t31.5 54t10 93.5q0 58 -10 94
t-31.5 53.5t-55.5 17.5zM245 880q50 0 77.5 -23.5t27.5 -67.5q0 -43 -27.5 -67t-77.5 -24q-49 0 -75.5 24t-26.5 67q0 44 26.5 67.5t75.5 23.5zM482 880q50 0 77.5 -23.5t27.5 -67.5q0 -43 -27.5 -67t-77.5 -24q-49 0 -75.5 24t-26.5 67q0 44 26.5 67.5t75.5 23.5z" />
    <glyph glyph-name="multiply" unicode="&#xd7;" horiz-adv-x="604" 
d="M450 66l118 118l-414 414l-118 -118zM154 66l414 414l-118 118l-414 -414z" />
    <glyph glyph-name="Oslash" unicode="&#xd8;" horiz-adv-x="729" 
d="M268 147l-51 43l224 296l54 -39zM45 -21l143 180l57 -43l-115 -137h-85zM537 495l-57 43l119 142h85zM365 670q105 0 180 -40t115 -116t40 -184t-40 -184t-115 -116t-180 -40q-104 0 -179.5 40t-116 116t-40.5 184t40.5 184t116 116t179.5 40zM365 495q-34 0 -55.5 -17.5
t-32 -53.5t-10.5 -94q0 -57 10.5 -93.5t32 -54t55.5 -17.5t55.5 17.5t31.5 54t10 93.5q0 58 -10 94t-31.5 53.5t-55.5 17.5z" />
    <glyph glyph-name="Ugrave" unicode="&#xd9;" horiz-adv-x="712" 
d="M675 660v-376q0 -148 -79.5 -221t-239.5 -73t-239.5 73t-79.5 221v376h234v-394q0 -50 22 -75.5t63 -25.5q42 0 64 25.5t22 75.5v394h233zM389 876l58 -167h-163l-91 167h196z" />
    <glyph glyph-name="Uacute" unicode="&#xda;" horiz-adv-x="712" 
d="M675 660v-376q0 -148 -79.5 -221t-239.5 -73t-239.5 73t-79.5 221v376h234v-394q0 -50 22 -75.5t63 -25.5q42 0 64 25.5t22 75.5v394h233zM323 876h196l-91 -167h-163z" />
    <glyph glyph-name="Ucircumflex" unicode="&#xdb;" horiz-adv-x="712" 
d="M675 660v-376q0 -148 -79.5 -221t-239.5 -73t-239.5 73t-79.5 221v376h234v-394q0 -50 22 -75.5t63 -25.5q42 0 64 25.5t22 75.5v394h233zM559 709h-148l-55 82l-55 -82h-148l94 167h218z" />
    <glyph glyph-name="Udieresis" unicode="&#xdc;" horiz-adv-x="712" 
d="M675 660v-376q0 -148 -79.5 -221t-239.5 -73t-239.5 73t-79.5 221v376h234v-394q0 -50 22 -75.5t63 -25.5q42 0 64 25.5t22 75.5v394h233zM236 880q50 0 77.5 -23.5t27.5 -67.5q0 -43 -27.5 -67t-77.5 -24q-49 0 -75.5 24t-26.5 67q0 44 26.5 67.5t75.5 23.5zM473 880
q50 0 77.5 -23.5t27.5 -67.5q0 -43 -27.5 -67t-77.5 -24q-49 0 -75.5 24t-26.5 67q0 44 26.5 67.5t75.5 23.5z" />
    <glyph glyph-name="Yacute" unicode="&#xdd;" horiz-adv-x="713" 
d="M704 660l-231 -431v-229h-233v229l-231 431h232l70 -151l47 -120l47 120l70 151h229zM323 876h196l-91 -167h-163z" />
    <glyph glyph-name="Thorn" unicode="&#xde;" horiz-adv-x="706" 
d="M406 571q128 0 199.5 -59t71.5 -175t-71.5 -175t-199.5 -59h-240v164h202q76 0 76 72q0 35 -20.5 51t-55.5 16h-202v165h240zM283 660v-660h-233v660h233z" />
    <glyph glyph-name="germandbls" unicode="&#xdf;" horiz-adv-x="666" 
d="M473 345q51 0 90.5 -20t62.5 -58t23 -92q0 -49 -23 -91t-71.5 -68t-125.5 -26q-43 0 -77.5 8t-58.5 24l30 140q11 -7 23.5 -12t29.5 -5q25 0 41 16.5t16 46.5q0 28 -19 42.5t-52 14.5h-52l28 152h17q32 0 47 19t15 50q0 30 -17.5 47t-48.5 17q-43 0 -62.5 -27t-19.5 -92
v-431h-230v437q0 87 32 146.5t102 90.5t183 31q91 0 153.5 -24.5t95.5 -68.5t33 -105q0 -43 -20 -79.5t-57 -58.5t-88 -22v-2z" />
    <glyph glyph-name="agrave" unicode="&#xe0;" 
d="M310 312q0 23 -10.5 36t-32.5 13q-21 0 -35 -12t-16 -48l-194 28q7 83 72 132t189 49q87 0 143.5 -24t84 -67t27.5 -100v-155q0 -41 39 -41q11 0 17 3l-10 -118q-37 -18 -89 -18q-47 0 -83.5 13.5t-57 41t-20.5 70.5v10h22q-1 -38 -24.5 -68.5t-62.5 -48.5t-89 -18
q-53 0 -89.5 16t-55.5 46t-19 71q0 55 35 89.5t101 47.5l174 36l-1 -81l-54 -13q-21 -5 -30 -16.5t-9 -28.5q0 -16 10 -26t28 -10q8 0 15.5 3t13 9t8.5 14.5t3 19.5v145zM300 730l60 -177h-162l-103 177h205z" />
    <glyph glyph-name="aacute" unicode="&#xe1;" 
d="M310 312q0 23 -10.5 36t-32.5 13q-21 0 -35 -12t-16 -48l-194 28q7 83 72 132t189 49q87 0 143.5 -24t84 -67t27.5 -100v-155q0 -41 39 -41q11 0 17 3l-10 -118q-37 -18 -89 -18q-47 0 -83.5 13.5t-57 41t-20.5 70.5v10h22q-1 -38 -24.5 -68.5t-62.5 -48.5t-89 -18
q-53 0 -89.5 16t-55.5 46t-19 71q0 55 35 89.5t101 47.5l174 36l-1 -81l-54 -13q-21 -5 -30 -16.5t-9 -28.5q0 -16 10 -26t28 -10q8 0 15.5 3t13 9t8.5 14.5t3 19.5v145zM242 730h205l-103 -177h-162z" />
    <glyph glyph-name="acircumflex" unicode="&#xe2;" 
d="M310 312q0 23 -10.5 36t-32.5 13q-21 0 -35 -12t-16 -48l-194 28q7 83 72 132t189 49q87 0 143.5 -24t84 -67t27.5 -100v-155q0 -41 39 -41q11 0 17 3l-10 -118q-37 -18 -89 -18q-47 0 -83.5 13.5t-57 41t-20.5 70.5v10h22q-1 -38 -24.5 -68.5t-62.5 -48.5t-89 -18
q-53 0 -89.5 16t-55.5 46t-19 71q0 55 35 89.5t101 47.5l174 36l-1 -81l-54 -13q-21 -5 -30 -16.5t-9 -28.5q0 -16 10 -26t28 -10q8 0 15.5 3t13 9t8.5 14.5t3 19.5v145zM490 547h-156l-57 71l-57 -71h-156l106 177h214z" />
    <glyph glyph-name="atilde" unicode="&#xe3;" 
d="M310 312q0 23 -10.5 36t-32.5 13q-21 0 -35 -12t-16 -48l-194 28q7 83 72 132t189 49q87 0 143.5 -24t84 -67t27.5 -100v-155q0 -41 39 -41q11 0 17 3l-10 -118q-37 -18 -89 -18q-47 0 -83.5 13.5t-57 41t-20.5 70.5v10h22q-1 -38 -24.5 -68.5t-62.5 -48.5t-89 -18
q-53 0 -89.5 16t-55.5 46t-19 71q0 55 35 89.5t101 47.5l174 36l-1 -81l-54 -13q-21 -5 -30 -16.5t-9 -28.5q0 -16 10 -26t28 -10q8 0 15.5 3t13 9t8.5 14.5t3 19.5v145zM487 719q-1 -60 -20 -99t-48.5 -58t-62.5 -19q-28 0 -48.5 7.5t-36.5 17.5t-29 17.5t-26 7.5
q-14 0 -21.5 -11t-9.5 -37h-118q2 90 43 133t99 43q27 0 46 -7.5t32.5 -17.5t25.5 -17.5t26 -7.5t21 11.5t9 36.5h118z" />
    <glyph glyph-name="adieresis" unicode="&#xe4;" 
d="M310 312q0 23 -10.5 36t-32.5 13q-21 0 -35 -12t-16 -48l-194 28q7 83 72 132t189 49q87 0 143.5 -24t84 -67t27.5 -100v-155q0 -41 39 -41q11 0 17 3l-10 -118q-37 -18 -89 -18q-47 0 -83.5 13.5t-57 41t-20.5 70.5v10h22q-1 -38 -24.5 -68.5t-62.5 -48.5t-89 -18
q-53 0 -89.5 16t-55.5 46t-19 71q0 55 35 89.5t101 47.5l174 36l-1 -81l-54 -13q-21 -5 -30 -16.5t-9 -28.5q0 -16 10 -26t28 -10q8 0 15.5 3t13 9t8.5 14.5t3 19.5v145zM157 720q50 0 77.5 -23.5t27.5 -67.5q0 -43 -27.5 -67t-77.5 -24q-49 0 -75.5 24t-26.5 67
q0 44 26.5 67.5t75.5 23.5zM394 720q50 0 77.5 -23.5t27.5 -67.5q0 -43 -27.5 -67t-77.5 -24q-49 0 -75.5 24t-26.5 67q0 44 26.5 67.5t75.5 23.5z" />
    <glyph glyph-name="aring" unicode="&#xe5;" 
d="M310 312q0 23 -10.5 36t-32.5 13q-21 0 -35 -12t-16 -48l-194 28q7 83 72 132t189 49q87 0 143.5 -24t84 -67t27.5 -100v-155q0 -41 39 -41q11 0 17 3l-10 -118q-37 -18 -89 -18q-47 0 -83.5 13.5t-57 41t-20.5 70.5v10h22q-1 -38 -24.5 -68.5t-62.5 -48.5t-89 -18
q-53 0 -89.5 16t-55.5 46t-19 71q0 55 35 89.5t101 47.5l174 36l-1 -81l-54 -13q-21 -5 -30 -16.5t-9 -28.5q0 -16 10 -26t28 -10q8 0 15.5 3t13 9t8.5 14.5t3 19.5v145zM277 796q68 0 108.5 -35.5t40.5 -95.5t-40.5 -95t-108.5 -35t-108.5 35t-40.5 95t40.5 95.5
t108.5 35.5zM278 707q-20 0 -31.5 -11t-11.5 -30q0 -20 11.5 -31t31.5 -11q19 0 30 11t11 31q0 19 -11 30t-30 11z" />
    <glyph glyph-name="ae" unicode="&#xe6;" horiz-adv-x="870" 
d="M197 -10q-62 0 -102 16.5t-59.5 47.5t-19.5 75q0 53 36 85.5t100 45.5l159 32v17q0 26 -11 39t-35 13q-19 0 -32.5 -12t-16.5 -48l-194 29q6 50 36 90.5t83 65t126 24.5q80 0 133.5 -28t78.5 -80l-75 -6q21 37 51 62t68 38.5t83 13.5q81 0 136 -30.5t83 -85.5t28 -128
q0 -16 -1.5 -33t-3.5 -27h-317v0q7 -39 28 -51t50 -12q26 0 35.5 11.5t14.5 31.5l185 -50q-11 -49 -45.5 -81.5t-83.5 -48.5t-104 -16q-95 0 -153 43.5t-76 126.5l43 -14q-7 -31 -23 -59t-42.5 -50t-66.5 -34.5t-96 -12.5zM268 121q8 0 16 2.5t14 8.5t9.5 15.5t3.5 24.5v40
l-39 -10q-19 -4 -29.5 -14t-10.5 -32q0 -16 10.5 -25.5t25.5 -9.5zM530 291h108q-2 22 -7.5 37t-15.5 22.5t-27 7.5q-25 0 -39 -14.5t-19 -52.5z" />
    <glyph glyph-name="ccedilla" unicode="&#xe7;" horiz-adv-x="571" 
d="M297 510q92 0 150 -25.5t85.5 -64.5t28.5 -80l-212 -62q0 40 -9.5 58.5t-32.5 18.5q-20 0 -32.5 -9.5t-18 -33t-5.5 -65.5q0 -43 7.5 -65t20.5 -29.5t29 -7.5q15 0 24 7.5t14.5 22.5t6.5 36l206 -64q-1 -42 -32 -77.5t-86.5 -57.5t-131.5 -22q-90 0 -155 30.5t-99.5 88.5
t-34.5 141t34.5 141t97 88.5t145.5 30.5zM207 14l40 28q92 -6 137 -36.5t45 -89.5q0 -62 -40 -96.5t-114 -34.5q-43 0 -66 9t-41 20l33 97q11 -7 24 -11t32 -4q24 0 38.5 13t14.5 35q0 21 -22 38t-81 32z" />
    <glyph glyph-name="egrave" unicode="&#xe8;" horiz-adv-x="580" 
d="M306 -10q-90 0 -154 30.5t-98 88.5t-34 141t34.5 141t97 88.5t145.5 30.5q85 0 144.5 -30.5t90.5 -85.5t31 -128q0 -16 -1.5 -33t-3.5 -27h-390v85h290l-109 -43q0 54 -9.5 82t-41.5 28q-21 0 -34.5 -10t-19.5 -34.5t-6 -67.5t8 -65.5t23.5 -30t39.5 -7.5q26 0 40.5 11.5
t19.5 31.5l185 -50q-11 -49 -49 -81.5t-90.5 -48.5t-108.5 -16zM319 730l60 -177h-162l-103 177h205z" />
    <glyph glyph-name="eacute" unicode="&#xe9;" horiz-adv-x="580" 
d="M306 -10q-90 0 -154 30.5t-98 88.5t-34 141t34.5 141t97 88.5t145.5 30.5q85 0 144.5 -30.5t90.5 -85.5t31 -128q0 -16 -1.5 -33t-3.5 -27h-390v85h290l-109 -43q0 54 -9.5 82t-41.5 28q-21 0 -34.5 -10t-19.5 -34.5t-6 -67.5t8 -65.5t23.5 -30t39.5 -7.5q26 0 40.5 11.5
t19.5 31.5l185 -50q-11 -49 -49 -81.5t-90.5 -48.5t-108.5 -16zM261 730h205l-103 -177h-162z" />
    <glyph glyph-name="ecircumflex" unicode="&#xea;" horiz-adv-x="580" 
d="M306 -10q-90 0 -154 30.5t-98 88.5t-34 141t34.5 141t97 88.5t145.5 30.5q85 0 144.5 -30.5t90.5 -85.5t31 -128q0 -16 -1.5 -33t-3.5 -27h-390v85h290l-109 -43q0 54 -9.5 82t-41.5 28q-21 0 -34.5 -10t-19.5 -34.5t-6 -67.5t8 -65.5t23.5 -30t39.5 -7.5q26 0 40.5 11.5
t19.5 31.5l185 -50q-11 -49 -49 -81.5t-90.5 -48.5t-108.5 -16zM509 547h-156l-57 71l-57 -71h-156l106 177h214z" />
    <glyph glyph-name="edieresis" unicode="&#xeb;" horiz-adv-x="580" 
d="M306 -10q-90 0 -154 30.5t-98 88.5t-34 141t34.5 141t97 88.5t145.5 30.5q85 0 144.5 -30.5t90.5 -85.5t31 -128q0 -16 -1.5 -33t-3.5 -27h-390v85h290l-109 -43q0 54 -9.5 82t-41.5 28q-21 0 -34.5 -10t-19.5 -34.5t-6 -67.5t8 -65.5t23.5 -30t39.5 -7.5q26 0 40.5 11.5
t19.5 31.5l185 -50q-11 -49 -49 -81.5t-90.5 -48.5t-108.5 -16zM176 720q50 0 77.5 -23.5t27.5 -67.5q0 -43 -27.5 -67t-77.5 -24q-49 0 -75.5 24t-26.5 67q0 44 26.5 67.5t75.5 23.5zM413 720q50 0 77.5 -23.5t27.5 -67.5q0 -43 -27.5 -67t-77.5 -24q-49 0 -75.5 24
t-26.5 67q0 44 26.5 67.5t75.5 23.5z" />
    <glyph glyph-name="igrave" unicode="&#xec;" horiz-adv-x="308" 
d="M269 500v-500h-230v500h230zM177 730l60 -177h-162l-103 177h205z" />
    <glyph glyph-name="iacute" unicode="&#xed;" horiz-adv-x="308" 
d="M269 500v-500h-230v500h230zM119 730h205l-103 -177h-162z" />
    <glyph glyph-name="icircumflex" unicode="&#xee;" horiz-adv-x="308" 
d="M269 500v-500h-230v500h230zM367 547h-156l-57 71l-57 -71h-156l106 177h214z" />
    <glyph glyph-name="idieresis" unicode="&#xef;" horiz-adv-x="308" 
d="M261 535q-48 0 -72 23.5t-24 70.5t24 70.5t72 23.5t72 -23.5t24 -70.5t-24 -70.5t-72 -23.5zM47 535q-48 0 -72 23.5t-24 70.5t24 70.5t72 23.5t72 -23.5t24 -70.5t-24 -70.5t-72 -23.5zM269 500v-500h-230v500h230z" />
    <glyph glyph-name="eth" unicode="&#xf0;" horiz-adv-x="593" 
d="M298 -10q-86 0 -146.5 30t-92.5 87.5t-32 138.5q0 82 30.5 139t85 87t125.5 30q74 0 109.5 -37.5t42.5 -97.5l-8 -3q-4 63 -22.5 110t-50.5 86t-78 76.5t-105 80.5h185q35 -17 75 -50t75.5 -83t58 -117.5t22.5 -153.5q0 -109 -37 -180.5t-99 -107t-138 -35.5zM306 145
q20 0 31 9t15.5 31.5t4.5 60.5q0 45 -4.5 70t-15.5 35.5t-31 10.5q-18 0 -28.5 -10.5t-15 -35.5t-4.5 -70q0 -56 10 -78.5t38 -22.5zM182 543l-10 61l161 27l21 -58zM413 584l-15 57l169 29l12 -58z" />
    <glyph glyph-name="ntilde" unicode="&#xf1;" horiz-adv-x="620" 
d="M39 0v500h207l10 -212l-23 25q7 62 31 106t64.5 67.5t96.5 23.5q50 0 85 -19.5t53.5 -57t18.5 -91.5v-342h-230v285q0 32 -9 43.5t-27 11.5q-16 0 -26.5 -7.5t-15.5 -24.5t-5 -44v-264h-230zM519 719q-1 -60 -20 -99t-48.5 -58t-62.5 -19q-28 0 -48.5 7.5t-36.5 17.5
t-29 17.5t-26 7.5q-14 0 -21.5 -11t-9.5 -37h-118q2 90 43 133t99 43q27 0 46 -7.5t32.5 -17.5t25.5 -17.5t26 -7.5t21 11.5t9 36.5h118z" />
    <glyph glyph-name="ograve" unicode="&#xf2;" horiz-adv-x="598" 
d="M299 510q84 0 146.5 -30.5t97.5 -88.5t35 -141q0 -82 -35 -140.5t-97.5 -89t-146.5 -30.5q-83 0 -146 30.5t-98 89t-35 140.5q0 83 35 141t98 88.5t146 30.5zM299 355q-15 0 -26 -8.5t-16.5 -31.5t-5.5 -65t5.5 -64.5t16.5 -31.5t26 -9q16 0 26.5 9t16 31.5t5.5 64.5
t-5.5 65t-16 31.5t-26.5 8.5zM322 730l60 -177h-162l-103 177h205z" />
    <glyph glyph-name="oacute" unicode="&#xf3;" horiz-adv-x="598" 
d="M299 510q84 0 146.5 -30.5t97.5 -88.5t35 -141q0 -82 -35 -140.5t-97.5 -89t-146.5 -30.5q-83 0 -146 30.5t-98 89t-35 140.5q0 83 35 141t98 88.5t146 30.5zM299 355q-15 0 -26 -8.5t-16.5 -31.5t-5.5 -65t5.5 -64.5t16.5 -31.5t26 -9q16 0 26.5 9t16 31.5t5.5 64.5
t-5.5 65t-16 31.5t-26.5 8.5zM264 730h205l-103 -177h-162z" />
    <glyph glyph-name="ocircumflex" unicode="&#xf4;" horiz-adv-x="598" 
d="M299 510q84 0 146.5 -30.5t97.5 -88.5t35 -141q0 -82 -35 -140.5t-97.5 -89t-146.5 -30.5q-83 0 -146 30.5t-98 89t-35 140.5q0 83 35 141t98 88.5t146 30.5zM299 355q-15 0 -26 -8.5t-16.5 -31.5t-5.5 -65t5.5 -64.5t16.5 -31.5t26 -9q16 0 26.5 9t16 31.5t5.5 64.5
t-5.5 65t-16 31.5t-26.5 8.5zM512 547h-156l-57 71l-57 -71h-156l106 177h214z" />
    <glyph glyph-name="otilde" unicode="&#xf5;" horiz-adv-x="598" 
d="M299 510q84 0 146.5 -30.5t97.5 -88.5t35 -141q0 -82 -35 -140.5t-97.5 -89t-146.5 -30.5q-83 0 -146 30.5t-98 89t-35 140.5q0 83 35 141t98 88.5t146 30.5zM299 355q-15 0 -26 -8.5t-16.5 -31.5t-5.5 -65t5.5 -64.5t16.5 -31.5t26 -9q16 0 26.5 9t16 31.5t5.5 64.5
t-5.5 65t-16 31.5t-26.5 8.5zM509 719q-1 -60 -20 -99t-48.5 -58t-62.5 -19q-28 0 -48.5 7.5t-36.5 17.5t-29 17.5t-26 7.5q-14 0 -21.5 -11t-9.5 -37h-118q2 90 43 133t99 43q27 0 46 -7.5t32.5 -17.5t25.5 -17.5t26 -7.5t21 11.5t9 36.5h118z" />
    <glyph glyph-name="odieresis" unicode="&#xf6;" horiz-adv-x="598" 
d="M299 510q84 0 146.5 -30.5t97.5 -88.5t35 -141q0 -82 -35 -140.5t-97.5 -89t-146.5 -30.5q-83 0 -146 30.5t-98 89t-35 140.5q0 83 35 141t98 88.5t146 30.5zM299 355q-15 0 -26 -8.5t-16.5 -31.5t-5.5 -65t5.5 -64.5t16.5 -31.5t26 -9q16 0 26.5 9t16 31.5t5.5 64.5
t-5.5 65t-16 31.5t-26.5 8.5zM179 720q50 0 77.5 -23.5t27.5 -67.5q0 -43 -27.5 -67t-77.5 -24q-49 0 -75.5 24t-26.5 67q0 44 26.5 67.5t75.5 23.5zM416 720q50 0 77.5 -23.5t27.5 -67.5q0 -43 -27.5 -67t-77.5 -24q-49 0 -75.5 24t-26.5 67q0 44 26.5 67.5t75.5 23.5z" />
    <glyph glyph-name="divide" unicode="&#xf7;" horiz-adv-x="636" 
d="M576 407v-153h-516v153h516zM318 195q45 0 70 -24.5t25 -68.5t-25 -68t-70 -24q-46 0 -71 24t-25 68t25 68.5t71 24.5zM318 651q45 0 70 -24.5t25 -68.5t-25 -68t-70 -24q-46 0 -71 24t-25 68t25 68.5t71 24.5z" />
    <glyph glyph-name="oslash" unicode="&#xf8;" horiz-adv-x="598" 
d="M299 510q84 0 146.5 -30.5t97.5 -88.5t35 -141q0 -82 -35 -140.5t-97.5 -89t-146.5 -30.5q-83 0 -146 30.5t-98 89t-35 140.5q0 83 35 141t98 88.5t146 30.5zM299 355q-15 0 -26 -8.5t-16.5 -31.5t-5.5 -65t5.5 -64.5t16.5 -31.5t26 -9q16 0 26.5 9t16 31.5t5.5 64.5
t-5.5 65t-16 31.5t-26.5 8.5zM38 -21l455 541h67l-455 -541h-67z" />
    <glyph glyph-name="ugrave" unicode="&#xf9;" horiz-adv-x="620" 
d="M200 -10q-52 0 -88 17.5t-55 55.5t-19 99v338h230v-285q0 -29 9.5 -42t28.5 -13q11 0 19.5 4.5t14 13.5t8.5 23.5t3 33.5v265h230v-500h-207l-5 106q-22 -58 -64.5 -87t-104.5 -29zM327 730l60 -177h-162l-103 177h205z" />
    <glyph glyph-name="uacute" unicode="&#xfa;" horiz-adv-x="620" 
d="M200 -10q-52 0 -88 17.5t-55 55.5t-19 99v338h230v-285q0 -29 9.5 -42t28.5 -13q11 0 19.5 4.5t14 13.5t8.5 23.5t3 33.5v265h230v-500h-207l-5 106q-22 -58 -64.5 -87t-104.5 -29zM269 730h205l-103 -177h-162z" />
    <glyph glyph-name="ucircumflex" unicode="&#xfb;" horiz-adv-x="620" 
d="M200 -10q-52 0 -88 17.5t-55 55.5t-19 99v338h230v-285q0 -29 9.5 -42t28.5 -13q11 0 19.5 4.5t14 13.5t8.5 23.5t3 33.5v265h230v-500h-207l-5 106q-22 -58 -64.5 -87t-104.5 -29zM517 547h-156l-57 71l-57 -71h-156l106 177h214z" />
    <glyph glyph-name="udieresis" unicode="&#xfc;" horiz-adv-x="620" 
d="M200 -10q-52 0 -88 17.5t-55 55.5t-19 99v338h230v-285q0 -29 9.5 -42t28.5 -13q11 0 19.5 4.5t14 13.5t8.5 23.5t3 33.5v265h230v-500h-207l-5 106q-22 -58 -64.5 -87t-104.5 -29zM184 720q50 0 77.5 -23.5t27.5 -67.5q0 -43 -27.5 -67t-77.5 -24q-49 0 -75.5 24
t-26.5 67q0 44 26.5 67.5t75.5 23.5zM421 720q50 0 77.5 -23.5t27.5 -67.5q0 -43 -27.5 -67t-77.5 -24q-49 0 -75.5 24t-26.5 67q0 44 26.5 67.5t75.5 23.5z" />
    <glyph glyph-name="yacute" unicode="&#xfd;" horiz-adv-x="594" 
d="M604 500l-147 -444q-33 -99 -73.5 -158.5t-97 -86t-137.5 -26.5q-48 0 -87 9t-67 24l42 145q16 -9 34.5 -13t54.5 -4q32 0 47.5 6t21.5 21l3 8l-63 147l-143 372h251l45 -258l19 -117l22 118l50 257h225zM288 730h205l-103 -177h-162z" />
    <glyph glyph-name="thorn" unicode="&#xfe;" horiz-adv-x="627" 
d="M39 -210v910h230v-350l-20 -7q10 72 50.5 119.5t120.5 47.5q56 0 97 -31t63 -89.5t22 -142.5q0 -80 -22.5 -138t-65.5 -88.5t-104 -30.5q-73 0 -112 47.5t-49 119.5l20 30v-397h-230zM318 152q24 0 38 19.5t14 78.5t-14 79t-38 20q-15 0 -26 -10.5t-17 -32t-6 -56.5
q0 -32 5 -54t16 -33t28 -11z" />
    <glyph glyph-name="ydieresis" unicode="&#xff;" horiz-adv-x="594" 
d="M604 500l-147 -444q-33 -99 -73.5 -158.5t-97 -86t-137.5 -26.5q-48 0 -87 9t-67 24l42 145q16 -9 34.5 -13t54.5 -4q32 0 47.5 6t21.5 21l3 8l-63 147l-143 372h251l45 -258l19 -117l22 118l50 257h225zM203 720q50 0 77.5 -23.5t27.5 -67.5q0 -43 -27.5 -67t-77.5 -24
q-49 0 -75.5 24t-26.5 67q0 44 26.5 67.5t75.5 23.5zM440 720q50 0 77.5 -23.5t27.5 -67.5q0 -43 -27.5 -67t-77.5 -24q-49 0 -75.5 24t-26.5 67q0 44 26.5 67.5t75.5 23.5z" />
    <glyph glyph-name="Amacron" unicode="&#x100;" horiz-adv-x="689" 
d="M-10 0l214 660h280l215 -660h-238l-90 379l-27 112h-3l-26 -112l-93 -379h-232zM157 126v145h377v-145h-377zM538 841v-130h-388v130h388z" />
    <glyph glyph-name="amacron" unicode="&#x101;" 
d="M310 312q0 23 -10.5 36t-32.5 13q-21 0 -35 -12t-16 -48l-194 28q7 83 72 132t189 49q87 0 143.5 -24t84 -67t27.5 -100v-155q0 -41 39 -41q11 0 17 3l-10 -118q-37 -18 -89 -18q-47 0 -83.5 13.5t-57 41t-20.5 70.5v10h22q-1 -38 -24.5 -68.5t-62.5 -48.5t-89 -18
q-53 0 -89.5 16t-55.5 46t-19 71q0 55 35 89.5t101 47.5l174 36l-1 -81l-54 -13q-21 -5 -30 -16.5t-9 -28.5q0 -16 10 -26t28 -10q8 0 15.5 3t13 9t8.5 14.5t3 19.5v145zM471 681v-130h-388v130h388z" />
    <glyph glyph-name="Abreve" unicode="&#x102;" horiz-adv-x="689" 
d="M-10 0l214 660h280l215 -660h-238l-90 379l-27 112h-3l-26 -112l-93 -379h-232zM157 126v145h377v-145h-377zM527 873q0 -82 -48.5 -127.5t-134.5 -45.5q-85 0 -134 45.5t-49 127.5h139q0 -27 11 -41t33 -14q23 0 33.5 14t10.5 41h139z" />
    <glyph glyph-name="abreve" unicode="&#x103;" 
d="M310 312q0 23 -10.5 36t-32.5 13q-21 0 -35 -12t-16 -48l-194 28q7 83 72 132t189 49q87 0 143.5 -24t84 -67t27.5 -100v-155q0 -41 39 -41q11 0 17 3l-10 -118q-37 -18 -89 -18q-47 0 -83.5 13.5t-57 41t-20.5 70.5v10h22q-1 -38 -24.5 -68.5t-62.5 -48.5t-89 -18
q-53 0 -89.5 16t-55.5 46t-19 71q0 55 35 89.5t101 47.5l174 36l-1 -81l-54 -13q-21 -5 -30 -16.5t-9 -28.5q0 -16 10 -26t28 -10q8 0 15.5 3t13 9t8.5 14.5t3 19.5v145zM460 713q0 -82 -48.5 -127.5t-134.5 -45.5q-85 0 -134 45.5t-49 127.5h139q0 -27 11 -41t33 -14
q23 0 33.5 14t10.5 41h139z" />
    <glyph glyph-name="Aogonek" unicode="&#x104;" horiz-adv-x="689" 
d="M584 -215q-41 0 -76 12.5t-55.5 38.5t-20.5 68q0 59 49.5 91.5t125.5 36.5l92 -32q-42 -2 -67 -9.5t-35.5 -19t-10.5 -27.5q0 -18 13 -28t36 -10q11 0 22 2t18 6l27 -103q-24 -15 -52 -20.5t-66 -5.5zM-10 0l214 660h280l215 -660h-238l-90 379l-27 112h-3l-26 -112
l-93 -379h-232zM157 126v145h377v-145h-377z" />
    <glyph glyph-name="aogonek" unicode="&#x105;" 
d="M486 -217q-34 0 -67 12.5t-54 39t-21 68.5q0 59 47 91t123 36l70 -22q-41 -14 -61 -25.5t-26.5 -22t-6.5 -22.5q0 -15 10.5 -24.5t29.5 -9.5q9 0 20.5 2t17.5 6l18 -108q-19 -11 -43.5 -16t-56.5 -5zM310 312q0 23 -10.5 36t-32.5 13q-21 0 -35 -12t-16 -48l-194 28
q7 83 72 132t189 49q87 0 143.5 -24t84 -67t27.5 -100v-155q0 -41 39 -41q11 0 17 3l-10 -118q-37 -18 -89 -18q-47 0 -83.5 13.5t-57 41t-20.5 70.5v10h22q-1 -38 -24.5 -68.5t-62.5 -48.5t-89 -18q-53 0 -89.5 16t-55.5 46t-19 71q0 55 35 89.5t101 47.5l174 36l-1 -81
l-54 -13q-21 -5 -30 -16.5t-9 -28.5q0 -16 10 -26t28 -10q8 0 15.5 3t13 9t8.5 14.5t3 19.5v145z" />
    <glyph glyph-name="Cacute" unicode="&#x106;" horiz-adv-x="677" 
d="M670 202q-18 -77 -61.5 -124t-105.5 -67.5t-138 -20.5q-104 0 -179.5 40t-116 116t-40.5 184t40.5 184t116 116t179.5 40q73 0 136 -20.5t106.5 -64.5t57.5 -115l-200 -78q-8 65 -32.5 84t-61.5 19q-34 0 -57.5 -17.5t-35 -54t-11.5 -93.5q0 -56 10.5 -93t34.5 -54.5
t64 -17.5q36 0 59 21.5t29 68.5zM323 876h196l-91 -167h-163z" />
    <glyph glyph-name="cacute" unicode="&#x107;" horiz-adv-x="571" 
d="M297 510q92 0 150 -25.5t85.5 -64.5t28.5 -80l-212 -62q0 40 -9.5 58.5t-32.5 18.5q-20 0 -32.5 -9.5t-18 -33t-5.5 -65.5q0 -43 7.5 -65t20.5 -29.5t29 -7.5q15 0 24 7.5t14.5 22.5t6.5 36l206 -64q-1 -42 -32 -77.5t-86.5 -57.5t-131.5 -22q-90 0 -155 30.5t-99.5 88.5
t-34.5 141t34.5 141t97 88.5t145.5 30.5zM262 730h205l-103 -177h-162z" />
    <glyph glyph-name="Ccircumflex" unicode="&#x108;" horiz-adv-x="677" 
d="M670 202q-18 -77 -61.5 -124t-105.5 -67.5t-138 -20.5q-104 0 -179.5 40t-116 116t-40.5 184t40.5 184t116 116t179.5 40q73 0 136 -20.5t106.5 -64.5t57.5 -115l-200 -78q-8 65 -32.5 84t-61.5 19q-34 0 -57.5 -17.5t-35 -54t-11.5 -93.5q0 -56 10.5 -93t34.5 -54.5
t64 -17.5q36 0 59 21.5t29 68.5zM559 709h-148l-55 82l-55 -82h-148l94 167h218z" />
    <glyph glyph-name="ccircumflex" unicode="&#x109;" horiz-adv-x="571" 
d="M297 510q92 0 150 -25.5t85.5 -64.5t28.5 -80l-212 -62q0 40 -9.5 58.5t-32.5 18.5q-20 0 -32.5 -9.5t-18 -33t-5.5 -65.5q0 -43 7.5 -65t20.5 -29.5t29 -7.5q15 0 24 7.5t14.5 22.5t6.5 36l206 -64q-1 -42 -32 -77.5t-86.5 -57.5t-131.5 -22q-90 0 -155 30.5t-99.5 88.5
t-34.5 141t34.5 141t97 88.5t145.5 30.5zM510 547h-156l-57 71l-57 -71h-156l106 177h214z" />
    <glyph glyph-name="Cdotaccent" unicode="&#x10a;" horiz-adv-x="677" 
d="M670 202q-18 -77 -61.5 -124t-105.5 -67.5t-138 -20.5q-104 0 -179.5 40t-116 116t-40.5 184t40.5 184t116 116t179.5 40q73 0 136 -20.5t106.5 -64.5t57.5 -115l-200 -78q-8 65 -32.5 84t-61.5 19q-34 0 -57.5 -17.5t-35 -54t-11.5 -93.5q0 -56 10.5 -93t34.5 -54.5
t64 -17.5q36 0 59 21.5t29 68.5zM356 886q58 0 86.5 -23.5t28.5 -70.5t-28.5 -70.5t-86.5 -23.5q-56 0 -84 23.5t-28 70.5t28 70.5t84 23.5z" />
    <glyph glyph-name="cdotaccent" unicode="&#x10b;" horiz-adv-x="571" 
d="M297 510q92 0 150 -25.5t85.5 -64.5t28.5 -80l-212 -62q0 40 -9.5 58.5t-32.5 18.5q-20 0 -32.5 -9.5t-18 -33t-5.5 -65.5q0 -43 7.5 -65t20.5 -29.5t29 -7.5q15 0 24 7.5t14.5 22.5t6.5 36l206 -64q-1 -42 -32 -77.5t-86.5 -57.5t-131.5 -22q-90 0 -155 30.5t-99.5 88.5
t-34.5 141t34.5 141t97 88.5t145.5 30.5zM297 726q58 0 86.5 -23.5t28.5 -70.5t-28.5 -70.5t-86.5 -23.5q-56 0 -84 23.5t-28 70.5t28 70.5t84 23.5z" />
    <glyph glyph-name="Ccaron" unicode="&#x10c;" horiz-adv-x="677" 
d="M670 202q-18 -77 -61.5 -124t-105.5 -67.5t-138 -20.5q-104 0 -179.5 40t-116 116t-40.5 184t40.5 184t116 116t179.5 40q73 0 136 -20.5t106.5 -64.5t57.5 -115l-200 -78q-8 65 -32.5 84t-61.5 19q-34 0 -57.5 -17.5t-35 -54t-11.5 -93.5q0 -56 10.5 -93t34.5 -54.5
t64 -17.5q36 0 59 21.5t29 68.5zM559 876l-94 -167h-218l-94 167h148l55 -82l55 82h148z" />
    <glyph glyph-name="ccaron" unicode="&#x10d;" horiz-adv-x="571" 
d="M297 510q92 0 150 -25.5t85.5 -64.5t28.5 -80l-212 -62q0 40 -9.5 58.5t-32.5 18.5q-20 0 -32.5 -9.5t-18 -33t-5.5 -65.5q0 -43 7.5 -65t20.5 -29.5t29 -7.5q15 0 24 7.5t14.5 22.5t6.5 36l206 -64q-1 -42 -32 -77.5t-86.5 -57.5t-131.5 -22q-90 0 -155 30.5t-99.5 88.5
t-34.5 141t34.5 141t97 88.5t145.5 30.5zM504 730l-106 -177h-214l-106 177h156l57 -71l57 71h156z" />
    <glyph glyph-name="Dcaron" unicode="&#x10e;" horiz-adv-x="716" 
d="M374 660q155 0 234 -86t79 -244q0 -157 -79 -243.5t-234 -86.5h-324v660h324zM341 166q65 0 86.5 39.5t21.5 124.5t-21.5 124.5t-86.5 39.5h-58v-328h58zM534 876l-94 -167h-218l-94 167h148l55 -82l55 82h148z" />
    <glyph glyph-name="dcaron" unicode="&#x10f;" horiz-adv-x="737" 
d="M808 700l-61 -267h-126l22 267h165zM216 -10q-61 0 -104 30.5t-65 88t-22 138.5q0 84 22.5 142.5t65.5 89.5t104 31q73 0 112 -47.5t49 -119.5l-20 -30v387h230v-700h-207l-14 202l26 -29q-6 -53 -28.5 -94.5t-60 -65t-88.5 -23.5zM309 151q16 0 26.5 10.5t16.5 32.5
t6 56q0 32 -5 54t-16 33t-28 11q-24 0 -38 -19.5t-14 -78.5t14 -79t38 -20z" />
    <glyph glyph-name="Dcroat" unicode="&#x110;" horiz-adv-x="744" 
d="M4 253v150h393v-150h-393zM402 660q155 0 234 -86t79 -244q0 -157 -79 -243.5t-234 -86.5h-324v660h324zM369 166q65 0 86.5 39.5t21.5 124.5t-21.5 124.5t-86.5 39.5h-58v-328h58z" />
    <glyph glyph-name="dcroat" unicode="&#x111;" horiz-adv-x="627" 
d="M246 519v121h418v-121h-418zM216 -10q-61 0 -104 30.5t-65 88t-22 138.5q0 84 22.5 142.5t65.5 89.5t104 31q73 0 112 -47.5t49 -119.5l-20 -30v387h230v-700h-207l-14 202l26 -29q-6 -53 -28.5 -94.5t-60 -65t-88.5 -23.5zM309 151q16 0 26.5 10.5t16.5 32.5t6 56
q0 32 -5 54t-16 33t-28 11q-24 0 -38 -19.5t-14 -78.5t14 -79t38 -20z" />
    <glyph glyph-name="Emacron" unicode="&#x112;" horiz-adv-x="626" 
d="M50 0v660h548v-171h-315v-82h254v-158h-254v-78h327v-171h-560zM518 841v-130h-388v130h388z" />
    <glyph glyph-name="emacron" unicode="&#x113;" horiz-adv-x="580" 
d="M306 -10q-90 0 -154 30.5t-98 88.5t-34 141t34.5 141t97 88.5t145.5 30.5q85 0 144.5 -30.5t90.5 -85.5t31 -128q0 -16 -1.5 -33t-3.5 -27h-390v85h290l-109 -43q0 54 -9.5 82t-41.5 28q-21 0 -34.5 -10t-19.5 -34.5t-6 -67.5t8 -65.5t23.5 -30t39.5 -7.5q26 0 40.5 11.5
t19.5 31.5l185 -50q-11 -49 -49 -81.5t-90.5 -48.5t-108.5 -16zM490 681v-130h-388v130h388z" />
    <glyph glyph-name="Ebreve" unicode="&#x114;" horiz-adv-x="626" 
d="M50 0v660h548v-171h-315v-82h254v-158h-254v-78h327v-171h-560zM507 873q0 -82 -48.5 -127.5t-134.5 -45.5q-85 0 -134 45.5t-49 127.5h139q0 -27 11 -41t33 -14q23 0 33.5 14t10.5 41h139z" />
    <glyph glyph-name="ebreve" unicode="&#x115;" horiz-adv-x="580" 
d="M306 -10q-90 0 -154 30.5t-98 88.5t-34 141t34.5 141t97 88.5t145.5 30.5q85 0 144.5 -30.5t90.5 -85.5t31 -128q0 -16 -1.5 -33t-3.5 -27h-390v85h290l-109 -43q0 54 -9.5 82t-41.5 28q-21 0 -34.5 -10t-19.5 -34.5t-6 -67.5t8 -65.5t23.5 -30t39.5 -7.5q26 0 40.5 11.5
t19.5 31.5l185 -50q-11 -49 -49 -81.5t-90.5 -48.5t-108.5 -16zM479 713q0 -82 -48.5 -127.5t-134.5 -45.5q-85 0 -134 45.5t-49 127.5h139q0 -27 11 -41t33 -14q23 0 33.5 14t10.5 41h139z" />
    <glyph glyph-name="Edotaccent" unicode="&#x116;" horiz-adv-x="626" 
d="M50 0v660h548v-171h-315v-82h254v-158h-254v-78h327v-171h-560zM324 886q58 0 86.5 -23.5t28.5 -70.5t-28.5 -70.5t-86.5 -23.5q-56 0 -84 23.5t-28 70.5t28 70.5t84 23.5z" />
    <glyph glyph-name="edotaccent" unicode="&#x117;" horiz-adv-x="580" 
d="M306 -10q-90 0 -154 30.5t-98 88.5t-34 141t34.5 141t97 88.5t145.5 30.5q85 0 144.5 -30.5t90.5 -85.5t31 -128q0 -16 -1.5 -33t-3.5 -27h-390v85h290l-109 -43q0 54 -9.5 82t-41.5 28q-21 0 -34.5 -10t-19.5 -34.5t-6 -67.5t8 -65.5t23.5 -30t39.5 -7.5q26 0 40.5 11.5
t19.5 31.5l185 -50q-11 -49 -49 -81.5t-90.5 -48.5t-108.5 -16zM296 726q58 0 86.5 -23.5t28.5 -70.5t-28.5 -70.5t-86.5 -23.5q-56 0 -84 23.5t-28 70.5t28 70.5t84 23.5z" />
    <glyph glyph-name="Eogonek" unicode="&#x118;" horiz-adv-x="626" 
d="M496 -215q-41 0 -76 12.5t-55.5 38.5t-20.5 68q0 59 60.5 91.5t154.5 36.5l52 -32q-64 -4 -88.5 -18.5t-24.5 -37.5q0 -18 13 -28t36 -10q11 0 22 2t18 6l27 -103q-24 -15 -52 -20.5t-66 -5.5zM50 0v660h548v-171h-315v-82h254v-158h-254v-78h327v-171h-560z" />
    <glyph glyph-name="eogonek" unicode="&#x119;" horiz-adv-x="580" 
d="M306 -10q-90 0 -154 30.5t-98 88.5t-34 141t34.5 141t97 88.5t145.5 30.5q85 0 144.5 -30.5t90.5 -85.5t31 -128q0 -16 -1.5 -33t-3.5 -27h-390v85h290l-109 -43q0 54 -9.5 82t-41.5 28q-21 0 -34.5 -10t-19.5 -34.5t-6 -67.5t8 -65.5t23.5 -30t39.5 -7.5q26 0 40.5 11.5
t19.5 31.5l185 -50q-11 -49 -49 -81.5t-90.5 -48.5t-108.5 -16zM317 -218q-67 0 -106 31t-39 86q0 60 46 93t118 37l82 -22q-32 -9 -55 -17.5t-35.5 -19.5t-12.5 -29t13 -28t36 -10q11 0 22 2t18 6l21 -107q-23 -13 -47.5 -17.5t-60.5 -4.5z" />
    <glyph glyph-name="Ecaron" unicode="&#x11a;" horiz-adv-x="626" 
d="M50 0v660h548v-171h-315v-82h254v-158h-254v-78h327v-171h-560zM527 876l-94 -167h-218l-94 167h148l55 -82l55 82h148z" />
    <glyph glyph-name="ecaron" unicode="&#x11b;" horiz-adv-x="580" 
d="M306 -10q-90 0 -154 30.5t-98 88.5t-34 141t34.5 141t97 88.5t145.5 30.5q85 0 144.5 -30.5t90.5 -85.5t31 -128q0 -16 -1.5 -33t-3.5 -27h-390v85h290l-109 -43q0 54 -9.5 82t-41.5 28q-21 0 -34.5 -10t-19.5 -34.5t-6 -67.5t8 -65.5t23.5 -30t39.5 -7.5q26 0 40.5 11.5
t19.5 31.5l185 -50q-11 -49 -49 -81.5t-90.5 -48.5t-108.5 -16zM503 730l-106 -177h-214l-106 177h156l57 -71l57 71h156z" />
    <glyph glyph-name="Gcircumflex" unicode="&#x11c;" horiz-adv-x="722" 
d="M328 -10q-85 0 -153 37.5t-107 113t-39 187.5q0 108 40.5 184.5t117.5 117t184 40.5q122 0 195.5 -43t112.5 -138l-217 -78q-7 47 -30.5 65.5t-58.5 18.5q-38 0 -61.5 -18t-34 -54.5t-10.5 -92.5q0 -62 13.5 -100t41 -54.5t69.5 -16.5q20 0 36.5 4t29 12.5t19 21.5
t6.5 31v1h-111v143h306v-372h-154l-19 177l36 -39q-17 -71 -70.5 -109.5t-141.5 -38.5zM567 709h-148l-55 82l-55 -82h-148l94 167h218z" />
    <glyph glyph-name="gcircumflex" unicode="&#x11d;" horiz-adv-x="578" 
d="M92 547l61 177h184l61 -177h-116l-37 84l-37 -84h-116zM578 662l19 -142q-4 1 -8 1h-9q-36 0 -61 -21.5t-25 -65.5l-64 43q2 52 21 93.5t51.5 66.5t73.5 25h1h1zM381 142q97 0 148 -39t51 -117q0 -70 -35 -114.5t-101.5 -65.5t-161.5 -21q-147 0 -208 30t-61 90
q0 42 39 65t128 23l-2 -17q-79 8 -113.5 40.5t-34.5 84.5q0 53 43.5 83.5t107.5 30.5l69 -30h-20q-32 0 -45 -5.5t-13 -16.5q0 -10 9.5 -15.5t31.5 -5.5h168zM285 -76q42 0 69.5 3t41.5 9.5t14 16.5q0 6 -4 9.5t-15 3.5h-195q-10 0 -15 -5t-5 -12q0 -13 29 -19t80 -6z
M299 510q88 0 147 -19t89 -56.5t30 -95.5q0 -57 -30 -94.5t-89 -56t-147 -18.5q-131 0 -198.5 42t-67.5 127q0 58 30 95.5t89.5 56.5t146.5 19zM299 391q-20 0 -31 -12t-11 -39t11 -39t31 -12t31 12t11 39t-11 39t-31 12z" />
    <glyph glyph-name="Gbreve" unicode="&#x11e;" horiz-adv-x="722" 
d="M328 -10q-85 0 -153 37.5t-107 113t-39 187.5q0 108 40.5 184.5t117.5 117t184 40.5q122 0 195.5 -43t112.5 -138l-217 -78q-7 47 -30.5 65.5t-58.5 18.5q-38 0 -61.5 -18t-34 -54.5t-10.5 -92.5q0 -62 13.5 -100t41 -54.5t69.5 -16.5q20 0 36.5 4t29 12.5t19 21.5
t6.5 31v1h-111v143h306v-372h-154l-19 177l36 -39q-17 -71 -70.5 -109.5t-141.5 -38.5zM547 873q0 -82 -48.5 -127.5t-134.5 -45.5q-85 0 -134 45.5t-49 127.5h139q0 -27 11 -41t33 -14q23 0 33.5 14t10.5 41h139z" />
    <glyph glyph-name="gbreve" unicode="&#x11f;" horiz-adv-x="578" 
d="M578 662l19 -142q-4 1 -8 1h-9q-36 0 -61 -21.5t-25 -65.5l-64 43q2 52 21 93.5t51.5 66.5t73.5 25h1h1zM381 142q97 0 148 -39t51 -117q0 -70 -35 -114.5t-101.5 -65.5t-161.5 -21q-147 0 -208 30t-61 90q0 42 39 65t128 23l-2 -17q-79 8 -113.5 40.5t-34.5 84.5
q0 53 43.5 83.5t107.5 30.5l69 -30h-20q-32 0 -45 -5.5t-13 -16.5q0 -10 9.5 -15.5t31.5 -5.5h168zM285 -76q42 0 69.5 3t41.5 9.5t14 16.5q0 6 -4 9.5t-15 3.5h-195q-10 0 -15 -5t-5 -12q0 -13 29 -19t80 -6zM299 510q88 0 147 -19t89 -56.5t30 -95.5q0 -57 -30 -94.5
t-89 -56t-147 -18.5q-131 0 -198.5 42t-67.5 127q0 58 30 95.5t89.5 56.5t146.5 19zM299 391q-20 0 -31 -12t-11 -39t11 -39t31 -12t31 12t11 39t-11 39t-31 12zM472 713q0 -82 -48.5 -127.5t-134.5 -45.5q-85 0 -134 45.5t-49 127.5h139q0 -27 11 -41t33 -14q23 0 33.5 14
t10.5 41h139z" />
    <glyph glyph-name="Gdotaccent" unicode="&#x120;" horiz-adv-x="722" 
d="M328 -10q-85 0 -153 37.5t-107 113t-39 187.5q0 108 40.5 184.5t117.5 117t184 40.5q122 0 195.5 -43t112.5 -138l-217 -78q-7 47 -30.5 65.5t-58.5 18.5q-38 0 -61.5 -18t-34 -54.5t-10.5 -92.5q0 -62 13.5 -100t41 -54.5t69.5 -16.5q20 0 36.5 4t29 12.5t19 21.5
t6.5 31v1h-111v143h306v-372h-154l-19 177l36 -39q-17 -71 -70.5 -109.5t-141.5 -38.5zM364 886q58 0 86.5 -23.5t28.5 -70.5t-28.5 -70.5t-86.5 -23.5q-56 0 -84 23.5t-28 70.5t28 70.5t84 23.5z" />
    <glyph glyph-name="gdotaccent" unicode="&#x121;" horiz-adv-x="578" 
d="M565 662l12 -142q-10 2 -18.5 3t-16.5 1q-41 0 -59.5 -22.5t-18.5 -47.5l-67 20q0 43 13 86.5t45 73t87 29.5h11t12 -1zM381 142q97 0 148 -39t51 -117q0 -70 -35 -114.5t-101.5 -65.5t-161.5 -21q-147 0 -208 30t-61 90q0 42 39 65t128 23l-2 -17q-79 8 -113.5 40.5
t-34.5 84.5q0 53 43.5 83.5t107.5 30.5l69 -30h-20q-32 0 -45 -5.5t-13 -16.5q0 -10 9.5 -15.5t31.5 -5.5h168zM285 -76q42 0 69.5 3t41.5 9.5t14 16.5q0 6 -4 9.5t-15 3.5h-195q-10 0 -15 -5t-5 -12q0 -13 29 -19t80 -6zM299 510q88 0 147 -19t89 -56.5t30 -95.5
q0 -57 -30 -94.5t-89 -56t-147 -18.5q-131 0 -198.5 42t-67.5 127q0 58 30 95.5t89.5 56.5t146.5 19zM299 391q-20 0 -31 -12t-11 -39t11 -39t31 -12t31 12t11 39t-11 39t-31 12zM255 726q58 0 86.5 -23.5t28.5 -70.5t-28.5 -70.5t-86.5 -23.5q-56 0 -84 23.5t-28 70.5
t28 70.5t84 23.5z" />
    <glyph glyph-name="uni0122" unicode="&#x122;" horiz-adv-x="722" 
d="M328 -10q-85 0 -153 37.5t-107 113t-39 187.5q0 108 40.5 184.5t117.5 117t184 40.5q122 0 195.5 -43t112.5 -138l-217 -78q-7 47 -30.5 65.5t-58.5 18.5q-38 0 -61.5 -18t-34 -54.5t-10.5 -92.5q0 -62 13.5 -100t41 -54.5t69.5 -16.5q20 0 36.5 4t29 12.5t19 21.5
t6.5 31v1h-111v143h306v-372h-154l-19 177l36 -39q-17 -71 -70.5 -109.5t-141.5 -38.5zM498 -50l-75 -193h-142l24 193h193z" />
    <glyph glyph-name="uni0123" unicode="&#x123;" horiz-adv-x="578" 
d="M565 662l12 -142q-10 2 -18.5 3t-16.5 1q-41 0 -59.5 -22.5t-18.5 -47.5l-67 20q0 43 13 86.5t45 73t87 29.5h11t12 -1zM381 142q97 0 148 -39t51 -117q0 -70 -35 -114.5t-101.5 -65.5t-161.5 -21q-147 0 -208 30t-61 90q0 42 39 65t128 23l-2 -17q-79 8 -113.5 40.5
t-34.5 84.5q0 53 43.5 83.5t107.5 30.5l69 -30h-20q-32 0 -45 -5.5t-13 -16.5q0 -10 9.5 -15.5t31.5 -5.5h168zM285 -76q42 0 69.5 3t41.5 9.5t14 16.5q0 6 -4 9.5t-15 3.5h-195q-10 0 -15 -5t-5 -12q0 -13 29 -19t80 -6zM299 510q88 0 147 -19t89 -56.5t30 -95.5
q0 -57 -30 -94.5t-89 -56t-147 -18.5q-131 0 -198.5 42t-67.5 127q0 58 30 95.5t89.5 56.5t146.5 19zM299 391q-20 0 -31 -12t-11 -39t11 -39t31 -12t31 12t11 39t-11 39t-31 12zM401 768l-32 -221h-178l71 221h139z" />
    <glyph glyph-name="Hcircumflex" unicode="&#x124;" horiz-adv-x="747" 
d="M697 660v-660h-233v660h233zM283 660v-660h-233v660h233zM593 417v-171h-431v171h431zM577 709h-148l-55 82l-55 -82h-148l94 167h218z" />
    <glyph glyph-name="hcircumflex" unicode="&#x125;" horiz-adv-x="620" 
d="M39 0v700h230v-302q20 54 59.5 83t96.5 29q50 0 85 -19.5t53.5 -57t18.5 -91.5v-342h-230v282q0 34 -8.5 46.5t-26.5 12.5q-16 0 -27 -8.5t-16 -26t-5 -44.5v-262h-230zM357 749h-148l-55 82l-55 -82h-148l94 167h218z" />
    <glyph glyph-name="Hbar" unicode="&#x126;" horiz-adv-x="747" 
d="M697 660v-660h-233v660h233zM283 660v-660h-233v660h233zM593 417v-171h-431v171h431zM764 592v-113h-781v113h781z" />
    <glyph glyph-name="hbar" unicode="&#x127;" horiz-adv-x="620" 
d="M-37 640h418v-121h-418v121zM39 0v700h230v-302q20 54 59.5 83t96.5 29q50 0 85 -19.5t53.5 -57t18.5 -91.5v-342h-230v282q0 34 -8.5 46.5t-26.5 12.5q-16 0 -27 -8.5t-16 -26t-5 -44.5v-262h-230z" />
    <glyph glyph-name="Itilde" unicode="&#x128;" horiz-adv-x="333" 
d="M283 660v-660h-233v660h233zM376 879q-1 -60 -20 -99t-48.5 -58t-62.5 -19q-28 0 -48.5 7.5t-36.5 17.5t-29 17.5t-26 7.5q-14 0 -21.5 -11t-9.5 -37h-118q2 90 43 133t99 43q27 0 46 -7.5t32.5 -17.5t25.5 -17.5t26 -7.5t21 11.5t9 36.5h118z" />
    <glyph glyph-name="itilde" unicode="&#x129;" horiz-adv-x="308" 
d="M269 500v-500h-230v500h230zM364 719q-1 -60 -20 -99t-48.5 -58t-62.5 -19q-28 0 -48.5 7.5t-36.5 17.5t-29 17.5t-26 7.5q-14 0 -21.5 -11t-9.5 -37h-118q2 90 43 133t99 43q27 0 46 -7.5t32.5 -17.5t25.5 -17.5t26 -7.5t21 11.5t9 36.5h118z" />
    <glyph glyph-name="Imacron" unicode="&#x12a;" horiz-adv-x="333" 
d="M330 841v-130h-329v130h329zM283 660v-660h-233v660h233z" />
    <glyph glyph-name="imacron" unicode="&#x12b;" horiz-adv-x="308" 
d="M269 500v-500h-230v500h230zM278.163 681v-130h-248.326v130h248.326z" />
    <glyph glyph-name="Ibreve" unicode="&#x12c;" horiz-adv-x="333" 
d="M283 660v-660h-233v660h233zM349 873q0 -82 -48.5 -127.5t-134.5 -45.5q-85 0 -134 45.5t-49 127.5h139q0 -27 11 -41t33 -14q23 0 33.5 14t10.5 41h139z" />
    <glyph glyph-name="ibreve" unicode="&#x12d;" horiz-adv-x="308" 
d="M269 500v-500h-230v500h230zM337 713q0 -82 -48.5 -127.5t-134.5 -45.5q-85 0 -134 45.5t-49 127.5h139q0 -27 11 -41t33 -14q23 0 33.5 14t10.5 41h139z" />
    <glyph glyph-name="Iogonek" unicode="&#x12e;" horiz-adv-x="333" 
d="M178 -225q-41 0 -79 12t-61.5 40.5t-23.5 77.5q0 52 25.5 83t68 46t93.5 18l82 -52q-48 -13 -75.5 -26.5t-27.5 -39.5q0 -18 13 -28t36 -10q11 0 22 2t18 6l27 -103q-24 -15 -52 -20.5t-66 -5.5zM283 660v-660h-233v660h233z" />
    <glyph glyph-name="iogonek" unicode="&#x12f;" horiz-adv-x="308" 
d="M164 -225q-41 0 -79 12t-61.5 40.5t-23.5 77.5q0 52 25.5 83t68 46t93.5 18l82 -52q-48 -13 -75.5 -26.5t-27.5 -39.5q0 -18 13 -28t36 -10q11 0 22 2t18 6l27 -103q-24 -15 -52 -20.5t-66 -5.5zM154 532q-68 0 -96.5 22t-28.5 74q0 53 28.5 74.5t96.5 21.5t96.5 -21.5
t28.5 -74.5q0 -52 -28.5 -74t-96.5 -22zM269 500v-500h-230v500h230z" />
    <glyph glyph-name="Idotaccent" unicode="&#x130;" horiz-adv-x="333" 
d="M283 660v-660h-233v660h233zM166 886q58 0 86.5 -23.5t28.5 -70.5t-28.5 -70.5t-86.5 -23.5q-56 0 -84 23.5t-28 70.5t28 70.5t84 23.5z" />
    <glyph glyph-name="dotlessi" unicode="&#x131;" horiz-adv-x="308" 
d="M269 500v-500h-230v500h230z" />
    <glyph glyph-name="IJ" unicode="&#x132;" horiz-adv-x="986" 
d="M283 660v-660h-233v660h233zM951 660v-388q0 -134 -80 -208t-231 -74q-111 0 -177.5 39t-91 107t-11.5 154l231 39q-13 -94 3.5 -129t57.5 -35q34 0 50 29t16 95v371h233z" />
    <glyph glyph-name="ij" unicode="&#x133;" horiz-adv-x="616" 
d="M154 532q-68 0 -96.5 22t-28.5 74q0 53 28.5 74.5t96.5 21.5t96.5 -21.5t28.5 -74.5q0 -52 -28.5 -74t-96.5 -22zM269 500v-500h-230v500h230zM462 532q-68 0 -96.5 22t-28.5 74q0 53 28.5 74.5t96.5 21.5t96.5 -21.5t28.5 -74.5q0 -52 -28.5 -74t-96.5 -22zM577 500
v-513q0 -71 -23 -115.5t-71.5 -65.5t-126.5 -21q-47 0 -84 7.5t-68 23.5l28 133q10 -5 22.5 -8t29.5 -3q29 0 46 15.5t17 53.5v493h230z" />
    <glyph glyph-name="Jcircumflex" unicode="&#x134;" horiz-adv-x="653" 
d="M618 660v-388q0 -134 -80 -208t-231 -74q-111 0 -177.5 39t-91 107t-11.5 154l231 39q-13 -94 3.5 -129t57.5 -35q34 0 50 29t16 95v371h233zM705 709h-148l-55 82l-55 -82h-148l94 167h218z" />
    <glyph glyph-name="jcircumflex" unicode="&#x135;" horiz-adv-x="308" 
d="M269 500v-513q0 -71 -23 -115.5t-71.5 -65.5t-126.5 -21q-47 0 -84 7.5t-68 23.5l28 133q10 -5 22.5 -8t29.5 -3q29 0 46 15.5t17 53.5v493h230zM367 547h-156l-57 71l-57 -71h-156l106 177h214z" />
    <glyph glyph-name="uni0136" unicode="&#x136;" horiz-adv-x="717" 
d="M703 660l-324 -421l-10 51l-145 -198l-54 161l285 407h248zM283 660v-660h-233v660h233zM467 459l254 -459h-261l-164 330zM475 -50l-75 -193h-142l24 193h193z" />
    <glyph glyph-name="uni0137" unicode="&#x137;" horiz-adv-x="658" 
d="M662 500l-256 -282l-40 -3l-129 -157l-3 223l181 219h247zM269 700v-700h-230v700h230zM445 366l228 -366h-250l-118 230zM456 -50l-75 -193h-142l24 193h193z" />
    <glyph glyph-name="kgreenlandic" unicode="&#x138;" horiz-adv-x="658" 
d="M662 500l-256 -282l-40 -3l-129 -157l-3 223l181 219h247zM269 500v-500h-230v500h230zM445 366l228 -366h-250l-118 230z" />
    <glyph glyph-name="Lacute" unicode="&#x139;" horiz-adv-x="605" 
d="M283 171h299v-171h-532v660h233v-489zM133 876h196l-91 -167h-163z" />
    <glyph glyph-name="lacute" unicode="&#x13a;" horiz-adv-x="341" 
d="M269 700v-501q0 -30 9 -44t32 -14q11 0 19.5 1.5t16.5 3.5l-10 -124q-19 -14 -54.5 -23t-69.5 -9q-93 0 -133 40t-40 134v536h230zM49 746l58 167h196l-91 -167h-163z" />
    <glyph glyph-name="uni013B" unicode="&#x13b;" horiz-adv-x="605" 
d="M283 171h299v-171h-532v660h233v-489zM437 -50l-75 -193h-142l24 193h193z" />
    <glyph glyph-name="uni013C" unicode="&#x13c;" horiz-adv-x="341" 
d="M269 700v-501q0 -30 9 -44t32 -14q11 0 19.5 1.5t16.5 3.5l-10 -124q-19 -14 -54.5 -23t-69.5 -9q-93 0 -133 40t-40 134v536h230zM311 -50l-75 -193h-142l24 193h193z" />
    <glyph glyph-name="Lcaron" unicode="&#x13d;" horiz-adv-x="605" 
d="M619 660l-73 -267h-151l26 267h198zM283 171h299v-171h-532v660h233v-489z" />
    <glyph glyph-name="lcaron" unicode="&#x13e;" horiz-adv-x="441" 
d="M482 700l-61 -267h-126l22 267h165zM269 700v-501q0 -30 9 -44t32 -14q11 0 19.5 1.5t16.5 3.5l-10 -124q-19 -14 -54.5 -23t-69.5 -9q-93 0 -133 40t-40 134v536h230z" />
    <glyph glyph-name="Ldot" unicode="&#x13f;" horiz-adv-x="661" 
d="M283 171h299v-171h-532v660h233v-489zM500 498q59 0 91 -28t32 -79t-32 -79t-91 -28q-58 0 -90.5 28t-32.5 79t32.5 79t90.5 28z" />
    <glyph glyph-name="ldot" unicode="&#x140;" horiz-adv-x="557" 
d="M269 700v-501q0 -30 9 -44t32 -14q11 0 19.5 1.5t16.5 3.5l-10 -124q-19 -14 -54.5 -23t-69.5 -9q-93 0 -133 40t-40 134v536h230zM434 459q59 0 91 -28t32 -79t-32 -79t-91 -28q-58 0 -90.5 28t-32.5 79t32.5 79t90.5 28z" />
    <glyph glyph-name="Lslash" unicode="&#x141;" horiz-adv-x="695" 
d="M539 525v-153l-513 -226v153zM373 171h299v-171h-532v660h233v-489z" />
    <glyph glyph-name="lslash" unicode="&#x142;" horiz-adv-x="431" 
d="M414 515v-143l-128 -77l-95 -39l-181 -102v143l145 80l92 31zM320 700v-501q0 -30 9 -44t32 -14q11 0 19.5 1.5t16.5 3.5l-10 -124q-19 -14 -54.5 -23t-69.5 -9q-93 0 -133 40t-40 134v536h230z" />
    <glyph glyph-name="Nacute" unicode="&#x143;" horiz-adv-x="746" 
d="M696 660v-660h-252l-158 300l-36 81h-2l4 -136v-245h-202v660h252l158 -301l36 -80h2l-4 136v245h202zM340 876h196l-91 -167h-163z" />
    <glyph glyph-name="nacute" unicode="&#x144;" horiz-adv-x="620" 
d="M39 0v500h207l10 -212l-23 25q7 62 31 106t64.5 67.5t96.5 23.5q50 0 85 -19.5t53.5 -57t18.5 -91.5v-342h-230v285q0 32 -9 43.5t-27 11.5q-16 0 -26.5 -7.5t-15.5 -24.5t-5 -44v-264h-230zM274 730h205l-103 -177h-162z" />
    <glyph glyph-name="uni0145" unicode="&#x145;" horiz-adv-x="746" 
d="M696 660v-660h-252l-158 300l-36 81h-2l4 -136v-245h-202v660h252l158 -301l36 -80h2l-4 136v245h202zM493 -50l-75 -193h-142l24 193h193z" />
    <glyph glyph-name="uni0146" unicode="&#x146;" horiz-adv-x="620" 
d="M39 0v500h207l10 -212l-23 25q7 62 31 106t64.5 67.5t96.5 23.5q50 0 85 -19.5t53.5 -57t18.5 -91.5v-342h-230v285q0 32 -9 43.5t-27 11.5q-16 0 -26.5 -7.5t-15.5 -24.5t-5 -44v-264h-230zM422 -50l-75 -193h-142l24 193h193z" />
    <glyph glyph-name="Ncaron" unicode="&#x147;" horiz-adv-x="746" 
d="M696 660v-660h-252l-158 300l-36 81h-2l4 -136v-245h-202v660h252l158 -301l36 -80h2l-4 136v245h202zM576 876l-94 -167h-218l-94 167h148l55 -82l55 82h148z" />
    <glyph glyph-name="ncaron" unicode="&#x148;" horiz-adv-x="620" 
d="M39 0v500h207l10 -212l-23 25q7 62 31 106t64.5 67.5t96.5 23.5q50 0 85 -19.5t53.5 -57t18.5 -91.5v-342h-230v285q0 32 -9 43.5t-27 11.5q-16 0 -26.5 -7.5t-15.5 -24.5t-5 -44v-264h-230zM516 730l-106 -177h-214l-106 177h156l57 -71l57 71h156z" />
    <glyph glyph-name="Eng" unicode="&#x14a;" horiz-adv-x="746" 
d="M498 -215q-44 0 -77 5t-62 18l24 147q11 -6 25.5 -10t34.5 -4q25 0 38 15t13 51v0l-204 305l-40 69h-2l4 -136v-245h-202v660h252l142 -232l49 -91h1v323h202v-673q0 -71 -21.5 -115.5t-65 -65.5t-111.5 -21z" />
    <glyph glyph-name="eng" unicode="&#x14b;" horiz-adv-x="620" 
d="M582 182v-175q0 -81 -23 -129.5t-70 -70.5t-120 -22q-55 0 -92 7.5t-68 23.5l28 133q10 -5 22.5 -8t29.5 -3q29 0 46 15.5t17 53.5v175h230zM39 0v500h207l10 -212l-23 25q7 62 31 106t64.5 67.5t96.5 23.5q50 0 85 -19.5t53.5 -57t18.5 -91.5v-342h-230v285
q0 32 -9 43.5t-27 11.5q-16 0 -26.5 -7.5t-15.5 -24.5t-5 -44v-264h-230z" />
    <glyph glyph-name="Omacron" unicode="&#x14c;" horiz-adv-x="729" 
d="M365 670q105 0 180 -40t115 -116t40 -184t-40 -184t-115 -116t-180 -40q-104 0 -179.5 40t-116 116t-40.5 184t40.5 184t116 116t179.5 40zM365 495q-34 0 -55.5 -17.5t-32 -53.5t-10.5 -94q0 -57 10.5 -93.5t32 -54t55.5 -17.5t55.5 17.5t31.5 54t10 93.5q0 58 -10 94
t-31.5 53.5t-55.5 17.5zM559 841v-130h-388v130h388z" />
    <glyph glyph-name="omacron" unicode="&#x14d;" horiz-adv-x="598" 
d="M299 510q84 0 146.5 -30.5t97.5 -88.5t35 -141q0 -82 -35 -140.5t-97.5 -89t-146.5 -30.5q-83 0 -146 30.5t-98 89t-35 140.5q0 83 35 141t98 88.5t146 30.5zM299 355q-15 0 -26 -8.5t-16.5 -31.5t-5.5 -65t5.5 -64.5t16.5 -31.5t26 -9q16 0 26.5 9t16 31.5t5.5 64.5
t-5.5 65t-16 31.5t-26.5 8.5zM493 681v-130h-388v130h388z" />
    <glyph glyph-name="Obreve" unicode="&#x14e;" horiz-adv-x="729" 
d="M365 670q105 0 180 -40t115 -116t40 -184t-40 -184t-115 -116t-180 -40q-104 0 -179.5 40t-116 116t-40.5 184t40.5 184t116 116t179.5 40zM365 495q-34 0 -55.5 -17.5t-32 -53.5t-10.5 -94q0 -57 10.5 -93.5t32 -54t55.5 -17.5t55.5 17.5t31.5 54t10 93.5q0 58 -10 94
t-31.5 53.5t-55.5 17.5zM548 873q0 -82 -48.5 -127.5t-134.5 -45.5q-85 0 -134 45.5t-49 127.5h139q0 -27 11 -41t33 -14q23 0 33.5 14t10.5 41h139z" />
    <glyph glyph-name="obreve" unicode="&#x14f;" horiz-adv-x="598" 
d="M299 510q84 0 146.5 -30.5t97.5 -88.5t35 -141q0 -82 -35 -140.5t-97.5 -89t-146.5 -30.5q-83 0 -146 30.5t-98 89t-35 140.5q0 83 35 141t98 88.5t146 30.5zM299 355q-15 0 -26 -8.5t-16.5 -31.5t-5.5 -65t5.5 -64.5t16.5 -31.5t26 -9q16 0 26.5 9t16 31.5t5.5 64.5
t-5.5 65t-16 31.5t-26.5 8.5zM482 713q0 -82 -48.5 -127.5t-134.5 -45.5q-85 0 -134 45.5t-49 127.5h139q0 -27 11 -41t33 -14q23 0 33.5 14t10.5 41h139z" />
    <glyph glyph-name="Ohungarumlaut" unicode="&#x150;" horiz-adv-x="729" 
d="M365 670q105 0 180 -40t115 -116t40 -184t-40 -184t-115 -116t-180 -40q-104 0 -179.5 40t-116 116t-40.5 184t40.5 184t116 116t179.5 40zM365 495q-34 0 -55.5 -17.5t-32 -53.5t-10.5 -94q0 -57 10.5 -93.5t32 -54t55.5 -17.5t55.5 17.5t31.5 54t10 93.5q0 58 -10 94
t-31.5 53.5t-55.5 17.5zM460 876h196l-91 -167h-163zM205 876h196l-91 -167h-163z" />
    <glyph glyph-name="ohungarumlaut" unicode="&#x151;" horiz-adv-x="598" 
d="M299 510q84 0 146.5 -30.5t97.5 -88.5t35 -141q0 -82 -35 -140.5t-97.5 -89t-146.5 -30.5q-83 0 -146 30.5t-98 89t-35 140.5q0 83 35 141t98 88.5t146 30.5zM299 355q-15 0 -26 -8.5t-16.5 -31.5t-5.5 -65t5.5 -64.5t16.5 -31.5t26 -9q16 0 26.5 9t16 31.5t5.5 64.5
t-5.5 65t-16 31.5t-26.5 8.5zM332 553l65 177h181l-93 -177h-153zM96 553l65 177h181l-93 -177h-153z" />
    <glyph glyph-name="OE" unicode="&#x152;" horiz-adv-x="1027" 
d="M685 171h326v-171h-469v66q-36 -35 -85.5 -55.5t-114.5 -20.5q-95 0 -165.5 40t-109 116t-38.5 184t38.5 184t109 116t165.5 40q65 0 114.5 -20.5t85.5 -55.5v66h457v-171h-314v-82h253v-158h-253v-78zM355 165q34 0 55.5 17.5t31.5 54t10 93.5q0 58 -10 94t-31.5 53.5
t-55.5 17.5q-32 0 -52.5 -17.5t-30.5 -53.5t-10 -94q0 -57 10 -93.5t30.5 -54t52.5 -17.5z" />
    <glyph glyph-name="oe" unicode="&#x153;" horiz-adv-x="917" 
d="M285 -10q-72 0 -132.5 30.5t-96.5 89t-36 140.5q0 83 36 141t96.5 88.5t132.5 30.5q80 0 135 -31.5t82 -91.5l-70 -1q27 60 80 92t132 32q78 0 135.5 -30.5t89 -85.5t31.5 -128q0 -16 -1.5 -33t-3.5 -27h-390v85h180q-3 33 -14 50t-36 17q-21 0 -34.5 -10t-19.5 -34.5
t-6 -67.5t8 -65.5t23.5 -30t39.5 -7.5q26 0 40.5 11.5t19.5 31.5l185 -50q-11 -49 -48 -81.5t-89 -48.5t-108 -16q-80 0 -133.5 31.5t-79.5 89.5l69 -1q-27 -58 -82 -89t-135 -31zM299 145q16 0 26.5 9t16 31.5t5.5 64.5t-5.5 65t-16 31.5t-26.5 8.5q-15 0 -26 -8.5
t-16.5 -31.5t-5.5 -65t5.5 -64.5t16.5 -31.5t26 -9z" />
    <glyph glyph-name="Racute" unicode="&#x154;" horiz-adv-x="705" 
d="M408 660q129 0 198 -57.5t69 -152.5q0 -109 -67.5 -164t-196.5 -55l-23 -12h-110v-219h-228v660h358zM368 372q37 0 55.5 13.5t18.5 47.5q0 33 -18.5 47t-55.5 14h-90v-122h90zM506 323l206 -323h-253l-154 289zM301 876h196l-91 -167h-163z" />
    <glyph glyph-name="racute" unicode="&#x155;" horiz-adv-x="444" 
d="M39 0v500h207l5 -125q17 62 52.5 98.5t94.5 36.5q23 0 35 -4t17 -8l-19 -185q-9 4 -26 7t-37 3q-30 0 -52 -9.5t-34.5 -27.5t-12.5 -46v-240h-230zM212 730h205l-103 -177h-162z" />
    <glyph glyph-name="uni0156" unicode="&#x156;" horiz-adv-x="705" 
d="M408 660q129 0 198 -57.5t69 -152.5q0 -109 -67.5 -164t-196.5 -55l-23 -12h-110v-219h-228v660h358zM368 372q37 0 55.5 13.5t18.5 47.5q0 33 -18.5 47t-55.5 14h-90v-122h90zM506 323l206 -323h-253l-154 289zM481 -50l-75 -193h-142l24 193h193z" />
    <glyph glyph-name="uni0157" unicode="&#x157;" horiz-adv-x="444" 
d="M39 0v500h207l5 -125q17 62 52.5 98.5t94.5 36.5q23 0 35 -4t17 -8l-19 -185q-9 4 -26 7t-37 3q-30 0 -52 -9.5t-34.5 -27.5t-12.5 -46v-240h-230zM273 -50l-75 -193h-142l24 193h193z" />
    <glyph glyph-name="Rcaron" unicode="&#x158;" horiz-adv-x="705" 
d="M408 660q129 0 198 -57.5t69 -152.5q0 -109 -67.5 -164t-196.5 -55l-23 -12h-110v-219h-228v660h358zM368 372q37 0 55.5 13.5t18.5 47.5q0 33 -18.5 47t-55.5 14h-90v-122h90zM506 323l206 -323h-253l-154 289zM537 876l-94 -167h-218l-94 167h148l55 -82l55 82h148z
" />
    <glyph glyph-name="rcaron" unicode="&#x159;" horiz-adv-x="444" 
d="M39 0v500h207l5 -125q17 62 52.5 98.5t94.5 36.5q23 0 35 -4t17 -8l-19 -185q-9 4 -26 7t-37 3q-30 0 -52 -9.5t-34.5 -27.5t-12.5 -46v-240h-230zM454 730l-106 -177h-214l-106 177h156l57 -71l57 71h156z" />
    <glyph glyph-name="Sacute" unicode="&#x15a;" horiz-adv-x="648" 
d="M339 670q95 0 170.5 -23.5t133.5 -70.5l-94 -150q-47 33 -98.5 53t-111.5 20q-26 0 -41.5 -4t-22 -11t-6.5 -16q0 -12 18.5 -18t46.5 -13l91 -21q101 -23 152.5 -68t51.5 -125t-39 -131.5t-105.5 -76.5t-150.5 -25q-63 0 -126 11.5t-117 34t-93 54.5l92 153
q29 -23 70 -41.5t85 -29.5t82 -11q24 0 38 4t19.5 10.5t5.5 15.5q0 14 -11.5 21t-41.5 14l-100 22q-53 12 -101 32t-78 58.5t-30 104.5q0 68 36.5 119t106 79.5t168.5 28.5zM298 876h196l-91 -167h-163z" />
    <glyph glyph-name="sacute" unicode="&#x15b;" horiz-adv-x="538" 
d="M269 -10q-73 0 -140.5 20t-117.5 60l82 119q27 -24 71 -42.5t88 -18.5q17 0 30.5 4t13.5 14q0 8 -7.5 12t-32.5 8l-36 7q-109 21 -154 60t-45 105q0 41 26.5 80.5t84.5 65.5t153 26q78 0 140 -19.5t101 -53.5l-79 -114q-28 22 -71.5 35.5t-79.5 13.5q-16 0 -26 -2
t-14.5 -5.5t-4.5 -8.5q0 -7 10 -13t39 -11l71 -12q81 -13 118.5 -52t37.5 -96q0 -49 -26.5 -90.5t-83 -66.5t-148.5 -25zM245 730h205l-103 -177h-162z" />
    <glyph glyph-name="Scircumflex" unicode="&#x15c;" horiz-adv-x="648" 
d="M339 670q95 0 170.5 -23.5t133.5 -70.5l-94 -150q-47 33 -98.5 53t-111.5 20q-26 0 -41.5 -4t-22 -11t-6.5 -16q0 -12 18.5 -18t46.5 -13l91 -21q101 -23 152.5 -68t51.5 -125t-39 -131.5t-105.5 -76.5t-150.5 -25q-63 0 -126 11.5t-117 34t-93 54.5l92 153
q29 -23 70 -41.5t85 -29.5t82 -11q24 0 38 4t19.5 10.5t5.5 15.5q0 14 -11.5 21t-41.5 14l-100 22q-53 12 -101 32t-78 58.5t-30 104.5q0 68 36.5 119t106 79.5t168.5 28.5zM534 709h-148l-55 82l-55 -82h-148l94 167h218z" />
    <glyph glyph-name="scircumflex" unicode="&#x15d;" horiz-adv-x="538" 
d="M269 -10q-73 0 -140.5 20t-117.5 60l82 119q27 -24 71 -42.5t88 -18.5q17 0 30.5 4t13.5 14q0 8 -7.5 12t-32.5 8l-36 7q-109 21 -154 60t-45 105q0 41 26.5 80.5t84.5 65.5t153 26q78 0 140 -19.5t101 -53.5l-79 -114q-28 22 -71.5 35.5t-79.5 13.5q-16 0 -26 -2
t-14.5 -5.5t-4.5 -8.5q0 -7 10 -13t39 -11l71 -12q81 -13 118.5 -52t37.5 -96q0 -49 -26.5 -90.5t-83 -66.5t-148.5 -25zM493 547h-156l-57 71l-57 -71h-156l106 177h214z" />
    <glyph glyph-name="Scedilla" unicode="&#x15e;" horiz-adv-x="648" 
d="M339 670q95 0 170.5 -23.5t133.5 -70.5l-94 -150q-47 33 -98.5 53t-111.5 20q-26 0 -41.5 -4t-22 -11t-6.5 -16q0 -12 18.5 -18t46.5 -13l91 -21q101 -23 152.5 -68t51.5 -125t-39 -131.5t-105.5 -76.5t-150.5 -25q-63 0 -126 11.5t-117 34t-93 54.5l92 153
q29 -23 70 -41.5t85 -29.5t82 -11q24 0 38 4t19.5 10.5t5.5 15.5q0 14 -11.5 21t-41.5 14l-100 22q-53 12 -101 32t-78 58.5t-30 104.5q0 68 36.5 119t106 79.5t168.5 28.5zM242 14l40 28q92 -6 137 -36.5t45 -89.5q0 -62 -40 -96.5t-114 -34.5q-43 0 -66 9t-41 20l33 97
q11 -7 24 -11t32 -4q24 0 38.5 13t14.5 35q0 21 -22 38t-81 32z" />
    <glyph glyph-name="scedilla" unicode="&#x15f;" horiz-adv-x="538" 
d="M269 -10q-73 0 -140.5 20t-117.5 60l82 119q27 -24 71 -42.5t88 -18.5q17 0 30.5 4t13.5 14q0 8 -7.5 12t-32.5 8l-36 7q-109 21 -154 60t-45 105q0 41 26.5 80.5t84.5 65.5t153 26q78 0 140 -19.5t101 -53.5l-79 -114q-28 22 -71.5 35.5t-79.5 13.5q-16 0 -26 -2
t-14.5 -5.5t-4.5 -8.5q0 -7 10 -13t39 -11l71 -12q81 -13 118.5 -52t37.5 -96q0 -49 -26.5 -90.5t-83 -66.5t-148.5 -25zM184 14l40 28q92 -6 137 -36.5t45 -89.5q0 -62 -40 -96.5t-114 -34.5q-43 0 -66 9t-41 20l33 97q11 -7 24 -11t32 -4q24 0 38.5 13t14.5 35
q0 21 -22 38t-81 32z" />
    <glyph glyph-name="Scaron" unicode="&#x160;" horiz-adv-x="648" 
d="M339 670q95 0 170.5 -23.5t133.5 -70.5l-94 -150q-47 33 -98.5 53t-111.5 20q-26 0 -41.5 -4t-22 -11t-6.5 -16q0 -12 18.5 -18t46.5 -13l91 -21q101 -23 152.5 -68t51.5 -125t-39 -131.5t-105.5 -76.5t-150.5 -25q-63 0 -126 11.5t-117 34t-93 54.5l92 153
q29 -23 70 -41.5t85 -29.5t82 -11q24 0 38 4t19.5 10.5t5.5 15.5q0 14 -11.5 21t-41.5 14l-100 22q-53 12 -101 32t-78 58.5t-30 104.5q0 68 36.5 119t106 79.5t168.5 28.5zM534 876l-94 -167h-218l-94 167h148l55 -82l55 82h148z" />
    <glyph glyph-name="scaron" unicode="&#x161;" horiz-adv-x="538" 
d="M269 -10q-73 0 -140.5 20t-117.5 60l82 119q27 -24 71 -42.5t88 -18.5q17 0 30.5 4t13.5 14q0 8 -7.5 12t-32.5 8l-36 7q-109 21 -154 60t-45 105q0 41 26.5 80.5t84.5 65.5t153 26q78 0 140 -19.5t101 -53.5l-79 -114q-28 22 -71.5 35.5t-79.5 13.5q-16 0 -26 -2
t-14.5 -5.5t-4.5 -8.5q0 -7 10 -13t39 -11l71 -12q81 -13 118.5 -52t37.5 -96q0 -49 -26.5 -90.5t-83 -66.5t-148.5 -25zM487 730l-106 -177h-214l-106 177h156l57 -71l57 71h156z" />
    <glyph glyph-name="uni0162" unicode="&#x162;" horiz-adv-x="686" 
d="M255 14l40 28q92 -6 137 -36.5t45 -89.5q0 -62 -40 -96.5t-114 -34.5q-43 0 -66 9t-41 20l33 97q11 -7 24 -11t32 -4q24 0 38.5 13t14.5 35q0 21 -22 38t-81 32zM666 660v-171h-206v-489h-233v489h-207v171h646z" />
    <glyph glyph-name="uni0163" unicode="&#x163;" horiz-adv-x="449" 
d="M310 670v-466q0 -34 14.5 -48.5t45.5 -14.5q20 0 35 3t28 10l10 -130q-25 -16 -68 -25t-81 -9q-70 0 -117.5 17.5t-72 56.5t-24.5 104v438zM436 500v-155h-433v155h433zM165 14l40 28q92 -6 137 -36.5t45 -89.5q0 -62 -40 -96.5t-114 -34.5q-43 0 -66 9t-41 20l33 97
q11 -7 24 -11t32 -4q24 0 38.5 13t14.5 35q0 21 -22 38t-81 32z" />
    <glyph glyph-name="Tcaron" unicode="&#x164;" horiz-adv-x="686" 
d="M666 660v-171h-206v-489h-233v489h-207v171h646zM546 876l-94 -167h-218l-94 167h148l55 -82l55 82h148z" />
    <glyph glyph-name="tcaron" unicode="&#x165;" horiz-adv-x="449" 
d="M534 767l-61 -227h-126l22 227h165zM310 670v-466q0 -34 14.5 -48.5t45.5 -14.5q20 0 35 3t28 10l10 -130q-25 -16 -68 -25t-81 -9q-70 0 -117.5 17.5t-72 56.5t-24.5 104v438zM436 500v-155h-433v155h433z" />
    <glyph glyph-name="Tbar" unicode="&#x166;" horiz-adv-x="686" 
d="M666 660v-171h-206v-489h-233v489h-207v171h646zM602 374v-171h-518v171h518z" />
    <glyph glyph-name="tbar" unicode="&#x167;" horiz-adv-x="451" 
d="M436 310v-121h-433v121h433zM312 670v-466q0 -34 14.5 -48.5t45.5 -14.5q20 0 35 3t28 10l10 -130q-25 -16 -68 -25t-81 -9q-70 0 -117.5 17.5t-72 56.5t-24.5 104v438zM438 500v-155h-433v155h433z" />
    <glyph glyph-name="Utilde" unicode="&#x168;" horiz-adv-x="712" 
d="M675 660v-376q0 -148 -79.5 -221t-239.5 -73t-239.5 73t-79.5 221v376h234v-394q0 -50 22 -75.5t63 -25.5q42 0 64 25.5t22 75.5v394h233zM566 879q-1 -60 -20 -99t-48.5 -58t-62.5 -19q-28 0 -48.5 7.5t-36.5 17.5t-29 17.5t-26 7.5q-14 0 -21.5 -11t-9.5 -37h-118
q2 90 43 133t99 43q27 0 46 -7.5t32.5 -17.5t25.5 -17.5t26 -7.5t21 11.5t9 36.5h118z" />
    <glyph glyph-name="utilde" unicode="&#x169;" horiz-adv-x="620" 
d="M200 -10q-52 0 -88 17.5t-55 55.5t-19 99v338h230v-285q0 -29 9.5 -42t28.5 -13q11 0 19.5 4.5t14 13.5t8.5 23.5t3 33.5v265h230v-500h-207l-5 106q-22 -58 -64.5 -87t-104.5 -29zM514 719q-1 -60 -20 -99t-48.5 -58t-62.5 -19q-28 0 -48.5 7.5t-36.5 17.5t-29 17.5
t-26 7.5q-14 0 -21.5 -11t-9.5 -37h-118q2 90 43 133t99 43q27 0 46 -7.5t32.5 -17.5t25.5 -17.5t26 -7.5t21 11.5t9 36.5h118z" />
    <glyph glyph-name="Umacron" unicode="&#x16a;" horiz-adv-x="712" 
d="M675 660v-376q0 -148 -79.5 -221t-239.5 -73t-239.5 73t-79.5 221v376h234v-394q0 -50 22 -75.5t63 -25.5q42 0 64 25.5t22 75.5v394h233zM550 841v-130h-388v130h388z" />
    <glyph glyph-name="umacron" unicode="&#x16b;" horiz-adv-x="620" 
d="M200 -10q-52 0 -88 17.5t-55 55.5t-19 99v338h230v-285q0 -29 9.5 -42t28.5 -13q11 0 19.5 4.5t14 13.5t8.5 23.5t3 33.5v265h230v-500h-207l-5 106q-22 -58 -64.5 -87t-104.5 -29zM498 681v-130h-388v130h388z" />
    <glyph glyph-name="Ubreve" unicode="&#x16c;" horiz-adv-x="712" 
d="M675 660v-376q0 -148 -79.5 -221t-239.5 -73t-239.5 73t-79.5 221v376h234v-394q0 -50 22 -75.5t63 -25.5q42 0 64 25.5t22 75.5v394h233zM539 873q0 -82 -48.5 -127.5t-134.5 -45.5q-85 0 -134 45.5t-49 127.5h139q0 -27 11 -41t33 -14q23 0 33.5 14t10.5 41h139z" />
    <glyph glyph-name="ubreve" unicode="&#x16d;" horiz-adv-x="620" 
d="M200 -10q-52 0 -88 17.5t-55 55.5t-19 99v338h230v-285q0 -29 9.5 -42t28.5 -13q11 0 19.5 4.5t14 13.5t8.5 23.5t3 33.5v265h230v-500h-207l-5 106q-22 -58 -64.5 -87t-104.5 -29zM487 713q0 -82 -48.5 -127.5t-134.5 -45.5q-85 0 -134 45.5t-49 127.5h139q0 -27 11 -41
t33 -14q23 0 33.5 14t10.5 41h139z" />
    <glyph glyph-name="Uring" unicode="&#x16e;" horiz-adv-x="712" 
d="M675 660v-376q0 -148 -79.5 -221t-239.5 -73t-239.5 73t-79.5 221v376h234v-394q0 -50 22 -75.5t63 -25.5q42 0 64 25.5t22 75.5v394h233zM356 949q68 0 108.5 -35.5t40.5 -95.5t-40.5 -95t-108.5 -35t-108.5 35t-40.5 95t40.5 95.5t108.5 35.5zM357 860q-20 0 -31.5 -11
t-11.5 -30q0 -20 11.5 -31t31.5 -11q19 0 30 11t11 31q0 19 -11 30t-30 11z" />
    <glyph glyph-name="uring" unicode="&#x16f;" horiz-adv-x="620" 
d="M200 -10q-52 0 -88 17.5t-55 55.5t-19 99v338h230v-285q0 -29 9.5 -42t28.5 -13q11 0 19.5 4.5t14 13.5t8.5 23.5t3 33.5v265h230v-500h-207l-5 106q-22 -58 -64.5 -87t-104.5 -29zM304 796q68 0 108.5 -35.5t40.5 -95.5t-40.5 -95t-108.5 -35t-108.5 35t-40.5 95
t40.5 95.5t108.5 35.5zM305 707q-20 0 -31.5 -11t-11.5 -30q0 -20 11.5 -31t31.5 -11q19 0 30 11t11 31q0 19 -11 30t-30 11z" />
    <glyph glyph-name="Uhungarumlaut" unicode="&#x170;" horiz-adv-x="712" 
d="M675 660v-376q0 -148 -79.5 -221t-239.5 -73t-239.5 73t-79.5 221v376h234v-394q0 -50 22 -75.5t63 -25.5q42 0 64 25.5t22 75.5v394h233zM451 876h196l-91 -167h-163zM196 876h196l-91 -167h-163z" />
    <glyph glyph-name="uhungarumlaut" unicode="&#x171;" horiz-adv-x="620" 
d="M200 -10q-52 0 -88 17.5t-55 55.5t-19 99v338h230v-285q0 -29 9.5 -42t28.5 -13q11 0 19.5 4.5t14 13.5t8.5 23.5t3 33.5v265h230v-500h-207l-5 106q-22 -58 -64.5 -87t-104.5 -29zM337 553l65 177h181l-93 -177h-153zM101 553l65 177h181l-93 -177h-153z" />
    <glyph glyph-name="Uogonek" unicode="&#x172;" horiz-adv-x="712" 
d="M675 660v-376q0 -148 -79.5 -221t-239.5 -73t-239.5 73t-79.5 221v376h234v-394q0 -50 22 -75.5t63 -25.5q42 0 64 25.5t22 75.5v394h233zM393 -217q-67 0 -106 31t-39 86q0 60 46 93t118 37l82 -22q-32 -9 -55 -17.5t-35.5 -19.5t-12.5 -29t13 -28t36 -10q11 0 22 2
t18 6l21 -107q-23 -13 -47.5 -17.5t-60.5 -4.5z" />
    <glyph glyph-name="uogonek" unicode="&#x173;" horiz-adv-x="620" 
d="M476 -225q-41 0 -79 12t-61.5 40.5t-23.5 77.5q0 52 25.5 83t68 46t93.5 18l82 -52q-48 -13 -75.5 -26.5t-27.5 -39.5q0 -18 13 -28t36 -10q11 0 22 2t18 6l27 -103q-24 -15 -52 -20.5t-66 -5.5zM200 -10q-52 0 -88 17.5t-55 55.5t-19 99v338h230v-285q0 -29 9.5 -42
t28.5 -13q11 0 19.5 4.5t14 13.5t8.5 23.5t3 33.5v265h230v-500h-207l-5 106q-22 -58 -64.5 -87t-104.5 -29z" />
    <glyph glyph-name="Wcircumflex" unicode="&#x174;" horiz-adv-x="1021" 
d="M179 0l-187 660h251l77 -477l93 477h200l98 -474l75 474h242l-188 -660h-247l-52 248l-26 169h-3l-26 -169l-51 -248h-256zM713 709h-148l-55 82l-55 -82h-148l94 167h218z" />
    <glyph glyph-name="wcircumflex" unicode="&#x175;" horiz-adv-x="942" 
d="M713 500h238l-136 -500h-286l-58 246l-58 -246h-286l-136 500h238l57 -343l72 343h226l72 -343zM684 547h-156l-57 71l-57 -71h-156l106 177h214z" />
    <glyph glyph-name="Ycircumflex" unicode="&#x176;" horiz-adv-x="713" 
d="M704 660l-231 -431v-229h-233v229l-231 431h232l70 -151l47 -120l47 120l70 151h229zM559 709h-148l-55 82l-55 -82h-148l94 167h218z" />
    <glyph glyph-name="ycircumflex" unicode="&#x177;" horiz-adv-x="594" 
d="M604 500l-147 -444q-33 -99 -73.5 -158.5t-97 -86t-137.5 -26.5q-48 0 -87 9t-67 24l42 145q16 -9 34.5 -13t54.5 -4q32 0 47.5 6t21.5 21l3 8l-63 147l-143 372h251l45 -258l19 -117l22 118l50 257h225zM536 547h-156l-57 71l-57 -71h-156l106 177h214z" />
    <glyph glyph-name="Ydieresis" unicode="&#x178;" horiz-adv-x="713" 
d="M704 660l-231 -431v-229h-233v229l-231 431h232l70 -151l47 -120l47 120l70 151h229zM236 880q50 0 77.5 -23.5t27.5 -67.5q0 -43 -27.5 -67t-77.5 -24q-49 0 -75.5 24t-26.5 67q0 44 26.5 67.5t75.5 23.5zM473 880q50 0 77.5 -23.5t27.5 -67.5q0 -43 -27.5 -67
t-77.5 -24q-49 0 -75.5 24t-26.5 67q0 44 26.5 67.5t75.5 23.5z" />
    <glyph glyph-name="Zacute" unicode="&#x179;" horiz-adv-x="637" 
d="M201 89l-41 77h462v-166h-597v159l412 412l40 -77h-448v166h582v-159zM296 876h196l-91 -167h-163z" />
    <glyph glyph-name="zacute" unicode="&#x17a;" horiz-adv-x="504" 
d="M21 0v132l156 172l47 46l-73 -2h-130v152h457v-132l-153 -170l-49 -48l82 2h130v-152h-467zM216 730h205l-103 -177h-162z" />
    <glyph glyph-name="Zdotaccent" unicode="&#x17b;" horiz-adv-x="637" 
d="M201 89l-41 77h462v-166h-597v159l412 412l40 -77h-448v166h582v-159zM329 886q58 0 86.5 -23.5t28.5 -70.5t-28.5 -70.5t-86.5 -23.5q-56 0 -84 23.5t-28 70.5t28 70.5t84 23.5z" />
    <glyph glyph-name="zdotaccent" unicode="&#x17c;" horiz-adv-x="504" 
d="M21 0v132l156 172l47 46l-73 -2h-130v152h457v-132l-153 -170l-49 -48l82 2h130v-152h-467zM251 726q58 0 86.5 -23.5t28.5 -70.5t-28.5 -70.5t-86.5 -23.5q-56 0 -84 23.5t-28 70.5t28 70.5t84 23.5z" />
    <glyph glyph-name="Zcaron" unicode="&#x17d;" horiz-adv-x="637" 
d="M201 89l-41 77h462v-166h-597v159l412 412l40 -77h-448v166h582v-159zM532 876l-94 -167h-218l-94 167h148l55 -82l55 82h148z" />
    <glyph glyph-name="zcaron" unicode="&#x17e;" horiz-adv-x="504" 
d="M21 0v132l156 172l47 46l-73 -2h-130v152h457v-132l-153 -170l-49 -48l82 2h130v-152h-467zM458 730l-106 -177h-214l-106 177h156l57 -71l57 71h156z" />
    <glyph glyph-name="longs" unicode="&#x17f;" horiz-adv-x="369" 
d="M39 0v520q0 76 33 119.5t85.5 62t109.5 18.5q38 0 64 -6t46 -20l-6 -134q-9 6 -18 8t-23 2q-29 0 -49 -15t-20 -50v-505h-222z" />
    <glyph glyph-name="uni018F" unicode="&#x18f;" horiz-adv-x="704" 
d="M339 -10q-105 0 -174.5 41.5t-104 112t-34.5 157.5q0 14 1.5 28.5t2.5 29.5h514v-115h-407l117 71q-1 -9 -1.5 -17.5t-0.5 -16.5q0 -42 11.5 -67.5t32.5 -37t49 -11.5q36 0 57.5 19.5t30.5 59.5t9 102q0 51 -11 84t-33 49t-56 16q-48 0 -69.5 -22t-29.5 -62l-212 39
q19 78 64 126.5t109.5 71t139.5 22.5q105 0 179 -40t113 -116t39 -184t-40.5 -184t-115.5 -116t-180 -40z" />
    <glyph glyph-name="florin" unicode="&#x192;" horiz-adv-x="535" 
d="M433 722q42 0 67.5 -6t50.5 -23l-28 -130q-19 11 -44 11q-34 0 -57 -19t-29 -52l-79 -440q-16 -91 -75 -141t-153 -50q-42 0 -67.5 6.5t-50.5 22.5l28 130q17 -11 44 -11q34 0 57 19t29 51l79 440q17 92 75.5 142t152.5 50zM506 429v-152h-478v152h478z" />
    <glyph glyph-name="Ohorn" unicode="&#x1a0;" horiz-adv-x="729" 
d="M692 764q0 -106 -58.5 -164t-176.5 -58v118q45 0 66.5 24t21.5 80h147zM365 670q105 0 180 -40t115 -116t40 -184t-40 -184t-115 -116t-180 -40q-104 0 -179.5 40t-116 116t-40.5 184t40.5 184t116 116t179.5 40zM365 495q-34 0 -55.5 -17.5t-32 -53.5t-10.5 -94
q0 -57 10.5 -93.5t32 -54t55.5 -17.5t55.5 17.5t31.5 54t10 93.5q0 58 -10 94t-31.5 53.5t-55.5 17.5z" />
    <glyph glyph-name="ohorn" unicode="&#x1a1;" horiz-adv-x="598" 
d="M299 510q84 0 146.5 -30.5t97.5 -88.5t35 -141q0 -82 -35 -140.5t-97.5 -89t-146.5 -30.5q-83 0 -146 30.5t-98 89t-35 140.5q0 83 35 141t98 88.5t146 30.5zM299 355q-15 0 -26 -8.5t-16.5 -31.5t-5.5 -65t5.5 -64.5t16.5 -31.5t26 -9q16 0 26.5 9t16 31.5t5.5 64.5
t-5.5 65t-16 31.5t-26.5 8.5zM387 390v110q23 0 36.5 24t13.5 81h147q0 -112 -52 -163.5t-145 -51.5z" />
    <glyph glyph-name="Uhorn" unicode="&#x1af;" horiz-adv-x="712" 
d="M675 660v-376q0 -148 -79.5 -221t-239.5 -73t-239.5 73t-79.5 221v376h234v-394q0 -50 22 -75.5t63 -25.5q42 0 64 25.5t22 75.5v394h233zM795 764q0 -106 -56 -164t-169 -58v118q40 0 59 24t19 80h147z" />
    <glyph glyph-name="uhorn" unicode="&#x1b0;" horiz-adv-x="641" 
d="M200 -10q-52 0 -88 17.5t-55 55.5t-19 99v338h230v-285q0 -29 9.5 -42t28.5 -13q11 0 19.5 4.5t14 13.5t8.5 23.5t3 33.5v265h230v-500h-207l-5 106q-22 -58 -64.5 -87t-104.5 -29zM497 390v110q23 0 36.5 24t13.5 81h147q0 -112 -52 -163.5t-145 -51.5z" />
    <glyph glyph-name="uni01C4" unicode="&#x1c4;" horiz-adv-x="1353" 
d="M374 660q155 0 234 -86t79 -244q0 -157 -79 -243.5t-234 -86.5h-324v660h324zM341 166q65 0 86.5 39.5t21.5 124.5t-21.5 124.5t-86.5 39.5h-58v-328h58zM917 89l-41 77h462v-166h-597v159l412 412l40 -77h-448v166h582v-159zM1248 876l-94 -167h-218l-94 167h148l55 -82
l55 82h148z" />
    <glyph glyph-name="uni01C5" unicode="&#x1c5;" horiz-adv-x="1220" 
d="M374 660q155 0 234 -86t79 -244q0 -157 -79 -243.5t-234 -86.5h-324v660h324zM341 166q65 0 86.5 39.5t21.5 124.5t-21.5 124.5t-86.5 39.5h-58v-328h58zM737 0v132l156 172l47 46l-73 -2h-130v152h457v-132l-153 -170l-49 -48l82 2h130v-152h-467zM1174 730l-106 -177
h-214l-106 177h156l57 -71l57 71h156z" />
    <glyph glyph-name="uni01C6" unicode="&#x1c6;" horiz-adv-x="1131" 
d="M216 -10q-61 0 -104 30.5t-65 88t-22 138.5q0 84 22.5 142.5t65.5 89.5t104 31q73 0 112 -47.5t49 -119.5l-20 -30v387h230v-700h-207l-14 202l26 -29q-6 -53 -28.5 -94.5t-60 -65t-88.5 -23.5zM309 151q16 0 26.5 10.5t16.5 32.5t6 56q0 32 -5 54t-16 33t-28 11
q-24 0 -38 -19.5t-14 -78.5t14 -79t38 -20zM648 0v132l156 172l47 46l-73 -2h-130v152h457v-132l-153 -170l-49 -48l82 2h130v-152h-467zM1085 730l-106 -177h-214l-106 177h156l57 -71l57 71h156z" />
    <glyph glyph-name="uni01C7" unicode="&#x1c7;" horiz-adv-x="1258" 
d="M283 171h299v-171h-532v660h233v-489zM1223 660v-388q0 -134 -80 -208t-231 -74q-111 0 -177.5 39t-91 107t-11.5 154l231 39q-13 -94 3.5 -129t57.5 -35q34 0 50 29t16 95v371h233z" />
    <glyph glyph-name="uni01C8" unicode="&#x1c8;" horiz-adv-x="913" 
d="M283 171h299v-171h-532v660h233v-489zM759 532q-68 0 -96.5 22t-28.5 74q0 53 28.5 74.5t96.5 21.5t96.5 -21.5t28.5 -74.5q0 -52 -28.5 -74t-96.5 -22zM874 500v-513q0 -71 -23 -115.5t-71.5 -65.5t-126.5 -21q-47 0 -84 7.5t-68 23.5l28 133q10 -5 22.5 -8t29.5 -3
q29 0 46 15.5t17 53.5v493h230z" />
    <glyph glyph-name="uni01C9" unicode="&#x1c9;" horiz-adv-x="649" 
d="M269 700v-501q0 -30 9 -44t32 -14q11 0 19.5 1.5t16.5 3.5l-10 -124q-19 -14 -54.5 -23t-69.5 -9q-93 0 -133 40t-40 134v536h230zM495 532q-68 0 -96.5 22t-28.5 74q0 53 28.5 74.5t96.5 21.5t96.5 -21.5t28.5 -74.5q0 -52 -28.5 -74t-96.5 -22zM610 500v-513
q0 -71 -23 -115.5t-71.5 -65.5t-126.5 -21q-47 0 -84 7.5t-68 23.5l28 133q10 -5 22.5 -8t29.5 -3q29 0 46 15.5t17 53.5v493h230z" />
    <glyph glyph-name="uni01CA" unicode="&#x1ca;" horiz-adv-x="1399" 
d="M696 660v-660h-252l-158 300l-36 81h-2l4 -136v-245h-202v660h252l158 -301l36 -80h2l-4 136v245h202zM1364 660v-388q0 -134 -80 -208t-231 -74q-111 0 -177.5 39t-91 107t-11.5 154l231 39q-13 -94 3.5 -129t57.5 -35q34 0 50 29t16 95v371h233z" />
    <glyph glyph-name="uni01CB" unicode="&#x1cb;" horiz-adv-x="1054" 
d="M696 660v-660h-252l-158 300l-36 81h-2l4 -136v-245h-202v660h252l158 -301l36 -80h2l-4 136v245h202zM900 532q-68 0 -96.5 22t-28.5 74q0 53 28.5 74.5t96.5 21.5t96.5 -21.5t28.5 -74.5q0 -52 -28.5 -74t-96.5 -22zM1015 500v-513q0 -71 -23 -115.5t-71.5 -65.5
t-126.5 -21q-47 0 -84 7.5t-68 23.5l28 133q10 -5 22.5 -8t29.5 -3q29 0 46 15.5t17 53.5v493h230z" />
    <glyph glyph-name="uni01CC" unicode="&#x1cc;" horiz-adv-x="928" 
d="M39 0v500h207l10 -212l-23 25q7 62 31 106t64.5 67.5t96.5 23.5q50 0 85 -19.5t53.5 -57t18.5 -91.5v-342h-230v285q0 32 -9 43.5t-27 11.5q-16 0 -26.5 -7.5t-15.5 -24.5t-5 -44v-264h-230zM774 532q-68 0 -96.5 22t-28.5 74q0 53 28.5 74.5t96.5 21.5t96.5 -21.5
t28.5 -74.5q0 -52 -28.5 -74t-96.5 -22zM889 500v-513q0 -71 -23 -115.5t-71.5 -65.5t-126.5 -21q-47 0 -84 7.5t-68 23.5l28 133q10 -5 22.5 -8t29.5 -3q29 0 46 15.5t17 53.5v493h230z" />
    <glyph glyph-name="Gcaron" unicode="&#x1e6;" horiz-adv-x="722" 
d="M328 -10q-85 0 -153 37.5t-107 113t-39 187.5q0 108 40.5 184.5t117.5 117t184 40.5q122 0 195.5 -43t112.5 -138l-217 -78q-7 47 -30.5 65.5t-58.5 18.5q-38 0 -61.5 -18t-34 -54.5t-10.5 -92.5q0 -62 13.5 -100t41 -54.5t69.5 -16.5q20 0 36.5 4t29 12.5t19 21.5
t6.5 31v1h-111v143h306v-372h-154l-19 177l36 -39q-17 -71 -70.5 -109.5t-141.5 -38.5zM567 876l-94 -167h-218l-94 167h148l55 -82l55 82h148z" />
    <glyph glyph-name="gcaron" unicode="&#x1e7;" horiz-adv-x="578" 
d="M565 662l12 -142q-10 2 -18.5 3t-16.5 1q-41 0 -59.5 -22.5t-18.5 -47.5l-67 20q0 43 13 86.5t45 73t87 29.5h11t12 -1zM381 142q97 0 148 -39t51 -117q0 -70 -35 -114.5t-101.5 -65.5t-161.5 -21q-147 0 -208 30t-61 90q0 42 39 65t128 23l-2 -17q-79 8 -113.5 40.5
t-34.5 84.5q0 53 43.5 83.5t107.5 30.5l69 -30h-20q-32 0 -45 -5.5t-13 -16.5q0 -10 9.5 -15.5t31.5 -5.5h168zM285 -76q42 0 69.5 3t41.5 9.5t14 16.5q0 6 -4 9.5t-15 3.5h-195q-10 0 -15 -5t-5 -12q0 -13 29 -19t80 -6zM299 510q88 0 147 -19t89 -56.5t30 -95.5
q0 -57 -30 -94.5t-89 -56t-147 -18.5q-131 0 -198.5 42t-67.5 127q0 58 30 95.5t89.5 56.5t146.5 19zM299 391q-20 0 -31 -12t-11 -39t11 -39t31 -12t31 12t11 39t-11 39t-31 12zM462 730l-106 -177h-214l-106 177h156l57 -71l57 71h156z" />
    <glyph glyph-name="uni01EA" unicode="&#x1ea;" horiz-adv-x="729" 
d="M365 670q105 0 180 -40t115 -116t40 -184t-40 -184t-115 -116t-180 -40q-104 0 -179.5 40t-116 116t-40.5 184t40.5 184t116 116t179.5 40zM365 495q-34 0 -55.5 -17.5t-32 -53.5t-10.5 -94q0 -57 10.5 -93.5t32 -54t55.5 -17.5t55.5 17.5t31.5 54t10 93.5q0 58 -10 94
t-31.5 53.5t-55.5 17.5zM393 -216q-67 0 -106 31t-39 86q0 60 46 93t118 37l82 -22q-32 -9 -55 -17.5t-35.5 -19.5t-12.5 -29t13 -28t36 -10q11 0 22 2t18 6l21 -107q-23 -13 -47.5 -17.5t-60.5 -4.5z" />
    <glyph glyph-name="uni01EB" unicode="&#x1eb;" horiz-adv-x="598" 
d="M299 510q84 0 146.5 -30.5t97.5 -88.5t35 -141q0 -82 -35 -140.5t-97.5 -89t-146.5 -30.5q-83 0 -146 30.5t-98 89t-35 140.5q0 83 35 141t98 88.5t146 30.5zM299 355q-15 0 -26 -8.5t-16.5 -31.5t-5.5 -65t5.5 -64.5t16.5 -31.5t26 -9q16 0 26.5 9t16 31.5t5.5 64.5
t-5.5 65t-16 31.5t-26.5 8.5zM325 -213q-67 0 -106 31t-39 86q0 60 46 93t118 37l82 -22q-32 -9 -55 -17.5t-35.5 -19.5t-12.5 -29t13 -28t36 -10q11 0 22 2t18 6l21 -107q-23 -13 -47.5 -17.5t-60.5 -4.5z" />
    <glyph glyph-name="uni01F1" unicode="&#x1f1;" horiz-adv-x="1353" 
d="M374 660q155 0 234 -86t79 -244q0 -157 -79 -243.5t-234 -86.5h-324v660h324zM341 166q65 0 86.5 39.5t21.5 124.5t-21.5 124.5t-86.5 39.5h-58v-328h58zM917 89l-41 77h462v-166h-597v159l412 412l40 -77h-448v166h582v-159z" />
    <glyph glyph-name="uni01F2" unicode="&#x1f2;" horiz-adv-x="1220" 
d="M374 660q155 0 234 -86t79 -244q0 -157 -79 -243.5t-234 -86.5h-324v660h324zM341 166q65 0 86.5 39.5t21.5 124.5t-21.5 124.5t-86.5 39.5h-58v-328h58zM737 0v132l156 172l47 46l-73 -2h-130v152h457v-132l-153 -170l-49 -48l82 2h130v-152h-467z" />
    <glyph glyph-name="uni01F3" unicode="&#x1f3;" horiz-adv-x="1131" 
d="M216 -10q-61 0 -104 30.5t-65 88t-22 138.5q0 84 22.5 142.5t65.5 89.5t104 31q73 0 112 -47.5t49 -119.5l-20 -30v387h230v-700h-207l-14 202l26 -29q-6 -53 -28.5 -94.5t-60 -65t-88.5 -23.5zM309 151q16 0 26.5 10.5t16.5 32.5t6 56q0 32 -5 54t-16 33t-28 11
q-24 0 -38 -19.5t-14 -78.5t14 -79t38 -20zM648 0v132l156 172l47 46l-73 -2h-130v152h457v-132l-153 -170l-49 -48l82 2h130v-152h-467z" />
    <glyph glyph-name="Aringacute" unicode="&#x1fa;" horiz-adv-x="689" 
d="M-10 0l214 660h280l215 -660h-238l-90 379l-27 112h-3l-26 -112l-93 -379h-232zM157 126v145h377v-145h-377zM345 839q68 0 108.5 -35.5t40.5 -95.5t-40.5 -95t-108.5 -35t-108.5 35t-40.5 95t40.5 95.5t108.5 35.5zM346 750q-20 0 -31.5 -11t-11.5 -30q0 -20 11.5 -31
t31.5 -11q19 0 30 11t11 31q0 19 -11 30t-30 11zM328 1035h196l-91 -167h-163z" />
    <glyph glyph-name="aringacute" unicode="&#x1fb;" 
d="M310 312q0 23 -10.5 36t-32.5 13q-21 0 -35 -12t-16 -48l-194 28q7 83 72 132t189 49q87 0 143.5 -24t84 -67t27.5 -100v-155q0 -41 39 -41q11 0 17 3l-10 -118q-37 -18 -89 -18q-47 0 -83.5 13.5t-57 41t-20.5 70.5v10h22q-1 -38 -24.5 -68.5t-62.5 -48.5t-89 -18
q-53 0 -89.5 16t-55.5 46t-19 71q0 55 35 89.5t101 47.5l174 36l-1 -81l-54 -13q-21 -5 -30 -16.5t-9 -28.5q0 -16 10 -26t28 -10q8 0 15.5 3t13 9t8.5 14.5t3 19.5v145zM277 796q68 0 108.5 -35.5t40.5 -95.5t-40.5 -95t-108.5 -35t-108.5 35t-40.5 95t40.5 95.5
t108.5 35.5zM278 707q-20 0 -31.5 -11t-11.5 -30q0 -20 11.5 -31t31.5 -11q19 0 30 11t11 31q0 19 -11 30t-30 11zM199 827l58 167h196l-91 -167h-163z" />
    <glyph glyph-name="AEacute" unicode="&#x1fc;" horiz-adv-x="904" 
d="M615 161h273v-161h-487v185h-135l-46 -185h-230l214 660h672v-161h-261v-96h200v-149h-200v-93zM299 321h102v186h-56zM475 876h196l-91 -167h-163z" />
    <glyph glyph-name="aeacute" unicode="&#x1fd;" horiz-adv-x="870" 
d="M197 -10q-62 0 -102 16.5t-59.5 47.5t-19.5 75q0 53 36 85.5t100 45.5l159 32v17q0 26 -11 39t-35 13q-19 0 -32.5 -12t-16.5 -48l-194 29q6 50 36 90.5t83 65t126 24.5q80 0 133.5 -28t78.5 -80l-75 -6q21 37 51 62t68 38.5t83 13.5q81 0 136 -30.5t83 -85.5t28 -128
q0 -16 -1.5 -33t-3.5 -27h-317v0q7 -39 28 -51t50 -12q26 0 35.5 11.5t14.5 31.5l185 -50q-11 -49 -45.5 -81.5t-83.5 -48.5t-104 -16q-95 0 -153 43.5t-76 126.5l43 -14q-7 -31 -23 -59t-42.5 -50t-66.5 -34.5t-96 -12.5zM268 121q8 0 16 2.5t14 8.5t9.5 15.5t3.5 24.5v40
l-39 -10q-19 -4 -29.5 -14t-10.5 -32q0 -16 10.5 -25.5t25.5 -9.5zM530 291h108q-2 22 -7.5 37t-15.5 22.5t-27 7.5q-25 0 -39 -14.5t-19 -52.5zM385 730h205l-103 -177h-162z" />
    <glyph glyph-name="Oslashacute" unicode="&#x1fe;" horiz-adv-x="729" 
d="M268 147l-51 43l224 296l54 -39zM45 -21l143 180l57 -43l-115 -137h-85zM537 495l-57 43l119 142h85zM365 670q105 0 180 -40t115 -116t40 -184t-40 -184t-115 -116t-180 -40q-104 0 -179.5 40t-116 116t-40.5 184t40.5 184t116 116t179.5 40zM365 495q-34 0 -55.5 -17.5
t-32 -53.5t-10.5 -94q0 -57 10.5 -93.5t32 -54t55.5 -17.5t55.5 17.5t31.5 54t10 93.5q0 58 -10 94t-31.5 53.5t-55.5 17.5zM332 876h196l-91 -167h-163z" />
    <glyph glyph-name="oslashacute" unicode="&#x1ff;" horiz-adv-x="598" 
d="M299 510q84 0 146.5 -30.5t97.5 -88.5t35 -141q0 -82 -35 -140.5t-97.5 -89t-146.5 -30.5q-83 0 -146 30.5t-98 89t-35 140.5q0 83 35 141t98 88.5t146 30.5zM299 355q-15 0 -26 -8.5t-16.5 -31.5t-5.5 -65t5.5 -64.5t16.5 -31.5t26 -9q16 0 26.5 9t16 31.5t5.5 64.5
t-5.5 65t-16 31.5t-26.5 8.5zM38 -21l455 541h67l-455 -541h-67zM264 730h205l-103 -177h-162z" />
    <glyph glyph-name="uni0200" unicode="&#x200;" horiz-adv-x="689" 
d="M-10 0l214 660h280l215 -660h-238l-90 379l-27 112h-3l-26 -112l-93 -379h-232zM157 126v145h377v-145h-377zM249 876l58 -167h-163l-91 167h196zM504 876l58 -167h-163l-91 167h196z" />
    <glyph glyph-name="uni0201" unicode="&#x201;" 
d="M310 312q0 23 -10.5 36t-32.5 13q-21 0 -35 -12t-16 -48l-194 28q7 83 72 132t189 49q87 0 143.5 -24t84 -67t27.5 -100v-155q0 -41 39 -41q11 0 17 3l-10 -118q-37 -18 -89 -18q-47 0 -83.5 13.5t-57 41t-20.5 70.5v10h22q-1 -38 -24.5 -68.5t-62.5 -48.5t-89 -18
q-53 0 -89.5 16t-55.5 46t-19 71q0 55 35 89.5t101 47.5l174 36l-1 -81l-54 -13q-21 -5 -30 -16.5t-9 -28.5q0 -16 10 -26t28 -10q8 0 15.5 3t13 9t8.5 14.5t3 19.5v145zM244 553h-153l-93 177h181zM480 553h-153l-93 177h181z" />
    <glyph glyph-name="uni0202" unicode="&#x202;" horiz-adv-x="689" 
d="M-10 0l214 660h280l215 -660h-238l-90 379l-27 112h-3l-26 -112l-93 -379h-232zM157 126v145h377v-145h-377zM527 700h-139q0 27 -10.5 41t-33.5 14q-22 0 -33 -14t-11 -41h-139q0 83 49 128t134 45q86 0 134.5 -45t48.5 -128z" />
    <glyph glyph-name="uni0203" unicode="&#x203;" 
d="M310 312q0 23 -10.5 36t-32.5 13q-21 0 -35 -12t-16 -48l-194 28q7 83 72 132t189 49q87 0 143.5 -24t84 -67t27.5 -100v-155q0 -41 39 -41q11 0 17 3l-10 -118q-37 -18 -89 -18q-47 0 -83.5 13.5t-57 41t-20.5 70.5v10h22q-1 -38 -24.5 -68.5t-62.5 -48.5t-89 -18
q-53 0 -89.5 16t-55.5 46t-19 71q0 55 35 89.5t101 47.5l174 36l-1 -81l-54 -13q-21 -5 -30 -16.5t-9 -28.5q0 -16 10 -26t28 -10q8 0 15.5 3t13 9t8.5 14.5t3 19.5v145zM460 540h-139q0 27 -10.5 41t-33.5 14q-22 0 -33 -14t-11 -41h-139q0 83 49 128t134 45
q86 0 134.5 -45t48.5 -128z" />
    <glyph glyph-name="uni0204" unicode="&#x204;" horiz-adv-x="626" 
d="M50 0v660h548v-171h-315v-82h254v-158h-254v-78h327v-171h-560zM229 876l58 -167h-163l-91 167h196zM484 876l58 -167h-163l-91 167h196z" />
    <glyph glyph-name="uni0205" unicode="&#x205;" horiz-adv-x="580" 
d="M306 -10q-90 0 -154 30.5t-98 88.5t-34 141t34.5 141t97 88.5t145.5 30.5q85 0 144.5 -30.5t90.5 -85.5t31 -128q0 -16 -1.5 -33t-3.5 -27h-390v85h290l-109 -43q0 54 -9.5 82t-41.5 28q-21 0 -34.5 -10t-19.5 -34.5t-6 -67.5t8 -65.5t23.5 -30t39.5 -7.5q26 0 40.5 11.5
t19.5 31.5l185 -50q-11 -49 -49 -81.5t-90.5 -48.5t-108.5 -16zM263 553h-153l-93 177h181zM499 553h-153l-93 177h181z" />
    <glyph glyph-name="uni0206" unicode="&#x206;" horiz-adv-x="626" 
d="M50 0v660h548v-171h-315v-82h254v-158h-254v-78h327v-171h-560zM507 700h-139q0 27 -10.5 41t-33.5 14q-22 0 -33 -14t-11 -41h-139q0 83 49 128t134 45q86 0 134.5 -45t48.5 -128z" />
    <glyph glyph-name="uni0207" unicode="&#x207;" horiz-adv-x="580" 
d="M306 -10q-90 0 -154 30.5t-98 88.5t-34 141t34.5 141t97 88.5t145.5 30.5q85 0 144.5 -30.5t90.5 -85.5t31 -128q0 -16 -1.5 -33t-3.5 -27h-390v85h290l-109 -43q0 54 -9.5 82t-41.5 28q-21 0 -34.5 -10t-19.5 -34.5t-6 -67.5t8 -65.5t23.5 -30t39.5 -7.5q26 0 40.5 11.5
t19.5 31.5l185 -50q-11 -49 -49 -81.5t-90.5 -48.5t-108.5 -16zM479 540h-139q0 27 -10.5 41t-33.5 14q-22 0 -33 -14t-11 -41h-139q0 83 49 128t134 45q86 0 134.5 -45t48.5 -128z" />
    <glyph glyph-name="uni0208" unicode="&#x208;" horiz-adv-x="333" 
d="M283 660v-660h-233v660h233zM71 876l58 -167h-163l-91 167h196zM326 876l58 -167h-163l-91 167h196z" />
    <glyph glyph-name="uni0209" unicode="&#x209;" horiz-adv-x="308" 
d="M269 500v-500h-230v500h230zM121 553h-153l-93 177h181zM357 553h-153l-93 177h181z" />
    <glyph glyph-name="uni020A" unicode="&#x20a;" horiz-adv-x="333" 
d="M283 660v-660h-233v660h233zM349 700h-139q0 27 -10.5 41t-33.5 14q-22 0 -33 -14t-11 -41h-139q0 83 49 128t134 45q86 0 134.5 -45t48.5 -128z" />
    <glyph glyph-name="uni020B" unicode="&#x20b;" horiz-adv-x="308" 
d="M269 500v-500h-230v500h230zM337 540h-139q0 27 -10.5 41t-33.5 14q-22 0 -33 -14t-11 -41h-139q0 83 49 128t134 45q86 0 134.5 -45t48.5 -128z" />
    <glyph glyph-name="uni020C" unicode="&#x20c;" horiz-adv-x="729" 
d="M365 670q105 0 180 -40t115 -116t40 -184t-40 -184t-115 -116t-180 -40q-104 0 -179.5 40t-116 116t-40.5 184t40.5 184t116 116t179.5 40zM365 495q-34 0 -55.5 -17.5t-32 -53.5t-10.5 -94q0 -57 10.5 -93.5t32 -54t55.5 -17.5t55.5 17.5t31.5 54t10 93.5q0 58 -10 94
t-31.5 53.5t-55.5 17.5zM270 876l58 -167h-163l-91 167h196zM525 876l58 -167h-163l-91 167h196z" />
    <glyph glyph-name="uni020D" unicode="&#x20d;" horiz-adv-x="598" 
d="M299 510q84 0 146.5 -30.5t97.5 -88.5t35 -141q0 -82 -35 -140.5t-97.5 -89t-146.5 -30.5q-83 0 -146 30.5t-98 89t-35 140.5q0 83 35 141t98 88.5t146 30.5zM299 355q-15 0 -26 -8.5t-16.5 -31.5t-5.5 -65t5.5 -64.5t16.5 -31.5t26 -9q16 0 26.5 9t16 31.5t5.5 64.5
t-5.5 65t-16 31.5t-26.5 8.5zM266 553h-153l-93 177h181zM502 553h-153l-93 177h181z" />
    <glyph glyph-name="uni020E" unicode="&#x20e;" horiz-adv-x="729" 
d="M365 670q105 0 180 -40t115 -116t40 -184t-40 -184t-115 -116t-180 -40q-104 0 -179.5 40t-116 116t-40.5 184t40.5 184t116 116t179.5 40zM365 495q-34 0 -55.5 -17.5t-32 -53.5t-10.5 -94q0 -57 10.5 -93.5t32 -54t55.5 -17.5t55.5 17.5t31.5 54t10 93.5q0 58 -10 94
t-31.5 53.5t-55.5 17.5zM548 700h-139q0 27 -10.5 41t-33.5 14q-22 0 -33 -14t-11 -41h-139q0 83 49 128t134 45q86 0 134.5 -45t48.5 -128z" />
    <glyph glyph-name="uni020F" unicode="&#x20f;" horiz-adv-x="598" 
d="M299 510q84 0 146.5 -30.5t97.5 -88.5t35 -141q0 -82 -35 -140.5t-97.5 -89t-146.5 -30.5q-83 0 -146 30.5t-98 89t-35 140.5q0 83 35 141t98 88.5t146 30.5zM299 355q-15 0 -26 -8.5t-16.5 -31.5t-5.5 -65t5.5 -64.5t16.5 -31.5t26 -9q16 0 26.5 9t16 31.5t5.5 64.5
t-5.5 65t-16 31.5t-26.5 8.5zM482 540h-139q0 27 -10.5 41t-33.5 14q-22 0 -33 -14t-11 -41h-139q0 83 49 128t134 45q86 0 134.5 -45t48.5 -128z" />
    <glyph glyph-name="uni0210" unicode="&#x210;" horiz-adv-x="705" 
d="M408 660q129 0 198 -57.5t69 -152.5q0 -109 -67.5 -164t-196.5 -55l-23 -12h-110v-219h-228v660h358zM368 372q37 0 55.5 13.5t18.5 47.5q0 33 -18.5 47t-55.5 14h-90v-122h90zM506 323l206 -323h-253l-154 289zM239 876l58 -167h-163l-91 167h196zM494 876l58 -167h-163
l-91 167h196z" />
    <glyph glyph-name="uni0211" unicode="&#x211;" horiz-adv-x="444" 
d="M39 0v500h207l5 -125q17 62 52.5 98.5t94.5 36.5q23 0 35 -4t17 -8l-19 -185q-9 4 -26 7t-37 3q-30 0 -52 -9.5t-34.5 -27.5t-12.5 -46v-240h-230zM214 553h-153l-93 177h181zM450 553h-153l-93 177h181z" />
    <glyph glyph-name="uni0212" unicode="&#x212;" horiz-adv-x="705" 
d="M408 660q129 0 198 -57.5t69 -152.5q0 -109 -67.5 -164t-196.5 -55l-23 -12h-110v-219h-228v660h358zM368 372q37 0 55.5 13.5t18.5 47.5q0 33 -18.5 47t-55.5 14h-90v-122h90zM506 323l206 -323h-253l-154 289zM517 700h-139q0 27 -10.5 41t-33.5 14q-22 0 -33 -14
t-11 -41h-139q0 83 49 128t134 45q86 0 134.5 -45t48.5 -128z" />
    <glyph glyph-name="uni0213" unicode="&#x213;" horiz-adv-x="444" 
d="M39 0v500h207l5 -125q17 62 52.5 98.5t94.5 36.5q23 0 35 -4t17 -8l-19 -185q-9 4 -26 7t-37 3q-30 0 -52 -9.5t-34.5 -27.5t-12.5 -46v-240h-230zM430 540h-139q0 27 -10.5 41t-33.5 14q-22 0 -33 -14t-11 -41h-139q0 83 49 128t134 45q86 0 134.5 -45t48.5 -128z" />
    <glyph glyph-name="uni0214" unicode="&#x214;" horiz-adv-x="712" 
d="M675 660v-376q0 -148 -79.5 -221t-239.5 -73t-239.5 73t-79.5 221v376h234v-394q0 -50 22 -75.5t63 -25.5q42 0 64 25.5t22 75.5v394h233zM261 876l58 -167h-163l-91 167h196zM516 876l58 -167h-163l-91 167h196z" />
    <glyph glyph-name="uni0215" unicode="&#x215;" horiz-adv-x="620" 
d="M200 -10q-52 0 -88 17.5t-55 55.5t-19 99v338h230v-285q0 -29 9.5 -42t28.5 -13q11 0 19.5 4.5t14 13.5t8.5 23.5t3 33.5v265h230v-500h-207l-5 106q-22 -58 -64.5 -87t-104.5 -29zM271 553h-153l-93 177h181zM507 553h-153l-93 177h181z" />
    <glyph glyph-name="uni0216" unicode="&#x216;" horiz-adv-x="712" 
d="M675 660v-376q0 -148 -79.5 -221t-239.5 -73t-239.5 73t-79.5 221v376h234v-394q0 -50 22 -75.5t63 -25.5q42 0 64 25.5t22 75.5v394h233zM539 700h-139q0 27 -10.5 41t-33.5 14q-22 0 -33 -14t-11 -41h-139q0 83 49 128t134 45q86 0 134.5 -45t48.5 -128z" />
    <glyph glyph-name="uni0217" unicode="&#x217;" horiz-adv-x="620" 
d="M200 -10q-52 0 -88 17.5t-55 55.5t-19 99v338h230v-285q0 -29 9.5 -42t28.5 -13q11 0 19.5 4.5t14 13.5t8.5 23.5t3 33.5v265h230v-500h-207l-5 106q-22 -58 -64.5 -87t-104.5 -29zM487 540h-139q0 27 -10.5 41t-33.5 14q-22 0 -33 -14t-11 -41h-139q0 83 49 128t134 45
q86 0 134.5 -45t48.5 -128z" />
    <glyph glyph-name="uni0218" unicode="&#x218;" horiz-adv-x="648" 
d="M339 670q95 0 170.5 -23.5t133.5 -70.5l-94 -150q-47 33 -98.5 53t-111.5 20q-26 0 -41.5 -4t-22 -11t-6.5 -16q0 -12 18.5 -18t46.5 -13l91 -21q101 -23 152.5 -68t51.5 -125t-39 -131.5t-105.5 -76.5t-150.5 -25q-63 0 -126 11.5t-117 34t-93 54.5l92 153
q29 -23 70 -41.5t85 -29.5t82 -11q24 0 38 4t19.5 10.5t5.5 15.5q0 14 -11.5 21t-41.5 14l-100 22q-53 12 -101 32t-78 58.5t-30 104.5q0 68 36.5 119t106 79.5t168.5 28.5zM449 -50l-75 -193h-142l24 193h193z" />
    <glyph glyph-name="uni0219" unicode="&#x219;" horiz-adv-x="538" 
d="M269 -10q-73 0 -140.5 20t-117.5 60l82 119q27 -24 71 -42.5t88 -18.5q17 0 30.5 4t13.5 14q0 8 -7.5 12t-32.5 8l-36 7q-109 21 -154 60t-45 105q0 41 26.5 80.5t84.5 65.5t153 26q78 0 140 -19.5t101 -53.5l-79 -114q-28 22 -71.5 35.5t-79.5 13.5q-16 0 -26 -2
t-14.5 -5.5t-4.5 -8.5q0 -7 10 -13t39 -11l71 -12q81 -13 118.5 -52t37.5 -96q0 -49 -26.5 -90.5t-83 -66.5t-148.5 -25zM391 -50l-75 -193h-142l24 193h193z" />
    <glyph glyph-name="uni021A" unicode="&#x21a;" horiz-adv-x="686" 
d="M666 660v-171h-206v-489h-233v489h-207v171h646zM445 -50l-75 -193h-142l24 193h193z" />
    <glyph glyph-name="uni021B" unicode="&#x21b;" horiz-adv-x="449" 
d="M310 670v-466q0 -34 14.5 -48.5t45.5 -14.5q20 0 35 3t28 10l10 -130q-25 -16 -68 -25t-81 -9q-70 0 -117.5 17.5t-72 56.5t-24.5 104v438zM436 500v-155h-433v155h433zM372 -50l-75 -193h-142l24 193h193z" />
    <glyph glyph-name="uni022A" unicode="&#x22a;" horiz-adv-x="729" 
d="M365 670q105 0 180 -40t115 -116t40 -184t-40 -184t-115 -116t-180 -40q-104 0 -179.5 40t-116 116t-40.5 184t40.5 184t116 116t179.5 40zM365 495q-34 0 -55.5 -17.5t-32 -53.5t-10.5 -94q0 -57 10.5 -93.5t32 -54t55.5 -17.5t55.5 17.5t31.5 54t10 93.5q0 58 -10 94
t-31.5 53.5t-55.5 17.5zM245 880q50 0 77.5 -23.5t27.5 -67.5q0 -43 -27.5 -67t-77.5 -24q-49 0 -75.5 24t-26.5 67q0 44 26.5 67.5t75.5 23.5zM482 880q50 0 77.5 -23.5t27.5 -67.5q0 -43 -27.5 -67t-77.5 -24q-49 0 -75.5 24t-26.5 67q0 44 26.5 67.5t75.5 23.5zM559 1045
v-130h-388v130h388z" />
    <glyph glyph-name="uni022B" unicode="&#x22b;" horiz-adv-x="598" 
d="M299 510q84 0 146.5 -30.5t97.5 -88.5t35 -141q0 -82 -35 -140.5t-97.5 -89t-146.5 -30.5q-83 0 -146 30.5t-98 89t-35 140.5q0 83 35 141t98 88.5t146 30.5zM299 355q-15 0 -26 -8.5t-16.5 -31.5t-5.5 -65t5.5 -64.5t16.5 -31.5t26 -9q16 0 26.5 9t16 31.5t5.5 64.5
t-5.5 65t-16 31.5t-26.5 8.5zM179 720q50 0 77.5 -23.5t27.5 -67.5q0 -43 -27.5 -67t-77.5 -24q-49 0 -75.5 24t-26.5 67q0 44 26.5 67.5t75.5 23.5zM416 720q50 0 77.5 -23.5t27.5 -67.5q0 -43 -27.5 -67t-77.5 -24q-49 0 -75.5 24t-26.5 67q0 44 26.5 67.5t75.5 23.5z
M493 885v-130h-388v130h388z" />
    <glyph glyph-name="uni022C" unicode="&#x22c;" horiz-adv-x="729" 
d="M365 670q105 0 180 -40t115 -116t40 -184t-40 -184t-115 -116t-180 -40q-104 0 -179.5 40t-116 116t-40.5 184t40.5 184t116 116t179.5 40zM365 495q-34 0 -55.5 -17.5t-32 -53.5t-10.5 -94q0 -57 10.5 -93.5t32 -54t55.5 -17.5t55.5 17.5t31.5 54t10 93.5q0 58 -10 94
t-31.5 53.5t-55.5 17.5zM575 879q-1 -60 -20 -99t-48.5 -58t-62.5 -19q-28 0 -48.5 7.5t-36.5 17.5t-29 17.5t-26 7.5q-14 0 -21.5 -11t-9.5 -37h-118q2 90 43 133t99 43q27 0 46 -7.5t32.5 -17.5t25.5 -17.5t26 -7.5t21 11.5t9 36.5h118zM559 1052v-130h-388v130h388z" />
    <glyph glyph-name="uni022D" unicode="&#x22d;" horiz-adv-x="598" 
d="M299 510q84 0 146.5 -30.5t97.5 -88.5t35 -141q0 -82 -35 -140.5t-97.5 -89t-146.5 -30.5q-83 0 -146 30.5t-98 89t-35 140.5q0 83 35 141t98 88.5t146 30.5zM299 355q-15 0 -26 -8.5t-16.5 -31.5t-5.5 -65t5.5 -64.5t16.5 -31.5t26 -9q16 0 26.5 9t16 31.5t5.5 64.5
t-5.5 65t-16 31.5t-26.5 8.5zM509 719q-1 -60 -20 -99t-48.5 -58t-62.5 -19q-28 0 -48.5 7.5t-36.5 17.5t-29 17.5t-26 7.5q-14 0 -21.5 -11t-9.5 -37h-118q2 90 43 133t99 43q27 0 46 -7.5t32.5 -17.5t25.5 -17.5t26 -7.5t21 11.5t9 36.5h118zM493 892v-130h-388v130h388z
" />
    <glyph glyph-name="uni0230" unicode="&#x230;" horiz-adv-x="729" 
d="M365 670q105 0 180 -40t115 -116t40 -184t-40 -184t-115 -116t-180 -40q-104 0 -179.5 40t-116 116t-40.5 184t40.5 184t116 116t179.5 40zM365 495q-34 0 -55.5 -17.5t-32 -53.5t-10.5 -94q0 -57 10.5 -93.5t32 -54t55.5 -17.5t55.5 17.5t31.5 54t10 93.5q0 58 -10 94
t-31.5 53.5t-55.5 17.5zM365 886q58 0 86.5 -23.5t28.5 -70.5t-28.5 -70.5t-86.5 -23.5q-56 0 -84 23.5t-28 70.5t28 70.5t84 23.5zM561 1045v-130h-388v130h388z" />
    <glyph glyph-name="uni0231" unicode="&#x231;" horiz-adv-x="598" 
d="M299 510q84 0 146.5 -30.5t97.5 -88.5t35 -141q0 -82 -35 -140.5t-97.5 -89t-146.5 -30.5q-83 0 -146 30.5t-98 89t-35 140.5q0 83 35 141t98 88.5t146 30.5zM299 355q-15 0 -26 -8.5t-16.5 -31.5t-5.5 -65t5.5 -64.5t16.5 -31.5t26 -9q16 0 26.5 9t16 31.5t5.5 64.5
t-5.5 65t-16 31.5t-26.5 8.5zM299 726q58 0 86.5 -23.5t28.5 -70.5t-28.5 -70.5t-86.5 -23.5q-56 0 -84 23.5t-28 70.5t28 70.5t84 23.5zM495 885v-130h-388v130h388z" />
    <glyph glyph-name="uni0232" unicode="&#x232;" horiz-adv-x="713" 
d="M704 660l-231 -431v-229h-233v229l-231 431h232l70 -151l47 -120l47 120l70 151h229zM550 841v-130h-388v130h388z" />
    <glyph glyph-name="uni0233" unicode="&#x233;" horiz-adv-x="594" 
d="M604 500l-147 -444q-33 -99 -73.5 -158.5t-97 -86t-137.5 -26.5q-48 0 -87 9t-67 24l42 145q16 -9 34.5 -13t54.5 -4q32 0 47.5 6t21.5 21l3 8l-63 147l-143 372h251l45 -258l19 -117l22 118l50 257h225zM517 681v-130h-388v130h388z" />
    <glyph glyph-name="uni0237" unicode="&#x237;" horiz-adv-x="308" 
d="M269 500v-513q0 -71 -23 -115.5t-71.5 -65.5t-126.5 -21q-47 0 -84 7.5t-68 23.5l28 133q10 -5 22.5 -8t29.5 -3q29 0 46 15.5t17 53.5v493h230z" />
    <glyph glyph-name="uni0259" unicode="&#x259;" horiz-adv-x="582" 
d="M286 -10q-86 0 -145 31t-89.5 86t-30.5 128q0 11 1 22l2 22h390v-85h-290l109 58q-1 -7 -1 -13.5v-11.5q0 -42 13.5 -63.5t44.5 -21.5q29 0 41.5 24t12.5 88q0 44 -7.5 66t-22 29.5t-36.5 7.5q-29 0 -41 -16t-17 -36l-191 48q16 50 53 85t89.5 53.5t113.5 18.5
q90 0 151.5 -30.5t93.5 -88.5t32 -141q0 -124 -72 -192t-204 -68z" />
    <glyph glyph-name="uni02B9" unicode="&#x2b9;" horiz-adv-x="600" 
d="M291 670l-102 -297h-156l70 297h188z" />
    <glyph glyph-name="uni02BA" unicode="&#x2ba;" horiz-adv-x="523" 
d="M521 670l-102 -297h-156l70 297h188zM291 670l-102 -297h-156l70 297h188z" />
    <glyph glyph-name="uni02BB" unicode="&#x2bb;" horiz-adv-x="600" 
d="M105 768l-32 -221h-178l71 221h139z" />
    <glyph glyph-name="uni02BC" unicode="&#x2bc;" horiz-adv-x="600" 
d="M163 683q46 0 74.5 -20t42 -51.5t13.5 -67.5q0 -54 -24.5 -101.5t-61.5 -82t-73 -49.5l-87 59q28 13 53.5 30t46.5 37t33 41l-5 4q-7 -4 -16 -6.5t-23 -2.5q-22 0 -44 10.5t-37 31.5t-15 53q0 41 17.5 66t46 37t59.5 12z" />
    <glyph glyph-name="uni02BE" unicode="&#x2be;" horiz-adv-x="414" 
d="M144 700q76 0 119 -40.5t43 -104.5q0 -65 -43 -105t-119 -40h-34v93h39q25 0 41 14t16 38t-16 38t-41 14h-39v93h34z" />
    <glyph glyph-name="uni02BF" unicode="&#x2bf;" horiz-adv-x="414" 
d="M270 410q-76 0 -119 40.5t-43 104.5q0 65 43 105t119 40h34v-93h-39q-25 0 -41 -14t-16 -38t16 -38t41 -14h39v-93h-34z" />
    <glyph glyph-name="circumflex" unicode="&#x2c6;" horiz-adv-x="500" 
d="M463 547h-156l-57 71l-57 -71h-156l106 177h214z" />
    <glyph glyph-name="caron" unicode="&#x2c7;" horiz-adv-x="500" 
d="M463 730l-106 -177h-214l-106 177h156l57 -71l57 71h156z" />
    <glyph glyph-name="uni02C8" unicode="&#x2c8;" horiz-adv-x="275" 
d="M65 700h145v-270h-145v270z" />
    <glyph glyph-name="uni02C9" unicode="&#x2c9;" horiz-adv-x="500" 
d="M444 681v-130h-388v130h388z" />
    <glyph glyph-name="uni02CA" unicode="&#x2ca;" horiz-adv-x="600" 
d="M227 730h205l-103 -177h-162z" />
    <glyph glyph-name="uni02CB" unicode="&#x2cb;" horiz-adv-x="600" 
d="M373 730l60 -177h-162l-103 177h205z" />
    <glyph glyph-name="uni02CC" unicode="&#x2cc;" horiz-adv-x="275" 
d="M65 60h145v-270h-145v270z" />
    <glyph glyph-name="breve" unicode="&#x2d8;" horiz-adv-x="500" 
d="M433 713q0 -82 -48.5 -127.5t-134.5 -45.5q-85 0 -134 45.5t-49 127.5h139q0 -27 11 -41t33 -14q23 0 33.5 14t10.5 41h139z" />
    <glyph glyph-name="dotaccent" unicode="&#x2d9;" horiz-adv-x="500" 
d="M249 726q58 0 86.5 -23.5t28.5 -70.5t-28.5 -70.5t-86.5 -23.5q-56 0 -84 23.5t-28 70.5t28 70.5t84 23.5z" />
    <glyph glyph-name="ring" unicode="&#x2da;" horiz-adv-x="500" 
d="M250 796q68 0 108.5 -35.5t40.5 -95.5t-40.5 -95t-108.5 -35t-108.5 35t-40.5 95t40.5 95.5t108.5 35.5zM251 707q-20 0 -31.5 -11t-11.5 -30q0 -20 11.5 -31t31.5 -11q19 0 30 11t11 31q0 19 -11 30t-30 11z" />
    <glyph glyph-name="ogonek" unicode="&#x2db;" horiz-adv-x="500" 
d="M269 -215q-67 0 -106 31t-39 86q0 60 46 93t118 37l82 -22q-32 -9 -55 -17.5t-35.5 -19.5t-12.5 -29t13 -28t36 -10q11 0 22 2t18 6l21 -107q-23 -13 -47.5 -17.5t-60.5 -4.5z" />
    <glyph glyph-name="tilde" unicode="&#x2dc;" horiz-adv-x="500" 
d="M460 719q-1 -60 -20 -99t-48.5 -58t-62.5 -19q-28 0 -48.5 7.5t-36.5 17.5t-29 17.5t-26 7.5q-14 0 -21.5 -11t-9.5 -37h-118q2 90 43 133t99 43q27 0 46 -7.5t32.5 -17.5t25.5 -17.5t26 -7.5t21 11.5t9 36.5h118z" />
    <glyph glyph-name="hungarumlaut" unicode="&#x2dd;" horiz-adv-x="500" 
d="M245 553l65 177h181l-93 -177h-153zM9 553l65 177h181l-93 -177h-153z" />
    <glyph glyph-name="gravecomb" unicode="&#x300;" horiz-adv-x="0" 
d="M23 730l60 -177h-162l-103 177h205z" />
    <glyph glyph-name="acutecomb" unicode="&#x301;" horiz-adv-x="0" 
d="M-35 730h205l-103 -177h-162z" />
    <glyph glyph-name="uni0302" unicode="&#x302;" horiz-adv-x="0" 
d="M213 547h-156l-57 71l-57 -71h-156l106 177h214z" />
    <glyph glyph-name="tildecomb" unicode="&#x303;" horiz-adv-x="0" 
d="M210 719q-1 -60 -20 -99t-48.5 -58t-62.5 -19q-28 0 -48.5 7.5t-36.5 17.5t-29 17.5t-26 7.5q-14 0 -21.5 -11t-9.5 -37h-118q2 90 43 133t99 43q27 0 46 -7.5t32.5 -17.5t25.5 -17.5t26 -7.5t21 11.5t9 36.5h118z" />
    <glyph glyph-name="uni0304" unicode="&#x304;" horiz-adv-x="0" 
d="M194 681v-130h-388v130h388z" />
    <glyph glyph-name="uni0306" unicode="&#x306;" horiz-adv-x="0" 
d="M183 713q0 -82 -48.5 -127.5t-134.5 -45.5q-85 0 -134 45.5t-49 127.5h139q0 -27 11 -41t33 -14q23 0 33.5 14t10.5 41h139z" />
    <glyph glyph-name="uni0307" unicode="&#x307;" horiz-adv-x="0" 
d="M0 726q58 0 86.5 -23.5t28.5 -70.5t-28.5 -70.5t-86.5 -23.5q-56 0 -84 23.5t-28 70.5t28 70.5t84 23.5z" />
    <glyph glyph-name="uni0308" unicode="&#x308;" horiz-adv-x="0" 
d="M-120 720q50 0 77.5 -23.5t27.5 -67.5q0 -43 -27.5 -67t-77.5 -24q-49 0 -75.5 24t-26.5 67q0 44 26.5 67.5t75.5 23.5zM117 720q50 0 77.5 -23.5t27.5 -67.5q0 -43 -27.5 -67t-77.5 -24q-49 0 -75.5 24t-26.5 67q0 44 26.5 67.5t75.5 23.5z" />
    <glyph glyph-name="hookabovecomb" unicode="&#x309;" horiz-adv-x="0" 
d="M285 540l-43 62q29 11 40 23t11 23q0 13 -7.5 21t-22.5 8q-14 0 -21.5 -7t-12.5 -19l-98 42q11 46 50 71t95 25q34 0 65.5 -12t51.5 -37t20 -64q0 -43 -21.5 -70.5t-51.5 -43t-55 -22.5z" />
    <glyph glyph-name="uni030A" unicode="&#x30a;" horiz-adv-x="0" 
d="M0 796q68 0 108.5 -35.5t40.5 -95.5t-40.5 -95t-108.5 -35t-108.5 35t-40.5 95t40.5 95.5t108.5 35.5zM1 707q-20 0 -31.5 -11t-11.5 -30q0 -20 11.5 -31t31.5 -11q19 0 30 11t11 31q0 19 -11 30t-30 11z" />
    <glyph glyph-name="uni030B" unicode="&#x30b;" horiz-adv-x="0" 
d="M33 553l65 177h181l-93 -177h-153zM-203 553l65 177h181l-93 -177h-153z" />
    <glyph glyph-name="uni030C" unicode="&#x30c;" horiz-adv-x="0" 
d="M207 730l-106 -177h-214l-106 177h156l57 -71l57 71h156z" />
    <glyph glyph-name="uni030F" unicode="&#x30f;" horiz-adv-x="0" 
d="M-33 553h-153l-93 177h181zM203 553h-153l-93 177h181z" />
    <glyph glyph-name="uni0311" unicode="&#x311;" horiz-adv-x="0" 
d="M183 540h-139q0 27 -10.5 41t-33.5 14q-22 0 -33 -14t-11 -41h-139q0 83 49 128t134 45q86 0 134.5 -45t48.5 -128z" />
    <glyph glyph-name="uni0312" unicode="&#x312;" horiz-adv-x="0" 
d="M401 768l-32 -221h-178l71 221h139z" />
    <glyph glyph-name="uni031B" unicode="&#x31b;" horiz-adv-x="0" 
d="M282 390v110q23 0 36.5 24t13.5 81h147q0 -112 -52 -163.5t-145 -51.5z" />
    <glyph glyph-name="dotbelowcomb" unicode="&#x323;" horiz-adv-x="0" 
d="M0 -226q-56 0 -84 23.5t-28 70.5t28 70.5t84 23.5q58 0 86.5 -23.5t28.5 -70.5t-28.5 -70.5t-86.5 -23.5z" />
    <glyph glyph-name="uni0324" unicode="&#x324;" horiz-adv-x="0" 
d="M-120 -38q50 0 77.5 -23.5t27.5 -67.5q0 -43 -27.5 -67t-77.5 -24q-49 0 -75.5 24t-26.5 67q0 44 26.5 67.5t75.5 23.5zM117 -38q50 0 77.5 -23.5t27.5 -67.5q0 -43 -27.5 -67t-77.5 -24q-49 0 -75.5 24t-26.5 67q0 44 26.5 67.5t75.5 23.5z" />
    <glyph glyph-name="uni0326" unicode="&#x326;" horiz-adv-x="0" 
d="M119 -50l-75 -193h-142l24 193h193z" />
    <glyph glyph-name="uni0327" unicode="&#x327;" horiz-adv-x="0" 
d="M-92 14l40 28q92 -6 137 -36.5t45 -89.5q0 -62 -40 -96.5t-114 -34.5q-43 0 -66 9t-41 20l33 97q11 -7 24 -11t32 -4q24 0 38.5 13t14.5 35q0 21 -22 38t-81 32z" />
    <glyph glyph-name="uni0328" unicode="&#x328;" horiz-adv-x="0" 
d="M-101 -215q-67 0 -106 31t-39 86q0 60 46 93t118 37l82 -22q-32 -9 -55 -17.5t-35.5 -19.5t-12.5 -29t13 -28t36 -10q11 0 22 2t18 6l21 -107q-23 -13 -47.5 -17.5t-60.5 -4.5z" />
    <glyph glyph-name="uni032E" unicode="&#x32e;" horiz-adv-x="0" 
d="M183 -40q0 -82 -48.5 -127.5t-134.5 -45.5q-85 0 -134 45.5t-49 127.5h139q0 -27 11 -41t33 -14q23 0 33.5 14t10.5 41h139z" />
    <glyph glyph-name="uni0331" unicode="&#x331;" horiz-adv-x="0" 
d="M194 -51v-130h-388v130h388z" />
    <glyph glyph-name="uni0335" unicode="&#x335;" horiz-adv-x="0" 
d="M259 391v-121h-518v121h518z" />
    <glyph glyph-name="uni0338" unicode="&#x338;" horiz-adv-x="0" 
d="M38 -21l455 541h67l-455 -541h-67z" />
    <glyph glyph-name="uni03A9" unicode="&#x3a9;" horiz-adv-x="780" 
d="M51 0v168h241l-25 -23q-109 20 -161 84t-52 159q0 84 40.5 147.5t116 99t179.5 35.5q105 0 180 -35.5t115 -99t40 -147.5q0 -95 -51.5 -159t-161.5 -84l-25 23h242v-168h-311v168q41 2 58 50t17 118q0 56 -11 92.5t-33.5 54t-58.5 17.5t-58.5 -17.5t-33.5 -54t-11 -92.5
q0 -46 7 -84t23.5 -60.5t44.5 -23.5v-168h-311z" />
    <glyph glyph-name="uni03BC" unicode="&#x3bc;" horiz-adv-x="621" 
d="M39 -210v710h230v-281q0 -34 9 -46.5t28 -12.5q16 0 26 8.5t15 26t5 44.5v261h230v-500h-207l-5 97q-18 -53 -51.5 -79.5t-80.5 -26.5q-10 0 -20 1t-21 3l72 102v-307h-230z" />
    <glyph glyph-name="pi" unicode="&#x3c0;" horiz-adv-x="824" 
d="M128 0v348h-114v152h784v-152h-119v-132q0 -26 9.5 -44t29 -26t50.5 -4l-16 -147q-120 -10 -186 7.5t-91.5 59t-25.5 103.5v183h-91v-348h-230z" />
    <glyph glyph-name="uni1E08" unicode="&#x1e08;" horiz-adv-x="677" 
d="M670 202q-18 -77 -61.5 -124t-105.5 -67.5t-138 -20.5q-104 0 -179.5 40t-116 116t-40.5 184t40.5 184t116 116t179.5 40q73 0 136 -20.5t106.5 -64.5t57.5 -115l-200 -78q-8 65 -32.5 84t-61.5 19q-34 0 -57.5 -17.5t-35 -54t-11.5 -93.5q0 -56 10.5 -93t34.5 -54.5
t64 -17.5q36 0 59 21.5t29 68.5zM260 14l40 28q92 -6 137 -36.5t45 -89.5q0 -62 -40 -96.5t-114 -34.5q-43 0 -66 9t-41 20l33 97q11 -7 24 -11t32 -4q24 0 38.5 13t14.5 35q0 21 -22 38t-81 32zM323 876h196l-91 -167h-163z" />
    <glyph glyph-name="uni1E09" unicode="&#x1e09;" horiz-adv-x="571" 
d="M297 510q92 0 150 -25.5t85.5 -64.5t28.5 -80l-212 -62q0 40 -9.5 58.5t-32.5 18.5q-20 0 -32.5 -9.5t-18 -33t-5.5 -65.5q0 -43 7.5 -65t20.5 -29.5t29 -7.5q15 0 24 7.5t14.5 22.5t6.5 36l206 -64q-1 -42 -32 -77.5t-86.5 -57.5t-131.5 -22q-90 0 -155 30.5t-99.5 88.5
t-34.5 141t34.5 141t97 88.5t145.5 30.5zM207 14l40 28q92 -6 137 -36.5t45 -89.5q0 -62 -40 -96.5t-114 -34.5q-43 0 -66 9t-41 20l33 97q11 -7 24 -11t32 -4q24 0 38.5 13t14.5 35q0 21 -22 38t-81 32zM262 730h205l-103 -177h-162z" />
    <glyph glyph-name="uni1E0C" unicode="&#x1e0c;" horiz-adv-x="716" 
d="M374 660q155 0 234 -86t79 -244q0 -157 -79 -243.5t-234 -86.5h-324v660h324zM341 166q65 0 86.5 39.5t21.5 124.5t-21.5 124.5t-86.5 39.5h-58v-328h58zM331 -226q-56 0 -84 23.5t-28 70.5t28 70.5t84 23.5q58 0 86.5 -23.5t28.5 -70.5t-28.5 -70.5t-86.5 -23.5z" />
    <glyph glyph-name="uni1E0D" unicode="&#x1e0d;" horiz-adv-x="627" 
d="M216 -10q-61 0 -104 30.5t-65 88t-22 138.5q0 84 22.5 142.5t65.5 89.5t104 31q73 0 112 -47.5t49 -119.5l-20 -30v387h230v-700h-207l-14 202l26 -29q-6 -53 -28.5 -94.5t-60 -65t-88.5 -23.5zM309 151q16 0 26.5 10.5t16.5 32.5t6 56q0 32 -5 54t-16 33t-28 11
q-24 0 -38 -19.5t-14 -78.5t14 -79t38 -20zM310 -226q-56 0 -84 23.5t-28 70.5t28 70.5t84 23.5q58 0 86.5 -23.5t28.5 -70.5t-28.5 -70.5t-86.5 -23.5z" />
    <glyph glyph-name="uni1E0E" unicode="&#x1e0e;" horiz-adv-x="716" 
d="M374 660q155 0 234 -86t79 -244q0 -157 -79 -243.5t-234 -86.5h-324v660h324zM341 166q65 0 86.5 39.5t21.5 124.5t-21.5 124.5t-86.5 39.5h-58v-328h58zM525 -51v-130h-388v130h388z" />
    <glyph glyph-name="uni1E0F" unicode="&#x1e0f;" horiz-adv-x="627" 
d="M216 -10q-61 0 -104 30.5t-65 88t-22 138.5q0 84 22.5 142.5t65.5 89.5t104 31q73 0 112 -47.5t49 -119.5l-20 -30v387h230v-700h-207l-14 202l26 -29q-6 -53 -28.5 -94.5t-60 -65t-88.5 -23.5zM309 151q16 0 26.5 10.5t16.5 32.5t6 56q0 32 -5 54t-16 33t-28 11
q-24 0 -38 -19.5t-14 -78.5t14 -79t38 -20zM504 -51v-130h-388v130h388z" />
    <glyph glyph-name="uni1E14" unicode="&#x1e14;" horiz-adv-x="626" 
d="M50 0v660h548v-171h-315v-82h254v-158h-254v-78h327v-171h-560zM518 841v-130h-388v130h388zM357 1055l58 -167h-163l-91 167h196z" />
    <glyph glyph-name="uni1E15" unicode="&#x1e15;" horiz-adv-x="580" 
d="M306 -10q-90 0 -154 30.5t-98 88.5t-34 141t34.5 141t97 88.5t145.5 30.5q85 0 144.5 -30.5t90.5 -85.5t31 -128q0 -16 -1.5 -33t-3.5 -27h-390v85h290l-109 -43q0 54 -9.5 82t-41.5 28q-21 0 -34.5 -10t-19.5 -34.5t-6 -67.5t8 -65.5t23.5 -30t39.5 -7.5q26 0 40.5 11.5
t19.5 31.5l185 -50q-11 -49 -49 -81.5t-90.5 -48.5t-108.5 -16zM490 681v-130h-388v130h388zM329 895l58 -167h-163l-91 167h196z" />
    <glyph glyph-name="uni1E16" unicode="&#x1e16;" horiz-adv-x="626" 
d="M50 0v660h548v-171h-315v-82h254v-158h-254v-78h327v-171h-560zM518 841v-130h-388v130h388zM291 1055h196l-91 -167h-163z" />
    <glyph glyph-name="uni1E17" unicode="&#x1e17;" horiz-adv-x="580" 
d="M306 -10q-90 0 -154 30.5t-98 88.5t-34 141t34.5 141t97 88.5t145.5 30.5q85 0 144.5 -30.5t90.5 -85.5t31 -128q0 -16 -1.5 -33t-3.5 -27h-390v85h290l-109 -43q0 54 -9.5 82t-41.5 28q-21 0 -34.5 -10t-19.5 -34.5t-6 -67.5t8 -65.5t23.5 -30t39.5 -7.5q26 0 40.5 11.5
t19.5 31.5l185 -50q-11 -49 -49 -81.5t-90.5 -48.5t-108.5 -16zM490 681v-130h-388v130h388zM263 895h196l-91 -167h-163z" />
    <glyph glyph-name="uni1E1C" unicode="&#x1e1c;" horiz-adv-x="626" 
d="M50 0v660h548v-171h-315v-82h254v-158h-254v-78h327v-171h-560zM250 14l40 28q92 -6 137 -36.5t45 -89.5q0 -62 -40 -96.5t-114 -34.5q-43 0 -66 9t-41 20l33 97q11 -7 24 -11t32 -4q24 0 38.5 13t14.5 35q0 21 -22 38t-81 32zM507 873q0 -82 -48.5 -127.5t-134.5 -45.5
q-85 0 -134 45.5t-49 127.5h139q0 -27 11 -41t33 -14q23 0 33.5 14t10.5 41h139z" />
    <glyph glyph-name="uni1E1D" unicode="&#x1e1d;" horiz-adv-x="580" 
d="M306 -10q-90 0 -154 30.5t-98 88.5t-34 141t34.5 141t97 88.5t145.5 30.5q85 0 144.5 -30.5t90.5 -85.5t31 -128q0 -16 -1.5 -33t-3.5 -27h-390v85h290l-109 -43q0 54 -9.5 82t-41.5 28q-21 0 -34.5 -10t-19.5 -34.5t-6 -67.5t8 -65.5t23.5 -30t39.5 -7.5q26 0 40.5 11.5
t19.5 31.5l185 -50q-11 -49 -49 -81.5t-90.5 -48.5t-108.5 -16zM208 14l40 28q92 -6 137 -36.5t45 -89.5q0 -62 -40 -96.5t-114 -34.5q-43 0 -66 9t-41 20l33 97q11 -7 24 -11t32 -4q24 0 38.5 13t14.5 35q0 21 -22 38t-81 32zM479 713q0 -82 -48.5 -127.5t-134.5 -45.5
q-85 0 -134 45.5t-49 127.5h139q0 -27 11 -41t33 -14q23 0 33.5 14t10.5 41h139z" />
    <glyph glyph-name="uni1E20" unicode="&#x1e20;" horiz-adv-x="722" 
d="M328 -10q-85 0 -153 37.5t-107 113t-39 187.5q0 108 40.5 184.5t117.5 117t184 40.5q122 0 195.5 -43t112.5 -138l-217 -78q-7 47 -30.5 65.5t-58.5 18.5q-38 0 -61.5 -18t-34 -54.5t-10.5 -92.5q0 -62 13.5 -100t41 -54.5t69.5 -16.5q20 0 36.5 4t29 12.5t19 21.5
t6.5 31v1h-111v143h306v-372h-154l-19 177l36 -39q-17 -71 -70.5 -109.5t-141.5 -38.5zM558 841v-130h-388v130h388z" />
    <glyph glyph-name="uni1E21" unicode="&#x1e21;" horiz-adv-x="578" 
d="M565 662l12 -142q-10 2 -18.5 3t-16.5 1q-41 0 -59.5 -22.5t-18.5 -47.5l-67 20q0 43 13 86.5t45 73t87 29.5h11t12 -1zM381 142q97 0 148 -39t51 -117q0 -70 -35 -114.5t-101.5 -65.5t-161.5 -21q-147 0 -208 30t-61 90q0 42 39 65t128 23l-2 -17q-79 8 -113.5 40.5
t-34.5 84.5q0 53 43.5 83.5t107.5 30.5l69 -30h-20q-32 0 -45 -5.5t-13 -16.5q0 -10 9.5 -15.5t31.5 -5.5h168zM285 -76q42 0 69.5 3t41.5 9.5t14 16.5q0 6 -4 9.5t-15 3.5h-195q-10 0 -15 -5t-5 -12q0 -13 29 -19t80 -6zM299 510q88 0 147 -19t89 -56.5t30 -95.5
q0 -57 -30 -94.5t-89 -56t-147 -18.5q-131 0 -198.5 42t-67.5 127q0 58 30 95.5t89.5 56.5t146.5 19zM299 391q-20 0 -31 -12t-11 -39t11 -39t31 -12t31 12t11 39t-11 39t-31 12zM388.114 681v-130h-266.229v130h266.229z" />
    <glyph glyph-name="uni1E24" unicode="&#x1e24;" horiz-adv-x="747" 
d="M697 660v-660h-233v660h233zM283 660v-660h-233v660h233zM593 417v-171h-431v171h431zM374 -226q-56 0 -84 23.5t-28 70.5t28 70.5t84 23.5q58 0 86.5 -23.5t28.5 -70.5t-28.5 -70.5t-86.5 -23.5z" />
    <glyph glyph-name="uni1E25" unicode="&#x1e25;" horiz-adv-x="620" 
d="M39 0v700h230v-302q20 54 59.5 83t96.5 29q50 0 85 -19.5t53.5 -57t18.5 -91.5v-342h-230v282q0 34 -8.5 46.5t-26.5 12.5q-16 0 -27 -8.5t-16 -26t-5 -44.5v-262h-230zM303 -226q-56 0 -84 23.5t-28 70.5t28 70.5t84 23.5q58 0 86.5 -23.5t28.5 -70.5t-28.5 -70.5
t-86.5 -23.5z" />
    <glyph glyph-name="uni1E2A" unicode="&#x1e2a;" horiz-adv-x="747" 
d="M697 660v-660h-233v660h233zM283 660v-660h-233v660h233zM593 417v-171h-431v171h431zM557 -40q0 -82 -48.5 -127.5t-134.5 -45.5q-85 0 -134 45.5t-49 127.5h139q0 -27 11 -41t33 -14q23 0 33.5 14t10.5 41h139z" />
    <glyph glyph-name="uni1E2B" unicode="&#x1e2b;" horiz-adv-x="620" 
d="M39 0v700h230v-302q20 54 59.5 83t96.5 29q50 0 85 -19.5t53.5 -57t18.5 -91.5v-342h-230v282q0 34 -8.5 46.5t-26.5 12.5q-16 0 -27 -8.5t-16 -26t-5 -44.5v-262h-230zM486 -40q0 -82 -48.5 -127.5t-134.5 -45.5q-85 0 -134 45.5t-49 127.5h139q0 -27 11 -41t33 -14
q23 0 33.5 14t10.5 41h139z" />
    <glyph glyph-name="uni1E2E" unicode="&#x1e2e;" horiz-adv-x="333" 
d="M283 660v-660h-233v660h233zM46 880q50 0 77.5 -23.5t27.5 -67.5q0 -43 -27.5 -67t-77.5 -24q-49 0 -75.5 24t-26.5 67q0 44 26.5 67.5t75.5 23.5zM283 880q50 0 77.5 -23.5t27.5 -67.5q0 -43 -27.5 -67t-77.5 -24q-49 0 -75.5 24t-26.5 67q0 44 26.5 67.5t75.5 23.5z
M133 1080h196l-91 -167h-163z" />
    <glyph glyph-name="uni1E2F" unicode="&#x1e2f;" horiz-adv-x="308" 
d="M269 500v-500h-230v500h230zM34 720q50 0 77.5 -23.5t27.5 -67.5q0 -43 -27.5 -67t-77.5 -24q-49 0 -75.5 24t-26.5 67q0 44 26.5 67.5t75.5 23.5zM271 720q50 0 77.5 -23.5t27.5 -67.5q0 -43 -27.5 -67t-77.5 -24q-49 0 -75.5 24t-26.5 67q0 44 26.5 67.5t75.5 23.5z
M121 920h196l-91 -167h-163z" />
    <glyph glyph-name="uni1E36" unicode="&#x1e36;" horiz-adv-x="605" 
d="M283 171h299v-171h-532v660h233v-489zM318 -226q-56 0 -84 23.5t-28 70.5t28 70.5t84 23.5q58 0 86.5 -23.5t28.5 -70.5t-28.5 -70.5t-86.5 -23.5z" />
    <glyph glyph-name="uni1E37" unicode="&#x1e37;" horiz-adv-x="341" 
d="M269 700v-501q0 -30 9 -44t32 -14q11 0 19.5 1.5t16.5 3.5l-10 -124q-19 -14 -54.5 -23t-69.5 -9q-93 0 -133 40t-40 134v536h230zM192 -226q-56 0 -84 23.5t-28 70.5t28 70.5t84 23.5q58 0 86.5 -23.5t28.5 -70.5t-28.5 -70.5t-86.5 -23.5z" />
    <glyph glyph-name="uni1E3A" unicode="&#x1e3a;" horiz-adv-x="605" 
d="M283 171h299v-171h-532v660h233v-489zM512 -51v-130h-388v130h388z" />
    <glyph glyph-name="uni1E3B" unicode="&#x1e3b;" horiz-adv-x="341" 
d="M269 700v-501q0 -30 9 -44t32 -14q11 0 19.5 1.5t16.5 3.5l-10 -124q-19 -14 -54.5 -23t-69.5 -9q-93 0 -133 40t-40 134v536h230zM327.72 -51v-130h-271.439v130h271.439z" />
    <glyph glyph-name="uni1E42" unicode="&#x1e42;" horiz-adv-x="948" 
d="M898 660v-660h-203v229l3 222h-3l-128 -451h-186l-126 451h-4l3 -222v-229h-204v660h326l76 -293l29 -123h2l29 123l76 293h310zM474 -226q-56 0 -84 23.5t-28 70.5t28 70.5t84 23.5q58 0 86.5 -23.5t28.5 -70.5t-28.5 -70.5t-86.5 -23.5z" />
    <glyph glyph-name="uni1E43" unicode="&#x1e43;" horiz-adv-x="933" 
d="M39 0v500h207l5 -109q22 57 66 88t108 31q57 0 94.5 -26t53.5 -74q16 32 39.5 54.5t55 34t70.5 11.5q50 0 85 -19.5t53.5 -57t18.5 -91.5v-342h-230v282q0 34 -8.5 46t-26.5 12q-16 0 -27 -8t-16 -25.5t-5 -44.5v-262h-230v282q0 34 -8.5 46t-26.5 12q-16 0 -27 -8
t-16 -25.5t-5 -44.5v-262h-230zM467 -226q-56 0 -84 23.5t-28 70.5t28 70.5t84 23.5q58 0 86.5 -23.5t28.5 -70.5t-28.5 -70.5t-86.5 -23.5z" />
    <glyph glyph-name="uni1E44" unicode="&#x1e44;" horiz-adv-x="746" 
d="M696 660v-660h-252l-158 300l-36 81h-2l4 -136v-245h-202v660h252l158 -301l36 -80h2l-4 136v245h202zM373 886q58 0 86.5 -23.5t28.5 -70.5t-28.5 -70.5t-86.5 -23.5q-56 0 -84 23.5t-28 70.5t28 70.5t84 23.5z" />
    <glyph glyph-name="uni1E45" unicode="&#x1e45;" horiz-adv-x="620" 
d="M39 0v500h207l10 -212l-23 25q7 62 31 106t64.5 67.5t96.5 23.5q50 0 85 -19.5t53.5 -57t18.5 -91.5v-342h-230v285q0 32 -9 43.5t-27 11.5q-16 0 -26.5 -7.5t-15.5 -24.5t-5 -44v-264h-230zM309 726q58 0 86.5 -23.5t28.5 -70.5t-28.5 -70.5t-86.5 -23.5q-56 0 -84 23.5
t-28 70.5t28 70.5t84 23.5z" />
    <glyph glyph-name="uni1E46" unicode="&#x1e46;" horiz-adv-x="746" 
d="M696 660v-660h-252l-158 300l-36 81h-2l4 -136v-245h-202v660h252l158 -301l36 -80h2l-4 136v245h202zM374 -226q-56 0 -84 23.5t-28 70.5t28 70.5t84 23.5q58 0 86.5 -23.5t28.5 -70.5t-28.5 -70.5t-86.5 -23.5z" />
    <glyph glyph-name="uni1E47" unicode="&#x1e47;" horiz-adv-x="620" 
d="M39 0v500h207l10 -212l-23 25q7 62 31 106t64.5 67.5t96.5 23.5q50 0 85 -19.5t53.5 -57t18.5 -91.5v-342h-230v285q0 32 -9 43.5t-27 11.5q-16 0 -26.5 -7.5t-15.5 -24.5t-5 -44v-264h-230zM303 -226q-56 0 -84 23.5t-28 70.5t28 70.5t84 23.5q58 0 86.5 -23.5
t28.5 -70.5t-28.5 -70.5t-86.5 -23.5z" />
    <glyph glyph-name="uni1E48" unicode="&#x1e48;" horiz-adv-x="746" 
d="M696 660v-660h-252l-158 300l-36 81h-2l4 -136v-245h-202v660h252l158 -301l36 -80h2l-4 136v245h202zM568 -51v-130h-388v130h388z" />
    <glyph glyph-name="uni1E49" unicode="&#x1e49;" horiz-adv-x="620" 
d="M39 0v500h207l10 -212l-23 25q7 62 31 106t64.5 67.5t96.5 23.5q50 0 85 -19.5t53.5 -57t18.5 -91.5v-342h-230v285q0 32 -9 43.5t-27 11.5q-16 0 -26.5 -7.5t-15.5 -24.5t-5 -44v-264h-230zM497 -51v-130h-388v130h388z" />
    <glyph glyph-name="uni1E4C" unicode="&#x1e4c;" horiz-adv-x="729" 
d="M365 670q105 0 180 -40t115 -116t40 -184t-40 -184t-115 -116t-180 -40q-104 0 -179.5 40t-116 116t-40.5 184t40.5 184t116 116t179.5 40zM365 495q-34 0 -55.5 -17.5t-32 -53.5t-10.5 -94q0 -57 10.5 -93.5t32 -54t55.5 -17.5t55.5 17.5t31.5 54t10 93.5q0 58 -10 94
t-31.5 53.5t-55.5 17.5zM575 879q-1 -60 -20 -99t-48.5 -58t-62.5 -19q-28 0 -48.5 7.5t-36.5 17.5t-29 17.5t-26 7.5q-14 0 -21.5 -11t-9.5 -37h-118q2 90 43 133t99 43q27 0 46 -7.5t32.5 -17.5t25.5 -17.5t26 -7.5t21 11.5t9 36.5h118zM332 1087h196l-91 -167h-163z" />
    <glyph glyph-name="uni1E4D" unicode="&#x1e4d;" horiz-adv-x="598" 
d="M299 510q84 0 146.5 -30.5t97.5 -88.5t35 -141q0 -82 -35 -140.5t-97.5 -89t-146.5 -30.5q-83 0 -146 30.5t-98 89t-35 140.5q0 83 35 141t98 88.5t146 30.5zM299 355q-15 0 -26 -8.5t-16.5 -31.5t-5.5 -65t5.5 -64.5t16.5 -31.5t26 -9q16 0 26.5 9t16 31.5t5.5 64.5
t-5.5 65t-16 31.5t-26.5 8.5zM509 719q-1 -60 -20 -99t-48.5 -58t-62.5 -19q-28 0 -48.5 7.5t-36.5 17.5t-29 17.5t-26 7.5q-14 0 -21.5 -11t-9.5 -37h-118q2 90 43 133t99 43q27 0 46 -7.5t32.5 -17.5t25.5 -17.5t26 -7.5t21 11.5t9 36.5h118zM266 927h196l-91 -167h-163z
" />
    <glyph glyph-name="uni1E4E" unicode="&#x1e4e;" horiz-adv-x="729" 
d="M365 670q105 0 180 -40t115 -116t40 -184t-40 -184t-115 -116t-180 -40q-104 0 -179.5 40t-116 116t-40.5 184t40.5 184t116 116t179.5 40zM365 495q-34 0 -55.5 -17.5t-32 -53.5t-10.5 -94q0 -57 10.5 -93.5t32 -54t55.5 -17.5t55.5 17.5t31.5 54t10 93.5q0 58 -10 94
t-31.5 53.5t-55.5 17.5zM575 879q-1 -60 -20 -99t-48.5 -58t-62.5 -19q-28 0 -48.5 7.5t-36.5 17.5t-29 17.5t-26 7.5q-14 0 -21.5 -11t-9.5 -37h-118q2 90 43 133t99 43q27 0 46 -7.5t32.5 -17.5t25.5 -17.5t26 -7.5t21 11.5t9 36.5h118zM245 1091q50 0 77.5 -23.5
t27.5 -67.5q0 -43 -27.5 -67t-77.5 -24q-49 0 -75.5 24t-26.5 67q0 44 26.5 67.5t75.5 23.5zM482 1091q50 0 77.5 -23.5t27.5 -67.5q0 -43 -27.5 -67t-77.5 -24q-49 0 -75.5 24t-26.5 67q0 44 26.5 67.5t75.5 23.5z" />
    <glyph glyph-name="uni1E4F" unicode="&#x1e4f;" horiz-adv-x="598" 
d="M299 510q84 0 146.5 -30.5t97.5 -88.5t35 -141q0 -82 -35 -140.5t-97.5 -89t-146.5 -30.5q-83 0 -146 30.5t-98 89t-35 140.5q0 83 35 141t98 88.5t146 30.5zM299 355q-15 0 -26 -8.5t-16.5 -31.5t-5.5 -65t5.5 -64.5t16.5 -31.5t26 -9q16 0 26.5 9t16 31.5t5.5 64.5
t-5.5 65t-16 31.5t-26.5 8.5zM509 719q-1 -60 -20 -99t-48.5 -58t-62.5 -19q-28 0 -48.5 7.5t-36.5 17.5t-29 17.5t-26 7.5q-14 0 -21.5 -11t-9.5 -37h-118q2 90 43 133t99 43q27 0 46 -7.5t32.5 -17.5t25.5 -17.5t26 -7.5t21 11.5t9 36.5h118zM179 931q50 0 77.5 -23.5
t27.5 -67.5q0 -43 -27.5 -67t-77.5 -24q-49 0 -75.5 24t-26.5 67q0 44 26.5 67.5t75.5 23.5zM416 931q50 0 77.5 -23.5t27.5 -67.5q0 -43 -27.5 -67t-77.5 -24q-49 0 -75.5 24t-26.5 67q0 44 26.5 67.5t75.5 23.5z" />
    <glyph glyph-name="uni1E50" unicode="&#x1e50;" horiz-adv-x="729" 
d="M365 670q105 0 180 -40t115 -116t40 -184t-40 -184t-115 -116t-180 -40q-104 0 -179.5 40t-116 116t-40.5 184t40.5 184t116 116t179.5 40zM365 495q-34 0 -55.5 -17.5t-32 -53.5t-10.5 -94q0 -57 10.5 -93.5t32 -54t55.5 -17.5t55.5 17.5t31.5 54t10 93.5q0 58 -10 94
t-31.5 53.5t-55.5 17.5zM559 841v-130h-388v130h388zM398 1055l58 -167h-163l-91 167h196z" />
    <glyph glyph-name="uni1E51" unicode="&#x1e51;" horiz-adv-x="598" 
d="M299 510q84 0 146.5 -30.5t97.5 -88.5t35 -141q0 -82 -35 -140.5t-97.5 -89t-146.5 -30.5q-83 0 -146 30.5t-98 89t-35 140.5q0 83 35 141t98 88.5t146 30.5zM299 355q-15 0 -26 -8.5t-16.5 -31.5t-5.5 -65t5.5 -64.5t16.5 -31.5t26 -9q16 0 26.5 9t16 31.5t5.5 64.5
t-5.5 65t-16 31.5t-26.5 8.5zM493 681v-130h-388v130h388zM332 895l58 -167h-163l-91 167h196z" />
    <glyph glyph-name="uni1E52" unicode="&#x1e52;" horiz-adv-x="729" 
d="M365 670q105 0 180 -40t115 -116t40 -184t-40 -184t-115 -116t-180 -40q-104 0 -179.5 40t-116 116t-40.5 184t40.5 184t116 116t179.5 40zM365 495q-34 0 -55.5 -17.5t-32 -53.5t-10.5 -94q0 -57 10.5 -93.5t32 -54t55.5 -17.5t55.5 17.5t31.5 54t10 93.5q0 58 -10 94
t-31.5 53.5t-55.5 17.5zM559 841v-130h-388v130h388zM332 1055h196l-91 -167h-163z" />
    <glyph glyph-name="uni1E53" unicode="&#x1e53;" horiz-adv-x="598" 
d="M299 510q84 0 146.5 -30.5t97.5 -88.5t35 -141q0 -82 -35 -140.5t-97.5 -89t-146.5 -30.5q-83 0 -146 30.5t-98 89t-35 140.5q0 83 35 141t98 88.5t146 30.5zM299 355q-15 0 -26 -8.5t-16.5 -31.5t-5.5 -65t5.5 -64.5t16.5 -31.5t26 -9q16 0 26.5 9t16 31.5t5.5 64.5
t-5.5 65t-16 31.5t-26.5 8.5zM493 681v-130h-388v130h388zM266 895h196l-91 -167h-163z" />
    <glyph glyph-name="uni1E5A" unicode="&#x1e5a;" horiz-adv-x="705" 
d="M408 660q129 0 198 -57.5t69 -152.5q0 -109 -67.5 -164t-196.5 -55l-23 -12h-110v-219h-228v660h358zM368 372q37 0 55.5 13.5t18.5 47.5q0 33 -18.5 47t-55.5 14h-90v-122h90zM506 323l206 -323h-253l-154 289zM362 -226q-56 0 -84 23.5t-28 70.5t28 70.5t84 23.5
q58 0 86.5 -23.5t28.5 -70.5t-28.5 -70.5t-86.5 -23.5z" />
    <glyph glyph-name="uni1E5B" unicode="&#x1e5b;" horiz-adv-x="444" 
d="M39 0v500h207l5 -125q17 62 52.5 98.5t94.5 36.5q23 0 35 -4t17 -8l-19 -185q-9 4 -26 7t-37 3q-30 0 -52 -9.5t-34.5 -27.5t-12.5 -46v-240h-230zM154 -226q-56 0 -84 23.5t-28 70.5t28 70.5t84 23.5q58 0 86.5 -23.5t28.5 -70.5t-28.5 -70.5t-86.5 -23.5z" />
    <glyph glyph-name="uni1E5E" unicode="&#x1e5e;" horiz-adv-x="705" 
d="M408 660q129 0 198 -57.5t69 -152.5q0 -109 -67.5 -164t-196.5 -55l-23 -12h-110v-219h-228v660h358zM368 372q37 0 55.5 13.5t18.5 47.5q0 33 -18.5 47t-55.5 14h-90v-122h90zM506 323l206 -323h-253l-154 289zM556 -51v-130h-388v130h388z" />
    <glyph glyph-name="uni1E5F" unicode="&#x1e5f;" horiz-adv-x="444" 
d="M39 0v500h207l5 -125q17 62 52.5 98.5t94.5 36.5q23 0 35 -4t17 -8l-19 -185q-9 4 -26 7t-37 3q-30 0 -52 -9.5t-34.5 -27.5t-12.5 -46v-240h-230zM282.781 -51v-130h-257.562v130h257.562z" />
    <glyph glyph-name="uni1E60" unicode="&#x1e60;" horiz-adv-x="648" 
d="M339 670q95 0 170.5 -23.5t133.5 -70.5l-94 -150q-47 33 -98.5 53t-111.5 20q-26 0 -41.5 -4t-22 -11t-6.5 -16q0 -12 18.5 -18t46.5 -13l91 -21q101 -23 152.5 -68t51.5 -125t-39 -131.5t-105.5 -76.5t-150.5 -25q-63 0 -126 11.5t-117 34t-93 54.5l92 153
q29 -23 70 -41.5t85 -29.5t82 -11q24 0 38 4t19.5 10.5t5.5 15.5q0 14 -11.5 21t-41.5 14l-100 22q-53 12 -101 32t-78 58.5t-30 104.5q0 68 36.5 119t106 79.5t168.5 28.5zM331 886q58 0 86.5 -23.5t28.5 -70.5t-28.5 -70.5t-86.5 -23.5q-56 0 -84 23.5t-28 70.5t28 70.5
t84 23.5z" />
    <glyph glyph-name="uni1E61" unicode="&#x1e61;" horiz-adv-x="538" 
d="M269 -10q-73 0 -140.5 20t-117.5 60l82 119q27 -24 71 -42.5t88 -18.5q17 0 30.5 4t13.5 14q0 8 -7.5 12t-32.5 8l-36 7q-109 21 -154 60t-45 105q0 41 26.5 80.5t84.5 65.5t153 26q78 0 140 -19.5t101 -53.5l-79 -114q-28 22 -71.5 35.5t-79.5 13.5q-16 0 -26 -2
t-14.5 -5.5t-4.5 -8.5q0 -7 10 -13t39 -11l71 -12q81 -13 118.5 -52t37.5 -96q0 -49 -26.5 -90.5t-83 -66.5t-148.5 -25zM280 726q58 0 86.5 -23.5t28.5 -70.5t-28.5 -70.5t-86.5 -23.5q-56 0 -84 23.5t-28 70.5t28 70.5t84 23.5z" />
    <glyph glyph-name="uni1E62" unicode="&#x1e62;" horiz-adv-x="648" 
d="M339 670q95 0 170.5 -23.5t133.5 -70.5l-94 -150q-47 33 -98.5 53t-111.5 20q-26 0 -41.5 -4t-22 -11t-6.5 -16q0 -12 18.5 -18t46.5 -13l91 -21q101 -23 152.5 -68t51.5 -125t-39 -131.5t-105.5 -76.5t-150.5 -25q-63 0 -126 11.5t-117 34t-93 54.5l92 153
q29 -23 70 -41.5t85 -29.5t82 -11q24 0 38 4t19.5 10.5t5.5 15.5q0 14 -11.5 21t-41.5 14l-100 22q-53 12 -101 32t-78 58.5t-30 104.5q0 68 36.5 119t106 79.5t168.5 28.5zM330 -226q-56 0 -84 23.5t-28 70.5t28 70.5t84 23.5q58 0 86.5 -23.5t28.5 -70.5t-28.5 -70.5
t-86.5 -23.5z" />
    <glyph glyph-name="uni1E63" unicode="&#x1e63;" horiz-adv-x="538" 
d="M269 -10q-73 0 -140.5 20t-117.5 60l82 119q27 -24 71 -42.5t88 -18.5q17 0 30.5 4t13.5 14q0 8 -7.5 12t-32.5 8l-36 7q-109 21 -154 60t-45 105q0 41 26.5 80.5t84.5 65.5t153 26q78 0 140 -19.5t101 -53.5l-79 -114q-28 22 -71.5 35.5t-79.5 13.5q-16 0 -26 -2
t-14.5 -5.5t-4.5 -8.5q0 -7 10 -13t39 -11l71 -12q81 -13 118.5 -52t37.5 -96q0 -49 -26.5 -90.5t-83 -66.5t-148.5 -25zM272 -226q-56 0 -84 23.5t-28 70.5t28 70.5t84 23.5q58 0 86.5 -23.5t28.5 -70.5t-28.5 -70.5t-86.5 -23.5z" />
    <glyph glyph-name="uni1E64" unicode="&#x1e64;" horiz-adv-x="648" 
d="M339 670q95 0 170.5 -23.5t133.5 -70.5l-94 -150q-47 33 -98.5 53t-111.5 20q-26 0 -41.5 -4t-22 -11t-6.5 -16q0 -12 18.5 -18t46.5 -13l91 -21q101 -23 152.5 -68t51.5 -125t-39 -131.5t-105.5 -76.5t-150.5 -25q-63 0 -126 11.5t-117 34t-93 54.5l92 153
q29 -23 70 -41.5t85 -29.5t82 -11q24 0 38 4t19.5 10.5t5.5 15.5q0 14 -11.5 21t-41.5 14l-100 22q-53 12 -101 32t-78 58.5t-30 104.5q0 68 36.5 119t106 79.5t168.5 28.5zM298 876h196l-91 -167h-163zM331 1105q58 0 86.5 -23.5t28.5 -70.5t-28.5 -70.5t-86.5 -23.5
q-56 0 -84 23.5t-28 70.5t28 70.5t84 23.5z" />
    <glyph glyph-name="uni1E65" unicode="&#x1e65;" horiz-adv-x="538" 
d="M269 -10q-73 0 -140.5 20t-117.5 60l82 119q27 -24 71 -42.5t88 -18.5q17 0 30.5 4t13.5 14q0 8 -7.5 12t-32.5 8l-36 7q-109 21 -154 60t-45 105q0 41 26.5 80.5t84.5 65.5t153 26q78 0 140 -19.5t101 -53.5l-79 -114q-28 22 -71.5 35.5t-79.5 13.5q-16 0 -26 -2
t-14.5 -5.5t-4.5 -8.5q0 -7 10 -13t39 -11l71 -12q81 -13 118.5 -52t37.5 -96q0 -49 -26.5 -90.5t-83 -66.5t-148.5 -25zM245 730h205l-103 -177h-162zM280 959q58 0 86.5 -23.5t28.5 -70.5t-28.5 -70.5t-86.5 -23.5q-56 0 -84 23.5t-28 70.5t28 70.5t84 23.5z" />
    <glyph glyph-name="uni1E66" unicode="&#x1e66;" horiz-adv-x="648" 
d="M339 670q95 0 170.5 -23.5t133.5 -70.5l-94 -150q-47 33 -98.5 53t-111.5 20q-26 0 -41.5 -4t-22 -11t-6.5 -16q0 -12 18.5 -18t46.5 -13l91 -21q101 -23 152.5 -68t51.5 -125t-39 -131.5t-105.5 -76.5t-150.5 -25q-63 0 -126 11.5t-117 34t-93 54.5l92 153
q29 -23 70 -41.5t85 -29.5t82 -11q24 0 38 4t19.5 10.5t5.5 15.5q0 14 -11.5 21t-41.5 14l-100 22q-53 12 -101 32t-78 58.5t-30 104.5q0 68 36.5 119t106 79.5t168.5 28.5zM534 876l-94 -167h-218l-94 167h148l55 -82l55 82h148zM331 1094q58 0 86.5 -23.5t28.5 -70.5
t-28.5 -70.5t-86.5 -23.5q-56 0 -84 23.5t-28 70.5t28 70.5t84 23.5z" />
    <glyph glyph-name="uni1E67" unicode="&#x1e67;" horiz-adv-x="538" 
d="M269 -10q-73 0 -140.5 20t-117.5 60l82 119q27 -24 71 -42.5t88 -18.5q17 0 30.5 4t13.5 14q0 8 -7.5 12t-32.5 8l-36 7q-109 21 -154 60t-45 105q0 41 26.5 80.5t84.5 65.5t153 26q78 0 140 -19.5t101 -53.5l-79 -114q-28 22 -71.5 35.5t-79.5 13.5q-16 0 -26 -2
t-14.5 -5.5t-4.5 -8.5q0 -7 10 -13t39 -11l71 -12q81 -13 118.5 -52t37.5 -96q0 -49 -26.5 -90.5t-83 -66.5t-148.5 -25zM487 730l-106 -177h-214l-106 177h156l57 -71l57 71h156zM280 949q58 0 86.5 -23.5t28.5 -70.5t-28.5 -70.5t-86.5 -23.5q-56 0 -84 23.5t-28 70.5
t28 70.5t84 23.5z" />
    <glyph glyph-name="uni1E68" unicode="&#x1e68;" horiz-adv-x="648" 
d="M339 670q95 0 170.5 -23.5t133.5 -70.5l-94 -150q-47 33 -98.5 53t-111.5 20q-26 0 -41.5 -4t-22 -11t-6.5 -16q0 -12 18.5 -18t46.5 -13l91 -21q101 -23 152.5 -68t51.5 -125t-39 -131.5t-105.5 -76.5t-150.5 -25q-63 0 -126 11.5t-117 34t-93 54.5l92 153
q29 -23 70 -41.5t85 -29.5t82 -11q24 0 38 4t19.5 10.5t5.5 15.5q0 14 -11.5 21t-41.5 14l-100 22q-53 12 -101 32t-78 58.5t-30 104.5q0 68 36.5 119t106 79.5t168.5 28.5zM331 886q58 0 86.5 -23.5t28.5 -70.5t-28.5 -70.5t-86.5 -23.5q-56 0 -84 23.5t-28 70.5t28 70.5
t84 23.5zM330 -226q-56 0 -84 23.5t-28 70.5t28 70.5t84 23.5q58 0 86.5 -23.5t28.5 -70.5t-28.5 -70.5t-86.5 -23.5z" />
    <glyph glyph-name="uni1E69" unicode="&#x1e69;" horiz-adv-x="538" 
d="M269 -10q-73 0 -140.5 20t-117.5 60l82 119q27 -24 71 -42.5t88 -18.5q17 0 30.5 4t13.5 14q0 8 -7.5 12t-32.5 8l-36 7q-109 21 -154 60t-45 105q0 41 26.5 80.5t84.5 65.5t153 26q78 0 140 -19.5t101 -53.5l-79 -114q-28 22 -71.5 35.5t-79.5 13.5q-16 0 -26 -2
t-14.5 -5.5t-4.5 -8.5q0 -7 10 -13t39 -11l71 -12q81 -13 118.5 -52t37.5 -96q0 -49 -26.5 -90.5t-83 -66.5t-148.5 -25zM280 726q58 0 86.5 -23.5t28.5 -70.5t-28.5 -70.5t-86.5 -23.5q-56 0 -84 23.5t-28 70.5t28 70.5t84 23.5zM272 -226q-56 0 -84 23.5t-28 70.5t28 70.5
t84 23.5q58 0 86.5 -23.5t28.5 -70.5t-28.5 -70.5t-86.5 -23.5z" />
    <glyph glyph-name="uni1E6C" unicode="&#x1e6c;" horiz-adv-x="686" 
d="M666 660v-171h-206v-489h-233v489h-207v171h646zM343 -226q-56 0 -84 23.5t-28 70.5t28 70.5t84 23.5q58 0 86.5 -23.5t28.5 -70.5t-28.5 -70.5t-86.5 -23.5z" />
    <glyph glyph-name="uni1E6D" unicode="&#x1e6d;" horiz-adv-x="449" 
d="M310 670v-466q0 -34 14.5 -48.5t45.5 -14.5q20 0 35 3t28 10l10 -130q-25 -16 -68 -25t-81 -9q-70 0 -117.5 17.5t-72 56.5t-24.5 104v438zM436 500v-155h-433v155h433zM253 -226q-56 0 -84 23.5t-28 70.5t28 70.5t84 23.5q58 0 86.5 -23.5t28.5 -70.5t-28.5 -70.5
t-86.5 -23.5z" />
    <glyph glyph-name="uni1E6E" unicode="&#x1e6e;" horiz-adv-x="686" 
d="M666 660v-171h-206v-489h-233v489h-207v171h646zM537 -51v-130h-388v130h388z" />
    <glyph glyph-name="uni1E6F" unicode="&#x1e6f;" horiz-adv-x="449" 
d="M310 670v-466q0 -34 14.5 -48.5t45.5 -14.5q20 0 35 3t28 10l10 -130q-25 -16 -68 -25t-81 -9q-70 0 -117.5 17.5t-72 56.5t-24.5 104v438zM436 500v-155h-433v155h433zM447 -51v-130h-388v130h388z" />
    <glyph glyph-name="uni1E78" unicode="&#x1e78;" horiz-adv-x="712" 
d="M675 660v-376q0 -148 -79.5 -221t-239.5 -73t-239.5 73t-79.5 221v376h234v-394q0 -50 22 -75.5t63 -25.5q42 0 64 25.5t22 75.5v394h233zM566 879q-1 -60 -20 -99t-48.5 -58t-62.5 -19q-28 0 -48.5 7.5t-36.5 17.5t-29 17.5t-26 7.5q-14 0 -21.5 -11t-9.5 -37h-118
q2 90 43 133t99 43q27 0 46 -7.5t32.5 -17.5t25.5 -17.5t26 -7.5t21 11.5t9 36.5h118zM323 1087h196l-91 -167h-163z" />
    <glyph glyph-name="uni1E79" unicode="&#x1e79;" horiz-adv-x="620" 
d="M200 -10q-52 0 -88 17.5t-55 55.5t-19 99v338h230v-285q0 -29 9.5 -42t28.5 -13q11 0 19.5 4.5t14 13.5t8.5 23.5t3 33.5v265h230v-500h-207l-5 106q-22 -58 -64.5 -87t-104.5 -29zM514 719q-1 -60 -20 -99t-48.5 -58t-62.5 -19q-28 0 -48.5 7.5t-36.5 17.5t-29 17.5
t-26 7.5q-14 0 -21.5 -11t-9.5 -37h-118q2 90 43 133t99 43q27 0 46 -7.5t32.5 -17.5t25.5 -17.5t26 -7.5t21 11.5t9 36.5h118zM271 927h196l-91 -167h-163z" />
    <glyph glyph-name="uni1E7A" unicode="&#x1e7a;" horiz-adv-x="712" 
d="M675 660v-376q0 -148 -79.5 -221t-239.5 -73t-239.5 73t-79.5 221v376h234v-394q0 -50 22 -75.5t63 -25.5q42 0 64 25.5t22 75.5v394h233zM550 841v-130h-388v130h388zM236 1059q50 0 77.5 -23.5t27.5 -67.5q0 -43 -27.5 -67t-77.5 -24q-49 0 -75.5 24t-26.5 67
q0 44 26.5 67.5t75.5 23.5zM473 1059q50 0 77.5 -23.5t27.5 -67.5q0 -43 -27.5 -67t-77.5 -24q-49 0 -75.5 24t-26.5 67q0 44 26.5 67.5t75.5 23.5z" />
    <glyph glyph-name="uni1E7B" unicode="&#x1e7b;" horiz-adv-x="620" 
d="M200 -10q-52 0 -88 17.5t-55 55.5t-19 99v338h230v-285q0 -29 9.5 -42t28.5 -13q11 0 19.5 4.5t14 13.5t8.5 23.5t3 33.5v265h230v-500h-207l-5 106q-22 -58 -64.5 -87t-104.5 -29zM498 681v-130h-388v130h388zM184 899q50 0 77.5 -23.5t27.5 -67.5q0 -43 -27.5 -67
t-77.5 -24q-49 0 -75.5 24t-26.5 67q0 44 26.5 67.5t75.5 23.5zM421 899q50 0 77.5 -23.5t27.5 -67.5q0 -43 -27.5 -67t-77.5 -24q-49 0 -75.5 24t-26.5 67q0 44 26.5 67.5t75.5 23.5z" />
    <glyph glyph-name="Wgrave" unicode="&#x1e80;" horiz-adv-x="1021" 
d="M179 0l-187 660h251l77 -477l93 477h200l98 -474l75 474h242l-188 -660h-247l-52 248l-26 169h-3l-26 -169l-51 -248h-256zM543 876l58 -167h-163l-91 167h196z" />
    <glyph glyph-name="wgrave" unicode="&#x1e81;" horiz-adv-x="942" 
d="M713 500h238l-136 -500h-286l-58 246l-58 -246h-286l-136 500h238l57 -343l72 343h226l72 -343zM494 730l60 -177h-162l-103 177h205z" />
    <glyph glyph-name="Wacute" unicode="&#x1e82;" horiz-adv-x="1021" 
d="M179 0l-187 660h251l77 -477l93 477h200l98 -474l75 474h242l-188 -660h-247l-52 248l-26 169h-3l-26 -169l-51 -248h-256zM477 876h196l-91 -167h-163z" />
    <glyph glyph-name="wacute" unicode="&#x1e83;" horiz-adv-x="942" 
d="M713 500h238l-136 -500h-286l-58 246l-58 -246h-286l-136 500h238l57 -343l72 343h226l72 -343zM436 730h205l-103 -177h-162z" />
    <glyph glyph-name="Wdieresis" unicode="&#x1e84;" horiz-adv-x="1021" 
d="M179 0l-187 660h251l77 -477l93 477h200l98 -474l75 474h242l-188 -660h-247l-52 248l-26 169h-3l-26 -169l-51 -248h-256zM390 880q50 0 77.5 -23.5t27.5 -67.5q0 -43 -27.5 -67t-77.5 -24q-49 0 -75.5 24t-26.5 67q0 44 26.5 67.5t75.5 23.5zM627 880q50 0 77.5 -23.5
t27.5 -67.5q0 -43 -27.5 -67t-77.5 -24q-49 0 -75.5 24t-26.5 67q0 44 26.5 67.5t75.5 23.5z" />
    <glyph glyph-name="wdieresis" unicode="&#x1e85;" horiz-adv-x="942" 
d="M713 500h238l-136 -500h-286l-58 246l-58 -246h-286l-136 500h238l57 -343l72 343h226l72 -343zM351 720q50 0 77.5 -23.5t27.5 -67.5q0 -43 -27.5 -67t-77.5 -24q-49 0 -75.5 24t-26.5 67q0 44 26.5 67.5t75.5 23.5zM588 720q50 0 77.5 -23.5t27.5 -67.5
q0 -43 -27.5 -67t-77.5 -24q-49 0 -75.5 24t-26.5 67q0 44 26.5 67.5t75.5 23.5z" />
    <glyph glyph-name="uni1E8E" unicode="&#x1e8e;" horiz-adv-x="713" 
d="M704 660l-231 -431v-229h-233v229l-231 431h232l70 -151l47 -120l47 120l70 151h229zM356 886q58 0 86.5 -23.5t28.5 -70.5t-28.5 -70.5t-86.5 -23.5q-56 0 -84 23.5t-28 70.5t28 70.5t84 23.5z" />
    <glyph glyph-name="uni1E8F" unicode="&#x1e8f;" horiz-adv-x="594" 
d="M604 500l-147 -444q-33 -99 -73.5 -158.5t-97 -86t-137.5 -26.5q-48 0 -87 9t-67 24l42 145q16 -9 34.5 -13t54.5 -4q32 0 47.5 6t21.5 21l3 8l-63 147l-143 372h251l45 -258l19 -117l22 118l50 257h225zM323 726q58 0 86.5 -23.5t28.5 -70.5t-28.5 -70.5t-86.5 -23.5
q-56 0 -84 23.5t-28 70.5t28 70.5t84 23.5z" />
    <glyph glyph-name="uni1E92" unicode="&#x1e92;" horiz-adv-x="637" 
d="M201 89l-41 77h462v-166h-597v159l412 412l40 -77h-448v166h582v-159zM306 -226q-56 0 -84 23.5t-28 70.5t28 70.5t84 23.5q58 0 86.5 -23.5t28.5 -70.5t-28.5 -70.5t-86.5 -23.5z" />
    <glyph glyph-name="uni1E93" unicode="&#x1e93;" horiz-adv-x="504" 
d="M21 0v132l156 172l47 46l-73 -2h-130v152h457v-132l-153 -170l-49 -48l82 2h130v-152h-467zM251 -226q-56 0 -84 23.5t-28 70.5t28 70.5t84 23.5q58 0 86.5 -23.5t28.5 -70.5t-28.5 -70.5t-86.5 -23.5z" />
    <glyph glyph-name="uni1E97" unicode="&#x1e97;" horiz-adv-x="449" 
d="M310 670v-466q0 -34 14.5 -48.5t45.5 -14.5q20 0 35 3t28 10l10 -130q-25 -16 -68 -25t-81 -9q-70 0 -117.5 17.5t-72 56.5t-24.5 104v438zM436 500v-155h-433v155h433zM75 880q50 0 77.5 -23.5t27.5 -67.5q0 -43 -27.5 -67t-77.5 -24q-49 0 -75.5 24t-26.5 67
q0 44 26.5 67.5t75.5 23.5zM312 880q50 0 77.5 -23.5t27.5 -67.5q0 -43 -27.5 -67t-77.5 -24q-49 0 -75.5 24t-26.5 67q0 44 26.5 67.5t75.5 23.5z" />
    <glyph glyph-name="uni1E9E" unicode="&#x1e9e;" horiz-adv-x="728" 
d="M496 -5q-77 0 -120 14t-72 40l54 128q19 -14 36.5 -20t48.5 -6q18 0 32 5.5t21.5 16t7.5 25.5q0 25 -18 35t-47 10h-96v113l129 138h-76q-40 0 -67 -15t-41 -44t-14 -73v-362h-233v403q0 81 36 138.5t104.5 88t164.5 30.5h336v-162l-198 -218l50 75h21q35 0 72.5 -16
t63.5 -52.5t26 -97.5q0 -67 -29 -109.5t-79 -63.5t-113 -21z" />
    <glyph glyph-name="uni1EA0" unicode="&#x1ea0;" horiz-adv-x="689" 
d="M-10 0l214 660h280l215 -660h-238l-90 379l-27 112h-3l-26 -112l-93 -379h-232zM157 126v145h377v-145h-377zM344 -226q-56 0 -84 23.5t-28 70.5t28 70.5t84 23.5q58 0 86.5 -23.5t28.5 -70.5t-28.5 -70.5t-86.5 -23.5z" />
    <glyph glyph-name="uni1EA1" unicode="&#x1ea1;" 
d="M310 312q0 23 -10.5 36t-32.5 13q-21 0 -35 -12t-16 -48l-194 28q7 83 72 132t189 49q87 0 143.5 -24t84 -67t27.5 -100v-155q0 -41 39 -41q11 0 17 3l-10 -118q-37 -18 -89 -18q-47 0 -83.5 13.5t-57 41t-20.5 70.5v10h22q-1 -38 -24.5 -68.5t-62.5 -48.5t-89 -18
q-53 0 -89.5 16t-55.5 46t-19 71q0 55 35 89.5t101 47.5l174 36l-1 -81l-54 -13q-21 -5 -30 -16.5t-9 -28.5q0 -16 10 -26t28 -10q8 0 15.5 3t13 9t8.5 14.5t3 19.5v145zM284 -226q-56 0 -84 23.5t-28 70.5t28 70.5t84 23.5q58 0 86.5 -23.5t28.5 -70.5t-28.5 -70.5
t-86.5 -23.5z" />
    <glyph glyph-name="uni1EA2" unicode="&#x1ea2;" horiz-adv-x="689" 
d="M-10 0l214 660h280l215 -660h-238l-90 379l-27 112h-3l-26 -112l-93 -379h-232zM157 126v145h377v-145h-377zM345 690l-43 62q29 11 40 23t11 23q0 13 -7.5 21t-22.5 8q-14 0 -21.5 -7t-12.5 -19l-98 42q11 46 50 71t95 25q34 0 65.5 -12t51.5 -37t20 -64
q0 -43 -21.5 -70.5t-51.5 -43t-55 -22.5z" />
    <glyph glyph-name="uni1EA3" unicode="&#x1ea3;" 
d="M310 312q0 23 -10.5 36t-32.5 13q-21 0 -35 -12t-16 -48l-194 28q7 83 72 132t189 49q87 0 143.5 -24t84 -67t27.5 -100v-155q0 -41 39 -41q11 0 17 3l-10 -118q-37 -18 -89 -18q-47 0 -83.5 13.5t-57 41t-20.5 70.5v10h22q-1 -38 -24.5 -68.5t-62.5 -48.5t-89 -18
q-53 0 -89.5 16t-55.5 46t-19 71q0 55 35 89.5t101 47.5l174 36l-1 -81l-54 -13q-21 -5 -30 -16.5t-9 -28.5q0 -16 10 -26t28 -10q8 0 15.5 3t13 9t8.5 14.5t3 19.5v145zM278 540l-43 62q29 11 40 23t11 23q0 13 -7.5 21t-22.5 8q-14 0 -21.5 -7t-12.5 -19l-98 42
q11 46 50 71t95 25q34 0 65.5 -12t51.5 -37t20 -64q0 -43 -21.5 -70.5t-51.5 -43t-55 -22.5z" />
    <glyph glyph-name="uni1EA4" unicode="&#x1ea4;" horiz-adv-x="689" 
d="M536 707h-141l-51 64l-51 -64h-141l96 160h192zM561 952h177l-82 -150h-147zM-10 0l214 660h280l215 -660h-238l-90 379l-27 112h-3l-26 -112l-93 -379h-232zM157 126v145h377v-145h-377z" />
    <glyph glyph-name="uni1EA5" unicode="&#x1ea5;" 
d="M469 547h-141l-51 64l-51 -64h-141l96 160h192zM494 792h177l-82 -150h-147zM310 312q0 23 -10.5 36t-32.5 13q-21 0 -35 -12t-16 -48l-194 28q7 83 72 132t189 49q87 0 143.5 -24t84 -67t27.5 -100v-155q0 -41 39 -41q11 0 17 3l-10 -118q-37 -18 -89 -18
q-47 0 -83.5 13.5t-57 41t-20.5 70.5v10h22q-1 -38 -24.5 -68.5t-62.5 -48.5t-89 -18q-53 0 -89.5 16t-55.5 46t-19 71q0 55 35 89.5t101 47.5l174 36l-1 -81l-54 -13q-21 -5 -30 -16.5t-9 -28.5q0 -16 10 -26t28 -10q8 0 15.5 3t13 9t8.5 14.5t3 19.5v145z" />
    <glyph glyph-name="uni1EA6" unicode="&#x1ea6;" horiz-adv-x="689" 
d="M536 707h-141l-51 64l-51 -64h-141l96 160h192zM621 952l52 -150h-147l-82 150h177zM-10 0l214 660h280l215 -660h-238l-90 379l-27 112h-3l-26 -112l-93 -379h-232zM157 126v145h377v-145h-377z" />
    <glyph glyph-name="uni1EA7" unicode="&#x1ea7;" 
d="M469 547h-141l-51 64l-51 -64h-141l96 160h192zM554 792l52 -150h-147l-82 150h177zM310 312q0 23 -10.5 36t-32.5 13q-21 0 -35 -12t-16 -48l-194 28q7 83 72 132t189 49q87 0 143.5 -24t84 -67t27.5 -100v-155q0 -41 39 -41q11 0 17 3l-10 -118q-37 -18 -89 -18
q-47 0 -83.5 13.5t-57 41t-20.5 70.5v10h22q-1 -38 -24.5 -68.5t-62.5 -48.5t-89 -18q-53 0 -89.5 16t-55.5 46t-19 71q0 55 35 89.5t101 47.5l174 36l-1 -81l-54 -13q-21 -5 -30 -16.5t-9 -28.5q0 -16 10 -26t28 -10q8 0 15.5 3t13 9t8.5 14.5t3 19.5v145z" />
    <glyph glyph-name="uni1EA8" unicode="&#x1ea8;" horiz-adv-x="689" 
d="M536 707h-141l-51 64l-51 -64h-141l96 160h192zM531 788l-43 62q29 11 40 23t11 23q0 13 -7.5 21t-22.5 8q-14 0 -21.5 -7t-12.5 -19l-98 42q11 46 50 71t95 25q34 0 65.5 -12t51.5 -37t20 -64q0 -43 -21.5 -70.5t-51.5 -43t-55 -22.5zM-10 0l214 660h280l215 -660h-238
l-90 379l-27 112h-3l-26 -112l-93 -379h-232zM157 126v145h377v-145h-377z" />
    <glyph glyph-name="uni1EA9" unicode="&#x1ea9;" 
d="M469 547h-141l-51 64l-51 -64h-141l96 160h192zM464 628l-43 62q29 11 40 23t11 23q0 13 -7.5 21t-22.5 8q-14 0 -21.5 -7t-12.5 -19l-98 42q11 46 50 71t95 25q34 0 65.5 -12t51.5 -37t20 -64q0 -43 -21.5 -70.5t-51.5 -43t-55 -22.5zM310 312q0 23 -10.5 36t-32.5 13
q-21 0 -35 -12t-16 -48l-194 28q7 83 72 132t189 49q87 0 143.5 -24t84 -67t27.5 -100v-155q0 -41 39 -41q11 0 17 3l-10 -118q-37 -18 -89 -18q-47 0 -83.5 13.5t-57 41t-20.5 70.5v10h22q-1 -38 -24.5 -68.5t-62.5 -48.5t-89 -18q-53 0 -89.5 16t-55.5 46t-19 71
q0 55 35 89.5t101 47.5l174 36l-1 -81l-54 -13q-21 -5 -30 -16.5t-9 -28.5q0 -16 10 -26t28 -10q8 0 15.5 3t13 9t8.5 14.5t3 19.5v145z" />
    <glyph glyph-name="uni1EAA" unicode="&#x1eaa;" horiz-adv-x="689" 
d="M536 707h-141l-51 64l-51 -64h-141l96 160h192zM534 1047q-2 -81 -37.5 -119.5t-80.5 -38.5q-25 0 -43.5 6.5t-33 15.5t-26 16t-23.5 7q-13 0 -19.5 -10.5t-8.5 -32.5h-106q2 81 39 119.5t89 38.5q24 0 41 -7t29.5 -16t23 -15.5t23.5 -6.5q12 0 18.5 10t8.5 33h106z
M-10 0l214 660h280l215 -660h-238l-90 379l-27 112h-3l-26 -112l-93 -379h-232zM157 126v145h377v-145h-377z" />
    <glyph glyph-name="uni1EAB" unicode="&#x1eab;" 
d="M469 547h-141l-51 64l-51 -64h-141l96 160h192zM467 887q-2 -81 -37.5 -119.5t-80.5 -38.5q-25 0 -43.5 6.5t-33 15.5t-26 16t-23.5 7q-13 0 -19.5 -10.5t-8.5 -32.5h-106q2 81 39 119.5t89 38.5q24 0 41 -7t29.5 -16t23 -15.5t23.5 -6.5q12 0 18.5 10t8.5 33h106z
M310 312q0 23 -10.5 36t-32.5 13q-21 0 -35 -12t-16 -48l-194 28q7 83 72 132t189 49q87 0 143.5 -24t84 -67t27.5 -100v-155q0 -41 39 -41q11 0 17 3l-10 -118q-37 -18 -89 -18q-47 0 -83.5 13.5t-57 41t-20.5 70.5v10h22q-1 -38 -24.5 -68.5t-62.5 -48.5t-89 -18
q-53 0 -89.5 16t-55.5 46t-19 71q0 55 35 89.5t101 47.5l174 36l-1 -81l-54 -13q-21 -5 -30 -16.5t-9 -28.5q0 -16 10 -26t28 -10q8 0 15.5 3t13 9t8.5 14.5t3 19.5v145z" />
    <glyph glyph-name="uni1EAC" unicode="&#x1eac;" horiz-adv-x="689" 
d="M-10 0l214 660h280l215 -660h-238l-90 379l-27 112h-3l-26 -112l-93 -379h-232zM157 126v145h377v-145h-377zM344 -226q-56 0 -84 23.5t-28 70.5t28 70.5t84 23.5q58 0 86.5 -23.5t28.5 -70.5t-28.5 -70.5t-86.5 -23.5zM547 709h-148l-55 82l-55 -82h-148l94 167h218z
" />
    <glyph glyph-name="uni1EAD" unicode="&#x1ead;" 
d="M310 312q0 23 -10.5 36t-32.5 13q-21 0 -35 -12t-16 -48l-194 28q7 83 72 132t189 49q87 0 143.5 -24t84 -67t27.5 -100v-155q0 -41 39 -41q11 0 17 3l-10 -118q-37 -18 -89 -18q-47 0 -83.5 13.5t-57 41t-20.5 70.5v10h22q-1 -38 -24.5 -68.5t-62.5 -48.5t-89 -18
q-53 0 -89.5 16t-55.5 46t-19 71q0 55 35 89.5t101 47.5l174 36l-1 -81l-54 -13q-21 -5 -30 -16.5t-9 -28.5q0 -16 10 -26t28 -10q8 0 15.5 3t13 9t8.5 14.5t3 19.5v145zM284 -226q-56 0 -84 23.5t-28 70.5t28 70.5t84 23.5q58 0 86.5 -23.5t28.5 -70.5t-28.5 -70.5
t-86.5 -23.5zM490 547h-156l-57 71l-57 -71h-156l106 177h214z" />
    <glyph glyph-name="uni1EAE" unicode="&#x1eae;" horiz-adv-x="689" 
d="M509 856q0 -75 -44 -115.5t-121 -40.5t-121 40.5t-44 115.5h125q0 -25 10 -37.5t30 -12.5t30 12.5t10 37.5h125zM259 880l52 151h176l-82 -151h-146zM-10 0l214 660h280l215 -660h-238l-90 379l-27 112h-3l-26 -112l-93 -379h-232zM157 126v145h377v-145h-377z" />
    <glyph glyph-name="uni1EAF" unicode="&#x1eaf;" 
d="M442 696q0 -75 -44 -115.5t-121 -40.5t-121 40.5t-44 115.5h125q0 -25 10 -37.5t30 -12.5t30 12.5t10 37.5h125zM192 720l52 151h176l-82 -151h-146zM310 312q0 23 -10.5 36t-32.5 13q-21 0 -35 -12t-16 -48l-194 28q7 83 72 132t189 49q87 0 143.5 -24t84 -67t27.5 -100
v-155q0 -41 39 -41q11 0 17 3l-10 -118q-37 -18 -89 -18q-47 0 -83.5 13.5t-57 41t-20.5 70.5v10h22q-1 -38 -24.5 -68.5t-62.5 -48.5t-89 -18q-53 0 -89.5 16t-55.5 46t-19 71q0 55 35 89.5t101 47.5l174 36l-1 -81l-54 -13q-21 -5 -30 -16.5t-9 -28.5q0 -16 10 -26t28 -10
q8 0 15.5 3t13 9t8.5 14.5t3 19.5v145z" />
    <glyph glyph-name="uni1EB0" unicode="&#x1eb0;" horiz-adv-x="689" 
d="M509 856q0 -75 -44 -115.5t-121 -40.5t-121 40.5t-44 115.5h125q0 -25 10 -37.5t30 -12.5t30 12.5t10 37.5h125zM430 880h-147l-82 151h176zM-10 0l214 660h280l215 -660h-238l-90 379l-27 112h-3l-26 -112l-93 -379h-232zM157 126v145h377v-145h-377z" />
    <glyph glyph-name="uni1EB1" unicode="&#x1eb1;" 
d="M442 696q0 -75 -44 -115.5t-121 -40.5t-121 40.5t-44 115.5h125q0 -25 10 -37.5t30 -12.5t30 12.5t10 37.5h125zM363 720h-147l-82 151h176zM310 312q0 23 -10.5 36t-32.5 13q-21 0 -35 -12t-16 -48l-194 28q7 83 72 132t189 49q87 0 143.5 -24t84 -67t27.5 -100v-155
q0 -41 39 -41q11 0 17 3l-10 -118q-37 -18 -89 -18q-47 0 -83.5 13.5t-57 41t-20.5 70.5v10h22q-1 -38 -24.5 -68.5t-62.5 -48.5t-89 -18q-53 0 -89.5 16t-55.5 46t-19 71q0 55 35 89.5t101 47.5l174 36l-1 -81l-54 -13q-21 -5 -30 -16.5t-9 -28.5q0 -16 10 -26t28 -10
q8 0 15.5 3t13 9t8.5 14.5t3 19.5v145z" />
    <glyph glyph-name="uni1EB2" unicode="&#x1eb2;" horiz-adv-x="689" 
d="M509 856q0 -75 -44 -115.5t-121 -40.5t-121 40.5t-44 115.5h125q0 -25 10 -37.5t30 -12.5t30 12.5t10 37.5h125zM345 863l-39 57q26 9 36 20t10 21q0 12 -6.5 19.5t-20.5 7.5q-13 0 -20 -6.5t-11 -17.5l-89 38q10 42 45.5 65t86.5 23q31 0 59.5 -11.5t46.5 -34t18 -57.5
q0 -40 -19.5 -65t-46.5 -38.5t-50 -20.5zM-10 0l214 660h280l215 -660h-238l-90 379l-27 112h-3l-26 -112l-93 -379h-232zM157 126v145h377v-145h-377z" />
    <glyph glyph-name="uni1EB3" unicode="&#x1eb3;" 
d="M442 696q0 -75 -44 -115.5t-121 -40.5t-121 40.5t-44 115.5h125q0 -25 10 -37.5t30 -12.5t30 12.5t10 37.5h125zM278 703l-39 57q26 9 36 20t10 21q0 12 -6.5 19.5t-20.5 7.5q-13 0 -20 -6.5t-11 -17.5l-89 38q10 42 45.5 65t86.5 23q31 0 59.5 -11.5t46.5 -34t18 -57.5
q0 -40 -19.5 -65t-46.5 -38.5t-50 -20.5zM310 312q0 23 -10.5 36t-32.5 13q-21 0 -35 -12t-16 -48l-194 28q7 83 72 132t189 49q87 0 143.5 -24t84 -67t27.5 -100v-155q0 -41 39 -41q11 0 17 3l-10 -118q-37 -18 -89 -18q-47 0 -83.5 13.5t-57 41t-20.5 70.5v10h22
q-1 -38 -24.5 -68.5t-62.5 -48.5t-89 -18q-53 0 -89.5 16t-55.5 46t-19 71q0 55 35 89.5t101 47.5l174 36l-1 -81l-54 -13q-21 -5 -30 -16.5t-9 -28.5q0 -16 10 -26t28 -10q8 0 15.5 3t13 9t8.5 14.5t3 19.5v145z" />
    <glyph glyph-name="uni1EB4" unicode="&#x1eb4;" horiz-adv-x="689" 
d="M509 856q0 -75 -44 -115.5t-121 -40.5t-121 40.5t-44 115.5h125q0 -25 10 -37.5t30 -12.5t30 12.5t10 37.5h125zM534 1035q-2 -81 -37.5 -119.5t-80.5 -38.5q-25 0 -43.5 6.5t-33 15.5t-26 16t-23.5 7q-13 0 -19.5 -10.5t-8.5 -32.5h-106q2 81 39 119.5t89 38.5
q24 0 41 -7t29.5 -16t23 -15.5t23.5 -6.5q12 0 18.5 10t8.5 33h106zM-10 0l214 660h280l215 -660h-238l-90 379l-27 112h-3l-26 -112l-93 -379h-232zM157 126v145h377v-145h-377z" />
    <glyph glyph-name="uni1EB5" unicode="&#x1eb5;" 
d="M441 696q0 -75 -44 -115.5t-121 -40.5t-121 40.5t-44 115.5h125q0 -25 10 -37.5t30 -12.5t30 12.5t10 37.5h125zM466 875q-2 -81 -37.5 -119.5t-80.5 -38.5q-25 0 -43.5 6.5t-33 15.5t-26 16t-23.5 7q-13 0 -19.5 -10.5t-8.5 -32.5h-106q2 81 39 119.5t89 38.5
q24 0 41 -7t29.5 -16t23 -15.5t23.5 -6.5q12 0 18.5 10t8.5 33h106zM310 312q0 23 -10.5 36t-32.5 13q-21 0 -35 -12t-16 -48l-194 28q7 83 72 132t189 49q87 0 143.5 -24t84 -67t27.5 -100v-155q0 -41 39 -41q11 0 17 3l-10 -118q-37 -18 -89 -18q-47 0 -83.5 13.5t-57 41
t-20.5 70.5v10h22q-1 -38 -24.5 -68.5t-62.5 -48.5t-89 -18q-53 0 -89.5 16t-55.5 46t-19 71q0 55 35 89.5t101 47.5l174 36l-1 -81l-54 -13q-21 -5 -30 -16.5t-9 -28.5q0 -16 10 -26t28 -10q8 0 15.5 3t13 9t8.5 14.5t3 19.5v145z" />
    <glyph glyph-name="uni1EB6" unicode="&#x1eb6;" horiz-adv-x="689" 
d="M-10 0l214 660h280l215 -660h-238l-90 379l-27 112h-3l-26 -112l-93 -379h-232zM157 126v145h377v-145h-377zM344 -226q-56 0 -84 23.5t-28 70.5t28 70.5t84 23.5q58 0 86.5 -23.5t28.5 -70.5t-28.5 -70.5t-86.5 -23.5zM527 873q0 -82 -48.5 -127.5t-134.5 -45.5
q-85 0 -134 45.5t-49 127.5h139q0 -27 11 -41t33 -14q23 0 33.5 14t10.5 41h139z" />
    <glyph glyph-name="uni1EB7" unicode="&#x1eb7;" 
d="M310 312q0 23 -10.5 36t-32.5 13q-21 0 -35 -12t-16 -48l-194 28q7 83 72 132t189 49q87 0 143.5 -24t84 -67t27.5 -100v-155q0 -41 39 -41q11 0 17 3l-10 -118q-37 -18 -89 -18q-47 0 -83.5 13.5t-57 41t-20.5 70.5v10h22q-1 -38 -24.5 -68.5t-62.5 -48.5t-89 -18
q-53 0 -89.5 16t-55.5 46t-19 71q0 55 35 89.5t101 47.5l174 36l-1 -81l-54 -13q-21 -5 -30 -16.5t-9 -28.5q0 -16 10 -26t28 -10q8 0 15.5 3t13 9t8.5 14.5t3 19.5v145zM284 -226q-56 0 -84 23.5t-28 70.5t28 70.5t84 23.5q58 0 86.5 -23.5t28.5 -70.5t-28.5 -70.5
t-86.5 -23.5zM460 713q0 -82 -48.5 -127.5t-134.5 -45.5q-85 0 -134 45.5t-49 127.5h139q0 -27 11 -41t33 -14q23 0 33.5 14t10.5 41h139z" />
    <glyph glyph-name="uni1EB8" unicode="&#x1eb8;" horiz-adv-x="626" 
d="M50 0v660h548v-171h-315v-82h254v-158h-254v-78h327v-171h-560zM338 -226q-56 0 -84 23.5t-28 70.5t28 70.5t84 23.5q58 0 86.5 -23.5t28.5 -70.5t-28.5 -70.5t-86.5 -23.5z" />
    <glyph glyph-name="uni1EB9" unicode="&#x1eb9;" horiz-adv-x="580" 
d="M306 -10q-90 0 -154 30.5t-98 88.5t-34 141t34.5 141t97 88.5t145.5 30.5q85 0 144.5 -30.5t90.5 -85.5t31 -128q0 -16 -1.5 -33t-3.5 -27h-390v85h290l-109 -43q0 54 -9.5 82t-41.5 28q-21 0 -34.5 -10t-19.5 -34.5t-6 -67.5t8 -65.5t23.5 -30t39.5 -7.5q26 0 40.5 11.5
t19.5 31.5l185 -50q-11 -49 -49 -81.5t-90.5 -48.5t-108.5 -16zM296 -226q-56 0 -84 23.5t-28 70.5t28 70.5t84 23.5q58 0 86.5 -23.5t28.5 -70.5t-28.5 -70.5t-86.5 -23.5z" />
    <glyph glyph-name="uni1EBA" unicode="&#x1eba;" horiz-adv-x="626" 
d="M50 0v660h548v-171h-315v-82h254v-158h-254v-78h327v-171h-560zM325 690l-43 62q29 11 40 23t11 23q0 13 -7.5 21t-22.5 8q-14 0 -21.5 -7t-12.5 -19l-98 42q11 46 50 71t95 25q34 0 65.5 -12t51.5 -37t20 -64q0 -43 -21.5 -70.5t-51.5 -43t-55 -22.5z" />
    <glyph glyph-name="uni1EBB" unicode="&#x1ebb;" horiz-adv-x="580" 
d="M306 -10q-90 0 -154 30.5t-98 88.5t-34 141t34.5 141t97 88.5t145.5 30.5q85 0 144.5 -30.5t90.5 -85.5t31 -128q0 -16 -1.5 -33t-3.5 -27h-390v85h290l-109 -43q0 54 -9.5 82t-41.5 28q-21 0 -34.5 -10t-19.5 -34.5t-6 -67.5t8 -65.5t23.5 -30t39.5 -7.5q26 0 40.5 11.5
t19.5 31.5l185 -50q-11 -49 -49 -81.5t-90.5 -48.5t-108.5 -16zM297 540l-43 62q29 11 40 23t11 23q0 13 -7.5 21t-22.5 8q-14 0 -21.5 -7t-12.5 -19l-98 42q11 46 50 71t95 25q34 0 65.5 -12t51.5 -37t20 -64q0 -43 -21.5 -70.5t-51.5 -43t-55 -22.5z" />
    <glyph glyph-name="uni1EBC" unicode="&#x1ebc;" horiz-adv-x="626" 
d="M50 0v660h548v-171h-315v-82h254v-158h-254v-78h327v-171h-560zM534 879q-1 -60 -20 -99t-48.5 -58t-62.5 -19q-28 0 -48.5 7.5t-36.5 17.5t-29 17.5t-26 7.5q-14 0 -21.5 -11t-9.5 -37h-118q2 90 43 133t99 43q27 0 46 -7.5t32.5 -17.5t25.5 -17.5t26 -7.5t21 11.5
t9 36.5h118z" />
    <glyph glyph-name="uni1EBD" unicode="&#x1ebd;" horiz-adv-x="580" 
d="M306 -10q-90 0 -154 30.5t-98 88.5t-34 141t34.5 141t97 88.5t145.5 30.5q85 0 144.5 -30.5t90.5 -85.5t31 -128q0 -16 -1.5 -33t-3.5 -27h-390v85h290l-109 -43q0 54 -9.5 82t-41.5 28q-21 0 -34.5 -10t-19.5 -34.5t-6 -67.5t8 -65.5t23.5 -30t39.5 -7.5q26 0 40.5 11.5
t19.5 31.5l185 -50q-11 -49 -49 -81.5t-90.5 -48.5t-108.5 -16zM506 719q-1 -60 -20 -99t-48.5 -58t-62.5 -19q-28 0 -48.5 7.5t-36.5 17.5t-29 17.5t-26 7.5q-14 0 -21.5 -11t-9.5 -37h-118q2 90 43 133t99 43q27 0 46 -7.5t32.5 -17.5t25.5 -17.5t26 -7.5t21 11.5t9 36.5
h118z" />
    <glyph glyph-name="uni1EBE" unicode="&#x1ebe;" horiz-adv-x="626" 
d="M516 707h-141l-51 64l-51 -64h-141l96 160h192zM541 952h177l-82 -150h-147zM50 0v660h548v-171h-315v-82h254v-158h-254v-78h327v-171h-560z" />
    <glyph glyph-name="uni1EBF" unicode="&#x1ebf;" horiz-adv-x="580" 
d="M513 792h177l-82 -150h-147zM488 547h-141l-51 64l-51 -64h-141l96 160h192zM306 -10q-90 0 -154 30.5t-98 88.5t-34 141t34.5 141t97 88.5t145.5 30.5q85 0 144.5 -30.5t90.5 -85.5t31 -128q0 -16 -1.5 -33t-3.5 -27h-390v85h290l-109 -43q0 54 -9.5 82t-41.5 28
q-21 0 -34.5 -10t-19.5 -34.5t-6 -67.5t8 -65.5t23.5 -30t39.5 -7.5q26 0 40.5 11.5t19.5 31.5l185 -50q-11 -49 -49 -81.5t-90.5 -48.5t-108.5 -16z" />
    <glyph glyph-name="uni1EC0" unicode="&#x1ec0;" horiz-adv-x="626" 
d="M516 707h-141l-51 64l-51 -64h-141l96 160h192zM601 952l52 -150h-147l-82 150h177zM50 0v660h548v-171h-315v-82h254v-158h-254v-78h327v-171h-560z" />
    <glyph glyph-name="uni1EC1" unicode="&#x1ec1;" horiz-adv-x="580" 
d="M573 792l52 -150h-147l-82 150h177zM488 547h-141l-51 64l-51 -64h-141l96 160h192zM306 -10q-90 0 -154 30.5t-98 88.5t-34 141t34.5 141t97 88.5t145.5 30.5q85 0 144.5 -30.5t90.5 -85.5t31 -128q0 -16 -1.5 -33t-3.5 -27h-390v85h290l-109 -43q0 54 -9.5 82t-41.5 28
q-21 0 -34.5 -10t-19.5 -34.5t-6 -67.5t8 -65.5t23.5 -30t39.5 -7.5q26 0 40.5 11.5t19.5 31.5l185 -50q-11 -49 -49 -81.5t-90.5 -48.5t-108.5 -16z" />
    <glyph glyph-name="uni1EC2" unicode="&#x1ec2;" horiz-adv-x="626" 
d="M516 707h-141l-51 64l-51 -64h-141l96 160h192zM511 788l-43 62q29 11 40 23t11 23q0 13 -7.5 21t-22.5 8q-14 0 -21.5 -7t-12.5 -19l-98 42q11 46 50 71t95 25q34 0 65.5 -12t51.5 -37t20 -64q0 -43 -21.5 -70.5t-51.5 -43t-55 -22.5zM50 0v660h548v-171h-315v-82h254
v-158h-254v-78h327v-171h-560z" />
    <glyph glyph-name="uni1EC3" unicode="&#x1ec3;" horiz-adv-x="580" 
d="M483 628l-43 62q29 11 40 23t11 23q0 13 -7.5 21t-22.5 8q-14 0 -21.5 -7t-12.5 -19l-98 42q11 46 50 71t95 25q34 0 65.5 -12t51.5 -37t20 -64q0 -43 -21.5 -70.5t-51.5 -43t-55 -22.5zM488 547h-141l-51 64l-51 -64h-141l96 160h192zM306 -10q-90 0 -154 30.5t-98 88.5
t-34 141t34.5 141t97 88.5t145.5 30.5q85 0 144.5 -30.5t90.5 -85.5t31 -128q0 -16 -1.5 -33t-3.5 -27h-390v85h290l-109 -43q0 54 -9.5 82t-41.5 28q-21 0 -34.5 -10t-19.5 -34.5t-6 -67.5t8 -65.5t23.5 -30t39.5 -7.5q26 0 40.5 11.5t19.5 31.5l185 -50q-11 -49 -49 -81.5
t-90.5 -48.5t-108.5 -16z" />
    <glyph glyph-name="uni1EC4" unicode="&#x1ec4;" horiz-adv-x="626" 
d="M516 707h-141l-51 64l-51 -64h-141l96 160h192zM514 1047q-2 -81 -37.5 -119.5t-80.5 -38.5q-25 0 -43.5 6.5t-33 15.5t-26 16t-23.5 7q-13 0 -19.5 -10.5t-8.5 -32.5h-106q2 81 39 119.5t89 38.5q24 0 41 -7t29.5 -16t23 -15.5t23.5 -6.5q12 0 18.5 10t8.5 33h106zM50 0
v660h548v-171h-315v-82h254v-158h-254v-78h327v-171h-560z" />
    <glyph glyph-name="uni1EC5" unicode="&#x1ec5;" horiz-adv-x="580" 
d="M488 547h-141l-51 64l-51 -64h-141l96 160h192zM486 887q-2 -81 -37.5 -119.5t-80.5 -38.5q-25 0 -43.5 6.5t-33 15.5t-26 16t-23.5 7q-13 0 -19.5 -10.5t-8.5 -32.5h-106q2 81 39 119.5t89 38.5q24 0 41 -7t29.5 -16t23 -15.5t23.5 -6.5q12 0 18.5 10t8.5 33h106z
M306 -10q-90 0 -154 30.5t-98 88.5t-34 141t34.5 141t97 88.5t145.5 30.5q85 0 144.5 -30.5t90.5 -85.5t31 -128q0 -16 -1.5 -33t-3.5 -27h-390v85h290l-109 -43q0 54 -9.5 82t-41.5 28q-21 0 -34.5 -10t-19.5 -34.5t-6 -67.5t8 -65.5t23.5 -30t39.5 -7.5q26 0 40.5 11.5
t19.5 31.5l185 -50q-11 -49 -49 -81.5t-90.5 -48.5t-108.5 -16z" />
    <glyph glyph-name="uni1EC6" unicode="&#x1ec6;" horiz-adv-x="626" 
d="M50 0v660h548v-171h-315v-82h254v-158h-254v-78h327v-171h-560zM338 -226q-56 0 -84 23.5t-28 70.5t28 70.5t84 23.5q58 0 86.5 -23.5t28.5 -70.5t-28.5 -70.5t-86.5 -23.5zM527 709h-148l-55 82l-55 -82h-148l94 167h218z" />
    <glyph glyph-name="uni1EC7" unicode="&#x1ec7;" horiz-adv-x="580" 
d="M306 -10q-90 0 -154 30.5t-98 88.5t-34 141t34.5 141t97 88.5t145.5 30.5q85 0 144.5 -30.5t90.5 -85.5t31 -128q0 -16 -1.5 -33t-3.5 -27h-390v85h290l-109 -43q0 54 -9.5 82t-41.5 28q-21 0 -34.5 -10t-19.5 -34.5t-6 -67.5t8 -65.5t23.5 -30t39.5 -7.5q26 0 40.5 11.5
t19.5 31.5l185 -50q-11 -49 -49 -81.5t-90.5 -48.5t-108.5 -16zM296 -226q-56 0 -84 23.5t-28 70.5t28 70.5t84 23.5q58 0 86.5 -23.5t28.5 -70.5t-28.5 -70.5t-86.5 -23.5zM509 547h-156l-57 71l-57 -71h-156l106 177h214z" />
    <glyph glyph-name="uni1EC8" unicode="&#x1ec8;" horiz-adv-x="333" 
d="M283 660v-660h-233v660h233zM167 690l-43 62q29 11 40 23t11 23q0 13 -7.5 21t-22.5 8q-14 0 -21.5 -7t-12.5 -19l-98 42q11 46 50 71t95 25q34 0 65.5 -12t51.5 -37t20 -64q0 -43 -21.5 -70.5t-51.5 -43t-55 -22.5z" />
    <glyph glyph-name="uni1EC9" unicode="&#x1ec9;" horiz-adv-x="308" 
d="M269 500v-500h-230v500h230zM155 540l-43 62q29 11 40 23t11 23q0 13 -7.5 21t-22.5 8q-14 0 -21.5 -7t-12.5 -19l-98 42q11 46 50 71t95 25q34 0 65.5 -12t51.5 -37t20 -64q0 -43 -21.5 -70.5t-51.5 -43t-55 -22.5z" />
    <glyph glyph-name="uni1ECA" unicode="&#x1eca;" horiz-adv-x="333" 
d="M283 660v-660h-233v660h233zM167 -226q-56 0 -84 23.5t-28 70.5t28 70.5t84 23.5q58 0 86.5 -23.5t28.5 -70.5t-28.5 -70.5t-86.5 -23.5z" />
    <glyph glyph-name="uni1ECB" unicode="&#x1ecb;" horiz-adv-x="308" 
d="M154 532q-68 0 -96.5 22t-28.5 74q0 53 28.5 74.5t96.5 21.5t96.5 -21.5t28.5 -74.5q0 -52 -28.5 -74t-96.5 -22zM269 500v-500h-230v500h230zM154 -226q-56 0 -84 23.5t-28 70.5t28 70.5t84 23.5q58 0 86.5 -23.5t28.5 -70.5t-28.5 -70.5t-86.5 -23.5z" />
    <glyph glyph-name="uni1ECC" unicode="&#x1ecc;" horiz-adv-x="729" 
d="M365 670q105 0 180 -40t115 -116t40 -184t-40 -184t-115 -116t-180 -40q-104 0 -179.5 40t-116 116t-40.5 184t40.5 184t116 116t179.5 40zM365 495q-34 0 -55.5 -17.5t-32 -53.5t-10.5 -94q0 -57 10.5 -93.5t32 -54t55.5 -17.5t55.5 17.5t31.5 54t10 93.5q0 58 -10 94
t-31.5 53.5t-55.5 17.5zM365 -226q-56 0 -84 23.5t-28 70.5t28 70.5t84 23.5q58 0 86.5 -23.5t28.5 -70.5t-28.5 -70.5t-86.5 -23.5z" />
    <glyph glyph-name="uni1ECD" unicode="&#x1ecd;" horiz-adv-x="598" 
d="M299 510q84 0 146.5 -30.5t97.5 -88.5t35 -141q0 -82 -35 -140.5t-97.5 -89t-146.5 -30.5q-83 0 -146 30.5t-98 89t-35 140.5q0 83 35 141t98 88.5t146 30.5zM299 355q-15 0 -26 -8.5t-16.5 -31.5t-5.5 -65t5.5 -64.5t16.5 -31.5t26 -9q16 0 26.5 9t16 31.5t5.5 64.5
t-5.5 65t-16 31.5t-26.5 8.5zM299 -226q-56 0 -84 23.5t-28 70.5t28 70.5t84 23.5q58 0 86.5 -23.5t28.5 -70.5t-28.5 -70.5t-86.5 -23.5z" />
    <glyph glyph-name="uni1ECE" unicode="&#x1ece;" horiz-adv-x="729" 
d="M365 670q105 0 180 -40t115 -116t40 -184t-40 -184t-115 -116t-180 -40q-104 0 -179.5 40t-116 116t-40.5 184t40.5 184t116 116t179.5 40zM365 495q-34 0 -55.5 -17.5t-32 -53.5t-10.5 -94q0 -57 10.5 -93.5t32 -54t55.5 -17.5t55.5 17.5t31.5 54t10 93.5q0 58 -10 94
t-31.5 53.5t-55.5 17.5zM366 690l-43 62q29 11 40 23t11 23q0 13 -7.5 21t-22.5 8q-14 0 -21.5 -7t-12.5 -19l-98 42q11 46 50 71t95 25q34 0 65.5 -12t51.5 -37t20 -64q0 -43 -21.5 -70.5t-51.5 -43t-55 -22.5z" />
    <glyph glyph-name="uni1ECF" unicode="&#x1ecf;" horiz-adv-x="598" 
d="M299 510q84 0 146.5 -30.5t97.5 -88.5t35 -141q0 -82 -35 -140.5t-97.5 -89t-146.5 -30.5q-83 0 -146 30.5t-98 89t-35 140.5q0 83 35 141t98 88.5t146 30.5zM299 355q-15 0 -26 -8.5t-16.5 -31.5t-5.5 -65t5.5 -64.5t16.5 -31.5t26 -9q16 0 26.5 9t16 31.5t5.5 64.5
t-5.5 65t-16 31.5t-26.5 8.5zM300 540l-43 62q29 11 40 23t11 23q0 13 -7.5 21t-22.5 8q-14 0 -21.5 -7t-12.5 -19l-98 42q11 46 50 71t95 25q34 0 65.5 -12t51.5 -37t20 -64q0 -43 -21.5 -70.5t-51.5 -43t-55 -22.5z" />
    <glyph glyph-name="uni1ED0" unicode="&#x1ed0;" horiz-adv-x="729" 
d="M557 707h-141l-51 64l-51 -64h-141l96 160h192zM582 952h177l-82 -150h-147zM365 670q105 0 180 -40t115 -116t40 -184t-40 -184t-115 -116t-180 -40q-104 0 -179.5 40t-116 116t-40.5 184t40.5 184t116 116t179.5 40zM365 495q-34 0 -55.5 -17.5t-32 -53.5t-10.5 -94
q0 -57 10.5 -93.5t32 -54t55.5 -17.5t55.5 17.5t31.5 54t10 93.5q0 58 -10 94t-31.5 53.5t-55.5 17.5z" />
    <glyph glyph-name="uni1ED1" unicode="&#x1ed1;" horiz-adv-x="598" 
d="M516 792h177l-82 -150h-147zM491 547h-141l-51 64l-51 -64h-141l96 160h192zM299 510q84 0 146.5 -30.5t97.5 -88.5t35 -141q0 -82 -35 -140.5t-97.5 -89t-146.5 -30.5q-83 0 -146 30.5t-98 89t-35 140.5q0 83 35 141t98 88.5t146 30.5zM299 355q-15 0 -26 -8.5
t-16.5 -31.5t-5.5 -65t5.5 -64.5t16.5 -31.5t26 -9q16 0 26.5 9t16 31.5t5.5 64.5t-5.5 65t-16 31.5t-26.5 8.5z" />
    <glyph glyph-name="uni1ED2" unicode="&#x1ed2;" horiz-adv-x="729" 
d="M557 707h-141l-51 64l-51 -64h-141l96 160h192zM642 952l52 -150h-147l-82 150h177zM365 670q105 0 180 -40t115 -116t40 -184t-40 -184t-115 -116t-180 -40q-104 0 -179.5 40t-116 116t-40.5 184t40.5 184t116 116t179.5 40zM365 495q-34 0 -55.5 -17.5t-32 -53.5
t-10.5 -94q0 -57 10.5 -93.5t32 -54t55.5 -17.5t55.5 17.5t31.5 54t10 93.5q0 58 -10 94t-31.5 53.5t-55.5 17.5z" />
    <glyph glyph-name="uni1ED3" unicode="&#x1ed3;" horiz-adv-x="598" 
d="M576 792l52 -150h-147l-82 150h177zM491 547h-141l-51 64l-51 -64h-141l96 160h192zM299 510q84 0 146.5 -30.5t97.5 -88.5t35 -141q0 -82 -35 -140.5t-97.5 -89t-146.5 -30.5q-83 0 -146 30.5t-98 89t-35 140.5q0 83 35 141t98 88.5t146 30.5zM299 355q-15 0 -26 -8.5
t-16.5 -31.5t-5.5 -65t5.5 -64.5t16.5 -31.5t26 -9q16 0 26.5 9t16 31.5t5.5 64.5t-5.5 65t-16 31.5t-26.5 8.5z" />
    <glyph glyph-name="uni1ED4" unicode="&#x1ed4;" horiz-adv-x="729" 
d="M557 707h-141l-51 64l-51 -64h-141l96 160h192zM552 788l-43 62q29 11 40 23t11 23q0 13 -7.5 21t-22.5 8q-14 0 -21.5 -7t-12.5 -19l-98 42q11 46 50 71t95 25q34 0 65.5 -12t51.5 -37t20 -64q0 -43 -21.5 -70.5t-51.5 -43t-55 -22.5zM365 670q105 0 180 -40t115 -116
t40 -184t-40 -184t-115 -116t-180 -40q-104 0 -179.5 40t-116 116t-40.5 184t40.5 184t116 116t179.5 40zM365 495q-34 0 -55.5 -17.5t-32 -53.5t-10.5 -94q0 -57 10.5 -93.5t32 -54t55.5 -17.5t55.5 17.5t31.5 54t10 93.5q0 58 -10 94t-31.5 53.5t-55.5 17.5z" />
    <glyph glyph-name="uni1ED5" unicode="&#x1ed5;" horiz-adv-x="598" 
d="M486 628l-43 62q29 11 40 23t11 23q0 13 -7.5 21t-22.5 8q-14 0 -21.5 -7t-12.5 -19l-98 42q11 46 50 71t95 25q34 0 65.5 -12t51.5 -37t20 -64q0 -43 -21.5 -70.5t-51.5 -43t-55 -22.5zM491 547h-141l-51 64l-51 -64h-141l96 160h192zM299 510q84 0 146.5 -30.5
t97.5 -88.5t35 -141q0 -82 -35 -140.5t-97.5 -89t-146.5 -30.5q-83 0 -146 30.5t-98 89t-35 140.5q0 83 35 141t98 88.5t146 30.5zM299 355q-15 0 -26 -8.5t-16.5 -31.5t-5.5 -65t5.5 -64.5t16.5 -31.5t26 -9q16 0 26.5 9t16 31.5t5.5 64.5t-5.5 65t-16 31.5t-26.5 8.5z" />
    <glyph glyph-name="uni1ED6" unicode="&#x1ed6;" horiz-adv-x="729" 
d="M557 707h-141l-51 64l-51 -64h-141l96 160h192zM555 1047q-2 -81 -37.5 -119.5t-80.5 -38.5q-25 0 -43.5 6.5t-33 15.5t-26 16t-23.5 7q-13 0 -19.5 -10.5t-8.5 -32.5h-106q2 81 39 119.5t89 38.5q24 0 41 -7t29.5 -16t23 -15.5t23.5 -6.5q12 0 18.5 10t8.5 33h106z
M365 670q105 0 180 -40t115 -116t40 -184t-40 -184t-115 -116t-180 -40q-104 0 -179.5 40t-116 116t-40.5 184t40.5 184t116 116t179.5 40zM365 495q-34 0 -55.5 -17.5t-32 -53.5t-10.5 -94q0 -57 10.5 -93.5t32 -54t55.5 -17.5t55.5 17.5t31.5 54t10 93.5q0 58 -10 94
t-31.5 53.5t-55.5 17.5z" />
    <glyph glyph-name="uni1ED7" unicode="&#x1ed7;" horiz-adv-x="598" 
d="M491 547h-141l-51 64l-51 -64h-141l96 160h192zM489 887q-2 -81 -37.5 -119.5t-80.5 -38.5q-25 0 -43.5 6.5t-33 15.5t-26 16t-23.5 7q-13 0 -19.5 -10.5t-8.5 -32.5h-106q2 81 39 119.5t89 38.5q24 0 41 -7t29.5 -16t23 -15.5t23.5 -6.5q12 0 18.5 10t8.5 33h106z
M299 510q84 0 146.5 -30.5t97.5 -88.5t35 -141q0 -82 -35 -140.5t-97.5 -89t-146.5 -30.5q-83 0 -146 30.5t-98 89t-35 140.5q0 83 35 141t98 88.5t146 30.5zM299 355q-15 0 -26 -8.5t-16.5 -31.5t-5.5 -65t5.5 -64.5t16.5 -31.5t26 -9q16 0 26.5 9t16 31.5t5.5 64.5
t-5.5 65t-16 31.5t-26.5 8.5z" />
    <glyph glyph-name="uni1ED8" unicode="&#x1ed8;" horiz-adv-x="729" 
d="M365 670q105 0 180 -40t115 -116t40 -184t-40 -184t-115 -116t-180 -40q-104 0 -179.5 40t-116 116t-40.5 184t40.5 184t116 116t179.5 40zM365 495q-34 0 -55.5 -17.5t-32 -53.5t-10.5 -94q0 -57 10.5 -93.5t32 -54t55.5 -17.5t55.5 17.5t31.5 54t10 93.5q0 58 -10 94
t-31.5 53.5t-55.5 17.5zM365 -226q-56 0 -84 23.5t-28 70.5t28 70.5t84 23.5q58 0 86.5 -23.5t28.5 -70.5t-28.5 -70.5t-86.5 -23.5zM568 709h-148l-55 82l-55 -82h-148l94 167h218z" />
    <glyph glyph-name="uni1ED9" unicode="&#x1ed9;" horiz-adv-x="598" 
d="M299 510q84 0 146.5 -30.5t97.5 -88.5t35 -141q0 -82 -35 -140.5t-97.5 -89t-146.5 -30.5q-83 0 -146 30.5t-98 89t-35 140.5q0 83 35 141t98 88.5t146 30.5zM299 355q-15 0 -26 -8.5t-16.5 -31.5t-5.5 -65t5.5 -64.5t16.5 -31.5t26 -9q16 0 26.5 9t16 31.5t5.5 64.5
t-5.5 65t-16 31.5t-26.5 8.5zM299 -226q-56 0 -84 23.5t-28 70.5t28 70.5t84 23.5q58 0 86.5 -23.5t28.5 -70.5t-28.5 -70.5t-86.5 -23.5zM512 547h-156l-57 71l-57 -71h-156l106 177h214z" />
    <glyph glyph-name="uni1EDA" unicode="&#x1eda;" horiz-adv-x="729" 
d="M692 764q0 -106 -58.5 -164t-176.5 -58v118q45 0 66.5 24t21.5 80h147zM365 670q105 0 180 -40t115 -116t40 -184t-40 -184t-115 -116t-180 -40q-104 0 -179.5 40t-116 116t-40.5 184t40.5 184t116 116t179.5 40zM365 495q-34 0 -55.5 -17.5t-32 -53.5t-10.5 -94
q0 -57 10.5 -93.5t32 -54t55.5 -17.5t55.5 17.5t31.5 54t10 93.5q0 58 -10 94t-31.5 53.5t-55.5 17.5zM332 876h196l-91 -167h-163z" />
    <glyph glyph-name="uni1EDB" unicode="&#x1edb;" horiz-adv-x="598" 
d="M299 510q84 0 146.5 -30.5t97.5 -88.5t35 -141q0 -82 -35 -140.5t-97.5 -89t-146.5 -30.5q-83 0 -146 30.5t-98 89t-35 140.5q0 83 35 141t98 88.5t146 30.5zM299 355q-15 0 -26 -8.5t-16.5 -31.5t-5.5 -65t5.5 -64.5t16.5 -31.5t26 -9q16 0 26.5 9t16 31.5t5.5 64.5
t-5.5 65t-16 31.5t-26.5 8.5zM387 390v110q23 0 36.5 24t13.5 81h147q0 -112 -52 -163.5t-145 -51.5zM264 730h205l-103 -177h-162z" />
    <glyph glyph-name="uni1EDC" unicode="&#x1edc;" horiz-adv-x="729" 
d="M692 764q0 -106 -58.5 -164t-176.5 -58v118q45 0 66.5 24t21.5 80h147zM365 670q105 0 180 -40t115 -116t40 -184t-40 -184t-115 -116t-180 -40q-104 0 -179.5 40t-116 116t-40.5 184t40.5 184t116 116t179.5 40zM365 495q-34 0 -55.5 -17.5t-32 -53.5t-10.5 -94
q0 -57 10.5 -93.5t32 -54t55.5 -17.5t55.5 17.5t31.5 54t10 93.5q0 58 -10 94t-31.5 53.5t-55.5 17.5zM398 876l58 -167h-163l-91 167h196z" />
    <glyph glyph-name="uni1EDD" unicode="&#x1edd;" horiz-adv-x="598" 
d="M299 510q84 0 146.5 -30.5t97.5 -88.5t35 -141q0 -82 -35 -140.5t-97.5 -89t-146.5 -30.5q-83 0 -146 30.5t-98 89t-35 140.5q0 83 35 141t98 88.5t146 30.5zM299 355q-15 0 -26 -8.5t-16.5 -31.5t-5.5 -65t5.5 -64.5t16.5 -31.5t26 -9q16 0 26.5 9t16 31.5t5.5 64.5
t-5.5 65t-16 31.5t-26.5 8.5zM387 390v110q23 0 36.5 24t13.5 81h147q0 -112 -52 -163.5t-145 -51.5zM322 730l60 -177h-162l-103 177h205z" />
    <glyph glyph-name="uni1EDE" unicode="&#x1ede;" horiz-adv-x="729" 
d="M692 764q0 -106 -58.5 -164t-176.5 -58v118q45 0 66.5 24t21.5 80h147zM365 670q105 0 180 -40t115 -116t40 -184t-40 -184t-115 -116t-180 -40q-104 0 -179.5 40t-116 116t-40.5 184t40.5 184t116 116t179.5 40zM365 495q-34 0 -55.5 -17.5t-32 -53.5t-10.5 -94
q0 -57 10.5 -93.5t32 -54t55.5 -17.5t55.5 17.5t31.5 54t10 93.5q0 58 -10 94t-31.5 53.5t-55.5 17.5zM366 690l-43 62q29 11 40 23t11 23q0 13 -7.5 21t-22.5 8q-14 0 -21.5 -7t-12.5 -19l-98 42q11 46 50 71t95 25q34 0 65.5 -12t51.5 -37t20 -64q0 -43 -21.5 -70.5
t-51.5 -43t-55 -22.5z" />
    <glyph glyph-name="uni1EDF" unicode="&#x1edf;" horiz-adv-x="598" 
d="M299 510q84 0 146.5 -30.5t97.5 -88.5t35 -141q0 -82 -35 -140.5t-97.5 -89t-146.5 -30.5q-83 0 -146 30.5t-98 89t-35 140.5q0 83 35 141t98 88.5t146 30.5zM299 355q-15 0 -26 -8.5t-16.5 -31.5t-5.5 -65t5.5 -64.5t16.5 -31.5t26 -9q16 0 26.5 9t16 31.5t5.5 64.5
t-5.5 65t-16 31.5t-26.5 8.5zM387 390v110q23 0 36.5 24t13.5 81h147q0 -112 -52 -163.5t-145 -51.5zM300 540l-43 62q29 11 40 23t11 23q0 13 -7.5 21t-22.5 8q-14 0 -21.5 -7t-12.5 -19l-98 42q11 46 50 71t95 25q34 0 65.5 -12t51.5 -37t20 -64q0 -43 -21.5 -70.5
t-51.5 -43t-55 -22.5z" />
    <glyph glyph-name="uni1EE0" unicode="&#x1ee0;" horiz-adv-x="729" 
d="M692 764q0 -106 -58.5 -164t-176.5 -58v118q45 0 66.5 24t21.5 80h147zM365 670q105 0 180 -40t115 -116t40 -184t-40 -184t-115 -116t-180 -40q-104 0 -179.5 40t-116 116t-40.5 184t40.5 184t116 116t179.5 40zM365 495q-34 0 -55.5 -17.5t-32 -53.5t-10.5 -94
q0 -57 10.5 -93.5t32 -54t55.5 -17.5t55.5 17.5t31.5 54t10 93.5q0 58 -10 94t-31.5 53.5t-55.5 17.5zM533 879q-1 -60 -20 -99t-48.5 -58t-62.5 -19q-28 0 -48.5 7.5t-36.5 17.5t-29 17.5t-26 7.5q-14 0 -21.5 -11t-9.5 -37h-118q2 90 43 133t99 43q27 0 46 -7.5
t32.5 -17.5t25.5 -17.5t26 -7.5t21 11.5t9 36.5h118z" />
    <glyph glyph-name="uni1EE1" unicode="&#x1ee1;" horiz-adv-x="598" 
d="M299 510q84 0 146.5 -30.5t97.5 -88.5t35 -141q0 -82 -35 -140.5t-97.5 -89t-146.5 -30.5q-83 0 -146 30.5t-98 89t-35 140.5q0 83 35 141t98 88.5t146 30.5zM299 355q-15 0 -26 -8.5t-16.5 -31.5t-5.5 -65t5.5 -64.5t16.5 -31.5t26 -9q16 0 26.5 9t16 31.5t5.5 64.5
t-5.5 65t-16 31.5t-26.5 8.5zM387 390v110q23 0 36.5 24t13.5 81h147q0 -112 -52 -163.5t-145 -51.5zM449 719q-1 -60 -20 -99t-48.5 -58t-62.5 -19q-28 0 -48.5 7.5t-36.5 17.5t-29 17.5t-26 7.5q-14 0 -21.5 -11t-9.5 -37h-118q2 90 43 133t99 43q27 0 46 -7.5t32.5 -17.5
t25.5 -17.5t26 -7.5t21 11.5t9 36.5h118z" />
    <glyph glyph-name="uni1EE2" unicode="&#x1ee2;" horiz-adv-x="729" 
d="M692 764q0 -106 -58.5 -164t-176.5 -58v118q45 0 66.5 24t21.5 80h147zM365 670q105 0 180 -40t115 -116t40 -184t-40 -184t-115 -116t-180 -40q-104 0 -179.5 40t-116 116t-40.5 184t40.5 184t116 116t179.5 40zM365 495q-34 0 -55.5 -17.5t-32 -53.5t-10.5 -94
q0 -57 10.5 -93.5t32 -54t55.5 -17.5t55.5 17.5t31.5 54t10 93.5q0 58 -10 94t-31.5 53.5t-55.5 17.5zM365 -226q-56 0 -84 23.5t-28 70.5t28 70.5t84 23.5q58 0 86.5 -23.5t28.5 -70.5t-28.5 -70.5t-86.5 -23.5z" />
    </font>
</defs>
</svg>
